<?xml version="1.0" encoding="UTF-8" standalone="no"?>
<!-- Created with Inkscape (http://www.inkscape.org/) -->

<svg
   width="3840mm"
   height="2160mm"
   viewBox="0 0 3840 2160"
   version="1.1"
   id="svg5"
   inkscape:version="1.2.2 (732a01da63, 2022-12-09)"
   sodipodi:docname="growth mod.svg"
   xml:space="preserve"
   inkscape:export-filename="abnormalGrowthMod.png"
   inkscape:export-xdpi="96.096664"
   inkscape:export-ydpi="96.096664"
   xmlns:inkscape="http://www.inkscape.org/namespaces/inkscape"
   xmlns:sodipodi="http://sodipodi.sourceforge.net/DTD/sodipodi-0.dtd"
   xmlns="http://www.w3.org/2000/svg"
   xmlns:svg="http://www.w3.org/2000/svg"><sodipodi:namedview
     id="namedview7"
     pagecolor="#ffffff"
     bordercolor="#000000"
     borderopacity="0.25"
     inkscape:showpageshadow="2"
     inkscape:pageopacity="0.0"
     inkscape:pagecheckerboard="0"
     inkscape:deskcolor="#d1d1d1"
     inkscape:document-units="mm"
     showgrid="false"
     inkscape:zoom="0.032047597"
     inkscape:cx="1638.1884"
     inkscape:cy="6833.5857"
     inkscape:window-width="1920"
     inkscape:window-height="986"
     inkscape:window-x="-11"
     inkscape:window-y="-11"
     inkscape:window-maximized="1"
     inkscape:current-layer="layer1" /><defs
     id="defs2" /><g
     inkscape:label="Layer 1"
     inkscape:groupmode="layer"
     id="layer1"><g
       id="g10087"
       transform="matrix(4.603633,0,0,4.4842698,-8845.8546,-1405.7065)"><circle
         style="fill:#ff8080;fill-opacity:1;stroke:#000000;stroke-width:47.3303;paint-order:markers stroke fill"
         id="path6630"
         cx="2356.7651"
         cy="558.26929"
         r="115" /><ellipse
         style="fill:#ff5a5a;fill-opacity:1;stroke:#000000;stroke-width:16.8739;stroke-dasharray:none;paint-order:markers stroke fill"
         id="path6704"
         cx="2350.8557"
         cy="483.2052"
         rx="26.563065"
         ry="26.563066" /><ellipse
         style="fill:#ff5a5a;fill-opacity:1;stroke:#000000;stroke-width:16.8739;stroke-dasharray:none;paint-order:markers stroke fill"
         id="ellipse7404"
         cx="2437.2852"
         cy="461.53333"
         rx="26.563065"
         ry="26.563066" /><ellipse
         style="fill:#ff5a5a;fill-opacity:1;stroke:#000000;stroke-width:16.8739;stroke-dasharray:none;paint-order:markers stroke fill"
         id="ellipse7406"
         cx="2420.2573"
         cy="539.70685"
         rx="26.563065"
         ry="26.563066" /><ellipse
         style="fill:#ff5a5a;fill-opacity:1;stroke:#000000;stroke-width:16.8739;stroke-dasharray:none;paint-order:markers stroke fill"
         id="ellipse7408"
         cx="2406.5833"
         cy="614.26837"
         rx="26.563065"
         ry="26.563066" /><ellipse
         style="fill:#ff5a5a;fill-opacity:1;stroke:#000000;stroke-width:16.8739;stroke-dasharray:none;paint-order:markers stroke fill"
         id="ellipse7410"
         cx="2486.0469"
         cy="595.17651"
         rx="26.563065"
         ry="26.563066" /><path
         style="fill:#ff5a5a;fill-opacity:1;stroke:none;stroke-width:20;stroke-dasharray:none;paint-order:markers stroke fill"
         id="path7412"
         d="m 2312.6173,470.31047 c -0.2259,1.96588 -0.132,3.96954 0.2819,5.90732 0.5696,2.66671 1.6138,5.19756 2.5984,7.72795 0.7974,1.96086 1.5394,3.94645 2.1656,5.96919 0.4471,1.44415 0.8251,2.91216 1.2277,4.36917 0.3354,1.18084 0.6173,2.3785 0.9921,3.54806 0.2098,0.65432 0.4825,1.39597 0.7139,2.04076 1.031,2.62964 2.4272,5.09995 3.7881,7.56983 0.8665,1.40439 1.5545,2.90598 2.3177,4.36587 0.7415,1.41822 0.3871,0.65328 0.597,1.10887 2.7311,-1.88429 5.7324,-3.42712 8.1932,-5.65285 0.3285,-0.29718 -0.4639,-0.75507 -0.6831,-1.14004 -0.9882,-1.73532 -1.565,-2.86975 -2.5212,-4.70741 -1.67,-3.2094 -1.6153,-3.11994 -3.2961,-6.4184 -2.3721,-4.70014 -4.7051,-9.42557 -7.286,-14.01609 -1.5939,-2.45126 -2.9653,-5.08809 -8.1768,-1.81607 -1.7935,1.12601 -0.9564,4.1533 -1.0248,6.26988 -0.021,0.64969 0.5139,1.1942 0.7641,1.79412 1.1673,2.79831 0.7713,1.81258 1.8228,4.87566 0.9564,3.20228 1.7164,6.45829 2.4467,9.71798 0.1964,0.87636 0.3869,1.75401 0.5742,2.63234 0.1011,0.47371 -0.1884,1.35438 0.291,1.4237 0.4611,0.0667 -0.06,-0.92982 -0.091,-1.39472 3.0445,-0.81119 6.3445,-0.96782 9.1336,-2.43356 0.6263,-0.32912 -0.4617,-1.33771 -0.6727,-2.01295 -0.2919,-0.93348 -0.5724,-1.87063 -0.8358,-2.81255 -0.6494,-2.32331 -1.0865,-4.10091 -1.5871,-6.46216 -0.2244,-1.05828 -0.4168,-2.12309 -0.6252,-3.18465 -0.461,-2.91881 -0.8487,-5.85285 -1.1006,-8.7978 -0.083,-0.96729 -0.2089,-1.89452 -0.045,-2.85072 0.01,-0.06 0.07,-0.0998 0.1047,-0.14965 -0.3377,1.36422 -0.4944,2.56595 -2.645,3.00437 -1.5809,0.32229 -3.1766,-0.56997 -4.7729,-0.80468 -0.038,-0.006 -0.086,0.0569 -0.071,0.0925 0.1443,0.33256 0.3523,0.6337 0.5242,0.95282 0.1971,0.36571 0.3884,0.7344 0.5826,1.10159 1.0797,2.15842 1.9778,4.3942 2.7103,6.69205 0.6327,2.23581 0.8334,4.56393 1.2006,6.85263 0.393,2.49047 0.8366,4.98597 1.5561,7.40654 0.1789,0.60195 0.3888,1.19425 0.5832,1.79138 1.247,3.55328 3.0598,6.86009 4.7899,10.19189 1.0439,2.18236 2.1387,4.33668 3.3444,6.43448 1.467,2.42268 3.0447,4.7466 7.5681,2.66332 3.9454,-1.8171 2.2375,-6.08637 1.412,-8.66497 -1.6111,-4.40222 -2.6508,-8.97398 -3.3701,-13.59779 -0.052,-0.44711 -0.1043,-0.89423 -0.1565,-1.34138 0.022,0.0204 0.088,0.0419 0.065,0.0607 -1.935,1.58909 -3.4491,4.02513 -5.8607,4.69863 -2.609,0.72861 -3.4953,-4.0155 -3.0817,-1.45928 0.096,0.59396 0.2043,1.18591 0.3065,1.77887 0.5194,3.41969 0.8671,6.86388 1.0544,10.31722 0.029,1.15845 -0.068,2.31142 -0.1695,3.4636 -0.019,0.21569 -0.063,0.4309 -0.055,0.64728 0.021,0.56724 0.094,1.13139 0.1404,1.69707 2.2575,1.2084 4.224,3.37693 6.7725,3.62521 1.3071,0.12732 2.0493,-1.67039 2.8837,-2.68452 0.3776,-0.45894 0.4889,-1.08537 0.681,-1.64782 0.5417,-1.58676 0.7833,-3.27718 1.0899,-4.9194 0.085,-0.45291 0.1684,-0.90622 0.2557,-1.35877 0.2797,-1.45015 0.3214,-1.52624 0.563,-3.06845 0.2939,-1.87632 0.4947,-3.75819 0.6792,-5.64766 0.2892,-3.17423 0.6397,-6.34206 0.8923,-9.51963 0.1909,-1.97345 0.1289,-3.93933 -1.1965,-5.59102 -1.2214,-1.52201 -1.8372,-1.54461 -3.45,-2.14984 -0.7996,-0.0985 -1.4637,-0.10433 -2.1463,-0.48138 -0.3776,-0.2086 -0.4605,-0.14624 -0.2533,-0.23337 0.047,0.006 0.1415,0.067 0.1417,0.0193 0,-0.01 -0.3064,-0.56412 -0.3415,-0.66397 -0.01,-0.0286 -0.03,-0.11719 -0.021,-0.0885 0.093,0.27353 0.1806,0.54899 0.2709,0.82346 -0.018,1.90313 0.1691,1.16415 -0.4597,2.76347 -0.024,0.0603 -0.1372,0.21606 -0.089,0.17275 0.1413,-0.12708 0.258,-0.27967 0.3746,-0.42966 1.0103,-1.29916 0.6971,-0.93422 1.5455,-2.75929 0.1068,-0.7109 0.3067,-1.41398 0.3204,-2.13272 0.026,-1.36187 -0.3923,-2.67004 -1.0418,-3.85157 -0.462,-0.84055 -1.4847,-2.06489 -2.2296,-2.73476 -0.5048,-0.45402 -1.0617,-0.84666 -1.5926,-1.26997 -1.6782,-1.12575 -3.4859,-2.02983 -5.2896,-2.93113 -0.6067,-0.30319 -1.7866,-0.84069 -2.4098,-1.27281 -0.1624,-0.11261 -0.2877,-0.27099 -0.4316,-0.40648 -1.5045,-1.57861 -2.9394,-3.22199 -4.3979,-4.84291 -0.2416,-0.2469 -0.4882,-0.48892 -0.7247,-0.74075 -0.5888,-0.62717 0.6542,0.26117 0.5303,0.80243 -0.5113,2.23353 -1.2943,4.43315 -2.3924,6.44416 -0.3933,0.72039 -2.1336,0.1764 -0.9101,0.50322 0.5316,0.1257 1.102,0.2292 1.6036,0.46209 0.2102,0.0976 0.3976,0.23826 0.5942,0.36105 0.3087,0.19291 0.6217,0.37952 0.9215,0.586 0.6231,0.42918 1.3564,1.02539 1.9446,1.49005 1.5147,1.17507 2.7758,2.63586 4.2856,3.81606 0.4679,0.36566 0.9582,0.70147 1.4373,1.05217 2.6292,1.66629 5.316,3.23644 8.0262,4.76613 6.1591,3.47352 11.0714,-5.23677 4.9123,-8.7103 v 0 c -2.391,-1.34718 -4.7525,-2.74225 -7.0956,-4.17126 -0.2816,-0.19701 -0.5709,-0.38346 -0.8449,-0.591 -0.5244,-0.39717 -0.9188,-0.77986 -1.3992,-1.23153 -0.8597,-0.8083 -1.0223,-0.99306 -1.9479,-1.79345 -0.3943,-0.341 -0.7998,-0.66887 -1.1998,-1.0033 -1.0364,-0.80942 -1.7807,-1.42296 -2.8968,-2.15191 -2.0748,-1.35504 -4.1871,-2.31556 -6.6369,-2.73455 -0.9953,-0.14825 -3.8531,-0.72162 -4.5199,0.0705 -1.5892,1.88801 -2.4858,4.33424 -3.0941,6.72589 -0.1462,0.57449 1.4589,2.23004 1.9742,2.73833 1.8435,2.04727 3.6183,4.171 5.6625,6.02406 0.5496,0.40796 1.0771,0.84768 1.6489,1.22386 0.8319,0.54718 1.9712,1.07146 2.8646,1.51659 1.2668,0.63122 2.531,1.26934 3.7572,1.97747 0.1653,0.10269 0.3406,0.19082 0.496,0.30808 0.1438,0.10856 0.2421,0.27512 0.3975,0.36642 0.033,0.0193 0.051,-0.0655 0.049,-0.10382 -0.01,-0.18005 -0.072,-0.35486 -0.079,-0.53501 -0.023,-0.62111 0.1006,-0.78015 0.3033,-1.4251 0.1281,-0.18368 0.2467,-0.37433 0.3842,-0.55105 0.032,-0.0411 -0.034,0.10075 -0.066,0.14179 -0.139,0.1778 -0.3016,0.33602 -0.4445,0.51075 -0.2404,0.29406 -0.5158,0.56589 -0.7049,0.89525 -1.1321,1.97109 -0.8497,1.74606 -1.0361,4.06548 0.1252,0.51906 0.22,1.04635 0.3754,1.55715 0.083,0.27167 0.214,0.52642 0.3363,0.78272 0.7465,1.56461 1.7785,2.95388 3.0733,4.1112 0.4851,0.33515 0.9496,0.70207 1.4551,1.00544 1.284,0.77052 3.2976,1.42515 4.7984,1.53363 0.1006,0.007 -0.1918,-0.0618 -0.2878,-0.0927 -0.2956,-0.14002 -0.627,-0.22143 -0.887,-0.42003 -1.0721,-0.81917 -1.4791,-1.33807 -1.8285,-2.62726 -0.083,-0.30567 -0.01,-0.63404 -0.041,-0.94916 -0.042,-0.41974 0.051,2.40186 -0.067,1.26362 -0.2469,3.1197 -0.5952,6.22943 -0.8769,9.34596 -0.1584,1.64862 -0.3305,3.29147 -0.5832,4.92889 -0.2114,1.36906 -0.2672,1.52281 -0.5333,2.90267 -0.088,0.45757 -0.1723,0.91593 -0.2585,1.37393 -0.088,0.46979 -0.1744,0.93974 -0.2627,1.4094 -0.072,0.38196 -0.1396,0.7647 -0.2172,1.14549 -0.052,0.25673 -0.1344,0.50766 -0.1724,0.76687 0,0.0327 0.02,0.10581 0.047,0.0871 0.7921,-0.54152 1.3843,-1.92037 2.3193,-1.705 2.4297,0.55962 4.3215,2.4882 6.4822,3.73232 0.01,0.38949 -0.023,0.78261 0.031,1.16853 0.027,0.19535 0.032,-0.39314 0.05,-0.58965 0.1,-1.14162 0.191,-2.27848 0.203,-3.42545 0.01,-0.49512 -0.01,-0.99028 -0.01,-1.48543 -0.2137,-3.85156 -0.5976,-7.69376 -1.1914,-11.50617 -0.4085,-2.27457 -1.1948,-8.62925 -4.8424,-8.33048 -5.7169,0.4682 -6.5665,2.8684 -6.3646,6.1731 0.035,0.57232 0.1381,1.13844 0.2071,1.7077 0.1128,0.71323 0.2133,1.42853 0.3384,2.13973 0.7767,4.41667 1.9001,8.76975 3.4,12.99708 0.1329,0.40063 0.2652,0.80147 0.3986,1.20192 0.044,0.13335 0.062,0.51927 0.1349,0.39947 0.9112,-1.48654 0.8091,-4.03709 2.4523,-4.62024 5.2655,-1.86864 7.8359,3.58641 6.21,0.93928 -1.1377,-1.96948 -2.1453,-4.00445 -3.1348,-6.05145 -1.4844,-2.8585 -3.0569,-5.68648 -4.1688,-8.71831 -0.1413,-0.41981 -0.295,-0.83561 -0.4239,-1.25942 -0.6341,-2.08616 -0.9973,-4.24651 -1.3389,-6.39551 -0.4517,-2.78484 -0.6981,-5.6184 -1.5529,-8.32117 -0.9232,-2.85316 -2.0324,-5.63851 -3.3941,-8.31344 -0.2791,-0.52592 -1.0976,-2.09056 -1.4075,-2.58255 -0.3761,-0.59698 -0.5663,-1.42547 -1.194,-1.74784 -1.7757,-0.91209 -3.7223,-1.96021 -5.7121,-1.79945 -2.5412,0.20534 -3.1867,2.57741 -3.9061,4.31056 -0.1091,0.60291 -0.2651,1.1992 -0.3273,1.80872 -0.1569,1.53599 -0.049,2.81853 0.084,4.3574 0.2812,3.25429 0.7139,6.49636 1.2379,9.71973 0.2292,1.15917 0.4406,2.32201 0.6875,3.47755 0.7388,3.45726 1.6273,6.88298 2.6991,10.25245 0.2701,0.84936 -0.01,2.33598 0.8638,2.5305 3.2777,0.73289 6.717,-0.0562 10.0755,-0.0843 -0.013,-0.60458 0.024,-1.21238 -0.04,-1.81369 -0.056,-0.52478 -0.2077,-1.03484 -0.3178,-1.55094 -0.1948,-0.91236 -0.3927,-1.82409 -0.5971,-2.73436 -0.8105,-3.61096 -1.6567,-7.2176 -2.7448,-10.75711 -1.208,-3.46078 -0.8185,-2.52781 -2.0811,-5.54302 -0.1949,-0.46538 -0.3185,-1.80743 -0.6009,-1.38925 -0.9247,1.3698 -0.094,4.06013 -1.6239,4.68474 -5.2646,2.14894 -9.0376,-3.14937 -7.2424,-0.69678 2.5188,4.4668 4.7731,9.07788 7.0901,13.65062 1.6101,3.15936 1.7442,3.44037 3.3477,6.51822 0.9843,1.88926 1.7772,3.43815 2.8326,5.2587 0.3168,0.5465 0.3841,1.79189 0.9906,1.61549 3.2159,-0.93538 5.9842,-3.00963 8.9762,-4.51445 -0.3187,-0.62185 -0.1239,-0.25117 -0.5956,-1.10614 -0.8203,-1.57171 -1.5682,-3.18384 -2.4934,-4.69914 -0.9263,-1.67634 -0.2543,-0.44513 -1.2171,-2.25343 -0.6759,-1.26941 -1.402,-2.51989 -1.916,-3.86733 -0.023,-0.0622 -0.4753,-1.314 -0.5457,-1.53027 -0.358,-1.09919 -0.6108,-2.2306 -0.9323,-3.34026 -0.4459,-1.61372 -0.8701,-3.23694 -1.3688,-4.83537 -0.6839,-2.19157 -1.4845,-4.34557 -2.3466,-6.47263 -0.5826,-1.49027 -1.0414,-2.61184 -1.5537,-4.11086 -0.4776,-1.39758 -0.8713,-2.83975 -0.7657,-4.33168 1.1028,-6.98452 -8.7748,-8.54416 -9.8776,-1.55961 z" /><path
         style="fill:#ff5a5a;fill-opacity:1;stroke:none;stroke-width:20;stroke-dasharray:none;paint-order:markers stroke fill"
         id="path7420"
         d="m 2426.218,529.37819 c 4.2116,-3.25675 8.3032,-6.66347 12.4761,-9.96891 1.7209,-1.30985 3.3115,-2.81512 5.148,-3.97026 -1.3489,0.69805 -0.9622,0.66648 -2.7658,0.69217 -0.2277,0.003 -0.4491,-0.1552 -0.6734,-0.11586 -0.077,0.0135 0.045,0.15328 0.089,0.21829 0.1541,0.22669 0.344,0.42732 0.5018,0.65137 0.2399,0.34031 0.4604,0.69385 0.6905,1.04077 2.0626,3.36036 4.2343,6.65202 6.3283,9.99233 0.7391,1.2205 1.3964,2.49259 1.7539,3.87789 0.2827,1.07442 0.6607,2.12387 0.9049,3.20842 0.1499,0.66559 0.2622,1.36337 0.3794,2.03332 0.3735,2.12683 0.4962,4.27922 0.5547,6.43364 -0.04,2.38225 -0.029,4.78171 -0.3092,7.15116 -0.2314,1.57884 -0.5691,3.13883 -0.8911,4.70082 0,-0.0727 0.01,-0.14533 0.01,-0.21799 -0.011,-0.003 -0.029,0 -0.034,-0.009 -0.01,-0.0164 0.01,-0.0378 0,-0.0553 0,-0.007 -0.024,0 -0.02,-0.006 1.1781,-1.16337 0.6085,-0.7616 2.0292,-1.40528 0.2243,-0.0427 0.4486,-0.0855 0.6728,-0.12829 0.026,-0.0268 0.1018,-0.0514 0.078,-0.0805 -0.077,-0.0956 -0.2066,-0.13364 -0.308,-0.20312 -0.1615,-0.11068 -0.3216,-0.22355 -0.4809,-0.33729 -0.59,-0.42114 -1.177,-0.84659 -1.7667,-1.2682 -1.722,-1.24841 -3.6401,-2.16009 -5.5252,-3.12338 -0.8094,-0.41357 -1.1576,-0.6219 -1.9264,-1.059 -0.196,-0.43135 -0.9192,-0.34004 -1.1867,-0.71688 -0.088,-0.12439 0.3094,0.1126 0.3873,0.24376 0.5675,0.95543 1.5057,1.85602 1.5199,2.96722 0.039,3.07689 -0.7661,3.39053 -2.3721,4.5453 0.039,0.0127 0.076,0.0373 0.1164,0.0379 0.1801,0.003 0.3596,-0.0266 0.5398,-0.0283 1.2872,-0.0119 2.5748,0.0987 3.8559,0.2081 0.7489,0.0797 1.5018,0.11729 2.2467,0.23286 0.1754,0.0272 0.3496,0.0623 0.5243,0.0938 0.1668,0.0301 0.3312,0.10308 0.5003,0.0909 0.9705,-0.07 1.9333,-0.22407 2.8999,-0.33612 0.5193,-2.79485 1.5205,-5.54212 1.5578,-8.38457 0,-0.22363 -2.3095,-1.77956 -2.6021,-1.97943 -0.4031,-0.27532 -1.2424,-0.75398 -1.6089,-1.2161 -0.053,-0.0667 -0.041,-0.16505 -0.062,-0.24757 0.01,-0.0786 0.027,-0.15666 0.027,-0.2358 0.01,-1.40256 -0.088,0.81066 -0.048,-1.18419 0.02,-1.00174 0.1889,-2.0007 0.337,-2.98861 0.3837,-1.97191 1.1784,-3.82566 1.7982,-5.72904 0.67,-2.06526 0.9527,-4.20651 1.013,-6.36813 -0.011,-2.0102 -0.3472,-4.03021 -1.0756,-5.90965 -0.1795,-0.46321 -0.4073,-0.90617 -0.611,-1.35927 -0.7634,-1.41283 -1.6684,-2.79726 -3.0036,-3.74023 -0.3906,-0.27586 -0.7993,-0.54002 -1.2457,-0.71147 -0.5983,-0.22979 -1.2409,-0.32125 -1.8613,-0.48188 -0.9372,0.15158 -1.897,0.19947 -2.8114,0.45476 -0.4635,0.12944 -0.8592,0.43577 -1.2709,0.68506 -0.4445,0.26914 -1.0972,0.7964 -1.521,1.1212 -0.1872,0.14346 -0.376,0.28482 -0.564,0.42725 -0.2092,0.16036 -0.4184,0.32075 -0.6276,0.48112 -2.2813,1.65367 -3.3532,2.87271 -3.1027,6.4421 0.1199,1.70863 1.8177,3.21233 2.9147,4.35681 1.196,1.1402 2.4382,2.23743 3.5506,3.46245 0.4712,0.5189 0.9945,1.14255 1.3516,1.75786 0.1593,0.27438 0.276,0.57129 0.414,0.85693 1.1527,2.38451 2.0271,4.899 2.5505,7.4951 0.3237,2.07438 0.2977,4.17954 0.3681,6.27202 0.2414,7.06694 10.2355,6.7256 9.9942,-0.34134 v 0 c -0.093,-2.66898 -0.075,-5.35548 -0.5767,-7.99055 -0.1103,-0.51035 -0.2068,-1.02388 -0.3309,-1.53106 -0.7308,-2.9854 -1.841,-5.87296 -3.192,-8.62944 -0.3607,-0.64436 -0.6865,-1.30955 -1.082,-1.93312 -1.5758,-2.48412 -3.8263,-4.44606 -5.9388,-6.45219 -0.2135,-0.20068 -0.5893,-0.89064 -0.6405,-0.60211 -0.095,0.53674 0.5441,1.02651 0.4695,1.56649 -0.6353,4.59994 -0.3139,2.62573 -1.6662,3.96148 -0.2974,0.29379 1.6581,-1.38951 1.001,-0.75547 0.5636,-0.43214 1.1344,-0.85526 1.6895,-1.29831 0.063,-0.0504 0.2663,-0.14345 0.1863,-0.15473 -0.7904,-0.11152 -1.3354,2.50302 -2.3789,0.27377 -0.3972,-0.13332 -0.8094,-0.22807 -1.1915,-0.39997 -0.2079,-0.0936 -0.3879,-0.24252 -0.5624,-0.3892 -0.5342,-0.44884 -0.3347,-0.44916 -0.1562,-0.21257 0.071,0.094 0.132,0.19495 0.198,0.29242 0.4771,0.83619 0.6877,1.78559 0.7259,2.74359 -0.021,1.19857 -0.1555,2.38107 -0.5292,3.52822 -0.7862,2.44272 -1.8089,4.82113 -2.1821,7.37989 -0.2554,1.81253 -0.5057,3.62575 -0.3852,5.46391 0.096,1.46876 0.3762,3.01829 0.9395,4.3855 0.3081,0.74776 0.7612,1.42721 1.1418,2.14082 0.4894,0.57153 0.9359,1.18282 1.4683,1.71458 0.794,0.79298 1.5288,1.23309 2.4235,1.83986 0.2915,0.19767 0.5665,0.42167 0.8727,0.59574 0.025,0.0143 0.032,-0.0485 0.047,-0.0727 0.7231,-2.57413 1.4463,-5.14823 2.1694,-7.72236 0.8339,-0.0605 1.6752,-0.0555 2.5018,-0.18153 0.201,-0.0306 -0.3999,-0.0741 -0.6002,-0.10848 -0.8867,-0.15235 -1.7691,-0.26281 -2.6646,-0.34555 -0.3159,-0.0292 -0.6318,-0.0588 -0.9477,-0.0882 -2.9034,-0.24291 -5.8696,-0.48474 -8.7106,0.32713 -2.5349,1.30226 -3.9872,1.49204 -4.2492,5.53358 -0.1841,2.84152 2.3168,4.40674 4.3309,5.54876 1.0556,0.59566 1.314,0.7548 2.4332,1.32702 1.4016,0.71667 2.8433,1.36578 4.1293,2.28801 2.1784,1.55736 4.5016,3.3487 7.2488,3.69967 0.7072,0.0903 1.4258,0.0172 2.1387,0.0257 0.7073,-0.22476 1.4659,-0.32718 2.1219,-0.67429 1.587,-0.83979 2.7781,-2.39913 3.4433,-4.03796 0.1876,-0.46199 0.3189,-0.94486 0.4783,-1.4173 0.3848,-1.86671 0.7861,-3.73213 1.0368,-5.62298 0.2988,-2.83038 0.363,-5.68303 0.3656,-8.52765 -0.076,-2.64446 -0.2422,-5.28616 -0.7036,-7.8958 -0.199,-1.11532 -0.2861,-1.69122 -0.544,-2.79127 -0.2663,-1.13628 -0.6396,-2.2433 -0.9475,-3.3682 -0.2276,-0.80196 -0.2794,-1.04574 -0.5745,-1.83372 -0.6153,-1.64346 -1.4491,-3.19633 -2.3485,-4.6994 -0.986,-1.57046 -2.0017,-3.12108 -2.9962,-4.68614 -2.4455,-3.84863 0.08,0.10305 -2.3972,-3.82823 -0.3931,-0.62402 -0.7936,-1.24336 -1.1904,-1.86505 -0.4386,-0.61669 -0.8447,-1.25786 -1.3158,-1.85007 -0.8245,-1.03638 -2.0159,-2.30402 -3.1536,-3.00305 -1.7015,-1.04537 -2.9821,-1.38927 -5.0278,-1.0995 -0.7085,0.10035 -1.3341,0.51805 -2.0011,0.77705 -2.0776,1.36523 -3.9847,2.96315 -5.9171,4.52239 -4.3141,3.41829 -8.5546,6.92828 -12.8921,10.3173 -5.2962,4.68511 1.3295,12.17506 6.6257,7.48995 z" /><path
         style="fill:#ff5a5a;fill-opacity:1;stroke:none;stroke-width:20;stroke-dasharray:none;paint-order:markers stroke fill"
         id="path7422"
         d="m 2382.946,584.03161 c 2.4078,1.65066 4.8178,3.31364 7.0684,5.17758 0.3798,0.31459 0.7413,0.65074 1.112,0.97613 0.9311,0.89574 0.9435,0.8904 1.8122,1.79041 0.1214,0.12578 0.8811,0.89151 1.0533,1.18504 0.049,0.0828 -0.1604,-0.11568 -0.208,-0.19899 -0.158,-0.27665 -0.2674,-0.57833 -0.4011,-0.86747 -0.04,-0.50234 -0.1843,-1.00724 -0.1197,-1.50701 0.1271,-0.98486 0.5197,-1.78221 1.2023,-2.46692 0.2273,-0.22813 0.5122,-0.39074 0.7741,-0.57817 0.1728,-0.12361 0.2785,-0.11533 0.094,-0.10472 -0.1164,0.0153 -0.3252,0.0476 -0.4385,0.0414 -0.024,0 -0.041,-0.0249 -0.063,-0.0313 -0.3145,-0.0904 -0.622,-0.17714 -0.9337,-0.28189 -0.1103,-0.0464 -0.8561,-0.35964 -0.911,-0.3869 -0.039,-0.0196 -0.1321,-0.0546 -0.1005,-0.085 0.036,-0.0348 0.094,0.0468 0.1441,0.0431 0.018,-0.003 -0.01,-0.0385 -0.02,-0.0523 -0.082,-0.0909 -0.1734,-0.17237 -0.2602,-0.25855 -0.8454,-0.87664 -1.8169,-1.6665 -2.9571,-2.12733 -0.337,-0.1362 -0.6918,-0.22349 -1.0376,-0.33522 -1.1726,-0.28112 -2.3685,-0.31192 -3.5615,-0.17688 -0.3334,0.0747 -0.6836,0.0959 -1.0002,0.22429 -0.6138,0.24881 -1.26,0.479 -1.7717,0.8994 -1.4161,1.16329 -2.1421,2.43636 -2.3544,4.25984 -0.2106,1.80957 0.3049,2.5101 0.9583,4.08101 1.3468,2.2057 3.349,3.83694 5.3426,5.42648 0.046,0.0565 0.1905,0.22092 0.1386,0.16951 -1.6397,-1.62671 -1.2623,-1.83925 -0.4427,-5.92365 0.1135,-0.56562 0.8958,-0.74011 1.2561,-1.19065 0.057,-0.0711 -0.1789,-0.039 -0.2699,-0.0422 -0.2459,-0.008 -0.4921,0.005 -0.7381,0.007 -1.3644,0.0138 -2.6473,-0.4459 -3.9319,-0.84577 -1.3067,-0.40613 -3.0436,-0.65646 -4.3495,-0.0882 -0.9129,0.3972 -2.0075,0.76939 -2.4995,1.63489 -0.8217,1.44558 -1.1998,3.18304 -1.1844,4.84579 0.01,0.92705 0.8348,1.65566 1.2522,2.48349 1.2628,1.48013 2.9202,2.38775 4.5502,3.37711 0.3357,0.20378 0.6806,0.39399 1.0026,0.61886 0.067,0.0467 0.2281,0.2254 0.1549,0.18955 -0.1508,-0.0738 -0.2655,-0.20571 -0.3981,-0.30856 -0.1774,-0.27411 -0.4756,-0.50075 -0.5321,-0.82232 -0.4513,-2.57043 -0.5666,-3.72925 1.5453,-5.50638 0.8605,-0.72403 1.9687,-0.86947 3.0098,-0.77004 0.1954,0.0188 0.3815,0.0925 0.5723,0.13872 -0.9276,-0.78536 -1.9487,-1.47063 -2.9869,-2.10339 -0.7303,-0.37332 -1.3557,-0.74443 -2.2015,-0.88325 -0.6965,-0.11436 -1.4194,-0.2336 -2.1146,-0.11131 -1.6506,0.29032 -3.0453,0.98118 -4.0785,2.29706 -0.4706,0.59944 -0.7463,1.32902 -1.1195,1.99355 -0.5686,1.44068 -0.6848,2.97082 -0.8611,4.48966 -0.062,0.53727 -0.1396,1.07268 -0.2054,1.60952 -0.188,1.64139 -0.3111,3.28922 -0.3663,4.94022 -0.02,2.22207 0.5731,4.37869 1.2035,6.49001 0.3412,1.20846 0.8948,2.33982 1.3244,3.51663 0.3264,0.90631 0.4611,1.85891 0.6217,2.80371 0.1407,0.97327 0.311,1.94162 0.4767,2.91084 0.2155,1.24725 0.3604,2.50444 0.518,3.76008 0.504,4.12647 -0.1192,2.93261 9.9096,-0.961 0.1529,-0.0593 -1.4309,-4.08167 -1.535,-4.34821 -0.9081,-2.29624 -1.6876,-4.63955 -2.4269,-6.99458 -0.4236,-1.63758 -1.0359,-3.21268 -1.6878,-4.77025 -0.2668,-0.58079 -0.4931,-1.17838 -0.7123,-1.7779 -0.062,-0.16946 -0.075,-0.36875 -0.1922,-0.50606 -0.8194,-0.96158 -1.7293,-1.84222 -2.5939,-2.76334 -2.4182,1.34689 -5.0447,2.374 -7.2546,4.04067 -0.414,0.3122 -0.1451,1.0293 -0.1554,1.5477 -0.051,2.56358 0.5317,5.22774 1.025,7.73422 0.5345,2.50158 1.0508,5.00362 1.3239,7.54862 0.1252,1.65097 0.2061,3.3175 0.7416,4.9004 0.1456,0.43024 0.3461,0.83992 0.5191,1.25989 0.5157,0.96888 1.0032,1.97115 1.6334,2.87428 0.5051,0.72379 0.7137,0.96014 1.2261,1.58768 0.8306,0.86598 1.311,1.85592 1.8864,2.88944 0.7204,1.35935 1.6141,2.61191 2.5025,3.86373 0.7424,0.99235 1.5648,1.94715 2.6125,2.63025 0.246,0.16045 0.5099,0.29165 0.7648,0.43749 3.3281,0.80227 2.8481,1.21886 6.7324,-1.72945 0.5319,-0.40365 0.6684,-1.16017 0.9256,-1.77633 0.2254,-0.54025 0.358,-1.11498 0.5161,-1.6786 0.278,-0.99121 0.5059,-1.99586 0.7671,-2.99161 0.7462,-2.75596 1.9478,-5.35311 2.8813,-8.04577 0.1033,-0.40151 0.2536,-0.79378 0.31,-1.20449 0.249,-1.81361 0.1994,-3.28404 -1.0963,-4.91313 -0.6754,-0.84918 -1.6829,-1.43026 -2.6911,-1.83126 -1.2042,-0.47897 -2.5429,-0.25114 -3.7731,-0.11933 -0.4228,-0.1439 -0.9247,0.25676 -1.3748,0.15613 -0.053,-0.0119 0.092,-0.0672 0.1463,-0.0721 0.1855,-0.0167 0.3796,0.0601 0.5587,0.009 0.052,-0.0148 -0.01,-0.11814 -0.047,-0.15529 -0.2187,-0.20698 -0.4727,-0.37316 -0.709,-0.55975 -0.8005,-0.55621 -1.4811,-1.33339 -2.3595,-1.77977 -2.2173,-1.12684 -3.6814,-1.47754 -6.4318,0.24979 -1.0518,0.66051 -1.3211,2.10355 -1.9816,3.15532 -0.059,0.77335 -0.1889,1.54458 -0.1765,2.32008 0.01,0.57613 0.1368,1.14503 0.2412,1.71169 0.084,0.45582 0.2073,0.90363 0.3234,1.35237 0.124,0.47947 0.4353,1.55797 0.6255,2.03215 0.1618,0.40352 0.3607,0.79116 0.5411,1.18677 3.1513,6.33005 12.1033,1.87351 8.9521,-4.45657 v 0 c -0.1216,0.19146 -0.035,0.0804 -0.2051,-0.45741 -0.4176,-1.31961 -0.02,-0.15211 -0.3818,-1.35313 -0.028,-0.0916 -0.045,-0.34772 -0.1,-0.26929 -0.144,0.20595 -0.1447,0.48138 -0.217,0.72207 -0.5579,0.69816 -0.8633,1.71752 -1.6735,2.09452 -3.0307,1.41018 -3.2279,1.00354 -5.0326,0.0526 -0.069,-0.0365 0.1419,0.068 0.2049,0.11435 0.1553,0.11404 1.486,1.18177 1.5254,1.21333 0.8715,0.67297 1.9123,1.53017 2.8909,1.98697 2.027,0.94615 3.7458,1.04722 5.8774,0.67418 0.1402,-0.0225 0.5473,-0.003 0.4207,-0.0673 -1.7098,-0.8669 -1.4018,0.67771 -3.1372,-1.88764 -1.0464,-1.54689 -0.9017,-2.08317 -0.6532,-3.4063 0.015,-0.0805 -0.021,0.16251 -0.032,0.24374 -1.0026,2.93396 -2.3468,5.74963 -3.1001,8.76823 -0.2273,0.86802 -0.5098,1.91649 -0.7168,2.80692 -0.037,0.1601 -0.2466,0.42021 -0.095,0.48384 0.1562,0.0656 0.18,-0.31144 0.3332,-0.38391 4.1771,-1.9766 2.7192,-1.98197 5.7737,-1.09395 0.1379,0.0899 0.5455,0.29089 0.6101,0.48602 0.01,0.0235 -0.042,-0.0279 -0.059,-0.046 -0.063,-0.0667 -0.1208,-0.13785 -0.18,-0.20775 -0.053,-0.0627 -0.1048,-0.12668 -0.1572,-0.19002 -0.6777,-0.95449 -1.3754,-1.89963 -1.9197,-2.93974 -0.8505,-1.52749 -1.7002,-3.06141 -2.8874,-4.36163 -0.123,-0.14956 -0.2403,-0.304 -0.3691,-0.44868 -0.026,-0.0295 -0.071,-0.0396 -0.094,-0.0718 -0.376,-0.533 -0.6652,-1.12419 -1.0012,-1.68156 -0.048,-0.0482 -0.1244,-0.079 -0.1434,-0.14398 -0.081,-0.27813 -0.1299,-0.88633 -0.1513,-1.1198 -0.058,-0.635 -0.097,-1.27169 -0.1565,-1.90656 -0.3137,-2.8303 -0.8476,-5.62165 -1.4549,-8.40298 -0.331,-1.66243 -0.3202,-1.52911 -0.5869,-3.17445 -0.1003,-0.61872 -0.2104,-1.23666 -0.2767,-1.85996 -0.012,-0.11097 0.093,-0.37317 -0.012,-0.33462 -2.3822,0.87691 -4.687,1.95135 -7.0305,2.92703 -0.7541,-0.86564 -1.4827,-1.75403 -2.2621,-2.59694 -0.063,-0.0684 0.069,0.17288 0.1016,0.26025 0.077,0.20928 0.1478,0.4209 0.2263,0.62965 0.074,0.19645 0.4044,1.01214 0.4667,1.16123 0.073,0.17373 0.1496,0.3456 0.2244,0.5184 0.5346,1.27392 1.0378,2.55773 1.3705,3.90239 0.8089,2.57308 1.6631,5.13287 2.655,7.64217 0.1732,0.44159 0.35,0.88181 0.5196,1.3248 0.1275,0.33319 0.2386,0.67265 0.3717,1.00364 0.036,0.0888 0.038,0.26157 0.134,0.25411 10.4205,-0.81423 10.351,2.14839 9.8344,-2.16397 -0.1762,-1.40306 -0.3478,-2.80626 -0.5834,-4.20064 -0.1653,-0.96578 -0.3348,-1.93045 -0.4749,-2.90033 -0.2636,-1.55054 -0.5456,-3.10134 -1.0957,-4.58163 -0.1982,-0.53552 -0.2334,-0.64323 -0.4517,-1.18041 -0.1638,-0.40312 -0.3667,-0.80156 -0.5111,-1.21129 -0.064,-0.18085 -0.113,-0.36653 -0.1695,-0.54978 -0.3264,-1.07559 -0.6648,-2.16895 -0.7853,-3.28906 0.041,-1.35306 0.1486,-2.70296 0.2975,-4.04839 0.1034,-0.84683 0.219,-1.69151 0.3011,-2.54074 0.027,-0.28001 0.082,-0.55753 0.095,-0.83857 0,-0.0257 -0.022,-0.0466 -0.032,-0.0699 -0.4452,0.55853 -0.7408,1.0704 -1.4485,1.35776 -1.2507,0.50792 -2.277,0.67225 -3.472,0.0473 -0.03,-0.0159 0.065,0.0191 0.098,0.0288 1.2628,0.694 2.2731,1.78085 3.5712,2.42514 1.1945,0.49419 2.2142,1.08233 3.5905,0.91538 0.9768,-0.11851 2.0249,-0.2695 2.8323,-0.83198 2.588,-1.80295 2.7369,-3.53735 2.3026,-6.47642 -0.09,-0.60785 -0.5652,-1.09119 -0.8478,-1.63679 -0.3922,-0.44217 -0.7472,-0.92046 -1.1766,-1.32654 -0.7612,-0.71986 -1.5232,-1.15438 -2.4022,-1.68627 -0.3503,-0.21196 -0.7047,-0.41696 -1.0562,-0.62677 -0.2337,-0.13949 -0.4317,-0.37262 -0.6995,-0.42114 -0.1118,-0.0204 0.083,0.21137 0.1251,0.31708 0.1682,0.49045 0.5839,0.95893 0.5046,1.47134 -0.5042,3.25983 -0.7035,4.12351 -3.3466,5.11408 -0.8721,0.32689 -1.1332,-0.0119 -1.906,-0.12874 -0.1779,-0.0269 0.3441,0.10496 0.5161,0.15742 2.4674,0.76647 4.8885,1.4097 7.5104,1.27813 1.1511,-0.0925 2.9933,-0.14508 4.0604,-0.64096 1.0221,-0.47498 2.3941,-0.78779 2.8509,-1.81821 1.7747,-4.00312 1.6266,-5.25468 -0.3481,-7.536 -0.2639,-0.30496 -0.5891,-0.55097 -0.8837,-0.82645 -0.6472,-0.51565 -1.315,-1.01492 -1.9252,-1.57507 -0.1726,-0.15846 -0.3359,-0.32681 -0.501,-0.4931 -0.1045,-0.10533 -0.1904,-0.2308 -0.3077,-0.32165 -0.018,-0.014 -0.017,0.0424 -0.025,0.0636 0.1787,0.73075 0.3441,1.10345 0.1431,1.92074 -0.4427,1.79954 -1.7024,2.99892 -3.5377,3.25554 -0.7652,-0.0385 0.3139,0.0392 -0.227,-0.0709 -0.4225,-0.1714 -0.4322,-0.15028 -0.7987,-0.3896 -0.06,-0.0389 -0.2208,-0.1743 -0.1551,-0.14692 0.033,0.0135 0.06,0.0387 0.085,0.0633 0.1341,0.12952 0.2616,0.26554 0.3925,0.39831 0.4018,0.39184 0.8215,0.81682 1.2627,1.15779 1.2122,0.93696 2.5916,1.55331 4.0388,2.03094 0.3983,0.113 0.7918,0.24405 1.1947,0.33901 1.7785,0.4191 3.6089,0.49024 5.3955,0.0791 1.2542,-0.32104 2.4151,-0.68186 3.439,-1.54445 1.0791,-0.90924 1.7886,-2.07555 2.066,-3.48247 0.1448,-0.73446 0,-1.49723 0,-2.24584 -0.2023,-0.59343 -0.3433,-1.21145 -0.6069,-1.78027 -0.386,-0.83286 -1.0191,-1.58999 -1.6265,-2.26936 -1.0077,-1.12699 -2.1159,-2.16382 -3.2117,-3.20268 -0.496,-0.42923 -0.982,-0.87021 -1.4879,-1.2877 -2.2331,-1.84272 -4.5984,-3.53793 -7.0122,-5.13291 -5.5215,-4.41725 -11.7685,3.39142 -6.2469,7.8087 z" /><path
         style="fill:#ff5a5a;fill-opacity:1;stroke:none;stroke-width:20;stroke-dasharray:none;paint-order:markers stroke fill"
         id="path7424"
         d="m 2455.5883,614.98397 c 1.9723,-2.93589 3.4741,-6.14682 5.0373,-9.30923 1.0171,-1.94876 2.1185,-3.8512 3.1359,-5.79959 0.4809,-0.98718 0.8519,-2.02348 1.4026,-2.97548 0.7622,-1.28222 1.4849,-2.58 2.1203,-3.93064 0.8052,-1.6482 1.4695,-3.36085 2.131,-5.07043 0.842,-2.37138 1.6165,-4.76506 2.5008,-7.1215 0.4904,-1.22105 1.0853,-2.39717 1.522,-3.64027 0.3451,-0.98229 0.3795,-1.20401 0.6318,-2.19157 0.5501,-2.15624 0.4673,-4.37652 0.3489,-6.57698 -0.1468,-1.98533 -0.3425,-3.97007 -0.5878,-5.94598 -0.2347,-1.12234 -0.1618,-2.29468 -0.4665,-3.4049 -0.1713,-0.6241 -0.4347,-1.21917 -0.6521,-1.82877 -0.9383,-1.44976 -1.1881,-2.14786 -2.6376,-3.15971 -0.6149,-0.42931 -1.2454,-1.03727 -1.9953,-1.0396 -1.9399,-0.006 -3.919,0.32147 -5.7304,1.01571 -1.4986,0.57436 -4.4753,3.99137 -5.4719,5.04769 -4.6038,5.54993 -7.5873,12.14112 -9.7926,18.95621 -0.4498,1.39009 -0.8303,2.80167 -1.2454,4.20251 -1.0305,3.92215 -2.0108,7.86696 -2.6369,11.87712 -0.1477,0.94567 -0.4287,3.13092 -0.5565,4.10535 -0.1374,1.16023 -0.3269,2.51913 -0.3575,3.69372 -0.015,0.56956 -0.081,1.1522 0.041,1.70873 0.2095,0.95604 0.1525,2.20324 0.9427,2.78072 1.7331,1.2665 3.8673,2.28105 6.0137,2.30301 1.31,0.0135 2.1676,-1.47214 3.2514,-2.20824 4.5002,-5.84973 7.1751,-12.80753 9.8754,-19.60692 1.7142,-4.36369 3.5726,-8.66839 5.3063,-13.02412 2.6141,-6.57013 -6.6775,-10.26697 -9.2916,-3.69683 v 0 c -1.7335,4.35887 -3.5969,8.66465 -5.3095,13.03213 -2.2255,5.6117 -4.429,11.28024 -7.7704,16.3454 3.0003,-1.04121 2.5251,-1.32993 6.646,1.96276 0.4464,0.35668 0.1916,1.12752 0.3267,1.6827 0.045,0.18684 -0.06,-0.38185 -0.057,-0.57412 0.016,-0.9737 0.1864,-2.15752 0.2975,-3.09925 0.085,-0.64971 0.3957,-3.05028 0.4999,-3.72968 0.5556,-3.62156 1.4535,-7.18005 2.3698,-10.72372 0.3662,-1.24825 0.7025,-2.50565 1.0984,-3.7448 1.7599,-5.50794 4.0627,-10.89441 7.6873,-15.45027 0.5811,-0.64582 1.1474,-1.30543 1.7435,-1.93749 0.3548,-0.37621 1.4733,-0.71998 1.1079,-1.08595 -0.6646,-0.66572 -1.8641,-0.29615 -2.7634,-0.57227 -0.4804,-0.14753 -0.7107,-0.74094 -0.8031,-1.16785 0.014,-0.0635 -0.02,-0.21489 0.04,-0.19057 0.078,0.0315 0.068,0.15581 0.08,0.23902 0.036,0.25919 0.036,0.52205 0.06,0.78253 0.055,0.59166 0.147,1.1783 0.2289,1.7666 0.2275,1.74268 0.3813,3.498 0.5241,5.24909 0.071,1.20338 0.1928,2.42853 -0.072,3.61694 -0.3811,1.65856 -1.1879,3.15293 -1.8121,4.72781 -0.8684,2.32722 -1.6527,4.68289 -2.4659,7.02958 -0.5743,1.49778 -1.1567,2.99643 -1.8621,4.43833 -0.5211,1.13205 -1.1557,2.19499 -1.7822,3.27102 -0.5784,1.04775 -1.0933,2.12508 -1.5429,3.23466 -1.0514,2.01372 -2.1987,3.97542 -3.2361,5.99694 -1.3727,2.77715 -2.6722,5.60819 -4.3932,8.19346 -3.9223,5.88349 4.3982,11.43048 8.3205,5.54699 z" /><path
         style="fill:#ff5a5a;fill-opacity:1;stroke:none;stroke-width:20;stroke-dasharray:none;paint-order:markers stroke fill"
         id="path7426"
         d="m 2389.8309,460.68289 c 0.4085,0.21153 0.8036,0.45119 1.2254,0.6346 0.7198,0.31298 2.2857,0.79791 3.0112,1.03667 1.4712,0.48413 2.9234,0.97147 4.3495,1.57562 2.4054,1.32053 4.9394,2.36648 7.4483,3.46816 1.9136,0.81129 3.7782,1.73413 5.4549,2.96695 2.8383,2.10781 6.0711,3.57315 9.1578,5.26714 1.9786,1.15869 3.8209,2.53312 5.5457,4.03998 2.001,1.73746 3.9176,3.57875 5.7901,5.45452 1.4944,1.81678 3.0426,3.59045 4.5136,5.42626 1.4284,1.97974 3.2591,3.57925 5.1803,5.05965 0.6079,0.4382 1.2264,0.8599 1.8471,1.27923 0.1763,0.11907 0.4792,0.29454 0.3193,0.26916 -0.021,-0.007 -0.077,-0.0398 -0.064,-0.0212 0.5004,0.73596 1.1368,1.38456 1.6115,2.13593 0.1622,0.33917 0.546,0.73535 0.4749,1.14884 0.023,0.10621 -0.06,-0.17465 -0.075,-0.12763 -0.028,0.0897 -0.085,0.36645 -0.064,0.27469 0.2939,-1.30186 0.3056,-0.80328 1.6421,-2.51479 0.6239,-0.25402 1.2478,-0.50808 1.8716,-0.7621 0.078,-0.0529 0.3062,-0.0963 0.2352,-0.15865 -0.2576,-0.22574 -0.624,-0.28389 -0.9255,-0.4464 -0.4445,-0.23958 -0.8886,-0.48223 -1.3108,-0.75904 -1.2667,-0.83039 -2.4494,-1.7825 -3.669,-2.68057 -3.0784,-2.28732 -6.1357,-4.60449 -9.2504,-6.84258 -0.664,-0.47715 -1.3189,-0.96792 -2.0002,-1.42009 -0.7865,-0.52203 -1.6009,-1.00079 -2.4014,-1.5012 -4.5127,-2.54793 -9.2053,-4.75562 -13.8068,-7.13568 -3.4655,-1.71249 -6.9476,-3.47046 -9.9734,-5.89997 -0.6661,-0.58846 -1.3845,-1.14628 -1.9898,-1.8021 -0.011,-0.0116 0.038,-0.0172 0.035,-0.0328 -0.027,-0.1252 -0.096,-0.23796 -0.1301,-0.36142 -0.063,-0.29678 -0.138,-0.59118 -0.1599,-0.89519 -0.01,-0.0829 0.01,-0.33245 0,-0.24945 -0.1163,2.01343 0.1442,1.1226 -0.4544,2.52855 0.039,0.007 0.1299,-0.0172 0.117,0.0204 -0.1909,0.55449 -1.2838,0.56459 -1.7296,0.62606 -0.1243,0.0172 -0.4279,-0.0277 -0.3673,0.0821 0.2486,0.44982 0.6941,0.75817 1.0411,1.13726 0.5292,0.57873 1.0591,1.15684 1.5876,1.7362 1.0112,1.10858 2.0111,2.2275 3.0282,3.33065 0.732,0.79396 1.9708,2.12622 2.7715,2.85417 0.5652,0.51379 1.169,0.9834 1.7534,1.4751 1.7567,1.38168 3.673,2.53535 5.5131,3.79685 0.5465,0.37468 1.1029,0.73795 1.6177,1.15512 1.0022,0.81217 1.8733,1.8206 2.747,2.75797 0.4508,0.54721 0.907,1.09003 1.3523,1.64166 0.4854,0.60121 1.9218,2.44231 2.4412,3.08554 1.1006,1.36319 2.2404,2.69436 3.3501,4.05014 2.7295,3.24003 -0.5115,-0.59743 1.9584,2.29928 0.2152,0.25238 0.4368,0.49977 0.6394,0.76232 0.06,0.0782 0.1833,0.34911 0.1474,0.25709 -1.1731,-3.00855 -1.0464,-1.20388 -0.2386,-4.72331 0.3007,-0.34735 0.7057,-0.95248 1.182,-1.20407 0.1839,-0.0971 0.3961,-0.13213 0.581,-0.2272 0.041,-0.0212 0.1195,-0.0873 0.081,-0.11303 -0.193,-0.12859 -0.4322,-0.1687 -0.6444,-0.26236 -0.3016,-0.13308 -0.5976,-0.27845 -0.8963,-0.41767 -1.8104,-0.76044 -3.1953,-2.15037 -4.6743,-3.39259 -0.4723,-0.3492 -0.9397,-0.70499 -1.4169,-1.04757 -0.9539,-0.68492 -1.5714,-1.09778 -2.586,-1.69817 -1.216,-0.71962 -2.4786,-1.35258 -3.6971,-2.0683 -1.6805,-1.16793 -3.1653,-2.60353 -4.606,-4.05125 -0.4586,-0.43365 -0.8307,-0.933 -1.1763,-1.45632 -4.0537,-5.79374 -12.2473,-0.0609 -8.1936,5.73281 v 0 c 0.703,0.98247 1.4248,1.95077 2.2976,2.79339 2.0537,2.04732 4.1772,4.06384 6.6387,5.61864 2.1319,1.23764 4.3695,2.30475 6.3152,3.84008 2.241,1.87449 4.2921,3.73777 7.0515,4.8737 1.8291,0.78711 3.7014,1.62447 5.7418,1.6459 1.3511,0.0143 2.9537,-0.27805 4.1247,-1.02288 0.7201,-0.45805 1.3048,-1.10051 1.9572,-1.65079 0.4338,-1.20346 1.2253,-2.33339 1.3015,-3.6104 0.1724,-2.88713 -2.5003,-5.18927 -4.1509,-7.21291 -1.0753,-1.31257 -2.1805,-2.60115 -3.2464,-3.92134 -0.636,-0.78771 -2.0111,-2.56071 -2.5942,-3.27408 -0.5842,-0.71475 -1.186,-1.41494 -1.7791,-2.12239 -1.7579,-1.83525 -2.218,-2.43728 -4.2092,-4.02904 -2.074,-1.65799 -4.4622,-2.88539 -6.5591,-4.51319 -0.3628,-0.29114 -0.7421,-0.5629 -1.0884,-0.87344 -0.6933,-0.62156 -1.7948,-1.80964 -2.4043,-2.47081 -1.6247,-1.76226 -3.2095,-3.56135 -4.8465,-5.31238 -1.5897,-1.58488 -2.5387,-2.8185 -4.6882,-3.73896 -2.4192,-1.03595 -5.0101,-0.6291 -7.1977,0.69492 -0.5453,0.32999 -1.0078,0.78055 -1.5116,1.17084 -0.5587,0.73752 -1.299,1.36763 -1.6759,2.21258 -1.1922,2.67284 -0.5535,5.17583 0.4403,7.71178 0.5086,0.99409 0.6404,1.36165 1.3122,2.24867 1.0096,1.33292 2.3263,2.39077 3.5912,3.46615 0.4888,0.38134 0.9654,0.77898 1.4666,1.14408 3.1444,2.29079 6.6425,4.04871 10.1085,5.7884 4.3711,2.25927 8.8191,4.37155 13.1275,6.75018 0.6285,0.38616 1.2705,0.75118 1.8854,1.15848 0.6507,0.43095 1.2757,0.89963 1.9095,1.35495 3.0995,2.22626 6.1402,4.53353 9.2037,6.80845 2.2264,1.63613 4.4013,3.34113 6.9029,4.54834 0.6811,0.32869 1.3701,0.65461 2.0943,0.87244 0.879,0.2644 1.7771,0.59957 2.6945,0.56801 1.1497,-0.0396 2.2417,-0.51761 3.3626,-0.77642 0.7603,-0.79965 1.6247,-1.51186 2.2808,-2.39895 0.2896,-0.39159 0.3669,-0.90387 0.507,-1.37031 0.3872,-1.28963 0.3535,-2.70436 0.2333,-4.02476 -0.062,-0.31763 -0.1099,-0.63825 -0.1856,-0.95287 -0.3709,-1.54064 -1.1005,-2.96339 -1.9807,-4.27149 -0.8478,-1.16265 -1.7105,-2.31854 -2.6449,-3.41495 -0.2368,-0.22431 -0.4639,-0.45934 -0.7105,-0.67294 -0.7566,-0.65569 -1.636,-1.14837 -2.4413,-1.73818 -1.3007,-0.987 -2.5363,-2.02922 -3.4695,-3.38939 -1.7031,-2.10984 -3.457,-4.18097 -5.2338,-6.22863 -2.0423,-2.03896 -4.1279,-4.04421 -6.3069,-5.93601 -2.2715,-1.96141 -4.6818,-3.76486 -7.2923,-5.25576 -1.8792,-1.02931 -1.5074,-0.83794 -3.4296,-1.84052 -1.6103,-0.83992 -3.2422,-1.64579 -4.6835,-2.76683 -0.9634,-0.68747 -1.1795,-0.87135 -2.2016,-1.48072 -1.6281,-0.97057 -3.3545,-1.76868 -5.0856,-2.53388 -1.2718,-0.55825 -2.5618,-1.08345 -3.8259,-1.6586 -1.1552,-0.52554 -1.0644,-0.54152 -2.31,-1.16567 -0.4948,-0.24792 -0.9967,-0.48128 -1.495,-0.72192 -0.5646,-0.23151 -1.1233,-0.47821 -1.6939,-0.69453 -0.7076,-0.26826 -2.6885,-0.92236 -3.4013,-1.1567 -0.4652,-0.15296 -0.9303,-0.30666 -1.3975,-0.4535 -0.1589,-0.0499 -0.3144,-0.12462 -0.4805,-0.13679 -0.048,-0.004 0.065,0.0724 0.097,0.10864 -5.8834,-3.92232 -11.4305,4.39819 -5.547,8.32051 z" /><path
         style="fill:#ff5a5a;fill-opacity:1;stroke:none;stroke-width:20;stroke-dasharray:none;paint-order:markers stroke fill"
         id="path7428"
         d="m 2418.2325,458.01316 c -2.7151,-0.85722 -5.3435,-1.95691 -8.0039,-2.96552 -2.332,-0.81468 -4.6473,-1.6958 -7.0229,-2.37678 -2.7714,-0.75454 -5.5638,-1.42489 -8.3561,-2.09609 -6.8753,-1.65261 -9.2124,8.07043 -2.3372,9.72305 v 0 c 2.6738,0.64269 5.3478,1.28307 8.0019,2.00406 0.7822,0.20759 1.5296,0.489 2.2959,0.74988 1.2946,0.44079 2.5967,0.86071 3.8755,1.3472 2.7867,1.05508 5.5403,2.2047 8.3845,3.10103 6.7082,2.23607 9.8705,-7.25078 3.1623,-9.48683 z" /><path
         style="fill:#ff8080;fill-opacity:1;stroke:none;stroke-width:20;stroke-dasharray:none;paint-order:markers stroke fill"
         id="path9893"
         d="m 2294.9382,466.26203 c 0.2291,0.31728 0.4582,0.63455 0.6873,0.95183 4.219,5.67452 12.244,-0.29202 8.025,-5.96653 v 0 c -0.077,-0.0951 -0.1549,-0.19019 -0.2323,-0.28528 -3.7477,-5.99625 -12.2277,-0.69628 -8.48,5.29998 z" /><path
         style="fill:#ff8080;fill-opacity:1;stroke:none;stroke-width:20;stroke-dasharray:none;paint-order:markers stroke fill"
         id="path9901"
         d="m 2312.9697,465.27831 c 0.4575,2.81246 1.0006,5.60945 1.4045,8.43071 0.2931,1.75831 0.4631,3.53319 0.6987,5.29947 0.326,1.92354 0.7709,3.8264 1.2375,5.72034 0.3687,1.41547 0.7507,2.82972 1.06,4.25961 0.2731,1.33323 0.7068,2.62067 1.1186,3.91469 0.7318,1.98967 1.8389,3.81114 2.965,5.59721 0.6677,1.07397 1.2383,2.20742 1.772,3.3533 0.6732,1.48799 1.5658,2.85219 2.4646,4.21 1.1472,1.65272 2.4651,3.17527 3.6728,4.78221 0.7141,0.88556 1.2398,1.90339 1.7689,2.90547 0.6752,1.34583 1.2929,2.71648 1.9999,4.04699 0.5088,0.97329 1.0357,1.93675 1.562,2.90065 0.5911,0.93922 1.1022,1.9241 1.5365,2.94466 0.054,0.14271 0.1076,0.28545 0.1613,0.42817 0,0.0287 0.014,0.11128 0,0.0861 -0.2167,-0.39563 -0.184,-1.16234 -0.044,-1.55146 0.1888,-0.52642 0.4814,-1.00962 0.722,-1.51442 1.3227,-10.01543 4.0712,-0.63731 5.9418,-1.44751 0.2374,-0.10285 -0.3655,-0.36634 -0.5477,-0.55004 -0.9627,-0.97076 -1.8889,-1.95641 -2.7834,-2.9904 -1.9288,-2.09095 -3.7772,-4.25117 -5.5887,-6.44372 -0.852,-1.13887 -1.7994,-2.2634 -2.4078,-3.56254 -0.083,-0.17798 -0.3988,-1.16027 -0.4261,-1.2433 -0.71,-2.4466 -1.021,-4.98343 -1.3218,-7.50596 -0.3422,-2.93434 -1.101,-5.79795 -1.9117,-8.6318 -0.8238,-3.11475 -2.0579,-6.09616 -3.0326,-9.16246 -0.4935,-1.41785 -0.8373,-2.90211 -1.471,-4.26945 -0.431,-0.92988 -0.6784,-1.2926 -1.187,-2.1335 -0.1674,-0.26585 -0.3324,-0.53326 -0.5023,-0.79761 -0.2751,-0.42831 -0.5507,-0.81312 -0.7959,-1.25415 -0.4519,-0.81304 -0.8296,-1.66161 -1.1998,-2.51365 -0.401,-0.9674 -1.7241,-4.22177 -2.795,-4.31408 -2.4687,-0.21286 -5.1425,-0.0212 -7.3514,1.10159 -1.3027,0.66217 -1.347,4.66693 -1.4362,5.87854 -0.089,6.21466 0.3886,12.41459 1.0928,18.5837 0.6164,5.33569 1.9452,10.55139 3.205,15.76247 0.617,2.15696 1.1374,4.38367 2.1656,6.39485 0.1585,0.30998 0.341,0.60711 0.5115,0.91067 1.0427,1.5359 2.4649,2.61739 4.2413,3.15266 0.2878,0.0867 0.5861,0.13343 0.8791,0.20014 6.9468,1.31992 8.8135,-8.5043 1.8667,-9.82425 v 0 c 0.7287,0.24453 1.2912,0.70472 1.6349,1.40571 -0.2229,-0.28044 -0.3819,-0.6799 -0.5018,-1.01211 -0.4225,-1.17118 -0.7444,-2.37961 -1.0773,-3.57783 -1.1636,-4.81201 -2.4083,-9.62557 -2.9901,-14.55087 -0.6466,-5.61784 -1.0819,-11.26133 -1.0415,-16.92098 0,-0.37951 0.381,-1.08973 0,-1.1385 -0.4308,-0.0558 -0.3622,0.9584 -0.7894,1.03683 -2.2117,0.40587 -4.5037,0.60608 -6.737,0.34443 -0.6346,-0.0743 -1.263,-2.19451 -0.5854,-0.71943 0.1996,0.4345 0.3696,0.88196 0.5544,1.32294 0.8901,1.99663 1.8611,3.94923 3.1159,5.74601 0.1118,0.17952 0.2188,0.36214 0.3355,0.53856 0.037,0.0556 0.094,0.0975 0.1243,0.15687 0.5682,1.10718 0.7494,2.38689 1.2046,3.53613 0.9546,2.97075 2.1294,5.86836 2.9475,8.88252 0.6714,2.31552 1.3026,4.65841 1.5928,7.0567 0.3893,3.2304 0.8182,6.47565 1.8017,9.58913 0.4358,1.22526 0.5544,1.67452 1.1551,2.86444 0.9159,1.81453 2.1804,3.43905 3.4193,5.03771 1.8662,2.25783 3.767,4.4857 5.7541,6.6388 1.1105,1.27 2.2359,2.51928 3.4536,3.689 0.4176,0.40111 0.8034,0.84458 1.2776,1.17692 0.7554,0.52949 1.4684,1.41632 2.3907,1.3942 1.9446,-0.0466 3.7439,-1.05744 5.6158,-1.58615 0.3599,-0.65376 0.8003,-1.26929 1.0798,-1.96125 0.1791,-0.44331 0.2329,-0.93094 0.2806,-1.40666 0.1493,-1.48929 -0.2606,-2.94928 -0.8286,-4.30697 -0.5656,-1.29225 -1.1807,-2.56833 -1.9359,-3.76229 -0.5112,-0.93602 -1.0234,-1.8714 -1.5168,-2.81705 -0.7078,-1.31728 -1.2905,-2.69279 -1.9841,-4.01722 -0.7803,-1.47026 -1.5855,-2.93952 -2.623,-4.24799 -1.0891,-1.43997 -2.2503,-2.82361 -3.3177,-4.28006 -0.6274,-0.94776 -1.2777,-1.87949 -1.7427,-2.92187 -0.7136,-1.52451 -1.4814,-3.02861 -2.3744,-4.45667 -0.6771,-1.07281 -1.3369,-2.15493 -1.8944,-3.29639 -0.32,-1.00412 -0.6721,-1.99679 -0.8815,-3.03242 -0.3372,-1.5113 -0.7193,-3.01286 -1.1184,-4.509 -0.3831,-1.54075 -0.7375,-3.09057 -1.0338,-4.65024 -0.2434,-1.79617 -0.4096,-3.60262 -0.7114,-5.39072 -0.4064,-2.81803 -0.932,-5.61504 -1.4033,-8.42238 -1,-7 -10.8995,-5.58578 -9.8995,1.41423 z" /><path
         style="fill:#ff8080;fill-opacity:1;stroke:none;stroke-width:20;stroke-dasharray:none;paint-order:markers stroke fill"
         id="path9903"
         d="m 2384.564,459.06946 c 0.9445,0.32732 1.9093,0.60553 2.8135,1.04325 1.3776,0.77642 2.834,1.3952 4.2577,2.07804 1.2987,0.75978 2.6334,1.4446 3.9934,2.08886 1.6363,0.85484 3.4463,1.0296 5.2469,1.22338 3.786,0.42177 1.878,0.89003 3.7758,-9.40644 0.072,-0.39153 -0.7344,-0.30779 -1.1,-0.46543 -0.1983,-0.0855 -0.3943,-0.17597 -0.5915,-0.26395 -0.8486,-0.37102 -1.5612,-0.96919 -2.3477,-1.44624 -0.7463,-0.45262 -1.3552,-0.77089 -2.1185,-1.18424 -1.1198,-0.52388 -2.1399,-1.2464 -3.2738,-1.74207 -0.7766,-0.33949 -1.1261,-0.44114 -1.8662,-0.68681 -0.158,-0.0516 -0.6197,-0.23445 -0.4739,-0.15475 0.2918,0.15941 0.7331,0.11803 0.9155,0.39602 0.925,1.41002 2.2054,2.82216 2.3005,4.50588 0.1263,2.23618 -1.4423,3.35489 -2.9934,4.10576 0.056,0 0.128,-0.0419 0.1689,-0.003 0.029,0.0275 -0.065,0.0475 -0.097,0.0712 0.1545,0.0453 0.3072,0.097 0.4633,0.13592 0.3944,0.0984 0.7956,0.16907 1.1877,0.27607 1.3237,0.36126 2.0864,0.66765 3.427,1.14638 3.4296,1.36218 6.7793,2.91211 10.2613,4.14026 0.9885,0.34036 2.072,0.58644 2.9424,1.19702 0.9918,1.00627 2.016,1.98015 3.0311,2.96281 1.3667,1.41764 2.9076,2.6426 4.4163,3.90178 1.2096,1.01534 2.4098,2.04296 3.6335,3.04115 0.2933,0.22164 0.5847,0.44574 0.8798,0.66487 0.2953,0.21923 0.5999,0.4259 0.8914,0.65019 0.9269,0.71334 1.7762,1.53204 2.6266,2.33264 1.3583,1.34202 2.7323,2.66632 4.1371,3.95981 1.2949,1.21692 2.6897,2.32698 3.9225,3.60913 1.1125,1.09389 2.032,2.35979 3.0644,3.52737 1.0783,1.08519 2.1725,2.14889 3.1353,3.33962 0.7573,0.92822 1.391,1.94136 2.0553,2.93553 0.8956,1.26812 1.8876,2.46372 2.8171,3.70668 0.6521,0.76404 1.2479,1.5735 1.8786,2.35455 0.6973,0.86366 0.3003,0.32203 0.6511,0.81 -0.02,-0.0101 -0.067,-0.0507 -0.059,-0.0301 0.1122,0.29096 0.2861,0.55428 0.4252,0.83341 0.2751,0.55237 0.5446,1.10673 0.8027,1.66728 0.057,0.13827 0.2288,0.55356 0.1725,0.41481 -0.07,-0.17119 -0.177,-0.33076 -0.212,-0.51218 -0.2317,-1.20203 -0.01,-2.17514 0.7015,-3.17669 0.1523,-0.2158 0.3714,-0.37566 0.5571,-0.56349 -1.3003,-3.08276 2.1691,-0.10599 2.4815,-0.93257 0.059,-0.15637 -0.2956,-0.15619 -0.4456,-0.23003 -0.7854,-0.38669 -1.5754,-0.76264 -2.3578,-1.15565 -1.0165,-0.55047 -1.9448,-1.23103 -2.9622,-1.78311 -1.2242,-0.6187 -2.4448,-1.23303 -3.7094,-1.7677 -1.3588,-0.64247 -2.7995,-1.04095 -4.2773,-1.28588 -1.4847,-0.15899 -2.9489,-0.45797 -4.4173,-0.72168 -1.6648,-0.27884 -4.187,-0.50951 -5.4889,0.86157 -1.1118,1.17086 -1.9484,2.71877 -2.2052,4.31286 -0.3777,2.34471 1.3503,3.62741 2.6629,5.00237 2.0392,1.49895 4.4508,2.10109 6.8574,2.70132 0.3857,0.16349 0.818,0.22842 1.1809,0.44545 0.645,0.38584 -1.6232,-0.723 -1.7102,-1.46957 -0.2483,-2.13159 0.5193,-4.26046 0.7789,-6.39067 0.5895,-0.33091 1.1789,-0.66185 1.7684,-0.99277 0.1244,-0.0559 0.4475,-0.0533 0.3731,-0.16761 -0.1232,-0.18926 -0.4252,-0.15224 -0.6352,-0.23522 -0.3531,-0.13946 -0.7046,-0.28318 -1.0538,-0.43201 -1.0939,-0.46611 -1.7462,-0.77258 -2.8394,-1.27151 -2.476,-1.22647 -5.0041,-2.3386 -7.5582,-3.39026 -3.2485,-1.36877 -6.4299,-2.88645 -9.541,-4.54329 -2.0585,-1.13618 -3.9165,-2.5916 -5.8049,-3.98132 -0.5185,-0.38153 -4.504,-3.27319 -4.9534,-3.59942 -2.1353,-1.56509 -4.2625,-3.1414 -6.3319,-4.79314 -1.0331,-0.82465 -2.0075,-1.65142 -2.9281,-2.59633 -0.1053,-0.13755 -0.232,-0.26114 -0.3159,-0.41272 -0.064,-0.11634 0.1534,0.006 0.1756,-0.01 0.039,-0.0275 0.032,-0.0898 0.04,-0.13661 0.036,-0.21209 0.053,-0.42711 0.085,-0.63997 0.075,-0.30864 0.4339,-0.78729 -0.095,0.39352 -0.084,0.18645 -0.2078,0.3521 -0.3201,0.52279 -0.167,0.25381 -0.2891,0.27487 0.081,0.0811 0.2319,0.0389 0.4151,-0.34835 0.655,-0.31475 0.074,0.0103 -0.1508,0.0765 -0.1686,0.14949 -0.011,0.0444 0.076,0.0514 0.1129,0.0778 0.07,0.0497 0.1306,0.11781 0.2104,0.15046 0.2959,0.12108 0.6057,0.20495 0.9085,0.30742 2.8776,1.06109 5.6416,2.42509 8.2208,4.08358 1.6313,1.38036 3.1062,2.93227 4.7249,4.32824 0.7958,0.37804 1.6662,1.64023 2.3874,1.13414 2.4565,-1.72405 4.7068,-4.08964 5.8041,-6.88303 0.42,-1.06929 -1.2619,-1.92617 -1.997,-2.809 -0.5185,-0.62265 -1.1602,-1.13144 -1.7483,-1.68881 -1.4011,-1.32784 -2.5026,-2.31825 -3.9347,-3.62313 -0.6981,-0.6437 -2.8064,-2.59424 -3.5695,-3.27334 -0.4802,-0.42736 -1.5918,-1.2573 -2.0675,-1.93739 -0.025,-0.0354 0.1097,-0.0227 0.1289,0.0161 0.2603,0.52811 0.4549,1.0862 0.6824,1.62928 -1.441,4.96295 0.1521,2.66549 -4.4206,5.17289 -0.046,0.0251 0.013,0.11682 0.057,0.14613 0.2211,0.14981 0.4734,0.2471 0.709,0.37275 1.3064,0.6967 0.9133,0.48482 2.2276,1.24177 1.0392,0.6251 2.0596,1.30582 2.9573,2.12693 0.2975,0.27218 0.5697,0.57079 0.8518,0.85892 2.3438,2.39379 -0.1381,-0.10578 2.392,2.43004 4.0133,3.70525 8.4903,6.84257 12.9824,9.92902 3.4183,2.29145 6.8266,4.59247 10.1061,7.07908 1.1083,0.84648 2.2892,1.59004 3.4197,2.40517 0.206,0.14848 0.4112,0.29837 0.608,0.45876 0.06,0.0492 0.2134,0.22656 0.1617,0.16841 -0.2759,-0.31046 -0.5563,-0.61696 -0.8345,-0.92544 -0.5072,-4.65134 -1.238,-3.01844 1.4293,-6.25353 0.083,-0.1008 0.398,-0.14398 0.3097,-0.24032 -0.1186,-0.12935 -0.3533,0.0326 -0.5264,0.004 -0.152,-0.0251 -0.2865,-0.11419 -0.4327,-0.16298 -0.3442,-0.11477 -0.692,-0.21836 -1.038,-0.32755 -4.2284,-1.65965 -8.3953,-3.48028 -12.5515,-5.31381 -2.4404,-1.1569 -4.9125,-2.27796 -7.2316,-3.66967 -1.0204,-0.6124 -1.4155,-0.89593 -2.373,-1.54194 -2.2641,-1.74736 -4.5134,-3.51411 -6.823,-5.20245 -1.5613,-1.11072 -3.1493,-2.18297 -4.6948,-3.31557 -1.8134,-1.25204 -5.7382,-3.6504 -7.4976,-0.31652 -1.2877,2.43993 0.1909,5.58038 1.0105,8.21473 0.218,0.70072 1.2586,0.75512 1.8941,1.12196 0.6707,0.38706 1.3495,0.75973 2.0242,1.13959 4.0964,2.33349 7.8686,5.16181 11.6409,7.97348 3.8343,2.98188 7.9379,5.56956 12.1226,8.02307 2.3138,1.38494 4.8292,2.55995 6.818,4.42042 0.5264,0.533 0.873,1.22476 1.2682,1.86343 0.3249,0.62844 0.6227,1.27239 0.9271,1.91297 0.3221,0.80309 0.7747,1.54808 1.1201,2.33931 0.5527,1.17533 1.1585,2.32685 1.7564,3.4803 0.8402,1.58584 1.7265,3.1477 2.7189,4.64352 0.8088,1.14787 1.5603,2.33064 2.2763,3.53796 0.3928,0.6514 0.6498,1.36789 0.8597,2.09571 0.3365,1.02042 0.534,2.08222 0.7308,3.13714 0.1116,1.20814 0.3345,2.3976 0.5714,3.5873 0.185,1.13477 0.4617,2.2553 0.5678,3.40106 0.1652,2.0738 0.4017,4.14088 0.5902,6.21255 0.1027,1.545 0.2621,3.0853 0.369,4.62999 0.04,1.30149 0.122,2.59832 0.2292,3.89583 0.093,1.3725 0.2745,2.73172 0.5994,4.06853 0.3099,1.01388 0.4473,2.0652 0.6158,3.10851 0.14,0.8473 0.1687,1.70603 0.1901,2.56278 0.017,0.83849 0.014,1.67719 0.013,2.51576 0,1.08519 0,2.17035 0,3.25551 0.01,0.73459 -0.1078,1.46429 -0.1699,2.19586 0.046,-0.30443 -0.1028,1.10202 -0.052,0.8296 0.1973,-1.0636 -0.069,-0.15319 0.2161,-1.08736 0.01,-0.0273 -0.029,0.0493 -0.043,0.074 -0.059,0.11842 -0.2904,0.28868 -0.1762,0.35528 2.8785,1.6783 5.7849,3.33203 8.828,4.68921 0.2108,0.094 0.2378,-0.3955 0.3576,-0.59264 0.6468,-1.06387 1.2644,-2.13728 1.8692,-3.22593 1.081,-2.07566 2.25,-4.11396 3.0136,-6.33619 0.5222,-1.51958 0.6122,-2.12479 0.9526,-3.66443 0.9026,-5.13273 0.3102,-10.36905 -0.2005,-15.51054 -0.6134,-5.01316 -1.3612,-10.01291 -2.4468,-14.94686 -0.1013,-0.43051 -0.2129,-0.85874 -0.304,-1.29151 -0.8572,-4.07186 2.5007,-3.46586 -10.1407,-0.0658 -0.5387,0.14489 -0.015,1.11556 -0.01,1.67333 0.01,0.7044 0.029,1.40856 0.044,2.11286 0.1477,4.07149 0.2821,8.1484 0.5766,12.21229 0.1452,1.85798 0.3934,3.69922 0.704,5.5353 1.2094,6.96685 11.0621,5.25639 9.8526,-1.71048 v 0 c -0.2724,-1.51101 -0.4482,-3.03231 -0.5839,-4.56211 -0.2942,-3.88829 -0.3985,-7.79248 -0.5516,-11.68834 -0.014,-0.62542 -0.032,-1.25076 -0.041,-1.87629 -0.01,-0.39653 0.3892,-1.13204 0,-1.18967 -10.7953,-1.58591 -10.5836,-2.63327 -9.3068,3.00818 1.01,4.54731 1.6787,9.16114 2.2605,13.78074 0.4104,4.10268 0.9471,8.31041 0.3735,12.42153 -0.1761,0.86318 -0.2533,1.35787 -0.5179,2.19697 -0.5646,1.78972 -1.5928,3.38076 -2.4173,5.0537 -0.6163,1.11524 -0.6025,1.11426 -1.2191,2.14571 -0.1577,0.26382 -0.3217,0.52388 -0.4809,0.7868 -0.07,0.11527 -0.3195,0.27519 -0.206,0.34782 2.7996,1.79183 5.7467,3.34213 8.6097,5.03076 0.012,0.007 -0.014,0.023 -0.022,0.0344 0.6095,-1.15652 1.0115,-2.385 1.0304,-3.70504 0.083,-1.00763 0.2341,-2.01268 0.2049,-3.02654 0,-1.0823 0,-2.16463 0,-3.24694 0,-0.93014 0,-1.86042 -0.016,-2.79043 -0.035,-1.30447 -0.1007,-2.61016 -0.3153,-3.89953 -0.2137,-1.31747 -0.4051,-2.64266 -0.7834,-3.92586 -0.033,-0.12676 -0.098,-0.24556 -0.1179,-0.37508 -0.1075,-0.69476 -0.1505,-1.40263 -0.2194,-2.10169 -0.1038,-1.25481 -0.1762,-2.50814 -0.2194,-3.76692 -0.1133,-1.61579 -0.2763,-3.22723 -0.3861,-4.84325 -0.1959,-2.14366 -0.4368,-4.28295 -0.6123,-6.42853 -0.1742,-1.42105 -0.4275,-2.82567 -0.6972,-4.23167 -0.099,-0.49826 -0.2293,-1.0028 -0.2975,-1.50741 -0.063,-0.46641 -0.087,-0.93758 -0.1584,-1.40303 -0.026,-0.19188 -0.064,-0.38201 -0.095,-0.57298 -0.2634,-1.38875 -0.5369,-2.7827 -0.9708,-4.12962 -0.4563,-1.51522 -1.0339,-2.9963 -1.8491,-4.35872 -0.8098,-1.36194 -1.6559,-2.69975 -2.5662,-3.99722 -0.8012,-1.17628 -1.4726,-2.43525 -2.1512,-3.68453 -0.5359,-1.03066 -1.081,-2.05888 -1.5738,-3.11015 -0.3869,-0.80952 -0.8093,-1.59991 -1.1611,-2.42591 -0.4651,-0.96481 -0.9007,-1.94617 -1.45,-2.86676 -0.9087,-1.45363 -1.8116,-2.92606 -3.123,-4.06424 -0.3275,-0.28446 -0.6458,-0.57981 -0.9825,-0.85334 -2.2825,-1.85438 -4.8756,-3.26623 -7.4201,-4.71765 -3.8685,-2.26457 -7.6626,-4.65114 -11.2016,-7.41273 -4.1139,-3.06612 -8.2397,-6.13328 -12.7115,-8.6697 -0.6551,-0.36875 -1.3073,-0.74282 -1.9654,-1.10628 -0.3044,-0.16809 -0.8618,-0.83087 -0.9218,-0.48834 -0.4183,2.38966 1.181,5.32585 -0.2659,7.27313 -2.77,3.72803 -7.4849,-0.65717 -5.0934,0.94268 1.5505,1.13557 3.1393,2.21634 4.7086,3.32563 2.4175,1.76202 4.7486,3.63577 7.1433,5.42684 1.2071,0.80794 1.7064,1.16399 2.9971,1.92866 2.6213,1.55292 5.3908,2.84141 8.1474,4.13112 2.2862,1.00838 4.5814,1.98996 6.8803,2.96871 1.4027,0.59719 3.3661,1.47428 4.79,2.02403 0.7631,0.29464 1.5406,0.55071 2.3108,0.82606 0.7882,0.19698 1.563,0.45805 2.3645,0.59095 1.3811,0.22902 2.8426,0.32234 4.2294,0.0413 0.7414,-0.15028 1.5605,-0.19095 2.183,-0.62082 1.1534,-0.79645 2.498,-1.64216 2.9931,-2.95346 0.5382,-1.4256 -0.1022,-3.04591 -0.1532,-4.56885 -0.4213,-0.56746 -0.8015,-1.16793 -1.2639,-1.70241 -0.2365,-0.27329 -0.5393,-0.4817 -0.8213,-0.70771 -1.2713,-1.01896 -2.6891,-1.83846 -3.9814,-2.829 -3.4043,-2.57972 -6.9349,-4.97753 -10.4847,-7.35246 -3.9874,-2.73836 -7.9652,-5.50838 -11.5671,-8.75112 -1.3304,-1.33204 -2.6055,-2.74053 -4.0179,-3.98743 -1.3152,-1.16115 -2.7854,-2.13947 -4.2869,-3.03908 -3.5252,-2.01366 -8.0046,-4.92818 -11.9676,-1.49193 -1.096,0.95025 -1.0291,2.71245 -1.5437,4.06868 0.2602,0.9334 0.3988,1.90958 0.7805,2.80022 0.2523,0.58856 0.6897,1.08283 1.0958,1.57787 0.8916,1.08648 1.5774,1.55207 2.609,2.46994 0.7522,0.66923 2.91,2.6653 3.5711,3.27477 1.8374,1.67346 1.9741,1.78551 3.7507,3.45125 0.4386,0.41119 0.7498,1.02002 1.309,1.24061 0.2426,0.0957 -0.2951,-0.57703 -0.1227,-0.77269 1.8867,-2.1412 3.7059,-4.45334 6.0984,-6.00909 0.5384,-0.35009 1.1153,0.63707 1.673,0.9556 -1.9966,-1.6636 -3.6737,-3.702 -5.8476,-5.15692 -3.377,-2.12762 -6.9578,-3.93557 -10.7401,-5.23033 -1.7928,-0.49906 -2.5059,-0.81098 -4.4192,-0.86024 -1.8473,-0.0476 -3.621,0.52895 -5.1971,1.44856 -0.7666,0.46271 -1.3964,0.79979 -2.07,1.44878 -1.5843,1.52644 -2.2905,3.33595 -2.5166,5.47685 -0.024,0.46495 -0.075,0.92932 -0.071,1.39486 0.025,2.96161 0.9339,5.39006 2.9681,7.55817 0.3532,0.35126 0.696,0.71334 1.0596,1.0538 2.9143,2.72831 6.2589,4.95898 9.4196,7.37982 0.3009,0.21846 4.4285,3.21357 4.8514,3.5244 2.2977,1.68908 4.5714,3.43721 7.0894,4.7946 3.4019,1.8038 6.8741,3.46892 10.4254,4.95914 2.4399,1.00462 4.853,2.07044 7.2181,3.24278 2.2404,1.02008 5.0707,2.44907 7.5009,2.77014 0.8353,0.11033 1.7005,0.2549 2.5262,0.0871 1.0354,-0.21045 1.9568,-0.79801 2.9352,-1.19701 0.3918,-2.2411 1.3789,-4.45735 1.1753,-6.72332 -0.081,-0.89623 -1.2562,-1.29326 -1.9474,-1.86947 -0.2187,-0.18232 -0.5021,-0.26919 -0.7607,-0.38833 -0.8774,-0.40426 -1.8013,-0.69056 -2.7247,-0.96734 -0.6847,-0.17076 -1.3808,-0.31864 -2.0583,-0.51726 -0.1549,-0.0454 -0.3078,-0.0975 -0.4604,-0.14986 -0.1303,-0.0447 -0.2513,-0.12859 -0.3884,-0.14134 -0.035,-0.003 0,0.0705 0.01,0.1057 0.1738,0.26678 0.4287,0.49577 0.5216,0.80034 0.7851,2.57177 0.6651,3.60751 -1.7416,5.86464 -0.5838,0.54753 -1.5262,0.49187 -2.3088,0.65969 -0.1305,0.028 -0.5249,-0.0949 -0.3922,-0.0805 0.2714,0.0295 0.5395,0.0838 0.8093,0.12578 1.5402,0.27657 3.0773,0.59143 4.6343,0.75819 0.697,0.0874 1.3389,0.32785 1.9722,0.63365 1.0072,0.41236 1.96,0.91602 2.9319,1.40285 0.278,0.10552 0.5352,0.31478 0.7765,0.47503 0.7537,0.50065 1.5164,0.98851 2.3327,1.38335 1.0008,0.50202 2.0022,1.03238 3.0354,1.46476 0.5561,0.23273 1.1038,0.50086 1.6882,0.64884 0.831,0.21042 1.6827,0.49263 2.537,0.42106 1.1028,-0.0924 2.1301,-0.60087 3.1952,-0.90131 0.4272,-0.35308 0.9148,-0.64378 1.2815,-1.05926 1.9608,-2.22101 2.1433,-4.93397 0.9264,-7.55642 -0.6844,-1.47288 -1.3787,-2.95243 -2.2746,-4.31085 -0.813,-1.05373 -1.6515,-2.08894 -2.4951,-3.11875 -0.8238,-1.09823 -1.6859,-2.16689 -2.5063,-3.26747 -0.8429,-1.26122 -1.6661,-2.53524 -2.6291,-3.71076 -1.062,-1.289 -2.1953,-2.51129 -3.4088,-3.65987 -1.1449,-1.26995 -2.127,-2.68457 -3.3756,-3.86112 -1.3738,-1.39518 -2.8566,-2.6702 -4.3078,-3.98317 -1.3796,-1.26807 -2.7219,-2.57331 -4.0584,-3.88657 -1.5668,-1.47101 -3.1711,-2.90375 -4.9443,-4.12536 -1.1944,-0.96276 -2.3497,-1.9748 -3.5294,-2.95545 -1.3204,-1.10151 -2.6782,-2.1613 -3.8678,-3.4087 -1.5146,-1.46614 -2.9661,-3.02514 -4.684,-4.25622 -1.5406,-0.93734 -3.1943,-1.66309 -4.9327,-2.15419 -3.4786,-1.21356 -6.7969,-2.82464 -10.2394,-4.13255 -1.9907,-0.69845 -3.9634,-1.40356 -6.039,-1.81057 -0.5949,-0.11666 -1.1897,-0.24667 -1.7933,-0.30313 -1.2712,-0.11888 -1.5288,-0.0361 -2.6269,0.11223 -0.3454,0.082 -0.705,0.11827 -1.0362,0.24601 -1.9068,0.73546 -3.966,1.8868 -3.9551,4.55671 0.014,3.35931 1.641,4.85838 4.0975,5.64809 0.1465,0.0473 0.2911,0.10088 0.4396,0.14179 0.041,0.0114 0.087,0 0.1265,0.0143 1.0319,0.40701 1.9186,1.13663 2.9394,1.56935 0.4813,0.25953 0.9726,0.50173 1.4414,0.78314 1.2447,0.74711 2.3934,1.66333 3.7561,2.20499 0.315,0.13705 0.6261,0.28334 0.9449,0.41121 0.036,0.0145 0.1019,0.0509 0.1166,0.0145 3.7896,-9.34114 6.6269,-8.84544 1.9312,-9.38921 -0.6755,-0.0707 -0.6302,-0.0748 -1.1914,-0.10919 -0.07,-0.004 -0.1402,-0.018 -0.2095,-0.009 -0.012,0.003 0.011,0.0377 0,0.0353 -0.1299,-0.0265 -0.528,-0.19651 -0.6182,-0.23318 -0.5592,-0.2649 -1.1246,-0.51702 -1.6701,-0.80994 -1.1099,-0.59603 -0.066,-0.0698 -1.4722,-0.84093 -0.2734,-0.14994 -0.5543,-0.28583 -0.8315,-0.42873 -1.474,-0.69876 -2.966,-1.36001 -4.3986,-2.14379 -1.8379,-0.82094 -3.7483,-1.50627 -5.7329,-1.87229 -7.0165,-0.87707 -8.2568,9.0457 -1.2404,9.92277 z" /><path
         style="fill:#ff8080;fill-opacity:1;stroke:none;stroke-width:20;stroke-dasharray:none;paint-order:markers stroke fill"
         id="path9905"
         d="m 2386.7067,577.97236 c 0.1219,1.1979 0.1406,2.40342 0.1689,3.60633 0.025,1.11297 0.028,2.22623 0.029,3.33941 2e-4,0.88003 -0.1242,1.75429 -0.1791,2.63289 -0.04,1.39401 -0.1804,2.78191 -0.3166,4.16888 -0.1193,1.55224 -0.2779,3.10097 -0.4032,4.65273 -0.1278,1.30093 -0.3257,2.59321 -0.4709,3.89213 -0.1984,1.53368 -0.3014,3.07691 -0.4988,4.61086 -0.3533,1.65852 -0.7445,3.30917 -1.1061,4.96613 -0.3096,1.55294 -0.7478,3.07358 -1.0772,4.62121 -0.3964,1.90381 -0.7514,3.80987 -0.948,5.74532 -0.1671,1.52937 -0.2959,3.06223 -0.4335,4.59438 -0.1583,2.15802 -0.4691,4.30192 -0.6949,6.45385 -0.167,1.97176 -0.3435,3.94288 -0.463,5.91825 -0.089,1.56861 -0.1092,3.13992 -0.119,4.71065 -0.047,1.45894 0.061,2.9133 0.1675,4.36692 0.083,0.83537 0.077,1.82822 0.5034,2.57431 0.9757,1.70866 2.0357,3.11857 4.1337,3.44268 1.0429,0.16116 2.1033,-0.17568 3.1549,-0.26352 0.5822,-0.33806 1.2082,-0.61 1.7465,-1.01418 0.4255,-0.31937 0.7678,-0.73837 1.1196,-1.13739 1.0184,-1.15509 1.5422,-2.62575 2.0069,-4.06246 0.5136,-1.6868 0.81,-3.43043 1.05,-5.17433 0.1802,-1.49952 0.226,-3.00966 0.2461,-4.51834 0.046,-1.16242 0.1828,-2.31328 0.3242,-3.46644 0.2414,-2.48369 0.3944,-4.97657 0.5275,-7.46836 0.13,-2.92534 0.084,-5.85394 0.4012,-8.76777 0.3339,-3.01601 0.5895,-6.03993 0.7254,-9.07129 0.1108,-2.69039 0.1255,-5.37763 -0.067,-8.06349 -0.2254,-2.64981 -1.0352,-5.18817 -1.5939,-7.77375 -0.5332,-2.75119 -0.8125,-5.53906 -0.9842,-8.33319 -0.082,-2.12754 -0.2605,-4.26011 -0.7687,-6.33063 -0.4572,-1.49921 -1.1123,-2.93161 -1.779,-4.34724 -0.7999,-1.59189 -1.8438,-3.05345 -3.2407,-4.17703 -0.3261,-0.26225 -0.6558,-0.53125 -1.0318,-0.71503 -0.6303,-0.30819 -1.311,-0.50057 -1.9666,-0.75084 -0.8408,0.0156 -1.705,-0.15107 -2.5223,0.0467 -1.52,0.36771 -2.8341,1.33802 -3.6872,2.62556 -1.2327,1.86026 -1.5799,4.13142 -2.0067,6.26327 -0.7468,4.22238 -1.4055,8.45807 -2.2358,12.66563 -0.6031,3.00551 -1.1682,6.01787 -1.7446,9.02854 -0.4597,2.68652 -0.729,5.40268 -0.8242,8.12538 -0.033,2.63797 0.021,5.27603 0.058,7.91371 0.016,1.099 0.024,2.19805 0.028,3.29716 0,0.21087 -0.075,0.8286 0,0.63264 0.3703,-0.93101 0.592,-1.91447 0.8879,-2.87168 2.4331,-0.25495 4.8686,-0.48688 7.2992,-0.76485 0.1775,-0.0204 -0.4017,-0.78489 -0.4459,-0.85479 -0.6301,-0.99791 -1.2761,-1.98234 -1.8877,-2.99196 -1.5452,-2.82271 -3.378,-5.41835 -7.5522,-4.37849 -1.4375,0.35806 -2.1714,2.01568 -3.257,3.02353 -0.1898,0.63955 -0.4485,1.26262 -0.5695,1.9187 -0.5251,2.84716 0.4062,5.63814 1.3618,8.27387 1.1044,2.92015 2.4864,5.72264 3.9308,8.48667 0.643,1.34718 1.4139,2.653 1.8761,4.07963 0.1926,0.59465 0.329,1.20605 0.4931,1.8092 0.4251,1.49516 0.7012,3.01649 0.9485,4.54774 0.1997,1.01324 0.2264,2.04626 0.2551,3.07517 0.096,0.98861 -0.094,2.01131 0.064,2.99537 0.078,0.48371 0.2086,0.9574 0.3129,1.43611 2.8723,0.53342 5.7195,1.97318 8.617,1.60028 1.0302,-0.13256 0.8845,-1.88405 1.2217,-2.86645 0.1132,-0.32983 0.087,-0.69215 0.1189,-1.03938 0.1254,-1.35943 0.045,-2.53842 -0.085,-3.89568 -0.5269,-2.86623 -1.3956,-5.66322 -2.4216,-8.38734 -0.5806,-1.56887 -1.2375,-3.10848 -1.8308,-4.67212 -0.5008,-1.39031 -0.6046,-2.87666 -0.7946,-4.33088 -0.209,-1.28871 -0.2852,-2.58837 -0.329,-3.89102 -0.1998,-3.65181 0.059,-1.04508 -10.014,-0.0513 -0.229,0.0225 -0.01,0.46016 -0.01,0.69027 -0.01,0.87326 0,1.74665 0,2.6199 0.027,1.82198 0.1326,3.63895 0.4475,5.4346 0.2301,1.47465 0.6234,2.90298 1.1381,4.30194 0.3197,1.0442 1.0186,2.01493 1.3804,3.01823 0.3793,0.71266 0.5619,1.54787 1.0311,2.2148 1.4322,2.0356 2.5734,3.11439 5.8012,2.81355 1.2548,-0.11691 2.155,-1.30698 3.2325,-1.96048 0.3493,-0.60838 0.7535,-1.18835 1.0479,-1.82509 0.7178,-1.55261 0.9321,-3.80699 1.1282,-5.46966 0.389,-3.29869 0.3632,-3.62291 0.6261,-7.29834 0.4926,-6.64911 0.4942,-13.34133 1.2381,-19.97192 0.1118,-0.99705 0.2673,-1.98871 0.401,-2.98307 0.5876,-3.69403 1.4594,-7.343 2.8267,-10.82743 0.3494,-0.89197 0.7812,-1.74305 1.2223,-2.59155 3.258,-6.27575 -5.6172,-10.88334 -8.8753,-4.60758 v 0 c -0.6061,1.16882 -1.1867,2.34937 -1.6678,3.57661 -1.6339,4.23402 -2.7373,8.6437 -3.4186,13.13138 -0.1488,1.12929 -0.3211,2.25573 -0.4465,3.38788 -0.742,6.7007 -0.7734,13.45925 -1.2549,20.17892 -0.2625,3.74486 -0.1941,3.41958 -0.5667,6.70838 -0.065,0.57737 -0.1417,1.1535 -0.2191,1.7294 -0.034,0.25564 -0.083,0.50919 -0.1161,0.76504 -0.01,0.0624 -0.053,0.2299 -0.01,0.18867 0.2042,-0.17711 0.3417,-0.41886 0.5126,-0.62828 0.9081,-0.45741 1.7076,-1.36625 2.7243,-1.37223 1.3848,-0.008 2.7006,0.70474 3.9346,1.33308 0.3708,0.1888 0.4697,0.68699 0.7057,1.02968 0.035,0.0506 -0.076,-0.0978 -0.1022,-0.15333 -0.2036,-0.43281 -0.3585,-0.88744 -0.5715,-1.31614 -0.3837,-0.85638 -0.8254,-1.67696 -1.1895,-2.54011 -0.3228,-0.86556 -0.5591,-1.7431 -0.6857,-2.66277 -0.2639,-1.1811 -0.1983,-2.41067 -0.2787,-3.61063 0,-5.8243 0.9926,-3.01689 -9.9793,-3.00874 -0.033,3e-5 0.01,0.0649 0.01,0.0974 0.056,1.62161 0.1587,3.24033 0.4075,4.84558 0.2918,2.23216 0.5437,4.48969 1.3688,6.60411 0.5984,1.55898 1.2442,3.09965 1.8279,4.6646 0.745,1.91982 1.3116,3.90449 1.8235,5.89775 0.087,0.63746 0.1185,1.16861 0.079,1.81084 -0.01,0.1081 -0.079,0.41544 -0.02,0.32432 0.3986,-0.62005 0.3222,-1.93003 1.0593,-1.94114 2.8782,-0.0434 5.631,1.19846 8.4465,1.79768 0.056,0.33153 0.1123,0.66289 0.1671,0.99457 0.01,0.0318 -0.018,-0.0628 -0.019,-0.095 -0.01,-0.17801 0,-0.35616 0,-0.53425 0,-0.38851 0,-0.84344 -0.011,-1.22915 0,-0.23929 -0.01,-0.47855 -0.013,-0.71781 -0.043,-1.4673 -0.1093,-2.93831 -0.3794,-4.38473 -0.3049,-1.88039 -0.6592,-3.74764 -1.1733,-5.58474 -0.238,-0.86871 -0.513,-1.92017 -0.8043,-2.75903 -0.6185,-1.78104 -1.5148,-3.44852 -2.3515,-5.13193 -1.2438,-2.37295 -2.4377,-4.77727 -3.3981,-7.28128 -0.285,-0.77222 -0.5617,-1.53581 -0.7942,-2.32495 -0.041,-0.13965 -0.087,-0.49813 -0.1886,-0.39391 -0.1053,0.10787 -0.1575,0.25707 -0.2362,0.3856 -0.9368,0.70633 -1.6478,1.96075 -2.8103,2.11897 -2.8723,0.39097 -3.793,-0.13454 -4.8825,-1.64502 -0.026,-0.0359 0.072,0.0549 0.096,0.0921 0.123,0.19066 0.8846,1.53707 0.8922,1.55044 0.6247,1.02698 1.2782,2.03231 1.9216,3.04731 0.2392,0.37735 0.4548,0.7698 0.7068,1.13874 0.3133,0.45865 0.4376,1.26436 0.9875,1.34204 2.6231,0.37055 5.2979,-0.0533 7.9469,-0.0799 0.3772,-1.06484 0.8126,-2.11084 1.1317,-3.19455 0.06,-0.20497 0,-0.42733 0,-0.64101 0,-1.12942 -0.013,-2.25885 -0.029,-3.3882 -0.035,-2.48689 -0.084,-4.97408 -0.062,-7.46127 0.057,-2.19769 0.3063,-4.38785 0.6508,-6.55836 0.5727,-2.9927 1.1339,-5.98713 1.7341,-8.97451 0.8307,-4.21812 1.5018,-8.46225 2.2418,-12.69643 0.092,-0.49813 0.1726,-0.99846 0.2757,-1.49442 0.067,-0.3211 0.258,-0.62875 0.2333,-0.95578 -0.01,-0.12456 -0.1913,0.16074 -0.2874,0.24056 -0.2372,0.19717 -0.439,0.44815 -0.7127,0.59044 -1.6656,0.86593 -1.5636,0.62627 -3.3952,0.51586 -0.3751,-0.18446 -0.7589,-0.35224 -1.1254,-0.5534 -0.045,-0.0249 -0.098,-0.16663 -0.05,-0.14642 0.3348,0.14245 0.4771,0.65699 0.6709,0.90525 0.42,0.86688 0.8017,1.75429 1.1526,2.65107 0.1374,0.17806 0.1949,1.13794 0.2052,1.22711 0.119,1.03735 0.2264,2.07711 0.2385,3.12253 0.2076,3.30465 0.5465,6.60226 1.1966,9.85274 0.4694,2.11979 1.1079,4.20426 1.3888,6.36201 0.033,0.4386 0.1195,1.51519 0.1291,1.97258 0.034,1.63933 -0.053,3.28133 -0.079,4.92003 -0.1236,2.83231 -0.3712,5.65692 -0.6812,8.47476 -0.058,0.5746 -0.1287,1.14808 -0.1746,1.72382 -0.2,2.51256 -0.1288,5.03655 -0.2666,7.55192 -0.1196,2.26303 -0.2617,4.52649 -0.4673,6.78328 -0.1851,1.51302 -0.3521,3.02728 -0.3975,4.55253 -0.014,1.1054 -0.04,2.21183 -0.1573,3.31205 -0.1574,1.20581 -0.3572,2.41292 -0.701,3.58079 -0.027,0.10917 -0.056,0.21799 -0.081,0.32753 -0.012,0.052 -0.021,0.10456 -0.032,0.15685 0.012,0.003 0.032,-0.007 0.037,0.004 0.01,0.0167 -0.027,0.0641 -0.012,0.0536 1.0739,-0.75099 -0.2487,-0.0495 1.5057,-0.8486 0.8111,-0.005 1.6424,-0.19394 2.4333,-0.0138 1.6145,0.36777 2.2338,1.48267 2.9348,2.83673 0.1127,0.21775 0.095,0.48109 0.1393,0.72226 0.01,0.0282 -0.015,-0.0553 -0.022,-0.083 -0.011,-0.16457 -0.022,-0.32917 -0.034,-0.49374 -0.087,-1.19081 -0.1897,-2.38075 -0.1413,-3.57632 0.01,-1.3915 0.024,-2.78355 0.1013,-4.17322 0.1089,-1.82832 0.2764,-3.65226 0.4267,-5.47746 0.2295,-2.20096 0.5484,-4.3934 0.7092,-6.60074 0.135,-1.50757 0.2621,-3.0157 0.4266,-4.52046 0.1435,-1.5957 0.4895,-3.15643 0.7957,-4.72689 0.2706,-1.50662 0.7938,-2.9651 1.0472,-4.47847 0.4231,-1.94553 0.9112,-3.87853 1.2562,-5.83978 0.1983,-1.58779 0.3198,-3.18272 0.5177,-4.7703 0.1509,-1.39674 0.3765,-2.78479 0.4988,-4.18497 0.1199,-1.4936 0.2741,-2.98415 0.3876,-4.47828 0.1483,-1.5117 0.2991,-3.02469 0.3464,-4.54377 0.062,-1.08265 0.2305,-2.15961 0.1972,-3.24678 0,-1.18825 0,-2.37657 -0.032,-3.56455 -0.035,-1.49275 -0.067,-2.9882 -0.2272,-4.47394 -0.7809,-7.02784 -10.7198,-5.92352 -9.9389,1.10431 z" /><path
         style="fill:#ff8080;fill-opacity:1;stroke:none;stroke-width:20;stroke-dasharray:none;paint-order:markers stroke fill"
         id="path9907"
         d="m 2369.8754,626.37817 c -0.043,1.77486 0.2502,3.5119 0.6753,5.22777 0.2946,1.1498 0.5524,2.31217 0.7376,3.48499 0.2026,1.00423 0.075,0.47069 0.4009,1.59618 2.1711,6.72952 11.6881,3.65905 9.5169,-3.07047 v 0 c 0.02,0.21887 0.022,0.17106 -0.048,-0.13509 -0.241,-1.4505 -0.5394,-2.89288 -0.9096,-4.31607 -0.079,-0.30729 -0.1951,-0.60595 -0.2513,-0.91829 -0.1101,-0.61288 -0.1034,-1.24907 -0.1217,-1.86902 0,-7.07107 -10,-7.07107 -10,0 z" /><path
         style="fill:#ff8080;fill-opacity:1;stroke:none;stroke-width:20;stroke-dasharray:none;paint-order:markers stroke fill"
         id="path9911"
         d="m 2451.6851,621.4969 c 2.0777,-2.74283 3.2031,-6.00077 4.273,-9.22951 0.9569,-3.04599 1.6347,-6.16826 2.5619,-9.22242 0.4562,-1.18044 1.1328,-2.25478 1.7418,-3.35786 0.4033,-0.73035 1.1022,-2.0742 1.4973,-2.82866 0.7416,-1.38311 1.5769,-2.72007 2.2562,-4.13655 0.5226,-1.08968 0.8948,-2.03234 1.3611,-3.15531 1.6283,-3.85969 3.261,-7.71604 4.7363,-11.63728 0.7584,-2.02149 1.5944,-4.01357 2.2199,-6.08147 0.4001,-1.4619 0.7911,-2.92552 1.1571,-4.3964 0.4885,-1.70815 0.7423,-3.4526 0.8988,-5.21927 0.1378,-1.87714 0.1642,-3.75968 0.1769,-5.64102 0.096,-1.86196 -0.2862,-3.69846 -1.1392,-5.36075 -0.2094,-0.40818 -0.4659,-0.79042 -0.6988,-1.18563 -0.2494,-0.32631 -0.4598,-0.68649 -0.7481,-0.9789 -0.4528,-0.45919 -0.9149,-0.92663 -1.4641,-1.26458 -1.8857,-1.16028 -3.9985,-1.39046 -6.1031,-0.69681 -0.677,0.22313 -1.2576,0.67162 -1.8864,1.00746 -0.4436,0.36772 -0.9219,0.6971 -1.3307,1.10318 -2.4376,2.42178 -3.8667,5.69023 -5.2257,8.78364 -1.5029,3.51742 -2.7617,7.12544 -3.9615,10.75457 -0.892,2.43414 -1.9107,4.82068 -2.8523,7.23648 -1.5177,3.73896 -2.8871,7.5355 -4.1407,11.3705 -0.8361,3.07364 -1.8163,6.10436 -2.7082,9.16151 -0.4932,1.59716 -0.8954,3.22009 -1.25,4.85302 -0.1732,0.92556 -0.4234,1.85187 -0.7585,2.73312 -1.2464,4.0218 0.047,2.39686 8.8139,4.82351 0.3025,0.0837 1.0146,-2.45965 1.0978,-2.74645 0.5322,-2.63092 1.1392,-5.24592 1.65,-7.88136 0.5701,-2.96444 0.9106,-5.96556 1.3032,-8.95683 0.2653,-1.99721 0.9522,-3.89007 1.731,-5.73554 1.2858,-2.93288 2.588,-5.85832 3.8697,-8.79303 0.5514,-1.39435 1.2094,-2.72624 1.9798,-4.01013 0.3804,-0.7112 0.5125,-0.8097 1.1707,-1.1897 1.7939,-1.21718 -0.8274,0.94565 -3.6194,0.1401 -1.1515,-0.33221 -1.7748,-1.61126 -2.679,-2.39784 -0.107,-0.093 -0.3047,-0.37248 -0.3521,-0.23881 -0.2432,0.68765 -0.2192,1.44227 -0.3288,2.16339 -1.5707,7.27853 -3.4708,14.48078 -5.2184,21.71798 -0.3869,1.61809 -0.7502,3.24234 -1.0813,4.87283 -0.07,0.34383 -0.1789,0.6831 -0.2003,1.03328 -0.042,0.68061 -0.5601,1.67378 0.012,2.04557 2.4448,1.59028 5.4165,2.16461 8.1247,3.24689 0.7572,-0.86482 1.6199,-1.64756 2.2716,-2.59445 0.9496,-1.37988 1.9875,-4.18867 2.473,-5.73223 0.9745,-3.09824 1.5725,-6.3151 2.202,-9.49526 0.6336,-3.72446 1.5424,-7.38859 2.4044,-11.06321 0.064,-0.24603 0.1285,-0.49209 0.1927,-0.73813 1.7738,-6.84498 -7.9064,-9.35352 -9.6802,-2.50854 v 0 c -0.083,0.32216 -0.166,0.64431 -0.249,0.96644 -0.8858,3.78947 -1.8236,7.56746 -2.4786,11.4072 -0.5322,2.70555 -1.0379,5.43761 -1.8155,8.08701 -0.2039,0.69472 -0.4448,1.37856 -0.6991,2.05645 -0.1686,0.44966 -0.5695,0.84352 -0.5686,1.32376 0,0.19598 0.3806,-0.0938 0.5709,-0.14076 16.1517,8.70263 6.1508,0.48268 7.0588,5.03534 0.057,0.28829 0.108,-0.57793 0.1665,-0.86601 0.3116,-1.53556 0.6523,-3.06556 1.0172,-4.58925 1.8289,-7.57626 3.8477,-15.11067 5.4107,-22.748 0.1951,-1.6157 0.8887,-5.27029 0.076,-6.89636 -0.6642,-1.32885 -1.6425,-2.72627 -3.0232,-3.27449 -2.4619,-0.9775 -3.9185,-0.23561 -5.5454,0.87445 -1.6834,1.16081 -3.2304,2.53053 -4.1949,4.37089 -0.9832,1.64899 -1.8442,3.35698 -2.561,5.13961 -1.3033,2.98482 -2.6301,5.95898 -3.934,8.94342 -1.1042,2.66761 -2.0489,5.40737 -2.4175,8.2863 -0.3662,2.79257 -0.6806,5.59483 -1.2071,8.36324 -0.4511,2.35032 -1.0254,4.67395 -1.4468,7.03004 -0.041,0.14763 -0.091,0.29305 -0.1231,0.44291 0,0.0119 0.025,-0.008 0.032,-0.018 0.1104,-0.171 0.1259,-0.59312 0.3167,-0.52216 3.867,1.43793 9.973,0.89165 8.887,4.18828 -0.014,0.0424 0.022,-0.0864 0.034,-0.12962 0.4355,-1.28397 0.8555,-2.58239 1.0919,-3.91989 0.2987,-1.40218 0.6527,-2.79251 1.0753,-4.16271 0.8591,-2.95553 1.8163,-5.88203 2.6139,-8.85566 1.1918,-3.65921 2.5056,-7.27779 3.9524,-10.84424 1.0028,-2.57815 2.1003,-5.12037 3.0286,-7.72639 1.1034,-3.33808 2.2531,-6.65913 3.633,-9.8957 0.8177,-1.89281 1.6801,-3.78455 2.8361,-5.49728 -1.6624,0.43011 -2.6677,0.20894 -3.7658,-1.14231 -0.015,-0.0185 0.044,0.018 0.066,0.027 0.1085,0.0637 0.2633,0.30694 0.2663,0.29712 0.034,-0.1094 0.016,-0.45611 0.029,-0.34234 0,0.0183 0,1.16573 0,1.18639 -0.011,1.61986 -0.03,3.2407 -0.141,4.85738 -0.1,1.24431 -0.2744,2.45891 -0.6398,3.65744 -0.3318,1.33697 -0.6877,2.66671 -1.0487,3.99608 -0.5,1.84307 -1.3818,3.56571 -1.9838,5.37462 -1.4343,3.81846 -3.0325,7.56949 -4.6144,11.32864 -0.06,0.1461 -0.8119,1.98471 -0.9942,2.36831 -0.6704,1.41078 -1.5207,2.72994 -2.2437,4.11255 -0.1862,0.3557 -1.098,2.10304 -1.3128,2.49229 -0.9735,1.76409 -2.0191,3.50372 -2.6384,5.43587 -0.8989,2.97728 -1.588,6.01062 -2.4876,8.98771 -0.756,2.306 -1.4656,4.67749 -2.9684,6.62659 -4.055,5.79284 4.1373,11.52748 8.1923,5.73464 z" /><path
         style="fill:#ff5a5a;fill-opacity:1;stroke:none;stroke-width:20;stroke-dasharray:none;paint-order:markers stroke fill"
         id="path9996"
         d="m 2369.4845,614.98085 c 0.3524,1.24658 0.8744,2.43184 1.4652,3.58111 0.5768,1.00679 1.1824,2.0302 1.9725,2.88959 0.234,0.25451 0.4881,0.4898 0.7321,0.73467 0.9431,0.88286 2.0153,1.60875 3.0084,2.43009 -0.068,0.0301 0.017,-0.0177 0.026,0.0932 0,0.0159 -0.051,-0.0282 -0.045,-0.0135 0.033,0.0818 0.087,0.15314 0.1319,0.22913 0.041,0.07 0.5021,0.8436 0.5286,0.8881 0.4588,0.79031 0.9102,1.58379 1.4057,2.3518 0.405,0.5624 0.8068,1.12562 1.1769,1.71159 0.5193,0.80894 1.0298,1.62327 1.5489,2.43234 0.6341,0.92501 1.1727,1.91257 1.796,2.8443 0.1852,0.27686 0.3818,0.54589 0.5727,0.81883 0.6795,0.93464 1.4405,1.80456 2.1576,2.70949 0.4102,0.55436 0.8307,1.10051 1.2688,1.63312 0.1303,0.15898 0.2745,0.30924 0.3931,0.4772 0.035,0.049 0.1481,0.18854 0.1066,0.14512 -0.045,-0.0473 -0.1448,-0.21672 -0.118,-0.157 0.044,0.0991 0.1146,0.18465 0.1719,0.27699 0.29,0.45818 0.6028,0.90059 0.9204,1.3398 0.1917,0.26503 0.1263,0.1543 0.1981,0.27924 0.5304,0.7743 1.1805,1.44343 1.9635,1.96776 0.22,0.14732 0.4614,0.25995 0.6921,0.38992 1.0287,0.46087 2.1804,0.74445 3.3175,0.68251 0.324,-0.0177 0.6449,-0.0732 0.9674,-0.10974 0.5797,-0.22191 1.2085,-0.3437 1.7392,-0.6657 1.3615,-0.82595 2.2405,-2.13928 2.7192,-3.61701 0.082,-0.25413 0.1353,-0.51684 0.2029,-0.77523 0.046,-0.31745 0.1259,-0.63177 0.1381,-0.95231 0.019,-0.49602 0.01,-0.99484 -0.045,-1.48844 -0.1178,-1.10826 -0.5253,-2.22832 -1.0022,-3.2289 -0.1593,-0.33414 -0.3444,-0.65534 -0.5166,-0.983 -0.3583,-0.69012 -0.862,-1.29019 -1.2659,-1.95072 -0.01,-0.0114 0.014,-0.0251 0.011,-0.0381 -0.032,-0.13451 -0.087,-0.26249 -0.1259,-0.39499 -0.368,-1.72162 -0.943,-3.38355 -1.5654,-5.02693 -0.626,-1.70614 -1.4619,-3.31737 -2.2864,-4.93228 -1.2012,-2.4271 -2.5833,-4.7543 -4.0228,-7.0457 -0.9575,-1.54538 -2.0537,-2.99561 -3.1787,-4.42132 -0.2914,-0.38084 -0.6139,-0.73718 -0.9061,-1.11744 -0.059,-0.0764 -0.1153,-0.15499 -0.1634,-0.23852 -0.01,-0.0146 -0.014,-0.0618 0,-0.0498 0.069,0.0725 0.1863,0.26324 0.246,0.3568 -0.053,-0.39617 0.043,-0.36942 0.1847,-0.64712 0.062,-0.12139 0.1159,-0.24691 0.1738,-0.37037 0.6391,-1.35522 1.4328,-2.62969 2.2038,-3.91207 0.4954,-0.75324 0.2767,-0.44336 0.7855,-1.13329 0.2219,-0.30097 0.4984,-0.7066 0.7756,-0.98579 0.1253,-0.12623 0.2861,-0.21143 0.4293,-0.31702 1.4315,-0.73845 2.9008,-1.40253 4.3754,-2.04997 0.205,-0.0856 0.4106,-0.17002 0.6151,-0.25669 0.1945,-0.0837 0.3889,-0.16735 0.5833,-0.25101 0.1128,-0.0459 0.2262,-0.0901 0.3383,-0.13759 0.1456,-0.0616 0.2893,-0.12766 0.4348,-0.18949 0.022,-0.009 0.09,-0.0185 0.067,-0.0238 -1.8334,-0.41849 -3.6724,-0.81221 -5.5086,-1.21835 -0.3416,-0.60973 -0.6288,-1.25336 -1.0249,-1.82917 -0.063,-0.0909 0,0.22061 -0.01,0.33089 -0.01,0.26244 0,0.52557 -0.025,0.78721 -0.1317,1.59565 -0.5273,3.15172 -0.8799,4.70803 -0.6792,2.80627 -1.3668,5.61374 -1.8263,8.46642 -0.2808,1.743 -0.2858,2.04142 -0.4661,3.79977 -0.3796,4.25487 -0.091,8.52664 0.4014,12.7581 0.1286,0.96538 0.19,1.46412 0.3297,2.38813 0.039,0.25738 0.057,0.51937 0.1238,0.77107 0.1299,0.49295 -0.043,1.39975 0.4638,1.45733 3.0871,0.35099 6.312,0.45307 9.3145,-0.3456 0.737,-0.19603 0.2875,-1.49783 0.4312,-2.24674 0.01,-0.66648 0.047,-1.33326 0.026,-1.99945 -0.052,-1.61134 -0.2801,-3.89597 -0.4965,-5.47243 -0.2819,-2.05322 -0.615,-3.90467 -1.1356,-5.91257 -0.2454,-0.94639 -0.5564,-1.87452 -0.8346,-2.81178 -0.7437,-2.37691 -1.7912,-4.63616 -2.8574,-6.88028 -0.4284,-0.90159 -0.8942,-1.78607 -1.292,-2.70158 -0.082,-0.18952 -0.1377,-0.38965 -0.2066,-0.58446 0.012,-0.0228 0.026,-0.0922 0.035,-0.0683 0.278,0.72028 0.1052,1.53419 -0.2082,2.21152 -0.072,0.15537 -0.1479,0.3188 -0.2743,0.43421 -0.4415,0.40296 -0.9415,0.73676 -1.4122,1.10511 -1.6572,-0.16441 -3.4221,0.11734 -4.9715,-0.49323 -0.8044,-0.31703 -1.0454,-1.37761 -1.5526,-2.07788 -0.076,-0.10433 -0.1458,-0.4535 -0.1942,-0.33412 -0.1345,0.33147 -0.066,0.71239 -0.1037,1.06815 -0.1247,1.18372 -0.134,1.19581 -0.2866,2.33931 -0.054,0.26546 -0.1055,0.53145 -0.1621,0.79637 -0.1524,0.71361 -0.2198,0.99052 -0.3924,1.68521 -0.133,0.53491 -0.2916,1.08292 -0.3595,1.63082 -0.051,0.4101 -0.058,0.82441 -0.088,1.23663 0.1988,0.82376 0.3976,1.64751 0.5965,2.47126 3.0106,6.3981 12.0589,2.14035 9.0482,-4.25775 v 0 c 0.118,0.65191 0.2359,1.30384 0.3539,1.95575 -0.024,0.12988 -0.036,0.26275 -0.073,0.38965 -0.025,0.0851 0.017,-0.17696 0.037,-0.26345 0.06,-0.26929 0.1368,-0.53477 0.2029,-0.80274 0.1794,-0.72766 0.3463,-1.41724 0.4944,-2.15382 0.092,-0.45712 0.1707,-0.91675 0.2561,-1.37512 0.1456,-1.1063 0.2239,-1.6316 0.3333,-2.76037 0.053,-0.5438 0.1362,-1.08683 0.1382,-1.63316 0,-0.83826 0.1502,-1.71929 -0.123,-2.5118 -0.3993,-1.158 -0.7692,-2.58593 -1.8398,-3.18101 -1.5964,-0.88725 -3.6086,-0.56657 -5.4128,-0.84989 -0.6444,0.4464 -1.3405,0.82603 -1.933,1.33916 -0.3377,0.2925 -0.596,0.67199 -0.8293,1.05307 -1.0262,1.67621 -1.3106,3.26943 -0.9933,5.20226 0.079,0.48009 0.2483,0.94081 0.3724,1.41121 0.172,0.4359 0.3296,0.87778 0.5159,1.30776 0.1784,0.41172 0.384,0.81113 0.5776,1.21592 1.0918,2.2828 2.2487,4.54578 3.0299,6.96063 0.219,0.71292 0.4645,1.41827 0.6571,2.13878 0.7972,2.98183 1.2044,6.08283 1.3844,9.16049 0.02,0.34433 0.015,0.68966 0.022,1.03449 1.5344,-3.25001 0.4736,-1.44605 9.3783,-0.41481 0.3192,0.037 0.1111,0.63873 0.2367,0.93453 0.081,0.18982 -0.068,-0.40677 -0.099,-0.61063 -0.123,-0.80936 -0.182,-1.2804 -0.2948,-2.12074 -0.4161,-3.51261 -0.6787,-7.05977 -0.3833,-10.59431 0.1371,-1.40388 0.1402,-1.64979 0.3628,-3.05472 0.4287,-2.70571 1.1014,-5.36292 1.7379,-8.02482 0.1797,-0.8102 0.3788,-1.61636 0.5392,-2.43062 0.3108,-1.57826 0.5,-2.75569 0.5817,-4.34155 0.022,-0.43105 0.034,-2.4784 -0.1189,-2.971 -0.3141,-1.01097 -0.8127,-1.95506 -1.219,-2.93259 -1.937,-0.52427 -3.855,-1.12496 -5.8112,-1.57279 -0.035,-0.008 -0.4697,0.19839 -0.5757,0.2431 -0.5907,0.24918 -1.1833,0.4939 -1.773,0.7456 -1.0199,0.44894 -2.0357,0.90569 -3.0416,1.38546 -0.9125,0.43519 -1.6579,0.78153 -2.5219,1.31498 -0.389,0.24013 -0.7545,0.51617 -1.1317,0.77425 -0.8283,0.70051 -1.0069,0.80693 -1.7561,1.63182 -0.9371,1.03171 -1.6917,2.22461 -2.4597,3.38087 -1.0033,1.66859 -2.0231,3.33465 -2.8205,5.11484 -0.3729,0.89594 -0.5781,1.30297 -0.8233,2.26661 -0.3984,1.56565 -0.4198,3.18709 -0.1316,4.77226 0.1198,0.46197 0.2034,0.93488 0.3594,1.38586 0.5003,1.44561 1.4323,2.6419 2.4056,3.79416 0.9051,1.14175 1.7898,2.30076 2.5569,3.54134 1.283,2.03935 2.5174,4.10882 3.5832,6.272 0.6607,1.29312 1.3462,2.5758 1.8469,3.94306 0.3032,0.7901 0.594,1.57472 0.8284,2.38858 0.4041,1.40374 -0.049,-0.0886 0.4049,1.57628 0.08,0.29186 0.174,0.57952 0.2609,0.86926 0.2713,0.72779 0.3702,1.05765 0.7308,1.75697 0.3759,0.72903 0.8404,1.39374 1.2991,2.07028 0.2713,0.40264 -0.041,-0.0792 0.2641,0.47776 0.014,0.0259 0.031,0.0802 0.057,0.0677 0.032,-0.0148 0.016,-0.0684 0.019,-0.10326 0.07,-0.75645 -0.011,-0.38473 0.1098,-0.85236 0.3496,-0.89519 0.9895,-1.5544 1.8538,-2.03406 0.4434,-0.24612 0.9593,-0.32925 1.439,-0.49387 0.2127,-0.0167 0.4248,-0.0443 0.6381,-0.0498 0.477,-0.0124 0.9331,0.17333 1.3543,0.3797 0.4196,0.25869 0.868,0.53922 1.1337,0.96795 -0.2967,-0.43047 -0.6128,-0.84672 -0.9005,-1.28328 -0.4004,-0.64444 -0.8268,-1.27188 -1.3383,-1.83478 -0.3986,-0.47926 -0.7647,-0.98356 -1.1436,-1.47833 -0.611,-0.77047 -1.2525,-1.51601 -1.8485,-2.29833 -0.7711,-1.03714 -1.3612,-2.19985 -2.0974,-3.26184 -0.5111,-0.79668 -1.0139,-1.59856 -1.5251,-2.39519 -0.3944,-0.61846 -0.7979,-1.23227 -1.2437,-1.81528 -0.434,-0.64413 -0.7791,-1.34292 -1.1879,-2.00271 -0.8358,-1.40324 -1.6269,-2.77267 -2.9141,-3.83058 -0.8178,-0.66154 -1.6715,-1.27675 -2.472,-1.95999 0.02,0.0338 0.099,0.10086 0.059,0.10134 -0.047,0 -0.067,-0.0648 -0.097,-0.10086 -0.2508,-0.30472 -0.4689,-0.63973 -0.6626,-0.98277 -0.2947,-0.53618 -0.5321,-1.10336 -0.7088,-1.68939 -1.9426,-6.799 -11.5578,-4.0518 -9.6153,2.7472 z" /><path
         style="fill:#000000;fill-opacity:1;stroke:none;stroke-width:20;stroke-dasharray:none;paint-order:markers stroke fill"
         id="path9992"
         d="m 2400.4785,578.96474 c -1.3206,0.22391 -2.6103,0.60147 -3.8844,1.00912 -0.698,0.22651 -1.3711,0.51683 -2.0626,0.75916 -0.4653,0.17995 -0.9277,0.3668 -1.3794,0.57865 -0.2889,0.13547 -0.3629,0.21524 -0.2712,0.12128 0.04,-0.022 0.1661,-0.0742 0.1209,-0.0661 -0.3303,0.0597 -0.6465,0.18124 -0.9697,0.27178 -0.5256,0.14721 -1.0519,0.29102 -1.5767,0.44066 -1.1325,0.35124 -2.2375,0.78516 -3.3343,1.23389 -0.9603,0.3724 -1.8646,0.86923 -2.7509,1.38964 -0.672,0.42077 -1.3324,0.85619 -1.9712,1.32588 -0.5999,0.46498 -1.177,0.95951 -1.7439,1.46421 -0.1017,0.0921 -0.2026,0.18502 -0.3051,0.27628 -0.2767,0.24664 -0.5553,0.49156 -0.828,0.74268 -0.3528,0.3248 -0.2933,0.47617 -0.3523,0.31374 -0.8634,0.69874 -1.6284,1.50458 -2.3568,2.3399 -0.6476,0.79351 -1.2038,1.65383 -1.7947,2.48878 -0.6245,0.93805 -1.1644,1.92817 -1.7155,2.91007 -0.6956,1.23745 -1.198,2.56246 -1.6437,3.90604 -0.3041,0.85551 -0.5526,1.73014 -0.784,2.60776 -0.2059,0.65106 -0.3688,1.31419 -0.5428,1.97419 -0.2621,0.94779 -0.4101,1.91924 -0.5315,2.8933 -0.092,0.8877 -0.2368,1.76858 -0.3354,2.65586 -0.086,0.62627 -0.1419,1.25579 -0.1864,1.88619 -0.4882,7.05419 9.488,7.74456 9.9762,0.69037 v 0 c 0.033,-0.49776 0.083,-0.99393 0.1509,-1.4883 0.091,-0.84934 0.2399,-1.69114 0.3221,-2.54138 0.06,-0.52152 0.1308,-1.04079 0.2738,-1.54726 0.1781,-0.67611 0.3489,-1.35342 0.5553,-2.0217 0.1628,-0.66953 0.3739,-1.32895 0.5995,-1.97948 0.2394,-0.73425 0.49,-1.46394 0.8668,-2.14181 0.3809,-0.67889 0.7581,-1.35953 1.1578,-2.02768 0.4018,-0.56804 0.7981,-1.14044 1.1886,-1.71575 0.3528,-0.41187 0.7185,-0.81523 1.1414,-1.1571 0.6098,-0.51887 1.1964,-1.06283 1.7937,-1.5962 0.3414,-0.30404 0.7534,-0.66162 1.0179,-0.87617 0.3628,-0.26675 0.7354,-0.51655 1.1139,-0.76097 0.4799,-0.28236 0.9592,-0.57002 1.4849,-0.76144 0.7516,-0.31081 1.5109,-0.60473 2.2805,-0.86818 1.1569,-0.33123 2.3257,-0.62346 3.467,-1.00703 0.3914,-0.16761 0.7844,-0.34965 1.1716,-0.51806 0.6148,-0.21579 1.2168,-0.45947 1.8291,-0.68045 0.8033,-0.26448 1.6204,-0.5075 2.4526,-0.66045 6.9748,-1.16248 5.3308,-11.02641 -1.644,-9.86393 z" /></g></g></svg>
