<?xml version="1.0" encoding="UTF-8" standalone="no"?>
<!-- Created with Inkscape (http://www.inkscape.org/) -->

<svg
   width="3840mm"
   height="2160mm"
   viewBox="0 0 3840 2160"
   version="1.1"
   id="svg5"
   inkscape:version="1.2.2 (732a01da63, 2022-12-09)"
   sodipodi:docname="organMod.svg"
   xml:space="preserve"
   inkscape:export-filename="..\..\player\organMod.png"
   inkscape:export-xdpi="96.096664"
   inkscape:export-ydpi="96.096664"
   xmlns:inkscape="http://www.inkscape.org/namespaces/inkscape"
   xmlns:sodipodi="http://sodipodi.sourceforge.net/DTD/sodipodi-0.dtd"
   xmlns="http://www.w3.org/2000/svg"
   xmlns:svg="http://www.w3.org/2000/svg"><sodipodi:namedview
     id="namedview7"
     pagecolor="#ffffff"
     bordercolor="#000000"
     borderopacity="0.25"
     inkscape:showpageshadow="2"
     inkscape:pageopacity="0.0"
     inkscape:pagecheckerboard="0"
     inkscape:deskcolor="#d1d1d1"
     inkscape:document-units="mm"
     showgrid="false"
     inkscape:zoom="0.25638077"
     inkscape:cx="5743.4104"
     inkscape:cy="3362.1866"
     inkscape:window-width="1920"
     inkscape:window-height="986"
     inkscape:window-x="-11"
     inkscape:window-y="-11"
     inkscape:window-maximized="1"
     inkscape:current-layer="layer1" /><defs
     id="defs2" /><g
     inkscape:label="Layer 1"
     inkscape:groupmode="layer"
     id="layer1"><path
       style="fill:#999999;stroke-width:20;paint-order:markers stroke fill;fill-opacity:1"
       id="path7076"
       d="m 1494.7844,944.76434 c 0.3419,0.28125 0.7082,0.53522 1.0257,0.84381 2.0557,1.99826 3.7712,4.50313 5.59,6.693 3.026,3.64332 4.6467,5.47106 7.8157,9.12681 7.5344,8.66401 15.2525,17.15235 23.232,25.40772 4.731,5.01804 9.2578,10.22252 13.9613,15.26562 3.271,3.6246 6.3335,7.4254 9.3426,11.2706 3.7546,4.5282 6.8011,9.535 9.5732,14.7034 3.3633,7.0722 8.3011,13.1529 13.0476,19.3144 1.281,1.8082 2.8008,3.4795 3.8477,5.4481 0.7156,1.3455 -0.07,0.028 0.3648,1.0384 0.2947,0.6855 0.6263,1.3546 0.9395,2.0319 3.3805,5.579 3.9474,7.6166 14.0198,9.469 3.2417,0.5961 6.5241,-1.2607 9.5471,-2.5743 2.4293,-1.0556 7.0058,-6.1981 8.9379,-8.3064 3.5697,-4.001 6.6313,-8.4282 10.2691,-12.3698 1.9669,-2.1312 3.4506,-3.4673 5.5707,-5.4774 7.9311,-6.8677 17.1198,-12.0632 25.8469,-17.828 6.1647,-4.2294 12.36,-8.4042 18.7682,-12.2561 2.266,-1.2895 4.8115,-1.9302 7.145,-3.0703 0.8205,-0.4009 1.6104,-0.8616 2.4156,-1.2924 0.8997,-0.6456 1.9255,-1.1444 2.6991,-1.9368 1.4912,-1.52737 3.0147,-3.09611 4.0417,-4.96749 3.7082,-6.75692 2.519,-14.6749 -1.4544,-21.01045 -1.6618,-2.64962 -4.0094,-4.80137 -6.014,-7.20207 -10.7067,-10.54258 -22.4845,-19.90889 -33.7545,-29.82642 -6.5681,-5.77993 -8.4203,-7.6214 -14.5236,-13.3854 -6.0672,-6.05761 -13.0212,-11.23641 -18.5412,-17.82483 -3.3458,-3.6691 -6.2305,-7.70299 -8.9578,-11.84002 -2.2658,-3.85998 -4.9899,-7.60751 -8.9881,-9.86351 -4.1896,-2.364 -5.6882,-2.39821 -9.9395,-3.28364 -4.8309,-0.64553 -9.8182,-0.88508 -14.6523,-0.0724 -5.1661,0.86842 -7.4751,1.79269 -12.5994,3.38542 -12.5699,4.17965 -24.82,9.2015 -36.7158,15.01532 -6.2522,3.18638 -12.3186,6.73399 -18.3182,10.37053 -2.4643,1.62711 -5.2524,2.85776 -7.5519,4.73419 -1.0243,0.8359 -2.3139,1.49116 -2.9521,2.64909 -1.7846,3.23805 -2.7814,6.85149 -4.1721,10.27726 3.0141,4.8034 5.3123,10.13881 9.0422,14.41024 1.1163,1.27831 3.213,1.10905 4.8615,1.51207 3.2612,0.79727 7.7776,0.61103 11.1155,0.55028 2.4388,-0.14232 5.9177,-0.27887 8.2786,-0.71467 8.6048,-1.58832 16.904,-4.75549 25.1353,-7.62881 8.4719,-2.78318 16.7961,-6.02753 25.3601,-8.52614 17.0398,-4.77817 11.2249,2.579 -2.2541,-29.71991 -2.0198,1.39343 -4.1166,2.68161 -6.0596,4.18029 -2.6956,2.07909 -8.6064,7.65026 -10.9698,9.80365 -5.6409,5.13948 -11.3996,10.1336 -17.1689,15.12742 -5.4422,5.25037 -12.3577,9.93233 -16.8128,16.13961 -0.7769,1.08249 -1.4215,2.25407 -2.1323,3.38109 -0.5616,1.50275 -1.5064,2.91391 -1.6848,4.50821 -0.9129,8.15885 0.37,14.20759 9.3901,18.58467 3.812,1.84981 8.4815,0.88689 12.7014,0.50464 3.2617,-0.29543 16.0331,-4.89749 18.7068,-5.81427 12.7622,-4.52871 24.9512,-10.46639 37.5106,-15.49421 3.3543,-1.57006 7.0406,-2.66658 10.1369,-4.76033 1.1313,-0.76507 2.6767,-1.25026 3.2561,-2.48708 2.14,-4.5688 3.1031,-9.60131 4.6547,-14.40196 -2.9195,-3.69247 -5.3676,-7.81246 -8.7585,-11.07739 -1.6555,-1.59401 -6.2488,-1.57245 -8.5447,-2.16805 -0.1601,-0.0415 -0.2773,-0.1842 -0.4305,-0.24664 -0.6071,-0.24758 -1.2301,-0.45422 -1.8452,-0.68133 -1.7932,-0.67662 -3.5196,-1.52292 -5.2212,-2.40155 -0.3157,-0.16303 -1.2297,-0.7113 -0.9321,-0.51718 0.4514,0.29443 1.1814,0.32351 1.3943,0.81862 2.0886,4.85783 3.5832,9.95008 5.3748,14.92512 -2.6856,-7.21056 -5.6797,10.97992 -10.824,11.00405 -0.9045,0.004 -1.8043,-0.26072 -2.7064,-0.19534 -0.1326,0.01 -0.1358,0.29175 -0.052,0.39526 0.6753,0.83852 1.4951,1.54956 2.2427,2.32436 10.6046,11.14793 20.3358,23.08707 30.5263,34.60922 3.5971,3.84305 7.1277,7.83767 11.2663,11.12417 0.1279,0.10152 2.5748,1.88955 3.2699,2.39773 -0.3925,-0.49493 0.9889,0.95547 0.9258,0.92427 -0.1395,-0.069 -0.2098,-0.25204 -0.3579,-0.29993 -0.067,-0.0217 0.024,0.14277 0.06,0.20368 0.3292,0.55507 0.688,1.09204 1.0319,1.63803 0.03,0.5324 0.6991,0.86852 0.8018,1.39491 0.021,0.10756 -0.148,-0.16608 -0.1935,-0.26577 -0.1956,-0.42884 -0.4028,-0.85752 -0.5262,-1.31239 -0.1812,-0.66791 -0.3437,-1.34953 -0.3832,-2.04046 -0.05,-0.87837 0.077,-1.7579 0.1158,-2.63684 1.3735,-3.94198 1.3567,-3.32018 -0.7722,-1.5376 -1.4929,1.25013 -1.8216,1.38377 -3.5074,2.47086 -6.6545,3.8566 -13.0557,8.08752 -19.2112,12.69463 -4.1491,3.34949 -8.4774,6.44129 -12.877,9.44479 -0.3137,-1.1643 -0.8299,0.9993 -1.2572,0.76 -0.089,-0.05 0.1595,-0.1279 0.2488,-0.1765 0.2006,-0.1092 0.4066,-0.2094 0.6182,-0.2954 0.5827,-0.2367 0.7944,-0.2649 1.3939,-0.4093 0.3166,-0.1 -0.4815,-0.057 -0.3622,-0.035 7.6363,1.3889 7.5717,2.0988 3.9163,-1.924 -1.4165,-1.559 -2.834,-3.1171 -4.251,-4.6756 -5.0385,-5.31532 -9.8771,-10.81379 -14.7976,-16.23706 -3.3673,-3.71142 -6.8191,-7.33425 -10.1103,-11.11327 -1.7439,-2.07116 -3.5519,-4.10824 -5.0634,-6.36217 -0.1933,-0.28818 -0.3708,-0.58732 -0.5342,-0.89344 -0.052,-0.097 -0.1778,-0.3972 -0.1089,-0.31147 0.1673,0.20812 0.2742,0.45834 0.4113,0.68752 1.3983,3.97391 0.9581,6.16238 -1.8679,9.38657 0.1397,-0.0172 0.2846,-0.01 0.4191,-0.0514 2.2902,-0.70654 4.4969,-1.71545 6.7586,-2.50705 0.6191,-0.2167 4.2739,-1.38722 4.8175,-1.56197 1.9537,-0.57267 3.9377,-1.23214 5.9761,-1.44952 0.042,-0.005 -0.06,0.0758 -0.1019,0.0746 -1.365,-0.0403 -2.7281,-0.13229 -4.0921,-0.19844 -2.2023,-1.23931 -5.2349,-1.59575 -6.6068,-3.71795 -2.3505,-3.63585 -2.7178,-8.22701 -3.8215,-12.41338 -0.1169,-0.4432 0.5663,-1.62321 0.1897,-1.36186 -0.7322,0.50835 -0.9606,1.50217 -1.4578,2.24208 -1.2332,1.83515 -2.5116,3.63948 -3.7638,5.46174 -3.7061,5.55903 -9.1294,12.57493 -7.848,19.73855 0.5646,3.15624 2.4132,5.94133 3.6198,8.91202 2.6127,1.83189 4.8341,4.41938 7.838,5.49571 12.4541,4.46246 26.0171,-7.04506 35.0726,-14.10534 3.7295,-2.90287 7.2795,-6.02294 10.8504,-9.11545 0.6371,-0.55178 2.7118,-1.91825 1.9108,-1.65605 -2.6946,0.88204 -5.145,4.73432 -7.7253,3.55933 -6.5404,-2.9782 -10.7039,-9.5922 -16.0559,-14.3883 -0.037,-0.6813 0.5497,-2.21369 -0.1111,-2.04388 -0.9653,0.24807 -1.0832,1.67362 -1.6468,2.49565 -2.3779,3.46827 -5.0685,6.71179 -7.4213,10.19411 -0.7763,1.14887 -1.4702,2.35122 -2.2053,3.52684 -0.6067,1.31882 -1.5211,2.5359 -1.82,3.95642 -1.559,7.40717 -1.7106,11.44225 3.5487,17.75587 1.7384,2.08696 4.3448,3.33801 6.8158,4.46577 3.6672,1.67372 7.4011,1.13392 11.2313,1.03352 2.063,-0.42794 4.1473,-0.76378 6.189,-1.28374 4.736,-1.20605 9.3364,-3.02635 13.9185,-4.70606 2.4229,-0.88821 3.1173,-1.17549 1.5664,-0.5525 -6.0942,-5.28937 -12.8003,-9.94683 -18.2826,-15.86812 -0.7332,-0.79185 0.7611,-2.09635 0.6556,-3.17035 -0.043,-0.43537 -0.5982,0.63977 -0.8706,0.98214 -0.7528,0.94628 -1.4408,1.94328 -2.2032,2.88181 -1.4373,1.76916 -3.4854,3.986 -5.0065,5.66695 -2.8526,3.22697 -6.867,7.39516 -7.5222,11.84347 -1.1854,8.0476 -0.1195,12.5295 6.4246,17.9793 1.9739,1.6438 4.7798,1.8836 7.1697,2.8255 5.2429,0.49 9.0381,-0.4701 13.5992,-2.9417 1.7395,-0.9426 3.269,-2.2317 4.9843,-3.2159 2.2881,-1.3999 1.0824,-0.6466 3.6119,-2.2687 17.8381,-11.48064 1.6021,-36.70749 -16.236,-25.22693 v 0 c -1.9054,1.23243 -0.9413,0.62558 -2.8924,1.82001 -0.7386,0.45495 -1.4858,0.8962 -2.2157,1.36483 -0.5004,0.32128 -0.9943,0.65352 -1.4746,1.00425 -0.076,0.0556 -0.2821,0.22225 -0.1886,0.21045 0.3983,-0.0503 0.7635,-0.2559 1.1575,-0.33279 2.0719,-0.40434 2.317,-0.16341 4.8331,0.0368 1.7867,0.83611 3.9395,1.13974 5.3602,2.50832 5.3951,5.19727 5.735,8.25093 4.5062,15.16866 -0.1769,0.9962 -1.0014,1.759 -1.5406,2.6151 -0.1205,0.1914 0.1883,-0.4113 0.2824,-0.617 0.8062,-0.8937 1.6123,-1.7873 2.4185,-2.6809 3.2894,-3.6568 6.5827,-7.30506 9.431,-11.32655 1.0511,-1.48391 2.2299,-2.90351 3.0298,-4.53651 1.0285,-2.09953 3.6959,-4.6263 2.4176,-6.58382 -4.5722,-7.00211 -12.051,-11.59795 -18.0766,-17.39696 -5.8875,1.58946 -11.4923,4.06252 -17.3104,5.8865 0.4784,1.06762 -0.3653,-0.64185 2.2163,1.04323 1.6005,1.04471 3.4324,1.96178 4.5108,3.53983 1.8048,2.64097 5.07,10.49716 1.3946,13.70672 1.7681,-3.12198 4.1313,-5.84259 6.2124,-8.75655 1.769,-2.477 5.5938,-7.98123 6.7679,-10.69657 1.1511,-2.66243 1.8014,-5.51445 2.7021,-8.2717 -5.2795,-5.8607 -8.8918,-13.84554 -15.8387,-17.58217 -3.7879,-2.03745 -8.9263,2.81228 -11.8569,5.35062 -3.2015,2.77291 -6.3742,5.58244 -9.7195,8.1838 -3.9074,3.08155 -4.3823,3.55327 -8.3985,6.34883 -0.913,0.63551 -2.033,1.01656 -2.789,1.83264 -0.1855,0.20026 0.4422,0.34189 0.7045,0.41772 1.6149,0.46705 3.4314,0.38058 4.898,1.20246 1.9941,1.11749 3.4722,2.9741 5.2084,4.46114 0.763,2.37728 1.9977,4.65216 2.2892,7.13184 0.1858,1.58086 -0.4764,3.15526 -0.8999,4.68961 -0.1104,0.39983 -0.8624,1.41435 -0.6821,1.04081 1.1292,-2.33796 2.8931,-4.3466 4.2164,-6.56248 0.3488,-0.50758 4.0604,-5.90611 4.2771,-6.23393 0.733,-1.10879 1.5143,-2.19157 2.1435,-3.36238 1.0398,-1.93463 2.8666,-3.74203 2.855,-5.93831 -0.086,-16.40017 -0.5641,-14.0304 -10.8027,-20.65099 -2.0157,-0.24014 -4.0197,-0.61891 -6.0472,-0.72038 -0.9019,-0.0452 -1.7998,0.15862 -2.6942,0.28279 -3.3905,0.47066 -6.7033,1.44232 -9.9677,2.43779 -6.4374,2.07269 -12.9186,4.20227 -18.9136,7.36941 -1.473,1.09368 -3.1077,1.99798 -4.419,3.28105 -4.5052,4.40814 -7.2758,10.8794 -6.8152,17.24027 0.132,1.82235 0.6172,3.60175 0.9258,5.40261 0.4459,1.10262 0.8354,2.22975 1.3378,3.30782 2.3273,4.99459 6.2262,9.09529 9.6579,13.31859 8.2598,9.41492 16.9106,18.49122 25.3004,27.79042 1.4912,1.6381 7.2032,8.0007 8.9621,9.6006 1.5968,1.4525 3.1197,3.1034 5.0697,4.0293 5.4924,2.6079 7.8364,3.0367 12.633,2.5782 4.6132,-0.7405 8.3327,-2.1281 12.1497,-4.874 4.7617,-3.2608 9.4633,-6.5962 13.9602,-10.2212 5.7657,-4.3473 11.8596,-8.1759 18.0604,-11.8722 1.3229,-0.9212 2.684,-1.79 3.9688,-2.7637 3.2702,-2.4783 6.3002,-5.3624 8.8158,-8.61023 0.6058,-0.78226 1.2004,-1.58657 1.6469,-2.46956 0.8486,-1.67812 1.4824,-3.45652 2.2235,-5.18478 0.2117,-1.6319 0.5997,-3.25051 0.6348,-4.89569 0.1013,-4.74692 -1.8742,-9.14633 -4.3679,-13.05142 -0.6651,-1.02867 -1.2484,-2.11058 -1.9484,-3.11581 -2.0233,-2.9056 -4.4963,-5.42785 -7.3635,-7.50504 -0.5263,-0.38269 -1.0892,-0.71371 -1.6134,-1.09935 -3.0722,-2.25977 -5.4451,-5.39048 -8.123,-8.05672 -10.7357,-12.12826 -20.9424,-24.74052 -32.2223,-36.37531 -3.3762,-3.12804 -6.4492,-6.50007 -10.733,-8.46839 -4.6338,-2.12902 -7.6122,-2.73737 -12.357,-2.40326 -1.3574,0.0956 -2.9429,-0.14142 -4.0247,0.68416 -4.2286,3.2271 -7.6296,7.41413 -11.4443,11.12121 1.7195,5.26714 2.8724,10.75436 5.1586,15.80139 0.4876,1.07624 1.9138,1.38903 2.9136,2.01856 3.2203,2.02758 6.91,3.30755 10.3813,4.80226 3.1442,1.09628 6.2788,2.21131 9.6054,2.61306 0.083,0.0101 -0.1478,-0.08 -0.2245,-0.11412 -0.6777,-0.30186 -1.5655,-0.32208 -2.0383,-0.89379 -2.6711,-3.23014 -4.8108,-6.86512 -7.2162,-10.29769 1.6158,-4.44965 2.8854,-9.04076 4.8473,-13.34902 0.2886,-0.6337 1.1634,-0.76562 1.7508,-1.13961 0.1381,-0.0879 -0.2584,0.20383 -0.4027,0.28122 -0.4449,0.23874 -0.9023,0.45397 -1.361,0.66498 -1.4699,0.67617 -3.0672,1.33088 -4.5509,1.95474 -12.0924,4.86836 -23.8645,10.516 -36.1229,14.9764 -2.7378,0.95313 -5.459,1.95514 -8.2133,2.8594 -1.9326,0.63455 -5.41,-0.23124 -5.8444,1.75601 -0.3831,1.75258 3.7271,0.63318 5.0596,1.83426 7.1558,6.44972 8.1196,8.09611 7.0033,16.26809 -0.1261,0.92345 -0.778,1.69391 -1.167,2.54087 -0.2134,0.2409 -0.3348,0.82463 -0.64,0.72268 -0.2938,-0.0981 0.3381,-0.52117 0.5398,-0.75612 0.4685,-0.5456 0.9551,-1.07688 1.4675,-1.58142 1.6646,-1.63912 4.8175,-4.41841 6.4112,-5.8284 1.5427,-1.3648 3.0939,-2.71986 4.6408,-4.07979 3.0524,-2.64237 8.8387,-7.6354 11.7738,-10.24427 9.2422,-8.21503 2.8401,-2.64869 11.2393,-10.2492 1.2576,-1.13799 2.6162,-2.16693 3.8152,-3.36653 0.1578,-0.15779 0.1273,-0.4277 0.1909,-0.64153 -2.8134,-9.62232 -5.5575,-19.26516 -8.4403,-28.86692 -0.021,-0.0693 -0.1351,0.0537 -0.2057,0.0694 -0.5786,0.12835 -1.1613,0.23741 -1.7406,0.3624 -2.7874,0.60132 -5.5609,1.26637 -8.2935,2.08592 -9.0281,2.67936 -17.85,5.98646 -26.7754,8.98157 -4.3404,1.51765 -7.1616,2.53648 -11.4955,3.93047 -1.5227,0.48977 -3.0583,0.93834 -4.5867,1.40999 -0.8671,0.2676 -1.7122,0.61873 -2.5997,0.80777 -1.4681,0.31276 -4.0434,0.42741 -5.5478,0.52512 -2.0909,0.0699 -1.5207,0.0852 -3.4055,0.0331 -0.293,-0.008 -0.5856,-0.0435 -0.8786,-0.0349 -0.028,0 -0.083,0.0508 -0.057,0.0624 0.8048,0.3625 1.9493,0.28416 2.4464,1.01361 2.9326,4.30382 5.0406,9.11511 7.5609,13.67266 -5.1152,11.44286 -1.3214,6.85052 -5.7474,10.49288 -0.2306,0.18981 0.4789,-0.35772 0.728,-0.52263 1.7357,-1.14922 3.5567,-2.1634 5.3353,-3.24255 5.1949,-3.19342 10.5024,-6.22673 15.9073,-9.04851 10.546,-5.18682 21.4331,-9.60692 32.5754,-13.35522 4.3366,-1.41271 8.2942,-3.03776 12.9122,-2.37876 0.1575,-0.0132 0.5885,0.0678 0.4727,-0.0397 -2.7885,-2.5881 -0.8267,0.27697 -3.0042,-2.43366 -0.2406,-0.29953 -0.8293,-1.28908 -0.5827,-0.99449 0.9135,1.09098 1.3213,2.5567 2.2802,3.60868 3.4037,5.15133 7.0196,10.16482 11.1542,14.76319 2.2793,2.65079 2.7226,3.26364 5.2442,5.78501 4.9958,4.99536 10.536,9.43182 15.5491,14.40993 6.6655,6.28483 8.3772,7.99766 15.5504,14.31057 10.3568,9.11463 21.1286,17.77005 31.1339,27.27891 0.6551,0.52054 1.1425,1.71434 1.9652,1.56165 0.6259,-0.11618 -0.1383,-1.27122 -0.1048,-1.90693 0.06,-1.14234 0.074,-2.30913 0.3842,-3.41014 0.8715,-3.09213 2.9156,-5.79966 5.7383,-7.34713 0.1216,-0.0387 0.4706,-0.18746 0.3649,-0.116 -0.7184,0.48536 -1.602,0.66366 -2.4073,0.98505 -2.222,0.88678 -3.0254,1.19549 -5.1401,2.26316 -0.9809,0.49522 -1.9416,1.02952 -2.9123,1.54427 -6.7719,4.07482 -13.3407,8.45841 -19.8507,12.93903 -10.202,6.75036 -20.9437,12.84336 -30.0098,21.14636 -3.2248,3.0907 -4.5123,4.2213 -7.5349,7.5377 -3.4863,3.8252 -6.5307,8.0141 -9.8927,11.9437 -0.4303,0.4955 -0.8379,1.0118 -1.2909,1.4867 -0.5386,0.5647 -1.4471,0.8848 -1.6812,1.6293 -0.1603,0.5094 0.8893,-0.6391 1.4088,-0.763 2.4317,-0.5796 4.9774,-2.0216 7.3802,-1.332 8.8487,2.5393 8.919,3.1897 11.0709,7.5905 -1.0756,-2.0418 1.6589,3.1812 -1.4244,-3.2035 -1.8749,-3.8824 -4.4271,-7.3568 -7.06,-10.7505 -3.7627,-4.8837 -7.8011,-9.6129 -10.4128,-15.2549 -3.6014,-6.6408 -7.5438,-13.0883 -12.348,-18.94327 -3.5477,-4.53305 -7.1861,-8.99644 -11.0492,-13.26497 -4.8323,-5.15786 -9.4408,-10.5215 -14.3169,-15.63954 -7.6077,-7.8586 -14.949,-15.95385 -22.1299,-24.20472 -2.7888,-3.21464 -4.5593,-5.21756 -7.2241,-8.42301 -3.8936,-4.68347 -7.6179,-9.63308 -12.6684,-13.16302 -17.3786,-12.16499 -34.5824,12.41197 -17.2039,24.57696 z" /><path
       style="fill:#000000;stroke-width:20;paint-order:markers stroke fill"
       id="path6834"
       d="m 1506.7559,931.63505 c 18.1269,-9.00083 36.4421,-17.62101 54.8555,-26.01915 11.8667,-5.30111 23.8581,-10.32968 35.9516,-15.0913 1.1736,-0.46866 3.6879,-1.47931 5.0102,-1.98655 0.4572,-0.17539 1.8647,-0.56364 1.3779,-0.50988 -2.1195,0.23403 -4.1991,0.74999 -6.3096,1.05442 -0.4201,0.0606 -1.483,-0.32938 -1.2727,0.0393 0.552,0.96779 1.691,1.4511 2.5365,2.17664 1.7608,1.58041 3.549,3.1309 5.2825,4.74123 2.4122,2.24092 4.7769,4.53253 7.1534,6.8113 10.9364,10.4866 21.6664,21.15757 32.2312,32.0176 7.0587,7.32399 14.1534,14.65861 20.5062,22.61783 2.504,3.13719 4.3528,5.82993 6.6873,9.10669 6.599,9.55964 13.4744,18.92808 20.6825,28.03713 2.2163,2.99122 4.7294,5.72819 7.2309,8.47589 0.2141,0.2352 0.8086,0.9797 0.6291,0.7172 -0.5383,-0.7875 -1.1389,-1.5307 -1.7084,-2.296 -0.5227,-2.79578 -1.8172,-5.55414 -1.568,-8.38749 0.216,-2.45483 1.8828,-4.55596 2.9038,-6.79884 0.2407,-0.52885 1.456,-1.55427 0.8769,-1.50653 -1.7074,0.1407 -3.2057,1.20978 -4.8026,1.83009 -7.7161,2.99731 -6.2012,2.42523 -14.0524,5.72238 -10.0869,4.39087 -19.4881,10.15929 -28.398,16.57769 -4.2017,3.0267 -6.822,5.1344 -10.8431,8.2783 -6.5729,5.4082 -13.1672,10.7903 -19.7385,16.2004 -3.6786,2.9773 -7.5108,5.7358 -11.3907,8.4396 -17.4039,12.1288 -0.2512,36.7415 17.1526,24.6127 v 0 c 4.5374,-3.1622 9.0077,-6.4085 13.307,-9.8924 6.3801,-5.2536 12.7873,-10.4742 19.1604,-15.7364 10.1207,-7.9311 20.5004,-15.6891 32.3804,-20.826 9.3159,-3.9239 3.8844,-1.6973 13.3265,-5.4282 8.2418,-3.2565 17.7326,-6.321 19.7099,-16.54278 0.6463,-3.34148 -0.8518,-6.75336 -1.2777,-10.13005 -0.8582,-1.33363 -1.6634,-2.7029 -2.5746,-4.00095 -0.2012,-0.2866 -1.9009,-2.09807 -2.1695,-2.38744 -1.2831,-1.38237 -1.171,-1.22788 -2.5597,-2.93685 -0.7008,-0.86244 -1.3837,-1.73924 -2.0756,-2.60884 -6.9077,-8.71567 -13.4695,-17.7005 -19.7897,-26.85056 -3.1379,-4.38271 -4.7051,-6.69541 -8.0906,-10.92028 -6.8367,-8.53186 -14.4297,-16.427 -22.0127,-24.28705 -10.8385,-11.13753 -21.8362,-22.09477 -33.0641,-32.84083 -2.6199,-2.50748 -5.2197,-5.03695 -7.8912,-7.48945 -2.2395,-2.05594 -4.5594,-4.02246 -6.8391,-6.03369 -3.6581,-2.711 -8.5179,-6.99754 -13.293,-7.82259 -8.3741,-1.44688 -10.9052,0.25805 -17.4182,2.85057 -12.5827,4.95805 -25.0618,10.18698 -37.4073,15.70947 -18.4915,8.43569 -36.8898,17.08415 -55.0919,26.12819 -19.223,8.97075 -6.5365,36.15626 12.6866,27.18551 z" /><path
       style="fill:#999999;fill-opacity:1;stroke-width:20;paint-order:markers stroke fill"
       id="path8076"
       d="m 2113.5202,341.68828 c -2.5085,2.56032 -4.4637,5.41441 -5.8878,8.75533 -2.0357,4.77573 -2.7232,10.0756 -3.6545,15.13784 -0.2964,1.4015 -0.5744,2.80702 -0.8893,4.2045 -0.6514,2.8915 -1.4021,5.75995 -2.0588,8.65026 -0.9972,4.38962 -1.8364,8.80999 -2.7861,13.20961 -1.9176,9.50116 -3.9296,18.9823 -5.7381,28.50515 -2.0376,9.13617 -2.7077,18.48845 -4.2713,27.70095 -0.9675,4.91337 -1.6626,9.87796 -2.6926,14.77957 -0.4783,2.27635 -1.0415,4.53401 -1.5624,6.80096 -0.9593,4.28593 -2.2211,8.48098 -3.5862,12.65084 -1.1929,3.64344 -0.5517,1.93188 -1.5902,4.54549 -0.075,0.14888 -1.0706,2.13841 -1.0769,2.15008 -0.058,0.10718 -0.2682,0.40637 -0.21,0.29927 1.5079,-2.77606 2.86,-3.61915 5.3576,-5.49759 1.6619,-0.65413 3.2315,-1.62655 4.9856,-1.96236 2.1247,-0.40677 4.3454,-0.54846 6.4858,-0.23373 4.1594,0.61158 8.4885,2.88697 11.1284,6.21802 3.6974,4.6654 3.4189,5.94736 4.155,10.79482 -0.01,0.5784 -0.2553,1.20911 -0.015,1.73524 0.1298,0.28408 0.3073,-0.5456 0.4266,-0.83423 0.4041,-0.97748 0.7503,-1.97805 1.1423,-2.96048 1.5921,-3.99092 3.2726,-7.9479 4.8893,-11.92903 0.5509,-1.42483 1.1154,-2.84445 1.6526,-4.2745 1.3165,-3.50449 2.0546,-5.52582 3.0516,-9.23862 1.2477,-4.64595 2.0668,-9.39905 3.0003,-14.1139 1.9383,-9.5391 3.0403,-19.21502 4.1987,-28.87091 0.8024,-6.29047 1.39,-12.61602 2.3402,-18.88752 0.41,-2.70672 0.7598,-4.32456 1.286,-6.98471 0.3669,-1.61454 0.7845,-3.56092 1.2385,-5.17266 0.1311,-0.46527 0.2783,-0.92686 0.4538,-1.37723 0.049,-0.1251 0.2591,-0.46731 0.2154,-0.34034 -0.5661,1.64645 -0.5863,1.57726 -1.2973,2.84438 0.2388,-0.0485 2.4675,-2.12778 1.7303,-0.86804 3.8276,-0.3206 7.7147,-0.81561 11.5461,-0.26205 4.0542,1.10585 7.7752,3.34219 11.4717,5.26182 2.2822,1.18515 4.5627,2.37332 6.8441,3.55997 11.2697,6.05803 22.6993,11.81248 33.883,18.02863 12.0314,6.89218 24.4193,13.12082 36.5167,19.89156 3.429,2.03406 6.9539,4.0213 9.9635,6.67152 1.2509,1.10152 1.9574,2.07238 3.0343,3.36828 0.8562,1.03037 1.7137,2.05978 2.5705,3.08967 3.5625,4.50078 7.2015,9.00327 9.7043,14.19834 0.2544,0.83661 0.8502,1.63092 0.9465,2.52357 0.01,0.0894 -0.06,-0.38246 -0.2225,-0.25853 0.011,-0.32099 0.046,2.52833 0.042,1.89614 0,-0.60119 -0.016,-1.20229 -0.024,-1.80343 0.1369,-0.80568 0.4108,-1.59977 0.4109,-2.41702 0,-0.23741 -0.2927,0.37587 -0.4107,0.58193 -0.5113,0.8931 -0.9834,1.80805 -1.4752,2.71211 -2.7108,4.87201 -5.0989,9.93891 -7.9965,14.70705 -1.6193,2.66467 -2.1561,3.23225 -4.0503,5.7174 -5.9908,7.40783 -12.8394,14.04917 -19.3881,20.95088 -3.712,4.17763 -7.7787,8.00909 -12.0029,11.66106 1.2159,-0.77523 -1.5677,1.14874 -1.3277,0.89114 0.6454,-0.69276 2.2268,-1.1426 3.1094,-1.4519 0.2349,-0.0639 0.504,-0.0539 0.7048,-0.19167 0.1093,-0.0751 -0.2649,-0.013 -0.3973,-0.0196 0.7255,-0.0632 1.5317,0.14882 2.1766,-0.1896 0.2979,-0.15632 -0.582,-0.33812 -0.8824,-0.48962 -0.9351,-0.47175 -1.8945,-0.89511 -2.8231,-1.37969 -1.5405,-0.80399 -3.0551,-1.6568 -4.5827,-2.48521 -10.0522,-5.49177 -19.8447,-11.45077 -30.0181,-16.72153 -6.7937,-3.51981 -8.8063,-4.37893 -15.6074,-7.55677 -10.7761,-4.90672 -21.9115,-8.94458 -32.9577,-13.185 -4.1607,-1.68087 -8.4073,-3.15545 -12.5457,-4.89239 -0.7183,-0.30149 -1.6672,-1.61986 -2.1192,-0.98536 -0.451,0.63326 1.9508,0.24471 2.1038,1.00698 1.8913,9.42454 2.5559,19.05423 3.8339,28.58135 -2.59,1.84989 -5.378,3.45001 -7.77,5.54969 -0.3538,0.31059 0.9413,0.0269 1.4121,0.0313 1.3036,0.0119 2.6079,-0.0214 3.9109,0.018 3.6695,0.11081 7.8449,0.38605 11.4579,0.86032 2.1594,0.28345 4.2982,0.70601 6.4474,1.05902 2.218,0.4445 4.4411,0.86453 6.6542,1.3335 4.4642,0.94607 6.7313,1.44439 10.9368,2.71203 3.4385,1.03643 6.7811,2.36569 10.1528,3.59468 1.1139,0.37741 2.2208,0.7764 3.3418,1.13216 5.3842,1.70857 2.0581,0.54961 7.3916,2.09864 4.0088,1.16428 7.9586,2.57292 11.9129,3.90525 5.1785,1.69691 10.3431,3.46157 15.64,4.76129 0.9644,0.23664 1.9242,0.50734 2.9061,0.65582 1.6427,0.24844 3.3038,0.35541 4.9557,0.53313 20.2315,-5.13664 15.3214,-0.0863 15.345,-34.6647 0,-1.72693 -2.5333,-2.34817 -3.8257,-3.49361 -2.5663,-2.27446 -6.0977,-5.21285 -8.756,-7.17399 -2.4631,-1.81726 -5.0137,-3.51303 -7.5206,-5.26955 -13.0207,-8.79856 -26.3617,-17.11396 -39.9959,-24.92716 -4.42,-2.53294 -12.0046,-6.71777 -16.6878,-9.31265 -1.5274,-0.84717 -6.6093,-3.51774 -8.5504,-4.99321 -0.098,-0.0744 -0.1098,-0.42431 0,-0.36862 2.3529,1.19708 3.3622,3.92562 4.3883,6.19408 0.1957,-0.5316 0.4263,-1.05161 0.5871,-1.59478 0.4505,-1.52127 0.8206,-3.06527 1.2453,-4.59393 2.1166,-7.61656 4.2989,-15.21635 6.5811,-22.78483 0.459,-1.32271 0.9073,-2.64919 1.3769,-3.96814 0.651,-1.82846 1.5407,-4.29983 2.3489,-6.14471 0.1956,-0.44664 0.4135,-0.88445 0.6562,-1.30739 0.055,-0.0964 0.2348,-0.35076 0.2315,-0.23971 -0.01,0.19577 -0.1602,0.35745 -0.2404,0.53618 -1.669,2.38524 -6.2851,5.91314 -9.4782,6.0325 -3.3666,0.12583 -6.7875,-0.11478 -10.0687,-0.87916 -2.9525,-0.68784 -4.7289,-2.94164 -6.6777,-4.92935 -0.181,-0.0262 -0.512,-0.25892 -0.5429,-0.0787 -0.1525,0.88929 0.087,1.80303 0.092,2.70529 0.01,1.44753 0.021,2.89663 -0.052,4.34236 -0.25,4.9974 -1.1789,9.83721 -2.1247,14.73674 -1.091,4.54874 -0.7234,3.3039 -1.911,7.3062 -0.268,0.90303 -0.6296,1.78152 -0.8226,2.70346 -0.4049,1.93337 -1.4074,3.92057 -0.9677,5.84632 1.3067,5.72288 1.1422,13.34923 6.0766,16.52897 7.111,4.58229 16.7502,2.38492 25.1252,3.5774 2.6435,-1.72765 5.4001,-3.29335 7.9303,-5.18295 3.8987,-2.91168 10.0977,-8.8783 13.4951,-12.24814 5.8919,-5.8442 11.4907,-11.98407 17.2402,-17.96688 3.3843,-3.3673 6.7707,-6.74727 10.2884,-9.97733 0.3177,-0.2917 1.3847,-1.01777 1.0022,-0.81851 -2.3382,1.2179 -4.354,4.60872 -6.889,3.88495 -8.7403,-2.49544 -16.0745,-8.49064 -24.1117,-12.73593 -0.1353,0.77311 -0.3196,1.53924 -0.4059,2.31934 -0.99,8.94802 -0.041,4.09668 -1.4586,13.55265 -0.8547,5.702 -2.1387,11.26423 -3.6371,16.82332 -2.13,6.5532 -0.141,0.5503 -2.1227,6.24588 -0.3245,0.93266 -0.8018,1.83015 -0.9479,2.80678 -1.5204,10.16072 -2.4905,18.18296 9.4965,25.56973 5.2809,3.25419 12.3569,1.10212 18.5354,1.6532 2.6832,-1.17788 5.4187,-2.24322 8.0497,-3.53359 2.0947,-1.02738 4.0899,-2.24692 6.1114,-3.41186 5.4133,-3.11962 10.6816,-6.48864 16.0423,-9.69677 0.019,-0.0116 4.1519,-2.46922 4.3634,-2.64969 15.196,-12.97088 8.1809,-10.29192 -21.0701,-34.19099 -1.4609,-1.19359 -3.2734,1.88711 -4.8137,2.97624 -2.6673,1.88595 -5.197,3.95946 -7.7955,5.93921 -7.8967,6.4648 -15.8055,12.92177 -23.5819,19.5318 -0.2881,0.24488 -9.8255,8.20547 -10.153,9.61925 -1.8008,7.77105 -1.517,15.88161 -2.2755,23.82242 10.2269,1.99983 20.2632,5.74268 30.6807,5.99951 3.2927,0.0812 5.6676,-3.35767 8.5032,-5.03354 3.1135,-1.8401 6.2253,-3.68311 9.3439,-5.51437 5.9092,-3.46977 10.3743,-6.27536 16.4721,-9.10622 1.5104,-0.70119 3.1033,-1.20893 4.655,-1.8134 1.6175,3.15828 6.2517,11.95782 -10.6685,-0.46183 -5.0979,-3.74192 -8.1052,-9.8044 -11.1617,-15.34046 -0.7807,-1.41388 1.4076,-4.02378 0.017,-4.8451 -1.2,-0.70874 -1.4538,2.37821 -2.1873,3.56325 -1.1301,1.8257 -2.269,3.64598 -3.4035,5.46896 -6.961,11.03339 -18.2455,24.61988 -5.6478,38.71672 10.7255,12.00182 20.3611,7.13168 30.7554,3.85313 8.2388,-3.31605 15.8357,-7.9243 23.6767,-12.03746 -2.8356,1.13607 3.4933,-1.69328 2.5807,-1.35848 -12.0343,4.41447 -5.8474,6.50208 -28.0589,-13.5935 -2.8697,-2.59635 1.8103,-10.98912 -1.1385,-5.21755 -2.9291,6.75812 -7.9167,12.1381 -12.5536,17.72695 -5.0096,6.48443 -13.1945,18.59724 -2.6833,26.26812 8.6067,6.281 21.2919,2.70336 31.9116,1.83917 0.9654,-0.0785 5.6876,-8.46045 6.1544,-9.25343 5.1114,-8.79845 9.4428,-18.03865 12.8303,-27.63578 0.6081,-1.72278 1.1437,-3.4703 1.7155,-5.20544 1.797,-6.06054 2.9034,-12.32702 2.1756,-18.67328 -0.2706,-2.35903 -0.663,-4.73716 -1.471,-6.96995 -2.6982,-7.45588 -4.3104,-8.58157 -8.9798,-14.48027 -6.6017,-6.83231 -13.8322,-13.07997 -21.9352,-18.07666 -4.2148,-2.59905 -6.0687,-3.38026 -10.3438,-5.45515 -4.8579,-2.42072 -10.1428,-3.50933 -15.3705,-4.75281 -27.5471,-6.4153 -36.6197,32.54224 -9.0726,38.95751 v 0 c 2.4241,0.55811 4.9163,0.88789 7.2113,1.89331 2.2075,1.02237 3.5213,1.57355 5.6728,2.82749 4.9306,2.87385 9.188,6.66229 13.3644,10.51695 0.3536,0.27205 0.7836,1.1657 1.061,0.81616 0.3878,-0.4889 -0.2228,-1.23349 -0.2349,-1.85743 -0.01,-0.28035 0.066,-0.56626 0.1828,-0.8211 0.055,-0.12103 0.2659,-0.37788 0.3098,-0.25218 0.133,0.38097 0.085,0.81137 0.025,1.21026 -0.1398,0.91736 -0.4152,1.8089 -0.6228,2.71335 -2.8232,8.7852 -6.4081,17.29955 -11.1536,25.23644 -0.4281,0.76956 -0.9938,1.47732 -1.2841,2.30867 -0.087,0.2485 0.3775,-0.48755 0.6395,-0.46312 10.177,0.948 22.5257,-3.05891 30.4784,3.36182 5.564,4.4922 0.3572,14.30141 0.2557,21.45183 0,0.31605 -0.291,0.61053 -0.5711,0.75703 -0.2685,0.14046 0.355,-0.49125 0.5325,-0.73687 2.7282,-3.29607 5.584,-6.49356 8.1328,-9.93521 3.9388,-5.3187 7.3716,-10.97595 10.1408,-16.99262 1.7,-3.99153 6.8579,-14.55447 4.008,-18.08163 -14.9274,-18.4749 -19.48,-20.49055 -32.5117,-13.48353 -6.2879,3.30729 -12.4037,6.94504 -18.8715,9.90343 -5.2335,5.00181 5.4762,-5.70627 14.0458,8.41772 3.3728,5.55897 0.9205,12.97466 1.6185,19.43925 0.045,0.42148 0.1433,-0.85214 0.3483,-1.22322 0.6394,-1.15745 6.3724,-10.10822 6.6691,-10.57389 1.3941,-2.25353 7.2501,-11.5139 8.12,-13.80027 1.5397,-4.04735 4.4745,-8.31805 3.4482,-12.52503 -1.7827,-7.30795 -5.5751,-14.63804 -11.2726,-19.54958 -6.4165,-5.53141 -15.3208,-2.26269 -21.9973,-0.62932 -2.6341,1.10377 -5.3204,2.09037 -7.9022,3.31127 -6.8929,3.2594 -11.8407,6.31862 -18.442,10.19532 -3.1903,1.87354 -6.3819,3.74499 -9.5584,5.64187 -2.0281,1.21113 -7.8533,2.14982 -6.0552,3.68191 6.2389,5.31619 14.9114,6.81151 22.3671,10.21728 -1.0077,7.49324 -2.2681,14.95682 -3.0229,22.47974 -0.049,0.49271 0.526,-0.85277 0.8871,-1.19168 1.692,-1.5884 3.4833,-3.06798 5.2516,-4.57094 7.4164,-6.30354 14.9594,-12.46055 22.4771,-18.64209 1.5631,-1.2518 3.0967,-2.54135 4.6893,-3.75539 0.6443,-0.49115 2.4794,-0.69165 2.0166,-1.35652 -27.1971,-39.06716 -33.2579,-20.29841 -18.6159,-35.21512 1.0543,-1.07418 -6.2764,4.57812 -3.86,2.34313 -3.5939,2.15405 -7.1539,4.36173 -10.739,6.53018 -1.4719,0.89029 -2.9423,1.78337 -4.425,2.65554 -1.3271,0.78065 -2.7072,1.47278 -4.004,2.30275 -0.3572,0.22865 -0.6252,0.57335 -0.9377,0.86003 4.4044,1.0315 9.7412,0.19481 13.2131,3.09446 12.5616,10.49099 7.9737,11.56131 7.1182,21.05969 -0.07,0.7778 0.4903,-1.48299 0.7455,-2.22107 2.342,-6.77317 0.5875,-1.38385 3.0849,-9.3604 0.5498,-2.10336 1.1503,-4.19412 1.6493,-6.3101 1.9158,-8.12271 3.2678,-16.36834 4.0895,-24.67282 0.2928,-2.95857 0.6032,-5.92092 0.6826,-8.89288 0.088,-3.30534 -0.1199,-6.61197 -0.1798,-9.91794 -8.4095,-6.38392 -15.5165,-15.01028 -25.2284,-19.1517 -3.1342,-1.33649 -6.2327,2.78262 -9.19,4.47479 -1.0064,0.57587 -1.767,1.50257 -2.6231,2.28465 -3.9468,3.6059 -7.7125,7.41717 -11.5006,11.18619 -5.3942,5.6161 -10.6558,11.37002 -16.1572,16.88198 -1.7262,1.7295 -3.4779,3.43405 -5.2599,5.106 -1.3172,1.2359 -2.7728,2.32466 -4.0358,3.61585 -0.2027,0.2072 -0.1998,0.54417 -0.2997,0.81624 6.6744,1.93096 14.707,1.31921 20.0233,5.79282 3.9561,3.32901 3.2986,9.81516 4.5009,14.84386 0.1384,0.57915 -0.7079,2.27402 -0.5455,1.70111 1.3324,-4.70318 2.8957,-9.34823 3.7557,-14.17579 0.4133,-2.21906 0.8834,-4.42825 1.2399,-6.65715 1.2828,-8.02167 2.0375,-16.17528 1.3853,-24.30262 -0.2257,-2.81382 -0.5151,-5.63946 -1.1488,-8.39028 -0.6535,-2.83729 -1.7982,-5.5385 -2.6974,-8.30776 -3.5382,-5.28452 -5.8497,-10.60601 -12.3711,-13.03308 -4.0566,-1.50971 -8.4843,-2.04131 -12.812,-2.11291 -2.21,-0.0366 -4.396,0.82759 -6.3832,1.79528 -5.7925,2.82069 -6.2752,3.8418 -9.6646,7.64513 -0.7595,1.0845 -1.5742,2.13233 -2.2783,3.25353 -3.921,6.24298 -5.9377,13.45404 -8.3945,20.3322 -1.7494,5.81213 -3.4311,11.64061 -5.0851,17.48065 -0.8309,2.93378 -3.026,10.55267 -3.6467,13.50232 -0.5562,2.64276 -0.9014,5.32551 -1.3521,7.98827 0.1447,3.21625 -0.2468,6.50211 0.4342,9.64875 1.4425,6.66512 3.9992,10.92983 8.5931,15.61126 4.4594,4.54433 10.258,7.36224 15.7203,10.43662 4.275,2.36832 11.903,6.57845 15.9305,8.8822 12.72,7.27591 25.1615,15.0282 37.3139,23.21758 4.9374,3.39186 5.2537,3.43932 9.4499,6.86009 1.064,0.86736 2.0782,1.7942 3.129,2.67748 0.4183,0.35171 1.1606,1.56096 1.2781,1.02717 7.5547,-34.32638 -5.4582,-27.9295 15.7967,-32.75801 0.5419,0.12012 1.1261,0.11837 1.6256,0.36039 0.4846,0.23479 -1.0554,-0.21524 -1.5796,-0.33812 -4.3668,-1.02343 -8.585,-2.58521 -12.8553,-3.93488 -4.7585,-1.60128 -9.5124,-3.2312 -14.3339,-4.63611 -3.3256,-0.96903 -1.9383,-0.42354 -4.9656,-1.36612 -0.8099,-0.25217 -1.609,-0.53777 -2.4135,-0.80666 -4.4097,-1.60713 -8.7872,-3.27422 -13.2959,-4.59555 -7.1954,-2.1087 -14.5421,-3.6081 -21.9089,-4.97395 -2.9941,-0.45885 -5.9759,-1.00664 -8.9822,-1.37655 -4.6104,-0.5673 -11.0634,-0.99484 -15.7577,-1.02756 -2.236,-0.0156 -11.6335,0.10451 -14.0336,1.04452 -4.4904,1.75868 -8.5303,4.50143 -12.7954,6.75214 0.7832,10.08284 0.153,20.3767 2.3495,30.24851 0.4356,1.9581 3.3356,2.2387 5.0936,3.20469 1.2537,0.68884 2.6005,1.19396 3.9195,1.74768 4.2574,1.78726 8.6268,3.30337 12.9071,5.03309 10.1778,3.90469 20.44,7.61611 30.3864,12.09376 5.8673,2.7287 7.7739,3.54491 13.6289,6.5668 10.2171,5.2733 20.014,11.31035 30.125,16.7786 5.044,2.64531 8.2111,4.52633 13.5137,6.4861 2.0082,0.74221 4.0473,1.44648 6.1484,1.85751 2.4715,0.4835 4.9968,0.67053 7.511,0.81465 1.6074,0.0921 4.7987,-0.49339 6.304,-0.72586 1.1414,-0.31088 2.3052,-0.54922 3.4244,-0.93268 4.5289,-1.5517 8.5186,-4.25751 12.1482,-7.32512 5.1669,-4.51294 10.1917,-9.197 14.7715,-14.31306 7.6488,-8.06746 15.6565,-15.83105 22.4835,-24.63482 1.2216,-1.67069 2.4963,-3.30386 3.665,-5.01203 4.3814,-6.40429 7.7275,-13.43266 11.4461,-20.22216 1.0449,-1.93918 3.2892,-5.96945 4.0266,-7.93768 0.746,-1.99168 1.4065,-4.02773 1.8351,-6.11093 0.6391,-3.10589 0.4488,-6.22755 0.2698,-9.35003 -0.2892,-2.7768 -0.2638,-3.32949 -0.8777,-6.05401 -0.8468,-3.75766 -2.336,-7.33385 -3.9754,-10.80471 -1.5223,-2.96807 -1.8806,-3.80262 -3.6879,-6.7293 -3.2866,-5.32226 -7.1668,-10.2534 -11.0574,-15.13904 -2.5149,-2.9959 -4.8069,-5.84681 -7.594,-8.62248 -5.6029,-5.57993 -12.3194,-9.83916 -19.1367,-13.75971 -12.1346,-6.7805 -24.5424,-13.0488 -36.6136,-19.94559 -11.5067,-6.39021 -23.2535,-12.32897 -34.8522,-18.54975 -7.8306,-4.07238 -15.813,-8.71947 -24.2843,-11.32956 -3.7098,-1.143 -5.1094,-1.23743 -8.8739,-1.84142 -1.4982,-0.11375 -2.9935,-0.27451 -4.4946,-0.34121 -7.4996,-0.33324 -15.0592,0.4535 -22.3528,2.1849 -1.5936,0.54687 -3.2187,1.00923 -4.7807,1.64061 -5.5241,2.23274 -10.2348,6.04692 -14.4688,10.15058 -1.1887,1.40586 -2.5175,2.70436 -3.566,4.21764 -4.0919,5.90571 -5.6393,12.58356 -7.0941,19.47836 -0.7741,3.98928 -1.0565,5.2311 -1.6763,9.35474 -0.97,6.45448 -1.5887,12.96112 -2.4096,19.43468 -1.0374,8.64896 -1.9912,17.3215 -3.7219,25.86712 -0.6974,3.52298 -1.2749,7.10012 -2.1346,10.58915 -0.6333,2.57025 -1.0191,3.51616 -1.9969,6.13143 -0.4538,1.21362 -0.931,2.41835 -1.3966,3.62752 -1.7047,4.2001 -3.4738,8.37541 -5.1497,12.58707 -0.6783,1.70482 -2.5936,6.71394 -2.9463,8.06829 -0.5485,2.10545 -0.8244,4.27259 -1.2366,6.40889 0.4766,7.33978 -0.2789,9.35517 4.5269,16.12067 3.0349,4.27246 8.3801,7.32943 13.4615,8.27601 2.6247,0.48892 5.3711,0.43238 8.0096,0.0243 2.298,-0.35539 4.3947,-1.52162 6.5921,-2.28243 1.4567,-0.98793 3.019,-1.83586 4.3703,-2.96373 4.6318,-3.86596 7.2482,-9.32048 9.5499,-14.74555 2.7353,-7.33528 5.0139,-14.83603 6.7764,-22.46653 0.3961,-1.72469 1.5249,-6.60525 1.8576,-8.20005 1.0902,-5.22692 1.8471,-10.5161 2.8679,-15.75596 0.2603,-1.58105 0.5433,-3.15852 0.7809,-4.74311 1.1039,-7.36211 1.6486,-14.81362 3.3345,-22.08358 1.744,-9.20374 3.6984,-18.36441 5.5444,-27.54786 0.8865,-4.13322 1.6693,-8.28805 2.6056,-12.41044 0.3376,-1.4863 1.9994,-8.37904 2.2806,-9.64337 0.3842,-1.72752 0.723,-3.46478 1.0846,-5.19719 0.2473,-1.34945 0.4982,-2.6983 0.7421,-4.04841 0.1345,-0.74407 0.4118,-1.47815 0.393,-2.23404 -0.01,-0.22873 -0.3025,0.34446 -0.4352,0.53086 -0.7124,1.00026 -1.2721,2.11145 -2.2153,2.91679 20,-20.00001 -8.2843,-48.28426 -28.2843,-28.28427 z" /><path
       style="fill:#000000;stroke-width:20;paint-order:markers stroke fill"
       id="path6848"
       d="m 2108.4979,336.30187 c -2.0067,0.8246 -4.6306,1.77329 -6.2868,3.14179 -2.1431,1.77068 -4.2183,3.67091 -5.9415,5.85232 -3.2136,4.06818 -6.0832,10.92155 -8.1067,15.50715 -1.3284,3.01054 -2.5852,6.05216 -3.8778,9.07825 -7.0002,16.51397 -12.9149,33.45154 -18.3466,50.53621 -3.4444,10.62517 -5.8691,21.53235 -8.5556,32.36058 -1.85,6.63657 -3.8932,13.22012 -6.0037,19.77832 -1.5685,4.74559 -2.9564,9.54532 -4.6866,14.23601 -2.0556,5.53294 -2.9881,10.6821 -1.5547,16.59922 0.8557,3.53237 2.3519,5.59083 4.1366,8.50609 2.162,3.02149 4.6514,5.68031 7.6548,7.88125 2.5319,1.85547 5.3646,3.19831 8.1737,4.56112 6.6806,2.80064 13.2979,5.7208 19.8684,8.77211 8.2494,3.90765 16.5577,7.70485 25.0827,10.97481 5.5992,2.12902 11.2753,4.04002 16.8536,6.22292 4.8803,1.81477 9.7536,3.64696 14.6409,5.44316 4.5424,1.79615 9.2653,3.06705 13.9618,4.38383 5.5373,1.89847 11.0646,3.83384 16.612,5.709 7.7145,2.59416 15.4487,5.12032 23.1994,7.60378 6.3706,2.19649 12.796,4.2174 19.2445,6.17019 3.8731,0.98774 7.478,3.07625 11.5118,3.45905 1.7173,0.16299 3.4499,0.009 5.1749,0.0138 1.4805,-0.33292 3.0146,-0.4821 4.4414,-0.99875 7.0033,-2.536 11.5668,-7.45969 16.4959,-12.8066 3.7482,-4.0659 7.9878,-9.13011 11.556,-13.31825 8.8037,-10.47155 18.122,-20.49026 27.0939,-30.81465 2.8908,-3.40206 6.1726,-6.45792 9.5506,-9.36961 1.998,-1.84176 4.1966,-3.43426 6.3048,-5.144 16.3876,-13.47023 -2.6622,-36.64577 -19.0498,-23.17554 v 0 c -2.2488,1.92373 -4.7301,3.57685 -6.8767,5.6261 -4.4483,3.85487 -8.7505,7.90975 -12.5776,12.38983 -9.0318,10.40267 -18.4288,20.48364 -27.2866,31.03859 -5.1622,6.06613 -5.4612,6.49425 -10.5586,12.20454 -1.1267,1.26214 -2.3052,2.47798 -3.4154,3.7547 -0.2567,0.2953 -0.8519,0.60431 -0.6809,0.95631 0.3411,0.7021 2.0479,-1.18729 2.331,-0.22344 0.7886,0.0883 1.5863,0.11657 2.3658,0.26482 0.3611,0.0687 1.3905,0.47374 1.0346,0.38185 -2.9637,-0.76494 -5.7225,-2.28063 -8.7203,-2.95101 -6.2964,-1.90661 -12.5683,-3.88448 -18.7889,-6.02821 -7.5989,-2.43276 -15.1811,-4.90847 -22.7432,-7.45366 -6.0465,-2.04377 -12.0575,-4.19457 -18.1228,-6.17569 -3.9366,-1.10283 -7.907,-2.13418 -11.7091,-3.65546 -4.6946,-1.72518 -9.3754,-3.48577 -14.0648,-5.2247 -5.6572,-2.21035 -11.4028,-4.17216 -17.0865,-6.31287 -7.8816,-2.98445 -15.5151,-6.5795 -23.1416,-10.15522 -6.4378,-2.98807 -12.9045,-5.89772 -19.4739,-8.58549 -0.8789,-0.41965 -1.7371,-0.88482 -2.6337,-1.265 -0.095,-0.0401 -0.2133,-0.12438 -0.3,-0.0693 -0.065,0.0415 0.121,0.26305 0.053,0.22629 -1.4677,-0.79097 -0.059,-0.35139 -0.7515,-0.5516 -0.1271,-0.14449 -0.3624,-0.62494 -0.3812,-0.43347 -0.05,0.51181 0.2576,1.00418 0.2747,1.51818 0.2484,7.48814 -0.2944,2.6828 -0.2046,2.36374 0.1906,-0.67712 0.4514,-1.33252 0.677,-1.99877 1.8465,-5.07132 3.412,-10.22988 5.0741,-15.36314 2.3193,-7.21283 4.5711,-14.45241 6.5673,-21.76176 2.5162,-10.20011 4.8041,-20.47002 8.0254,-30.4817 5.1326,-16.17384 10.7285,-32.20688 17.346,-47.84108 10.1494,-23.79649 -1.6586,3.8033 6.3602,-14.72642 0.3243,-0.74946 1.0874,-1.46002 0.9385,-2.26295 -0.04,-0.21395 -1.8623,0.7775 -1.1906,0.0931 20.1246,-6.70822 10.6378,-35.16871 -9.4869,-28.46051 z" /><path
       style="fill:#000000;fill-opacity:1;stroke-width:20;paint-order:markers stroke fill"
       id="path7995"
       d="m 1472.1555,930.75701 c 0.148,0.16862 0.3055,0.32938 0.444,0.50591 0.4546,0.57927 0.8599,1.19567 1.2908,1.79284 0.9268,1.28423 1.8061,2.59154 2.6694,3.91882 0.5514,0.87561 1.1178,1.74776 1.5797,2.67579 0.082,0.1651 0.1513,0.33641 0.2269,0.50461 0.1814,0.37446 0.3545,0.75303 0.5441,1.12334 0.2885,0.56325 0.5934,1.11792 0.8901,1.67685 1.7755,2.99622 3.8367,5.80721 5.8403,8.65148 0.5776,0.9512 0.4913,0.90702 1.2624,2.28984 0.9464,1.68491 1.9761,3.32319 3.0716,4.91476 0.5001,0.68199 0.6008,0.83611 1.1245,1.48588 0.1761,0.21841 0.3606,0.42989 0.5385,0.64682 0.01,0.01 0.026,0.0412 0.018,0.032 -0.056,-0.0651 -0.2102,-0.2723 -0.1636,-0.19991 0.098,0.15195 0.2119,0.29289 0.3178,0.43934 -0.8788,-1.36978 -0.3776,-0.48202 -0.1273,0.1143 0.5026,1.46756 1.2259,2.85387 1.9637,4.20065 -0.01,-0.008 -0.028,-0.0358 -0.027,-0.0241 0.053,0.39629 0.5624,1.41173 0.6052,1.51249 0.4746,1.11625 0.3907,0.87188 1.1387,2.33749 0.5398,1.06923 1.3464,1.99048 1.8162,3.09538 1.0248,2.0446 2.1456,4.03723 3.3455,5.98345 0.3321,0.4872 0.6538,0.98166 0.9963,1.46156 0.5683,0.79623 1.1704,1.56786 1.7419,2.36183 0.778,1.0809 1.535,2.17617 2.3082,3.26051 1.1932,1.63163 2.2014,3.38542 3.3228,5.06521 1.0428,1.56181 1.4569,2.12246 2.5419,3.65138 2.0902,3.07496 4.3592,6.02207 6.7374,8.87827 1.2028,1.4946 2.3106,3.0574 3.3964,4.6372 1.4017,2.0972 3.0735,3.994 4.675,5.9377 1.6389,1.9587 3.4282,3.7839 5.15,5.6691 1.7503,2.0481 3.4155,4.1666 5.146,6.2319 1.4953,1.8288 3.1138,3.5495 4.6789,5.3172 1.4727,1.7193 3.0543,3.3387 4.6062,4.9853 1.3414,1.5926 2.9759,2.9325 4.2273,4.602 1.2241,1.6455 2.4472,3.2874 3.7452,4.8761 1.0688,1.313 2.2508,2.5261 3.3807,3.7847 1.6973,1.8903 -0.4084,-0.3277 1.938,2.187 0.4599,0.4929 0.9336,0.9726 1.4004,1.4589 1.2457,1.3104 2.6299,2.4749 3.955,3.701 1.0103,0.9348 1.986,1.9031 3.0033,2.8317 1.4081,1.2141 2.8839,2.3409 4.2157,3.6412 1.0793,1.028 2.2814,1.9155 3.5173,2.7443 0.6777,0.4544 1.398,0.8555 2.0524,1.3436 0.8352,0.6336 1.6517,1.2904 2.4625,1.9547 1.8526,1.4463 3.7536,2.8308 5.7032,4.1428 1.4032,0.9568 2.8121,1.9012 4.2701,2.7741 1.0521,0.6438 2.2078,1.2016 2.9021,1.5423 0.8622,0.3073 1.6956,0.7125 2.5866,0.9219 3.3163,0.7795 5.6171,0.4266 9.0783,-0.9414 2.3131,-0.9142 4.246,-3.0858 5.5828,-5.1044 0.5437,-0.8326 1.0021,-1.7175 1.4361,-2.611 0.1401,-0.2885 -0.2875,0.5739 -0.448,0.8515 -0.1611,0.2261 -0.3371,0.4423 -0.4833,0.6783 -0.1093,0.1766 0.269,-0.3166 0.4072,-0.4717 0.05,-0.056 0.2029,-0.2229 0.1518,-0.1675 -0.6883,0.7457 -0.1481,0.2058 -1.3896,1.2913 -0.4655,-0.03 -0.6222,0.4735 -0.9682,0.6512 -0.1824,0.094 -0.7552,0.3065 -0.5537,0.2684 0.2772,-0.053 0.5253,-0.2059 0.7865,-0.3124 0.6608,-0.2697 0.8796,-0.3706 1.5289,-0.6553 1.6635,-0.7119 3.2621,-1.5617 4.8936,-2.3412 1.6781,-0.7434 3.3858,-1.4076 5.0531,-2.1763 1.4796,-0.6868 2.8787,-1.5418 4.3611,-2.2212 2.1899,-1.0653 4.284,-2.2965 6.3108,-3.6423 14.5976,-9.9705 0.4973,-30.6146 -14.1003,-20.6442 v 0 c -0.9055,0.7477 -2.0565,1.1581 -3.0542,1.7606 -1.4126,0.6905 -2.8044,1.4215 -4.2006,2.1447 -0.5833,0.3118 -1.2186,0.5341 -1.8299,0.7838 -1.1349,0.4636 -2.2671,0.933 -3.3728,1.4639 -1.3814,0.6667 -2.7417,1.3789 -4.1461,1.9967 -1.8316,0.8159 -3.7523,1.4479 -5.3729,2.6764 -0.561,0.4583 -1.1408,0.8946 -1.6831,1.3749 -1.1575,1.0251 -2.0678,2.321 -3.0316,3.5139 -0.8956,1.3787 -0.5058,0.7251 -1.3749,2.3128 -0.015,0.027 0.062,-0.1069 0.048,-0.079 -0.065,0.1281 -0.3057,0.4799 -0.2016,0.3809 0.15,-0.1427 0.1893,-0.3721 0.3236,-0.5302 -0.405,0.7424 0.4601,-0.8487 1.5698,-1.7713 0.9033,-0.751 1.8273,-1.555 2.9315,-1.9556 3.1136,-1.1293 5.1402,-1.4607 8.0517,-0.716 0.6947,0.1776 1.3388,0.514 2.0082,0.7711 -0.2941,-0.1109 -0.02,-0.01 -0.7886,-0.3873 -0.1837,-0.074 0.3426,0.1996 0.5229,0.2812 0.2909,0.1317 -1.1325,-0.5845 -0.8343,-0.4704 -1.1214,-0.6024 -2.0971,-1.4413 -3.1853,-2.0962 -1.2729,-0.7859 -2.4205,-1.7668 -3.6443,-2.6249 -1.3221,-1.0833 -2.6577,-2.1518 -4.0456,-3.1502 -1.2368,-0.8444 -0.8175,-0.5773 -1.7858,-1.1876 -0.1455,-0.092 -0.2923,-0.1816 -0.4376,-0.2737 -0.1094,-0.069 -0.203,-0.1717 -0.3266,-0.2107 -0.063,-0.02 0.195,0.157 0.1298,0.1486 -0.082,-0.011 -0.1285,-0.1045 -0.1927,-0.1567 -1.4935,-1.4052 -3.029,-2.7631 -4.6388,-4.0338 -1.0603,-0.9512 -2.0645,-1.9586 -3.109,-2.9271 -1.2591,-1.1674 -0.6326,-0.5282 -1.7921,-1.6153 -0.2946,-0.2763 -0.5812,-0.5611 -0.8718,-0.8417 -1.861,-1.9068 -3.5826,-3.9438 -5.3717,-5.9175 -1.2409,-1.503 -2.3515,-3.1023 -3.552,-4.6377 -0.349,-0.4285 -0.6897,-0.864 -1.047,-1.2857 -1.4307,-1.6881 -3.0483,-3.2017 -4.5172,-4.8545 -1.3794,-1.4609 -2.7871,-2.8958 -4.0929,-4.4243 -1.4115,-1.5876 -2.8672,-3.1358 -4.2149,-4.7792 -1.9588,-2.3375 -3.8264,-4.7507 -5.8484,-7.0346 -1.4372,-1.5736 -2.924,-3.10257 -4.3196,-4.71227 -1.1395,-1.38158 -2.3491,-2.7168 -3.3617,-4.19489 -1.5234,-2.21671 -3.0956,-4.39857 -4.7963,-6.48444 -1.9713,-2.36172 -3.8426,-4.80602 -5.5651,-7.35666 -0.7863,-1.1036 -1.2294,-1.70854 -1.9773,-2.82268 -1.3217,-1.96868 -2.5019,-4.03156 -3.918,-5.93704 -1.4088,-1.96929 -2.7819,-3.96459 -4.2466,-5.8929 -0.7587,-1.10141 -1.3087,-2.33574 -1.9681,-3.49687 -0.7131,-1.45018 -1.472,-2.88374 -2.3749,-4.22706 -0.011,-0.0161 0.01,0.0383 0.01,0.0574 0.04,0.10491 0.1701,0.41457 0.1189,0.31477 -0.6109,-1.19128 -0.9236,-2.52161 -1.5959,-3.68683 -0.1669,-0.31502 -0.331,-0.63154 -0.5007,-0.94504 -0.033,-0.0617 -0.043,-0.15536 -0.1086,-0.18039 -0.054,-0.0206 0.043,0.10795 0.063,0.16282 0.023,0.0651 0.091,0.26022 0.063,0.19696 -0.1636,-0.37532 -0.2742,-0.7724 -0.4407,-1.14639 -0.7936,-1.94522 -1.6402,-3.8903 -2.881,-5.6003 -0.4996,-0.68739 -0.9986,-1.37515 -1.5587,-2.01428 -0.71,-0.98253 -1.3099,-2.04435 -1.9166,-3.09173 -0.176,-0.18098 -0.027,-0.0177 -0.2893,-0.52388 -0.1731,-0.33485 -0.344,-0.67095 -0.524,-1.00221 -0.5091,-0.93726 -1.0905,-1.83558 -1.6935,-2.71442 -1.4304,-2.02692 -2.8651,-4.05053 -4.262,-6.10073 -0.6248,-1.12181 -1.1367,-2.29418 -1.7305,-3.43281 -0.7805,-1.49672 -1.6743,-2.93156 -2.5827,-4.35274 -2.094,-3.20162 -4.2545,-6.38344 -6.7594,-9.2809 -11.8258,-13.13971 -30.4081,3.58442 -18.5824,16.72413 z" /><path
       style="fill:#999999;fill-opacity:1;stroke-width:20;paint-order:markers stroke fill"
       id="path8068"
       d="m 1931.6262,1068.9378 c -0.1949,0.06 -0.7879,0.1631 -0.5846,0.1793 0.5425,0.043 1.0864,-0.071 1.6302,-0.096 1.0838,-0.048 2.1679,-0.091 3.2524,-0.1217 1.7524,-0.049 3.5052,-0.086 5.258,-0.1152 5.7949,-0.098 9.8597,-0.1159 15.7711,-0.1636 18.6165,-0.045 37.2317,-0.1383 55.8469,-0.3574 11.4672,-0.3398 22.943,-0.4036 34.4074,-0.8189 8.3416,-0.2621 16.6687,-0.7858 24.9398,-1.9127 4.6555,-0.4405 9.111,-1.7919 13.5487,-3.1785 3.4046,-0.9632 6.7095,-2.203 9.952,-3.6116 4.9259,-1.838 7.2399,-4.1851 11.0305,-8.2997 0.3556,-0.3861 1.6355,-2.4787 2.1979,-3.3901 1.3596,-1.9795 2.3127,-4.1949 3.7466,-6.1225 2.2779,-3.3606 4.3229,-6.86 6.1322,-10.4926 0.9304,-2.2795 1.3419,-3.0769 1.9753,-5.3655 0.9117,-3.2943 0.406,-1.8345 0.9422,-4.204 0.039,-0.171 0.1495,-0.3181 0.2048,-0.4844 0.1344,-0.1907 0.1452,-0.4556 0.2923,-0.6371 0.077,-0.095 -0.1489,0.4547 -0.076,0.3574 0.032,-0.042 1.566,-2.5011 -0.3698,0.5969 -5.1507,6.48 -13.1098,5.8892 -22.3937,3.6251 -3.6037,-0.8789 -4.8133,-5.8733 -8.0527,-7.6805 2.24,8.649 4.2481,17.3547 6.5469,25.9885 1.6049,6.2142 3.9081,12.2078 6.7411,17.9617 1.674,3.3999 2.3904,4.536 4.2417,7.7642 2.7275,4.6158 5.6886,9.0888 8.708,13.5173 2.7704,3.8768 5.6888,7.6274 8.7912,11.2435 1.0123,1.0012 1.6591,2.2475 2.4329,3.4133 1.3593,2.0478 1.4717,2.1552 2.8198,3.9711 1.3557,1.9848 3.0395,3.7141 4.5271,5.5933 0.3157,0.3988 0.5342,0.8656 0.8084,1.294 0.917,1.3586 1.2571,1.8116 2.0238,3.0975 0.1904,0.3193 0.3778,0.6409 0.5486,0.9711 0.037,0.071 0.112,0.2984 0.072,0.2292 -0.1611,-0.2775 -0.3288,-0.5556 -0.4369,-0.8577 -0.3062,-0.8562 -0.5349,-1.7382 -0.8024,-2.6074 -0.095,-1.7979 -0.6956,-3.6411 -0.2834,-5.3936 2.2269,-9.4682 3.6558,-10.5886 11.4009,-15.6869 0.8721,-0.574 2.0001,-0.6083 2.9693,-0.9964 0.2084,-0.083 -0.4459,0.053 -0.6692,0.075 -0.4057,0.042 -0.8119,0.078 -1.2178,0.1174 -3.6905,0.4147 -7.3434,1.1656 -10.843,2.4329 -4.0617,1.4708 -7.8391,3.5615 -11.6377,5.587 -1.4985,0.8449 -5.5394,3.163 -7.2141,3.9637 -1.5006,0.7175 -4.4625,1.7686 -5.9705,2.2836 -3.4702,1.1851 -6.965,2.2965 -10.4476,3.4446 -11.2094,3.5975 -22.5584,6.739 -33.8349,10.1168 -9.6066,2.7904 -19.4628,4.5743 -29.251,6.5869 -8.5568,1.685 -17.1881,2.9965 -25.8598,3.9192 -6.4492,0.6336 -12.9303,0.7768 -19.4056,0.8449 -6.1154,0.01 -12.2411,-0.041 -18.344,-0.4669 -0.1269,-0.028 -0.508,-0.1111 -0.3807,-0.085 1.1328,0.234 2.3451,0.227 3.397,0.7079 2.1879,1.0001 4.4408,2.0489 6.2069,3.6824 3.6245,3.3524 5.0047,6.7134 5.8306,11.2697 0.297,-4.7479 -0.01,-9.5255 -0.8948,-14.2009 -0.3019,-1.5957 -0.714,-3.1686 -1.071,-4.7528 -2.1218,-8.0351 -4.7344,-15.9385 -7.5719,-23.7469 -0.2917,-0.8086 -0.5835,-1.6171 -0.8751,-2.4257 -0.6871,-1.9048 -1.3584,-3.8383 -2.1562,-5.6994 -1.6597,-3.8717 -3.6519,-7.5276 -5.7224,-11.1889 -0.7256,-1.1695 -1.4335,-2.3502 -2.1766,-3.5087 -1.0565,-1.6469 -2.8052,-4.2227 -3.9851,-5.8481 -0.9245,-1.3591 -2.0088,-2.5987 -2.9747,-3.9266 -0.1599,-0.2198 0.3428,0.422 0.5142,0.633 4.1524,10.7142 4.9327,8.4638 -3.142,23.7832 -0.9704,1.8411 -4.3159,1.6527 -5.1206,3.572 -0.5096,1.2156 2.6015,-0.4285 3.8994,-0.6591 8.0667,-1.4336 10.4738,-1.9261 19.1156,-3.5756 12.6613,-2.4693 25.354,-4.7773 38.018,-7.2321 11.1758,-2.1664 22.319,-4.497 33.481,-6.7327 8.4417,-1.5206 16.8032,-3.5126 25.299,-4.7321 2.6686,-0.383 5.7882,-0.6827 8.467,-0.9626 3.4622,-0.2843 6.9269,-0.6027 10.3998,-0.7317 0.7045,-0.026 1.411,-0.069 2.1147,-0.027 0.063,0 0.162,0.1673 0.1,0.1597 -1.2283,-0.1505 -2.4428,-0.3977 -3.6642,-0.5965 -1.0066,-0.4756 -2.0132,-0.9511 -3.0199,-1.4266 -0.074,0.011 -0.2588,-0.033 -0.223,0.033 0.226,0.4171 0.581,0.7504 0.8566,1.1365 0.3449,0.4831 0.6916,0.966 1.0044,1.4704 0.2404,0.3877 1.038,1.4476 0.653,1.2028 -0.4764,-0.3031 -0.6388,-0.9313 -0.9583,-1.3969 0.1212,-4.7584 0.2423,-9.5168 0.3634,-14.2752 1.4688,-1.9547 4.2876,-3.422 4.4062,-5.8642 0.067,-1.378 -2.7582,0.1095 -4.1325,0.2306 -4.2655,0.3759 -8.5159,0.9158 -12.7841,1.2601 -14.6179,1.1794 -21.8646,1.3853 -36.7673,2.0832 -18.6056,0.6269 -37.2207,1.0574 -55.8027,2.2397 -7.9747,0.5075 -16.3939,1.0597 -24.2976,2.5013 -3.0526,0.5568 -6.0364,1.44 -9.0546,2.16 -6.161,2.4184 -9.0212,3.0246 -14.2772,7.0264 -1.9742,1.5031 -4.0499,3.0355 -5.4152,5.1073 -5.1022,7.7422 -7.4188,14.0296 -4.5434,23.3179 1.2203,3.9421 4.2302,7.0867 6.3453,10.63 2.1636,1.9461 4.1958,4.049 6.4907,5.8383 6.472,5.046 14.2754,8.6295 22.188,10.7069 7.7832,2.0434 9.7545,1.7712 17.8116,2.2842 3.4365,-0.2493 6.8926,-0.3039 10.3094,-0.7478 7.3361,-0.9532 14.1215,-2.7917 21.2167,-4.8314 3.4804,-1.0004 6.9282,-2.1111 10.3826,-3.1975 6.8747,-2.1619 13.7261,-4.3972 20.5932,-6.583 14.1982,-4.5608 28.5141,-8.7633 43.049,-12.1093 1.7456,-0.3541 4.4588,-0.9731 6.3214,-1.122 0.4196,-0.034 0.9007,-0.1382 1.2603,0.081 0.2022,0.1231 -0.4154,0.2437 -0.647,0.2928 -0.3303,0.07 -0.683,0.1386 -1.0111,0.059 -0.7681,-0.187 -1.4775,-0.5628 -2.2163,-0.8443 -13.5274,-27.0689 -9.5145,-8.0899 -4.8768,-27.3258 0.1392,-0.5777 -1.1445,0.3322 -1.6901,0.5676 -1.747,0.7538 -3.4246,1.6637 -5.1803,2.3969 -6.0546,2.5285 -9.6287,3.5966 -15.9985,5.7459 -21.3499,7.1358 -43.7074,10.2674 -65.9301,13.2826 -6.4332,0.9336 -12.9276,1.641 -19.2783,3.0775 -1.3467,0.3046 -2.7096,0.5811 -4.0031,1.064 -1.898,0.7084 -5.1328,0.5138 -5.5404,2.4982 -2.2417,10.9139 -1.2188,22.2502 -1.8283,33.3754 2.5683,1.3747 5.0231,2.9868 7.7049,4.1242 3.3494,1.4206 11.5104,3.1795 14.862,3.7512 7.0569,1.2038 15.5359,2.0777 22.6034,2.4544 4.8966,0.261 9.8032,0.2756 14.7048,0.4135 18.0042,-0.083 36.0689,0.093 54.0255,-1.4795 7.8289,-0.6854 12.1182,-1.4127 19.6591,-2.5179 7.4431,-1.2826 14.7538,-3.2604 21.8107,-5.9514 2.0593,-0.7852 6.7123,-2.7561 8.7306,-3.9942 1.6796,-1.0304 3.2238,-2.2667 4.8356,-3.4001 5.0188,-6.0986 6.6194,-6.4819 7.9045,-14.9596 0.6691,-4.414 -0.6367,-8.2508 -2.0696,-12.2271 1.412,3.6921 1.3064,7.2315 0.3398,11.0326 -0.2389,0.9393 -0.7009,1.8082 -1.0986,2.692 -0.1471,0.3269 -0.854,1.0936 -0.533,0.9341 0.3719,-0.1848 0.4744,-0.6819 0.7116,-1.0228 5.2971,-6.7391 7.7629,-15.3161 4.1131,-23.9375 -1.7244,-4.0733 -5.8431,-6.6424 -8.7646,-9.9637 -1.794,-0.8949 -3.547,-1.8774 -5.3821,-2.6849 -3.2785,-1.4426 -7.2299,-2.4659 -10.7403,-3.1953 -1.0564,-0.2195 -2.1124,-0.4614 -3.1855,-0.5741 -1.7349,-0.1822 -3.4828,-0.206 -5.2242,-0.3089 -2.1828,0.318 -4.4072,0.4237 -6.5483,0.9541 -3.5484,0.8789 -7.148,2.7779 -9.9999,5.0321 -3.0656,2.423 -5.3233,5.4345 -7.5629,8.5636 -16.3404,23.0866 16.309,46.1954 32.6494,23.1088 v 0 c 0.1836,-0.2667 0.3799,-0.5252 0.5509,-0.8002 0.036,-0.058 0.1242,-0.2336 0.068,-0.1947 -0.5825,0.4005 -1.0759,0.9257 -1.6754,1.3003 -2.4652,1.54 -4.9461,2.1707 -7.8567,2.0342 -0.3995,-0.09 -1.4147,0.077 -1.1985,-0.2712 0.091,-0.1457 3.6016,0.7262 3.884,0.8021 0.3306,0.089 1.011,0.6165 0.9896,0.2748 -0.027,-0.4327 -0.6818,-0.5356 -1.0227,-0.8034 -1.9981,-2.703 -4.955,-4.9122 -5.9943,-8.1088 -1.2253,-3.7685 -0.813,-7.9268 -0.5037,-11.8774 0.1107,-1.4138 1.134,-2.6 1.7374,-3.8833 0.039,-0.082 0.2057,-0.2899 0.1834,-0.2018 -0.1924,0.7589 -1.8067,0.92 -1.3654,1.9111 -1.6523,2.3824 -3.2892,4.7396 -4.1743,7.5598 -1.7055,5.434 -1.7042,10.1203 0.079,15.4827 0.1298,0.3487 0.2572,0.6983 0.3895,1.046 0.039,0.1026 0.1488,0.412 0.1245,0.3049 -0.6548,-2.8898 -1.3695,-4.0354 -0.6448,-7.6647 1.3704,-6.8627 2.3479,-6.8212 6.5458,-11.3572 0.672,-0.3672 1.3343,-0.753 2.0161,-1.1016 0.4346,-0.2222 -0.8351,0.5085 -1.274,0.7222 -0.8114,0.3951 -1.6347,0.7681 -2.4731,1.1023 -4.5889,1.8295 -9.3542,3.1808 -14.2171,4.0556 -5.7622,0.859 -10.5354,1.6481 -16.3955,2.172 -16.7502,1.4973 -33.6056,1.2943 -50.4014,1.4096 -4.1703,-0.099 -8.3441,-0.095 -12.5106,-0.2959 -5.3551,-0.2588 -12.3471,-0.9233 -17.7981,-1.7689 -1.7473,-0.2711 -3.4753,-0.6559 -5.2064,-1.0163 -0.8981,-0.187 -2.7353,-1.5414 -2.6803,-0.6256 0.07,1.1619 1.847,1.417 2.7705,2.1255 -1.1663,10.6647 -1.2291,21.5085 -3.4988,31.9939 -0.2828,1.3064 -2.4961,0.9571 -3.7397,1.4471 -0.2812,0.1109 0.5579,-0.2409 0.8523,-0.3092 1.1851,-0.2748 2.3803,-0.5068 3.5783,-0.7183 4.8597,-0.8579 8.2913,-1.2711 13.3501,-1.9684 24.7699,-3.3691 49.6507,-7.0281 73.4247,-15.0486 9.8164,-3.3602 19.8683,-6.5508 28.925,-11.7403 2.7651,-1.5844 5.9054,-2.8421 7.9864,-5.2558 3.6299,-4.2104 8.6946,-8.6248 8.7728,-14.1834 0.1064,-7.5599 -5.5173,-14.0789 -8.2759,-21.1184 -2.0375,-1.1673 -3.9605,-2.562 -6.1124,-3.502 -9.6762,-4.2271 -19.22,-3.1549 -29.1301,-0.8965 -15.5892,3.6046 -30.9593,8.066 -46.1884,12.9696 -6.7606,2.1521 -13.5083,4.3445 -20.2733,6.4827 -7.6888,2.4303 -15.4253,4.9991 -23.3867,6.4071 -1.6207,0.2867 -3.2651,0.4177 -4.8977,0.6265 -1.3327,0 -2.668,0.071 -3.998,-0.013 -2.5659,-0.1627 -4.5637,-0.5913 -6.9998,-1.3715 -3.6629,-1.173 -2.0137,-0.8396 -5.3718,-2.5137 -0.317,-0.158 -0.6709,-0.2274 -1.0064,-0.3411 1.4092,4.5633 2.6788,6.6616 0.8787,11.9438 -0.8356,2.4519 -2.5931,4.5021 -4.168,6.5587 -0.3611,0.4714 -0.9787,0.7022 -1.5404,0.8951 -0.1186,0.041 -0.3476,-0.1985 -0.2519,-0.2794 0.5327,-0.4503 1.2099,-0.6945 1.8149,-1.0417 1.6047,-0.4443 3.179,-1.0182 4.8142,-1.3327 6.8322,-1.3139 14.0306,-1.7341 20.9233,-2.1755 18.4906,-1.1839 37.0155,-1.5862 55.5294,-2.2259 13.3155,-0.6297 25.8576,-1.076 39.1246,-2.2641 6.4166,-0.5746 23.7665,-2.0145 30.3349,-5.3731 4.71,-2.4084 9.9465,-5.1731 12.4618,-9.8269 3.0125,-5.5741 1.996,-12.514 2.9941,-18.771 -0.8824,-2.1258 -1.6316,-4.3118 -2.6471,-6.3773 -0.921,-1.8732 -3.5026,-5.4928 -4.8062,-7.1756 -1.5729,-2.0304 -4.4971,-5.4854 -6.4071,-6.9867 -2.1161,-1.6632 -4.485,-2.9767 -6.7275,-4.465 -2.6099,-0.7872 -5.1634,-1.7938 -7.8297,-2.3616 -1.6253,-0.3461 -3.3111,-0.3092 -4.972,-0.3645 -1.1852,-0.039 -2.3716,0.034 -3.5565,0.081 -4.1388,0.1619 -8.2681,0.5401 -12.3935,0.8916 -4.0295,0.4283 -6.6302,0.6675 -10.6929,1.2608 -8.974,1.3106 -17.8183,3.3592 -26.7342,4.9925 -11.0206,2.2077 -22.0226,4.5112 -33.0569,6.65 -12.6874,2.4593 -25.4035,4.7718 -38.0882,7.2455 -15.5426,2.969 -5.409,1.0657 -18.6455,3.4887 -5.3451,0.9784 -14.7315,2.2379 -18.0668,6.3437 -11.2159,13.8066 -8.5234,15.6859 -4.6768,27.1826 0.6148,0.9371 1.2066,1.8896 1.8442,2.8113 0.3658,0.5287 1.6301,2.0932 2.0341,2.6439 1.466,1.998 2.8288,4.0721 4.1408,6.1736 1.1456,1.9792 2.3369,3.9694 3.2638,6.0655 0.6162,1.3932 1.2227,3.1655 1.7318,4.5764 0.3122,0.8652 0.6245,1.7303 0.9368,2.5955 2.3333,6.3105 4.3941,12.731 6.2099,19.2088 0.4875,1.8441 1.0347,3.755 1.026,5.6845 0,0.6416 -0.054,1.2821 -0.075,1.9233 -0.024,0.7395 -0.04,1.4792 -0.06,2.2187 0.1048,3.6229 -0.019,6.4679 1.6379,10.1226 1.2442,2.7441 2.8579,5.4085 4.9918,7.5356 4.3298,4.3157 9.7831,6.0644 15.6124,6.5932 7.1483,0.4742 14.3176,0.5891 21.4804,0.5561 7.7655,-0.086 15.5367,-0.2876 23.2683,-1.0738 9.932,-1.0853 19.8247,-2.5494 29.6239,-4.5083 10.9407,-2.2513 21.9503,-4.2765 32.6741,-7.45 11.6244,-3.4849 23.327,-6.715 34.8766,-10.4445 5.7221,-1.8865 11.5458,-3.6138 17.1205,-5.9164 4.5048,-1.8607 5.8209,-2.574 9.8437,-4.7844 1.0065,-0.5531 1.9975,-1.1341 2.9963,-1.7011 1.5447,-0.8277 3.1137,-1.6107 4.6419,-2.4682 0.2388,-0.134 0.6656,-0.4992 0.9489,-0.6092 0.7368,-0.2862 1.4825,-0.3303 2.2649,-0.4454 2.7913,-0.3095 7.7827,-0.7564 10.0193,-2.0261 3.1097,-1.7652 6.4391,-3.5475 8.6271,-6.3759 5.3729,-6.9454 4.4148,-9.8061 4.2321,-16.9114 -0.3623,-1.3715 -0.6457,-2.7663 -1.087,-4.1144 -1.376,-4.2035 -4.0029,-7.8896 -6.3886,-11.5554 -1.8022,-2.6472 -1.5807,-2.4188 -3.6053,-4.9879 -0.6401,-0.8123 -1.3788,-1.554 -2.0158,-2.3674 -0.3166,-0.4042 -0.6136,-0.8233 -0.9204,-1.235 -0.9442,-1.2417 -1.0484,-1.4864 -2.0948,-3.0688 -1.486,-2.2471 -3.1111,-4.3908 -4.8618,-6.4385 -2.1388,-2.4774 -4.1494,-5.0406 -6.0671,-7.6927 -2.4632,-3.6126 -4.8923,-7.2517 -7.1306,-11.009 -2.9585,-5.048 -5.6087,-10.2755 -6.9608,-16.0108 -2.3876,-8.9296 -4.4107,-17.9504 -6.7961,-26.8809 -2.0173,-5.9881 -3.7873,-13.65461 -11.0572,-16.15855 -11.4875,-3.9566 -18.9339,-2.6997 -25.9097,4.03754 -0.7894,0.76238 -1.4925,1.60928 -2.2388,2.4139 -0.7106,0.97036 -1.4479,1.92178 -2.132,2.91108 -2.1211,3.06743 -3.5401,6.58993 -4.7316,10.09953 -0.6589,2.2217 -0.618,1.9708 -1.1807,4.3898 -0.068,0.2905 -0.1715,0.5799 -0.171,0.878 0,0.3812 0.3822,-1.3863 0.5057,-1.0257 -0.7525,1.8691 -2.0447,3.4649 -3.0448,5.1998 -1.2123,1.7859 -2.3627,3.5706 -3.4528,5.4358 -0.1945,0.3328 -0.3255,0.7008 -0.5277,1.0291 -0.2896,0.4701 -0.5994,0.9276 -0.8991,1.3915 -0.183,0.2965 -0.4903,0.5461 -0.5491,0.8896 -0.046,0.2702 0.3042,-0.4634 0.5076,-0.6472 4.7535,-4.2958 2.9128,-3.1173 6.4816,-4.8957 0.099,-0.049 -0.2013,0.094 -0.3019,0.1402 -0.4262,0.1764 -0.8523,0.3527 -1.2785,0.529 -1.9418,0.8455 -3.9145,1.5827 -5.9688,2.1258 -4.6329,1.4565 0.2756,-0.098 -2.4604,0.7906 -0.2546,0.083 -0.5165,0.1443 -0.7665,0.2403 -0.046,0.018 -0.064,0.086 -0.1123,0.097 -0.899,0.2023 -2.9797,0.486 -3.741,0.5981 -6.9319,0.9893 -13.9284,1.2989 -20.9198,1.5603 -11.1274,0.4221 -22.2687,0.4431 -33.399,0.7943 -18.5663,0.2186 -37.1325,0.3099 -55.7,0.3559 -5.8387,0.047 -10.5693,0.07 -16.3471,0.1725 -4.5539,0.08 -9.1968,0.071 -13.7336,0.5755 -1.2049,0.134 -2.3998,0.3467 -3.5997,0.5201 -27.6107,6.1357 -18.9335,45.1832 8.6772,39.0475 z" /><path
       style="fill:#000000;stroke-width:20;paint-order:markers stroke fill"
       id="path6842"
       d="m 2096.2738,1004.3667 c 5.4228,-3.5418 10.5811,-7.47974 15.9772,-11.06669 3.4709,-2.3894 7.0285,-4.63426 10.6042,-6.85618 5.0664,-2.99143 7.5439,-1.4756 -13.6057,-1.28894 -0.2374,0.003 -0.035,0.49458 0.067,0.709 0.5083,1.0694 1.1738,2.05682 1.7413,3.09602 0.7461,1.36637 1.4661,2.7468 2.1991,4.1202 3.8124,7.23839 7.3972,14.60029 10.7922,22.04359 2.2247,4.9611 4.2653,10.0045 6.5786,14.9248 2.9632,5.6038 5.9961,11.1742 9.235,16.625 1.5342,2.3987 2.6677,4.9417 3.6071,7.6111 1.7374,4.3823 3.2325,8.8459 4.9287,13.2454 1.3803,4.0712 2.7921,8.1274 4.5126,12.0684 1.7838,3.5704 3.5777,7.1275 5.3436,10.7068 1.3419,2.9567 2.8473,5.8292 4.516,8.6136 11.0282,18.1211 36.6555,2.5248 25.6271,-15.5964 v 0 c -1.2812,-2.0049 -2.2175,-4.1925 -3.2588,-6.3301 -1.5967,-3.2077 -3.1627,-6.426 -4.8237,-9.6008 -1.6029,-3.4312 -2.57,-7.1248 -3.9254,-10.6541 -1.6175,-4.195 -3.0441,-8.4538 -4.7004,-12.6335 -1.6235,-4.4431 -3.5436,-8.7595 -6.053,-12.7835 -2.7676,-4.6317 -5.3142,-9.3876 -7.9,-14.1215 -2.2912,-4.7732 -4.1889,-9.7304 -6.4002,-14.5416 -3.671,-8.02377 -7.5252,-15.96899 -11.6491,-23.77013 -1.6441,-3.04673 -4.1682,-7.92511 -6.1367,-10.70686 -1.3837,-1.95541 -2.3014,-4.69083 -4.5243,-5.58353 -13.2148,-5.30693 -14.5375,-6.16485 -22.0715,-1.59279 -3.8117,2.4049 -7.6473,4.76879 -11.3532,7.33991 -5.6516,3.78116 -11.0802,7.88456 -16.7652,11.61076 -17.2619,12.32993 0.1752,36.74194 17.4371,24.41204 z" /><path
       style="fill:#000000;stroke-width:20;paint-order:markers stroke fill"
       id="path6838"
       d="m 1983.5356,1150.3882 c -7.4942,-12.939 -15.1351,-25.7908 -22.3546,-38.8885 -8.3677,-15.0686 -16.913,-30.0389 -25.3455,-45.0725 -4.6934,-7.9509 -8.7266,-16.2364 -12.7052,-24.5555 -0.8875,-1.9848 -1.852,-3.9326 -2.7573,-5.909 -8.8593,-19.2747 -36.1178,-6.7456 -27.2584,12.529 v 0 c 0.9743,2.114 1.9946,4.2051 2.953,6.3265 4.2612,8.9044 8.5971,17.7659 13.6034,26.286 8.3985,14.9709 16.9083,29.8794 25.2415,44.8856 7.2045,13.0516 14.7854,25.8836 22.2863,38.764 10.158,18.623 36.4948,4.2574 26.3368,-14.3656 z" /><path
       style="fill:#000000;fill-opacity:1;stroke-width:20;paint-order:markers stroke fill"
       id="path8281"
       d="m 2116.2176,357.22718 c 3.7757,2.43017 7.9988,4.01077 12.1233,5.72799 2.7103,1.23008 5.5974,1.88587 8.4902,2.50667 1.8306,0.50771 3.6852,0.93189 5.4951,1.5118 1.7899,0.60124 3.5681,1.2119 5.3243,1.89897 2.4397,0.97575 4.8499,2.01485 7.317,2.92055 2.9009,1.00097 5.6826,2.33071 8.4309,3.68945 3.4536,1.73601 7.0192,3.23019 10.5321,4.8387 3.5139,1.6215 6.8911,3.51346 10.3846,5.17771 2.9687,1.58039 6.2012,2.61239 9.1463,4.23127 3.4733,1.982 6.8495,4.13507 10.2044,6.31161 3.2008,2.20475 6.6715,3.98883 9.8974,6.14863 2.2759,1.54937 4.575,3.06136 6.8922,4.5485 1.039,0.74774 2.2925,1.1811 3.2801,2.00581 0.098,0.0815 0.157,0.20098 0.2484,0.28932 0.3545,0.34256 1.6917,1.51556 1.9682,1.76006 0.5193,0.41397 1.0251,0.84532 1.5577,1.2419 0.934,0.69549 1.9311,1.3039 2.8602,2.00594 0.8885,0.67138 1.71,1.45976 2.5587,2.17916 1.6995,1.65651 3.7046,2.92738 5.6971,4.19217 2.7785,1.82012 5.3573,3.9411 7.9459,6.01958 1.8122,1.41605 3.4375,3.04904 5.2039,4.51835 2.0377,1.69494 2.6908,2.13622 4.842,3.74017 4.0626,2.84356 7.5201,6.46507 11.5082,9.39806 1.3925,1.02412 2.8562,1.94762 4.2843,2.92142 4.3461,2.94762 9.2658,4.99483 13.5298,8.06543 0.8707,0.62706 2.3317,1.8701 3.1584,2.55973 1.7258,1.30313 3.217,2.83147 4.5571,4.51676 1.3354,1.41298 2.3352,3.06088 3.3695,4.69109 1.2887,2.29243 2.9422,4.34244 4.4255,6.50494 1.0917,1.85613 2.1489,3.72951 3.1143,5.65507 0.3948,0.91485 0.1094,0.27657 0.7537,1.59721 0.085,0.17341 0.1721,0.34549 0.251,0.52155 0.012,0.0275 0.029,0.11697 0.022,0.0876 -0.2625,-1.15761 -0.7836,-2.2854 -0.7895,-3.47234 -0.01,-1.24984 0.5027,-2.44864 0.7541,-3.67295 0.073,-1.05965 1.0752,-1.48582 1.5301,-2.28007 0.057,-0.1 -0.2041,0.10737 -0.3023,0.16759 -0.29,0.17769 -0.5684,0.37404 -0.8619,0.54586 -0.5566,0.32586 -1.1398,0.60383 -1.7077,0.90953 -2.1314,1.07521 -4.2913,2.08955 -6.3753,3.25464 -3.3189,1.91765 -5.5001,4.75866 -7.479,7.96068 -0.9978,1.77138 -0.5385,0.88159 -1.5003,2.94505 -0.098,0.21087 -0.1891,0.42526 -0.2917,0.6341 -0.041,0.0824 -0.1695,0.32493 -0.1373,0.23894 0.1346,-0.35854 0.4249,-0.73538 -0.051,-0.0513 -8.0528,11.62553 8.3882,23.01386 16.4409,11.38833 v 0 c 1.0195,-1.47622 1.895,-3.04168 2.5749,-4.67651 0.2112,-0.34605 0.5058,-0.65895 0.6149,-1.04944 0.021,-0.0767 -0.1509,0.0577 -0.2303,0.063 -0.034,0.003 0.1019,-0.10078 0,-0.10078 1.8739,-1.1693 4.0115,-1.89624 5.9234,-3.00336 2.8621,-1.54564 5.9692,-3.17243 8.1234,-5.68336 0.6549,-0.76329 1.1332,-1.66192 1.6998,-2.49287 0.4226,-1.57539 1.1809,-3.09735 1.2679,-4.7261 0.1685,-3.15674 -1.1384,-5.49037 -2.3846,-8.12739 -1.3922,-2.73971 -2.8773,-5.43139 -4.5262,-8.02643 -1.3469,-1.9305 -2.8204,-3.77266 -3.9769,-5.82879 -1.4414,-2.27005 -2.8938,-4.53882 -4.6999,-6.54444 -2.1985,-2.69701 -4.5988,-5.20859 -7.3554,-7.34891 -1.7843,-1.47024 -2.982,-2.50767 -4.9289,-3.86869 -4.262,-2.97942 -8.9867,-5.2038 -13.3827,-7.96787 -0.9376,-0.61151 -1.9076,-1.17597 -2.8127,-1.83449 -1.2721,-0.92541 -3.6579,-3.02421 -4.8872,-4.06249 -2.3845,-2.01401 -4.8061,-3.98494 -7.2998,-5.86285 -1.357,-1.0033 -2.3454,-1.70238 -3.6265,-2.76135 -1.9841,-1.64018 -3.7974,-3.48208 -5.8422,-5.05182 -3.166,-2.53114 -6.3185,-5.10948 -9.7351,-7.29798 -1.2269,-0.77803 -2.4772,-1.49058 -3.4837,-2.56421 -2.1475,-1.81808 -4.3,-3.62116 -6.663,-5.15585 -2.4798,-2.18938 -4.9453,-4.41317 -7.9361,-5.89825 -2.2564,-1.44812 -4.496,-2.9182 -6.7101,-4.43032 -3.29,-2.13916 -6.7304,-4.03606 -9.9976,-6.21403 -3.8705,-2.51039 -7.7685,-4.99155 -11.7961,-7.24278 -3.237,-1.66122 -6.6099,-3.00144 -9.8789,-4.5968 -3.5801,-1.68105 -7.005,-3.6736 -10.6186,-5.28663 -3.342,-1.53001 -6.7342,-2.95058 -10.0222,-4.59645 -3.3953,-1.66677 -6.8299,-3.2884 -10.4057,-4.53345 -2.3308,-0.845 -4.5894,-1.865 -6.9,-2.76297 -2.1885,-0.85352 -4.4032,-1.61742 -6.6323,-2.35841 -2.4001,-0.74073 -4.8339,-1.36396 -7.269,-1.97848 -1.706,-0.366 -3.4166,-0.65111 -5.0064,-1.41848 -3.3562,-1.39444 -6.8233,-2.62208 -9.8803,-4.62614 -12.2789,-7.01645 -22.2016,10.34841 -9.9228,17.36487 z" /><path
       style="fill:#000000;fill-opacity:1;stroke-width:20;paint-order:markers stroke fill"
       id="path8283"
       d="m 2117.0908,341.66214 c 0.61,0.0363 1.2335,-0.059 1.8414,0.0183 0.029,0.004 -0.075,0.0119 -0.076,0.0406 0,0.0325 0.042,0.0532 0.072,0.0661 0.1587,0.0684 0.3253,0.11676 0.488,0.17512 2.1447,0.97658 4.1572,2.22369 6.1352,3.49864 1.0291,0.5742 1.8242,1.42907 2.7262,2.17265 0.3694,0.30446 0.7478,0.5977 1.1218,0.89654 1.8904,1.43235 3.9541,2.6011 5.9888,3.80942 1.6738,1.03233 3.4672,1.84428 5.2092,2.74966 1.1653,0.60227 2.2728,1.30363 3.3905,1.98744 0.5096,0.33703 1.0397,0.64175 1.5657,0.95221 12.1796,7.18714 22.3438,-10.03755 10.1641,-17.22469 v 0 c -0.4376,-0.25813 -0.8818,-0.50422 -1.3007,-0.79312 -1.5267,-0.93165 -3.0474,-1.87497 -4.6408,-2.69118 -1.3963,-0.71837 -2.8291,-1.37155 -4.178,-2.17786 -1.2658,-0.75131 -2.5458,-1.47902 -3.7769,-2.28651 -0.8234,-0.64196 -1.5848,-1.34355 -2.3881,-2.01012 -0.9788,-0.81229 -2.0112,-1.55379 -3.092,-2.22429 -3.5179,-2.24476 -7.1207,-4.42696 -11.0878,-5.788 -0.6189,-0.18013 -1.2308,-0.38635 -1.8567,-0.54034 -2.0698,-0.50929 -4.1795,-0.69746 -6.3058,-0.63047 -14.1421,0 -14.1421,19.99999 0,19.99999 z" /><path
       style="fill:#000000;fill-opacity:1;stroke-width:20;paint-order:markers stroke fill"
       id="path8447"
       d="m 2184.2147,1098.6692 c -2.4906,1.1681 -4.8116,2.6454 -7.0608,4.2199 -1.8541,1.2881 -3.4481,2.9353 -5.3871,4.0995 -1.8072,1.1523 -3.7983,1.9914 -5.7291,2.9135 -3.8585,1.7084 -7.502,3.8212 -11.1166,5.9854 -1.6194,0.9431 -3.149,2.0309 -4.7403,3.018 -1.085,0.6731 -2.2368,1.2374 -3.3782,1.8056 -2.9553,1.5814 -6.0539,2.8621 -9.1062,4.24 -4.2716,1.9374 -8.5456,3.8703 -12.8424,5.7511 -3.991,1.5983 -8.0545,3.0042 -12.0807,4.5102 -3.8041,1.2931 -7.5858,2.6569 -11.4126,3.8832 -4.5128,1.3467 -9.0045,2.7696 -13.5357,4.053 -4.924,1.2717 -9.8358,2.5856 -14.7511,3.8899 -4.715,1.2822 -9.5389,2.096 -14.3269,3.0486 -3.8766,0.6831 -7.7468,1.412 -11.6357,2.0207 -4.6347,0.7883 -9.2992,1.3276 -13.9822,1.7204 -4.1569,0.2823 -8.3014,0.7032 -12.46,0.9613 -3.6554,0.3054 -7.3199,0.5398 -10.9663,0.9413 -2.9444,0.3768 -5.9,0.655 -8.857,0.9111 -3.1843,0.2533 -6.3762,0.3756 -9.558,0.659 -1.9613,0.1628 -3.9244,0.2152 -5.8831,0.4062 -1.9176,0.2512 -3.833,0.5224 -5.7542,0.7448 -1.3244,0.069 -2.6162,0.4001 -3.9322,0.5319 -0.3057,0.01 -0.6114,0.021 -0.9171,0.032 -14.1328,0.5151 -13.4044,20.5018 0.7284,19.9868 v 0 c 0.8164,-0.031 1.6335,-0.06 2.4465,-0.1464 1.3374,-0.1579 2.6572,-0.4238 3.999,-0.5396 1.9298,-0.2276 3.8555,-0.4892 5.7813,-0.748 0.2473,-0.2595 0.015,-0.035 0.9437,-0.071 1.4578,-0.057 2.9148,-0.1445 4.3679,-0.2755 3.1641,-0.2839 6.3406,-0.3837 9.5062,-0.6544 3.1371,-0.2725 6.2729,-0.5675 9.397,-0.9654 3.301,-0.3993 6.6333,-0.5387 9.9434,-0.851 4.3044,-0.2699 8.595,-0.6953 12.8973,-0.9935 5.1673,-0.4388 10.3162,-1.0301 15.4312,-1.8961 4.1454,-0.6637 8.2775,-1.4121 12.4089,-2.159 5.1997,-1.036 10.436,-1.9303 15.5542,-3.3333 5.0298,-1.3364 10.058,-2.6747 15.0949,-3.9845 4.7426,-1.3557 9.4537,-2.8225 14.1762,-4.247 4.1252,-1.3279 8.2075,-2.7873 12.306,-4.1936 4.3663,-1.6348 8.7792,-3.1464 13.0921,-4.9206 4.3664,-1.9122 8.7106,-3.8749 13.0515,-5.844 3.3053,-1.4928 6.6572,-2.8893 9.8593,-4.5991 1.5301,-0.7743 2.0607,-1.0173 3.527,-1.8562 2.0104,-1.1501 3.9076,-2.4763 5.8857,-3.6792 3.0761,-1.8436 6.1621,-3.662 9.4581,-5.0951 2.6473,-1.2643 5.3461,-2.4577 7.8102,-4.0642 2.1844,-1.4094 4.2189,-3.0052 6.2234,-4.6589 0.7385,-0.5297 1.4806,-1.0392 2.2644,-1.5008 0.4431,-0.261 0.9151,-0.4726 1.3491,-0.7487 0.063,-0.04 -0.1407,0.05 -0.211,0.075 12.9986,-5.5709 5.1203,-23.9538 -7.8784,-18.3829 z" /><path
       style="fill:#000000;fill-opacity:1;stroke-width:20;paint-order:markers stroke fill"
       id="path8505"
       d="m 1910.972,1040.4457 c 3.3157,0 6.6272,-0.1676 9.9368,-0.3489 3.959,-0.2137 7.9228,-0.3264 11.8868,-0.3927 3.2378,-0.086 6.4752,-0.1855 9.7135,-0.2504 1.216,-0.024 2.4322,-0.039 3.6485,-0.042 0.6361,0 1.2722,0 1.9083,0 1.2864,0.051 2.5408,-0.2331 3.8073,-0.3909 1.1447,-0.09 2.2938,-0.1003 3.4412,-0.1163 1.4521,0 2.8992,0.1962 4.3474,0.3043 1.5771,0.1139 3.1574,0.1713 4.7381,0.1982 1.0584,0.02 2.1146,0.1263 3.1731,0.1818 1.5529,0.069 3.1077,0.075 4.6619,0.081 1.5048,-0.03 3.0057,0.086 4.5084,0.1483 1.9128,0.059 3.8246,0.1612 5.731,0.3291 1.5508,0.1709 3.1115,0.1759 4.6681,0.2401 1.0007,0.041 1.9998,0.1147 2.9998,0.1717 4.1295,0.2706 8.2678,0.3751 12.3956,0.6686 6.0105,0.4511 12.0041,1.0906 18.0065,1.634 3.853,0.3626 7.7174,0.5723 11.5856,0.6646 2.0361,0.038 4.0727,0.029 6.109,0.023 2.7118,0.1065 5.3893,-0.2617 8.0516,-0.734 2.3957,-0.4466 4.7938,-0.8638 7.2039,-1.2228 2.4352,-0.309 4.8352,-0.8504 7.2355,-1.3565 2.2686,-0.4994 4.482,-1.2194 6.7148,-1.8581 2.5832,-0.869 5.1684,-1.7415 7.702,-2.7475 2.2721,-0.8855 4.3352,-2.1742 6.3498,-3.5287 1.535,-1.0682 3.0209,-2.2273 4.3505,-3.5467 0.8833,-0.8765 1.2971,-1.3758 2.0841,-2.2742 1.4704,-1.6643 2.6685,-3.538 3.6279,-5.537 0.2832,-0.59 0.6909,-1.601 0.9531,-2.238 0.9128,-2.3676 1.626,-4.8237 1.4317,-7.4052 -0.1625,-2.1584 -0.5803,-3.1438 -1.1993,-4.9621 -0.2529,-0.8639 -0.7244,-1.6887 -0.8257,-2.5965 -0.079,-0.7054 -0.1248,-1.4141 -0.1927,-2.1206 -0.2214,-2.68572 -0.3283,-5.38363 -0.7954,-8.04298 -0.1335,-0.75991 -0.3178,-1.51003 -0.4767,-2.26504 -3.0469,-13.81001 -22.5772,-9.50111 -19.5304,4.30892 v 0 c 0.2077,0.84833 0.3195,1.2052 0.4277,2.10653 0.2349,1.95816 0.2697,3.93777 0.4757,5.89857 0.1955,1.8816 0.2415,2.6821 0.5941,4.5686 0.3084,1.65 0.894,3.2338 1.4659,4.8055 0.4001,0.9943 0.023,0.1838 0.069,-0.9965 0.02,-0.5178 0.1278,-1.0289 0.217,-1.5393 0.01,-0.054 0.082,-0.1985 0.077,-0.1443 -0.012,0.1324 -0.2099,0.6991 -0.2404,0.7909 -0.3529,0.8629 -0.4918,1.5399 -1.1622,2.2352 -0.2422,0.2811 -0.4656,0.5783 -0.7164,0.8516 -0.5356,0.5837 -1.1818,1.0649 -1.8223,1.5244 -0.8327,0.5652 -1.6464,1.1605 -2.5872,1.5363 -1.9,0.7684 -3.857,1.383 -5.7802,2.0902 -0.7916,0.2267 -1.586,0.4437 -2.3767,0.6738 -0.696,0.2026 -1.4042,0.4835 -2.1114,0.6587 -0.2812,0.07 -0.5662,0.1225 -0.8494,0.1837 -2.0097,0.4238 -4.0164,0.8962 -6.0567,1.1446 -2.6112,0.3891 -5.2101,0.839 -7.8056,1.3219 -0.761,0.1407 -1.5381,0.3213 -2.3121,0.3861 -0.4495,0.038 -0.9952,0.027 -1.4345,0.028 -0.2709,0 -0.5417,0 -0.8126,0 -1.8609,0.01 -3.7221,0.014 -5.5829,-0.018 -3.4235,-0.079 -6.8435,-0.2672 -10.2534,-0.5888 -6.1382,-0.5548 -12.2672,-1.21 -18.414,-1.6666 -4.214,-0.2903 -8.4363,-0.4188 -12.652,-0.6849 -2.3548,-0.1341 -4.7123,-0.1971 -7.064,-0.3682 -2.212,-0.1923 -4.4293,-0.3181 -6.6485,-0.3881 -1.7517,-0.072 -3.5022,-0.1971 -5.2565,-0.1651 -1.2382,0 -2.4768,-0.01 -3.7142,-0.055 -1.2899,-0.064 -2.5762,-0.2035 -3.8686,-0.2054 -1.197,-0.019 -2.3937,-0.062 -3.588,-0.1462 -2.0348,-0.1494 -4.0671,-0.4123 -6.111,-0.357 -1.9363,0.028 -3.8773,0.058 -5.8023,0.2901 -0.3743,0.051 -1.1044,0.1453 -1.4911,0.2205 -0.067,0.013 0.1492,-0.057 0.2037,-0.016 0.052,0.039 -0.129,0.016 -0.1935,0.023 0.2041,0 0.4082,-0.01 0.6124,-0.013 0.09,0 -0.1804,-10e-5 -0.2706,-2e-4 -0.662,0 -1.324,0 -1.986,0 -1.3316,0 -2.6631,0.019 -3.9945,0.046 -3.2168,0.065 -6.4327,0.1615 -9.649,0.2492 -4.2164,0.072 -8.4327,0.1917 -12.6438,0.4198 -2.9453,0.1614 -5.8919,0.3214 -8.8426,0.3189 -14.1421,0 -14.1421,20.0001 0,20.0001 z" /><path
       style="fill:#000000;fill-opacity:1;stroke-width:20;paint-order:markers stroke fill"
       id="path8538"
       d="m 1586.2791,919.595 c 0.019,0.48088 -0.7417,-0.42444 -1.1325,-0.59518 -0.151,-0.066 0.4086,0.50202 0.2681,0.41566 -0.1295,-0.0796 -0.2514,-0.1923 -0.314,-0.33088 -0.4625,-1.02397 -0.8331,-2.08706 -1.2496,-3.13061 1.3882,-3.19762 1.7245,-7.10337 4.1646,-9.59289 2.2936,-2.33997 5.719,-1.90918 8.3436,-1.05534 0.2326,0.0757 0.9735,0.4395 1.1788,0.6441 0.5024,0.50078 0.9456,1.05759 1.4184,1.58636 0.4356,1.14533 1.2204,2.21366 1.3068,3.43599 0.2937,4.153 -1.2076,8.17054 -5.5892,9.89573 -2.2928,0.90276 -4.9637,0.46553 -7.3922,0.0481 -3.0804,-0.52946 -4.3381,-4.80123 -5.3927,-6.77516 0.3484,-2.12481 0.3269,-4.34459 1.0452,-6.37445 0.3656,-1.03354 1.2953,-1.78778 2.1045,-2.52745 0.5733,-0.52406 1.2685,-0.9238 1.9889,-1.21423 3.6511,-1.47204 6.5232,-0.54658 10.2404,1.99506 1.3665,0.93433 1.7137,2.83269 2.5706,4.24903 0.096,0.50421 0.1918,1.0084 0.2878,1.51259 0.01,0.0967 0.03,0.38698 0.025,0.29004 -0.1236,-2.53563 -0.6314,-4.83394 -2.1724,-6.95693 -0.6601,-0.90932 -1.5759,-1.60218 -2.3638,-2.40329 -0.7969,-0.45976 -1.5938,-0.91956 -2.3907,-1.37932 -12.9061,-5.78208 -21.0832,12.46991 -8.177,18.25199 v 0 c -0.5594,-0.35335 -1.1188,-0.70673 -1.6782,-1.06011 -1.7314,-1.896 -2.0428,-1.84997 -2.8983,-4.31885 -0.1954,-0.5638 -0.2373,-1.17046 -0.3171,-1.7618 -0.027,-0.19736 -0.01,-0.79658 0,-0.59749 0.047,2.16734 -0.088,0.52467 0.3556,3.55735 0.9126,1.62619 1.2404,3.76722 2.7378,4.87858 3.9824,2.95568 7.1602,3.80209 11.2442,2.29851 1.006,-0.37042 1.9905,-0.86786 2.8191,-1.54818 1.0874,-0.89279 2.3055,-1.81404 2.8539,-3.1097 0.9374,-2.2148 0.969,-4.71144 1.4535,-7.06716 -1.3196,-2.7134 -2.4391,-7.30189 -6.1841,-8.20248 -2.6737,-0.64296 -5.6418,-1.22351 -8.2431,-0.33168 -4.9987,1.71379 -6.9187,6.39509 -6.7788,11.08141 0.047,1.57118 0.9574,2.99445 1.436,4.49168 0.7077,0.91667 1.3419,1.89507 2.1229,2.75005 0.7998,0.8754 2.7225,2.22017 3.7616,2.70526 0.9948,0.46439 1.9945,1.14556 3.0923,1.13392 2.6766,-0.0284 5.9243,0.51909 7.9323,-1.25097 2.7982,-2.46674 3.2666,-6.70738 4.9,-10.06105 -0.4768,-1.47243 -0.822,-2.99421 -1.4305,-4.41724 -0.3079,-0.71999 -0.8308,-1.32943 -1.2962,-1.95916 -1.7504,-2.36853 -4.0956,-4.35441 -6.7724,-5.58269 -12.9987,-5.57088 -20.8771,12.81203 -7.8784,18.38288 z" /><path
       style="fill:#000000;fill-opacity:1;stroke-width:20;paint-order:markers stroke fill"
       id="path8540"
       d="m 1661.9412,977.18019 c 0.2549,0.79544 0.1565,0.005 0.1918,0.0621 1.2844,2.07989 -0.2118,5.21523 -1.166,6.92949 -0.2958,0.53137 -0.8367,0.88276 -1.255,1.32414 -0.794,0.41201 -1.5173,1.00679 -2.3819,1.23605 -2.9717,0.7879 -6.7514,0.0939 -8.645,-2.5246 -0.2317,-0.32041 -0.4084,-0.6772 -0.6126,-1.01579 -0.6408,-2.57537 -1.5352,-4.35382 -0.1381,-7.05408 2.0943,-4.04797 5.0425,-6.15342 9.4102,-5.53101 0.8194,0.2866 1.5604,0.46397 2.2379,1.06844 1.4369,1.28199 3.7815,3.92501 3.3424,6.05533 -0.6746,3.27195 -2.1651,6.44121 -4.1696,9.11376 -0.8144,1.08585 -2.525,0.99682 -3.7875,1.49522 -0.6819,0.0138 -1.3669,0.10652 -2.0458,0.0412 -1.9811,-0.19066 -4.0334,-1.33165 -5.2335,-2.9192 -0.7349,-0.97218 -1.5777,-2.00671 -1.7423,-3.21424 -0.3028,-2.22112 0.2591,-4.47587 0.3887,-6.71383 0.8427,-1.13157 1.6855,-2.26316 2.5282,-3.39473 -10.9665,8.92942 1.6616,24.43847 12.6281,15.50905 v 0 c 1.0127,-1.26994 2.0254,-2.53987 3.038,-3.80979 0.2043,-2.40165 0.8935,-4.81102 0.6129,-7.20494 -0.1628,-1.38819 -1.0798,-2.60538 -1.8961,-3.73992 -1.645,-2.28615 -4.6494,-3.85942 -7.3863,-4.29548 -1.047,-0.16682 -2.1188,-0.0847 -3.1783,-0.127 -1.6148,0.53896 -3.7296,0.33028 -4.8444,1.61684 -2.3331,2.69264 -4.0191,6.0678 -4.8221,9.53897 -0.3726,1.61065 0.7626,3.2521 1.5237,4.71967 1.4174,2.73301 4.1855,4.24989 6.8765,5.36149 0.8471,0.20412 1.6766,0.50352 2.5411,0.61235 2.4837,0.31266 5.6471,0.13922 7.7767,-1.32019 3.6875,-2.52722 5.4566,-5.22751 5.5388,-9.53781 0.027,-1.4119 -0.5465,-2.77093 -0.8197,-4.15639 -0.3671,-0.7184 -0.675,-1.47034 -1.1015,-2.15519 -0.7942,-1.27553 -2.3861,-3.16648 -3.6488,-3.90615 -3.2727,-1.91693 -5.5394,-2.62705 -9.3279,-1.88815 -1.4043,0.27393 -2.6442,1.09424 -3.9663,1.64135 -0.9447,0.80203 -2.0969,1.40999 -2.8342,2.40614 -1.1349,1.5334 -2.1301,3.22858 -2.6866,5.05331 -1.194,3.91556 0.3262,7.92191 2.0945,11.32355 7.4953,11.99251 24.4553,1.39253 16.96,-10.59997 z" /><path
       style="fill:#000000;fill-opacity:1;stroke-width:20;paint-order:markers stroke fill"
       id="path8542"
       d="m 1605.7693,1026.1192 c 0.2972,0.8653 0.8566,1.6817 0.8917,2.596 0.1641,4.2802 -0.9067,7.8415 -5.0816,9.6218 -1.97,0.8402 -2.8592,0.4167 -5.1681,0.2558 -0.8843,-0.415 -1.8328,-0.7143 -2.6529,-1.245 -3.1566,-2.0429 -4.1363,-6.3821 -3.164,-9.9145 0.5244,-1.9051 1.9784,-3.487 3.4104,-4.8485 0.8618,-0.8193 2.164,-0.9865 3.246,-1.4798 0.8853,-0.055 1.7723,-0.2426 2.6559,-0.1648 1.3698,0.1204 3.288,0.7969 4.3354,1.7578 0.8803,0.8077 1.5392,1.8276 2.3089,2.7414 -6.67,-12.4704 -24.3059,-3.0376 -17.6359,9.4328 v 0 c 0.8565,1.0762 1.5749,2.2784 2.5694,3.2285 1.4248,1.3613 3.9559,2.405 5.8486,2.6732 1.2209,0.173 2.4661,-0.02 3.6991,-0.03 4.1477,-1.6207 6.8118,-1.8198 8.5813,-7.1244 1.4893,-4.4644 -0.1871,-9.5795 -3.8762,-12.2879 -1.0622,-0.7798 -2.3231,-1.2447 -3.4847,-1.8671 -3.3963,-0.4278 -4.3599,-1.0159 -7.4395,0.052 -2.8879,1.001 -5.531,2.925 -6.8824,5.8236 -0.8733,1.8732 -1.0719,4.0383 -1.0825,6.105 -0.01,1.2543 0.6883,2.4123 1.0325,3.6185 6.3246,12.6491 24.2131,3.7048 17.8886,-8.9443 z" /><path
       style="fill:#000000;fill-opacity:1;stroke-width:20;paint-order:markers stroke fill"
       id="path8544"
       d="m 1529.5324,950.89757 c 0.1386,-0.0766 0.5576,-0.29994 0.4157,-0.22982 -0.4356,0.21516 -0.8447,0.48733 -1.2967,0.66506 -2.1193,0.83317 -3.6388,-0.0553 -5.7516,-0.81527 4.6884,-1.45851 9.1907,-4.9662 14.065,-4.3756 2.8304,0.34293 -4.071,4.26633 -6.7422,5.26288 -3.6219,1.35123 -8.8014,-1.32945 -10.3048,-4.7309 -0.5347,-1.20986 -0.6854,-2.55516 -1.0281,-3.83276 1.3747,-6.33891 -0.041,-3.59603 4.1005,-8.30244 -11.7071,7.93375 -0.4871,24.49005 11.22,16.5563 v 0 c 4.6066,-5.02769 2.9898,-2.07115 4.6667,-8.96744 -0.3488,-1.44994 -0.4728,-2.97331 -1.0466,-4.34983 -1.6072,-3.85588 -7.3227,-7.40418 -11.5433,-5.98188 -2.8302,0.95371 -10.106,4.72651 -7.1857,5.35186 4.6889,1.00406 9.2262,-2.61808 13.8392,-3.92711 -1.1169,-0.42436 -2.204,-0.93758 -3.3508,-1.27312 -0.5804,-0.16981 -1.1955,-0.19471 -1.799,-0.23373 -3.114,-0.20133 -6.2173,0.54446 -8.8583,2.22385 -11.9925,7.4953 -1.3925,24.45527 10.6,16.95995 z" /><path
       style="fill:#000000;fill-opacity:1;stroke-width:20;paint-order:markers stroke fill"
       id="path8546"
       d="m 1522.8671,954.329 c -2.4289,-2.06804 -3.0533,-6.18773 -2.0274,-9.1004 0.6131,-1.74058 2.1089,-3.02897 3.1633,-4.54347 4.8932,-0.78701 10.3752,-2.89013 13.3299,1.02936 -6.9536,-12.31448 -24.3689,-2.48047 -17.4153,9.834 v 0 c 0.6875,1.13771 3.2481,5.09479 4.5416,5.2391 3.9288,0.43825 7.9031,-0.22691 11.8546,-0.34036 1.1532,-1.59155 2.7734,-2.93286 3.4593,-4.77465 1.8217,-4.89145 -0.5252,-9.59278 -4.1023,-12.70801 -10.8643,-9.05357 -23.668,6.31086 -12.8037,15.36443 z" /><path
       style="fill:#000000;fill-opacity:1;stroke-width:20;paint-order:markers stroke fill"
       id="path8548"
       d="m 1957.7075,1054.1531 c 1.6727,0.9253 2.5835,2.9266 2.8651,4.7503 0.15,0.9707 -0.022,1.9643 -0.033,2.9465 -1.3529,3.2234 -0.9406,3.4401 -3.3352,5.4881 -1.6856,1.4417 -5.0181,2.0221 -6.7865,1.6692 -2.0887,-0.4169 -3.8478,-1.8503 -5.6466,-2.9908 -0.3984,-0.2527 -0.5682,-0.7534 -0.8523,-1.13 -0.2899,0.1529 -0.5645,-1.8747 -0.5645,-1.8883 -0.01,-1.4519 0.1484,-2.864 0.9211,-4.1461 0.5352,-0.888 1.298,-1.617 1.947,-2.4255 5.5807,-2.8739 2.4762,-2.1172 9.4258,-1.7471 -13.2641,-4.9056 -20.2017,13.8526 -6.9377,18.7582 v 0 c 7.5569,0.5795 4.126,1.3091 10.384,-1.704 0.8377,-0.9672 1.8186,-1.8268 2.5129,-2.9015 0.5868,-0.9083 0.9948,-1.9369 1.2857,-2.9784 0.9584,-3.4301 0.3059,-6.9295 -1.1733,-10.0847 -2.1526,-3.4755 -2.6178,-5.0823 -8.0161,-6.49 -3.6012,-0.9391 -8.6734,1.1875 -10.7678,4.2849 -0.8715,1.2887 -1.3201,2.8176 -1.9802,4.2264 -0.068,1.2595 -0.3445,2.5248 -0.2052,3.7784 0.458,4.1206 3.0992,7.2798 6.3566,9.5444 11.9925,7.4953 22.5924,-9.4647 10.5999,-16.96 z" /><path
       style="fill:#000000;fill-opacity:1;stroke-width:20;paint-order:markers stroke fill"
       id="path8550"
       d="m 2004.3513,1142.6852 c 0,-0.23 -0.016,-0.4604 0,-0.6898 0.013,0.1742 0.052,0.5199 0.01,0.6922 -0.1531,0.5802 -0.2467,1.1913 -0.5293,1.7206 -1.5166,2.8411 -1.8932,2.5296 -4.7258,4.3372 -0.609,0.1413 -1.2076,0.3393 -1.827,0.4238 -3.2612,0.4444 -6.2364,-2.1085 -7.6984,-4.7832 -0.5897,-1.0788 -0.6246,-2.3782 -0.937,-3.5673 0.067,-0.7666 0.01,-1.5546 0.2021,-2.2998 0.7627,-2.958 2.9406,-5.5091 5.9397,-6.2492 0.4151,-0.028 0.8301,-0.056 1.2452,-0.083 -14.1205,-0.7825 -15.2271,19.1868 -1.1066,19.9693 v 0 c 0.7475,-0.01 1.495,-0.019 2.2425,-0.028 2.3477,-0.3802 4.6665,-0.8483 6.6239,-2.3583 2.3041,-1.7775 3.5737,-3.4677 4.4164,-6.2351 0.312,-1.0249 0.2876,-2.1234 0.4313,-3.185 -0.3193,-1.4909 -0.293,-3.1006 -0.9581,-4.4726 -1.7202,-3.5484 -4.8488,-5.8135 -8.643,-6.4754 -0.8747,-0.1526 -1.7684,-0.2531 -2.6553,-0.2117 -1.1169,0.052 -2.2121,0.3271 -3.3182,0.4907 -1.4773,0.7965 -3.1225,1.3396 -4.4319,2.3894 -3.1717,2.5428 -4.3021,6.7497 -4.2774,10.6158 0,14.1421 20,14.1421 20,0 z" /><path
       style="fill:#000000;fill-opacity:1;stroke-width:20;paint-order:markers stroke fill"
       id="path8552"
       d="m 2105.5757,1031.2567 c 0.1697,0 0.3395,-0.01 0.509,0 0.017,0 -0.029,0.022 -0.046,0.02 -0.3303,-0.024 -0.6618,-0.045 -0.9889,-0.097 -1.2242,-0.1939 -2.1779,-0.8795 -3.1485,-1.5911 -0.5131,-0.622 -1.1227,-1.1757 -1.5394,-1.8661 -1.51,-2.5017 -1.5259,-5.558 -0.1118,-8.131 0.5305,-0.9653 1.3838,-1.7142 2.0757,-2.5713 0.6267,-0.4062 1.2301,-0.8508 1.8801,-1.2185 1.5302,-0.8658 3.4512,-0.6717 5.0753,-0.2766 3.5669,1.7913 1.6419,0.5225 4.1425,2.7361 0.063,0.056 -0.21,-0.2658 -0.1547,-0.2016 0.072,0.083 0.1363,0.1727 0.2044,0.2591 -7.8198,-11.7834 -24.4842,-0.7246 -16.6644,11.0589 v 0 c 1.5904,2.2775 3.4231,4.1612 6.1561,5.124 0.4872,0.1376 0.9626,0.3277 1.4617,0.4127 0.8545,0.1455 1.7192,0.2533 2.5857,0.2763 1.5293,0.041 3.8027,-0.3911 5.1857,-1.0552 0.9524,-0.4574 1.8266,-1.0623 2.74,-1.5934 0.9035,-1.029 2.0031,-1.9147 2.7106,-3.0873 2.0797,-3.4466 2.0322,-8.0225 0.1503,-11.5272 -0.5418,-1.0091 -1.3621,-1.8419 -2.0432,-2.7628 -0.6222,-0.5161 -1.1942,-1.0995 -1.8667,-1.5481 -2.4646,-1.6444 -5.3652,-2.4213 -8.3133,-2.3606 -14.1421,0 -14.1421,20 0,20 z" /><path
       style="fill:#000000;fill-opacity:1;stroke-width:20;paint-order:markers stroke fill"
       id="path8554"
       d="m 2152.4984,1103.5639 c -0.01,-0.098 -0.041,-0.1966 -0.022,-0.2926 0.01,-0.033 0.043,0.051 0.064,0.078 0.1104,0.1389 0.1047,0.1405 0.048,0.4351 -0.09,0.4697 -0.082,0.9908 -0.3395,1.394 -0.9419,1.4764 -2.1371,2.7751 -3.2056,4.1627 -1.0752,0.4721 -2.0992,1.0842 -3.2255,1.4165 -1.8509,0.5461 -4.5583,-0.017 -6.0193,-1.2685 -0.3489,-0.2989 -0.6698,-0.629 -1.0047,-0.9435 -0.9029,-1.1969 -1.7745,-2.5035 -1.6921,-4.0789 0.026,-0.4994 0.096,-0.9954 0.1444,-1.4931 1.2094,-2.9749 0.9072,-3.2923 3.2226,-5.3341 0.4894,-0.4316 1.105,-0.6943 1.6575,-1.0415 -12.8819,5.8358 -4.6289,24.0536 8.2531,18.2178 v 0 c 0.7626,-0.4424 1.6035,-0.7713 2.2879,-1.3271 2.8833,-2.3415 2.5773,-2.821 4.129,-6.2966 0.1,-0.7363 0.241,-1.4681 0.2988,-2.2088 0.1622,-2.0777 -0.3715,-4.7669 -1.3218,-6.6269 -0.4428,-0.8666 -1.0108,-1.6632 -1.5161,-2.4949 -0.5524,-0.5795 -1.0711,-1.1929 -1.6569,-1.7385 -2.4495,-2.2815 -6.8311,-3.7811 -10.1655,-3.0772 -1.5426,0.3257 -2.9612,1.0835 -4.4418,1.6253 -1.4038,1.6098 -3.0122,3.062 -4.2115,4.8295 -0.5202,0.7665 -0.6341,1.7442 -0.8588,2.6429 -0.6199,2.4796 -0.4011,5.1265 0.019,7.6112 2.9632,13.8282 22.5193,9.6376 19.5561,-4.1906 z" /><path
       style="fill:#000000;fill-opacity:1;stroke-width:20;paint-order:markers stroke fill"
       id="path8556"
       d="m 2092.7461,497.45944 c 0.5631,0.1745 -0.6163,-0.1806 0.8487,0.13772 0.075,0.0161 -0.1545,0.0282 -0.2294,0.0119 -0.3488,-0.0754 -0.7177,-0.11608 -1.0322,-0.28483 -0.9763,-0.52369 -2.5335,-0.70297 -2.8093,-1.77593 -1.1054,-4.29917 -0.707,-8.84979 -1.0605,-13.27471 0.5228,-0.52842 1.0106,-1.09405 1.5686,-1.58527 0.3186,-0.63342 1.0985,-0.5537 1.5649,-0.94618 0.1151,-0.0968 -0.2912,0.0831 -0.4243,0.15314 -0.9297,0.489 -1.8398,1.01444 -2.7596,1.52165 -11.3212,8.47537 0.6648,24.48589 11.9859,16.01052 v 0 c -0.8124,0.42674 -1.6374,0.8301 -2.4371,1.28021 -0.1401,0.0788 0.3044,-0.10393 0.4536,-0.16373 0.5612,-0.22481 1.138,-0.41658 1.6771,-0.68992 2.1539,-1.09189 2.0853,-1.31967 4.0268,-3.13487 -0.2593,-4.54342 0.3451,-9.22014 -0.7778,-13.63022 -0.323,-1.26849 -2.1048,-1.5712 -3.2529,-2.19982 -2.2015,-1.20534 -4.9185,-1.21722 -7.3425,-1.42976 -14.1422,0 -14.1422,19.99999 0,19.99999 z" /><path
       style="fill:#000000;fill-opacity:1;stroke-width:20;paint-order:markers stroke fill"
       id="path8558"
       d="m 2226.7543,531.49375 c 0.5228,2.80151 -1.3064,5.65825 -3.8303,6.82564 -0.5697,0.26353 -1.2059,0.34901 -1.8089,0.52353 -0.7556,-0.0143 -1.5703,0.25027 -2.2669,-0.043 -1.9234,-0.81002 -4.1106,-1.535 -5.392,-3.1823 -2.6496,-3.40622 -2.7975,-7.73051 -0.296,-10.8807 1.0165,-0.84997 0.42,-0.44032 1.8391,-1.15297 -13.4272,4.43963 -7.1486,23.42856 6.2786,18.98891 v 0 c 3.2297,-1.33483 1.667,-0.5206 4.6769,-2.46396 0.7459,-0.7138 1.5615,-1.36136 2.2379,-2.14138 1.3434,-1.54924 3.1468,-4.68789 3.082,-6.62041 -0.09,-2.69253 -0.4114,-5.61511 -1.9116,-7.85275 -3.0242,-4.51038 -5.7854,-4.18065 -9.8953,-4.58343 -3.1246,0.59015 -4.2911,0.47371 -7.0185,2.4303 -4.2706,3.06364 -5.8337,7.61027 -5.5405,12.63328 1.7541,14.03291 21.5996,11.55223 19.8455,-2.48071 z" /><path
       style="fill:#000000;fill-opacity:1;stroke-width:20;paint-order:markers stroke fill"
       id="path8560"
       d="m 2135.1433,381.93905 c 1.5081,4.27554 -2.5274,8.161 -6.582,8.97861 -1.211,0.24419 -2.465,-0.16867 -3.6975,-0.25299 -1.1847,-0.60008 -2.2211,-0.89281 -3.1084,-1.78237 -0.2129,-0.21349 -0.3354,-0.51945 -0.5829,-0.6917 -0.2077,-0.14454 0.2179,1.01487 -0.1948,0.0148 0.015,-0.49059 -0.039,-0.98835 0.045,-1.4718 0.5915,-3.36791 3.958,-5.52254 7.2918,-5.6112 1.6995,-0.0452 3.3053,0.79772 4.958,1.19655 2.6707,1.85137 3.9648,3.75526 4.1922,6.93261 0.5439,-14.13166 -19.4413,-14.90085 -19.9852,-0.76919 v 0 c 0.074,2.69864 0.402,5.56606 2.1649,7.7807 0.9384,1.17899 2.1625,2.09915 3.2437,3.14876 1.9328,0.56904 3.784,1.66449 5.7984,1.70711 5.5562,0.11756 10.1844,-4.29744 11.6831,-9.31608 0.3499,-1.17179 0.4051,-2.41205 0.6077,-3.61807 -0.042,-0.94594 -0.016,-1.89746 -0.1268,-2.83779 -0.4338,-3.66847 -2.1624,-8.36202 -5.0557,-10.77809 -1.246,-1.04056 -2.7078,-1.79152 -4.0616,-2.6873 -1.7746,-0.2826 -3.5365,-1.03349 -5.3239,-0.8478 -7.1053,0.73813 -11.0969,6.6285 -10.9268,13.28544 0.027,1.04762 0.2866,2.07621 0.4299,3.11431 3.8852,13.59802 23.1157,8.10358 19.2305,-5.49442 z" /><path
       style="fill:#000000;fill-opacity:1;stroke-width:20;paint-order:markers stroke fill"
       id="path8562"
       d="m 2269.2954,481.94732 c 1.8766,-0.19674 3.7537,-1.04529 5.6627,-1.01875 0.199,0.003 -0.3892,0.083 -0.5838,0.12448 -1.0367,-0.19666 -2.1293,-0.20108 -3.1102,-0.59002 -4.3707,-1.73302 -5.6444,-7.43233 -3.613,-11.35946 0.587,-1.13474 1.6407,-1.95887 2.461,-2.93833 2.9282,-2.29539 6.9987,-0.37502 9.5682,1.55535 0.8775,0.65924 1.2323,1.81661 1.8485,2.72492 -4.9501,-13.24755 -23.6849,-6.24718 -18.7349,7.00037 v 0 c 0.7718,1.32485 1.1719,2.9531 2.3154,3.97457 5.6089,5.0105 10.6923,4.55571 16.4852,1.12022 1.1709,-1.22531 2.6383,-2.22414 3.5128,-3.67593 3.3509,-5.5626 0.981,-13.21004 -4.6981,-16.18843 -1.5708,-0.82383 -3.3833,-1.0668 -5.075,-1.6002 -2.9639,0.0132 -6.0081,0.19455 -8.8672,1.07223 -14,2.00001 -11.1716,21.79899 2.8284,19.79898 z" /></g></svg>
