<?xml version="1.0" encoding="UTF-8" standalone="no"?>
<!-- Created with Inkscape (http://www.inkscape.org/) -->

<svg
   width="3840mm"
   height="2160mm"
   viewBox="0 0 3840 2160"
   version="1.1"
   id="svg5"
   inkscape:version="1.2.2 (732a01da63, 2022-12-09)"
   sodipodi:docname="sandwich mod.svg"
   xml:space="preserve"
   inkscape:export-filename="..\..\player\sandwich mod.png"
   inkscape:export-xdpi="96.096664"
   inkscape:export-ydpi="96.096664"
   xmlns:inkscape="http://www.inkscape.org/namespaces/inkscape"
   xmlns:sodipodi="http://sodipodi.sourceforge.net/DTD/sodipodi-0.dtd"
   xmlns="http://www.w3.org/2000/svg"
   xmlns:svg="http://www.w3.org/2000/svg"><sodipodi:namedview
     id="namedview7"
     pagecolor="#ffffff"
     bordercolor="#000000"
     borderopacity="0.25"
     inkscape:showpageshadow="2"
     inkscape:pageopacity="0.0"
     inkscape:pagecheckerboard="0"
     inkscape:deskcolor="#d1d1d1"
     inkscape:document-units="mm"
     showgrid="false"
     inkscape:zoom="0.064095193"
     inkscape:cx="6108.1023"
     inkscape:cy="5803.8673"
     inkscape:window-width="1920"
     inkscape:window-height="986"
     inkscape:window-x="-11"
     inkscape:window-y="-11"
     inkscape:window-maximized="1"
     inkscape:current-layer="layer1" /><defs
     id="defs2" /><g
     inkscape:label="Layer 1"
     inkscape:groupmode="layer"
     id="layer1"><g
       id="g10911"
       style="fill:#f2c897;fill-opacity:1"><path
         style="fill:#f2c897;stroke-width:20;paint-order:markers stroke fill;fill-opacity:1"
         id="path10851"
         d="m 2000.0252,981.08245 c 9.0097,-1.4247 3.4318,-3.7297 -1.8962,-20.03539 -0.1197,-0.36616 -4.9682,1.16425 -5.0333,1.18512 -13.2325,4.98997 -6.1756,23.70363 7.0569,18.71366 v 0 c -0.2508,0.055 -0.5003,0.11608 -0.7523,0.16505 -0.1363,0.0265 0.5584,-0.12824 0.5555,-0.14742 -4.2884,-27.99512 -9.6223,-17.79056 -2.1623,-19.77642 0.1947,-0.0518 -0.3979,0.0643 -0.5968,0.0964 -14,1.99998 -11.1715,21.79896 2.8285,19.79898 z" /><g
         id="g10897"
         style="fill:#f2c897;fill-opacity:1"><path
           style="fill:#f2c897;stroke-width:20;paint-order:markers stroke fill;fill-opacity:1"
           id="path10841"
           d="m 1670.2326,992.21619 c 8.0423,-0.007 3.231,0.69644 -0.3878,-19.80501 -0.082,-0.46651 -0.9423,0.1406 -1.3904,0.29459 -0.9519,0.32721 -1.8632,0.76263 -2.7948,1.14395 0.8486,16.52079 -3.7371,17.75423 5.709,18.91919 0.1562,0.0193 -0.314,-0.0225 -0.471,-0.0337 13.8368,2.92272 17.9702,-16.64552 4.1333,-19.56824 v 0 c -0.5907,-0.10284 -1.1799,-0.21548 -1.7723,-0.30858 -0.1307,-0.0206 -0.5192,-0.079 -0.3955,-0.0321 0.4741,0.1797 1.3851,-0.0672 1.4578,0.43468 0.8615,5.94567 0.8071,11.98838 1.2106,17.98254 -0.7875,0.29953 -1.5661,0.62376 -2.3626,0.8986 -0.1261,0.0435 -0.3883,0.18683 -0.3968,0.0536 -1.303,-20.43459 5.6713,-19.98133 -2.5395,-19.97959 -14.1421,0 -14.1421,20.00001 0,20.00001 z" /><path
           style="fill:#f2c897;stroke-width:20;paint-order:markers stroke fill;fill-opacity:1"
           id="path10843"
           d="m 1637.3512,1039.2509 c -0.4822,-0.4915 -0.2066,-0.2268 0.645,0.9477 8.4553,11.3362 24.4871,-0.6214 16.0318,-11.9576 v 0 c -0.4909,-0.5178 -0.079,-0.071 -1.0594,-1.484 -8.8345,-11.0431 -24.4519,1.4508 -15.6174,12.4939 z" /><path
           style="fill:#f2c897;stroke-width:20;paint-order:markers stroke fill;fill-opacity:1"
           id="path10845"
           d="m 1654.9083,1097.2973 c -4.7866,0.8798 -8.6675,-6.2644 -8.7432,-9.4623 -12.6906,-13.7253 3.8208,-5.3051 4.8888,-8.3477 0.089,-0.2545 -0.5314,0.092 -0.7971,0.1384 -9.3899,2.0067 -5.3471,2.1854 -1.404,20.3634 0.025,0.1132 2.5098,0.2208 2.9049,0.2409 6.9971,0.7247 7.2865,-19.8004 0.3826,-19.9797 -14.1396,-0.2718 -14.5238,19.7245 -0.3843,19.9963 v 0 c 7.0476,0.1192 7.9554,-20.0127 0.9238,-19.9953 -6.2074,-0.2144 0.5582,13.5185 0.6369,19.1492 0,0.2719 -0.548,0.083 -0.7885,0.2096 -0.6122,0.3235 3.7374,-1.2187 2.0276,-0.4519 5.4629,-1.2852 11.1003,-3.1541 11.6005,-10.732 0.5013,-7.5934 -4.2759,-9.3953 -9.3752,-10.9885 -0.5975,-0.1867 -1.2485,-0.094 -1.8728,-0.1404 -14.1422,0 -14.1422,20 0,20 z" /><path
           style="fill:#f2c897;stroke-width:20;paint-order:markers stroke fill;fill-opacity:1"
           id="path10847"
           d="m 1595.8001,1063 c 7.858,0 2.0712,0.4713 0.996,-20 -0.012,-0.2367 -0.4741,0 -0.7111,0 -0.2124,0 -0.4248,0 -0.6373,0 -6.9977,0.049 -6.4145,20 0.691,20 14.1421,0 14.1421,-20 0,-20 v 0 c -7.1055,0 -7.6887,19.9513 -0.691,20 0.2125,0 0.4249,0 0.6373,0 0.237,0 0.6987,0.2367 0.7111,0 1.0752,-20.4714 6.862,-19.9981 -0.996,-20 -14.1421,0 -14.1421,20 0,20 z" /><path
           style="fill:#f2c897;stroke-width:20;paint-order:markers stroke fill;fill-opacity:1"
           id="path10849"
           d="m 1605.8138,1016.8901 c 2.0922,-0.243 4.1256,-0.7502 6.1223,-1.4014 13.3362,-4.7059 6.6811,-23.56611 -6.6551,-18.86021 v 0 c 0.8184,-0.15856 -1.3233,0.34639 -1.4573,0.36084 -14.0719,1.40721 -12.0818,21.30797 1.9901,19.90077 z" /><circle
           id="path10871"
           style="fill:#f2c897;stroke:#000000;stroke-width:0.264583;fill-opacity:1"
           cx="2011.8716"
           cy="1014.9658"
           r="12.988494" /><path
           style="fill:#f2c897;stroke-width:20;paint-order:markers stroke fill;fill-opacity:1"
           id="path10879"
           d="m 2025.9459,1050.0217 c 0.1113,0.8815 0.163,1.7725 0.3339,2.6444 0.2117,1.0802 0.7471,2.4639 1.1667,3.4975 0.2449,0.6032 0.9479,2.2203 1.2672,2.7489 0.4979,0.8241 1.0748,1.5979 1.6121,2.3969 1.8324,2.2327 4.206,3.6272 6.8463,4.675 0.4226,0.1677 0.8577,0.3018 1.2888,0.4461 0.5609,0.1878 1.0953,0.334 0.6364,0.2068 19.0881,-20.9509 14.4104,-8.3219 11.3537,-15.884 -0.013,-0.033 0.059,0.045 0.074,0.076 0.079,0.1615 0.1375,0.3322 0.2062,0.4983 -3.6105,-13.6735 -22.9477,-8.5674 -19.3372,5.1061 v 0 c 0.5498,1.7971 0.4507,1.6968 1.2135,3.3534 3.2574,7.0736 3.9433,-1.2743 13.424,-11.9096 -0.084,-0.029 -1.307,-0.5219 -1.5328,-0.5032 -0.05,0 0.063,0.078 0.1015,0.1114 1.2046,1.0444 0.4686,0.2638 1.5821,1.6344 0.139,0.2808 0.289,0.5563 0.4171,0.8423 0.07,0.1556 -0.1683,-0.2969 -0.2417,-0.4508 -0.1177,-0.2465 -0.2201,-0.4999 -0.3311,-0.7494 -0.059,-0.1327 -0.06,-0.3147 -0.1792,-0.3972 -0.08,-0.056 0.02,0.1942 0.026,0.2916 0.027,0.4547 0.048,0.9098 0.072,1.3646 0,-14.1421 -20,-14.1421 -20,0 z" /><path
           style="fill:#f2c897;stroke-width:20;paint-order:markers stroke fill;fill-opacity:1"
           id="path10881"
           d="m 2064.4471,1011.1058 c 0.043,-0.2028 0.2353,-1.1456 0.3074,-1.3406 0.029,-0.077 0.014,0.1679 -0.01,0.2469 -0.09,0.3037 -0.1955,0.6038 -0.3267,0.8919 -0.256,0.562 -0.4242,0.6973 -0.8142,1.1567 -4.3598,3.9244 -10.033,-0.4232 -13.9898,-3.0901 -0.9867,-0.6651 -0.7633,-2.2548 -1.1884,-3.3661 -0.011,-0.03 -0.089,-0.019 -0.094,0.013 -0.082,0.5137 -0.1043,1.0353 -0.1564,1.553 -0.1792,1.3057 -0.3848,2.6344 -0.8249,3.8841 -0.016,0.045 -0.035,-0.1002 -0.012,-0.1419 0.4737,-0.8704 0.993,-1.7152 1.4895,-2.5727 -9.3574,10.6037 5.6386,23.837 14.996,13.2333 v 0 c 0.698,-1.086 1.4835,-2.1204 2.0941,-3.2579 0.3355,-0.6251 0.516,-1.323 0.7282,-1.9999 0.7359,-2.347 1.1343,-4.7941 1.4371,-7.2284 0.2203,-2.3617 0.9093,-8.3182 -1.0225,-9.89513 -6.937,-5.66261 -10.0758,-6.99021 -15.9058,-2.78421 -0.6467,0.5715 -1.3448,1.08966 -1.9402,1.7145 -2.3924,2.51114 -3.7986,5.67344 -4.3798,9.06134 -2.7735,13.8676 16.8381,17.7899 19.6116,3.9224 z" /><path
           style="fill:#f2c897;stroke-width:20;paint-order:markers stroke fill;fill-opacity:1"
           id="path10883"
           d="m 2003.2419,980.79818 c -0.022,0.0116 -0.088,0.041 -0.064,0.0348 1.9493,-0.5184 6.1532,-1.70313 6.0635,-3.63607 -0.265,-5.71007 -3.1997,-11.03556 -5.7174,-16.16749 -0.1542,-0.31433 -2.5361,-0.24763 -3.2641,-0.23847 3.1362,-0.11314 6.0387,1.97149 7.7269,4.6115 1.0449,1.63401 0.8946,3.77449 1.3419,5.66174 1.1556,-14.09486 -18.7775,-15.72914 -19.9331,-1.63428 v 0 c 0.4369,2.01388 0.2354,4.28374 1.3108,6.04166 2.3949,3.91514 5.9607,5.25078 10.0498,5.31323 -6.7258,-1.00926 -6.3767,-0.46273 -6.9383,-16.3203 -0.066,-1.85142 3.0612,-2.08941 4.6342,-3.06803 0.135,-0.084 0.6199,-0.14202 0.4654,-0.10445 -0.3892,0.0946 -0.7798,0.1838 -1.1697,0.27572 -13.598,3.88514 -8.1036,23.11561 5.4945,19.23047 z" /><path
           style="fill:#f2c897;stroke-width:20;paint-order:markers stroke fill;fill-opacity:1"
           id="path10885"
           d="m 1665.1866,987.31505 c -0.8183,-2.10743 -1.1098,-2.32613 -0.9292,-5.00901 0.053,-0.78338 0.3942,-1.52003 0.591,-2.2801 0.051,-0.1965 0.4025,-0.7022 0.2782,-0.54176 -0.1563,0.20153 -0.2657,0.4354 -0.3986,0.6531 -7.164,12.19332 10.08,22.32472 17.244,10.13142 v 0 c -0.5951,0.9021 0.8521,-1.35458 1.0393,-1.86965 0.3905,-1.07402 0.8986,-2.13183 1.0452,-3.26517 0.4442,-3.43418 -0.016,-3.92004 -0.9813,-6.76309 -6.3246,-12.64912 -24.2132,-3.70486 -17.8886,8.94426 z" /></g></g></g></svg>
