<?xml version="1.0" encoding="UTF-8" standalone="no"?>
<!-- Created with Inkscape (http://www.inkscape.org/) -->

<svg
   width="3840mm"
   height="2160mm"
   viewBox="0 0 3840 2160"
   version="1.1"
   id="svg5458"
   inkscape:version="1.2.2 (732a01da63, 2022-12-09)"
   sodipodi:docname="abnormal growth.svg"
   xml:space="preserve"
   inkscape:export-filename="abnormal growth.png"
   inkscape:export-xdpi="96.096664"
   inkscape:export-ydpi="96.096664"
   xmlns:inkscape="http://www.inkscape.org/namespaces/inkscape"
   xmlns:sodipodi="http://sodipodi.sourceforge.net/DTD/sodipodi-0.dtd"
   xmlns="http://www.w3.org/2000/svg"
   xmlns:svg="http://www.w3.org/2000/svg"><sodipodi:namedview
     id="namedview5460"
     pagecolor="#ffffff"
     bordercolor="#000000"
     borderopacity="0.25"
     inkscape:showpageshadow="2"
     inkscape:pageopacity="0.0"
     inkscape:pagecheckerboard="0"
     inkscape:deskcolor="#d1d1d1"
     inkscape:document-units="mm"
     showgrid="false"
     inkscape:zoom="0.04"
     inkscape:cx="5887.5"
     inkscape:cy="4375"
     inkscape:window-width="1920"
     inkscape:window-height="986"
     inkscape:window-x="-11"
     inkscape:window-y="-11"
     inkscape:window-maximized="1"
     inkscape:current-layer="layer1" /><defs
     id="defs5455" /><g
     inkscape:label="Layer 1"
     inkscape:groupmode="layer"
     id="layer1"><g
       id="g5577"
       transform="translate(-26.458333,-99.21875)"><g
         id="g2724"
         transform="rotate(3.5855574,3555.5122,7240.3031)"><path
           style="fill:#000000;stroke:#000000;stroke-width:10;stroke-dasharray:none;paint-order:markers stroke fill"
           id="path2059"
           d="m 883.70573,1526.7157 c -2.17805,1.3203 -4.46524,2.4753 -6.53415,3.9608 -18.23707,13.0938 -31.2755,34.0091 -43.44445,52.4462 -2.37427,3.8276 -4.82447,7.6092 -7.12277,11.4829 -7.43857,12.5375 -4.76107,9.0414 -11.96602,21.0302 -4.42148,7.3573 -9.24854,14.4656 -13.67554,21.8196 -2.41478,4.0113 -4.6953,8.1019 -7.04295,12.1528 -5.9232,10.1544 -11.23264,20.655 -16.34606,31.2353 -1.12377,2.3253 -5.75281,12.0935 -6.83464,14.9758 -0.89903,2.3952 -1.53921,4.8796 -2.30881,7.3194 -0.26032,3.0917 -1.15056,6.1945 -0.78094,9.2751 1.16086,9.6748 4.57107,15.6509 13.41295,20.8274 8.0687,4.7237 18.70993,3.2459 27.48856,2.648 5.9811,-0.4028 12.06252,-1.3988 18.07052,-0.6548 8.43568,1.0445 16.49552,3.6539 24.43024,6.5537 4.0952,2.2996 12.76544,4.9892 14.4281,10.2883 0.11854,0.3777 -0.0265,0.7935 0.0114,1.1876 0.0718,0.748 0.21124,1.488 0.31689,2.2321 0.81304,12.1588 0.0257,24.4391 -0.49469,36.6087 -0.15322,3.5832 -0.50959,7.1612 -0.50384,10.7477 0.006,3.6631 0.35914,7.3173 0.53871,10.976 0.91017,3.7243 1.23344,7.6434 2.73045,11.173 3.68528,8.689 8.78951,14.9272 17.1659,19.5005 10.18019,5.5581 26.37187,7.6205 37.81084,9.5559 5.44407,0.8693 13.98447,2.1848 19.58784,3.247 2.82766,0.536 7.25242,1.2204 10.09201,2.7085 1.60557,0.8414 -0.12777,0.9873 -0.49766,1.0945 9.31053,18.3631 19.46473,36.3709 30.68989,53.6402 2.79781,4.3043 5.78972,8.4792 8.68458,12.7189 9.34991,12.6428 18.01371,26.5816 31.59191,35.2161 8.6955,5.5296 12.039,5.7935 21.7027,8.6402 19.2895,4.0118 38.3563,-0.4636 56.9226,-5.6358 8.2342,-1.9371 16.2902,-5.2504 24.6963,-6.4718 1.8788,-0.2729 5.136,0.073 6.953,0.2039 6.4258,0.8113 10.1722,1.8339 15.0515,5.8956 13.0001,9.7129 26.4986,18.8148 40.6662,26.7386 9.2705,4.8124 19.2026,7.7401 29.7117,7.5374 5.7182,-0.1102 8.7778,-0.9643 14.2608,-2.0658 6.458,-1.147 12.8329,-2.6915 19.2626,-3.9817 3.2315,-0.6485 6.3344,-1.7069 9.6471,-1.0617 1.7588,0.3425 3.4336,1.0263 5.1504,1.5394 33.7756,11.153 65.978,26.5028 98.6126,40.5501 10.7038,4.8959 21.9092,8.0089 33.801,6.775 12.0401,-1.2493 22.0322,-6.293 32.5725,-11.6971 12.9234,-7.5212 25.9881,-14.8704 40.0991,-19.9167 6.982,-2.558 13.92,-1.5656 21.1055,-0.5481 3.9216,0.5553 7.8397,1.136 11.7595,1.704 12.6965,1.6691 25.3205,3.8254 37.9655,5.8346 8.5101,1.3523 11.877,2.1067 20.4057,2.5217 2.7699,0.1347 5.5464,0.01 8.3196,0.014 8.4474,-0.7647 17.5768,-1.1409 25.2719,-5.2024 2.5561,-1.3491 4.8806,-3.0973 7.321,-4.646 12.6202,-9.1655 24.8121,-18.8947 37.8708,-27.4401 4.2918,-1.9972 11.1818,-7.1876 16.2705,-6.7209 1.1224,0.1029 2.2012,0.4862 3.3018,0.7294 24.8575,5.0013 49.1726,12.2742 73.6036,18.9812 9.0944,2.3105 21.7411,5.9776 31.073,3.2892 10.9213,-3.1462 12.0629,-5.3269 20.6064,-12.0457 11.8059,-10.5214 21.5536,-22.9978 32.0701,-34.7312 4.9639,-5.5383 8.8213,-9.4502 13.9449,-14.767 7.5921,-8.1042 15.58,-14.5149 26.6618,-16.8475 2.9643,-0.624 5.9891,-0.9147 8.9837,-1.3721 3.9782,-0.4309 7.945,-0.9844 11.9345,-1.2929 18.2707,-1.4126 36.637,-1.5179 54.9467,-1.927 19.721,-0.4405 13.7102,-0.2788 32.1823,-1.0072 11.41,-0.8973 24.0495,-0.8242 34.4723,-6.4656 4.2451,-2.2976 8.1692,-5.2323 11.731,-8.4901 5.3633,-4.9053 10.1148,-12.6791 14.149,-18.6888 5.2087,-8.0052 9.1074,-16.7521 14.0613,-24.9023 3.2891,-5.4114 6.9746,-10.6425 10.6359,-15.8068 2.0632,-2.4545 3.9972,-5.1809 6.5664,-7.1613 2.6739,-2.0609 6.0775,-3.472 9.0858,-4.9208 12.1729,-5.2935 23.9988,-11.338 35.4838,-17.9831 6.2901,-3.6771 12.3782,-7.6787 18.4619,-11.6826 2.6789,-1.7632 7.6114,-4.8736 9.9434,-6.9883 2.1933,-1.9889 4.1029,-4.2698 6.1543,-6.4047 1.6594,-2.7699 3.5655,-5.4062 4.9781,-8.3097 5.1639,-10.6141 6.6854,-24.4814 8.5023,-36.0574 1.9049,-12.2022 2.7087,-24.5566 5.3272,-36.6414 0.2752,-1.1548 0.5086,-2.3203 0.8255,-3.4644 0.1441,-0.5202 0.3344,-1.0287 0.5555,-1.5211 0.07,-0.1547 0.3669,-0.5635 0.3093,-0.404 -0.2729,0.7545 -0.5804,1.5005 -0.9611,2.2067 -0.2941,0.5455 -1.1827,0.9249 -1.0544,1.5312 0.093,0.4412 0.8644,-0.2575 1.2966,-0.3862 10.9629,-5.5344 22.1309,-10.625 32.9374,-16.4662 7.613,-4.232 15.8179,-8.2499 20.5616,-16.0325 4.4452,-7.2929 4.4316,-11.5796 5.6453,-19.4111 0.5497,-10.8237 1.3517,-21.8263 0.1634,-32.6455 -0.843,-7.6751 -1.9901,-11.9407 -3.6323,-19.2657 -0.1067,-0.4179 -2.7571,-10.563 -2.9635,-12.1102 -0.032,-0.241 0.2362,-0.7893 0.4003,-0.6099 0.3279,0.3584 0.3707,0.9327 0.3383,1.4173 -0.2932,4.3831 -1.0637,1.9403 -0.4614,3.6329 7.3709,-4.2594 13.9301,-7.0586 18.4833,-15.3963 2.079,-3.807 2.3774,-8.3431 3.5661,-12.5146 -0.051,-3.3516 0.193,-6.7206 -0.1524,-10.0546 -1.5505,-14.9675 -8.7016,-29.0269 -15.9717,-41.911 -11.4352,-16.9797 -24.7881,-32.6521 -38.9786,-47.3856 -9.3306,-9.3264 -17.8097,-19.4553 -27.6955,-28.2077 -5.6356,-5.2516 -12.7892,-7.8095 -19.7024,-10.7934 -0.9771,-0.9008 -2.7209,-0.706 -3.7682,-1.5759 -0.2258,-0.1875 -0.2146,-0.5618 -0.4141,-0.777 -3.3129,-3.5724 -7.0578,-6.8708 -10.541,-10.2771 -4.68,-4.4857 -9.3818,-8.8144 -15.3838,-11.5442 -8.1631,-3.7127 -16.8084,-4.4728 -25.5844,-5.3103 -3.8322,-0.1475 -7.6617,-0.4029 -11.4966,-0.4424 -19.4815,-0.2009 -39.0274,1.0852 -58.4918,1.6291 -29.555,0.8258 -37.2903,0.8855 -68.108,1.4471 -93.24,1.54 -186.5042,0.8013 -279.7448,2.2567 -21.924,0.3422 -43.843,0.9521 -65.7644,1.4281 -101.1298,3.467 -202.3522,5.674 -303.3099,12.8997 -16.9277,1.2116 -33.8297,2.7573 -50.7445,4.1359 -46.5339,3.8257 -92.85,9.7636 -138.6872,18.663 -6.9192,1.3434 -13.84,2.6927 -20.7085,4.2751 -6.0823,1.4013 -12.0881,3.1156 -18.1322,4.6734 -20.9944,5.8972 -41.4663,13.4509 -61.23605,22.6304 -1.2769,0.5896 -2.52063,1.2572 -3.83071,1.7689 -1.39452,0.5447 -2.85547,0.9024 -4.26924,1.3948 -2.86028,0.9962 -5.70116,2.0471 -8.55173,3.0707 -2.93764,0.9948 -5.88097,1.9729 -8.8129,2.9844 -10.49698,3.6213 -7.89485,2.7225 -18.1428,6.6943 -13.35439,4.925 -26.33948,10.8117 -38.60469,18.0375 -7.19016,3.8115 -13.30685,8.9482 -18.95671,14.75 -1.67047,1.4826 -2.73513,3.5089 -4.27826,5.1054 -0.2944,1.0068 0.45509,-0.8085 0.24977,-0.6809 -2.28619,1.6334 -1.29371,0.9961 -2.92402,1.9924 -0.0833,0.017 -0.1888,0.1109 -0.24982,0.052 -0.0571,-0.055 0.39616,-0.3432 0.34719,-0.3278 -0.47017,0.1479 -2.97516,1.0466 -3.89424,1.3754 -26.62629,9.5415 -13.13254,47.1968 13.49375,37.6553 v 0 c 4.0718,-1.4612 8.26928,-2.6812 11.92421,-5.1014 5.27161,-3.4468 10.59103,-7.1017 14.20101,-12.3834 1.95053,-2.1025 0.84759,-0.982 3.35129,-3.3194 0.0512,-0.055 -0.11017,-0.1678 -0.0545,-0.218 2.13228,-1.9228 5.11201,-2.7537 7.32465,-4.5722 10.21709,-6.2751 21.40894,-10.7946 32.56835,-15.0844 13.87832,-5.4185 28.19723,-9.6315 42.04905,-15.1096 1.3427,-0.531 2.6217,-1.2108 3.9326,-1.8162 17.5575,-8.1865 35.7593,-14.874 54.3983,-20.1769 5.3978,-1.4074 10.7583,-2.9662 16.1933,-4.2221 6.5903,-1.5228 13.2317,-2.8191 19.8711,-4.1113 44.5107,-8.6631 89.4894,-14.4205 134.6812,-18.1314 16.6629,-1.3605 33.3131,-2.8867 49.9887,-4.0815 100.4157,-7.1945 201.0959,-9.3738 301.6828,-12.8311 21.7568,-0.4735 43.511,-1.0806 65.2703,-1.4204 93.3586,-1.4579 186.7409,-0.7149 280.0989,-2.2616 31.1507,-0.5684 38.7744,-0.6256 68.6513,-1.4608 18.56,-0.5188 37.1987,-1.733 55.775,-1.6349 3.142,0.017 6.2806,0.2088 9.4209,0.3133 3.0632,0.2368 6.1085,0.6778 9.1723,0.9068 0.3873,0.029 0.7829,-0.023 1.1589,-0.1203 0.1537,-0.04 0.2506,-0.3623 0.3858,-0.2792 1.191,0.7314 5.1416,4.4897 5.8041,5.1004 8.041,7.8636 15.9574,16.883 26.8416,20.7582 1.1386,0.4912 3.9721,1.7174 4.7694,2.038 1.7393,0.6995 2.837,0.5252 4.4622,2.1504 9.166,7.8293 16.4968,17.5696 25.2312,25.8623 11.9442,12.3504 23.0986,25.5201 33.0678,39.5167 4.82,8.1896 8.7618,16.8017 11.2818,25.9896 3.8433,-4.8992 0.058,-0.5718 6.5979,-5.8823 0.658,-0.5343 -1.4308,0.9101 -2.164,1.3355 -5.1421,2.9842 -10.4843,5.6753 -14.8271,9.8447 -5.6376,6.1435 -7.6606,7.1956 -10.5663,15.768 -3.3154,9.7814 -0.4128,19.9539 2.131,29.4622 0.6512,2.8048 2.3323,9.6693 2.699,12.6577 1.0284,8.379 0.2992,16.9063 0.095,25.3064 -0.2435,6.0054 0.2893,0.7381 4.1716,-0.6111 0.8309,-0.2887 -1.3969,1.0719 -2.1318,1.5552 -2.6474,1.7415 -4.7989,2.8419 -7.6285,4.401 -10.827,5.8868 -22.105,10.8514 -33.043,16.5237 -5.5446,3.2847 -8.2483,4.2513 -12.4787,9.1869 -4.8291,5.6339 -6.9583,12.63 -8.4702,19.7223 -2.6382,12.7871 -3.9101,25.7567 -5.7011,38.6781 -0.9039,5.7599 -1.578,11.6101 -2.8797,17.3004 -0.4879,2.1331 -1.483,4.1956 -1.5315,6.3832 0,0.2184 0.2143,0.3806 0.3215,0.5709 -0.048,0.2687 0.049,0.6135 -0.1442,0.8061 -1.5401,1.5343 -6.514,4.6293 -7.8306,5.4964 -5.468,3.6015 -10.9334,7.2115 -16.5867,10.5204 -10.7071,6.2855 -21.8698,11.7447 -33.2235,16.7624 -5.2525,2.6767 -7.939,3.8219 -12.7853,7.1697 -6.9467,4.7989 -12.7057,10.8292 -17.675,17.628 -4.413,6.27 -8.8019,12.6162 -12.7729,19.1785 -3.658,6.0452 -4.9417,9.022 -8.3497,15.1461 -1.3773,2.4749 -2.8288,4.9079 -4.2432,7.3619 -1.4011,2.1541 -2.7986,4.3107 -4.2035,6.4624 -0.8456,1.2952 -1.877,2.4845 -2.5481,3.8782 -0.2278,0.4732 0.3109,1.2194 -0.077,1.5737 -4.3903,4.0107 -16.9839,3.1405 -21.7623,3.8564 -29.9647,1.1911 -60.0825,0.678 -89.983,3.1496 -4.8141,0.3979 -9.5986,1.0971 -14.398,1.6457 -4.8159,0.9104 -9.6972,1.5254 -14.4479,2.7313 -17.0073,4.3168 -31.231,14.5524 -43.112,27.1445 -6.0156,6.2522 -9.4272,9.6949 -15.3169,16.2663 -9.1137,10.1687 -17.5472,20.9786 -27.5659,30.3096 -0.9598,0.9585 -2.631,1.5421 -2.8793,2.8756 -0.1412,0.7575 1.5738,-0.021 2.2992,0.2385 0.1868,0.067 -0.2035,0.405 -0.3984,0.442 -4.787,0.9096 -9.8727,-2.2249 -14.4301,-2.7061 -27.1415,-7.4503 -54.1445,-15.8105 -81.9714,-20.3465 -4.2072,-0.052 -8.4237,-0.4394 -12.6216,-0.1562 -10.7102,0.7227 -22.0291,7.5124 -31.1291,12.6514 -13.3218,8.7749 -25.9044,18.5476 -38.73,28.0204 -0.235,0.3093 -0.5408,0.5759 -0.705,0.9279 -0.038,0.082 0.2538,0.1567 0.1771,0.2039 -2.1567,1.3298 -7.1627,0.9589 -9.572,1.5722 -7.6064,0.1928 -14.5356,-0.8355 -22.0823,-2.0347 -12.8455,-2.0411 -25.6706,-4.2259 -38.5677,-5.9263 -6.3331,-0.9116 -18.0363,-2.7424 -24.5694,-3.1298 -9.417,-0.5583 -18.754,0.9664 -27.6608,3.9636 -15.7564,5.7797 -30.628,13.5075 -45.0362,22.0961 -5.08,2.7632 -10.0445,5.4022 -15.5794,7.149 -0.8558,0.2701 -1.7126,0.6513 -2.61,0.6602 -5.216,0.051 -8.8123,-2.2427 -13.7849,-4.2081 -15.6598,-6.7399 -31.2467,-13.6475 -46.9078,-20.3837 -13.3422,-5.7387 -27.9982,-12.102 -41.7063,-16.9613 -5.9575,-2.1118 -12.0547,-3.8065 -18.0821,-5.7097 -4.733,-0.7573 -9.4178,-1.9332 -14.199,-2.2719 -11.7646,-0.8334 -24.3654,4.3769 -35.9861,5.9125 -1.8702,0.4598 -4.8935,1.4806 -6.8561,1.4743 -3.2803,-0.011 -6.3914,-1.522 -9.3055,-2.8081 -12.5696,-6.9097 -24.3986,-15.139 -35.9265,-23.6495 -4.0336,-2.9568 -5.638,-4.3747 -10.1778,-6.6844 -8.6108,-4.3811 -18.0163,-6.4753 -27.5938,-7.303 -7.9521,-0.158 -9.0871,-0.5149 -17.1633,0.7445 -9.0816,1.4163 -17.8156,4.8097 -26.7141,6.9809 -11.6204,3.2785 -23.6733,6.8562 -35.8597,5.4935 -4.1813,-0.8102 -8.6832,-1.5605 -12.0376,-4.4915 -7.4852,-6.5405 -12.3549,-15.6832 -18.5239,-23.3055 -8.5771,-12.4856 -16.2554,-24.723 -23.8124,-37.8673 -2.37145,-4.1249 -4.69478,-8.2778 -6.97356,-12.4547 -1.95172,-3.5773 -3.65651,-7.2905 -5.71698,-10.8063 -1.87344,-3.1967 -4.04831,-6.207 -6.07245,-9.3105 -2.87578,-2.7268 -5.44743,-5.8153 -8.62732,-8.1805 -11.38801,-8.4702 -30.33324,-8.8541 -43.75052,-11.6406 -3.47594,-0.5752 -6.96381,-1.0824 -10.42782,-1.7255 -3.05183,-0.5667 -6.04869,-1.4238 -9.11547,-1.9032 -1.00476,-0.1571 -2.12924,-0.4285 -3.05089,0 -0.50924,0.2375 0.59664,3.5172 -0.58158,2.8499 -0.77189,-0.4372 -0.80597,-1.5806 -1.20896,-2.3709 -0.17076,-2.2452 -0.51289,-4.484 -0.51226,-6.7358 0,-3.6915 0.36063,-7.3742 0.51734,-11.0625 0.55766,-13.125 1.52816,-26.5501 0.51337,-39.6756 -0.24085,-3.1153 -0.97697,-6.1724 -1.46547,-9.2586 -2.46348,-7.8213 -2.68438,-10.4266 -7.47411,-17.4589 -7.7625,-11.3971 -20.21858,-17.9752 -32.5451,-23.2178 -3.97346,-1.3587 -7.88519,-2.9135 -11.92035,-4.0762 -15.4419,-4.4496 -30.76948,-6.0554 -46.68959,-3.9829 -1.75755,0.1334 -3.51684,0.2455 -5.27262,0.4002 -0.8296,0.073 -2.74852,-0.5057 -2.48229,0.2834 0.40745,1.2078 2.36754,1.0918 3.25493,2.0067 4.15208,4.2811 8.39983,9.4333 5.62835,15.6579 1.21319,-5.4892 4.1829,-10.7595 6.60617,-15.7791 4.72892,-9.7957 9.61524,-19.5312 15.10895,-28.9249 2.10875,-3.654 4.15038,-7.3475 6.32621,-10.9619 7.81648,-12.9845 6.62424,-10.08 14.47147,-23.1481 11.35771,-18.9141 0.53546,-1.7091 11.26505,-19.8543 2.10283,-3.5561 4.34698,-7.0268 6.52045,-10.5402 7.13023,-10.8423 14.15571,-21.7367 22.59975,-31.6299 8.16708,-9.5687 2.90516,-2.9596 9.67637,-9.5723 0.10745,-0.1049 0.0385,-0.2978 0.0578,-0.4468 25.99735,-11.1417 10.24059,-47.9075 -15.75676,-36.7658 z" /><ellipse
           style="fill:#ff8080;fill-opacity:1;stroke:#000000;stroke-width:100;stroke-dasharray:none;paint-order:markers stroke fill"
           id="ellipse7674"
           cx="1495.5477"
           cy="1249.6635"
           rx="619.125"
           ry="603.25018" /><path
           style="fill:#ff8080;fill-opacity:1;stroke:#000000;stroke-width:167.033;stroke-dasharray:none;paint-order:markers stroke fill"
           d="m 8030.3664,5565.7038 c -102.0624,262.8728 -242.1412,512.336 -425.962,726.8922 -302.2586,356.6794 -704.0228,628.3674 -1149.3036,772.0093 -585.5349,192.4914 -1239.9719,165.8085 -1807.2875,-75.5615 -448.1056,-188.432 -839.6987,-509.5688 -1110.7775,-913.1994 -37.3093,-52.192 -66.0418,-111.2648 -105.2978,-161.4382 -57.6655,33.0264 -90.3348,95.0925 -127.9265,147.5949 -56.9343,92.8814 -113.3938,186.0966 -167.7685,280.4818 -10.0752,21.1661 -40.7194,55.5115 3.6795,47.7023 83.6311,9.7619 169.4128,36.4978 234.3314,92.0571 47.8389,44.7293 72.6259,111.2761 67.2049,176.3868 0.7563,55.6768 -1.4298,112.1541 0.3625,167.3337 74.0484,16.3569 152.6853,17.6263 223.1633,47.0167 77.023,37.8644 102.7282,127.5557 147.3381,194.4069 44.014,69.7594 84.7003,143.6822 142.4704,203.1594 40.2473,29.537 94.112,9.3434 138.1374,1.1581 63.7739,-14.4748 127.6708,-41.6129 193.8195,-36.9968 60.5272,5.566 118.9802,26.14 166.8071,64.1074 45.5975,30.1727 88.9735,66.492 140.2561,86.4118 63.3446,-1.8329 125.1162,-30.1884 189.3617,-21.3376 106.8706,15.4106 203.9754,67.7289 303.3694,107.1421 61.958,25.3207 122.9388,54.9835 186.2796,75.9185 109.2385,-43.3448 207.6341,-125.9189 329.8579,-127.9264 108.0949,6.5304 214.0403,33.4055 321.9802,41.109 28.339,7.6873 49.2459,-8.2917 69.5621,-25.7844 76.2069,-52.2662 149.4141,-121.8474 244.1064,-136.1024 89.7774,-4.1047 176.4433,28.4926 262.9175,48.7131 45.5954,11.9984 91.1262,25.457 136.7097,36.7144 91.7192,-87.4927 161.7614,-201.6459 275.1347,-263.9308 105.1699,-50.9156 225.776,-43.2118 339.406,-49.8306 80.4292,-2.9468 161.2398,-4.0481 241.3503,-10.1854 57.1986,-83.8131 95.975,-182.1465 170.4585,-252.8995 83.6596,-66.0366 190.6135,-94.8737 273.9862,-161.4381 28.5468,-37.5002 22.6297,-89.2685 32.7709,-133.2027 12.3925,-61.2344 11.6748,-129.2253 46.8564,-183.0878 50.7036,-58.1005 132.6351,-73.1806 192.1585,-119.5142 11.6867,-29.4488 0.6996,-63.8504 -1.1221,-94.6213 -8.8278,-61.009 -37.6013,-128.9892 -1.8212,-186.8144 14.8616,-26.017 40.1305,-43.9134 60.3524,-64.7548 -48.9548,-118.4668 -150.0626,-202.5314 -233.4115,-296.034 l -1.8531,-1.966 z"
           id="path2179"
           transform="scale(0.26458333)" /><path
           style="fill:#ff8080;fill-opacity:1;stroke:none;stroke-width:10;stroke-dasharray:none;paint-order:markers stroke fill"
           id="path2592"
           d="m 1008.5699,1753.5023 c 2.8477,-1.7757 5.7488,-3.4686 8.5432,-5.3272 2.0812,-1.3842 4.0324,-2.955 6.075,-4.3954 9.1202,-6.4315 17.4876,-12.1205 26.9784,-18.2631 16.4574,-10.6515 27.3944,-17.2263 44.3179,-27.6261 7.3401,-4.4583 14.6803,-8.9167 22.0204,-13.3751 30.2177,-18.3546 4.2604,-61.0888 -25.9573,-42.7342 v 0 c -7.4149,4.5041 -14.8299,9.0081 -22.2448,13.5122 -21.168,13.013 -42.3126,26.0015 -62.8843,39.9479 -3.8842,2.6333 -7.72284,5.3335 -11.55562,8.0412 -2.25222,1.591 -4.73184,2.9214 -6.69854,4.8543 -0.71964,0.7073 1.89074,-0.7055 2.8361,-1.0583 -32.82662,13.1307 -14.25708,59.5545 18.56956,46.4238 z" /><path
           style="fill:#ff8080;fill-opacity:1;stroke:none;stroke-width:10;stroke-dasharray:none;paint-order:markers stroke fill"
           id="path2594"
           d="m 929.65078,1619.0486 c 6.17847,-5.8978 12.22849,-11.9333 18.27075,-17.9714 1.98948,-1.9383 3.78415,-4.0766 5.82906,-5.9599 0.64151,-0.5909 1.34626,-1.1425 2.00166,-1.7229 0.0938,0.047 -1.8537,1.4085 -1.46759,1.1417 0.72498,-0.5009 1.45478,-0.9957 2.15897,-1.5255 0.94062,-0.7076 2.26274,-1.8863 1.40094,-1.1218 -0.80981,0.9452 -2.13849,1.1705 -3.03247,1.9824 -0.0847,0.077 2.88491,-1.5819 2.33561,-1.2958 -0.40015,0.2084 -1.58713,0.8579 -1.18184,0.6597 0.8223,-0.4021 1.62245,-0.8479 2.43366,-1.2719 4.31472,-2.5336 8.3838,-5.4637 12.54279,-8.2426 7.45961,-4.7253 15.0763,-9.1773 22.7689,-13.5099 30.80258,-17.3551 6.25885,-60.9166 -24.54378,-43.5616 v 0 c -8.79528,4.9572 -17.50208,10.0605 -26.00888,15.5015 -2.91955,1.9518 -5.85952,3.9421 -8.72564,5.9309 1.37554,-0.5518 0.32043,-0.1418 -2.35413,1.2325 -0.1038,0.053 -0.40987,0.2214 -0.30208,0.1768 0.19413,-0.08 0.74478,-0.3891 0.56245,-0.2847 -0.96655,0.5537 -1.96919,1.0454 -2.91563,1.6327 -0.80041,0.4968 -1.54577,1.0771 -2.31867,1.6157 -0.43276,0.3455 -0.87286,0.682 -1.29826,1.0365 -0.52583,0.4382 2.24875,-1.5619 1.68669,-1.1713 -1.6778,1.1663 -3.38984,2.2576 -4.89807,3.6499 -3.49205,3.0951 -6.88306,6.2888 -10.02371,9.747 -3.15746,3.1579 -6.33124,6.2998 -9.50574,9.4405 -0.43643,0.4318 -4.65267,4.5448 -5.51072,5.45 -0.0209,0.022 0.0577,0.02 0.0865,0.031 -27.16072,22.6339 4.84852,61.0449 32.00924,38.411 z" /><path
           style="fill:#ff8080;fill-opacity:1;stroke:none;stroke-width:10;stroke-dasharray:none;paint-order:markers stroke fill"
           id="path2596"
           d="m 926.28907,1622.6487 c 2.54188,-1.7519 5.197,-3.3499 7.62563,-5.2558 0.92398,-0.725 1.62216,-1.7008 2.38136,-2.5969 1.44468,-1.7053 2.67774,-3.5941 3.92636,-5.4445 1.21216,-1.8011 2.43589,-3.6207 3.33301,-5.6058 0.43455,-0.9615 0.80537,-1.9506 1.20804,-2.9259 0.52834,-1.7269 0.96078,-2.9128 1.23592,-4.6997 0.18364,-1.1926 0.4351,-2.3915 0.40113,-3.5977 -0.0698,-2.4806 -0.29019,-4.9651 -0.71112,-7.4108 -0.32806,-1.9061 -1.17028,-3.7398 -1.92638,-5.5147 1.64568,3.6694 2.15657,7.2538 1.78139,11.2453 -0.49559,2.5637 -0.76097,4.886 -2.07658,7.2435 -1.23518,2.2133 -2.72622,4.281 -4.26429,6.2956 -0.54869,0.7187 -1.32813,1.228 -1.96773,1.8671 -0.22061,0.2205 0.47574,-0.4035 0.70958,-0.6099 0.18293,-0.1615 -0.37118,0.3167 -0.55679,0.4751 0.35724,-0.3032 0.7138,-0.6072 1.07167,-0.9096 0.0116,-0.01 -0.0435,0.042 -0.0326,0.032 1.37493,-1.3152 1.89891,-1.7281 2.96508,-2.9569 0.85341,-0.9835 1.51947,-1.8672 1.08201,-1.2886 1.61782,-1.8984 2.9155,-4.0294 4.059,-6.2383 -0.38224,0.7333 -0.21333,0.4254 -0.89175,1.5582 -0.0547,0.091 -0.23538,0.3543 -0.17248,0.2685 0.64225,-0.8765 1.31984,-2.0447 1.82729,-2.8553 0.16766,-0.3023 0.33536,-0.6047 0.50302,-0.9071 0.0246,-0.043 0.099,-0.1714 0.0737,-0.1288 -0.49999,0.8427 -0.88424,1.466 -1.45892,2.2375 0.15902,-0.2404 2.12598,-2.6516 0.7461,-0.9412 -0.88503,1.0884 -1.96606,1.8758 -3.00214,2.8658 -0.20424,0.1952 0.44481,-0.3483 0.66542,-0.5248 0.78841,-0.6306 0.41847,-0.3596 0.73459,-0.5894 -0.0642,0.052 -0.26014,0.2044 -0.19251,0.1567 1.4447,-1.0188 2.77836,-2.1963 4.10393,-3.3613 0.20375,-0.1847 0.41219,-0.3645 0.61129,-0.5542 4.46204,-4.2529 -0.34666,0.3109 2.19472,-2.1571 0.16129,-0.1567 0.34838,-0.2847 0.51419,-0.4366 0.43915,-0.4022 0.87183,-0.8115 1.30776,-1.2172 0.3847,-0.3642 0.65749,-0.6067 1.0941,-0.8639 0.0443,-0.026 0.10147,-0.022 0.14732,-0.045 0.20611,-0.1042 0.40653,-0.2193 0.60613,-0.3354 0.52478,-0.3053 1.0445,-0.6191 1.56676,-0.9287 4.80991,-2.7803 9.75146,-5.3225 14.64239,-7.9556 7.93914,-4.1251 15.81033,-8.3912 23.86999,-12.2799 1.88942,-0.9116 3.79436,-1.7905 5.69154,-2.6858 1.9888,-0.928 3.9802,-1.8502 5.9662,-2.784 4.2887,-2.0166 6.9916,-3.2901 11.1931,-5.4128 4.5102,-2.2786 8.9564,-4.6802 13.4014,-7.0824 31.1012,-16.8141 7.3224,-60.7979 -23.7788,-43.9837 v 0 c -3.912,2.1157 -7.8226,4.2377 -11.78994,6.2486 -3.82633,1.9395 -6.20882,3.0586 -10.17082,4.9215 -2.05994,0.9686 -4.12536,1.9255 -6.18803,2.8882 -2.16426,1.0245 -4.33736,2.0305 -6.49282,3.0734 -8.57445,4.1485 -16.96153,8.6719 -25.40685,13.0734 -5.50137,2.9629 -11.06085,5.822 -16.45436,8.9805 -1.34548,0.7993 -3.25956,1.921 -4.51495,2.7431 -2.70508,1.7715 -5.2627,3.7648 -7.61461,5.9847 -0.99224,0.9622 -2.03768,1.8641 -3.03011,2.8276 -0.22505,0.2185 -0.45654,0.4315 -0.66376,0.667 -0.0939,0.1067 0.42423,-0.3782 0.32234,-0.2791 -0.16917,0.1646 -0.34964,0.3172 -0.52448,0.4757 0.66169,-0.5298 0.11141,-0.092 -0.11793,0.1058 -0.0313,0.027 0.137,-0.092 0.10428,-0.067 -0.44019,0.3392 -0.90573,0.645 -1.33231,1.0022 -1.92786,1.5302 -3.84382,3.1045 -5.43052,4.9958 -0.29147,0.352 -0.58373,0.7034 -0.8744,1.0561 -0.12766,0.1548 0.51544,-0.6156 0.38537,-0.4627 -0.51652,0.607 -1.01825,1.2261 -1.50358,1.8584 -0.0427,0.056 0.0884,-0.1092 0.13261,-0.1637 -1.26251,1.6396 -2.43567,3.3064 -3.42529,5.1306 -0.0246,0.045 0.0533,-0.088 0.08,-0.1318 0.3143,-0.4813 0.63952,-0.9556 0.94292,-1.4439 0.11023,-0.1773 -0.52811,0.7616 -0.59581,0.8614 -0.80127,1.182 -1.58229,2.3809 -2.22785,3.6571 -0.0497,0.097 -0.20587,0.3838 -0.15002,0.2903 0.64122,-1.0736 1.25786,-2.1675 2.09542,-3.1071 -0.18542,0.2251 -0.8134,0.8133 -0.55628,0.6755 0.27419,-0.147 0.40394,-0.4733 0.61145,-0.7051 0.0972,-0.1086 0.19664,-0.2157 0.30252,-0.3159 0.51438,-0.4867 1.04754,-0.9534 1.55784,-1.4444 0.16971,-0.1633 -0.73204,0.5907 -0.53559,0.4608 0.23122,-0.1529 0.42704,-0.3535 0.64058,-0.5302 -0.34591,0.2871 -0.69178,0.5744 -1.03777,0.8615 -0.0814,0.068 0.32109,-0.2753 0.24397,-0.2029 -0.79235,0.7441 -1.71731,1.3645 -2.39014,2.2182 -1.66793,2.1162 -3.26779,4.3052 -4.59814,6.6484 -1.47376,2.5957 -1.79324,5.1961 -2.36683,8.0311 -0.14412,1.3741 -0.2721,2.3064 -0.24294,3.776 0.0816,4.1161 0.81264,7.7865 2.45525,11.5801 -2.0832,-5.2131 -2.30362,-10.8676 -0.4268,-16.1373 0.30081,-0.6918 0.58259,-1.3922 0.90242,-2.0754 0.29805,-0.6368 0.58451,-1.0499 0.94707,-1.6332 0.0589,-0.095 -0.11983,0.1883 -0.17944,0.2827 -0.29477,0.4664 0.0587,-0.073 -0.61513,0.9165 -0.55761,0.828 -0.27546,0.4114 -0.84651,1.2498 -0.0783,0.1159 -0.34271,0.4357 -0.23256,0.3494 0.63695,-0.499 0.81097,-1.4885 1.68092,-1.7513 2.14969,-1.5123 4.41044,-2.8602 6.61567,-4.2904 -32.30811,14.3592 -12.00118,60.0498 20.30693,45.6906 z" /><path
           style="fill:#ff8080;fill-opacity:1;stroke:none;stroke-width:10;stroke-dasharray:none;paint-order:markers stroke fill"
           id="path2598"
           d="m 2125.0131,1488.9566 c 1.2527,-0.1911 2.4814,0.246 3.7104,0.354 0.2504,0.022 -0.014,-0.2959 -0.1564,-0.4133 -0.4646,-0.3819 -0.9641,-0.7193 -1.4461,-1.079 -3.2639,-2.4477 -6.3616,-5.1043 -9.5156,-7.6894 -0.7719,-0.6672 -1.5467,-1.3309 -2.3132,-2.0044 -0.6601,-0.5801 -0.4926,-0.394 -0.7673,-0.7198 0.2047,0.2078 0.8148,0.8351 0.6141,0.6234 -2.8707,-3.0285 -6.057,-5.6395 -9.2917,-8.2646 -27.4684,-22.2595 -58.9482,16.5867 -31.4797,38.8462 v 0 c 0.372,0.3009 2.2645,1.8255 2.7706,2.2548 0.3897,0.3305 0.76,0.6838 1.153,1.0104 0.027,0.023 -0.033,-0.062 -0.05,-0.093 -0.1503,-0.1701 -0.3005,-0.3401 -0.4508,-0.5101 0.4823,0.5071 0.9525,1.0257 1.4288,1.5386 2.1418,2.11 4.4089,4.0822 6.7155,6.0099 4.1342,3.3807 8.1864,6.8685 12.5363,9.9765 3.6908,2.5212 5.1005,3.6516 9.1833,5.7177 5.3874,2.7264 11.3043,4.3828 17.3583,4.4424 35.3554,0 35.3554,-50 0,-50 z" /><path
           style="fill:#ff8080;fill-opacity:1;stroke:none;stroke-width:10;stroke-dasharray:none;paint-order:markers stroke fill"
           id="path2604"
           d="m 2113.4949,1472.5863 c -0.2147,0 -0.8589,0 -0.6442,0 1.0851,-0.01 1.1563,-0.021 2.4195,0.124 0.3553,0.041 0.7051,0.1205 1.0594,0.1696 0.1575,0.022 0.6063,0.1336 0.4753,0.043 -0.4346,-0.2996 -0.9483,-0.4642 -1.4224,-0.6963 -3.0498,-1.6137 -6.062,-3.297 -9.1098,-4.9143 0.2566,0.1349 0.501,0.2964 0.7699,0.4049 0.1234,0.05 -0.226,-0.1421 -0.3286,-0.2269 -0.015,-0.012 0.072,0.016 0.058,0 -0.4693,-0.4417 -1.0313,-0.7778 -1.5136,-1.2056 -2.2031,-1.6685 -2.0581,-1.6201 -3.9928,-3.1818 -1.7094,-1.4381 -3.5889,-2.6436 -5.4353,-3.8915 -0.1664,-0.1125 0.6649,0.4491 0.5111,0.3196 -0.3009,-0.2534 -0.6367,-0.4623 -0.9551,-0.6935 -1.6862,-1.3449 -3.5742,-2.3868 -5.3922,-3.5335 0.2096,0.1238 0.4192,0.2475 0.6288,0.3713 0.045,0.022 0.1713,0.1 0.1347,0.066 -0.3767,-0.3517 -0.7983,-0.6527 -1.1819,-0.9969 -0.3116,-0.2794 -0.6063,-0.5771 -0.9147,-0.86 -2.6533,-2.8132 -5.6625,-5.2472 -8.7121,-7.6104 -4.0945,-3.0871 -8.4845,-5.7534 -12.9993,-8.1747 -0.3073,-0.1648 -5.6113,-2.8917 -6.2988,-3.2453 -0.8693,-0.4412 -1.7387,-0.8824 -2.608,-1.3236 -31.5298,-15.996 -54.1516,28.5938 -22.6218,44.5899 v 0 c 0.7864,0.3988 1.5728,0.7976 2.3592,1.1964 4.0159,2.0657 8.1451,3.9825 11.7949,6.6742 0.7575,0.5573 1.5042,1.1234 2.2077,1.7489 0.7226,0.6426 1.0507,1.0261 1.8347,1.7952 0.4121,0.4043 0.8327,0.7997 1.2491,1.1996 2.8544,2.6174 5.7898,5.169 9.0724,7.2445 0.4115,0.2491 0.8215,0.5005 1.2344,0.7471 0.2031,0.1214 0.789,0.5154 0.6135,0.3569 -0.2451,-0.2213 -0.5541,-0.3597 -0.8253,-0.5481 -0.1271,-0.088 -0.4943,-0.3726 -0.3692,-0.2815 0.2708,0.1974 0.5377,0.4001 0.8065,0.6001 0.2258,0.1642 0.4515,0.3284 0.6773,0.4926 0.7786,0.5593 1.8796,1.351 2.4905,1.7785 0.5085,0.356 1.0546,0.5711 1.4913,1.0437 1.1886,0.911 2.2734,1.9679 3.5196,2.8046 0.1328,0.089 -0.5097,-0.3853 -0.3728,-0.3025 0.1453,0.088 0.2655,0.2119 0.3983,0.3179 2.9447,2.3799 5.9519,4.7069 9.2902,6.5186 3.7104,1.9517 7.3369,4.0617 11.1009,5.9115 2.9506,1.3756 4.6519,2.255 7.8896,3.3263 3.7364,1.2362 7.6777,1.8659 11.6112,1.8387 35.3553,0 35.3553,-50 0,-50 z" /><path
           style="fill:#ff8080;fill-opacity:1;stroke:none;stroke-width:10;stroke-dasharray:none;paint-order:markers stroke fill"
           id="path2608"
           d="m 2131.2302,1478.3713 c 0.2245,0.1127 0.8691,0.4957 0.6735,0.3382 -0.6972,-0.5614 -1.4621,-1.033 -2.1876,-1.5573 -0.8926,-0.6453 -1.7774,-1.3014 -2.6666,-1.9515 -2.7326,-1.9979 -5.4791,-3.9764 -8.2126,-5.973 -1.1277,-0.8256 -2.3009,-1.6215 -3.3118,-2.5964 -0.1347,-0.1299 -0.247,-0.2819 -0.3833,-0.41 -0.5463,-0.5132 -2.9419,-2.6784 -3.576,-3.2527 -3.4587,-3.2701 -7.1501,-6.2721 -10.9673,-9.1103 -2.4481,-1.8249 -5.0239,-3.4671 -7.5913,-5.1164 -2.317,-1.5679 -4.7471,-2.9533 -7.1531,-4.3767 -2.8379,-1.7438 -5.7269,-3.4065 -8.5911,-5.1079 -3.8416,-2.2125 -7.6216,-4.5589 -11.5685,-6.584 -1.2035,-0.6175 -2.4289,-1.1912 -3.6433,-1.7869 -1.2667,-0.5711 -2.5334,-1.1422 -3.8001,-1.7133 -32.2642,-14.4576 -52.7103,31.1708 -20.4462,45.6285 v 0 c 0.8483,0.3766 1.6966,0.7532 2.5449,1.1298 3.9432,1.8176 7.6254,4.1524 11.3831,6.3168 2.9058,1.7251 5.841,3.4023 8.7137,5.1804 1.869,1.1008 3.7618,2.1615 5.5518,3.3909 1.6415,1.053 3.3008,2.0833 4.8718,3.2411 2.5062,1.8329 4.8845,3.8266 7.1332,5.9697 0.9,0.8149 1.8091,1.6199 2.7022,2.4423 0.7695,0.7084 1.5163,1.4416 2.2978,2.1368 2.0135,1.7911 4.1631,3.425 6.3481,4.9992 2.728,1.9913 5.4667,3.9675 8.1942,5.9595 1.1667,0.8521 4.1998,3.0859 5.5701,4.0224 1.0921,0.7464 2.205,1.462 3.3074,2.193 30.6971,17.5411 55.504,-25.871 24.807,-43.4122 z" /><path
           style="fill:#ff8080;fill-opacity:1;stroke:none;stroke-width:10;stroke-dasharray:none;paint-order:markers stroke fill"
           id="path2610"
           d="m 2027.4961,1504.9135 c 9.0823,8.2148 16.4891,18.0117 23.7967,27.7759 2.2312,2.9218 4.6086,5.7268 6.8888,8.6094 0.6112,0.7727 1.2296,1.5411 1.8002,2.3443 0.1661,0.2337 0.5618,0.5192 0.4046,0.759 -0.168,0.2561 -0.4132,-0.5411 -0.7177,-0.5737 -0.03,1.3223 -0.024,-0.4261 0.4897,2.6654 0.073,0.441 -0.2958,-0.852 -0.3426,-1.2966 -0.1081,-1.0258 -0.7836,-2.3026 -0.1198,-3.0921 20.1536,-23.9687 11.8653,-21.9546 29.0797,-22.3936 -3.7271,-2.8428 -10.5065,-8.1255 -14.1961,-10.3841 -3.0235,-1.8509 -5.9891,-4.0132 -9.4027,-4.9698 -15.3936,-4.3139 -29.0877,-4.2395 -38.5169,14.5762 -3.7588,7.5008 0.7439,16.7633 1.1158,25.1449 6.0828,12.0638 15.1494,21.6124 25.3958,30.1974 5.9903,5.019 12.56,9.212 18.6765,14.0541 -6.5652,-4.4633 -9.786,-6.1098 -7.2443,-21.0085 1.1112,-6.5139 7.858,-10.6282 11.6407,-16.0464 0.128,-0.1833 0.2536,-0.6632 0.03,-0.6701 -1.8019,-0.056 -3.5881,0.3559 -5.3848,0.5038 -2.0834,0.1714 -4.1699,0.3027 -6.2548,0.454 -8.7233,0.3559 -17.4244,1.0158 -26.1313,1.635 -23.1501,1.733 -1.5864,9.5301 -2.1692,50.1582 -0.03,2.0731 -8.0619,-2.7072 -8.6532,-2.2335 -0.8401,0.6731 1.4779,1.5656 2.2169,2.3484 0.068,0.2548 0.3931,0.9497 0.2055,0.7643 -9.1986,-9.0891 3.0141,-24.8888 9.1484,-30.8138 3.3975,-3.2816 9.3467,-1.4137 13.9655,-2.4032 0.4207,-0.09 0.6728,-0.5365 1.0092,-0.8048 -3.6423,-4.4104 -7.5666,-8.6793 -10.5681,-13.5781 -0.3908,-0.6378 -0.984,-1.3379 -0.855,-2.0747 0.095,-0.5411 0.8257,0.7944 0.9872,1.3195 0.516,1.6779 0.6722,3.4459 1.0083,5.1689 -1.858,7.6854 -1.0284,9.998 -6.7798,15.1784 -1.7117,1.5419 -3.9757,2.3353 -5.8818,3.6292 -0.087,0.059 0.1684,0.1276 0.2512,0.1931 0.104,0.082 0.1793,0.2242 0.3094,0.2506 0.6402,0.1301 1.2991,0.1389 1.9487,0.2084 0.5388,0.1028 1.3751,-0.1843 1.6163,0.3083 0.2213,0.4519 -1.0188,0.036 -1.5071,-0.085 -0.9801,-0.2438 -1.9925,-0.4835 -2.8597,-1.0012 -4.5694,-2.7279 -6.461,-4.9086 -8.5124,-10.2026 -0.6634,-1.712 -0.5233,-3.6347 -0.7849,-5.452 0.3223,-1.6578 1.3537,-3.3295 0.9669,-4.9735 -0.2169,-0.9215 -1.053,1.5735 -1.5824,2.3584 -2.7319,4.0507 -5.3354,8.201 -8.2175,12.1457 -0.1216,-0.028 -0.246,-0.1218 -0.3647,-0.084 -1.6798,0.5405 -3.1446,1.6023 -4.7163,2.4046 -2.0229,1.0327 -4.0457,2.0659 -6.0771,3.0821 -10.9045,5.455 -2.5552,1.0946 -14.1925,7.3168 -12.4734,6.8875 -24.4666,14.5544 -35.9494,22.9801 -8.7936,6.249 -16.5012,13.8932 -25.2359,20.2078 -1.9566,1.4144 -3.9847,2.727 -5.9771,4.0906 -17.8276,10.8875 -35.7243,21.8464 -54.4232,31.2024 -4.7283,2.3657 -9.5508,4.5384 -14.3261,6.8077 -29.8467,13.5574 -60.3919,25.5008 -90.6737,38.0372 -14.225,5.6835 -28.0315,12.1708 -40.0516,21.8091 -6.6255,5.3126 -8.0207,7.2469 -13.5863,13.2759 -1.6979,2.4407 -3.6425,4.7272 -5.0939,7.3222 -2.9157,5.2133 -5.6884,12.4626 -5.3495,18.5703 0.2479,4.4684 0.099,9.6142 2.892,13.1107 13.0736,16.3646 16.7337,14.8597 32.4465,17.3132 5.715,0.078 11.4326,0.4239 17.1449,0.2349 37.9013,-1.2542 75.4251,-8.0247 112.0183,-17.6784 9.8698,-2.6038 19.6207,-5.639 29.431,-8.4584 33.9839,-10.8062 66.8387,-25.4297 97.2542,-44.098 13.04,-8.0037 20.9011,-13.9247 33.1286,-22.6719 26.4478,-19.8376 50.6917,-42.3792 73.9423,-65.826 5.4541,-5.6904 8.7294,-8.981 13.8161,-14.7242 1.5858,-1.7905 3.2318,-3.539 4.6499,-5.4651 1.646,-2.2357 3.6164,-4.3695 4.5228,-6.9936 1.7517,-5.0716 4.5935,-10.5327 3.3325,-15.7481 -1.8919,-7.8252 -8.1214,-13.9031 -12.1821,-20.8546 -4.2797,-1.6665 -8.4047,-3.8039 -12.8391,-4.9994 -2.7752,-0.7481 -5.7152,-0.677 -8.5878,-0.7771 -6.2895,-0.2193 -13.115,0.4675 -19.2925,1.6639 -2.431,0.4708 -4.8206,1.1348 -7.2309,1.7021 -3.6122,1.4503 -7.3184,2.6852 -10.8364,4.3509 -7.7281,3.6589 -17.3756,9.7617 -24.3766,14.3106 -12.9274,8.3996 -25.4807,17.3856 -38.1521,26.1623 -20.4489,14.7047 -40.8919,29.4177 -61.5059,43.8907 -29.1289,20.6062 -60.7743,37.2092 -91.8119,54.6775 -20.728,11.5588 -41.4037,23.2014 -61.7944,35.3461 -1.6609,1.0088 -3.3242,2.0139 -4.9828,3.0266 -1.5223,0.9294 -3.002,1.9312 -4.5598,2.7998 -1.9687,1.0977 -4.1545,1.8912 -6.2523,2.6879 -7.5069,2.851 -0.8478,0.2277 -8.8808,3.4429 -1.6825,0.8412 -3.5896,1.3349 -5.0474,2.5237 -17.8829,14.5831 -17.6168,19.2759 5.6181,47.593 3.2173,3.921 10.1777,0.4867 15.2158,-0.099 3.4231,-0.3978 21.7019,-5.8452 24.756,-6.7297 39.8739,-11.473 77.4319,-29.2982 114.7434,-47.152 15.6884,-7.6838 31.035,-16.0306 46.5098,-24.1275 9.8394,-5.1481 19.6296,-10.2757 29.2788,-15.7737 2.3469,-1.4517 9.5283,-5.7143 11.8701,-7.7893 2.3644,-2.095 5.5843,-3.8125 6.5956,-6.8053 6.0569,-17.9245 7.5862,-27.7024 -8.1064,-38.4625 14.5268,17.8474 9.5777,6.3511 10.4807,29.0334 2e-4,0 1.3708,-4.1708 1.0517,-3.6223 -0.7075,1.2164 -3.7854,17.1057 1.0796,-6.1632 0.025,-10.2107 -1.1562,-16.2432 -9.3691,-25.1917 -5.1082,-5.5657 -11.7181,-6.5152 -18.3679,-8.2445 -3.0001,-0.255 -5.9905,-0.6835 -9.0003,-0.765 -2.915,-0.079 -5.8319,0.1229 -8.7435,0.2842 -6.7813,0.3755 -14.4624,1.0675 -20.9472,3.2125 -2.6745,0.8846 -5.2146,2.1333 -7.8219,3.1999 -10.9499,9.1345 -9.1078,5.706 -15.2735,17.3775 -4.0127,7.5958 -0.073,1.8611 -3.349,7.6377 -1.2057,2.1259 -2.8912,3.9417 -4.3775,5.8819 -6.9846,9.2524 -15.1407,17.5101 -23.5871,25.4151 -6.8876,6.2473 -14.3548,11.7777 -21.6925,17.4682 -7.2261,5.604 -9.7382,7.7194 -16.913,13.5568 -8.5539,7.3639 -17.7976,13.9707 -25.5294,22.2477 -3.3467,3.5827 -4.5804,5.3692 -7.4132,9.088 -0.618,0.816 -1.2311,1.6358 -1.854,2.4481 -0.4814,0.6276 -0.9553,1.2614 -1.4588,1.8714 -0.746,0.904 -0.9228,0.6892 0.3875,-0.5815 2.7706,-2.6868 4.0568,-2.8009 -0.8483,-0.7855 -8.7257,3.2171 -17.0272,7.5018 -25.778,10.6411 -8.6721,3.0772 -17.4776,5.7044 -26.0799,8.9861 -1.6105,0.7541 -3.4251,1.1742 -4.8316,2.2625 -19.7888,15.3115 -15.7828,16.8596 7.1225,48.4862 2.2233,3.0699 7.544,0.8523 11.3337,0.9231 8.5782,0.1602 12.3111,-1.0822 21.0153,-2.7478 20.1636,-5.7637 37.1857,-18.0831 54.1822,-29.8671 17.7677,-12.3187 14.1982,-9.8674 31.6427,-22.4557 14.3227,-10.284 28.2339,-21.1486 42.9487,-30.8789 3.2843,-2.1717 9.2041,-5.8732 12.7202,-8.085 1.6347,-1.1448 3.4208,-2.0993 4.9042,-3.4344 14.0322,-12.6305 15.7512,-20.4851 -4.1868,-45.4428 -4.2387,-5.3059 -13.5752,-1.3719 -20.352,-0.9321 -4.3621,0.2831 -18.5202,6.2078 -21.7945,7.484 -28.865,13.2817 -56.3892,29.2342 -84.1303,44.6699 -17.099,8.9801 -33.806,18.6568 -50.5679,28.2398 -10.0865,4.8407 -20.4123,9.1442 -30.5463,13.8904 -6.6725,3.1278 -13.4411,6.034 -20.2138,8.9347 -6.7259,2.6751 -13.3847,5.5654 -20.3386,7.6058 -8.1484,2.4273 -16.1723,5.228 -24.2773,7.7936 -7.7017,2.7191 -15.6613,4.3293 -23.6664,5.7926 -9.6961,1.7323 -19.4679,3.0206 -29.242,4.2242 -11.7177,1.442 -23.3413,3.3896 -34.8962,5.8031 -12.0002,2.7104 -23.8449,6.075 -36.0897,7.4691 -16.3591,2.0722 -32.8549,2.6243 -49.2785,3.9737 -11.2996,1.0891 -22.6148,2.0386 -33.8909,3.3549 -11.5854,1.2688 -23.2541,1.5405 -34.8975,1.7939 -9.5637,0.06 -19.1383,0.3978 -28.6994,0.065 -12.9494,-0.8388 -25.8813,-1.8633 -38.8199,-2.8694 -10.1717,-0.9832 -20.5515,-2.668 -30.0073,-6.6984 -7.1817,-3.6457 -14.0463,-7.862 -20.8803,-12.1092 -1.3232,-0.9573 -2.7324,-1.7872 -4.0737,-2.7174 -0.1328,-0.092 0.3212,0.1038 0.431,0.2224 1.9924,2.1539 5.2625,3.6991 5.8546,6.5728 4.7767,23.1798 3.5146,20.3214 -8.1257,32.6508 -0.9933,0.4955 -1.9866,0.991 -2.9799,1.4865 -0.067,0.062 -0.2919,0.1772 -0.2009,0.1868 1.1856,0.1252 2.379,-0.1645 3.5699,-0.2218 2.7817,-0.1338 4.2569,-0.1502 7.1221,-0.2191 17.4127,-0.349 34.8052,-0.098 52.2013,0.6686 22.682,1.083 45.3749,1.9336 68.0767,2.4585 14.361,0.317 28.7256,0.3107 43.0891,0.317 17.1903,3e-4 34.3805,-0.012 51.5708,-0.018 16.3087,-0.01 32.6174,-0.01 48.9261,-0.01 17.4743,-0.1135 34.9414,-0.014 52.4079,0.5179 3.8141,0.29 7.6589,0.3589 11.4463,0.9459 0.8959,0.1389 3.5509,0.7317 2.6708,0.5142 -12.0295,-2.9732 2.0252,6.2574 -18.3793,-21.7647 4.7569,-7.913 10.5929,-15.2702 14.2706,-23.7388 0.5726,-1.3187 -2.8493,0.398 -4.2583,0.6833 -3.9143,0.7926 -7.8075,1.6863 -11.7068,2.5495 -12.725,2.8171 -25.2772,5.9703 -37.8254,9.4874 -8.7935,2.7183 -17.6621,5.4986 -25.9348,9.6034 -1.8013,0.8938 -3.6144,1.7946 -5.2706,2.9352 -2.123,1.4621 -5.214,2.3994 -6.0269,4.8457 -3.0798,9.268 -3.4445,19.2266 -5.1667,28.8398 7.4468,5.0622 14.2518,11.2302 22.3407,15.1865 2.5757,1.2598 19.4657,-0.9567 20.6363,-1.103 16.2616,-2.0326 32.4267,-4.7757 48.5769,-7.5293 27.9285,-5.4246 55.8363,-11.0216 83.6114,-17.1931 16.063,-3.9656 31.983,-8.4744 47.8446,-13.1724 13.8488,-3.7305 27.1944,-9.0084 40.3986,-14.5504 6.3877,-2.6181 3.3316,-1.4197 9.158,-3.6213 33.0492,-12.56 15.2865,-59.2986 -17.7626,-46.7385 v 0 c -7.1649,2.7351 -3.5779,1.3155 -10.7599,4.2619 -11.5153,4.842 -23.1376,9.499 -35.2341,12.7071 -14.7567,4.371 -29.5657,8.5667 -44.4974,12.3056 -26.9649,6.0005 -54.0649,11.4137 -81.1738,16.7143 -15.2524,2.6081 -30.5076,5.0429 -45.8396,7.1395 -2.4047,0.3289 -4.8277,0.5292 -7.2222,0.9252 -0.2293,0.038 -0.7624,0.2089 -0.5924,0.3674 5.2997,4.9402 10.9003,9.5478 16.3504,14.3217 -1.9754,9.0324 -3.1278,18.285 -5.9263,27.0972 -0.4169,1.3128 -2.2596,1.5766 -3.4167,2.3238 -0.2387,0.1541 0.4059,-0.4105 0.6576,-0.5423 5.9317,-3.1063 12.4518,-4.9474 18.7856,-6.9911 11.5843,-3.2702 23.1751,-6.1631 34.9293,-8.7655 3.8646,-0.8556 7.7427,-1.65 11.6024,-2.5269 3.5969,-0.8173 8.0897,-0.018 10.7666,-2.5554 7.6072,-7.2114 12.4287,-16.8828 18.6431,-25.3242 -5.1656,-7.6654 -9.3062,-16.1319 -15.497,-22.996 -1.7456,-1.9356 -4.9092,-1.7764 -7.4329,-2.428 -6.9004,-1.7814 -14.2107,-1.5356 -21.246,-2.1906 -17.9733,-0.5455 -35.9475,-0.6587 -53.9289,-0.541 -16.3141,0 -32.6282,0 -48.9423,0.01 -17.177,0.01 -34.354,0.019 -51.531,0.018 -13.9864,-0.01 -27.974,0 -41.9579,-0.3037 -22.3573,-0.5147 -44.7055,-1.3583 -67.0433,-2.424 -18.5407,-0.8068 -37.0797,-1.081 -55.6373,-0.7008 -10.3912,0.2677 -20.9139,0.4026 -30.4873,5.0127 -3.6405,3.4479 -9.3923,5.5685 -10.9215,10.3438 -2.548,7.9568 -1.9943,16.8566 -0.4162,25.0611 1.0659,5.5414 10.399,10.8846 15.0932,14.0782 9.427,5.853 18.9156,11.6978 29.0773,16.2119 2.5014,0.9392 4.9698,1.9713 7.5041,2.8174 11.8767,3.9644 24.3898,6.009 36.8167,7.1557 13.7084,1.0642 27.4097,2.149 41.1333,2.9953 10.4487,0.2999 20.9038,0.081 31.3544,-0.052 13.2226,-0.2915 26.4703,-0.6425 39.6234,-2.1219 10.7123,-1.2617 21.4667,-2.1328 32.2008,-3.1859 17.0418,-1.4273 34.166,-1.9513 51.1382,-4.1629 2.4587,-0.3077 4.9255,-0.5566 7.3762,-0.9232 11.1601,-1.6698 22.0104,-4.89 33.0259,-7.2588 10.1672,-2.1628 20.4093,-3.8201 30.7243,-5.1073 10.7313,-1.3298 21.46,-2.7464 32.1046,-4.6625 10.0681,-1.8418 20.064,-3.9828 29.769,-7.3105 7.917,-2.5086 15.7541,-5.2433 23.7127,-7.6184 8.6728,-2.6838 17.1154,-5.9972 25.4946,-9.4867 7.2824,-3.1201 14.5579,-6.2529 21.7331,-9.6158 11.3614,-5.3214 23.0134,-10.0009 34.1615,-15.7667 16.5901,-9.4907 33.1309,-19.0639 50.0578,-27.9521 25.8626,-14.3924 51.537,-29.204 78.2945,-41.9 2.609,-1.0685 5.1929,-2.2006 7.8271,-3.2056 1.5801,-0.6028 6.0985,-0.5205 4.8095,-1.6154 -2.6677,-2.2659 -8.6529,0.3106 -10.0985,-2.877 -20.4468,-45.0876 -15.5894,-27.6725 -3.6285,-40.6404 0.7232,-0.7841 -1.7241,1.256 -2.5862,1.884 -4.3844,2.7598 -10.0005,6.2667 -14.1931,9.0483 -15.0944,10.0147 -29.429,21.0982 -44.1116,31.6935 -18.1664,13.1185 -12.0449,8.8197 -30.7789,21.8459 -11.5953,8.0626 -23.0861,16.7207 -36.2431,22.1246 -6.0534,1.6489 -2.9384,1.0827 -9.3526,1.6553 -0.2119,0.047 -0.098,0.4421 -0.035,0.65 3.7445,12.4792 10.7324,24.3642 11.4446,37.3736 0.079,1.4453 -12.8766,9.9876 -8.3178,6.9698 8.3638,-3.2373 17.0058,-5.6216 25.414,-8.7359 9.405,-3.5051 18.4732,-7.8229 27.833,-11.4484 5.9503,-2.5193 7.9591,-3.1074 14.0586,-7.3541 4.3129,-3.0028 7.1635,-7.7027 10.4018,-11.711 0.8968,-1.2343 2.0583,-2.8881 3.0568,-4.0257 6.2514,-7.1222 14.555,-12.125 21.4579,-18.5427 6.3576,-5.1779 9.2251,-7.5788 15.6178,-12.5376 8.7006,-6.7488 17.5265,-13.3492 25.6454,-20.8116 10.6378,-10.0118 20.8722,-20.4949 29.6304,-32.2256 1.8134,-2.5166 3.739,-4.9559 5.4402,-7.5496 3.0378,-4.6316 4.304,-7.3068 6.4361,-12.1546 0.3917,-0.8907 1.9935,-3.0419 1.0778,-2.7129 -3.4375,1.2354 -2.6391,8.6694 -8.5016,6.9144 -0.5741,0.086 -2.1548,0.6458 -1.7223,0.2585 0.5558,-0.4978 1.4173,-0.4762 2.1457,-0.6378 4.6572,-1.0331 9.4265,-0.9618 14.1232,-1.6507 -1.9193,-1.7042 -4.6167,-2.6076 -6.095,-4.7059 -7.0294,-9.9778 -5.9698,-10.0837 -5.8028,-14.2158 0.5502,-2.1822 1.3926,-4.311 1.6507,-6.5467 0.1623,-1.4056 -0.9032,2.6818 -1.3591,4.0212 -0.1475,0.4331 0.2815,-0.8902 0.2816,-0.8284 0.015,22.6894 -3.7373,12.3485 10.418,30.0622 -14.1348,-10.1205 -10.2713,-19.2041 -5.1492,-34.684 0.526,-1.5899 2.6842,-2.0282 3.8373,-3.2427 2.0828,-2.1937 -13.1697,11.0672 -7.557,5.0248 -9.1688,5.246 -18.4923,10.0927 -27.8523,14.9899 -14.887,7.7888 -29.6488,15.8215 -44.7316,23.2323 -34.8447,16.6786 -69.8672,33.4764 -107.0969,44.2351 -3.7973,1.105 -7.5901,2.2251 -11.3918,3.3148 -2.4652,0.7066 -6.6441,-0.3736 -7.4086,2.0743 -0.6442,2.0626 5.37,-0.5931 6.3435,1.336 5.8926,11.6773 11.7594,23.9996 13.0115,37.0193 0.3599,3.7423 -11.2329,10.8944 -8.5257,7.3838 5.3222,-2.1465 10.7805,-3.9942 15.9758,-6.4469 5.6251,-2.6554 6.2969,-3.2493 11.0479,-6.1519 1.5335,-0.9369 3.0712,-1.8669 4.6068,-2.8004 20.0372,-11.9374 40.3625,-23.3667 60.7303,-34.7298 32.4829,-18.2831 65.5621,-35.7226 96.0202,-57.3301 20.5255,-14.4134 40.8905,-29.052 61.2435,-43.7076 18.6905,-12.9459 37.0835,-26.4859 57.0551,-37.4281 2.9609,-0.8645 2.7396,-0.9134 6.0181,-1.346 6.5584,-0.8655 9.4287,0.716 0.265,-4.3775 -2.7626,-6.0027 -7.2059,-11.4893 -8.288,-18.008 -0.6287,-3.7878 2.1817,-7.3669 3.4758,-10.9818 0.056,-0.1553 0.5849,-0.2204 0.487,-0.088 -4.6392,6.2921 -10.6826,11.48 -15.8307,17.3123 -21.2502,21.4818 -43.4225,42.1248 -67.5481,60.3737 -10.247,7.3616 -18.166,13.3 -28.9776,19.9966 -26.9009,16.6622 -56.0186,29.7024 -86.1207,39.3666 -21.3974,6.1841 -33.8732,10.1963 -55.7476,14.8639 -23.5659,5.0286 -47.6005,8.0985 -71.6623,9.3181 -3.7797,0.1916 -7.5686,0.083 -11.3529,0.1244 -1.1293,0.013 -3.9669,-0.93 -3.3879,0.04 2.8279,4.7353 8.1786,7.6623 10.8643,12.4796 2.2806,4.0905 1.4989,9.6006 -0.2035,13.6868 -0.2489,0.5975 -0.6467,1.2031 -1.2134,1.5159 -0.2986,0.1648 0.1734,-0.6598 0.26,-0.9897 3.3297,-3.9454 6.8757,-7.4779 11.1472,-10.4414 7.4994,-5.2028 16.1747,-8.1056 24.4199,-11.856 31.0861,-12.8766 62.4531,-25.1215 93.0678,-39.103 5.4064,-2.5868 10.8636,-5.0699 16.2192,-7.7604 8.9602,-4.5014 17.5886,-9.4234 26.2929,-14.3883 6.6221,-3.7772 16.363,-9.3909 22.9472,-13.4226 3.4315,-2.1013 6.8042,-4.2969 10.2063,-6.4453 2.708,-1.8871 5.4622,-3.7094 8.1238,-5.6612 8.3834,-6.1477 15.9239,-13.3548 24.3068,-19.5064 9.5392,-7.0657 19.5779,-13.3847 29.9395,-19.1802 10.0652,-5.4294 20.8438,-9.8681 30.2893,-16.3792 6.1635,-4.2487 7.0439,-5.8098 12.0336,-11.2403 2.3562,-3.3153 4.5765,-6.6933 6.837,-10.073 1.0194,-1.5242 5.3432,-7.8387 5.9707,-9.1606 1.8313,-3.8579 3.2176,-7.9116 4.8264,-11.8674 0.096,-4.1485 1.0858,-8.3732 0.2883,-12.4454 -2.4644,-12.5837 -9.7768,-21.0558 -21.3601,-25.7883 -4.8012,-1.9616 -7.6494,-2.1085 -12.4587,-2.7698 -10.9952,-0.7281 -21.7244,-0.4146 -31.2926,6.2008 -9.1364,6.3167 -8.8309,11.3827 -12.3313,21.6058 0.2406,3.567 0.042,7.1912 0.7218,10.7011 2.1254,10.9762 11.9814,23.9195 19.4228,31.9509 2.9274,3.1595 6.1285,6.0538 9.1927,9.0807 9.6968,6.1135 22.2453,17.1187 35.7224,8.7513 19.5563,-12.1417 20.1891,-28.6634 10.5764,-44.1732 -1.451,-2.3411 -3.397,-4.3364 -5.0955,-6.5045 -5.367,-5.2965 -7.999,-8.4776 -15.5327,-12.2503 -2.7308,-1.3675 -8.4427,-5.4703 -8.8309,-2.441 -9.1876,71.6971 19.9616,45.0516 -0.7646,49.6317 -0.5801,0.1282 1.1845,-0.092 1.7767,-0.1384 8.7538,-0.6241 17.5016,-1.2789 26.2717,-1.6452 3.6352,-0.2735 12.3533,-0.8513 15.8182,-1.4446 3.7034,-0.6343 7.9673,-0.2146 11.0091,-2.4202 7.0191,-5.0895 15.4642,-10.4225 18.0957,-18.6835 5.0068,-15.7174 -2.7989,-21.6925 -10.6226,-29.9516 -1.7425,-1.3494 -3.4549,-2.7386 -5.2275,-4.0482 -4.4382,-3.279 -6.669,-4.4771 -10.9944,-7.9589 -11.1252,-8.9552 -0.3921,-0.7294 -9.8564,-9.0024 -0.5676,-0.4961 -1.2641,-0.8215 -1.8962,-1.2322 -0.9996,4.6853 0.1801,10.4719 -2.9988,14.056 -14.0759,15.8698 -15.6967,12.1408 -28.5112,8.4999 -0.867,-0.2464 1.7833,0.4253 2.5507,0.8983 6.1949,3.8187 11.5445,8.9187 17.7657,12.6893 6.6637,2.341 13.2939,9.2663 19.9911,7.0231 28.8323,-9.6574 28.7604,-22.333 23.6577,-41.8191 -1.9411,-5.31 -1.8983,-5.8774 -4.8621,-10.9759 -3.0282,-5.2094 -7.3475,-9.5351 -10.9308,-14.3373 -9.2143,-12.2984 -18.7242,-24.4814 -30.1853,-34.8027 -26.1609,-23.7826 -59.7945,13.2144 -33.6337,36.997 z" /><path
           style="fill:#ff8080;fill-opacity:1;stroke:none;stroke-width:10;stroke-dasharray:none;paint-order:markers stroke fill"
           id="path2612"
           d="m 1286.2849,1820.162 c -5.6049,-0.1045 -11.1525,-1.2435 -16.5593,-2.6478 -3.1785,-0.8256 -6.38,-1.6161 -9.454,-2.7715 -8.5008,-3.1951 -16.3142,-7.8192 -24.2763,-12.1047 -23.3566,-13.7587 -46.0816,-28.6561 -67.8644,-44.8 -12.6044,-9.3415 -19.5116,-15.081 -31.7004,-24.8703 -32.7288,-25.5308 -64.6366,-52.08 -96.8338,-78.2718 -9.2436,-7.6802 -18.7248,-15.0862 -27.7364,-23.0439 -4.7278,-4.175 -9.2577,-8.5857 -13.89204,-12.864 -4.90323,-5.285 -11.29448,-9.0953 -15.81618,-14.7405 2.92097,2.9515 4.43749,7.3717 4.2377,11.5172 -0.0459,0.9529 -1.1493,2.3267 -0.34581,2.841 0.72546,0.4643 1.01417,-1.3925 1.52125,-2.0887 3.59547,-5.0708 7.80346,-9.6662 11.80539,-14.4111 1.06439,-1.262 2.32239,-2.3975 3.13399,-3.8352 1.9979,-3.5392 3.4964,-7.338 5.2446,-11.007 -1.1552,-7.0794 0.3219,-15.1468 -3.4657,-21.2384 -8.24834,-13.2657 -21.25266,-13.433 -33.84429,-9.6598 -5.2207,1.5644 -12.06304,8.2103 -15.1807,12.6819 -1.93741,2.7788 -3.26536,5.9362 -4.89805,8.9043 -1.01356,3.2303 -2.30809,6.3855 -3.04067,9.6909 -2.70026,12.1837 -2.70346,27.8371 -0.94925,40.2119 0.44697,3.1529 1.18523,6.2576 1.77785,9.3864 1.99276,4.7641 3.69816,9.6588 5.97828,14.2923 2.52357,5.1281 11.6822,19.8421 14.77436,24.6606 7.99727,12.4622 16.34503,24.7159 24.58051,37.0215 7.01966,10.2024 5.43261,8.1295 12.37766,17.396 1.384,1.8465 2.8586,3.6255 4.1998,5.5033 0.406,0.5685 1.3425,2.4498 1.0334,1.8233 -5.9076,-11.9756 -3.2923,-0.9666 2.7004,-27.2352 10.3759,-7.4897 6.0818,-6.4111 23.7609,-4.9483 1.4783,0.1223 3.2628,2.9963 4.0862,1.7625 0.958,-1.4359 -1.377,-3.1663 -2.1053,-4.7312 -1.5299,-3.2875 -3.2155,-6.5033 -4.669,-9.8253 -1.9217,-4.3919 -3.6352,-8.872 -5.4527,-13.3081 -5.7419,-14.802 -10.4417,-29.9775 -15.2373,-45.1034 -0.6378,-2.0118 -5.3915,-16.9942 -6.1572,-20.3159 -0.2525,-1.0956 -0.1707,-2.2421 -0.2561,-3.3631 0.2124,0.5783 0.6532,1.1192 0.6371,1.7351 -0.1046,3.9961 -1.0989,6.5703 -3.645,9.7229 -0.9924,1.2287 -2.0607,2.6454 -3.5677,3.1182 -8.18938,2.5691 -12.61607,2.7849 -19.62959,3.3311 2.63097,3.279 5.39435,6.456 7.89292,9.8369 7.81505,10.5751 17.11397,24.7689 23.92707,35.7037 8.3899,13.4657 15.3573,25.505 22.8106,39.4374 2.8672,5.3597 5.5413,10.8204 8.312,16.2306 8.0644,18.6236 14.6189,37.864 22.8343,56.4219 2.8827,5.9554 6.3646,11.603 11.0477,16.3341 5.5464,5.6032 12.2724,9.8119 18.7651,14.1902 11.0103,7.6382 21.9857,15.3302 33.7077,21.8589 3.3244,1.8516 15.4674,8.1138 19.1678,10.0311 11.0844,5.8487 21.999,12.0856 33.5453,17.0047 7.2448,3.0865 8.3189,3.263 15.6793,5.663 9.8238,2.7177 20.2353,5.6671 30.5409,5.4422 2.881,-0.063 5.7444,-0.4678 8.6165,-0.7017 9.0145,-2.3455 11.6418,-2.1887 19.8799,-8.9786 13.2657,-10.9338 16.4962,-27.7405 11.7638,-43.9362 -1.9705,-6.7439 -6.3946,-12.5122 -9.5919,-18.7683 -13.6596,-19.2065 -31.6341,-34.4821 -49.5916,-49.4672 -5.113,-4.2667 -10.3971,-8.3254 -15.5193,-12.581 -10.4648,-8.6944 -7.8715,-5.9985 -13.0111,-11.8118 -7.3522,14.0336 -17.6339,26.8878 -22.0567,42.1009 -0.9069,3.1195 5.5159,3.4399 8.3616,5.0069 6.3903,3.5186 12.8682,6.8763 19.3386,10.2454 8.4792,4.4149 16.9195,8.9104 25.5092,13.1061 17.0601,8.333 44.7288,20.7375 62.1142,28.6232 22.8165,10.3495 45.9417,19.9865 69.2628,29.1334 4.4922,1.7619 15.9564,5.9893 21.4296,8.5489 0.4343,0.203 0.7531,0.5934 1.1296,0.89 -16.5613,-21.5053 -16.2736,-11.8615 1.1595,-42.4196 0.6323,-1.1085 2.5811,-0.5852 3.5636,-1.3997 0.4651,-0.3856 -1.2081,-0.033 -1.8121,-0.052 -1.4594,-0.047 -2.9207,-0.057 -4.3782,-0.1459 -2.7467,-0.1678 -5.4879,-0.4162 -8.2319,-0.6243 -4.2425,-0.6814 -8.5169,-1.1879 -12.7276,-2.0444 -15.2595,-3.1037 -28.1486,-6.7857 -43.2611,-11.2224 -21.9524,-6.4449 -43.7248,-13.5339 -65.5241,-20.4739 -33.6893,-10.725 -48.8568,36.919 -15.1674,47.644 v 0 c 22.3613,7.1185 44.6938,14.4077 67.223,20.9817 17.045,4.9737 31.7982,9.1443 49.1124,12.487 5.5398,1.0695 11.1605,1.6653 16.7408,2.498 6.859,0.4768 11.3189,0.97 17.918,0.8711 2.1941,-0.033 4.4062,2e-4 6.5742,-0.3383 3.2338,-0.5051 7.4673,0.3221 9.5733,-2.1835 24.3593,-28.9817 20.038,-23.758 4.3065,-46.8388 -2.2821,-1.2439 -4.4965,-2.6209 -6.8462,-3.7317 -5.2656,-2.4892 -17.8325,-7.1545 -22.3579,-8.9276 -22.5732,-8.8443 -44.954,-18.17 -67.0352,-28.1874 -15.2685,-6.9238 -44.8039,-20.1854 -59.9192,-27.5625 -24.2918,-11.8557 -22.332,-11.8236 -44.4117,-23.1248 -5.949,-3.0449 -12.4857,-12.6522 -17.9866,-8.857 -13.4733,9.2956 -18.5495,26.9754 -27.8244,40.4631 1.9815,2.0212 3.853,4.1565 5.9444,6.0637 9.5101,8.6729 16.2523,13.5108 26.367,21.9095 13.7227,11.3946 27.5852,22.908 38.9337,36.7662 1.2798,1.3575 2.025,3.6384 3.8394,4.0724 1.0889,0.2604 1.309,-1.8207 2.0441,-2.6651 0.7935,-0.9114 1.5925,-1.8348 2.5334,-2.5931 1.1558,-0.9314 5.7844,-3.414 6.5928,-2.11 -0.8967,1.0619 -0.2671,0.519 -3.0718,0.3365 -5.0555,-0.3289 -10.0009,-1.6722 -14.8415,-3.0749 -14.8106,-4.5624 -27.8308,-12.1313 -41.4288,-19.4312 -8.2889,-4.294 -16.7042,-8.3934 -24.6669,-13.2834 -6.0501,-3.7155 -10.1634,-6.6731 -16.0202,-10.7 -2.4231,-1.666 -4.8487,-3.3281 -7.2731,-4.9922 -2.9369,-1.9719 -5.8163,-4.0309 -8.7954,-5.9384 -0.3017,-0.1933 -0.62,-0.371 -0.9605,-0.4828 -0.09,-0.029 -0.1997,0.1383 -0.2723,0.078 -0.7846,-0.6521 -1.6438,-2.3916 -2.0366,-3.0657 -8.7102,-19.3275 -15.0716,-39.6438 -24.0121,-58.8803 -3.0295,-5.8949 -5.9547,-11.8446 -9.0885,-17.6846 -11.744,-21.8858 -24.5506,-43.2399 -38.4806,-63.8074 -4.3234,-6.3833 -8.7014,-12.7385 -13.3871,-18.8608 -3.7243,-4.8662 -7.8815,-9.3853 -11.8223,-14.0779 -5.4095,-3.984 -9.7617,-10.1314 -16.22855,-11.952 -7.38184,-2.0782 -15.47738,-0.6365 -22.98837,0.9113 -3.08126,0.635 -5.47947,3.2178 -7.72758,5.4185 -5.90058,5.7762 -9.00179,11.7568 -10.54986,19.9007 -0.69305,3.6459 -0.2803,7.4171 -0.42048,11.1256 0.57203,3.3552 0.95438,6.7483 1.71606,10.0655 0.77711,3.3845 5.8211,19.3026 6.55585,21.6196 1.83843,5.7976 8.54265,26.6611 10.24564,31.5532 2.02616,5.8204 4.25546,11.5681 6.38318,17.3522 4.69326,11.305 6.67777,16.8713 12.03539,27.2337 3.80643,7.3622 10.12602,20.022 18.21022,23.5957 7.2085,3.1866 15.5303,4.2287 23.3801,3.5241 4.5645,-0.4097 8.0034,-4.4669 12.0052,-6.7004 2.7478,-8.5315 7.0921,-16.7057 8.2434,-25.5945 0.4378,-3.3799 -2.2082,-6.4664 -3.6935,-9.5338 -0.9509,-1.9638 -2.3194,-3.699 -3.5774,-5.4818 -4.8305,-6.8455 -10.4854,-13.1178 -14.763,-20.3631 -7.9353,-11.8564 -15.9779,-23.6617 -23.7,-35.6585 -2.3334,-3.6251 -4.5661,-7.314 -6.8492,-10.971 -1.7266,-2.8883 -3.3742,-5.8253 -5.17975,-8.6649 -0.64781,-1.0187 -1.44841,-1.9319 -2.17263,-2.8978 -0.33033,-1.3798 -0.76739,-2.7383 -0.99102,-4.1393 -1.25812,-7.8812 -0.87855,-15.8755 -0.55242,-23.8063 -1.98255,1.3196 -4.67101,3.3553 -6.91023,3.6523 -10.80648,1.4333 -20.44901,1.3795 -26.90858,-10.577 -3.02175,-5.5931 -1.37038,-12.6403 -2.05557,-18.9604 1.32749,-2.2132 2.88115,-4.3055 3.98245,-6.6394 0.46541,-0.9863 -1.34829,1.7149 -2.05189,2.5481 -5.54866,6.5706 -11.34232,12.9764 -16.118,20.1552 -4.16152,6.7327 -5.98492,8.7863 -8.28278,17.1128 -2.29433,8.3137 -0.58549,17.3141 3.31137,24.8205 1.04778,2.0183 2.55712,3.7612 3.83569,5.6418 3.33523,3.7505 3.341,3.9206 7.07385,7.4327 4.1063,3.8635 8.64674,7.2399 12.59154,11.2763 5.09241,4.6987 10.08314,9.5181 15.28205,14.0998 9.33513,8.2268 19.12993,15.9132 28.70522,23.8526 32.2824,26.2609 64.2757,52.8789 97.0898,78.4787 13.2165,10.6008 20.1551,16.3741 33.871,26.5172 23.5897,17.4449 48.1919,33.557 73.5419,48.3199 5.7646,3.0281 11.4038,6.3081 17.2939,9.0845 17.6883,8.3377 36.8183,13.8017 56.4441,14.2787 35.3554,0 35.3554,-50 0,-50 z" /></g><ellipse
         style="fill:#ff5a5a;fill-opacity:1;stroke:#000000;stroke-width:50;stroke-dasharray:none;paint-order:markers stroke fill"
         id="path3520"
         cx="1366.1962"
         cy="780.23395"
         rx="80.389725"
         ry="83.312988" /><ellipse
         style="fill:#ff5a5a;fill-opacity:1;stroke:#000000;stroke-width:50;stroke-dasharray:none;paint-order:markers stroke fill"
         id="ellipse3522"
         cx="1722.8506"
         cy="871.98694"
         rx="80.389725"
         ry="83.312988" /><ellipse
         style="fill:#ff5a5a;fill-opacity:1;stroke:#000000;stroke-width:50;stroke-dasharray:none;paint-order:markers stroke fill"
         id="ellipse3524"
         cx="1468.1891"
         cy="1067.1172"
         rx="80.389725"
         ry="83.312988" /><ellipse
         style="fill:#ff5a5a;fill-opacity:1;stroke:#000000;stroke-width:50;stroke-dasharray:none;paint-order:markers stroke fill"
         id="ellipse3526"
         cx="1969.6796"
         cy="669.07281"
         rx="80.389725"
         ry="83.312988" /><ellipse
         style="fill:#ff5a5a;fill-opacity:1;stroke:#000000;stroke-width:50;stroke-dasharray:none;paint-order:markers stroke fill"
         id="ellipse3528"
         cx="2359.5044"
         cy="703.31506"
         rx="80.389725"
         ry="83.312988" /><ellipse
         style="fill:#ff5a5a;fill-opacity:1;stroke:#000000;stroke-width:50;stroke-dasharray:none;paint-order:markers stroke fill"
         id="ellipse4256"
         cx="2301.6267"
         cy="1212.6379"
         rx="80.389725"
         ry="83.312988" /><ellipse
         style="fill:#ff5a5a;fill-opacity:1;stroke:#000000;stroke-width:50;stroke-dasharray:none;paint-order:markers stroke fill"
         id="ellipse4258"
         cx="2053.5798"
         cy="1035.6979"
         rx="80.389725"
         ry="83.312988" /><ellipse
         style="fill:#ff5a5a;fill-opacity:1;stroke:#000000;stroke-width:50;stroke-dasharray:none;paint-order:markers stroke fill"
         id="ellipse4260"
         cx="1803.8793"
         cy="1295.3203"
         rx="80.389725"
         ry="83.312988" /><ellipse
         style="fill:#ff5a5a;fill-opacity:1;stroke:#000000;stroke-width:50;stroke-dasharray:none;paint-order:markers stroke fill"
         id="ellipse4262"
         cx="1454.96"
         cy="1545.0209"
         rx="80.389725"
         ry="83.312988" /><ellipse
         style="fill:#ff5a5a;fill-opacity:1;stroke:#000000;stroke-width:50;stroke-dasharray:none;paint-order:markers stroke fill"
         id="ellipse4264"
         cx="1929.5563"
         cy="1655.8152"
         rx="80.389725"
         ry="83.312988" /><ellipse
         style="fill:#ff5a5a;fill-opacity:1;stroke:#000000;stroke-width:50;stroke-dasharray:none;paint-order:markers stroke fill"
         id="ellipse4266"
         cx="2265.2463"
         cy="1490.4506"
         rx="80.389725"
         ry="83.312988" /><path
         style="fill:#ff5a5a;fill-opacity:1;stroke:none;stroke-width:49.9999;stroke-dasharray:none;paint-order:markers stroke fill"
         id="path5147"
         d="m 2023.5956,979.15221 c 6.6818,-0.0802 13.1525,-1.92717 19.5798,-3.56092 3.1891,-0.527 6.3206,-1.32152 9.4725,-2.03055 1.0448,-0.20288 2.1154,-0.21333 3.1763,-0.24413 2.3739,-0.043 4.7486,-0.0271 7.1228,-0.0233 1.6668,0.0138 3.3542,0.046 5.0142,0.22447 0.2191,0.0236 -0.4464,-0.053 -0.6612,-0.004 -0.1048,0.0241 0.2079,0.0559 0.3118,0.0839 -0.043,0.003 -0.1717,-0.003 -0.1299,0.009 0.9879,0.27236 2.0009,0.44868 2.9867,0.72824 0.019,0.006 -0.026,0.0461 -0.01,0.0592 0.202,0.17431 0.4457,0.29351 0.6622,0.4494 4.6902,2.56159 9.2747,5.30741 13.8803,8.01682 2.951,1.87468 5.9831,3.63641 8.697,5.85208 0.3295,0.27879 1.2185,1.02225 1.5405,1.32874 0.039,0.0369 -0.1631,-0.0278 0.01,0.20682 0.185,0.25747 0.3852,0.50364 0.5779,0.75547 0.9228,1.27944 2.0035,2.46292 2.81,3.82545 0.2533,0.42783 0.3979,0.91125 0.6028,1.36422 1.0736,2.14201 1.988,4.29868 2.3309,6.67168 0.2798,2.7752 0.6235,5.5452 0.8429,8.3267 0.3181,3.0248 0.1168,1.4164 0.6307,4.8218 5.7328,34.8874 55.0711,26.7799 49.3382,-8.1076 v 0 c -0.2084,-0.2361 -0.042,-0.028 -0.1352,-0.7877 -0.3922,-4.7028 -0.8807,-9.40781 -1.6486,-14.06435 -0.6443,-3.04038 -0.7625,-3.92086 -1.6497,-6.86448 -1.3179,-4.3719 -3.1417,-8.55639 -5.1386,-12.65587 -0.6477,-1.23814 -1.2567,-2.49732 -1.9431,-3.71443 -1.8837,-3.34023 -4.1558,-6.42549 -6.5157,-9.43898 -3.1554,-4.04853 -6.6063,-7.8404 -10.7157,-10.95055 -4.5448,-3.53478 -9.3342,-6.71243 -14.2777,-9.66502 -5.7073,-3.35732 -11.3836,-6.77384 -17.259,-9.83369 -1.3314,-0.62238 -2.6414,-1.29291 -3.9942,-1.86714 -3.8321,-1.6266 -7.8655,-2.61498 -11.9094,-3.53967 -4.6738,-0.86749 -9.4052,-1.28826 -14.1622,-1.23071 -3.0148,-0.005 -6.0304,-0.027 -9.0444,0.0571 -4.242,0.16941 -8.4843,0.53255 -12.6287,1.50227 -1.0589,0.2489 -2.257,0.63323 -3.3415,0.85278 -2.3831,0.48247 -4.8079,0.77168 -7.156,1.42685 -2.0379,0.51802 -4.0706,1.06494 -6.1159,1.55321 -0.5326,0.12713 -1.0978,0.14769 -1.6028,0.35941 -0.1798,0.0754 0.3874,0.046 0.581,0.0691 -0.041,0.0127 -0.083,0.0254 -0.1242,0.0381 -35.3553,0 -35.3553,50 0,50 z" /><path
         style="fill:#ff5a5a;fill-opacity:1;stroke:none;stroke-width:49.9999;stroke-dasharray:none;paint-order:markers stroke fill"
         id="path5151"
         d="m 1405.0765,1079.2114 c 0.4131,-1.6432 0.764,-3.3021 1.0905,-4.9645 0.3412,-1.7373 -0.015,-1.2186 0.3593,-1.7452 0.01,0.017 0.011,0.069 0.016,0.051 0.4974,-1.7361 0.7663,-3.5552 1.3332,-5.269 -0.013,0.063 -0.02,0.1282 -0.039,0.1903 -0.2117,0.7142 -0.4692,1.3569 0.066,-0.03 0.1397,-0.3619 0.2691,-0.7278 0.4157,-1.087 0.036,-0.088 -0.049,0.1847 -0.084,0.2737 -0.085,0.22 -0.1833,0.4348 -0.2749,0.6521 1.7943,-3.1779 2.9724,-6.6355 4.2636,-10.0333 0.3779,-0.054 0.052,0 0.4711,-0.9287 0.783,-1.7451 1.5861,-3.4699 2.4397,-5.1823 1.758,-3.3752 3.4221,-6.798 5.038,-10.2435 1.3022,-1.9929 2.6319,-3.978 3.9672,-5.9525 2.6559,-3.9219 5.4112,-7.7715 8.2622,-11.5535 2.086,-2.823 4.3699,-5.4731 6.853,-7.9508 2.37,-2.2351 4.5689,-4.662 7.032,-6.7985 -0.051,0.055 -0.2126,0.211 -0.1527,0.1657 0.2711,-0.2049 0.5232,-0.4336 0.7882,-0.6461 0.086,-0.069 -0.1606,0.1521 -0.251,0.2153 -0.7054,0.4934 -1.8821,0.6306 -2.1348,1.4535 -0.2434,0.7924 1.426,-0.8495 2.0983,-1.3344 0.9504,-0.6856 1.8426,-1.4485 2.7639,-2.1727 8.7957,-26.21411 15.4643,-23.2562 -8.9194,-42.81394 -2.2201,-1.78067 -5.5927,-1.45208 -8.4355,-1.31836 -3.6216,0.17036 -7.1915,1.12358 -10.6485,2.21609 -2.6498,0.83744 -6.796,3.79183 -9.223,5.41147 -8.9255,6.03957 -16.8588,13.35739 -25.1224,20.23618 -1.599,1.36658 -3.2046,2.7254 -4.7969,4.09972 -3.9972,3.45001 -5.3198,4.57229 -9.1446,8.30584 -3.3676,3.2873 -6.5311,6.7411 -9.6273,10.2804 -5.3224,6.1684 -9.4841,13.178 -12.9926,20.5076 -0.7707,1.61 -1.4745,3.2512 -2.2117,4.8769 -2.6751,6.4891 -5.3523,13.2845 -6.4075,20.2683 -0.2384,1.5778 -0.3563,3.1715 -0.5344,4.7573 0.1554,5.905 -0.1458,5.9057 1.0888,11.4367 0.8169,3.6593 2.2593,7.1962 3.7028,10.6434 1.5564,3.7284 3.6127,7.211 5.3754,10.8393 1.7304,3.422 0.5451,1.2305 3.8649,6.3976 20.8305,28.5673 61.2308,-0.8914 40.4003,-29.4587 v 0 c 1.4534,2.6361 1.6248,3.0053 0.6279,1.0472 -1.4007,-2.8412 -2.9548,-5.5996 -4.2893,-8.4698 -0.3611,-0.781 -0.2389,-0.4876 -0.6117,-1.4569 -0.092,-0.2405 -0.1158,-0.5183 -0.2711,-0.7239 -0.08,-0.1057 0.016,0.2642 0.024,0.3964 0.1291,2.1581 0.1322,0.996 -0.083,3.4863 -0.059,0.1551 -0.1579,0.6304 -0.1781,0.4655 -0.034,-0.2779 0.379,-2.0437 0.3985,-2.1182 0.381,-1.4565 0.8218,-2.7367 1.3604,-4.1604 0.365,-0.965 0.7651,-1.9163 1.1477,-2.8744 2.0273,-4.5926 4.0637,-9.242 7.3564,-13.0938 2.9164,-3.4121 6.0201,-6.6997 9.3418,-9.7225 1.3613,-1.2388 2.7674,-2.4275 4.16,-3.6309 1.4324,-1.2379 2.8766,-2.4619 4.315,-3.6929 1.5342,-1.2804 3.0781,-2.5493 4.6026,-3.8413 5.439,-4.6096 10.7034,-9.4575 16.6262,-13.4588 0.476,-0.3402 1.9011,-0.6764 1.4281,-1.0207 -0.5321,-0.3873 -1.1919,0.5939 -1.8373,0.7229 -2.8517,0.5699 -12.2042,2.782 -15.3885,0.023 -23.2405,-20.13594 -17.1988,-15.81153 -8.1034,-42.12067 0.7141,-0.54216 1.409,-1.11067 2.1424,-1.62645 0.3809,-0.26789 1.5831,-0.98075 1.1962,-0.72159 -1.0493,0.70281 -2.1415,1.34077 -3.1844,2.05322 -1.2977,0.88651 -2.4192,2.02038 -3.6659,2.96859 -3.1621,2.86796 -6.1871,5.87931 -9.2183,8.8844 -4.0074,4.09352 -7.8003,8.38136 -11.2059,12.99461 -3.3551,4.46093 -6.6074,8.99499 -9.7361,13.61809 -2.7994,4.14 -5.6472,8.2735 -7.8399,12.779 -1.4484,3.1096 -2.966,6.1844 -4.5487,9.2275 -1.7196,3.484 -3.3673,7.0036 -4.8636,10.5898 -0.5621,1.486 -0.4992,1.308 -1.0218,2.7331 -0.7307,1.993 -0.1778,0.3827 0.011,0.2449 0.4016,-0.2937 -1.3106,1.9867 -0.6637,1.3368 -0.425,0.8455 -0.8743,1.6793 -1.275,2.5367 -1.1556,2.4732 -2.0434,5.0842 -2.8637,7.681 -0.6229,2.3266 -1.1281,4.6796 -1.8009,6.993 -0.6839,3.0646 -1.2719,6.1496 -1.9709,9.2113 -6.3246,34.785 42.8689,43.7293 49.1935,8.9442 z" /><path
         style="fill:#ff5a5a;fill-opacity:1;stroke:none;stroke-width:49.9999;stroke-dasharray:none;paint-order:markers stroke fill"
         id="path5153"
         d="m 1820.6211,1642.5344 c 0.08,-0.5496 0.6165,-1.2412 0.2393,-1.6488 -0.3373,-0.3647 -0.2908,0.9501 -0.4504,1.4205 -0.2267,0.6678 -0.4709,1.3295 -0.7084,1.9935 -1.0785,3.0149 -2.1453,6.03 -3.1666,9.0648 -1.9405,5.1838 -3.3118,10.5554 -4.987,15.8261 -1.7013,5.2591 -3.2104,10.5679 -3.0226,16.1812 0.085,2.5383 0.6612,5.0362 0.9918,7.5543 2.5473,11.1004 8.5854,20.6841 14.727,30.08 2.4595,3.7241 4.7054,7.5574 6.8398,11.4718 2.3317,3.796 4.4082,7.7619 6.8654,11.4813 2.4574,3.7195 2.9886,4.2561 5.6831,7.6864 3.2698,3.9661 7.0879,7.4887 11.4473,10.2353 4.3506,2.741 9.092,4.7825 13.6216,7.1941 7.2681,4.1677 14.3947,8.9162 22.6029,11.0633 2.1805,0.5703 4.4303,0.8317 6.6454,1.2476 6.6819,0.5883 13.2188,-0.5442 19.1545,-3.7127 1.4573,-0.7779 2.7724,-1.7968 4.1587,-2.6952 28.4312,-21.0159 -1.2897,-61.2237 -29.7209,-40.2079 v 0 c 0.8203,-0.48 1.6019,-1.0332 2.4608,-1.4402 3.2858,-1.5567 6.9535,-2.1578 10.5438,-1.5069 0.5468,0.1939 1.1225,0.3201 1.6404,0.5816 0.089,0.045 -0.1842,0.1261 -0.2819,0.1042 -0.4649,-0.104 -0.9269,-0.25 -1.3497,-0.4693 -4.2692,-2.2141 -8.2805,-4.945 -12.5317,-7.192 -0.7499,-0.3928 -7.334,-4.1282 -8.8538,-4.3302 -0.2683,-0.036 0.8958,1.8394 0.3399,0.7378 -0.3407,-0.1874 -0.5476,-0.5524 -0.8213,-0.8286 -3.0484,-3.6488 -5.2826,-7.8119 -7.7065,-11.8854 -2.7707,-5.0812 -5.7165,-10.0472 -8.8855,-14.8914 -1.5662,-2.3962 -3.2119,-4.7587 -4.6927,-7.2091 -2.9683,-4.9116 0.081,2e-4 -2.4024,-4.5254 -0.099,-0.1811 -0.262,-0.3196 -0.3931,-0.4794 -0.1183,2.8447 0.011,1.6459 -0.5881,5.0945 -0.01,0.035 -0.022,-0.071 -0.015,-0.1065 0.055,-0.2738 0.1273,-0.5441 0.2012,-0.8135 0.324,-1.1814 0.6509,-2.1796 1.0234,-3.3715 1.5672,-4.9903 2.8827,-10.0638 4.7078,-14.9681 2.1785,-6.5168 4.8829,-12.8888 6.1811,-19.6652 5,-35 -44.4975,-42.071 -49.4975,-7.071 z" /><path
         style="fill:#ff5a5a;fill-opacity:1;stroke:none;stroke-width:49.9999;stroke-dasharray:none;paint-order:markers stroke fill"
         id="path5155"
         d="m 1416.2851,1654.6805 c 8.1941,0.6346 16.3952,1.1783 24.596,1.7341 9.3401,0.7318 18.6726,1.5474 28.026,2.0926 5.4073,0.3182 10.8263,0.3074 16.2407,0.3153 7.6446,-0.1322 15.1631,-1.6312 22.532,-3.5591 7.7103,-2.1752 14.7996,-5.8719 21.5557,-10.0985 6.0675,-4.0704 11.5764,-8.8285 16.6954,-14.0241 6.2965,-6.1034 11.0931,-13.3898 15.3007,-21.0245 3.154,-5.2389 5.691,-10.7762 7.638,-16.5721 0.5002,-1.4888 1.8801,-6.447 2.4278,-8.3942 0.2693,-1.0051 0.5386,-2.0101 0.8079,-3.0151 9.1269,-34.157 -39.1784,-47.0644 -48.3053,-12.9074 v 0 c -0.212,0.796 -0.4239,1.5919 -0.6359,2.3879 -0.6537,2.3259 -0.9358,3.2876 -1.5214,5.5088 -0.1271,0.4818 -0.1919,0.9826 -0.3672,1.449 -1.0279,2.7345 -2.6592,5.2234 -4.035,7.7781 -1.9261,3.7475 -3.9599,6.8838 -7.0433,9.8167 -2.4445,2.5276 -5.0469,4.8248 -7.9105,6.8809 -2.4357,1.6683 -5.0712,3.0389 -7.8654,4.0044 -1.3537,0.4752 -0.372,0.1613 -2.8394,0.6865 -2.1063,0.4485 -4.2051,0.9524 -6.3636,1.0827 -4.4714,-0.01 -8.9472,0.02 -13.4133,-0.2312 -9.193,-0.5312 -18.3632,-1.3614 -27.5442,-2.0624 -7.9431,-0.5379 -15.8875,-1.0509 -23.8234,-1.6757 -35.2332,-2.9361 -39.3855,46.8912 -4.1523,49.8273 z" /><path
         style="fill:#ff5a5a;fill-opacity:1;stroke:none;stroke-width:49.9999;stroke-dasharray:none;paint-order:markers stroke fill"
         id="path5157"
         d="m 1863.7309,1262.0765 c 1.1464,6.0241 1.3966,12.1598 1.6647,18.2706 0.4421,10.2084 1.5408,20.3713 2.2601,30.561 0.1991,3.1792 0.3486,6.3621 0.4175,9.547 0.038,1.7409 0.2656,2.1621 -0.047,1.5095 -0.046,0.4867 -0.051,0.9792 -0.1385,1.4603 -0.01,0.042 -0.1123,-0.043 -0.1269,0 -0.6478,2.3179 -0.088,0.5552 -0.9259,2.6568 -3.4477,8.6427 1.3736,-3.1925 -2.3749,5.9635 -0.4728,1.1703 -1.5624,4.0473 -2.3113,5.3893 -0.109,0.1954 -0.3247,0.312 -0.4533,0.4951 -0.489,0.6961 -0.9388,1.4191 -1.3955,2.1369 -2.2135,3.4791 -2.043,3.2616 -4.161,6.8593 -1.428,-2.0665 -0.7065,2.7696 -1.707,2.5528 -0.2317,-0.05 0.5724,-0.7124 0.3561,-0.6156 -0.082,0.037 -1.7247,1.8972 -0.1189,0.091 -26.3061,23.6218 7.1002,60.8242 33.4063,37.2025 v 0 c 4.3555,-4.1427 8.326,-8.6539 11.2159,-13.9742 4.0456,-6.9754 8.9053,-13.5401 11.4758,-21.2779 3.352,-8.2632 6.6885,-16.6823 7.1541,-25.6989 0.2593,-5.9506 0.025,-11.8937 -0.3914,-17.836 -0.6968,-9.7598 -1.727,-19.4956 -2.1853,-29.2715 -0.4701,-10.1979 -1.044,-20.4818 -3.7226,-30.3854 -10.1593,-33.8642 -58.0506,-19.4968 -47.8913,14.3674 z" /><path
         style="fill:#ff5a5a;fill-opacity:1;stroke:none;stroke-width:49.9999;stroke-dasharray:none;paint-order:markers stroke fill"
         id="path5165"
         d="m 2265.113,710.43619 c -0.3677,-0.0296 1.8749,0.0331 1.407,0 -0.9825,-0.0696 -1.9876,0.0497 -2.9508,-0.15647 -2.1747,-0.46543 -4.2804,-1.20955 -6.4109,-1.84714 -0.3025,-0.0905 -0.5861,-0.43706 -0.8854,-0.33642 -0.1989,0.0669 0.2462,0.34002 0.3692,0.51004 1.3577,1.26931 2.6415,2.62798 3.7654,4.11096 0.6955,0.91774 1.3042,1.97231 1.943,2.92071 1.4972,2.40208 2.893,4.85111 4.5337,7.16331 0.5468,0.77049 1.1513,1.49828 1.7269,2.24745 2.2388,2.63456 4.3455,5.37117 6.4421,8.11821 1.3768,2.45202 3.167,4.89193 4.8397,7.22466 3.2799,5.04785 7.1238,9.57828 11.1849,14.00381 6.3169,6.73219 13.199,12.88209 19.9551,19.15996 4.2836,3.96179 8.4392,8.10575 13.0953,11.64225 2.4472,1.85875 3.9763,2.83165 6.4374,4.47125 1.9536,1.26624 3.8749,2.57548 5.8423,3.82045 0.6532,0.41336 1.5097,0.86211 2.1391,1.39096 -0.2877,-0.20801 -0.566,-0.42955 -0.863,-0.62404 -0.1834,-0.12015 0.6322,0.60777 0.4752,0.45474 -0.9694,-0.94507 -1.1822,-1.27013 -0.8514,-0.79071 3.2317,3.89861 7.2082,7.0739 11.035,10.35587 0.1094,0.10753 0.479,0.29446 0.3282,0.32255 -0.4539,0.0845 -1.8458,-2.84612 -1.7271,-1.9024 0.025,0.19714 2.0568,2.61845 2.2476,2.84932 -0.012,-0.0101 -0.046,-0.0416 -0.036,-0.0301 0.7844,0.85683 1.5453,1.73601 2.3577,2.56638 2.0627,2.10839 4.5381,3.74777 7.0431,5.2736 -0.524,-0.27311 -0.7355,-0.37693 -1.3999,-0.95115 -7.9524,-6.87332 -11.8477,-12.86418 -7.9033,-28.16929 3.1674,-12.29037 10.505,-13.53847 18.6617,-15.66812 0.4436,-0.0604 0.8873,-0.12087 1.331,-0.18127 0.1056,-0.0114 0.4197,-0.008 0.3168,-0.0338 -0.1471,-0.0374 -0.3034,-0.003 -0.4551,0 -0.418,0 -0.8359,0.003 -1.2538,0.004 -1.6359,0.003 -3.9544,0 -5.5326,0 -3.0085,-0.0238 -6.0177,0.0204 -9.0263,-0.008 -1.6909,-0.0161 -3.3705,-0.0413 -5.0454,-0.2785 -4.2626,-0.4662 -8.4469,-1.4151 -12.598,-2.46629 -0.2748,-0.0847 -0.5659,-0.12824 -0.8243,-0.25429 -0.1402,-0.0684 0.309,0.0447 0.4615,0.0774 0.2063,0.0442 0.4183,0.23138 0.6142,0.15314 0.1197,-0.0478 -0.1436,-0.21791 -0.2411,-0.3021 -0.4088,-0.35271 -0.85,-0.66609 -1.2718,-1.00324 -0.5887,-0.47062 -1.173,-0.94674 -1.7595,-1.4201 -1.539,-1.34713 -3.0923,-2.68028 -4.5823,-4.08226 -0.7184,-0.6759 -1.5154,-1.37358 -2.0345,-2.22218 -3.0704,-3.83699 -6.2928,-7.55547 -9.2104,-11.51377 -1.5199,-2.06205 -1.8872,-2.73399 -3.2236,-4.86606 -2.9215,-5.14268 -5.3334,-10.55841 -7.8106,-15.92439 -2.1238,-4.42032 -3.7439,-9.05039 -5.6057,-13.58104 -1.3008,-3.25173 -2.9533,-6.34706 -4.3671,-9.54696 -1.3263,-3.7061 -3.3526,-7.11647 -5.3265,-10.50621 -1.0661,-1.77345 -2.1088,-3.56073 -3.166,-5.33955 -18.0683,-30.38973 -61.0459,-4.8373 -42.9775,25.55245 v 0 c 0.9885,1.66187 1.9609,3.33325 2.9595,4.98917 0.5064,0.86503 0.9438,1.77287 1.5054,2.60313 0.051,0.0756 -0.1147,-0.34049 -0.061,-0.26691 0.6708,0.91461 0.8484,3.01156 1.5614,3.68868 1.2234,2.65886 2.5219,5.28344 3.6821,7.97137 2.1566,5.12226 3.9332,10.40625 6.4014,15.39798 3.4335,7.43323 6.8106,14.92385 11.093,21.91864 0.9285,1.43399 1.8249,2.88928 2.7855,4.30194 4.0618,5.97313 8.7598,11.4663 13.2998,17.07195 0.8967,1.04423 1.7665,2.11217 2.69,3.13269 3.4215,3.78095 7.412,7.01136 11.2517,10.34423 2.4317,1.92 4.4216,3.56256 7.0322,5.29731 4.6248,3.07318 9.5961,5.55323 15.0211,6.84215 6.4568,1.59623 12.9687,3.00886 19.5946,3.69175 1.2257,0.11338 2.4493,0.25408 3.6772,0.34015 5.1484,0.36089 10.3173,0.13174 15.4721,0.20831 4.4771,0.003 8.9829,0.17293 13.4341,-0.39992 8.737,-2.09722 16.7781,-3.18831 20.3022,-16.05335 4.153,-15.161 -0.034,-21.86173 -8.1815,-28.96757 -0.9035,-0.788 -2.262,-1.62443 -3.3186,-2.30161 -0.1719,-0.10416 -0.6414,-0.46945 -0.5158,-0.31247 0.1582,0.19772 0.4202,0.28366 0.6186,0.44098 0.5017,0.3978 1.4902,1.16869 2.0255,1.75728 0.5197,0.57158 0.9906,1.18745 1.5259,1.74448 0.3014,0.31364 -0.5486,-0.67527 -0.8229,-1.0129 0.1438,0.19523 0.5678,0.78621 0.4184,0.59512 -0.7036,-0.9004 -1.3663,-1.83284 -2.0883,-2.71859 -1.4394,-1.76578 -3.1424,-3.30917 -4.8296,-4.82952 -0.8388,-0.71728 -1.6902,-1.41978 -2.5284,-2.13794 -0.4904,-0.42026 -0.9721,-0.85071 -1.4585,-1.27574 -0.3255,-0.28443 -0.585,-0.67064 -0.9771,-0.85262 -0.2282,-0.10591 0.6918,0.54372 0.4483,0.60719 -0.2524,0.0658 -0.3429,-0.3933 -0.5143,-0.58996 -2.4806,-2.95363 -5.2117,-5.66262 -8.3382,-7.93502 -3.0395,-2.12293 -6.2247,-4.02185 -9.2891,-6.10896 -0.6127,-0.40365 -1.222,-0.81246 -1.838,-1.211 -0.3095,-0.20024 -0.6397,-0.36915 -0.9384,-0.58518 -3.764,-2.72219 -6.8966,-6.23448 -10.3707,-9.28894 -5.8631,-5.4415 -11.8484,-10.75618 -17.3585,-16.56498 -2.7043,-2.82358 -5.104,-5.88772 -7.2267,-9.17323 -1.9773,-2.72892 -3.7216,-5.60218 -5.6729,-8.34837 -2.2269,-2.91722 -4.4522,-5.83626 -6.8366,-8.62836 -0.1085,-0.12358 -0.3674,-0.52972 -0.3255,-0.37073 0.079,0.29863 0.6058,1.07619 0.4425,0.81407 -1.4368,-2.30553 -2.7073,-4.71824 -4.2648,-6.94976 -0.7767,-1.15213 -2.1603,-3.22045 -2.898,-4.22926 -3.1227,-4.26976 -6.6902,-8.1961 -10.5684,-11.79142 -2.722,-2.37389 -6.1523,-5.6652 -9.4418,-7.24262 -6.0479,-2.90013 -9.6324,-4.09104 -15.7926,-3.99564 -35.3553,0 -35.3553,50.00001 0,50.00001 z" /><path
         style="fill:#ff5a5a;fill-opacity:1;stroke:none;stroke-width:49.9999;stroke-dasharray:none;paint-order:markers stroke fill"
         id="path5451"
         d="m 1336.1102,890.68359 c 3.1388,0 6.2775,0 9.4163,0 6.1041,0.4745 -3.2865,-1.06477 -1.2813,-0.11663 0.5617,0.26556 1.141,0.49218 1.713,0.73453 0.7147,0.30274 1.4315,0.60048 2.1473,0.90072 5.0553,2.15387 10.3752,3.40948 15.8128,4.05498 6.078,0.62781 12.1512,-0.20727 18.1845,-0.8768 6.7066,-0.60267 13.4128,-1.26471 20.0377,-2.50582 5.5575,-1.04116 7.8967,-1.69815 13.2829,-3.03172 8.8972,-2.73339 18.2079,-4.98602 26.2676,-9.83936 1.8674,-1.12458 3.6047,-2.45245 5.4071,-3.67866 5.8308,-4.40978 10.4582,-10.01347 14.16,-16.28759 1.6065,-2.72293 3.2497,-6.07658 4.6849,-8.9155 4.3782,-8.68979 8.032,-17.76696 10.1452,-27.28878 0.496,-2.23518 0.8421,-4.50102 1.2632,-6.75151 0.9812,-8.50606 2.1552,-17.13473 1.7442,-25.72565 -0.2819,-5.89439 -0.6733,-7.02625 -1.706,-12.56675 -1.5052,-5.39309 -2.1154,-10.99625 -3.5412,-16.40491 -0.5022,-1.90474 -1.1101,-3.78002 -1.6651,-5.67005 -2.1008,-5.90796 -3.7588,-12.0069 -6.764,-17.55314 -1.2716,-2.34675 -4.2621,-6.87351 -5.9272,-9.432 -1.6473,-2.80326 -3.6005,-5.41438 -5.2547,-8.21275 -0.079,-0.13435 -0.2588,-0.56779 -0.186,-0.42968 1.5463,2.93568 0.9802,1.75694 2.0826,5.47108 0.1011,0.80592 0.1184,1.62682 0.3032,2.41776 0.1017,0.43527 -0.026,-1.78625 -0.051,-1.33998 -0.038,0.67392 0.096,1.35509 0.013,2.02485 -0.6291,5.04246 -1.7365,8.64484 -4.9978,12.87458 22.7851,-27.03404 -15.4468,-59.25704 -38.2319,-32.223 v 0 c -6.2817,7.84188 -7.4165,15.07236 -6.3598,24.4353 0.4552,1.87511 0.7631,3.7922 1.3657,5.62526 2.014,6.12716 6.1278,11.18346 9.4109,16.63054 0.7687,1.18113 1.5009,2.38683 2.3062,3.54338 0.3248,0.46657 0.8966,0.76155 1.1243,1.28244 1.3503,3.08821 2.1183,6.41479 3.3637,9.54317 1.9247,5.61883 2.3934,11.61497 4.0015,17.32767 0.039,0.15163 0.6913,2.60009 0.7146,2.89497 0.4409,5.56469 -0.5506,11.1819 -0.9689,16.71264 -0.4718,2.93724 -0.5241,3.76383 -1.2942,6.61292 -1.2902,4.77361 -3.3451,9.27811 -5.5378,13.69425 -0.8646,1.72148 -1.7033,3.45612 -2.5887,5.16702 -0.2266,0.43773 -0.574,0.82407 -0.7071,1.29863 -0.037,0.13348 0.4025,-0.29226 0.386,-0.15463 -0.012,0.0979 -0.7714,0.98034 -0.8535,1.0777 1.1134,0.14322 -1.1906,1.02439 -2.4174,1.50284 -2.0469,0.7983 -5.8627,2.01618 -7.8639,2.63972 -1.3117,0.40867 -2.6311,0.79214 -3.9466,1.18822 -3.4611,0.87513 -5.8345,1.52506 -9.3346,2.21289 -5.7411,1.12824 -11.5766,1.57782 -17.3914,2.13982 -2.2077,0.24582 -6.152,0.7407 -7.5575,0.83166 1.3963,0.35097 -1.6531,-0.19266 -1.5785,-0.42563 -2.9501,-1.23677 -5.9813,-2.78781 -9.0654,-3.61503 -4.391,-1.17777 -8.3918,-1.97625 -12.8502,-1.79398 -3.1388,0 -6.2775,0 -9.4163,0 -35.3553,0 -35.3553,50.00001 0,50.00001 z" /><path
         style="fill:#ff5a5a;fill-opacity:1;stroke:none;stroke-width:49.9999;stroke-dasharray:none;paint-order:markers stroke fill"
         id="path5455"
         d="m 1911.9138,579.33351 c -8.9032,2.88002 -16.7762,8.08847 -23.7392,14.26792 -2.1502,1.90826 -4.1471,3.98259 -6.2206,5.97387 -6.7921,7.0853 -13.1242,14.60344 -18.7666,22.63878 -2.0593,2.93267 -4.1859,6.29306 -6.1381,9.32516 -3.0348,4.95226 -6.1154,10.06742 -7.7128,15.71133 -0.8089,2.85769 -1.3792,5.78543 -1.8114,8.72376 -0.6069,4.12674 -0.5363,9.21975 -0.5839,13.40461 -0.023,11.16537 1.0708,22.52861 4.7256,33.15251 0.8552,2.4861 1.9469,4.8845 2.9203,7.32676 4.5972,8.66727 9.6335,17.29631 16.1748,24.67314 1.4449,1.62943 3.0195,3.13907 4.5293,4.70863 4.5419,4.06778 8.6862,8.61644 13.5193,12.35731 3.232,2.50166 5.2775,3.75184 8.5997,5.91828 1.4415,0.86222 2.863,1.75887 4.3245,2.5867 2.5879,1.46579 5.2508,2.7963 7.8411,4.25791 2.7802,1.56877 5.5341,3.18439 8.3152,4.75197 6.8209,3.4131 14.0935,5.8398 21.2905,8.33019 7.2265,2.2555 14.4599,4.73483 21.9389,6.04465 2.0799,0.36428 4.1793,0.6073 6.2689,0.91096 9.7346,0.92503 19.5187,1.51553 29.2868,0.91794 8.696,-0.59253 16.928,-3.58539 24.8356,-7.06101 7.159,-3.16331 13.6856,-7.44297 20.0859,-11.89718 3.5365,-2.44713 6.9129,-5.10672 10.2304,-7.83941 27.2407,-22.5375 -4.6321,-61.06182 -31.8729,-38.52432 v 0 c -2.2371,1.86418 -4.5246,3.66472 -6.9194,5.32456 -3.862,2.68793 -7.6937,5.42639 -12.0265,7.33314 -2.102,0.99988 -3.5106,1.44362 -5.7268,2.23099 -0.2333,0.0829 -0.3959,0.3334 -0.6395,0.37785 -0.5087,0.0929 -1.0269,0.12219 -1.5404,0.18328 -6.2583,0.66117 -12.8376,-0.38555 -19.1041,-0.60711 -6.3451,-0.65345 -12.4169,-2.73688 -18.4739,-4.64797 -4.3763,-1.51273 -8.7157,-3.13285 -13.0905,-4.63849 -5.9369,-3.34335 -11.8535,-6.72174 -17.8284,-9.99188 -1.2861,-0.82598 -2.6281,-1.56742 -3.8774,-2.44814 -3.6183,-2.55087 -6.3957,-6.17019 -9.817,-8.95892 -1.0151,-0.97049 -2.4584,-2.27129 -3.3509,-3.40349 -2.5903,-3.28605 -4.5676,-7.01403 -6.9543,-10.44102 -3.3449,-6.23184 -3.5997,-13.68385 -3.6659,-20.5912 0,-1.30402 0,-2.60805 0,-3.9121 0,-0.72488 0.2234,-1.48553 0,-2.17469 -0.077,-0.23659 -0.3155,0.62357 -0.5398,0.51578 -0.2229,-0.10713 0,-0.50424 0.078,-0.73787 0.5983,-1.72254 1.7111,-3.29531 2.631,-4.82388 0.7186,-1.11916 3.65,-5.71019 4.4767,-6.90113 4.0262,-5.80001 8.5368,-11.22527 13.3554,-16.38226 3.2467,-3.29956 2.7139,-2.92785 6.03,-5.70323 0.5465,-0.45738 1.1476,-0.84825 1.6814,-1.32035 0.104,-0.092 0.094,-0.28876 0.2149,-0.35676 0.4674,-0.26255 2.231,-0.91276 2.8622,-1.15139 33.541,-11.18034 17.7296,-58.61452 -15.8114,-47.43418 z" /><path
         style="fill:#ff5a5a;fill-opacity:1;stroke:none;stroke-width:49.9999;stroke-dasharray:none;paint-order:markers stroke fill"
         id="path5457"
         d="m 2269.39,1272.9276 c -0.8301,0 -1.6601,0 -2.4902,0 0.1929,-0.078 0.7223,-0.084 0.5787,-0.2347 -0.2954,-0.3101 -1.6318,-0.35 -1.2109,-0.4288 0.6331,-0.1185 1.2729,0.1981 1.9093,0.298 0.3567,0.056 1.0687,0.5304 1.0697,0.1694 0,-0.603 -0.7108,-0.9744 -1.0662,-1.4615 -0.2882,-0.6434 -0.5435,-1.3025 -0.8645,-1.9301 -3.4665,-6.7787 -1.9318,-3.0358 -5.4426,-10.7231 -2.7547,-6.0317 -5.0572,-12.2098 -7.2727,-18.4531 -0.4601,-1.4815 -0.9575,-2.9519 -1.3801,-4.4446 -1.1584,-4.0901 -2.1241,-8.2329 -3.407,-12.2919 -2.534,-8.0166 -0.571,-1.2275 -1.9644,-6.1341 -0.9294,-4.7819 -0.9965,-9.6765 -1.1352,-14.5301 0.047,-2.9895 -0.2193,-5.9968 -0.082,-8.9856 0.01,-0.1108 0.4704,-0.635 0.5135,-0.7099 1.1389,-2.8751 2.2849,-5.8016 3.0535,-8.805 0.3553,-1.3883 0.9622,-2.7642 0.9319,-4.1969 -0.099,-4.6553 -0.8766,-9.2714 -1.3149,-13.9071 -3.0647,-4.1405 -5.376,-8.9634 -9.1941,-12.4214 -2.7402,-2.4817 -6.4047,-3.8437 -9.944,-4.9115 -9.2778,-2.799 -19.4629,-0.292 -27.4624,4.701 -2.3474,1.4652 -4.3664,3.4004 -6.5495,5.1006 -1.7914,2.043 -3.7832,3.9263 -5.374,6.1291 -8.2652,11.4447 -11.3424,25.5284 -14.3055,39.0473 -1.8773,9.5784 -2.7034,19.3 -2.922,29.0458 -0.04,1.7683 -0.1715,3.5415 -0.049,5.306 0.2044,2.9335 0.6857,5.8411 1.0286,8.7617 1.9703,9.214 5.1188,18.2491 9.5997,26.5582 2.3623,4.3804 3.4081,5.6902 6.1201,9.6266 6.4645,8.1348 13.9957,15.4256 22.3152,21.6418 1.2504,0.7872 2.5009,1.5744 3.7513,2.3616 30.3274,18.1727 56.0275,-24.7168 25.7,-42.8895 v 0 c -0.022,0.025 -0.044,0.05 -0.066,0.074 -4.1257,-2.6306 -7.2013,-6.6396 -10.7789,-9.9179 -0.2018,-0.2749 -2.006,-2.7036 -2.2783,-3.1726 -2.1659,-3.7309 -3.6499,-7.8512 -4.9541,-11.9448 -1.1605,-1.862 -0.4907,-0.5076 -0.4135,-4.8506 0.1188,-6.6894 0.5891,-13.36 1.7987,-19.9509 1.0839,-5.0051 2.1729,-9.9643 3.6346,-14.8752 0.2868,-0.9633 0.6556,-1.9025 0.906,-2.8759 0.068,-0.2665 0.2598,-0.6513 0.046,-0.8242 -0.2006,-0.1619 -0.4809,0.1858 -0.7214,0.2787 -4.2544,1.9461 -9.3878,2.2508 -13.8042,0.4349 -2.3571,-0.9692 -4.853,-2.0106 -6.5913,-3.8743 -2.8603,-3.0664 -4.5726,-7.0303 -6.8589,-10.5455 -0.1516,-3.7874 -0.4116,-7.5721 -0.4546,-11.3623 0,-0.3251 0.3211,-1.248 0.3151,-0.923 -0.01,0.3875 -0.2023,0.7484 -0.3187,1.118 -0.8332,2.646 -1.9359,5.1975 -2.7805,7.84 -1.1302,4.1087 -1.6314,5.38 -2.1749,9.7112 -0.6539,5.211 -0.3495,10.4516 -0.3005,15.6826 0.2773,9.1595 0.7099,18.3808 3.175,27.2642 1.3435,4.4414 2.8279,8.8269 4.0533,13.306 0.5389,1.9698 0.992,3.9632 1.5637,5.9237 0.6117,2.0978 1.3237,4.1651 1.9856,6.2476 6.1089,17.0195 12.9826,34.0417 24.1544,48.4488 5.0669,5.14 7.0834,7.8391 13.5757,11.5636 7.2966,4.1859 15.8102,5.9617 24.1466,5.9352 35.3554,0 35.3554,-50 0,-50 z" /><path
         style="fill:#ff5a5a;fill-opacity:1;stroke:none;stroke-width:49.9999;stroke-dasharray:none;paint-order:markers stroke fill"
         id="path5459"
         d="m 2317.409,1471.4963 c 0.8216,5.1006 1.6375,10.2007 2.4867,15.2968 0.2119,1.2713 1.4071,8.2653 1.4959,9.7624 0.051,0.8626 -0.1469,1.7219 -0.2203,2.5828 -0.9492,8.023 -4.1723,15.5648 -7.1293,23.0221 -3.9584,6.0113 -8.2856,11.7678 -12.3933,17.681 -3.4451,4.8314 -7.2675,9.3929 -11.1951,13.8388 -2.2036,2.7935 -4.8723,5.1157 -7.2939,7.7145 -23.6637,26.2685 13.4855,59.7339 37.1492,33.4655 v 0 c 2.4182,-2.4911 5.4138,-5.2005 7.6616,-8.1271 5.1837,-5.8957 10.2175,-11.9473 14.7432,-18.3669 1.5125,-2.1775 2.9603,-4.4002 4.5111,-6.5505 4.9003,-6.7951 10.0694,-13.4525 13.3139,-21.2689 5.2799,-13.3829 10.2845,-27.0554 10.6321,-41.6241 -0.091,-3.1228 -0.046,-6.2523 -0.2718,-9.3683 -0.1404,-1.94 -0.5289,-3.8543 -0.8238,-5.7769 -0.9121,-5.9452 -1.9835,-11.8714 -2.972,-17.8027 -3.9043,-35.1391 -53.5985,-29.6175 -49.6942,5.5215 z" /><path
         style="fill:#ff5a5a;fill-opacity:1;stroke:none;stroke-width:49.9999;stroke-dasharray:none;paint-order:markers stroke fill"
         id="path5461"
         d="m 2378.3768,1512.5941 c 3.2884,-7.5558 4.0872,-15.7882 4.6585,-23.9132 0.2395,-8.0016 -0.1471,-16.0093 -0.9436,-23.9702 -0.432,-3.9939 -0.1458,-1.8137 -0.9214,-6.5322 -6.3066,-34.7883 -55.5047,-25.8693 -49.198,8.919 v 0 c 0.4148,1.0281 0.1061,0.187 0.3749,2.6616 0.5352,5.1716 0.7627,10.3615 0.8012,15.5614 -0.1555,2.4802 -0.1947,5.2495 -0.7288,7.5776 -13.9272,32.4967 32.0301,52.1926 45.9572,19.696 z" /><path
         style="fill:#ff5a5a;fill-opacity:1;stroke:none;stroke-width:49.9999;stroke-dasharray:none;paint-order:markers stroke fill"
         id="path5501"
         d="m 1639.7878,796.36844 c -3.5933,2.16395 -6.8472,4.78965 -9.9735,7.56917 -0.8716,0.77499 -1.8104,1.489 -2.5718,2.37255 -1.974,2.29057 -3.9276,4.61565 -5.6135,7.12589 -1.3696,2.03941 -2.3469,4.31646 -3.5204,6.47467 -3.687,8.68542 -6.7859,17.65766 -9.1531,26.79311 -2.0195,9.42893 -2.6729,19.06905 -3.0879,28.67967 -0.2046,8.10749 -0.4909,16.29312 0.6871,24.35037 0.8979,6.14087 1.6199,8.20571 3.1799,14.04736 1.8569,6.55119 4.5222,12.81459 7.3667,18.98534 1.8354,3.98169 3.5737,7.61796 5.7838,11.42288 1.1261,1.93858 2.3847,3.79714 3.577,5.69571 5.4935,8.5616 13.5038,14.6557 21.5401,20.62237 9.7916,7.14211 20.172,13.58082 31.411,18.19889 1.9024,0.78171 3.8531,1.44023 5.7797,2.16035 6.6051,1.91505 13.4349,3.57732 20.3451,3.86096 4.7427,0.19465 5.832,0.0272 10.209,-0.25197 2.9056,-0.17073 5.7721,-0.67183 8.6493,-1.07923 35.0006,-4.99568 27.9357,-54.49403 -7.0649,-49.49836 v 0 c -1.7148,0.24617 -3.4067,0.57865 -5.1364,0.7039 -0.5981,0.0533 -1.1993,0.0789 -1.7943,0.15991 -0.1785,0.0244 -0.3376,0.15238 -0.5176,0.15489 -2.5672,0.036 -5.1134,-0.6532 -7.6284,-1.04894 -8.9413,-3.03292 -17.0077,-8.03481 -24.5838,-13.60678 -4.7813,-3.48631 -1.3397,-0.90749 -5.8631,-4.47373 -0.3749,-0.29554 -0.76,-0.57785 -1.1399,-0.86678 0.011,0.0859 0.1051,0.30565 0.033,0.25765 -0.653,-0.43502 -1.7845,-1.86679 -2.1711,-2.31724 -2.3255,-3.44416 -4.1209,-6.9723 -5.8899,-10.73992 -1.7761,-3.78282 -3.5209,-7.59251 -4.6996,-11.61417 -0.3535,-1.21338 -1.4065,-4.6685 -1.6704,-6.1023 -1.0248,-5.56702 -0.4612,-11.31052 -0.4463,-16.92442 0.2535,-6.26925 0.6385,-12.53992 1.6613,-18.73866 1.2019,-5.53101 3.5675,-10.75484 5.1924,-16.16739 0.6807,-2.45137 0.089,0.42058 -1.4155,0.37862 -0.7435,-0.0206 6.1146,-4.69109 2.8081,-2.8765 30.9062,-17.17008 6.624,-60.87795 -24.2821,-43.70787 z" /></g></g></svg>
