<?xml version="1.0" encoding="UTF-8" standalone="no"?>
<!-- Created with Inkscape (http://www.inkscape.org/) -->

<svg
   width="3840mm"
   height="2160mm"
   viewBox="0 0 3840 2160"
   version="1.1"
   id="svg5458"
   inkscape:version="1.2.2 (732a01da63, 2022-12-09)"
   sodipodi:docname="bone fracture.svg"
   xml:space="preserve"
   inkscape:export-filename="..\..\items\boneFracture.png"
   inkscape:export-xdpi="96.096664"
   inkscape:export-ydpi="96.096664"
   xmlns:inkscape="http://www.inkscape.org/namespaces/inkscape"
   xmlns:sodipodi="http://sodipodi.sourceforge.net/DTD/sodipodi-0.dtd"
   xmlns="http://www.w3.org/2000/svg"
   xmlns:svg="http://www.w3.org/2000/svg"><sodipodi:namedview
     id="namedview5460"
     pagecolor="#ffffff"
     bordercolor="#000000"
     borderopacity="0.25"
     inkscape:showpageshadow="2"
     inkscape:pageopacity="0.0"
     inkscape:pagecheckerboard="0"
     inkscape:deskcolor="#d1d1d1"
     inkscape:document-units="mm"
     showgrid="true"
     inkscape:zoom="0.04"
     inkscape:cx="8587.5"
     inkscape:cy="5450"
     inkscape:window-width="1920"
     inkscape:window-height="986"
     inkscape:window-x="-11"
     inkscape:window-y="-11"
     inkscape:window-maximized="1"
     inkscape:current-layer="layer1" /><defs
     id="defs5455" /><g
     inkscape:label="Layer 1"
     inkscape:groupmode="layer"
     id="layer1"><path
       style="opacity:0.99;fill:#ffb380;fill-opacity:1;stroke-width:40;paint-order:markers stroke fill"
       id="path1814"
       d="m 1147.7827,1441.7485 c 0.2459,0.6361 0.4712,1.2806 0.7377,1.9085 1.9401,4.5715 1.9504,4.2255 3.6984,8.5788 0.7911,1.9701 2.2374,6.2689 3.3118,7.859 2.1229,3.1419 4.6864,5.9624 7.0296,8.9437 13.5348,-3.8392 28.3642,-4.5818 40.6045,-11.5176 3.6819,-2.0863 1.581,-8.3343 1.8801,-12.5556 0.2139,-3.018 -0.1767,-6.0493 -0.3478,-9.07 -0.4363,-7.7051 -1.2586,-15.3638 -2.2476,-23.0132 -1.2908,-6.3361 -1.7799,-10.8138 -5.1385,-16.7677 -6.7523,-11.9701 -17.978,-20.792 -28.1516,-29.662 -9.8393,-7.8971 -28.6389,-24.4192 -42.6327,-18.7676 -7.9348,3.2045 -13.4121,10.6316 -20.1182,15.9474 -6.6935,16.5684 -7.1511,34.3467 -5.237,51.8751 1.1903,10.2804 4.3938,19.9847 8.5088,29.4214 4.0459,9.411 9.5037,18.0506 15.4311,26.3649 11.1516,13.9112 21.096,18.1929 42.8244,6.9397 10.5904,-5.4848 9.8566,-26.9533 9.735,-36.9697 -0.4667,-7.4053 -0.4265,-14.8279 -0.361,-22.243 0.04,-4.5017 0.3381,-10.7741 -0.4271,-15.1558 -0.6289,-3.6008 -1.8447,-7.0741 -2.767,-10.6111 -2.3527,-3.6676 -3.98,-7.9187 -7.058,-11.0029 -9.2495,-9.2679 -22.7802,-12.7516 -35.2638,-8.8053 -10.3502,3.2719 -12.2659,6.5261 -19.7803,13.5071 -9.6108,12.1496 -15.061,26.5983 -14.9443,42.1734 0.022,2.9285 0.427,5.8417 0.6404,8.7626 2.664,18.1902 15.1172,31.703 24.1847,46.8844 0.3957,0.8128 0.8604,1.5955 1.1871,2.4384 0.03,0.078 -0.2219,0.056 -0.2509,-0.023 -0.4522,-1.2272 -0.9886,-2.4552 -1.1407,-3.7542 -0.7627,-6.5116 1.2099,-9.9487 4.8639,-14.966 6.1925,-4.8536 2.3131,-2.5738 12.5951,-5.5673 0.3309,-0.096 1.2909,-0.09 0.9977,-0.2708 -0.8685,-0.5359 -1.9591,-0.5761 -2.9213,-0.9163 -2.5243,-0.8927 -2.2323,-0.8389 -4.3162,-2.0492 -5.7386,-3.3006 -10.5614,-7.7691 -15.5112,-12.0944 -4.9522,-4.9226 -10.6641,-9.0289 -15.7747,-13.7639 -5.8063,-4.1729 -11.8847,-7.9583 -17.8473,-11.9205 -3.8814,-2.0292 -6.1967,-5.7028 -9.3251,-8.5873 -1.5837,-1.4601 -3.2821,-2.7908 -4.9231,-4.1861 -10.7769,0.3755 -24.2845,-6.0525 -32.3307,1.1267 -18.9435,16.9024 -3.7989,36.2058 6.0565,48.4903 0.2223,0.2771 15.1054,17.9963 15.4149,18.3648 2.5103,2.8775 5.0337,5.7437 7.531,8.6326 3.1495,3.6432 6.1732,7.3969 9.4074,10.9651 0.9642,1.0638 1.7662,3.8455 2.9921,3.0983 44.0601,-26.8574 48.1165,-15.6537 36.338,-35.2078 -5.4802,-8.0819 -14.0347,-13.1694 -20.2209,-20.5828 -3.4488,-4.4201 -6.328,-9.2166 -9.8888,-13.5527 -4.1266,-5.025 -2.6897,-2.2395 -3.9451,-4.8496 -4.2886,-8.7252 -10.6867,-15.853 -17.9143,-22.222 -8.3255,-6.4777 -16.6867,-12.8905 -25.072,-19.3006 -0.8907,-0.7813 -1.9564,-1.3997 -2.6721,-2.344 -0.2517,-0.3322 0.7828,0.4801 1.1891,0.387 0.275,-0.063 0.1791,-0.9741 -0.2775,-2.532 -4.6614,-15.9054 1.2722,5.3324 -2.6616,-8.8878 -3.2356,-11.9429 -7.6186,-23.534 -12.3079,-34.9701 -4.976,-13.4818 -11.774,-26.1541 -17.7866,-39.1803 -3.2011,-8.6369 -5.57274,-17.5644 -7.06713,-26.6501 -0.66789,-3.2462 0.19786,-6.3984 2.0728,-9.1296 5.86413,-9.362 12.55213,-18.159 18.80053,-27.2697 10.4587,-14.6632 21.4788,-28.8839 33.2665,-42.5004 4.5793,-5.3623 10.2906,-9.4313 15.635,-13.9397 8.135,-6.4695 17.0378,-11.9275 25.7991,-17.4992 8.274,-4.7461 15.9782,-10.3484 24.4619,-14.7115 6.1268,-2.8287 12.266,-5.6523 18.5819,-8.0346 7.7929,-3.0346 15.9252,-4.9059 23.9701,-7.0969 8.9163,-2.8806 18.069,-2.5633 27.2449,-1.5007 9.4277,0.8097 18.6767,3.7983 28.1731,3.9467 2.4001,0.037 4.7967,-0.196 7.1951,-0.294 8.0026,-1.0237 15.8048,-3.4179 23.5188,-5.7465 0.041,2.5582 2.5312,-1.7489 3.4404,-0.9777 0.147,0.1247 -0.3005,0.2415 -0.4508,0.3622 -0.3575,0.1809 -1.4092,0.3251 -1.0726,0.5426 1.0319,0.667 2.3527,0.71 3.534,1.0482 1.9321,0.5531 3.8706,1.0837 5.8059,1.6255 8.1127,3.0886 16.1786,7.4105 22.9499,12.8868 5.6415,4.7124 10.5371,10.1661 15.328,15.7161 3.2507,3.7657 2.8764,2.1947 3.2296,4.5727 -2.8715,-3.2296 -2.7166,-7.4249 -2.0188,-11.4317 0.1603,-0.921 1.0867,-1.7589 0.8665,-2.6675 -0.1276,-0.5265 -0.8537,0.6676 -1.266,1.0189 -0.8211,0.6994 -1.6224,1.4217 -2.4335,2.1326 -11.6427,11.5265 -20.3718,26.8318 -15.4078,43.7897 1.0922,3.7312 3.5817,6.9013 5.3725,10.352 2.8538,2.5945 5.3888,5.5903 8.5614,7.7834 12.3173,8.5149 26.5067,6.6236 39.8057,2.5783 1.3419,-0.4362 2.6561,-0.9695 4.0258,-1.3087 6.0376,-1.4949 13.0596,-1.5662 19.167,-1.9277 8.7575,-0.5183 14.727,-0.6621 23.5304,-0.9589 18.3788,-0.525 36.7657,-0.6229 55.1507,-0.6403 11.8961,0.1725 23.7929,-0.6115 35.4994,-2.7309 7.9438,-1.2116 15.4031,-4.0268 23.3423,-5.2253 21.3034,-1.9084 42.6347,-3.3175 63.8042,-6.4742 16.192,-1.8702 31.0988,-8.2998 45.8119,-14.8979 14.8728,-6.022 29.4125,-12.7671 43.9495,-19.542 11.0777,-5.8392 22.7939,-10.2315 34.3547,-14.9731 9.2072,-3.5237 18.0943,-7.7464 26.9621,-12.021 12.9832,-7.0732 26.8256,-12.3541 40.1865,-18.6417 13.5494,-6.3161 26.4569,-14.0593 40.3619,-19.5833 15.0053,-5.0364 29.9234,-10.3191 44.8886,-15.4716 15.2654,-5.2126 30.1428,-11.4457 44.7654,-18.233 11.1224,-5.1116 21.4381,-11.6487 31.7895,-18.1168 14.2783,-8.5355 28.952,-16.416 43.5391,-24.4158 13.7581,-7.1302 27.6816,-13.9151 41.4322,-21.05861 8.9046,-4.85013 17.9071,-9.51356 26.8411,-14.31297 1.4087,-0.80902 2.8586,-1.55004 4.226,-2.42705 6.6787,-4.28348 13.0142,-9.14551 19.5771,-13.60165 8.0144,-5.44174 9.2348,-6.12402 17.5273,-11.38664 16.5585,-10.01447 32.6838,-20.70631 49.0779,-30.98453 14.8374,-9.25452 30.065,-17.69517 45.9433,-25.01855 16.5887,-8.35538 33.4466,-16.16469 50.8204,-22.7476 9.7019,-3.50743 19.5034,-6.73788 29.3017,-9.96585 10.506,-3.40765 20.8453,-7.18 30.7719,-12.03185 12.4373,-6.69033 24.8769,-13.36537 36.5715,-21.29375 10.7082,-7.64611 20.846,-16.08301 30.6593,-24.83897 7.4827,-6.2339 14.5851,-12.80303 20.7828,-20.32339 5.3852,-6.86165 10.6654,-13.75423 15.505,-21.01728 7.4921,-11.44373 14.9804,-22.88749 22.2508,-34.46952 6.6868,-11.21423 13.4604,-22.42143 19.5678,-33.96684 4.6974,-10.14246 9.4702,-21.04512 10.5766,-32.32277 0.3113,-3.17381 0.1784,-6.37558 0.2676,-9.56336 -0.6465,-3.3782 -0.9897,-6.82885 -1.9396,-10.1346 -2.8752,-10.00657 -9.6694,-19.60269 -18.4297,-25.29758 -2.2797,-1.48201 -4.8089,-2.53939 -7.2134,-3.80908 -10.583,-3.85228 -21.7789,-4.41131 -32.9016,-3.76023 -2.1933,0.41847 -6.4971,-0.97594 -6.5798,1.25534 -0.082,2.20012 4.451,-1.38448 6.5613,-0.7571 5.1492,1.53077 10.2392,3.75711 14.5066,7.02022 2.3895,1.82723 2.7432,5.42615 4.7273,7.68723 0.3716,0.42343 0.5391,-1.00809 0.6487,-1.5607 0.4395,-2.21747 0.6603,-4.47273 0.9905,-6.70909 1.7542,-16.81369 6.8682,-32.89147 11.8096,-48.96488 5.8481,-19.90109 13.0329,-39.34949 20.7859,-58.57729 7.9625,-20.39959 16.7466,-40.04236 28.5668,-58.50102 4.4984,-6.47255 8.2319,-13.72708 14.1792,-19.06177 2.7147,-2.4351 5.6523,-4.6101 8.4388,-6.9628 8.7528,-7.29282 17.3616,-14.76391 26.4637,-21.62329 5.6063,-3.70581 12.0487,-5.87158 18.2121,-8.48082 5.5248,-1.53503 11.7273,-7.04255 17.3305,-7.77036 5.9229,-1.87376 12.0979,-2.40792 18.2007,-3.34143 7.6137,-0.83092 15.4026,-2.17532 23.0931,-1.74929 3.2517,0.18013 6.4697,0.75396 9.7046,1.13094 32.132,5.73926 63.3435,15.61869 94.7668,24.29674 2.5464,0.77967 5.1838,1.30799 7.6388,2.33905 1.0613,0.44561 1.8963,1.30952 2.7866,2.03893 5.0067,4.1022 7.2224,7.53917 10.3982,13.02025 4.6013,8.75586 7.7073,18.14018 11.0598,27.40739 3.179,7.71097 6.2772,15.34345 7.221,23.65817 1.1795,11.77645 0.5226,23.60483 -0.4524,35.36611 -0.3609,9.06675 -3.6717,17.40355 -6.4172,25.91081 -1.7206,5.3313 -3.3497,10.69176 -5.034,16.03467 -3.1311,11.87117 -7.5554,23.22735 -12.6394,34.36985 -5.2004,11.71779 -9.6099,23.76954 -13.6522,35.92963 -4.4604,15.55805 -5.6677,31.72584 -7.0036,47.77457 -1.6584,21.70771 -3.4433,43.40084 -4.6183,65.14192 -0.1664,12.34678 -1.9031,24.94169 0.1757,37.22986 0.4921,2.90968 1.3243,5.75154 1.9862,8.62733 2.086,3.94866 3.7423,8.15628 6.2582,11.84597 7.2554,10.64062 19.7528,17.52614 32.1607,19.85505 2.8731,0.53922 5.8234,0.51475 8.7352,0.77213 14.8312,0.0754 28.6194,-5.01827 39.2036,-15.58583 2.0841,-2.08108 3.7123,-4.57378 5.5684,-6.86067 9.0072,-13.82059 10.569,-28.29486 10.0769,-44.322 -0.8602,-12.16541 -6.7445,-23.0265 -10.0211,-34.5844 -0.2884,-1.38697 -1.4674,-6.82554 -1.5346,-8.1352 -0.011,-0.19031 0.3318,0.25752 0.521,0.23556 0.1894,-0.022 0.3662,-0.518 0.4535,-0.34856 0.5548,1.07566 -0.598,3.06022 -0.8623,3.73459 12.3121,37.92241 -16.4682,3.51978 -20.7015,9.88857 -0.5776,0.86884 1.497,1.456 2.1918,2.23432 1.0406,1.16602 1.996,2.4057 3.0107,3.59437 7.1406,8.36374 4.2256,4.99052 14.3126,15.05606 18.5381,17.61329 38.2691,34.02153 58.8661,49.17358 6.93,5.31175 15.1908,8.40364 22.3123,13.3995 2.249,1.57782 2.445,1.49014 1.2348,1.40036 3.4401,4.83923 5.7214,10.30097 8.5228,15.53113 6.3463,9.30666 11.0323,19.53056 14.1158,30.33982 0.044,7.23416 -0.227,14.46435 -0.4781,21.69393 -0.016,8.62121 -0.3125,17.06059 -2.2635,25.46792 -3.3475,16.06198 -5.4938,32.40793 -10.0383,48.19737 -2.1286,5.2642 -6.6689,8.51286 -10.5876,12.46952 -10.6556,9.46007 -15.6819,22.67423 -23.2974,34.24579 -5.2503,4.16802 -9.0085,9.94512 -13.871,14.47532 -0.5689,0.5216 -1.0954,1.0934 -1.7066,1.5649 -2.1521,1.66 -5.4115,3.2842 -7.6504,4.6853 -7.4255,4.6473 -3.275,1.9795 -11.2482,7.2432 -8.8061,6.0688 -17.5197,12.0894 -26.9616,17.1205 -8.6961,3.756 -17.4998,7.264 -26.7988,9.1527 -6.8845,1.0387 -13.8388,2.5627 -20.8497,2.3594 -7.2642,-0.2105 -14.3502,-2.6069 -21.1977,-4.7308 -19.6746,-6.392 -39.0855,-13.5212 -59.1916,-18.4745 -5.8468,-0.7081 -8.1942,-3.8347 -2.2233,-0.4289 1.6685,0.9516 2.7511,2.3335 3.8831,3.8002 1.461,3.8891 0.5638,6.5748 -0.6698,10.6515 -0.2069,0.6839 -0.8483,1.2434 -0.8736,1.9576 -0.01,0.2779 0.5699,-0.057 0.8111,-0.1953 1.097,-0.6291 2.1123,-1.3911 3.1684,-2.0866 8.4494,-5.6047 18.3819,-7.865 28.0551,-10.455 13.2384,-2.7031 26.2681,-6.2231 39.0551,-10.569 8.1349,-3.3072 18.968,-6.9252 18.9794,-19.1479 0.01,-11.01604 -8.9617,-20.18365 -14.5923,-29.65197 -0.7541,-1.26783 -11.1192,-3.55037 -12.6146,-3.8894 -8.6865,-1.5272 -17.5278,-1.73609 -26.3244,-1.87831 -8.355,-0.50461 -16.6306,0.65212 -24.9175,1.48561 -11.0412,1.50485 -21.9587,3.82543 -32.7748,6.47465 -10.73,2.86673 -21.5585,5.26444 -32.1446,8.64028 -6.9475,2.18541 -13.9104,4.29525 -20.8689,6.44867 -13.9987,3.79084 -28.4135,5.69081 -42.6582,8.29407 -19.3085,5.1097 -38.984,8.4691 -58.6724,11.722 -18.3915,2.5765 -36.7603,5.7415 -54.5387,11.1752 -16.1997,4.2191 -31.6458,10.5258 -46.5682,18.0356 -11.7683,5.7398 -23.0202,12.4732 -34.8488,18.0851 -15.5838,6.4204 -31.7178,11.411 -47.6045,17.0249 -13.9701,4.65 -27.7506,9.8279 -41.6205,14.7553 -17.3275,5.5815 -34.5313,11.4528 -51.4327,18.2292 -11.8774,5.2641 -23.988,9.923 -36.1969,14.343 -17.1781,6.1447 -33.9785,13.2574 -51.0921,19.5782 -18.709,6.6719 -37.4855,13.2096 -55.7219,21.1025 -15.0416,5.9518 -29.7942,12.5868 -44.6995,18.8631 -18.6181,7.3983 -37.5494,13.968 -56.0389,21.7086 -14.5964,6.2123 -28.3789,14.0305 -41.8803,22.308 -13.5993,8.4751 -27.4074,16.5959 -41.3669,24.4604 -10.8868,5.7357 -20.5841,13.2994 -30.8955,19.9443 -20.8202,14.7301 -17.3393,10.0851 19.167,47.837 1.7678,1.8282 4.3664,-2.6102 6.5064,-3.9843 2.6344,-1.6916 5.2094,-3.474 7.8142,-5.211 20.0366,-13.979 42.3171,-23.9423 64.8659,-33.0606 12.8725,-5.3055 26.1332,-9.7782 38.7954,-15.5967 6.3476,-2.9169 9.8595,-4.9527 15.9253,-8.2511 16.9354,-10.2034 35.4505,-17.1604 54.1026,-23.4756 11.0234,-3.8405 22.4896,-6.4342 33.4555,-10.4452 1.3191,-0.4825 10.7618,-4.3644 12.7064,-5.1613 12.7281,-6.1275 26.1669,-9.9511 39.908,-12.9416 15.5592,-2.3859 -11.1304,2.9969 -22.6673,-21.1631 -3.0608,-6.4098 4.6963,-13.4467 6.1849,-20.3921 0.1642,-0.7663 -1.3861,0.7334 -2.058,1.1369 -1.7685,1.062 -3.5076,2.1724 -5.2614,3.2587 -27.1539,15.6919 -52.6963,33.9229 -79.0386,50.9103 -17.0718,10.9227 -34.6917,20.788 -53.3807,28.634 -13.1774,5.6668 -26.9436,9.7027 -40.8932,12.9397 -24.148,3.6624 -48.5069,5.6263 -72.754,8.5569 -11.3677,1.832 -22.9196,2.8439 -34.0779,5.8345 -7.8113,2.0936 -15.1624,5.1255 -22.4676,8.5204 -1.9229,1.1935 -4.162,1.9867 -5.7688,3.5806 -13.1991,13.0928 -14.6876,18.8636 -2.7854,40.8249 4.0529,7.478 20.5929,7.7829 28.0592,7.8936 13.981,-0.7375 27.4025,-5.0734 40.7212,-9.0719 0.9282,-0.2874 3.7157,-0.5852 2.7844,-0.8622 -36.497,-10.8559 -22.645,6.4965 -26.2462,-39.5211 -0.024,-0.3048 -0.5729,0.2262 -0.8268,0.3963 -1.4919,0.9994 -2.9038,2.1156 -4.4016,3.1061 -1.9775,1.3077 -4.0139,2.524 -6.0208,3.786 -13.1072,8.1002 -26.6125,15.5134 -40.0363,23.0666 -11.1133,5.8178 -21.6307,12.6933 -32.6146,18.7362 -4.2598,2.3436 -18.85,9.7733 -22.7262,11.7588 -18.2648,9.7958 -37.46,17.4231 -57.1816,23.6773 -19.4022,6.2226 -39.1089,11.4244 -58.4975,17.6906 -15.1825,5.235 -29.367,13.0537 -43.2841,20.9849 -16.2674,8.6927 -30.2327,20.7645 -44.5177,32.2567 -14.208,12.1287 -28.2972,24.3957 -41.6974,37.4182 -12.0485,12.1913 -26.5904,24.0891 -6.3918,47.2843 14.1181,16.2127 47.2565,-4.7902 60.3141,-11.5937 34.5485,-18.3697 68.9325,-37.0452 103.3574,-55.6451 14.7304,-8.1116 29.471,-16.2557 44.5902,-23.6296 1.9068,-0.9746 5.0971,-2.5144 6.7757,-3.7735 0.8184,-0.6139 -2.0578,2.2854 -2.6887,1.48 -10.1372,-12.9398 -17.05,-28.3274 -27.9695,-40.6142 -1.3468,-1.5154 -2.9188,2.8158 -4.3232,4.278 -1.7195,1.7901 -3.3641,3.6508 -5.0461,5.4763 -10.3667,11.311 -23.0069,19.9381 -35.5813,28.5676 -13.4915,9.5354 -27.4641,18.3587 -40.8022,28.1037 -10.526,7.1432 -21.7267,13.2815 -32.5854,19.9272 -11.8085,7.6274 -22.1498,17.2489 -31.8648,27.3457 -10.1899,11.45 -17.2069,25.0709 -23.4667,38.9298 -4.5347,10.308 -8.2162,21.2632 -8.5358,32.6341 -0.069,2.4591 0.1753,4.917 0.263,7.3755 2.4496,14.7786 9.8914,25.3778 25.1202,29.3701 5.7089,1.4966 10.9557,0.697 16.5839,0.2023 14.9667,-1.7961 29.1183,-7.1361 42.5698,-13.7209 3.1913,-1.6234 6.118,-3.7244 9.2779,-5.4054 0.4269,-0.227 1.6104,-0.9531 1.3417,-0.5512 -0.3157,0.4724 -0.9394,0.7594 -1.5063,0.7974 -4.4034,0.2953 -9.0444,1.5649 -13.2384,0.1912 -4.5723,-1.4976 -7.836,-5.5849 -11.754,-8.3774 -0.9722,-1.8766 -1.5436,-4.023 -2.9165,-5.6298 -0.4562,-0.534 -0.076,1.4029 -0.095,2.1051 -0.143,5.2093 -0.503,9.9451 -2.087,14.932 -7.2904,13.8707 -12.999,28.4882 -19.4902,42.7348 -9.3364,19.0392 -20.5901,37.0348 -30.7721,55.6172 -5.4409,10.795 -10.7969,21.6055 -16.5654,32.2288 -5.4766,10.0094 -11.5867,19.6515 -17.7218,29.2663 -5.3887,6.8538 -9.4092,17.7394 -15.6102,23.6554 -5.3361,5.4046 -12.2277,8.8783 -18.6041,12.8709 -9.9287,5.8474 -18.8486,13.2457 -28.5133,19.4619 -4.4119,2.7956 -6.3517,3.3407 -11.1795,3.7095 -11.2907,1.4357 -22.2519,-1.9127 -33.2557,-4.0694 -7.996,-1.7293 -16.0912,-2.9188 -24.14,-4.3517 -3.57,-0.6355 -5.9768,-0.9997 -8.8231,-3.0437 -10.2801,-6.1394 -20.8388,-11.7981 -30.9787,-18.1714 -6.7952,-3.8912 -12.7233,-9.0723 -19.4333,-13.094 -2.1317,-1.2777 -9.9004,-5.4458 -12.5314,-6.8662 -11.2856,-5.8825 -22.6596,-11.593 -34.254,-16.8435 -4.6063,-2.1724 -9.4051,-4.0346 -13.9252,-6.3897 -0.5878,-0.3063 -1.6076,-0.472 -1.6332,-1.1343 -0.044,-1.1347 2.0547,1.002 2.9577,1.6904 0.4022,0.49 0.7856,0.9961 1.2068,1.47 1.1864,1.3348 0.1134,-3.6945 1.0456,-1.312 4.9838,-10.3003 7.4101,-21.4087 9.19,-32.6318 1.657,-11.8395 1.9588,-23.7907 2.0726,-35.7247 0.2526,-12.9954 -3.8144,-25.4493 -5.5841,-38.2014 -0.561,-10.0253 0.7584,-20.017 1.7234,-29.9776 0.6085,-5.8307 1.4026,-11.7474 2.8045,-17.4519 1.7105,-8.0806 4.031,-16.0114 5.8884,-24.0594 2.793,-11.267 4.3847,-22.7672 6.4472,-34.1766 2.1449,-12.8206 2.3678,-25.855 2.6022,-38.8205 0.1935,-16.0612 0.5166,-32.1072 -0.9303,-48.1167 -0.9686,-10.9766 -4.3835,-21.1501 -8.6696,-31.2061 -14.2855,-32.3407 -60.0222,-12.1379 -45.7367,20.2028 v 0 c 2.4137,5.0664 4.1274,10.0906 4.6326,15.7557 1.4572,14.111 0.6753,28.3099 0.712,42.4723 -0.1808,10.2836 -0.2644,20.6304 -1.8129,30.8192 -1.9279,10.6669 -3.3981,21.4209 -5.9939,31.9571 -1.8273,8.1576 -4.2982,16.1581 -5.9551,24.3563 -1.6455,7.7375 -3.0785,15.5612 -3.7554,23.4468 -1.3507,13.9434 -3.0157,27.9666 -1.4391,41.973 1.0558,7.0824 0.7555,5.7269 2.0804,12.2872 0.8873,4.3935 2.2621,8.9059 2.75,13.3711 0.1778,1.6274 0.159,3.2703 0.2386,4.9055 -0.086,9.5496 -0.2543,19.1144 -1.4956,28.5992 -0.3865,2.6534 -0.8005,5.9466 -1.4155,8.6023 -1.5117,6.5275 -4.8759,12.415 -6.6953,18.8476 -0.5556,2.5584 -1.2515,5.0902 -1.6667,7.675 -1.8455,11.4888 1.0169,23.1617 6.5192,33.2137 1.7705,2.2707 3.3003,4.7515 5.3115,6.8119 7.7462,7.9352 18.0593,11.882 27.9562,16.3185 10.5289,4.7325 20.8174,9.9692 31.0702,15.268 2.9752,1.6062 6.0427,3.0444 8.965,4.7451 7.0285,4.0901 13.0891,9.7006 20.2418,13.6104 11.5027,7.1651 23.37,13.7077 35.1022,20.4865 3.034,1.3992 5.9838,2.9977 9.102,4.1975 11.6834,4.4956 24.626,4.3573 36.6339,7.5569 16.0462,3.1438 32.1537,7.0422 48.6047,4.6727 12.868,-1.6723 22.143,-4.6468 33.0469,-11.6882 9.2123,-6.1907 18.0208,-12.9799 27.4898,-18.8021 10.5957,-6.6674 21.6153,-12.8909 29.8777,-22.553 1.6986,-2.0633 3.4839,-4.0582 5.096,-6.1898 5.5407,-7.3261 9.5724,-15.733 14.8238,-23.2563 6.7555,-10.6049 13.4786,-21.2427 19.5014,-32.2864 5.7408,-10.5734 11.1271,-21.3084 16.4846,-32.0805 10.754,-19.6709 22.7442,-38.6718 32.4247,-58.9206 3.8148,-8.3985 7.381,-16.8899 11.1191,-25.3208 2.2699,-5.1197 4.8974,-10.0764 7.1465,-15.2053 1.4282,-3.2571 2.6589,-6.5972 3.9884,-9.8958 2.4735,-9.8233 4.0346,-19.3711 3.7854,-29.5426 -0.064,-2.5955 0.1251,-5.2376 -0.4104,-7.7781 -0.9672,-4.5882 -2.7118,-8.9774 -4.0677,-13.4661 -4.7672,-4.161 -8.4989,-9.9592 -14.3016,-12.4829 -12.4296,-5.4057 -24.4946,0.9498 -34.4737,7.3752 -8.0291,4.036 -16.4778,7.4647 -25.4198,8.79 -0.7543,0.1033 -2.8,-0.2293 -2.2628,0.3101 0.8403,0.8435 2.3784,0.3909 3.459,0.8908 6.3035,2.9156 12.0115,7.8958 11.9868,15.3371 -2.1847,0.2355 3.3986,-15.2095 3.983,-15.8138 3.9304,-8.7272 8.033,-17.4505 14.0643,-24.9729 6.6379,-7.0484 13.8034,-13.7137 21.7903,-19.2146 12.0253,-7.3599 24.449,-14.1241 35.9982,-22.2138 12.9463,-9.4765 26.5623,-17.9866 39.6439,-27.2818 15.6393,-10.7982 31.2286,-21.7955 44.0742,-35.9532 1.2558,-1.3778 2.5072,-2.7597 3.7675,-4.1333 0.5342,-0.5821 1.9959,-1.0411 1.6161,-1.734 -26.5194,-48.3853 -13.9312,-48.4515 -30.9722,-39.6796 -15.6957,7.7121 -31.0739,16.067 -46.3663,24.5439 -34.2192,18.4896 -68.399,37.0517 -102.7387,55.3164 -4.4095,2.3098 -8.8118,4.6331 -13.2283,6.9293 -2.5859,1.3445 -9.5807,1.702 -7.7787,3.9927 3.7261,4.7369 14.2549,1.643 16.5843,7.2014 4.4382,10.5909 -0.574,23.0462 0.8655,34.4388 0.4671,3.6965 7.7714,-14.9195 7.678,-8.1234 12.2358,-11.9604 25.2054,-23.1129 38.1585,-34.2823 12.2202,-9.8442 24.0603,-20.3537 37.9847,-27.8001 10.9137,-6.2679 22.0397,-12.502 33.8797,-16.8249 19.2996,-6.2772 38.9609,-11.3562 58.2666,-17.6163 22.319,-7.1464 44.0941,-15.746 64.7958,-26.8165 6.58,-3.3723 18.5109,-9.4244 25.0008,-12.9998 10.7944,-5.9468 21.135,-12.7018 32.0609,-18.4199 14.2021,-7.9934 28.4875,-15.8454 42.3383,-24.4447 5.7935,-3.7121 9.1233,-5.6428 14.3941,-9.697 1.8925,-1.4556 5.1348,-2.2086 5.5194,-4.565 3.5028,-21.462 11.5271,-54.5244 -26.4325,-42.7186 -8.7941,2.653 -17.612,5.496 -26.6943,6.9529 -6.395,0.7023 4.9251,1.0189 6.8466,5.9393 3.5609,9.1183 11.5202,31.7327 -4.5072,36.9183 12.9651,-6.454 26.828,-8.065 41.0827,-9.8747 26.0732,-3.154 52.3149,-5.0472 78.2051,-9.5247 16.6808,-3.9656 33.1735,-8.7564 48.9432,-15.5709 21.2791,-9.0776 41.5322,-20.102 60.9778,-32.6546 26.1059,-16.8392 51.4173,-34.9075 78.3281,-50.4606 10.3492,-6.4483 29.6542,-16.5456 24.2861,-33.2292 -8.2561,-25.6597 -21.8864,-23.6727 -37.5604,-20.9244 -16.5509,3.6372 -32.7977,8.2836 -48.184,15.5215 -3.1048,1.2727 -6.1328,2.7372 -9.28,3.901 -11.1347,4.1177 -22.8372,6.6437 -34.0167,10.6324 -21.3464,7.286 -42.5246,15.3291 -61.9665,26.9288 -2.7436,1.5057 -8.4246,4.6957 -11.4074,6.071 -12.44,5.7358 -25.4992,10.0807 -38.1402,15.3257 -25.6777,10.4368 -50.9976,21.9335 -73.8504,37.8189 -2.2687,1.5183 -4.544,3.0268 -6.806,4.5549 -0.771,0.5209 -2.7373,0.7746 -2.2929,1.5921 25.1737,46.3011 13.8721,50.8333 30.4821,38.8089 9.4784,-6.1164 18.3709,-13.0693 28.3395,-18.4021 14.5062,-8.1726 28.853,-16.6154 42.9891,-25.415 11.3089,-6.9573 22.8257,-13.5677 35.0517,-18.8058 18.5046,-7.7745 37.5073,-14.2378 56.1148,-21.7405 15.0816,-6.3564 30.0176,-13.0535 45.2331,-19.0916 17.3446,-7.5936 35.3287,-13.6055 53.1171,-20.0553 17.0035,-6.2938 33.7146,-13.3223 50.7738,-19.4617 12.7487,-4.6165 25.4055,-9.4636 37.8085,-14.9581 16.2816,-6.5511 32.8952,-12.1035 49.5799,-17.5275 13.8239,-4.9375 27.5802,-10.0609 41.5065,-14.7148 17.5632,-6.2132 35.441,-11.6521 52.5456,-19.0755 12.1107,-5.8466 23.7719,-12.541 35.8002,-18.5535 12.4645,-6.339 25.3994,-11.4875 38.9777,-14.9503 15.4358,-5.0636 31.7615,-6.9694 47.732,-9.5525 19.9678,-3.3087 39.9686,-6.6166 59.5365,-11.8728 16.1821,-2.985 32.5773,-5.111 48.4174,-9.7087 7.1469,-2.213 14.2899,-4.3922 21.4315,-6.6265 9.4852,-3.1114 19.2929,-5.0088 28.8968,-7.7126 8.4755,-2.1709 17.0833,-3.844 25.719,-5.2435 6.3605,-0.6494 12.6737,-1.7006 19.0904,-1.2366 5.6428,0.085 11.2966,0.1967 16.9095,0.8335 10.5026,0.9262 -11.9666,-6.1876 -10.8752,-28.41241 0.3456,-7.03392 9.5547,-10.35147 14.1743,-15.66698 0.2387,-0.27477 -0.6527,0.32279 -0.979,0.48421 -11.7654,4.00765 -23.7855,7.08822 -35.9563,9.62555 -14.9567,4.04965 -29.9724,8.38263 -42.92,17.22223 -17.4456,11.8471 -26.3993,21.7038 -22.8555,44.1482 0.6796,2.169 1.161,4.4103 2.0388,6.5068 6.0936,14.5537 17.6364,22.5223 32.7488,25.7353 19.3877,4.6605 37.9496,11.9811 56.971,17.8787 4.5091,1.2738 8.9609,2.7721 13.5274,3.8212 17.7951,4.0881 35.8055,3.1124 53.5485,-0.6484 3.3689,-0.7967 6.7712,-1.4641 10.1068,-2.3903 10.0775,-2.7981 19.7363,-7.24 29.2756,-11.4379 10.8228,-5.7878 20.9402,-12.5383 31.0084,-19.5328 9.8039,-6.5087 20.4496,-12.0342 28.8856,-20.3613 6.863,-7.2764 13.7988,-14.5329 20.0882,-22.3179 3.8214,-6.05 3.569,-5.4137 6.9289,-11.6618 2.7956,-5.1986 5.2481,-10.4143 9.8166,-14.39999 10.6069,-10.731 18.6002,-19.03317 23.1778,-34.0963 4.6577,-16.81723 7.4856,-34.0329 10.7741,-51.15597 2.3614,-11.35319 3.4978,-22.71043 3.366,-34.31566 0.4355,-12.54138 1.3602,-25.24858 -1.5378,-37.58716 -4.2291,-14.04443 -9.8324,-27.73847 -18.0792,-39.9488 -4.8982,-8.95062 -8.9516,-18.42061 -16.0464,-25.97219 -1.9304,-1.88179 -3.75,-3.88477 -5.7915,-5.64544 -7.3779,-6.36273 -16.5719,-9.98278 -24.6483,-15.26265 -18.6764,-13.65361 -36.4739,-28.58214 -53.3128,-44.43923 -2.2894,-2.22689 -4.6712,-4.36287 -6.8688,-6.68067 -7.8653,-8.2953 -14.7804,-18.05996 -25.3482,-23.31128 -4.9061,-2.43795 -10.0232,-5.99474 -15.481,-5.51971 -8.9159,0.77602 -16.8476,6.04446 -25.2717,9.06669 -1.8412,2.70357 -4.0108,5.21055 -5.5237,8.1107 -6.8754,13.18006 -5.7912,27.92997 -1.9883,41.78212 2.2608,7.51274 4.6543,15.09385 8.0139,22.18055 0.1077,2.66576 0.4744,5.59118 0.2771,8.2618 -0.096,1.2953 -0.6319,2.54958 -0.611,3.84823 0,0.17124 0.1762,0.29367 0.2644,0.44051 -0.066,0.269 -0.4133,0.63431 -0.1969,0.80698 0.082,0.0657 2.3006,-0.41304 1.2732,0.35084 -1.1679,0.8682 -2.1598,1.18004 -3.4753,1.39631 -0.4059,0.30461 -0.2755,1.19136 -0.6334,1.26651 -0.2556,0.0537 -0.5242,-0.24218 -0.7692,-0.15108 -1.1372,0.42291 1.9939,5.91809 0.1937,3.6345 -1.3758,-2.91576 -1.2861,-6.50232 -1.2957,-9.66123 -0.021,-6.93068 0.4874,-13.86123 0.7059,-20.78466 1.1438,-21.25597 2.9038,-42.46367 4.5186,-63.6872 1.0107,-12.14506 1.791,-24.35942 4.6561,-36.24932 3.419,-10.45797 7.2687,-20.78672 11.6719,-30.87126 5.915,-12.99845 11.1029,-26.25619 14.8267,-40.06908 5.4798,-17.38495 12.2187,-34.61827 13.6019,-52.9545 1.2079,-15.29795 1.9429,-30.68929 0.1778,-45.98228 -1.6856,-11.83934 -4.9498,-23.15382 -9.7813,-34.11535 -4.521,-12.42245 -8.8101,-24.98606 -15.4424,-36.5002 -1.6738,-2.65485 -3.1933,-5.41345 -5.0213,-7.96459 -11.0612,-15.43714 -26.5666,-26.84613 -45.1141,-31.4864 -34.2016,-9.4429 -68.1774,-20.29573 -103.2882,-25.87072 -5.3237,-0.44624 -10.6337,-1.10826 -15.9711,-1.33876 -9.8129,-0.42376 -19.7063,1.22377 -29.4151,2.33976 -7.8859,1.319 -15.8956,2.0238 -23.5586,4.49181 -8.2923,2.45239 -15.9697,6.08991 -23.681,9.97098 -9.9677,4.22912 -20.2062,8.10754 -28.9309,14.68988 -9.7511,7.43746 -19.1137,15.35332 -28.494,23.24914 -2.9769,2.51408 -10.0815,8.44529 -12.5716,10.87673 -7.9796,7.79174 -13.9623,17.2356 -19.9887,26.53401 -5.5109,8.72543 -7.0206,10.76994 -11.9663,20.06589 -7.9997,15.03633 -14.1574,30.91418 -20.7815,46.57715 -8.2587,20.54193 -15.9387,41.31085 -22.1968,62.55998 -5.7349,18.65974 -11.4376,37.39079 -13.5562,56.88589 -0.7183,5.54043 -2.6408,17.20284 -1.5252,22.59709 1.1878,5.74265 2.2337,12.08016 6.0764,16.50992 10.9624,12.63711 16.139,10.95661 28.9408,10.66842 0.2563,-0.006 -0.5078,-0.0702 -0.7617,-0.10538 2.4019,-0.64566 5.4316,-0.0574 7.9019,0.10096 0.4486,0.0288 1.0675,0.43411 1.3461,0.0813 0.2287,-0.28977 -0.5957,-0.4364 -0.8935,-0.6546 -2.7603,-2.2275 -2.8446,-2.37675 -1.9047,-5.32321 1.3232,-0.18954 0.7302,-0.25688 0.1063,2.63792 -1.1161,5.17827 -2.8577,10.29693 -5.2566,15.01609 -5.3958,10.48668 -11.7576,20.49563 -17.6859,30.68158 -6.9778,11.2572 -14.3379,22.27948 -21.5555,33.38693 -3.9471,6.05351 -8.4425,11.65952 -12.8552,17.37455 -3.9895,5.71815 -10.2563,9.45846 -15.1251,14.32856 -8.1798,7.41934 -16.7884,14.4108 -25.7044,20.92452 -9.467,6.80913 -20.1485,11.72118 -30.219,17.55751 -7.8368,3.91168 -16.1316,6.64652 -24.426,9.42885 -10.4726,3.49825 -20.9867,6.87692 -31.3488,10.69542 -18.4365,7.05797 -36.433,15.1712 -54.0387,24.10452 -17.7579,8.26174 -34.8759,17.63085 -51.4822,28.02292 -16.4777,10.33317 -32.6828,21.08419 -49.3309,31.14423 -9.2535,5.88613 -10.2962,6.44874 -19.2177,12.50947 -5.4121,3.67665 -10.6309,7.76891 -16.0775,11.38235 -0.9278,0.61548 -1.9243,1.12036 -2.8865,1.68056 -8.729,4.69127 -17.516,9.26682 -26.2258,13.98791 -14.0854,7.31769 -28.3626,14.2412 -42.432,21.59249 -15.4259,8.46677 -30.9499,16.79493 -46.0237,25.87354 -8.5801,5.3819 -17.0921,10.8766 -26.3122,15.1453 -13.0685,6.0708 -26.3576,11.6614 -40.0063,16.3135 -15.8475,5.4715 -31.6838,10.9722 -47.5234,16.4639 -14.6424,6.1005 -28.5804,13.662 -42.8067,20.6608 -13.4864,6.4196 -27.5459,11.6462 -40.6506,18.8641 -7.9155,3.8642 -15.8893,7.5927 -24.1287,10.7521 -12.2647,5.0542 -24.7043,9.7209 -36.4731,15.9017 -14.3185,6.6775 -28.6465,13.3049 -43.2954,19.2428 -10.5686,4.7475 -21.1245,9.8287 -32.8033,11.0745 -21.4822,3.2935 -43.1886,4.2172 -64.7684,6.6294 -3.2078,0.5834 -6.439,1.0501 -9.6233,1.75 -4.8515,1.0665 -9.3531,3.1681 -14.3542,3.5882 -8.7154,1.6525 -17.6228,1.9997 -26.4832,1.9025 -18.9345,0.018 -37.871,0.1225 -56.7989,0.6691 -20.3054,0.6936 -41.2576,0.502 -60.7982,6.7189 -0.4135,0.2223 -1.5392,0.5593 -1.147,0.8174 0.9761,0.6423 2.2592,0.6839 3.2617,1.2842 3.1594,1.8921 3.3384,2.8392 6.1397,6.153 2.1677,5.8565 3.0062,5.9149 1.9376,12.4884 -0.6301,3.8765 -4.2783,4.9493 0.6344,-0.5793 6.0626,-5.5074 12.3323,-11.1184 15.7449,-18.8253 4.9497,-11.1782 3.8243,-22.221 -1.2968,-32.9888 -1.5463,-2.4019 -2.9648,-4.891 -4.639,-7.2055 -1.5918,-2.2004 -6.9454,-8.1457 -8.7677,-10.1477 -5.6738,-6.2332 -11.5548,-12.2257 -18.2031,-17.4447 -12.0884,-8.7547 -25.0506,-16.5978 -39.4194,-20.9891 -13.0934,-3.6554 -26.682,-7.4583 -39.9215,-2.0798 -3.8285,1.6142 -8.2878,2.0381 -12.13,3.5249 -0.1304,0.783 0.014,0.4438 -1.7218,0.2441 -1.4601,-0.1679 -2.9055,-0.4463 -4.3569,-0.6785 -6.7749,-1.0837 -13.5344,-2.2743 -20.3481,-3.1004 -15.3463,-1.4639 -30.7313,-1.5775 -45.6216,3.0244 -9.731,2.7077 -19.5835,5.0134 -28.9954,8.7689 -7.8944,3.1553 -15.7334,6.4486 -23.3665,10.2101 -9.7474,5.1029 -18.8041,11.2578 -28.2447,16.8925 -10.8092,6.8815 -21.769,13.659 -31.6502,21.8526 -2.6379,2.4643 -5.6912,4.4541 -8.4226,6.8256 -4.3756,3.7992 -8.3841,8.0211 -12.3417,12.2422 -12.99429,15.0447 -25.18063,30.7302 -36.69056,46.9414 -7.68702,11.2304 -16.16829,21.9532 -22.65894,33.9548 -5.87756,13.1796 -8.74583,24.5369 -6.26531,39.059 2.31831,13.4253 5.78811,26.6619 10.9813,39.2822 5.73333,12.3802 12.22264,24.4123 16.93788,37.2378 3.98291,9.6156 7.66794,19.3839 10.39947,29.4371 4.23463,14.9396 8.97509,30.0459 22.23136,39.617 7.7213,5.8826 15.4281,11.7724 23.0982,17.7137 4.6498,3.0996 6.3601,8.7069 9.5188,13.102 1.3355,1.7773 2.6223,3.5922 4.0064,5.332 0.8348,1.0495 1.8914,1.8218 2.6742,2.9148 3.3671,4.7006 6.3733,9.6743 10.2177,14.0298 5.1741,5.7958 10.7013,11.1441 16.7089,16.0708 -7.6163,-17.0684 -1.2784,-0.9653 40.2856,-28.432 0.2327,-0.1537 -0.4446,-0.342 -0.6309,-0.5496 -1.2084,-1.3463 -2.3701,-2.7338 -3.5482,-4.1067 -10.145,-11.8223 -1.9152,-2.3464 -12.938,-14.9601 -4.7978,-5.713 -9.6128,-11.4116 -14.4083,-17.1265 -1.2309,-1.467 -2.4822,-2.9176 -3.6746,-4.416 -0.5245,-0.6592 -1.1828,-2.8439 -1.4734,-2.0532 -13.5492,36.8616 5.0957,26.7611 -38.8593,27.0103 -0.5423,-1.5208 -0.2485,-0.5167 2.2901,2.1186 4.673,4.8509 9.5114,9.5219 15.2918,13.0712 1.7453,1.157 11.2611,8.0593 12.6322,8.1146 0.1078,0 -0.092,-0.1954 -0.138,-0.293 5.3279,4.5999 10.8164,8.9857 15.896,13.87 8.1592,7.1164 16.4149,14.1536 26.0944,19.1809 13.8014,6.5645 25.7843,11.1632 41.4613,6.1066 3.0402,-0.9806 5.4214,-3.3802 8.1322,-5.0704 5.4541,-6.1935 7.9024,-7.6026 10.1935,-16.0023 2.9555,-10.8354 -0.3252,-21.256 -5.7382,-30.587 -5.3705,-8.7816 -11.1971,-17.2847 -17.1681,-25.6661 -0.7035,-4.3074 -0.7694,-7.9019 0.976,-12.0198 -1.5643,0.1954 -3.0861,0.7221 -4.6604,0.8048 -6.0075,0.3158 -11.173,-2.445 -14.7971,-7.2933 -1.155,-1.5452 -1.4872,-3.5602 -2.2307,-5.3402 0.082,-0.5836 0.074,-2.3146 0.2454,-1.7507 0.6802,2.2444 0.2957,10.2717 0.2881,11.1983 -0.045,5.4466 -0.069,11.1876 0.075,16.63 0.059,2.2425 0.1956,4.4823 0.2934,6.7235 0.049,1.8616 0.022,3.7267 0.1475,5.5847 0.4451,6.5845 4.3949,-6.4374 7.2685,-7.2028 25.1931,-6.7099 22.6555,-6.3699 31.7617,2.8183 0.3789,0.3823 -0.7351,-0.7864 -1.1027,-1.1796 -3.9641,-5.4901 -7.6554,-11.1534 -10.3217,-17.4098 -2.2121,-4.9295 -4.05,-9.8624 -4.6269,-15.2949 -0.6268,-4.1149 -0.8474,-8.3194 -0.6937,-12.485 0.065,-1.7741 0.2521,-3.5418 0.4109,-5.31 0.1172,-1.304 0.6884,-2.6249 0.4167,-3.9057 -0.089,-0.419 -0.7375,0.4359 -1.1063,0.6538 -5.3328,2.91 -10.104,7.2595 -15.9984,8.7298 -3.4693,0.8654 -7.0375,-1.2885 -10.516,-2.1159 -0.1244,-0.03 -0.1058,-0.4409 0.01,-0.3835 4.7984,2.4127 8.7567,6.3168 12.9952,9.5093 3.5451,3.0836 7.9756,6.8808 11.4445,10.1077 1.3009,1.2102 2.2956,2.8019 3.8155,3.7221 0.5645,0.3418 0.2407,-2.5271 0.4931,-1.9173 0.4432,1.071 0.5387,2.2547 0.8081,3.3821 0.8675,6.3247 1.3731,12.6482 1.88,19.0112 0.1116,1.4005 -0.8977,3.5271 0.3348,4.2016 1.0339,0.5658 0.9669,-2.1498 1.4504,-3.2247 13.0574,-2.608 26.1147,-5.2161 39.172,-7.8241 1.6844,2.3974 3.3245,4.8265 5.0531,7.1922 0.2379,0.3256 -0.4211,-0.6916 -0.5753,-1.0642 -0.6741,-1.6289 -1.2461,-3.2985 -1.9065,-4.933 -1.826,-4.5195 -3.917,-8.9231 -5.7874,-13.4236 -15.8114,-31.6228 -60.5328,-9.2621 -44.7214,22.3607 z" /><g
       id="g1621"
       transform="rotate(-27.227047,2402.8974,327.76326)"><path
         style="opacity:0.99;fill:#000000;fill-opacity:1;stroke-width:40;paint-order:markers stroke fill"
         id="path1587"
         d="m 747.89556,737.5867 c 1.71632,7.74277 3.95165,15.29104 4.88883,23.17822 0.28806,5.45245 1.23013,10.99439 0.61648,16.46171 -0.31011,2.7631 -1.0143,4.69178 -1.80051,7.38793 -2.30804,8.07776 -8.02167,14.26866 -13.18133,20.65216 -8.19402,9.33114 -15.78851,19.13549 -23.23452,29.06784 -12.0078,14.58558 -23.88552,29.28432 -35.42469,44.24645 -7.32631,9.52834 -13.93624,19.56086 -20.78138,29.4308 -9.95283,16.40565 -17.49923,34.08754 -25.49991,51.48418 -7.45678,16.20417 -15.12273,32.28663 -20.30656,49.38441 -4.10313,12.3966 -5.53971,25.3758 -6.37849,38.3364 -0.0636,7.7432 -1.01338,15.6052 -0.13563,23.3387 0.99166,8.7369 1.75218,10.4265 3.94986,18.648 0.92263,2.6311 1.68487,5.324 2.76791,7.8932 2.95527,7.0102 3.94208,7.8996 7.3787,13.9038 3.24565,5.6705 6.24308,11.4138 9.57353,17.0471 8.36091,13.3221 16.67788,26.6668 25.53017,39.6695 7.81876,10.3267 14.83797,21.4158 23.51458,31.0728 2.25973,2.515 4.68921,4.8722 7.03382,7.3083 16.90851,15.5689 36.76557,27.7129 55.84261,40.4601 9.84483,6.4728 20.64052,11.3025 32.25281,13.5021 6.55963,1.2425 11.04112,1.3889 17.62961,1.8701 15.2521,0.5683 30.54253,0.7545 45.79173,0.052 15.78563,-0.9759 30.61737,-6.8015 45.55694,-11.51 13.41956,-3.9819 26.35417,-9.3318 39.48104,-14.136 11.39143,-3.9899 21.78294,-10.0414 32.03742,-16.302 14.24578,-8.1336 28.13344,-16.9528 41.47833,-26.4961 12.34969,-8.384 23.43759,-18.3969 34.99199,-27.8064 16.054,-12.3418 31.4005,-25.5468 46.4168,-39.1241 9.8855,-8.9615 20.3475,-17.2501 29.8179,-26.6533 9.0758,-9.7608 17.4493,-20.1368 26.1257,-30.2422 4.3265,-5.8046 9.5907,-10.7449 14.4441,-16.0854 3.9569,-4.868 7.3892,-10.0862 11.2083,-15.0533 21.541,-28.0354 -18.1071,-58.49903 -39.6481,-30.4636 v 0 c -2.9872,3.8908 -5.9714,7.772 -8.5898,11.9191 -5.1669,5.7063 -10.7813,11.0022 -15.4112,17.1832 -7.8352,9.1871 -15.5027,18.5209 -23.5905,27.4933 -8.6782,8.93 -18.896,16.2334 -27.9039,24.827 -14.3716,13.0149 -29.0826,25.6385 -44.466,37.4481 -10.75441,8.7786 -21.05339,18.129 -32.55414,25.9404 -12.3104,8.8811 -25.2493,16.9155 -38.41253,24.4618 -7.44024,4.5627 -14.88056,9.139 -23.1758,12.0166 -12.39203,4.561 -24.613,9.6036 -37.28242,13.3862 -10.86691,3.4265 -21.62926,7.8507 -32.97697,9.2569 -13.28624,0.7094 -26.62338,0.3498 -39.9169,0 -9.68462,-0.6011 -17.34624,-1.1589 -25.53372,-7.0682 -8.55437,-5.7109 -17.01593,-11.5552 -25.56761,-17.2705 -5.05791,-3.3803 -11.3271,-7.3244 -16.16297,-11.172 -2.11095,-1.6795 -4.05334,-3.5607 -6.08,-5.341 -9.51706,-9.5705 -17.12949,-20.7146 -25.02675,-31.6267 -8.29262,-12.168 -16.05547,-24.6738 -23.90896,-37.1279 -3.40077,-5.6364 -6.35874,-11.4697 -9.64663,-17.1694 -1.00402,-1.7405 -2.36165,-3.2815 -3.20466,-5.1054 -0.65368,-1.4143 -1.09773,-2.9162 -1.64661,-4.3743 -0.1211,-0.4037 -2.00763,-6.5119 -2.17474,-7.625 -0.88075,-5.8662 0.20449,-11.9212 0.0938,-17.8077 0.55914,-9.2129 1.38782,-18.4646 4.41148,-27.2553 4.26061,-14.8826 11.66278,-28.56245 17.79883,-42.7171 6.78508,-14.75383 13.25118,-29.67969 21.16011,-43.8817 6.36492,-9.17832 12.49936,-18.51412 19.28905,-27.39102 11.68008,-15.14742 23.74014,-29.99473 35.84638,-44.80126 7.07382,-9.44909 14.31444,-18.7475 22.10705,-27.61909 9.71481,-12.02309 18.91599,-24.49353 22.75845,-39.78796 0.73647,-3.10308 1.6405,-6.17109 2.20941,-9.3092 1.98874,-10.96976 1.22163,-22.09882 0.11321,-33.11081 -1.23563,-9.41123 -3.43662,-18.54091 -5.68367,-27.74601 -7.66966,-34.51344 -56.47902,-23.66689 -48.80935,10.84652 z" /><path
         style="opacity:0.99;fill:#000000;fill-opacity:1;stroke-width:40;paint-order:markers stroke fill"
         id="path1589"
         d="m 1056.2267,1058.0244 c 10.8046,-6.3055 22.4939,-10.8222 33.828,-16.0551 8.6423,-4.0531 17.3832,-7.8816 26.0847,-11.8035 8.98,-3.2955 17.8384,-6.9453 26.9209,-9.9615 14.9616,-4.6819 30.4627,-7.1706 45.8843,-9.7952 14.6067,-2.555 29.4536,-2.8281 44.2374,-3.1153 15.1634,0.1519 30.286,-0.9675 45.4285,-1.5563 17.8828,-0.2349 35.7329,-1.1914 53.5986,-1.9136 23.3152,-0.7351 46.6421,-1.0226 69.9672,-1.2213 11.8114,-0.075 23.4667,-1.9469 35.1763,-3.1991 9.6629,-1.04439 19.3878,-1.10393 29.0698,-1.83793 15.7354,-1.39743 31.5467,-1.57356 47.3321,-1.80494 21.8542,-0.22288 43.7098,-0.24627 65.5649,-0.25614 21.9266,-1.1e-4 43.8533,0.009 65.7799,0.013 21.2233,0.004 42.4465,0.004 63.6698,0.005 23.0018,0.2146 45.9753,2.30632 68.9141,3.98851 23.3804,2.3495 46.8376,3.803 70.2296,6.0114 18.2739,1.9462 36.507,4.2345 54.736,6.5625 26.9917,2.3111 53.9541,4.5403 80.7266,8.7479 13.3072,2.5459 26.6769,4.2794 40.2069,4.8575 13.6375,-0.2592 27.04,2.5165 40.4224,4.752 14.2827,2.1417 28.6644,3.4996 42.9904,5.3046 14.4078,1.8474 28.8175,3.7487 43.1397,6.1844 17.7692,3.4407 35.3279,7.8557 52.9852,11.8226 16.2295,3.6758 32.7308,5.6576 49.2827,7.0893 15.2773,2.2417 30.2296,6.1934 45.3507,9.2603 8.2848,1.824 16.8277,2.1481 25.0445,4.2628 34.4109,8.1172 45.8904,-40.5471 11.4795,-48.6644 v 0 c -8.8064,-1.9889 -17.7143,-3.1012 -26.6092,-4.6055 -16.9734,-3.424 -33.7397,-7.9934 -50.9622,-10.0677 -14.3131,-1.2348 -28.5896,-2.8722 -42.6259,-6.0587 -18.5174,-4.1602 -36.9282,-8.81214 -55.5813,-12.3342 -15.0332,-2.54534 -30.1525,-4.56562 -45.2747,-6.49943 -13.6564,-1.70937 -27.3588,-3.04017 -40.9816,-5.01082 -15.4344,-2.57799 -30.9109,-5.57858 -46.63,-5.394 -11.6206,-0.44024 -23.0636,-2.15532 -34.4953,-4.2958 -27.243,-4.25884 -54.6599,-6.72455 -82.1361,-8.94827 -18.7778,-2.39678 -37.5607,-4.75125 -56.3858,-6.74534 -23.7351,-2.22493 -47.5313,-3.73731 -71.2552,-6.09724 -24.1549,-1.77136 -48.3454,-3.93843 -72.5699,-4.12242 -21.2203,0 -42.4407,0 -63.661,-0.005 -21.9375,-0.004 -43.875,-0.0132 -65.8124,-0.013 -22.093,0.0101 -44.1864,0.0338 -66.2784,0.26154 -16.8842,0.24967 -33.7934,0.46877 -50.6239,1.96202 -10.1134,0.90424 -20.3216,0.6731 -30.4133,1.9648 -10.0673,1.09709 -20.0819,2.72404 -30.2313,2.91153 -23.8583,0.2037 -47.7186,0.49876 -71.5664,1.26052 -17.8417,0.72547 -35.6666,1.67638 -53.5256,1.91077 -14.8194,0.58201 -29.6172,1.68257 -44.457,1.52773 -17.2733,0.34216 -34.6048,0.80746 -51.664,3.81762 -17.9866,3.07459 -36.0454,6.09447 -53.4547,11.70498 -10.6158,3.61821 -21.0624,7.7015 -31.5138,11.76751 -8.8499,3.99986 -17.7515,7.88048 -26.5421,12.01271 -13.6332,6.35179 -27.76,11.75599 -40.5347,19.81569 -29.41738,19.6116 -1.6824,61.2141 27.7351,41.6025 z" /><path
         style="opacity:0.99;fill:#000000;fill-opacity:1;stroke-width:40;paint-order:markers stroke fill"
         id="path1591"
         d="m 1050.4471,608.13171 c 12.7079,5.52897 25.7758,9.91315 39.3074,12.87794 7.9559,1.38943 15.4848,4.3616 23.072,7.02087 9.4434,3.16109 18.8874,6.29701 28.2722,9.64108 27.8047,10.18185 56.03,19.10791 84.5531,27.03179 23.0388,5.80511 46.2668,10.80381 69.5912,15.31217 12.0899,2.51185 24.4105,3.33426 36.6274,4.92745 17.8939,4.79829 35.9588,8.98268 54.0187,13.12637 20.9879,5.11331 42.4608,7.77941 63.9768,9.31884 15.2319,0.79004 30.4923,0.63648 45.7389,0.6019 15.0432,0.10779 30.0978,-0.41204 45.1331,0.16145 14.0167,0.9516 28.0495,1.49198 42.0937,1.79104 13.5785,0.22979 27.1591,0.26945 40.7392,0.28488 11.5947,0 23.1895,-0.007 34.7842,-0.0101 24.5545,-0.004 49.109,-0.004 73.6635,-0.005 13.9269,-2.4e-4 27.8538,-2.1e-4 41.7807,-1.6e-4 14.1413,5e-5 28.2826,5e-5 42.4239,8e-5 14.5688,0 29.1375,0 43.7062,0 15.9518,0.13552 31.8821,0.0604 47.8167,-0.69408 13.9062,-0.80291 27.8248,-1.26299 41.751,-1.4968 11.6453,0.23084 23.2365,-0.80656 34.8367,-1.63698 15.875,-0.65704 31.6646,-2.51651 47.3674,-4.8682 17.3886,-2.06597 34.03,-7.76965 50.7209,-12.79023 17.2681,-5.25608 34.5187,-10.65066 51.484,-16.82673 11.2973,-4.25534 22.0568,-9.66816 32.7192,-15.28297 12.3294,-7.45998 26.17,-10.30967 40.1008,-13.2334 4.4083,-0.90426 8.8166,-1.80853 13.2249,-2.71279 34.6338,-7.10621 24.5842,-56.08585 -10.0497,-48.97964 v 0 c -4.5295,0.92961 -9.0591,1.85922 -13.5886,2.78884 -18.3612,3.95605 -36.6426,8.28817 -52.9956,17.90205 -8.6813,4.57684 -17.3991,9.05399 -26.589,12.56136 -16.0268,5.89991 -32.393,10.8785 -48.7085,15.90251 -14.4037,4.33269 -28.7345,9.44806 -43.7428,11.22529 -14.4255,2.17231 -28.9319,3.86215 -43.5185,4.44191 -10.6922,0.76761 -21.3689,1.77429 -32.1047,1.51609 -14.4365,0.24468 -28.8656,0.71654 -43.2816,1.54609 -15.1433,0.72295 -30.2822,0.75711 -45.4426,0.63767 -14.5687,0 -29.1374,0 -43.7062,0 -14.1412,0 -28.2824,-2e-5 -42.4237,-8e-5 -13.9273,-2e-5 -27.8546,-8e-5 -41.7819,1.6e-4 -24.5581,0 -49.1161,0 -73.6741,0.005 -11.572,0.003 -23.144,0.0114 -34.716,0.0103 -13.2464,-0.0151 -26.4932,-0.0526 -39.7381,-0.27371 -13.8049,-0.29012 -27.5954,-0.85487 -41.374,-1.77065 -15.6693,-0.52578 -31.3481,-0.15835 -47.0242,-0.19291 -14.033,0.032 -28.0775,0.17712 -42.0995,-0.47757 -18.943,-1.31993 -37.8537,-3.65122 -56.3235,-8.17758 -13.1142,-3.00744 -26.2169,-6.0511 -39.2722,-9.30638 -4.6908,-1.16959 -9.3253,-2.56532 -14.0371,-3.64722 -1.7944,-0.41201 -3.619,-0.67961 -5.4285,-1.01942 -11.2072,-1.45896 -22.5066,-2.20347 -33.6063,-4.43939 -22.0162,-4.24794 -43.9374,-8.97056 -65.6952,-14.39664 -27.3838,-7.59923 -54.4751,-16.17935 -81.1648,-25.95994 -9.4692,-3.36655 -18.9971,-6.50766 -28.5119,-9.72568 -9.5699,-3.34801 -19.1123,-6.92124 -29.1303,-8.72287 -9.4554,-1.94855 -18.448,-5.16543 -27.414,-8.70719 -31.6228,-15.8114 -53.9834,28.90996 -22.3607,44.72135 z" /><path
         style="opacity:0.99;fill:#000000;fill-opacity:1;stroke-width:40;paint-order:markers stroke fill"
         id="path1593"
         d="m 2161.7469,648.29054 c 6.2813,-10.14375 14.0044,-19.23748 21.1009,-28.78931 6.662,-9.11124 13.597,-17.98532 21.2677,-26.2673 8.1765,-8.91318 15.695,-18.41529 22.6118,-28.33235 5.5257,-8.33636 11.2209,-16.55144 17.0328,-24.6906 5.8225,-8.28051 11.8874,-16.28878 19.2103,-23.29646 15.1294,-14.46914 29.3243,-29.88998 42.6597,-46.0193 6.8719,-9.27827 15.2736,-16.40673 24.3961,-23.27346 12.6491,-9.37863 26.995,-16.20906 41.2566,-22.75467 13.1507,-5.75831 27.1151,-9.24166 40.9792,-12.78686 7.1297,-2.03486 14.4218,-3.08634 21.8076,-3.41913 8.9526,-0.25472 17.9103,-0.21122 26.8655,-0.18688 10.0949,0.47882 19.7312,3.59614 29.2921,6.59792 14.9581,4.69561 28.2838,13.32947 42.0295,20.70618 12.3348,7.15259 25.5723,12.81446 37.7294,20.28121 3.333,2.04714 8.4403,5.95326 11.4564,8.1891 12.39,10.32253 24.2104,21.29557 35.869,32.42918 1.1017,1.15001 2.2904,2.22258 3.3051,3.45004 1.7466,2.11277 3.3135,5.87211 4.5723,8.34106 4.3025,8.43839 1.7341,2.90068 5.1965,10.75484 4.6348,9.36543 7.7283,19.27688 10.4485,29.32618 2.1296,8.70506 2.2175,17.74245 2.4593,26.65418 0.2208,7.71789 0.3152,15.4002 -0.4414,23.07957 -0.1836,0.63334 -0.2771,1.30014 -0.5509,1.89998 -0.3292,0.72104 -0.8879,1.31863 -1.2424,2.02763 -3.9927,7.98719 -7.6565,16.05476 -12.166,23.77903 -5.6846,9.43671 -12.4224,18.15875 -18.478,27.34604 -5.5539,7.66831 -11.5398,15.01193 -17.2403,22.57382 -5.4976,6.26203 -11.5744,12.02008 -18.3997,16.80925 -9.5058,7.04032 -17.9358,15.26418 -26.297,23.59006 -5.8085,4.76113 -11.2812,9.83229 -16.4374,15.29197 -6.6805,6.63887 -12.0247,14.3746 -17.4046,22.05214 -5.0555,7.28583 -10.7724,14.04102 -15.9144,21.27642 -5.4722,7.62828 -8.8369,16.39678 -12.6728,24.88221 -4.8125,11.21103 -6.3503,23.495 -7.699,35.52312 -1.0164,9.38942 -1.1013,18.83354 -0.7613,28.25927 1.4932,35.32378 51.4486,33.21209 49.9554,-2.11172 v 0 c -0.3647,-6.88218 -0.1493,-13.78974 0.5029,-20.65163 0.7466,-6.87514 1.3481,-14.06239 3.6318,-20.57601 2.4566,-5.51619 4.5565,-11.24201 7.7997,-16.36162 5.2056,-7.32544 11.0698,-14.12105 16.1161,-21.5623 3.9875,-5.69904 7.8143,-11.54655 12.8269,-16.43057 4.7935,-5.09561 10.1107,-9.52587 15.3456,-14.16963 6.4815,-6.45999 12.8822,-12.98204 20.2513,-18.45511 10.7647,-7.8745 20.6786,-16.87208 29.0835,-27.26875 6.3851,-8.47098 13.1586,-16.65089 19.2035,-25.37246 6.4175,-10.03829 14.0216,-19.30916 19.9203,-29.6986 7.2998,-12.80348 14.8685,-26.28993 19.0153,-40.50861 0.6945,-2.38191 0.9184,-4.87651 1.3777,-7.31475 0.9353,-9.75257 0.9779,-19.50837 0.6559,-29.29991 -0.3665,-12.88092 -0.8459,-25.87603 -4.1958,-38.39654 -3.4343,-12.55781 -7.3922,-24.95389 -13.0913,-36.69908 -6.2672,-13.75794 -12.9839,-27.67537 -24.1477,-38.20375 -13.2002,-12.60004 -26.5763,-25.04162 -40.762,-36.53641 -6.6258,-4.84823 -9.6355,-7.26073 -16.7061,-11.56822 -12.4268,-7.57063 -25.8676,-13.43425 -38.4725,-20.68812 -16.5239,-8.86621 -32.6348,-18.97867 -50.7306,-24.36423 -14.3553,-4.48448 -28.936,-8.61555 -44.0972,-8.88217 -9.8382,-0.0266 -19.68,-0.0759 -29.5143,0.24987 -10.7112,0.57542 -21.3241,2.02316 -31.6817,4.91466 -16.781,4.29131 -33.6219,8.69876 -49.4826,15.8015 -17.5098,8.06641 -34.9908,16.65147 -50.47,28.25954 -12.1654,9.18771 -23.5555,19.19854 -32.8654,31.38191 -12.1923,14.82635 -25.2843,28.9102 -39.1499,42.188 -9.2142,9.21266 -17.478,19.13445 -24.8447,29.89514 -5.9499,8.34075 -11.7989,16.74849 -17.4552,25.29154 -5.5002,8.0563 -11.7029,15.63296 -18.2369,22.86908 -8.8774,9.64795 -17.032,19.88113 -24.7494,30.48087 -7.4942,10.2449 -15.8293,19.88706 -22.4763,30.749 -19.6116,29.41741 21.9909,57.15243 41.6026,27.735 z" /><path
         style="opacity:0.99;fill:#000000;fill-opacity:1;stroke-width:40;paint-order:markers stroke fill"
         id="path1595"
         d="m 2533.9103,756.03205 c 2.3164,13.26943 4.251,26.60436 6.9632,39.80024 3.2023,16.47904 8.2692,32.42466 15.3124,47.64278 5.2087,10.47938 11.5961,20.29814 17.1056,30.61893 4.7073,10.27861 10.6541,19.91114 15.9575,29.8809 4.6106,7.82651 6.0291,16.69383 7.9948,25.42101 3.0815,11.918 3.3788,24.21789 3.7648,36.44466 0.6243,12.13773 0.2176,24.22245 -0.6856,36.32433 -1.7744,7.6888 -4.0841,15.2343 -7.0645,22.5408 -3.7181,8.7325 -8.8725,16.6315 -14.2827,24.3854 -7.8749,11.3507 -16.548,22.1349 -25.4755,32.6716 -7.7423,9.3803 -15.2617,19.0783 -24.8323,26.6918 -5.5274,4.5897 -11.9648,7.7653 -18.3017,11.0426 -12.0856,6.4617 -24.1172,13.1678 -37.007,17.9026 -10.2516,2.7096 -20.573,5.1182 -31.1536,5.9618 -18.5051,2.229 -37.0604,3.8952 -55.6723,4.865 -17.6886,0.8007 -35.4007,0.7568 -53.1032,0.7944 -3.7003,0 -9.4857,0.2555 -13.4219,-0.4824 -4.5934,-0.8612 -11.2902,-6.0273 -14.9952,-8.4743 -5.7776,-4.7417 -13.5616,-7.6687 -18.4566,-13.4944 -1.2034,-1.4322 -3.143,-5.0244 -3.9147,-6.3668 -9.6762,-18.8292 -23.7496,-34.4201 -39.2585,-48.5809 -6.4509,-5.2564 -12.7751,-10.8462 -17.4583,-17.7867 -3.5414,-6.1474 -8.3204,-11.4173 -12.36,-17.2191 -4.4774,-6.1069 -8.5058,-12.5009 -13.0551,-18.552 -1.1815,-1.3926 -2.363,-2.7852 -3.5445,-4.1778 -23.0141,-26.83942 -60.9707,5.7074 -37.9566,32.5468 v 0 c 0.6761,0.7737 1.3522,1.5475 2.0283,2.3213 4.4766,5.1263 7.3549,11.5936 11.7608,16.8107 4.1591,5.795 8.8559,11.1184 12.4294,17.3165 7.0391,9.6527 15.1694,18.4101 24.5946,25.8028 12.3461,11.049 23.118,23.3036 30.57,38.257 5.2509,7.9777 5.975,9.9238 12.6785,16.7588 7.2126,7.354 16.4181,12.3981 24.7372,18.3146 6.7186,4.3042 10.8482,7.273 18.2615,10.6121 11.8247,5.3261 24.6135,6.9303 37.4677,6.3937 18.5397,-0.04 37.0892,0 55.6136,-0.8628 19.2156,-1.0125 38.3811,-2.671 57.4854,-4.9931 15.077,-1.4295 29.9303,-4.4743 44.4,-8.994 14.6227,-5.6254 28.5987,-12.6773 42.3023,-20.2632 9.528,-4.9292 19.0062,-10.04 27.266,-16.9812 11.5753,-9.8124 21.7606,-20.9591 31.1042,-32.9126 9.9078,-11.7734 19.602,-23.7602 28.3527,-36.4271 7.5119,-10.8801 14.564,-22.0672 19.6294,-34.3318 4.7531,-12.0545 8.7459,-24.4946 10.4942,-37.3748 1.0319,-13.86961 1.4632,-27.73547 0.7983,-41.64221 -0.5001,-15.38399 -1.161,-30.83068 -4.9612,-45.82917 -2.9426,-13.06298 -5.8692,-26.18205 -12.6296,-37.9155 -5.3261,-10.0125 -11.2886,-19.68416 -16.0225,-30.0028 -5.1052,-9.5091 -10.8249,-18.65693 -15.8842,-28.18051 -5.5265,-11.66373 -9.1684,-24.01284 -11.6631,-36.6763 -2.515,-11.8578 -4.0667,-23.88973 -6.2981,-35.80339 -4.3853,-35.08232 -53.9992,-28.88059 -49.6139,6.20173 z" /><path
         style="opacity:0.99;fill:#000000;fill-opacity:1;stroke-width:40;paint-order:markers stroke fill"
         id="path1603"
         d="m 742.25448,792.19522 c 0.0963,-3e-5 0.34774,0.0763 0.28903,-1.3e-4 -0.39394,-0.51229 -0.91347,-0.91472 -1.35519,-1.38642 -4.24546,-4.53366 1.39332,1.24397 -5.03182,-5.39409 -4.72864,-4.88537 -9.4968,-9.73235 -14.23017,-14.61312 -11.20587,-11.67188 -22.10488,-23.68338 -31.00289,-37.2337 -4.54957,-7.27408 -8.81552,-14.8227 -11.97748,-22.81436 -1.69905,-4.66992 -3.24795,-9.45031 -4.30763,-14.3133 -0.70466,-3.23381 -1.23306,-7.80994 -1.65259,-10.93612 -1.53783,-15.54113 -2.26303,-31.15408 -3.00019,-46.75061 -0.53625,-10.05282 -0.64018,-20.11868 -0.69847,-30.18311 0.33663,-10.13637 2.20311,-20.1531 3.93854,-30.12445 2.36646,-15.67701 7.13247,-30.84288 11.76967,-45.96178 2.55373,-6.44874 4.43373,-13.42504 8.29622,-19.28317 0.59648,-0.90469 5.66568,-6.88936 5.69105,-6.91965 9.59837,-10.77288 21.17551,-19.30472 33.31615,-26.95702 14.73621,-8.34036 31.09206,-13.25629 47.21879,-18.12274 20.16511,-6.49738 41.0197,-10.23345 61.62513,-14.94933 13.09317,-2.85724 26.34187,-5.04198 39.7007,-6.12394 18.71716,-1.23984 37.47998,-1.14356 56.22449,-0.89046 9.64504,0.33116 19.27884,0.86199 28.89875,1.62812 5.80964,0.46267 11.54422,0.93157 17.27194,2.00281 5.70675,2.32704 10.29759,6.60165 15.12284,10.31381 2.46125,1.89349 4.95625,3.74271 7.43435,5.61406 9.3927,7.06207 18.5672,14.41704 26.6447,22.96853 5.1699,6.50877 9.9524,13.3192 14.4615,20.2987 7.2082,11.41095 14.3514,22.86196 21.0156,34.59998 5.2884,10.15106 11.0702,20.09011 15.7528,30.54504 2.2785,5.72672 4.4306,11.50305 6.7343,17.22001 0.797,1.86774 1.4987,3.77031 2.1254,5.70058 11.2675,33.51181 58.6604,17.57704 47.3928,-15.93477 v 0 c -0.9759,-2.85785 -1.9731,-5.7077 -3.156,-8.48858 -2.5838,-6.38048 -4.9079,-12.86398 -7.5867,-19.2061 -5.4093,-11.77208 -11.6773,-23.13059 -17.7942,-34.54445 -7.1645,-12.59112 -14.8014,-24.89954 -22.5574,-37.13437 -6.2121,-9.51879 -12.6968,-18.91697 -20.156,-27.51236 -10.0179,-10.48432 -21.1295,-19.77422 -32.7628,-28.42641 -6.7898,-5.1176 -13.346,-10.71665 -20.5381,-15.27323 -7.317,-4.63566 -15.0888,-8.13128 -23.5772,-10.00297 -17.85509,-2.9704 -35.9963,-3.60926 -54.05522,-4.36388 -20.37713,-0.27215 -40.77603,-0.34594 -61.11957,1.06466 -15.69784,1.37536 -31.29169,3.76523 -46.67486,7.21527 -8.8969,2.05411 -17.86379,3.74615 -26.76787,5.76852 -9.42205,2.14 -15.98382,3.80132 -25.35055,6.38538 -4.27662,1.17983 -8.52887,2.44623 -12.79329,3.66934 -20.46118,6.20946 -41.08349,12.72797 -59.54479,23.77451 -16.56702,10.586 -32.28552,22.48167 -45.17901,37.46944 -4.94181,6.11325 -6.89904,8.14652 -11.103,15.02148 -5.34765,8.74525 -8.52533,18.66366 -12.01634,28.22247 -5.24143,17.11574 -10.51719,34.30434 -13.22425,52.0418 -2.24253,12.89275 -4.49995,25.86529 -4.67773,38.98664 0.0631,10.75526 0.18487,21.51182 0.75351,32.25472 0.81021,17.10637 1.59406,34.23502 3.42,51.26818 0.41725,2.9306 0.75941,5.8729 1.25169,8.79184 1.6454,9.75622 4.41209,19.31151 7.96716,28.53706 4.58036,10.97166 10.11659,21.54729 16.59697,31.52362 10.72354,16.01314 23.30336,30.58626 36.75671,44.3743 4.60045,4.74324 9.2338,9.45444 13.833,14.19887 3.332,3.43723 6.43424,7.11729 10.04898,10.27199 1.48572,1.29662 3.06904,2.47695 4.60354,3.71542 29.41741,19.6116 57.15243,-21.9909 27.735,-41.60253 z" /></g><path
       style="opacity:0.99;fill:#ffb380;fill-opacity:1;stroke-width:1889.76;paint-order:markers stroke fill"
       d="m 9474.5605,1386.5967 c -192.5622,73.5064 -348.7324,230.0914 -438.5497,413.4033 -49.6235,147.8493 -91.0975,299.6817 -120.166,453.1982 -5.1914,65.4685 -29.0112,138.4102 -30.3223,199.9756 49.9324,-34.9647 120.8029,-23.4989 149.9755,33.2276 47.6093,70.1584 -46.8755,132.4524 -87.9787,177.8664 -146.6983,151.691 -270.303,326.3245 -441.9433,453.1111 -267.3906,198.2227 -574.6782,334.3544 -866.0256,492.9909 -413.4709,206.552 -817.9914,434.9257 -1248.1685,605.4505 -313.263,88.3283 -622.3049,199.7616 -947.1924,239.087 -153.5089,17.9411 -307.8132,68.2523 -462.5489,57.8368 -89.7456,-27.8342 -74.3258,-172.4098 19.8487,-180.4931 28.4058,9.0248 45.1162,-20.2481 15.3565,-34.2774 -149.1836,-109.9628 -325.912,-216.4551 -517.2852,-207.5927 -276.0226,102.2944 -529.1649,274.8734 -724.6094,495.2149 -77.007,98.303 -142.8256,225.4433 -101.1231,352.9052 36.779,206.1893 138.0909,400.3378 275,557.4463 100.9709,93.3275 240.4848,131.4646 367.041,172.876 18.4824,-62.0869 -46.6785,-123.1074 -73.8662,-174.2342 -29.9327,-38.6311 -65.3054,-90.8687 -23.1797,-135.7268 44.2394,-67.4959 140.4525,-38.2105 177.0997,21.6308 83.9436,94.8642 143.9477,223.6924 107.1045,351.7823 -45.471,255.7087 -111.0977,512.9179 -77.9297,774.7802 4.567,128.8987 62.4979,260.2188 181.6894,321.2647 169.8012,99.9917 366.1495,207.5255 570.0928,167.1387 251.104,-81.4481 406.236,-318.4836 520.8252,-541.7969 72.5284,-164.0755 157.077,-328.0422 195.9228,-503.5645 -19.3628,-19.0282 -41.9358,43.1787 -55.4688,51.1232 -29.4805,49.8981 -95.4611,105.6193 -152.0507,59.2528 -56.0595,-31.6627 -66.5363,-107.0633 -18.9611,-151.3446 136.6976,-203.9237 308.307,-387.8672 526.9162,-504.6586 315.2824,-180.0351 631.4473,-358.5934 945.7325,-540.3381 474.8471,-256.6232 960.2359,-495.9153 1469.3424,-677.5528 358.8511,-134.0594 715.9589,-274.8142 1086.1376,-374.4839 134.4621,-44.1858 271.5126,-96.173 410.754,-115.9775 84.138,21.7295 103.2,159.5368 12.549,185.3272 -105.152,45.1496 -227.2587,55.6416 -325.8055,111.6456 55.8469,32.0792 128.936,41.0476 185.999,77.069 92.7495,53.0326 209.3805,93.5652 309.1675,32.7699 148.764,-76.8035 298.04,-159.7213 426.855,-267.0167 101.501,-112.9478 175.295,-250.798 189.168,-403.9388 28.482,-140.0469 19.021,-292.8305 -68.923,-411.1594 -104.23,-190.4725 -324.375,-268.4275 -467.291,-419.643 -16.718,107.8354 80.501,196.5685 69.971,300.7324 -27.177,71.6696 -134.676,84.5608 -170.899,13.6963 -106.399,-144.7188 -112.786,-334.7446 -63.427,-501.9043 45.435,-180.3361 143.913,-347.1742 145.63,-537.8418 5.709,-75.4003 25.104,-154.1036 -32.938,-215.4321 -90.259,-193.9368 -313.07,-279.907 -516.3771,-273.1884 -108.3695,-1.3545 -216.79,-0.5709 -325.1484,-0.6373 z"
       id="path1761"
       transform="scale(0.26458333)" /><path
       style="opacity:0.99;fill:#000000;fill-opacity:1;stroke-width:40;paint-order:markers stroke fill"
       id="path1837"
       d="m 1469.9017,1167.7821 c 5.6999,15.0874 2.7838,9.0877 9.1903,20.8345 0.4159,0.7626 5.1489,8.1184 5.0202,10.8718 -0.1151,2.4609 -1.538,-1.4735 -2.2211,-3.1387 -0.4587,0.303 -0.9907,0.5168 -1.376,0.9089 -3.8442,3.913 -7.1025,8.3503 -11.1392,12.1107 -0.8787,0.8184 -6.0361,4.7974 -6.6617,5.2848 -10.2009,6.6841 -19.3123,13.519 -23.0411,26.1086 -1.3711,4.6295 -0.6926,9.6317 -1.0389,14.4475 1.8977,17.8445 11.7916,32.3642 20.9958,47.1291 -6.6458,-3.4844 2.8426,-14.4559 -6.2387,-7.8668 -8.0647,5.2401 -16.1948,10.3732 -24.2276,15.6643 -9.1771,6.3771 -16.6445,14.8403 -18.4376,26.3541 -0.5793,3.7197 -0.055,7.5289 -0.083,11.2933 1.1988,4.1892 2.0977,8.4761 3.5964,12.5676 1.6967,4.6318 6.6622,13.5021 9.0484,17.9136 4.1348,7.6444 8.3591,15.2088 12.7639,22.7007 1.1366,1.9637 4.2164,7.1431 5.3388,9.5347 0.2269,0.4834 0.7261,1.9957 0.4545,1.536 -2.3413,-3.9624 -1.5607,-7.8435 -0.5348,-12.0369 -3.935,2.5299 -7.8307,5.1201 -11.7678,7.648 -29.7052,19.173 -2.5905,61.1825 27.1147,42.0095 v 0 c 9.9811,-6.4683 20.0928,-13.0167 26.9612,-23.0113 1.7805,-3.6729 4.1988,-7.1003 5.3415,-11.0188 4.2821,-14.6832 -2.3711,-27.9342 -9.8248,-40.0349 -4.1174,-6.9776 -8.0222,-14.0435 -11.8932,-21.1608 -1.2241,-2.2506 -2.4667,-4.4911 -3.6816,-6.7466 -0.7877,-1.4624 -1.2794,-3.1173 -2.3263,-4.407 -0.204,-0.2514 -0.4944,0.418 -0.7416,0.6271 -0.8685,2.8722 -1.0035,3.7994 -2.8208,6.7607 -0.5099,0.8306 -1.2271,1.5177 -1.9031,2.2198 -0.1761,0.183 -0.706,0.6624 -0.6368,0.4181 0.044,-0.155 1.5177,-1.3888 1.5694,-1.4333 9.2052,-6.0825 18.6454,-11.8061 27.6728,-18.154 2.2563,-1.8408 4.6488,-3.5263 6.769,-5.5225 12.4792,-11.7493 18.624,-25.0691 14.9444,-42.5398 -0.7277,-3.4547 -2.6945,-6.5266 -4.0418,-9.7899 -4.692,-7.5087 -9.8475,-14.7967 -13.4611,-22.8873 -0.5061,1.2404 -0.786,2.5995 -1.5185,3.7212 -1.3234,2.0265 -2.995,3.8055 -4.5872,5.6284 -0.055,0.063 -0.216,-0.1448 -0.1531,-0.2009 3.4634,-3.0907 7.7358,-5.2241 11.3,-8.1715 14.4502,-11.4405 27.4718,-24.6813 35.5913,-41.4715 1.205,-5.3047 3.2965,-10.4837 3.6149,-15.9142 0.6971,-11.8888 -4.3541,-21.9464 -9.8505,-31.9046 -1.0458,-1.8948 -1.6896,-4.0776 -3.1429,-5.6813 -0.3991,-0.4405 -0.2927,1.1523 -0.4391,1.7285 -5,-35 -54.4975,-27.929 -49.4975,7.0711 z" /><path
       style="opacity:0.99;fill:#000000;fill-opacity:1;stroke-width:40;paint-order:markers stroke fill"
       id="path1839"
       d="m 2232.2165,835.69163 c 0.2771,0.6308 0.5378,1.2691 0.8315,1.89241 1.1039,2.34304 2.6745,5.42745 3.7687,7.8227 0.4242,0.92876 0.8742,1.8498 1.2105,2.81395 0.044,0.12676 -0.062,0.52255 -0.093,0.39192 -0.4795,-2.02057 -0.8415,-4.06725 -1.2623,-6.10089 0.1356,-1.36398 0.4596,-2.72227 0.4068,-4.09197 -0.01,-0.18785 -0.4199,-0.0935 -0.5634,0.0281 -0.8536,0.72361 -1.5335,1.6307 -2.3258,2.42099 -4.1705,4.15994 -8.6107,8.00513 -13.0559,11.86484 -10.5501,9.25735 -20.8684,17.05435 -24.5366,31.62014 -1.1627,4.61735 -0.7765,9.49132 -1.1647,14.23697 0.8778,4.42716 1.273,8.97808 2.6335,13.28147 5.2854,16.71812 18.5591,31.12476 29.4863,44.50263 2.4582,3.06628 4.3257,5.31357 6.5935,8.40613 0.5934,0.80912 1.1769,1.62697 1.7136,2.47467 0.2079,0.32824 0.8663,1.21211 0.5153,1.04545 -0.4319,-0.20508 -0.6892,-0.72168 -0.8084,-1.18465 -0.7517,-2.9197 -1.1864,-5.91193 -1.7796,-8.8679 0.7671,-3.00718 1.5342,-6.01438 2.3012,-9.02158 0.1334,-0.45424 0.8534,-1.50006 0.4003,-1.36268 -1.2497,0.37885 -2.1587,1.47031 -3.228,2.21993 -1.851,1.2976 -3.6901,2.61223 -5.5328,3.9216 -7.5972,5.39811 -4.1891,2.89573 -11.6641,8.61518 -8.5339,6.77987 -17.2874,14.39375 -21.2212,24.92549 -1.0806,2.89306 -1.5953,5.96699 -2.393,8.95049 -0.3887,11.50198 -0.7775,5.92698 1.0029,16.73548 7.5441,34.5411 56.3926,23.8722 48.8485,-10.6688 v 0 c -0.2815,1.8049 -0.079,0.7635 -0.6998,3.1051 -0.4068,0.8392 -0.9627,2.6121 -1.98,3.2696 -0.409,0.2644 0.3092,-0.96 0.649,-1.3088 1.6721,-1.716 4.5242,-3.9415 6.2673,-5.3682 5.3376,-4.12918 10.9036,-7.89663 16.3391,-11.89197 4.4681,-3.2842 11.8096,-8.48884 14.6806,-13.20787 2.7333,-4.49268 4.0276,-9.71587 6.0414,-14.57381 -0.4599,-4.48643 -0.4575,-9.04465 -1.3796,-13.45932 -0.4557,-2.18163 -1.6915,-4.12986 -2.7087,-6.11291 -3.4413,-6.70899 -8.7191,-12.31427 -13.234,-18.27112 -4.8537,-5.94196 -9.829,-11.81156 -14.4596,-17.93134 -1.8424,-2.43483 -3.4116,-5.07495 -5.3386,-7.44334 -0.2992,-0.36772 -0.697,-0.64273 -1.0454,-0.96409 -1.2091,1.18113 -2.2256,2.56903 -3.5442,3.62643 -0.2391,0.19169 0.1469,-0.6196 0.3478,-0.851 0.8586,-0.98917 1.8398,-1.86566 2.7915,-2.76564 2.9843,-2.8221 5.8159,-5.23822 8.9298,-7.96393 7.9639,-6.94365 16.4382,-13.91052 22.8483,-22.39402 1.9446,-2.57362 3.9835,-5.13741 5.3725,-8.04878 1.8239,-3.82318 2.7939,-7.99798 4.1908,-11.99695 -0.1496,-4.4831 0.1154,-8.99932 -0.4489,-13.44927 -0.2789,-2.19901 -1.2854,-4.2458 -2.0588,-6.32312 -2.0884,-5.60909 -5.2764,-10.75769 -7.6211,-16.25275 -16.762,-31.12936 -60.7855,-7.42436 -44.0235,23.705 z" /><path
       style="opacity:0.99;fill:#000000;fill-opacity:1;stroke-width:40;paint-order:markers stroke fill"
       id="path1841"
       d="m 1962.9556,1257.5255 c -8.1888,-9.7922 -17.4584,-18.6117 -27.0603,-26.9954 -2.868,-2.6357 -6.0611,-4.8838 -9,-7.434 -0.6425,-0.5574 -1.2806,-1.131 -1.8195,-1.7891 -0.096,-0.1173 -0.114,-0.5715 -0.017,-0.4545 3.7354,4.5279 2.6786,3.5151 4.3604,9.8492 -0.081,1.4422 -0.1614,2.8843 -0.2422,4.3265 0.082,0.2128 0.026,0.7037 0.2443,0.6386 0.5443,-0.1623 0.8891,-0.7092 1.3017,-1.0997 0.9874,-0.9344 1.9109,-1.9347 2.8953,-2.8722 1.913,-1.822 5.026,-4.5684 6.9626,-6.296 7.5566,-7.1016 14.8541,-14.622 20.6862,-23.2405 1.0724,-1.5846 2.0335,-3.2418 3.0502,-4.8627 3.0324,-5.6495 6.1516,-11.8703 6.1132,-18.4944 -0.022,-3.8542 0.2794,-8.0682 -1.5554,-11.4578 -3.1838,-5.8819 -7.5877,-11.3263 -12.9448,-15.3306 -3.7555,-2.8072 -8.9188,-2.8969 -13.3782,-4.3453 -3.284,-0.3691 -6.5584,-0.8371 -9.852,-1.1074 -3.509,-0.2879 -7.0319,-0.3706 -10.5473,-0.5666 -13.7388,-0.7662 -27.476,-1.479 -41.2202,-2.144 -9.4265,-0.4905 -18.8435,-1.0923 -28.2532,-1.8317 -35.2479,-2.7539 -39.1426,47.0941 -3.8946,49.8481 v 0 c 9.9026,0.7697 19.8115,1.4177 29.7317,1.9252 18.0172,0.8716 36.0364,1.7411 54.0389,2.8669 -6.0092,-4.3142 -7.0682,-4.5192 -11.5024,-14.7185 -1.5278,-3.5142 -0.645,-7.7777 0.6068,-11.1898 0.1014,-0.2763 0.5371,-1.0089 0.5179,-0.7152 -0.029,0.4495 -0.3679,0.8223 -0.5518,1.2334 -3.6239,6.4864 -9.0808,11.718 -14.3617,16.8482 -8.7096,7.7942 -19.9981,17.3618 -24.5011,28.3178 -1.5685,3.8161 -2.1929,7.955 -3.2893,11.9324 0.4285,4.3951 0.126,8.9242 1.2855,13.1851 3.2512,11.948 13.3723,19.3167 22.3518,26.7299 7.3729,6.356 14.4282,13.1102 20.8016,20.4788 22.0863,27.6079 61.1297,-3.6268 39.0434,-31.2347 z" /></g></svg>
