<?xml version="1.0" encoding="UTF-8" standalone="no"?>
<!-- Created with Inkscape (http://www.inkscape.org/) -->

<svg
   width="3840mm"
   height="2160mm"
   viewBox="0 0 3840 2160"
   version="1.1"
   id="svg5458"
   inkscape:version="1.2.2 (732a01da63, 2022-12-09)"
   sodipodi:docname="giant's blood.svg"
   xml:space="preserve"
   inkscape:export-filename="..\..\items\giant's blood.png"
   inkscape:export-xdpi="96.096664"
   inkscape:export-ydpi="96.096664"
   xmlns:inkscape="http://www.inkscape.org/namespaces/inkscape"
   xmlns:sodipodi="http://sodipodi.sourceforge.net/DTD/sodipodi-0.dtd"
   xmlns="http://www.w3.org/2000/svg"
   xmlns:svg="http://www.w3.org/2000/svg"><sodipodi:namedview
     id="namedview5460"
     pagecolor="#ffffff"
     bordercolor="#000000"
     borderopacity="0.25"
     inkscape:showpageshadow="2"
     inkscape:pageopacity="0.0"
     inkscape:pagecheckerboard="0"
     inkscape:deskcolor="#d1d1d1"
     inkscape:document-units="mm"
     showgrid="false"
     inkscape:zoom="0.08"
     inkscape:cx="4718.75"
     inkscape:cy="4475"
     inkscape:window-width="1920"
     inkscape:window-height="986"
     inkscape:window-x="-11"
     inkscape:window-y="-11"
     inkscape:window-maximized="1"
     inkscape:current-layer="layer1" /><defs
     id="defs5455" /><g
     inkscape:label="Layer 1"
     inkscape:groupmode="layer"
     id="layer1"><path
       style="fill:#f80c08;fill-opacity:1;stroke-width:20;paint-order:markers stroke fill"
       id="path9446"
       d="m 2235.4439,757.97682 c 5.9562,-9.71556 12.4323,-19.05524 19.4064,-28.06388 7.7429,-9.01242 17.9504,-15.31803 27.8297,-21.71158 4.159,-2.69134 8.4395,-5.23375 13.2008,-6.68499 3.3046,-0.67879 6.7808,-0.23749 10.1051,0.0364 8.4245,1.15279 16.8457,2.56757 24.9148,5.299 9.2148,3.45985 17.7373,8.38356 25.5865,14.28411 1.1959,0.94104 2.4399,1.82406 3.5878,2.82316 2.7126,2.36087 7.1242,6.88355 9.4441,9.26607 5.0333,5.16906 9.9641,10.43178 14.8371,15.75136 1.9055,2.25706 3.4193,3.92841 5.0845,6.28814 0.4215,0.59728 0.8747,1.1878 1.1615,1.86024 0.084,0.19714 -0.083,0.42177 -0.097,0.63561 -0.071,1.04693 -0.024,2.90099 -0.016,3.78073 -0.195,2.54627 -0.6285,5.0782 -1.2013,7.56595 -0.1793,0.77843 -0.661,2.65284 -1.0799,3.44879 -0.1863,0.35385 -0.4849,0.63595 -0.7274,0.9539 -4.8595,6.17149 -9.8073,12.27672 -14.759,18.37579 -0.6816,0.86267 -1.3905,1.70442 -2.0446,2.58807 -0.707,0.95507 -1.3686,1.94303 -2.0369,2.92558 -4.7945,7.04943 0.6155,-2.34807 13.2785,1.67333 2.1791,0.69205 1.9898,4.11716 2.9846,6.17575 4.0285,-12.40031 6.0601,-25.25551 7.7035,-38.14739 1.1366,-10.20506 1.5181,-20.68266 -0.3793,-30.82033 -0.7816,-2.60686 -2.2464,-8.75705 -5.7481,-8.3893 -5.6305,0.59131 -10.554,4.44383 -15.029,7.91167 -1.0709,0.82992 -0.3582,2.69068 -0.4,4.0449 -0.058,1.86656 0.3374,9.10709 0.4103,10.60513 0.9966,13.79403 0.3055,27.6157 -0.7505,41.38081 -0.3033,2.7872 -0.5085,5.77459 -1.1885,8.52585 -0.3882,1.57073 -1.121,3.14455 -1.7966,4.60735 -1.2639,2.7363 -0.6831,1.77956 -2.0657,3.66657 -3.1377,3.40842 -5.6702,7.3365 -8.8943,10.67335 -0.6308,0.65278 -1.3413,1.2234 -2.012,1.83509 -2.3033,2.00666 -4.8973,3.6857 -7.8447,4.5705 -1.1677,0.35057 -3.6724,0.7948 -4.7888,1.00885 -4.8745,1.08231 -9.8408,1.41198 -14.8141,1.60002 -6.0262,0.24863 -12.0264,0.12313 -18.0295,-0.42858 -5.7635,-0.67468 -11.4774,-1.8601 -17.0307,-3.54107 -7.1129,-2.59713 -13.9063,-5.96763 -20.2397,-10.10719 -6.4629,-4.43892 -11.7002,-10.29486 -16.8942,-16.09461 -4.754,-5.67608 -9.9066,-11.00923 -14.6345,-16.70539 -2.999,-3.32462 -5.3315,-7.03387 -7.2767,-11.0468 -1.551,-3.50158 -2.5464,-7.22702 -3.2829,-10.97714 -0.1963,-1.29638 -0.4579,-2.58332 -0.4388,-3.89816 -0.5633,-14.13092 -20.5474,-13.33429 -19.9841,0.79663 v 0 c 0.1307,2.36273 0.329,4.70866 0.8129,7.03197 1.1098,5.4589 2.6039,10.86876 4.9734,15.92878 2.7003,5.37229 5.813,10.47078 9.8358,14.97323 4.9028,5.85776 10.1665,11.40317 15.0961,17.23953 6.3825,7.1269 12.9372,14.19352 20.9428,19.55297 1.443,0.92356 2.8586,1.89146 4.3291,2.77064 6.6414,3.97089 13.813,7.06279 21.0676,9.70812 6.8417,2.00361 13.8326,3.53708 20.9306,4.28794 6.8561,0.60645 13.7119,0.78626 20.5922,0.49432 6.0305,-0.23582 12.0518,-0.68551 17.9642,-1.97305 3.272,-0.67191 5.0874,-0.94403 8.3351,-2.06671 5.2653,-1.8201 9.9606,-4.90942 14.1087,-8.58195 1.1175,-1.07648 2.2804,-2.10777 3.3525,-3.22942 3.8585,-4.03654 7.0117,-8.69728 10.6123,-12.9521 0.7398,-1.19763 1.5433,-2.3582 2.2195,-3.59288 3.7989,-6.93679 5.4432,-14.72882 5.9849,-22.55393 1.1096,-14.59606 1.8251,-29.25122 0.7849,-43.87741 -0.091,-1.8687 -0.1768,-3.73772 -0.2739,-5.60613 -0.047,-0.89709 -0.1,-1.79385 -0.1573,-2.69028 -0.019,-0.28871 0.2067,-0.94395 -0.072,-0.86495 -4.8666,1.38155 -9.2864,5.0605 -14.3443,4.95731 -1.0843,-0.0222 -5.4208,-7.5543 -3.9675,-5.04031 0.6258,2.64401 0.7234,5.32474 0.811,8.03741 0.1758,5.44422 0.1413,10.90514 -0.6669,16.3068 -0.6293,4.96567 -1.0088,8.33956 -1.8344,13.29682 -1.2804,7.68834 -3.2489,15.23682 -5.4753,22.7004 0.5371,3.96415 -1.66,9.58988 1.6112,11.89239 12.1363,8.54231 14.9261,0.33345 19.3061,-5.60113 0.5996,-0.81237 1.2509,-1.58528 1.8763,-2.37789 2.5446,-3.13579 5.0335,-6.31653 7.5864,-9.44536 2.2277,-2.73023 4.1898,-4.9694 6.3077,-7.79497 0.9458,-1.26185 1.8191,-2.57654 2.7286,-3.86482 0.7381,-1.40901 1.5671,-2.77397 2.2142,-4.22703 0.6846,-1.53745 1.4478,-4.49877 1.8157,-6.14445 0.8839,-3.95465 1.4824,-7.98311 1.5784,-12.03915 -0.1381,-3.53044 -0.061,-6.15863 -1.0471,-9.67071 -1.7582,-6.26054 -6.2261,-11.02243 -10.3327,-15.83899 -5.0508,-5.50949 -10.1537,-10.96885 -15.3761,-16.31701 -3.7233,-3.81294 -7.2649,-7.43468 -11.2941,-10.91483 -1.2831,-1.10826 -2.6678,-2.09312 -4.0017,-3.13968 -1.4677,-1.08423 -2.9031,-2.21376 -4.4032,-3.2527 -8.3245,-5.76551 -17.3803,-10.40694 -26.8481,-13.97747 -1.5662,-0.50892 -3.117,-1.0678 -4.6986,-1.52677 -8.1331,-2.36022 -16.5723,-3.5464 -24.936,-4.72213 -5.9226,-0.44323 -11.975,-0.89858 -17.7466,0.85064 -6.4131,2.0964 -12.3754,5.20099 -17.9862,8.9486 -11.7742,7.62593 -23.7686,15.32052 -32.7825,26.2667 -7.7528,10.03882 -14.9983,20.4366 -21.4728,31.35307 -6.3245,12.64912 11.564,21.59339 17.8886,8.94427 z" /><path
       style="fill:#f80c08;fill-opacity:1;stroke-width:20;paint-order:markers stroke fill"
       id="path9444"
       d="m 1990.0494,485.58846 c 2.1228,-0.59256 1.9169,-0.508 4.789,-1.54908 4.9169,-1.78226 8.1053,-3.08486 13.1016,-5.06182 10.8545,-4.29501 4.6503,-1.87492 15.159,-5.93212 6.7864,-2.42975 13.3733,-5.51281 20.3529,-7.38489 2.782,-0.74621 4.5282,-0.99946 7.4341,-1.53406 6.3236,-1.07725 12.6894,-1.85097 19.0914,-2.23213 5.4792,-0.28545 10.9665,-0.38047 16.4522,-0.4346 0.7441,0.0413 1.4933,0.0276 2.2323,0.12401 2.54,0.33131 4.2897,0.96896 6.8162,1.80906 5.3515,1.77946 10.5867,3.84434 15.834,5.90415 1.2718,0.49255 6.0229,2.31688 7.5756,2.96979 1.0691,0.44958 2.5215,1.08601 3.5435,1.75874 0.4445,0.29266 1.564,1.39287 1.8169,1.63137 6.1299,5.83446 12.4927,11.43053 18.9334,16.92013 2.7373,2.62175 6.2529,4.45984 8.5866,7.50657 0.2328,0.30395 0.4071,0.64857 0.6107,0.97287 2.1219,3.47639 4.4958,6.83673 6.157,10.57328 0.2931,0.65932 0.5367,1.33956 0.805,2.00935 1.5372,3.91798 1.7519,8.1991 1.7453,12.36499 -0.1105,5.33807 -0.4441,10.66935 -0.495,16.00851 -0.043,2.80532 0.1761,5.60983 0.8101,8.34744 0.3558,1.5366 0.6549,2.39049 1.1201,3.86205 0.3948,1.59903 1.3715,2.99103 1.8559,4.55318 0.028,0.089 -0.024,0.18672 -0.014,0.27933 0.081,0.70535 0.2097,1.40446 0.2961,2.10912 0.4786,3.48078 -0.034,-0.19619 0.4096,2.86083 0.042,0.29189 0.1649,1.16814 0.1204,0.8766 -0.1941,-1.27172 -0.089,-1.74033 0.1937,-3.03552 -4.6952,7.2071 -8.2766,15.06482 -12.2321,22.6867 -3.043,5.9713 -6.4521,11.73716 -10.0332,17.39741 -2.7641,4.1325 -5.6091,8.21071 -8.489,12.26318 -1.1229,1.48415 -2.068,3.11435 -3.2551,4.55173 -0.6214,0.75229 -2.0011,1.78242 -2.6967,2.38247 -1.6988,1.61769 -3.6928,2.8426 -5.6449,4.11768 -4.4276,2.89187 0.08,0 -4.1462,2.69682 -3.2537,1.75993 -6.4615,3.74258 -9.9926,4.90199 -3.3933,0.66156 -6.7702,1.34458 -10.1094,2.24448 -3.0043,0.81169 -6.0188,1.63291 -9.1001,2.09373 -4.3158,0.43048 -8.6315,0.89435 -12.9551,1.2527 -5.6145,0.41754 -11.2366,0.77073 -16.8673,0.82986 -0.7039,-0.0193 -1.4114,0.0156 -2.1116,-0.0579 -0.7002,-0.0736 -1.1041,-0.3923 -1.7119,-0.69832 -1.5854,-0.79835 -2.1001,-0.97903 -3.7035,-1.90836 -0.621,-0.35996 -1.2163,-0.7625 -1.8245,-1.14374 -3.8831,-2.58678 -7.7818,-5.15069 -11.6136,-7.81378 -0.7078,-0.43958 -1.4068,-0.89373 -2.1235,-1.31871 -1.8877,-1.0632 -1.96,-1.0872 -3.7442,-2.15283 -1.9827,-1.18415 -3.9106,-2.44298 -5.8397,-3.71187 -4.5482,-3.17272 -9.3523,-5.95058 -13.9546,-9.03933 -2.4916,-1.71688 -5.0639,-3.33703 -7.349,-5.33186 -1.3284,-1.15961 -1.4125,-1.3041 -2.6201,-2.56762 -0.7479,-0.96536 -1.1825,-1.43669 -1.7484,-2.53997 -0.4286,-0.83566 -0.8833,-2.25695 -1.1433,-3.11597 -0.5791,-1.91281 -0.9271,-3.32687 -1.4409,-5.28963 -1.5639,-5.81128 -3.5122,-11.52131 -5.5253,-17.19154 -1.8677,-5.71201 -4.5666,-11.07147 -7.4989,-16.29746 -0.6134,-0.96126 -1.2028,-1.93829 -1.8403,-2.88378 -1.1031,-1.66563 -2.362,-3.22275 -3.4809,-4.87727 -1.2581,-1.86037 -2.3738,-3.82543 -3.495,-5.76943 -1.828,-3.14097 -3.1271,-6.30642 -4.1088,-9.79154 -0.1368,-0.94303 -0.4525,-1.89891 -0.4336,-2.86245 0,-0.19245 0.089,-0.37568 0.1092,-0.56708 0.4429,-4.15991 -0.253,1.01 0.3968,-3.54607 0.5759,-2.91024 0.7676,-5.98734 1.959,-8.74017 0.5359,-1.23846 1.5227,-2.97844 2.141,-4.11544 2.5805,-4.78057 5.2106,-9.53214 7.874,-14.26675 1.8654,-3.28576 3.9994,-6.41795 5.7204,-9.78575 0.4053,-0.79301 0.7708,-1.6057 1.1562,-2.40855 1.1402,-2.38903 1.8757,-4.96306 3.1385,-7.29536 0.059,-0.1098 0.8665,-1.41978 0.9042,-1.48114 7.3523,-12.08069 -9.7324,-22.47844 -17.0847,-10.39775 v 0 c -0.6846,1.13165 -1.1654,1.89285 -1.7984,3.11753 -1.2518,2.42213 -2.1808,4.98494 -3.2341,7.49453 -1.7711,3.82173 -4.1438,7.3034 -6.2343,10.95248 -2.7336,4.86199 -5.4341,9.74088 -8.0838,14.6494 -1.469,2.78487 -2.3479,4.25572 -3.4857,7.25117 -1.5113,3.97923 -2.1124,8.21979 -2.7986,12.39512 -0.3805,3.00421 -0.6968,5.92124 -0.5567,8.9593 0.096,2.08936 0.6528,4.14673 1.0906,6.17791 0.5465,1.87378 0.7479,2.671 1.4413,4.56459 1.2341,3.36992 2.8417,6.57236 4.575,9.70976 1.4504,2.50161 2.9168,4.99174 4.5384,7.38828 1.6644,2.45975 1.3601,1.79985 2.9488,4.09451 0.4189,0.60515 0.8088,1.22991 1.2132,1.84486 2.391,4.23007 4.5999,8.56125 6.089,13.20382 1.2401,3.45913 0.1799,0.44383 1.5275,4.48296 1.2258,3.67374 2.5905,7.30875 3.4945,11.08141 0.95,3.59347 1.8377,7.24311 3.3524,10.65433 1.5005,3.37902 3.5011,6.45197 6.0075,9.16913 1.9368,1.96032 2.2129,2.32585 4.2829,4.08969 2.7946,2.38138 5.8502,4.41751 8.8874,6.47012 4.656,3.10118 9.4803,5.93932 14.0821,9.12381 3.6857,2.42113 7.4215,4.75682 11.2796,6.89431 4.1438,2.87935 8.3573,5.65655 12.5673,8.43703 4.2274,2.55894 8.5852,5.03232 13.4529,6.16148 2.6966,0.62553 3.9881,0.54108 6.5963,0.59844 6.1071,-0.0797 12.2059,-0.42971 18.2951,-0.89795 2.5546,-0.2151 5.0962,-0.5089 7.6473,-0.75139 2.6632,-0.25318 2.0263,-0.1099 4.678,-0.4056 0.7149,-0.0797 1.4266,-0.18664 2.1398,-0.27996 3.7617,-0.62838 7.4763,-1.48862 11.1452,-2.53349 0.8744,-0.23746 1.741,-0.50742 2.6254,-0.70411 2.9848,-0.66376 6.0379,-1.03634 8.954,-1.9993 0.863,-0.31675 1.7373,-0.60454 2.5892,-0.95027 3.9472,-1.602 7.7792,-3.86215 11.4831,-5.94728 4.1664,-2.66568 8.4168,-5.26611 12.1271,-8.55972 1.3484,-1.17478 2.6486,-2.2605 3.893,-3.55727 2.0112,-2.09579 3.5833,-4.53774 5.2547,-6.89819 3.0879,-4.34515 6.14,-8.71736 9.0893,-13.15799 3.8837,-6.14236 7.5772,-12.40182 10.8833,-18.87784 3.9432,-7.60293 7.5389,-15.41185 12.1964,-22.61814 0.5134,-1.23976 1.1389,-2.43877 1.54,-3.71925 0.9161,-2.92442 0.2328,-6.0085 -0.1622,-8.94713 -0.2405,-1.69134 -0.3737,-2.94737 -0.8005,-4.61518 -0.5123,-2.00194 -1.2423,-3.87879 -2.1104,-5.74283 -0.6403,-1.95516 -1.1603,-3.85289 -0.9772,-5.9477 0.033,-5.44311 0.4389,-10.87774 0.495,-16.32101 -0.016,-1.1865 0,-2.37392 -0.048,-3.55946 -0.2347,-5.55284 -1.1262,-11.12333 -3.2141,-16.2945 -0.4586,-1.0885 -0.8812,-2.19289 -1.3759,-3.26552 -2.1616,-4.68722 -5.0495,-8.98913 -7.8151,-13.32957 -0.7026,-0.93959 -1.3601,-1.91476 -2.108,-2.81879 -2.9768,-3.59842 -6.8512,-6.22411 -10.3723,-9.23034 -6.369,-5.42401 -12.6484,-10.96544 -18.7122,-16.72883 -2.3862,-2.03108 -2.8324,-2.58413 -5.4668,-4.17589 -4.1654,-2.51677 -8.8914,-3.9134 -13.3552,-5.76935 -5.783,-2.26856 -11.5562,-4.61629 -17.4901,-6.47171 -2.1438,-0.67032 -4.2935,-1.33784 -6.4844,-1.83301 -3.6842,-0.83267 -4.9706,-0.76536 -8.4123,-0.91363 -5.8212,0.0581 -11.6441,0.16135 -17.4582,0.4699 -7.231,0.44133 -14.4243,1.30032 -21.5646,2.53691 -4.03,0.76403 -5.6925,0.98859 -9.5602,2.05359 -7.4442,2.04986 -14.52,5.2121 -21.7534,7.86691 -10.4624,4.04047 -4.6412,1.76731 -15.307,5.98995 -4.8581,1.92334 -9.7213,4.00098 -14.7011,5.60835 -0.7141,0.2305 -1.4412,0.41896 -2.1618,0.62846 -13.4164,4.47212 -7.0918,23.44579 6.3246,18.97364 z" /><path
       style="fill:#f80c08;fill-opacity:1;stroke-width:20;paint-order:markers stroke fill"
       id="path9442"
       d="m 2345.8952,544.53059 c 2.3839,-3.45411 4.8776,-6.83995 7.5025,-10.1155 1.2676,-1.68783 2.4957,-2.6153 4.4629,-3.24035 2.5589,-0.65775 5.1724,-1.07915 7.7721,-1.54225 1.9708,-0.14542 3.9342,-0.82304 5.9191,-0.76759 0.6837,0.019 1.8761,0.31369 2.4747,0.44127 2.9049,0.86188 5.6936,2.04896 8.4883,3.20591 1.301,0.53858 2.6133,1.05026 3.9041,1.61277 2.8028,1.22142 3.8815,1.80575 6.5482,3.14515 1.5176,0.83651 2.5357,1.32212 3.8838,2.29105 0.2502,0.17976 0.853,0.33777 0.6989,0.60452 -0.3364,0.58246 -1.3736,-1.62478 -1.1954,-0.84804 0.1306,0.56946 0.4692,1.07016 0.7038,1.60526 0.9782,2.2466 2.133,4.42285 3.0169,6.71086 0.6614,1.71217 1.0476,3.55846 1.5021,5.3303 1.016,3.91826 2.2216,7.78507 3.3747,11.66479 0.4297,1.92735 0.8346,3.87122 1.0897,5.83099 0.062,0.47308 0.1473,0.95028 0.1172,1.42637 -0.014,0.2128 -0.1579,-0.0628 -0.3603,-0.40905 -0.091,0.0466 -0.2009,0.0673 -0.2729,0.13981 -0.6438,0.64743 -1.1364,1.42946 -1.7133,2.13722 -1.1624,1.42627 -2.4342,2.7426 -3.6922,4.08366 -1.3438,1.38568 -2.6658,2.78741 -3.9583,4.22095 -0.3162,0.35073 -0.605,0.72824 -0.9481,1.05267 -0.048,0.0453 0.016,-0.13247 0.04,-0.19399 0.037,-0.0946 0.094,-0.1801 0.1411,-0.27014 -0.1722,0.0531 -0.3382,0.13481 -0.5168,0.15941 -0.1125,0.0156 -0.2249,-0.0497 -0.3382,-0.0417 -0.3943,0.0281 -0.7834,0.10692 -1.1764,0.14949 -1.886,0.20431 -3.7689,0.36404 -5.6525,0.59915 -4.0796,0.40897 -8.0401,1.48582 -11.9782,2.57596 -0.9551,0.40904 -2.0081,0.63984 -2.8652,1.22713 -5.2958,3.62895 -7.4432,7.16341 -4.4487,15.28078 1.0112,2.74087 4.3667,3.95991 6.9224,5.37532 1.8618,1.03114 7.9431,1.74766 10.0757,2.06087 5.8682,0.56393 11.4746,0.21389 17.1679,-1.32374 2.385,-0.64412 3.144,-0.99962 5.3633,-1.85875 3.8054,-1.53813 6.9989,-4.08643 10.3019,-6.44485 0.085,-0.0507 0.3546,-0.14504 0.2557,-0.15208 -13.9662,-0.99412 -12.168,3.23162 -14.7725,-11.37817 -0.1097,-0.61526 0.6017,-1.10786 0.7685,-1.71016 0.029,-0.10451 -0.2187,0.0291 -0.3161,0.0767 -0.3871,0.18926 -0.7525,0.41984 -1.1288,0.62974 -0.5764,0.28053 -1.1418,0.58499 -1.7293,0.84158 -1.4578,0.63672 -3.2541,1.24241 -4.7345,1.74829 -3.1601,1.07987 -6.3365,2.07481 -9.5402,3.01604 -4.508,1.2959 -9.1496,2.03054 -13.8128,2.46367 -1.964,0.13266 -3.9334,0.15213 -5.9011,0.15928 -1.6337,0.006 -1.0887,0.24135 -1.8145,-0.14616 0.2335,-0.0365 0.6976,0.12705 0.7007,-0.10935 0,-0.30888 -0.4582,-0.41442 -0.6913,-0.61717 -0.5353,-0.46572 -1.0828,-0.91739 -1.6137,-1.38822 -0.8622,-0.76477 -3.8515,-3.49554 -4.5673,-4.20687 -0.6599,-0.6558 -1.2699,-1.36006 -1.9048,-2.0401 -1.9899,-2.16947 -3.8659,-4.47344 -5.2408,-7.09025 -0.4325,-0.82314 -0.9009,-2.00157 -1.2526,-2.84231 -1.9849,-4.88027 -5.1263,-9.09455 -8.4292,-13.14461 -1.171,-1.42761 -2.4125,-2.79759 -3.5038,-4.28913 -0.02,-0.027 -0.9522,-1.33945 -0.9873,-1.51186 -0.033,-0.1615 0.2128,0.25173 0.3191,0.37759 0.06,0.0377 0.1697,0.18315 0.1796,0.11311 0.044,-0.3147 -0.038,-0.63458 -0.061,-0.95155 -0.047,-0.64092 -0.1045,-1.28106 -0.15,-1.92209 -0.1353,-1.90566 -0.2254,-3.81241 -0.3709,-5.71741 -1.8156,-2.71581 -2.1894,-7.90196 -5.447,-8.14747 -5.3333,-0.40196 -10.248,3.53915 -14.6086,6.63599 -1.1678,0.82936 -0.5829,2.81175 -0.7043,4.23894 -0.2883,3.38992 -0.089,8.32115 0.2194,11.63921 0.2033,2.19011 0.5584,4.36348 0.8376,6.54523 0.8629,4.99981 1.6646,10.05036 3.1359,14.9197 0.3844,1.2718 0.7908,2.54164 1.3129,3.76338 1.3563,3.17412 1.9342,3.78732 3.7494,6.48494 2.4275,3.04569 5.4206,5.60265 8.8175,7.51144 1.7462,0.98123 2.9062,1.41898 4.7122,2.18453 3.8018,1.45613 7.4631,3.23466 11.0837,5.08759 1.755,0.97655 3.5227,1.93061 5.3011,2.86375 12.5286,6.5601 21.806,-11.15799 9.2774,-17.71809 v 0 c -1.8375,-0.95957 -3.6538,-1.95921 -5.4731,-2.95272 -4.0829,-2.08611 -8.2131,-4.08639 -12.4934,-5.74067 -0.8911,-0.36036 -1.974,-0.67844 -2.7944,-1.20576 -0.3614,-0.23228 -0.6866,-0.51668 -1.0358,-0.76695 -1.0671,-0.76491 -0.056,0.0296 -1.0267,-0.75541 -0.3244,-0.40497 -1.0818,-1.30643 -1.3,-1.76662 -0.741,-1.56287 -1.2682,-3.70673 -1.6486,-5.31045 -0.8797,-3.70935 -1.105,-5.34123 -1.7899,-9.21457 -0.6809,-4.97022 -0.8065,-4.98218 -1.0088,-9.86425 -0.045,-1.09018 0.019,-2.18299 -0.025,-3.27329 -0.01,-0.17005 0.038,-0.54414 -0.1246,-0.49511 -17.2584,5.19499 -11.1708,9.26147 -18.9069,-3.11034 0.3853,4.82174 0.2887,9.74664 1.7915,14.3999 0.4262,0.91956 0.8073,1.86137 1.2786,2.75873 0.2785,0.53035 0.6305,1.01907 0.9658,1.51548 1.5089,2.23422 3.2602,4.284 4.999,6.33904 2.1275,2.58911 4.2606,5.21121 5.5236,8.35388 0.9145,2.10494 1.3015,3.12811 2.4359,5.17162 2.1548,3.88189 4.9103,7.38587 7.919,10.63731 0.9295,0.9724 1.8325,1.97078 2.7885,2.91714 0.9032,0.89403 4.5851,4.25072 5.5246,5.04423 1.9345,1.63372 4.4366,3.67281 6.7513,4.76607 1.489,0.70326 3.0986,1.1162 4.6478,1.67428 1.0582,0.1188 2.1126,0.27858 3.1746,0.35642 0.556,0.0407 1.115,0 1.6725,0 2.55,-0.0106 5.1025,-0.0474 7.6458,-0.24826 5.9348,-0.5725 11.8392,-1.52294 17.5742,-3.1892 3.5469,-1.04728 7.0737,-2.13493 10.5678,-3.34918 2.5562,-0.88823 4.7713,-1.65894 7.2213,-2.824 1.1464,-0.54512 2.2427,-1.18975 3.3641,-1.78464 2.0968,-1.40804 4.2304,-2.62065 5.8866,-4.59055 0.9875,-1.17449 2.5602,-2.28883 2.5637,-3.82323 0.01,-4.03868 0.5135,-9.19165 -2.5273,-11.84955 -6.0636,-5.30005 -9.4226,-2.77392 -13.1879,-0.28694 -1.9743,1.42084 -3.8439,2.99992 -6.0231,4.10699 -2.0968,0.87488 -4.3435,1.66638 -6.6184,1.90485 -1.9739,0.2069 -3.7814,0.10308 -5.7604,0.0599 -1.0879,-0.14126 -2.1752,-0.28763 -3.2637,-0.42381 -0.5518,-0.069 -1.8356,-0.71866 -1.6574,-0.19182 0.4877,1.44198 2.6676,2.08417 2.81,3.59971 0.4665,4.96451 0.3807,10.94832 -5.0107,12.15361 3.0162,-0.835 6.0382,-1.72242 9.1682,-2.01118 4.9558,-0.64858 10.0976,-0.69684 14.6325,-3.09277 0.9802,-0.59203 2.0128,-1.10503 2.9407,-1.77609 2.6518,-1.91781 4.5119,-4.76076 6.8999,-6.96701 2.2312,-2.38059 4.4559,-4.76335 6.3831,-7.40408 0.6369,-0.87264 1.2995,-1.73177 1.8479,-2.6626 0.6632,-1.12586 1.1857,-2.32892 1.7786,-3.49338 0.3735,-1.33926 0.89,-2.64665 1.1204,-4.0178 0.8399,-4.99817 -0.6661,-10.18032 -1.7208,-15.02241 -1.0885,-3.64125 -2.2126,-7.27485 -3.1763,-10.95107 -0.4694,-1.80978 -0.9083,-3.60739 -1.4845,-5.38822 -1.0859,-3.35603 -2.6149,-6.52857 -4.0985,-9.72084 -0.7563,-1.70926 -1.6187,-3.81603 -2.6825,-5.29601 -2.7846,-3.87411 -6.6483,-6.01059 -10.7631,-8.17832 -3.4137,-1.70159 -4.2527,-2.17136 -7.8593,-3.7429 -1.2959,-0.56468 -2.6121,-1.08128 -3.9194,-1.61907 -4.1949,-1.7258 -8.3968,-3.48332 -12.8506,-4.44749 -1.2534,-0.18393 -2.498,-0.44344 -3.7602,-0.55184 -3.8515,-0.33073 -7.6253,0.33306 -11.4119,0.92313 -3.8897,0.69755 -7.8188,1.30202 -11.5621,2.61382 -0.854,0.35349 -1.727,0.66421 -2.562,1.06048 -4.043,1.91865 -7.4424,4.83211 -10.2206,8.31752 -3.2537,4.08731 -6.4138,8.27474 -9.2378,12.67132 -7.0164,12.27881 10.3484,22.20158 17.3649,9.92277 z" /><path
       style="fill:#f80c08;fill-opacity:1;stroke-width:20;paint-order:markers stroke fill"
       id="path8429"
       d="m 2270.3763,407.83142 c -0.3027,-0.0887 -0.6167,-0.14526 -0.9079,-0.26623 -0.058,-0.0241 -0.063,-0.11088 -0.1077,-0.15557 -0.3367,-0.3384 -0.7636,-0.58015 -1.0915,-0.92715 -0.083,-0.0875 -0.097,-0.22061 -0.156,-0.32568 -0.1025,-0.18344 -0.2182,-0.35922 -0.3273,-0.53882 -0.2985,-0.50766 -0.5974,-0.94938 -0.7892,-1.5081 -0.1289,-0.3751 -0.1412,-0.78068 -0.2013,-1.17272 -0.1797,-1.17202 -0.1385,-0.92691 -0.2672,-2.15878 0.2271,-0.0183 -0.3305,-1.62619 0.048,-1.78975 0.1089,-0.047 -0.051,0.41399 0.1185,-0.0191 0.1182,-0.30141 0.2199,-0.60907 0.3299,-0.91361 0.1507,-0.40129 0.3078,-0.80023 0.4521,-1.20385 0.6887,-1.92572 0.4016,-1.24487 1.0013,-2.8357 0.1252,-0.33216 0.249,-0.66508 0.3871,-0.99208 0.068,-0.16084 0.2513,-0.64371 0.2308,-0.4703 -0.027,0.22966 -0.1677,0.43101 -0.2515,0.64651 -0.1064,0.20505 -0.5425,0.55653 -0.3191,0.61513 0.2783,0.073 0.4565,-0.35039 0.6906,-0.51768 0.2511,-0.17947 0.4942,-0.37338 0.7645,-0.5224 0.093,-0.0511 0.2107,-0.0329 0.3099,-0.07 0.2943,-0.11007 0.5779,-0.24678 0.8669,-0.37018 0.3575,-0.13052 0.7151,-0.26103 1.0727,-0.39155 5.1275,-0.5756 10.2811,-0.91723 15.4235,-1.35099 4.9135,-0.48742 9.8472,-0.59383 14.7787,-0.41267 1.2998,0.16978 2.6554,0.003 3.9386,0.32358 0.8384,0.20908 1.6762,0.51562 2.4964,0.79267 0.5242,0.16682 0.6988,0.32017 1.0759,0.66042 0.068,0.0618 0.269,0.24448 0.1858,0.2049 -0.4749,-0.2258 -0.6816,-0.51274 -1.0348,-0.88382 -1.3754,-3.31819 -1.4772,-2.45094 -1.2336,-5.88732 0.024,-0.33573 0.503,-0.75586 0.2503,-0.97822 -0.227,-0.19973 -0.3361,0.50279 -0.5073,0.75205 -1.1766,1.71339 -0.9527,1.37724 -2.2956,3.22522 -0.4652,0.61656 -0.9138,1.24603 -1.3957,1.8497 -1.0563,1.3235 -2.1806,2.59125 -3.2684,3.88901 -1.6511,1.96982 -3.3,3.92435 -5.0455,5.81117 -1.266,1.26683 -2.6991,2.35038 -4.1776,3.35505 -0.721,0.48993 -1.8408,1.23434 -2.6956,1.58253 -0.2539,0.10345 -0.5323,0.13211 -0.7984,0.19817 -2.2704,0.6308 -4.6816,0.70088 -6.9304,1.41753 -0.7866,0.2507 -1.5435,0.58661 -2.3152,0.87993 -1.4952,0.6605 -2.6715,1.70098 -3.9685,2.63631 -0.056,0.0402 -0.5406,0.39735 -0.3929,0.16803 -0.4263,0.23559 -0.8441,0.48739 -1.279,0.70676 0.1158,-0.079 0.2316,-0.15793 0.3474,-0.23688 0,-0.0199 0.028,-0.0538 0.01,-0.0595 -0.3616,-0.10737 -1.5734,0.18438 -1.8829,0.23452 -8.3254,2.54506 -5.6452,0.80603 0.6369,19.91852 0.3233,0.98364 2.0712,0.0196 3.1063,-0.008 3.0827,-0.0816 6.154,-0.62482 9.1951,-1.06937 6.8835,-1.16036 13.9275,-1.67698 20.6296,-3.74859 1.0806,-0.33404 2.133,-0.75351 3.1995,-1.13027 4.3775,-1.93019 7.8815,-3.87795 10.8875,-7.73669 0.6338,-0.81351 1.2042,-1.68825 1.6426,-2.62165 0.5795,-1.23335 0.9295,-2.56193 1.3943,-3.84291 0.1793,-1.07119 0.4337,-2.13251 0.5381,-3.2136 0.3692,-3.82448 -0.1625,-7.84098 -1.067,-11.55745 -0.2205,-0.90588 -0.5058,-1.7947 -0.7588,-2.69206 -0.3812,-0.97263 -0.6405,-2.00236 -1.1436,-2.91793 -0.8615,-1.56784 -1.8498,-3.07046 -2.9304,-4.49617 -1.2942,-1.70759 -4.4607,-4.85809 -6.0145,-6.4525 -1.5582,-1.59888 -3.509,-3.60981 -5.0726,-5.22057 -3.0794,-3.30706 -6.5973,-6.10471 -10.5038,-8.36959 -1.9656,-1.13959 -2.8862,-1.53485 -4.8757,-2.48526 -4.4144,-2.12908 -9.2881,-2.63297 -14.1214,-2.73032 -2.666,-0.031 -5.298,0.26602 -7.8964,0.84387 -13.7596,3.26712 -9.1392,22.72609 4.6204,19.45899 v 0 c 0.9642,-0.36224 2.0436,-0.20294 3.0488,-0.30414 1.1578,-0.0114 2.2859,0.11991 3.439,0.19825 0.1862,0.0127 0.3751,-0.022 0.5597,0.005 0.5936,0.0877 1.2799,0.40609 1.8065,0.61159 2.0293,0.94186 4.1499,1.9136 5.9266,3.29729 1.2751,0.99303 2.5112,2.28965 3.6461,3.40516 2.5258,2.60173 5.0592,5.19562 7.5932,7.78939 0.5623,0.57562 1.0875,1.18919 1.6813,1.73238 0.1763,0.16129 0.4607,0.18587 0.6149,0.36836 0.2048,0.24227 0.2791,0.56972 0.4186,0.85457 0.3206,1.03659 0.5428,1.65121 0.7456,2.71796 0.2299,1.20899 0.2913,2.44049 0.5186,3.64927 0.023,-0.0283 0.8784,-1.06381 1.1494,-0.84511 0.1337,0.10785 -0.1997,0.28721 -0.3384,0.38846 -0.5721,0.4176 -1.7572,1.04095 -2.3854,1.38465 -0.5069,0.19936 -1.0021,0.43153 -1.5207,0.59809 -5.9367,1.90674 -12.2521,2.15201 -18.3479,3.27509 -1.2538,0.18658 -3.9713,0.6232 -5.5045,0.76732 -0.5919,0.0556 -1.1938,0.014 -1.7799,0.11358 -0.1185,0.0201 0.319,0.0124 0.3358,0.13155 0.8968,6.33344 2.3173,12.6455 2.3792,19.0418 0.01,0.75859 -1.4593,0.41511 -2.189,0.62265 2.1096,-0.36465 4.1944,-0.61953 6.2083,-1.40634 1.9085,-0.74568 1.5984,-0.32502 2.0578,-0.97354 1.3464,-0.69085 2.5863,-1.40076 3.8195,-2.27912 0.1741,-0.12401 0.3374,-0.26241 0.5082,-0.39095 0.1848,-0.13909 0.7823,-0.47069 0.5585,-0.4119 -0.413,0.10853 -0.766,0.37804 -1.149,0.56705 -0.2556,0.0647 -0.5077,0.14481 -0.7667,0.194 -0.07,0.0132 0.1253,-0.0711 0.1948,-0.0854 0.4837,-0.0992 0.9737,-0.16526 1.4595,-0.25392 2.4645,-0.44968 4.9315,-0.91874 7.3112,-1.72349 1.1065,-0.45122 2.2395,-0.8422 3.3194,-1.35372 1.5179,-0.71895 3.5006,-2.0012 4.8814,-2.96473 2.5529,-1.78142 4.9803,-3.74738 7.1399,-5.99525 1.944,-2.12392 3.8051,-4.29853 5.6546,-6.50499 0.682,-0.81362 3.3622,-4.00598 3.9112,-4.69787 0.5568,-0.70164 1.077,-1.43152 1.6155,-2.14727 1.6935,-2.3417 4.8442,-6.41853 5.5617,-9.14636 1.3462,-5.11762 0.6271,-5.06529 -0.8371,-10.02109 -0.5211,-0.76796 -0.9743,-1.58671 -1.5634,-2.30384 -2.4861,-3.0263 -5.9346,-5.06642 -9.5819,-6.36891 -1.9572,-0.62865 -3.9134,-1.22487 -5.9421,-1.59002 -1.9861,-0.35745 -4.0092,-0.37383 -6.0159,-0.50413 -5.7227,-0.18823 -11.4486,-0.0936 -17.1507,0.47148 -1.8438,0.15555 -4.7802,0.405 -6.5788,0.54907 -4.8069,0.38504 -9.6752,0.58401 -14.3103,2.05158 -1.5715,0.61491 -2.6769,0.99676 -4.1685,1.77498 -3.2727,1.70744 -6.1336,3.92295 -8.5083,6.76852 -0.5075,0.82661 -1.0554,1.62965 -1.5223,2.47983 -1.1921,2.17099 -1.7174,4.75433 -2.6889,7.02604 -0.3422,0.9611 -0.7668,2.09693 -1.0169,3.07215 -0.7318,2.85332 -0.8632,5.79954 -0.5146,8.72054 0.2216,1.78959 0.3113,2.86345 0.7213,4.65256 0.8327,3.63414 2.3067,7.02734 4.5312,10.03128 0.6181,0.76862 1.1855,1.5811 1.8545,2.30582 3.001,3.25057 6.8352,5.7694 11.1108,6.96582 13.598,3.88514 19.0924,-15.34536 5.4944,-19.2305 z" /><path
       style="fill:#f80c08;stroke-width:668.132;paint-order:markers stroke fill;fill-opacity:1"
       d="m 6629.1261,3004.6687 c -172.981,48.5325 -341.8064,113.9545 -491.6804,214.533 -216.7776,126.306 -366.2461,341.9218 -473.2013,563.9447 -88.1667,186.2514 -98.1057,398.2252 -97.5128,600.9025 7.2178,264.6343 105.7479,516.8343 240.8418,741.3884 106.75,207.9845 265.1916,393.9884 463.8733,518.832 158.9376,70.9731 329.2255,114.9751 495.4064,166.2805 196.6561,45.7893 405.0157,48.9155 602.9398,8.7698 130.4279,-40.7472 240.9216,-126.4328 364.2004,-183.6763 120.3143,-77.3863 213.9227,-190.5928 301.4915,-302.1316 178.4434,-254.3503 313.5996,-565.671 266.108,-882.5369 -40.203,-324.125 -203.7609,-611.8658 -331.2349,-906.9929 -48.5828,-111.841 -133.7149,-205.3326 -243.092,-260.2193 -130.855,-61.5288 -273.6241,-95.8766 -399.2159,-169.6788 -93.3092,-44.0076 -182.0684,-116.9009 -291.1636,-107.8269 -135.886,-3.3625 -271.8472,-1.1577 -407.7603,-1.5882 z"
       id="path778"
       transform="scale(0.26458333)" /><path
       style="fill:#f80c08;stroke-width:668.132;paint-order:markers stroke fill;fill-opacity:1"
       d="m 7844.7939,1716.4258 c -111.5575,12.1358 -237.012,12.133 -329.0567,85.0565 -65.1434,44.9944 -105.4151,121.7772 -92.2208,201.6359 3.4647,96.0462 24.7285,194.2763 91.3217,267.4405 101.6825,148.1421 304.0982,177.7488 468.5114,143.4099 114.5988,-48.8351 185.6257,-163.1272 239.7361,-270.016 26.6657,-77.9521 -12.8209,-160.7347 -41.1731,-232.9171 -44.5302,-91.62 -121.3275,-187.0733 -232.6478,-187.8852 -34.5949,-4.5328 -69.5487,-7.4851 -104.4708,-6.7245 z"
       id="path780"
       transform="scale(0.26458333)" /><path
       style="fill:#f80c08;stroke-width:668.132;paint-order:markers stroke fill;fill-opacity:1"
       d="m 8670.4135,2630.1403 c -97.4357,2.1562 -204.3737,47.5465 -236.4733,147.2909 -45.5295,93.566 -44.6669,219.5893 41.4148,290.2832 76.5299,69.5348 183.1074,101.0313 284.3791,109.9675 84.5947,2.773 184.7965,-24.6719 215.5157,-113.5065 33.5552,-84.0854 52.2007,-183.5963 23.5817,-271.3971 -46.3536,-75.0459 -134.4865,-112.5039 -213.4095,-144.477 -36.9752,-12.3604 -75.9503,-19.2252 -115.0085,-18.161 z"
       id="path782"
       transform="scale(0.26458333)" /><path
       style="fill:#f80c08;stroke-width:668.132;paint-order:markers stroke fill;fill-opacity:1"
       d="m 8939.5146,1974.6855 c -54.6649,21.4391 -112.5118,56.586 -142.0083,108.8281 -28.4683,89.1649 30.9454,200.0736 127.4035,212.2529 66.9639,14.9987 165.9944,6.7033 195.542,-66.1359 14.6228,-67.0672 14.611,-152.3608 -50.2364,-193.9192 -38.7103,-27.0116 -82.2178,-57.7159 -130.7008,-61.0259 z"
       id="path784"
       transform="scale(0.26458333)" /><path
       style="fill:#f80c08;stroke-width:668.132;paint-order:markers stroke fill;fill-opacity:1"
       d="m 8650.9232,1400.7309 c -61.4091,2.0187 -127.5684,38.6791 -131.9956,106.1868 -17.2338,55.4325 38.9032,97.9219 90.3564,91.6166 65.0108,0.8793 157.4587,-25.8648 155.163,-106.135 7.0831,-34.3436 -6.579,-70.9339 -45.3508,-74.2152 -20.7784,-11.6087 -44.1691,-18.9284 -68.173,-17.4532 z"
       id="path786"
       transform="scale(0.26458333)" /><path
       style="fill:#ffffff;fill-opacity:1;stroke-width:20;paint-order:markers stroke fill"
       id="path7677"
       d="m 1834.7178,880.69099 c 1.0356,-0.23916 3.5008,-0.84392 4.4187,-0.87588 6.6783,-0.23238 16.2893,4.23225 22.2268,6.65382 2.963,1.20883 5.9345,2.39723 8.8892,3.62646 8.6943,3.61715 7.3336,3.31208 16.1888,6.52571 7.7723,2.82067 15.692,5.14914 23.4701,7.9584 13.5012,5.27598 26.2932,12.1207 39.3619,18.34266 12.4543,6.41938 23.4325,15.20288 34.5814,23.5902 11.7071,9.59017 21.4543,21.19953 30.3949,33.33533 1.3245,2.03242 2.6577,4.05929 3.9737,6.09724 2.8305,4.38304 3.8404,5.77578 6.1096,10.19387 2.5346,4.9347 4.8154,10.0086 7.3243,14.9596 3.8634,6.6327 5.8182,13.8575 6.7865,21.3988 0.3655,-1.6555 -0.1935,4.5888 -0.4822,3.8073 -0.083,-0.2259 0.2554,-0.557 0.077,-0.7183 -0.2725,-0.2458 -0.5317,0.953 -0.3335,0.1695 0.2361,-0.2497 0.6626,-0.4085 0.7082,-0.749 0.027,-0.2004 -0.4061,-0.036 -0.6067,-0.01 -0.7418,0.098 -1.4729,0.2656 -2.2123,0.3803 -2.8951,0.4491 -5.7953,0.7426 -8.7124,0.9985 -3.2623,-0.3178 -6.5631,1.3543 -9.8049,0.9464 -0.1433,-0.018 -0.7746,-0.6773 -0.8089,-0.7111 0.036,-0.1605 0.2001,-0.344 0.1096,-0.4815 -1.317,-2.0013 -3.3177,-3.4573 -4.9979,-5.1651 -3.3872,-3.4427 -6.5645,-7.053 -9.7489,-10.6816 -7.2573,-8.0233 -15.3517,-15.2143 -22.7887,-23.06583 -5.7002,-6.55164 -11.3647,-13.13262 -16.8114,-19.89791 -5.7862,-7.47911 -11.6983,-14.78664 -18.4786,-21.38783 -5.4764,-5.35033 -10.7762,-10.78471 -16.808,-15.52147 -7.2825,-5.96468 -15.5286,-10.30134 -23.9161,-14.45072 -7.7854,-4.49918 -15.8777,-8.38216 -23.9329,-12.35816 -8.0295,-4.07638 -16.5242,-7.09771 -24.9591,-10.20421 -8.6182,-2.19987 -17.0231,-4.86116 -25.2719,-8.19377 -1.9048,-1.11773 -9.4815,-3.70745 -10.3461,-5.94728 -0.4212,-1.09133 0.8173,0.22484 1.2841,0.67471 0.1226,0.21969 0.2993,0.41699 0.3678,0.65903 0.092,0.32475 0.041,0.67564 0.1041,1.00716 0.2817,1.4746 1.6452,-2.22393 1.9596,-1.0006 4.1692,-0.52557 8.3403,-0.96377 12.5472,-0.71107 3.2111,0.56343 7.017,-0.12689 9.6932,2.02227 7.5315,5.34019 14.7007,11.14258 22.3226,16.3632 3.7874,3.15537 9.0699,4.32454 12.7308,7.63247 0.3868,0.34946 -1.0903,-0.3733 -1.3173,-0.84249 -0.9257,-1.9127 -1.3448,-4.03154 -2.0172,-6.04732 1.4954,-2.43496 2.9907,-4.86992 4.4861,-7.30488 0.014,-0.2441 0.2704,-0.64955 0.04,-0.73226 -1.1073,-0.39806 -2.3309,-0.32493 -3.493,-0.50903 -4.6922,-0.74332 -9.369,-1.56361 -14.0666,-2.27608 -7.1474,-1.65113 -14.1837,-4.06016 -21.0648,-6.62241 -2.4869,-1.37412 -0.056,-0.50218 0.4461,0.5107 0.9349,1.8864 2.3371,3.88506 2.057,5.97169 -3.8937,7.53343 -3.6101,4.67969 -3.8806,7.67861 4.9241,-1.1408 9.7956,-0.30266 14.7123,0.36343 6.5972,0.89871 13.2376,1.41896 19.8876,1.69728 5.4691,1.57961 10.7057,4.10231 16.01,6.22067 6.2443,1.76937 11.9644,4.74898 17.5565,7.9734 6.3377,3.28975 12.1265,7.32565 17.7093,11.75189 6.292,5.10532 12.3187,10.42652 19.4018,14.41834 6.4146,3.96626 12.5439,8.33279 19.004,12.2347 4.8166,3.17098 10.2868,5.4986 14.5798,9.43412 1.7464,1.60099 3.4056,3.76364 4.8915,5.56993 4.4024,5.0773 5.3573,11.40521 6.6269,17.74013 0.794,3.48181 1.9332,6.92989 3.9451,9.91959 1.2572,1.8682 2.8531,3.3023 4.2155,5.0521 -0.094,-0.048 -0.3303,-0.2379 -0.2823,-0.1438 0.3687,0.7229 0.8836,1.3634 1.2687,2.0777 0.1928,0.3577 0.8639,2.3514 0.9265,2.5199 0.9815,2.6425 0.8942,2.3287 2.0945,5.0524 2.1586,4.5799 3.4088,9.7595 6.9062,13.6049 1.0041,1.1041 2.2051,2.0115 3.3077,3.0172 4.953,3.4573 10.7066,4.2183 16.5704,4.4268 7.575,-0.1638 14.9754,-5.2231 14.5122,-13.6623 -0.1061,-1.9318 -1.0519,-3.7236 -1.5778,-5.5854 -2.6858,-6.3658 -4.8329,-12.9081 -7.7616,-19.1887 -4.7255,-9.54983 -10.5494,-18.44758 -17.3555,-26.62776 -7.1895,-8.28524 -14.4315,-16.45475 -22.3818,-24.02072 -6.7077,-6.14543 -12.4887,-13.17763 -18.7635,-19.73731 -6.4625,-6.33516 -13.383,-12.19264 -20.2743,-18.05382 -8.7479,-7.84082 -17.1172,-11.34491 -28.3473,-14.23463 -9.208,-1.83542 -18.4617,-3.39863 -27.8217,-4.16825 -7.3949,-0.34809 -14.7391,-1.27392 -22.1295,-1.71106 -8.4852,-0.71578 -16.971,-1.40018 -25.4783,-1.7839 -2.7929,-0.44447 -5.7519,-0.23966 -8.4874,-1.05855 -2.1027,-0.62947 -4.5778,-2.58654 -6.3786,-3.6377 -2.6344,-1.67682 -5.3144,-3.38685 -7.5244,-5.62229 -0.2525,-0.2554 -0.8828,-1.13305 -0.6545,-0.85582 2.335,2.83522 1.2503,1.26561 1.9437,6.68552 -2.5163,2.57355 -5.5496,4.72765 -7.5489,7.72062 -0.3698,0.55361 1.1525,0.6704 1.7558,0.95207 1.5,0.70038 3.0496,1.29115 4.5494,1.99189 5.2793,2.46642 10.5055,5.04852 15.6389,7.80347 13.4639,8.1444 26.8013,16.48245 40.3555,24.48954 10.4956,6.82789 21.794,12.305 32.3635,18.99224 7.7287,5.65891 15.5778,11.16907 23.1675,17.01429 7.3897,4.82458 13.5254,11.14216 19.9573,17.12146 5.7792,6.79852 11.8095,13.34045 18.0396,19.72371 1.2569,1.7648 3.0776,3.0956 4.2729,4.9064 0.4872,0.7382 1.1172,2.5011 1.4987,3.2873 0.1716,0.4754 0.3744,0.9407 0.5149,1.4262 1.3765,4.7585 -0.8674,-2.158 0.7692,3.7659 1.1088,4.0131 2.806,7.6697 4.6001,11.4059 5.5179,10.013 11.5685,14.4999 22.7848,4.1708 2.7596,-2.5413 1.743,-10.7864 1.6193,-13.7818 -1.0436,-9.0852 -3.922,-17.76105 -8.7493,-25.54719 -3.7338,-6.02226 -6.3353,-8.76307 -10.8694,-14.22259 -5.617,-6.38694 -11.924,-12.09752 -18.1244,-17.89888 -10.3276,-9.66137 -23.9908,4.944 -13.6632,14.60534 v 0 c 5.6067,5.24423 11.3254,10.38958 16.446,16.12456 7.6683,9.09119 13.632,16.40696 15.029,28.59456 0.1495,0.67 0.01,1.4821 0.4487,2.01 0.2061,0.2479 0.5582,-0.3366 0.8677,-0.4267 3.3959,-0.9888 6.6964,-2.7765 10.2332,-2.8057 2.3322,-0.019 5.2783,5.8493 1.9875,0.4803 -1.0065,-2.0693 -2.3866,-4.3405 -2.99,-6.5888 -0.905,-3.3723 -1.2292,-6.9362 -2.9249,-10.0725 -2.4465,-5.00465 -5.4145,-9.50442 -9.4401,-13.40459 -6.4596,-6.61439 -12.6059,-13.48255 -18.736,-20.40326 -6.8892,-6.39884 -13.5194,-13.11312 -21.3896,-18.33229 -8.0972,-6.20395 -16.4132,-12.12784 -24.6966,-18.07922 -10.7601,-6.74185 -22.1573,-12.40647 -32.844,-19.28524 -13.8033,-8.15406 -27.3655,-16.67719 -41.1115,-24.91433 -9.4571,-5.02298 -2.4665,-1.43878 -11.261,-5.65158 -3.8428,-1.84081 -8.1501,-4.1557 -12.1972,-5.53127 -2.3155,-0.78701 -4.7327,-2.57027 -7.0856,-1.90331 -4.7304,1.34088 -8.4634,5.0069 -12.695,7.51033 0.055,2.33797 -0.3417,4.73088 0.1651,7.01389 1.3614,6.13228 10.6777,11.62278 15.4386,14.81757 2.2593,1.31114 5.8043,3.45109 8.1466,4.43643 5.0716,2.13352 10.4638,2.54494 15.8816,2.95322 8.4164,0.3755 16.8094,1.07786 25.2049,1.76975 7.2434,0.41997 14.4399,1.35562 21.6884,1.68034 8.2604,0.65352 16.4114,2.09275 24.5496,3.62794 7.8117,1.90791 14.2996,4.44794 20.273,10.07488 6.3794,5.42573 12.7859,10.84527 18.805,16.67058 6.512,6.75092 12.4435,14.06422 19.41,20.38069 7.407,7.03366 14.1183,14.65734 20.8218,22.35827 5.759,6.83758 10.5905,14.3497 14.6129,22.3397 2.9915,6.2161 4.868,12.8341 7.7212,19.1027 -0.1,-0.9486 -0.4063,-1.8979 -0.299,-2.8457 0.3666,-3.2388 2.986,-6.5546 6.1349,-6.3547 -1.3008,-0.036 -3.7486,-0.5922 -4.7852,-0.1036 0.055,0.1742 0.3415,0.4788 0.1642,0.5225 -0.2254,0.056 -0.9218,-1.0883 -1.2222,-1.6978 -0.8313,-1.6869 -1.5034,-3.7319 -2.2067,-5.4317 -0.3489,-0.843 -0.7449,-1.6658 -1.1173,-2.4987 -2.1572,-4.7427 -3.6242,-9.80908 -6.805,-14.03639 -1.8651,-2.22908 -3.504,-3.1637 -4.0171,-6.22165 -1.9618,-9.78884 -4.2029,-18.83428 -10.9055,-26.65312 -3.1404,-3.70149 -4.2312,-5.25465 -7.9323,-8.50474 -4.9759,-4.36946 -10.9779,-7.2957 -16.5477,-10.78632 -6.6689,-4.00825 -12.9315,-8.60491 -19.6138,-12.58771 -6.1918,-3.36034 -11.1267,-8.40356 -16.7169,-12.62898 -6.3657,-5.01351 -12.9618,-9.62935 -20.1496,-13.40308 -6.4113,-3.66747 -12.9744,-7.13798 -20.1045,-9.20533 -7.3703,-2.93569 -14.6294,-6.71489 -22.594,-7.6268 -6.0334,-0.24553 -12.0575,-0.72274 -18.0428,-1.53525 -7.9546,-1.06642 -15.9666,-1.84888 -23.7953,0.51343 -5.1499,2.03525 -7.6204,2.26107 -9.6773,10.17974 -1.7036,6.55828 5.8783,11.29252 10.5765,13.37873 8.1651,2.9654 16.4391,5.90815 24.9607,7.62148 4.8574,0.73462 9.696,1.67265 14.561,2.34466 2.9418,0.40638 10.7653,1.53559 13.3111,-0.005 3.366,-2.0362 5.3239,-5.79305 7.9859,-8.68957 -0.5689,-2.80427 -0.5847,-5.78054 -1.7067,-8.41283 -2.1117,-4.95472 -11.9496,-8.33115 -16.2227,-11.43674 -8.1138,-5.5498 -15.6317,-11.88832 -23.8362,-17.30307 -1.4556,-0.74641 -2.8619,-1.59803 -4.3668,-2.23927 -4.4547,-1.89818 -9.5125,-1.71887 -14.2201,-2.31931 -7.5586,-0.26948 -15.2593,0.13851 -22.4098,2.81712 -1.2955,0.74758 -2.6536,1.39594 -3.8866,2.24274 -4.3225,2.96863 -8.0275,8.09403 -9.0592,13.22255 -0.3486,1.73326 -0.1291,3.53359 -0.1937,5.30038 0.5649,1.95876 0.8174,4.03611 1.6947,5.87629 3.6961,7.75268 12.3269,11.0432 19.5808,14.39275 8.4333,3.38307 16.9947,6.2969 25.8384,8.41184 7.7758,2.85298 15.6106,5.62316 23.0135,9.36956 8.0513,3.96809 16.1247,7.86627 23.9119,12.34781 7.1747,3.54875 14.2706,7.14391 20.479,12.29088 5.4952,4.25354 10.1629,9.31926 15.1827,14.1057 6.2168,6.01268 11.5129,12.77866 16.8351,19.58515 5.7907,7.18145 11.7955,14.18285 17.8785,21.11755 7.274,7.6506 15.1176,14.7233 22.2655,22.4928 4.4495,5.0664 8.9975,9.9673 13.7631,14.7368 1.1576,1.1586 2.1963,2.4472 3.4623,3.4864 1.578,1.2952 3.3563,2.3252 5.0344,3.4879 1.5434,0.5303 3.0397,1.2255 4.6302,1.591 5.1084,1.1739 10.0674,-0.2054 15.1603,-0.4827 7.7663,-0.6973 16.034,-1.148 22.5828,-5.8121 6.1145,-6.1561 7.8351,-11.9407 7.0343,-20.6318 -1.3353,-9.7451 -3.875,-19.1803 -8.7736,-27.801 -2.6252,-5.17249 -4.998,-10.4884 -7.6799,-15.62891 -2.5201,-4.83057 -3.8669,-6.82744 -6.86,-11.43595 -1.5274,-2.35175 -3.0817,-4.68598 -4.6225,-7.02897 -10.1268,-13.65729 -21.1471,-26.7261 -34.4541,-37.42876 -12.2187,-9.19186 -24.2959,-18.75345 -38.0123,-25.66794 -13.6647,-6.49639 -27.0324,-13.66567 -41.1806,-19.10045 -7.6699,-2.75249 -15.4678,-5.06598 -23.1296,-7.83233 -8.303,-2.99784 -7.217,-2.8031 -15.7485,-6.35215 -2.9798,-1.23954 -5.9765,-2.43805 -8.9648,-3.65709 -12.5926,-5.02862 -25.9544,-10.51994 -39.619,-6.45949 -13.598,3.88514 -8.1035,23.11564 5.4945,19.2305 z" /><path
       style="fill:#ffffff;fill-opacity:1;stroke-width:20;paint-order:markers stroke fill"
       id="path8407"
       d="m 1835.9286,857.75063 c -1.9636,0 -3.9272,0 -5.8908,0 -1.5772,0.0418 -3.1856,-0.0849 -4.7535,0.14166 -2.2334,0.32274 -2.1734,0.35843 -3.9976,0.88085 -0.4537,0.15738 -0.9165,0.29073 -1.3611,0.47215 -0.625,0.25498 -1.2249,0.56814 -1.8446,0.83566 -0.2183,0.0942 -0.4601,0.12084 -0.6873,0.19116 -1.8339,0.56785 -0.217,0.10314 -1.6167,0.49747 -2.8316,0.80971 -5.3711,2.29468 -7.8338,3.86742 -1.9497,1.26865 -3.9559,2.64927 -5.4136,4.49823 -0.5379,0.68231 -1.0044,1.41798 -1.5066,2.12699 -1.9862,3.23262 -2.6676,6.92041 -3.0334,10.63476 -0.2975,2.64007 0.068,5.26328 0.6124,7.84196 0.3921,1.69649 1.0595,3.30833 1.585,4.96211 0.7482,1.949 1.7005,3.90159 3.0499,5.51738 1.2513,1.49833 1.4445,1.59403 2.7398,2.72417 1.6298,1.25818 3.3599,2.3644 4.9774,3.64112 2.7783,2.18218 5.8331,3.97915 8.8372,5.82721 2.3353,1.29035 4.6772,2.56651 7.0115,3.8589 12.3727,6.84958 22.0594,-10.64803 9.6867,-17.49761 v 0 c -2.0669,-1.14414 -4.1287,-2.29622 -6.2195,-3.39646 -2.3594,-1.45124 -4.7782,-2.83967 -6.9752,-4.53078 -1.4344,-1.11974 -2.9718,-2.26684 -4.4469,-3.21027 -0.3011,-0.0122 -0.016,-0.0124 0.4073,0.6082 0.01,0.0116 0,0.0518 -0.01,0.0411 -0.07,-0.0825 -0.1546,-0.37243 -0.1835,-0.26808 -0.044,0.15767 0.2737,0.5919 0.087,0.32732 -0.3315,-0.97076 -0.6855,-1.98345 -1.0211,-2.93082 -0.1959,-0.72374 -0.2782,-0.99697 -0.2272,-1.63798 0.025,-0.29591 0.2263,-1.53662 0.1807,-1.76781 -0.011,-0.0533 -0.094,0.16573 -0.1149,0.11554 -0.077,-0.18735 0.2038,-0.31935 -0.033,-0.18264 -0.166,0.17642 -0.325,0.35967 -0.4979,0.5293 -0.024,0.023 -0.1012,0.0751 -0.088,0.0451 0.2415,-0.53364 1.1334,-0.6798 1.4412,-1.07379 0.8164,-0.5388 1.6398,-1.11088 2.5569,-1.46185 1.8885,-0.5556 3.7735,-1.13186 5.5672,-1.95368 0.079,-0.036 -0.3204,0.10819 -0.2541,0.0527 0.1003,-0.0838 0.2429,-0.0966 0.3644,-0.14491 0.1007,-0.0366 0.4063,-0.0842 0.3022,-0.10983 -0.2135,-0.0526 -0.8682,0.0907 -0.6593,0.0217 0.2414,-0.0797 0.5071,-0.0376 0.7608,-0.0553 0.8694,-0.0604 1.7386,-0.0358 2.6097,-0.0385 1.9636,0 3.9272,0 5.8909,0 14.1421,0 14.1421,-20.00002 0,-20.00002 z" /><path
       style="fill:#f80c08;fill-opacity:1;stroke-width:20;paint-order:markers stroke fill"
       id="path9448"
       d="m 1624.8339,862.34795 c 0.6562,-0.5385 1.2829,-1.11519 1.9686,-1.61552 5.7946,-4.22767 12.2189,-7.64579 18.457,-11.14596 29.3019,-16.44121 -11.815,6.7438 16.6581,-9.32829 12.9352,-7.07638 25.513,-14.79005 38.4142,-21.92255 4.1589,-2.32947 8.312,-4.72729 12.8397,-6.27843 2.3061,-0.79005 2.7936,-0.83741 5.2399,-1.41351 11.4179,-2.59329 23.0947,-3.75806 34.7344,-4.83105 11.4096,-0.90985 22.8598,-1.11099 34.3,-1.24328 6.0428,-0.23887 12.0804,-0.55542 18.1269,-0.69255 7.5163,-0.12015 15.0338,-0.12425 22.5509,-0.13144 7.313,0.10554 14.6189,-0.25953 21.9258,-0.5012 3.3076,0.009 6.6307,-0.35156 9.9387,-0.13055 3.787,0.25302 7.5425,1.17221 11.2327,1.98305 7.292,1.71411 14.6223,3.23983 21.9693,4.69347 2.6888,0.45154 4.8775,2.06116 7.1472,3.46366 5.0263,3.10584 1.2785,0.75848 6.0875,3.78942 1.0021,0.59632 1.9859,1.22468 3.0064,1.78895 3.3643,1.86018 6.8727,3.49144 10.2814,5.26778 2.274,1.18499 7.8063,4.14361 9.985,5.30579 4.3327,2.25563 8.5827,4.68948 13.0049,6.77183 2.1603,1.01727 4.4206,1.81374 6.574,2.84554 0.9495,0.45495 1.8539,0.99862 2.7809,1.49794 7.7084,4.67966 15.4646,9.25949 23.6312,13.09679 3.7321,1.7974 7.7699,2.76818 11.6961,4.0209 2.183,0.69649 4.0881,1.41888 6.2458,2.20686 6.5536,2.45888 13.2987,4.35565 19.9596,6.49523 3.5919,1.23111 7.3486,2.12289 10.69,3.98653 0.8932,0.49816 1.7443,1.06821 2.6165,1.60232 5.0199,2.84782 9.7083,6.24216 14.7489,9.05444 1.7446,0.97335 3.5347,1.86338 5.2802,2.83525 7.2596,4.05503 14.0943,8.75453 20.6478,13.86041 2.652,2.18847 5.4354,4.2114 8.1368,6.33574 1.3194,1.03761 2.408,1.88539 3.2758,3.28498 3.0712,7.10309 6.4839,14.08608 9.8165,21.07999 4.3312,9.03648 8.836,17.98363 13.4243,26.89143 4.0984,7.7773 8.4396,15.42079 12.5439,23.19457 3.0389,5.42787 5.8842,10.98899 9.2625,16.22015 1.3062,2.02258 2.6963,3.98967 4.0445,5.98456 1.3783,2.1573 2.7565,4.3147 4.1348,6.4721 5.8421,9.0553 10.7456,18.6199 14.7734,28.5997 3.5958,8.7942 6.8459,17.7241 10.6283,26.4421 1.6572,3.8197 3.3943,7.6041 5.0877,11.4079 1.4353,3.4243 3.0525,6.7905 4.2413,10.3148 0.761,2.2558 1.294,4.612 1.9005,6.9121 1.3544,5.9717 2.1965,12.0344 3.4835,18.0207 2.934,11.6587 7.6922,22.7359 11.949,33.9468 2.9181,7.9698 5.0803,16.2074 6.9768,24.4742 0.9823,4.0319 0.952,8.2002 1.5746,12.2867 0.5549,3.6422 1.3474,7.2319 2.0958,10.8365 0.3149,1.5811 0.6401,3.1602 0.9448,4.7433 0.4583,2.3807 1.0578,5.5917 1.383,8.0293 0.5451,4.0867 0.7439,8.2193 1.0485,12.3281 0.5623,6.9938 0.8235,14.0022 0.9201,21.016 -0.243,4.6921 0.1519,9.5016 -0.7856,14.1403 -0.2749,1.36 -2.2152,7.3339 -2.2577,7.4692 -3.5264,10.4939 -6.1356,21.2945 -10.182,31.6096 8.9192,-9.5359 1.4387,-4.9471 17.3669,-0.8572 0.4802,0.1233 0.1406,-0.9839 0.1512,-1.4796 0.033,-1.5419 -0.045,-3.0847 -0.022,-4.6269 0.088,-5.8207 0.168,-5.417 0.7109,-11.3594 1.2216,-12.12 3.0592,-24.1793 5.5122,-36.1108 0.1065,-1.0767 1.2975,-2.7676 0.3194,-3.23 -5.9092,-2.7939 -12.2913,-5.8808 -18.8175,-5.5159 -2.4651,0.1379 -2.1405,4.4533 -3.0713,6.74 -3.5262,8.6639 -5.9983,17.7265 -8.5613,26.7039 -2.9074,9.7957 -4.552,19.8966 -7.0158,29.7967 -1.0287,4.1336 -2.1995,8.2307 -3.2511,12.3585 -2.4941,8.4792 -3.0194,17.4818 -6.1217,25.7805 -0.6492,1.3204 -1.3715,2.5871 -2.2186,3.787 -0.2414,0.3421 -1.0683,0.8123 -0.7131,1.0339 17.2375,10.7547 14.2454,15.1273 18.1314,8.3697 5.6243,-9.9994 10.4579,-20.4196 15.2822,-30.821 3.7363,-8.0646 7.622,-16.0482 12.6887,-23.3684 2.0613,-2.949 4.1566,-5.8851 6.0003,-8.9787 1.0642,-1.7858 2.3609,-4.0636 2.7461,-6.1135 0.3094,-1.6465 0.2041,-3.3444 0.3062,-5.0166 -0.6739,-4.1725 -2.3012,-7.2189 -5.6216,-9.9418 -0.8589,-0.7044 -1.9228,-1.1126 -2.8842,-1.6689 -12.7069,-6.2078 -21.486,11.7624 -8.7791,17.9702 v 0 c -1.5398,-1.2711 -2.7283,-2.8206 -2.6609,-4.8876 0.1693,-0.7614 0.2708,-1.5411 0.5079,-2.2842 0.045,-0.1403 0.3758,-0.4416 0.3186,-0.3059 -1.5296,3.6275 -4.435,6.5866 -6.4348,9.9266 -0.8744,1.2871 -1.7843,2.5507 -2.6232,3.8612 -4.5511,7.1101 -8.0535,14.804 -11.7076,22.3927 -4.6245,9.9715 -9.2445,19.9685 -14.6385,29.5533 -4.2887,7.9021 -2.6551,3.1313 15.8383,12.6595 0.4413,0.2274 0.5694,-0.8133 0.8443,-1.2267 1.7259,-2.5955 3.2748,-5.2784 4.4409,-8.182 0.4285,-1.2234 0.9031,-2.4315 1.2856,-3.6701 2.4156,-7.8227 3.1436,-16.0671 5.3946,-23.935 1.0932,-4.2975 2.3055,-8.5643 3.3737,-12.8681 2.3702,-9.549 3.96,-19.2879 6.7455,-28.7395 2.0506,-7.208 2.8649,-10.3984 5.2479,-17.4804 0.7823,-2.325 1.674,-4.6117 2.5022,-6.9207 0.3797,-1.0588 2.071,-2.5797 1.1214,-3.1825 -5.3606,-3.4031 -11.6602,-5.0431 -17.6026,-7.2804 -0.2082,-0.078 0.024,0.4444 0.035,0.6666 -2.5936,12.6784 -4.5606,25.4871 -5.842,38.3656 -0.5529,6.4233 -1.1586,12.9407 -0.6989,19.3978 0.1445,2.0304 -0.6652,4.6184 0.7746,6.0573 3.6658,3.6638 8.1563,7.5443 13.3166,8.026 3.0783,0.2874 4.6384,-4.0887 6.9576,-6.1332 4.1742,-10.768 7.0419,-21.9677 10.6443,-32.9309 1.2171,-3.9482 2.2717,-6.8767 2.9987,-10.8712 1.0162,-5.5841 0.7467,-11.317 0.9454,-16.9582 -0.1048,-7.4141 -0.3802,-14.8228 -0.9729,-22.2159 -0.6904,-9.3098 -1.5354,-18.5949 -3.7412,-27.6971 -0.4489,-2.1507 -1.4628,-6.8593 -1.8136,-9.1013 -0.7511,-4.8005 -0.6981,-9.7172 -1.9493,-14.4433 -2.1213,-9.1477 -4.5046,-18.2657 -7.7682,-27.0796 -3.9055,-10.2766 -8.2643,-20.4265 -11.0973,-31.0717 -1.3662,-6.2748 -2.1665,-12.6536 -3.6934,-18.8957 -0.7829,-2.9655 -1.5271,-5.9539 -2.5218,-8.858 -1.332,-3.889 -3.0867,-7.6209 -4.6871,-11.4008 -1.6416,-3.6875 -3.3261,-7.356 -4.9356,-11.0575 -3.7499,-8.6235 -6.9453,-17.4688 -10.5144,-26.1664 -4.5127,-11.1079 -9.9475,-21.7814 -16.4616,-31.8672 -1.4771,-2.30754 -2.9543,-4.61508 -4.4315,-6.92259 -1.1729,-1.72243 -2.3824,-3.42053 -3.5188,-5.16728 -3.1728,-4.8772 -5.8061,-10.08886 -8.6565,-15.15367 -4.0758,-7.71078 -8.3744,-15.29844 -12.4479,-23.01068 -4.4938,-8.72418 -8.9076,-17.48594 -13.1493,-26.33636 -2.1973,-4.61126 -4.4191,-9.20954 -6.5566,-13.84903 -0.8706,-1.88971 -2.2794,-5.10757 -3.3206,-7.06517 -0.6644,-1.24907 -1.3951,-2.46168 -2.0926,-3.69255 -1.9612,-2.45192 -2.0592,-2.76723 -4.4808,-4.95329 -3.327,-3.00353 -7.1835,-5.38668 -10.5622,-8.33036 -7.3775,-5.71894 -15.0563,-11.00843 -23.2179,-15.55705 -1.5983,-0.88381 -3.2359,-1.69547 -4.8338,-2.58011 -5.025,-2.78196 -9.6669,-6.20503 -14.678,-9.01247 -1.4016,-0.81735 -2.7749,-1.68537 -4.2049,-2.45205 -4.1665,-2.23388 -8.7391,-3.52343 -13.2069,-4.98714 -6.4159,-2.05851 -12.9122,-3.88532 -19.227,-6.24427 -3.043,-1.10617 -4.3138,-1.60192 -7.4039,-2.58921 -2.2132,-0.70713 -4.5101,-1.23582 -6.6906,-2.04444 -0.7505,-0.27834 -1.4793,-0.61214 -2.219,-0.91821 -7.9053,-3.67744 -15.3103,-8.25978 -22.8089,-12.68886 -1.4212,-0.73345 -2.8214,-1.50923 -4.2637,-2.2004 -1.7796,-0.85281 -3.6583,-1.48585 -5.4448,-2.32424 -4.2652,-2.00165 -8.3558,-4.36012 -12.5347,-6.52896 -2.5483,-1.35935 -7.6968,-4.11382 -10.2913,-5.46587 -3.0351,-1.58155 -6.1776,-3.01403 -9.1783,-4.65899 -0.8679,-0.4758 -1.7034,-1.00857 -2.5551,-1.51286 -6.306,-3.97169 -12.5717,-8.47003 -20.0161,-9.95162 -7.2302,-1.42899 -14.4427,-2.93468 -21.6186,-4.62084 -5.0428,-1.07789 -10.045,-2.12849 -15.2084,-2.43398 -1.9251,-0.11388 -5.2309,-0.0114 -7.1795,0.0378 -1.2251,0.0309 -2.4501,0.068 -3.6752,0.10205 -7.0931,0.23463 -14.1847,0.59605 -21.2838,0.49027 -7.6631,0.007 -15.3267,0.0116 -22.9889,0.13666 -5.9713,0.13761 -11.9348,0.42881 -17.9016,0.68868 -11.9768,0.1393 -23.9639,0.35883 -35.9076,1.3267 -12.6157,1.16758 -25.2669,2.46404 -37.6338,5.3158 -3.5674,0.89051 -4.3089,0.97843 -7.6696,2.17289 -5.3817,1.91272 -10.4055,4.6374 -15.3582,7.45209 -12.9417,7.17402 -25.5829,14.88586 -38.5587,22.00334 -10.9262,6.16817 -5.3609,3.04998 -16.6981,9.3509 -7.9014,4.44077 -16.0003,8.78507 -23.0479,14.53814 -11.0431,8.83454 1.4508,24.45192 12.4939,15.61737 z" /><path
       style="fill:#f80c08;fill-opacity:1;stroke-width:20;paint-order:markers stroke fill"
       id="path9450"
       d="m 1603.5338,849.47809 c -0.9287,0.98047 -1.8832,1.93712 -2.7861,2.94143 -2.0397,2.26872 -3.9517,4.64955 -5.9707,6.93668 -2.0959,2.37424 -3.6483,3.93478 -5.6863,6.3858 -1.1303,1.35941 -2.2013,2.76715 -3.3019,4.15073 -5.6887,7.99074 -12.0587,15.43963 -18.3815,22.92607 -1.0081,1.15705 -2.028,2.30389 -3.0242,3.4712 -3.7229,4.36229 -2.9527,3.6785 -6.9165,8.04569 -4.12,4.53924 -8.3888,8.95072 -12.5675,13.43607 -9.2221,9.55934 -18.021,19.47624 -26.3593,29.8138 -7.4606,9.19266 -12.4899,19.93025 -17.718,30.45788 -3.1074,6.79921 -6.6433,13.48354 -9.1306,20.55181 -0.5705,1.62105 -1.0318,3.27855 -1.5476,4.91785 -2.2343,8.4353 -3.3877,17.0964 -5.2982,25.6028 -2.0168,8.3915 -3.2144,16.9483 -5.3549,25.3099 -1.3606,6.0642 -4.2762,11.5704 -6.4681,17.3379 -1.085,2.8548 -2.0692,5.7469 -3.1038,8.6203 -5.5923,15.7812 -11.1468,31.633 -15.05,47.9301 -1.726,9.1045 -2.8388,18.3254 -3.5498,27.5627 -0.1868,2.3548 -0.6096,11.6513 2.0171,12.6363 4.8125,1.8046 10.2756,2.6475 15.3259,1.6933 2.076,-0.3922 2.3598,-3.505 3.5396,-5.2575 2.8248,-6.5643 4.8938,-13.4044 7.8007,-19.9356 0.2106,-0.3629 0.8738,-1.4314 0.6319,-1.0886 -3.8188,5.4116 2.3889,4.133 -15.816,0.7225 -0.861,-0.1613 -0.4199,-2.3122 -1.2955,-2.2863 -0.776,0.023 -0.1033,1.551 -0.091,2.3272 0.031,2.0059 0.1466,4.0096 0.2199,6.0144 0.8669,13.5029 3.7738,26.7328 6.7536,39.8925 0.3746,1.7129 0.9788,4.1138 1.1378,5.9512 0.1597,1.8453 -0.3691,4.3893 -0.5971,6.2333 -0.3123,2.595 -0.1852,1.2664 -0.3725,3.9865 -0.8512,14.1165 19.1126,15.3203 19.9638,1.2038 v 0 c 0.061,-1.5195 0,-0.5996 0.2597,-2.7537 0.3209,-2.6297 0.7023,-5.2896 0.6896,-7.945 -0.018,-3.77 -0.6569,-7.4464 -1.5753,-11.0938 -2.7077,-11.9536 -5.4001,-23.9596 -6.2734,-36.2177 -0.069,-1.8252 -0.1436,-3.6503 -0.2071,-5.4758 -0.055,-1.5886 0.1879,-10.0223 -2.0144,-10.9951 -12.735,-5.6256 -15.4089,-4.8525 -19.6991,3.4226 -2.7965,6.3346 -4.9745,12.8882 -7.5168,19.3229 4.9439,-4.1504 3.6468,-3.798 15.8283,1.2622 2.2569,0.9375 0.9774,6.1139 1.0971,2.1989 0.024,-0.7664 0.09,-1.5308 0.1355,-2.2962 0.6195,-8.1946 1.6203,-16.37 3.0657,-24.46 3.6724,-15.5894 9.1319,-30.7043 14.4174,-45.8018 0.9238,-2.5858 1.7985,-5.1897 2.7715,-7.7574 2.5219,-6.6546 5.8311,-13.0315 7.3615,-20.038 2.1534,-8.5579 3.4873,-17.2784 5.4886,-25.8712 1.7728,-7.9929 2.9687,-16.0979 4.8883,-24.0585 0.3503,-1.1666 0.6526,-2.3487 1.0508,-3.4998 2.2612,-6.53669 5.5835,-12.69018 8.4305,-18.97427 4.5814,-9.22803 8.8861,-18.7084 15.377,-26.80261 8.0301,-9.97307 16.5322,-19.51374 25.4208,-28.73105 4.3083,-4.62484 8.7083,-9.17446 12.9509,-13.85956 4.4423,-4.90562 3.102,-3.57476 6.9821,-8.12068 1.0618,-1.24393 2.1475,-2.46721 3.2212,-3.7008 6.4585,-7.6472 12.9657,-15.25895 18.7825,-23.41653 4.9225,-6.25475 10.4037,-12.04158 15.5787,-18.08572 10.4249,-9.5562 -3.0896,-24.29928 -13.5145,-14.74309 z" /><path
       style="fill:#f80c08;fill-opacity:1;stroke-width:20;paint-order:markers stroke fill"
       id="path9452"
       d="m 1465.0521,1209.6696 c -0.4486,8.1864 1.8915,15.9923 4.3409,23.7005 0.7548,2.3756 4.7139,14.074 5.5335,16.503 2.5648,7.9893 5.2357,15.992 6.8586,24.2417 0.683,3.4717 0.9367,5.803 1.3951,9.2814 0.5824,6.0682 0.6258,12.1768 1.5561,18.2118 0.6046,3.9227 0.7959,4.2901 1.7718,8.1344 1.1866,3.8954 2.2375,8.0741 4.7074,11.4121 0.6849,0.9254 1.1269,2.5424 2.2769,2.5971 5.1874,0.247 10.3208,-1.1677 15.4812,-1.7515 0.4368,-3.6179 1.5273,-7.2159 1.3103,-10.8536 -0.1,-1.6761 -4.5413,-11.3344 -5.1628,-12.71 -2.297,-5.0848 -4.6093,-10.1647 -6.938,-15.2351 -3.9745,-8.2095 -3.4439,-7.8843 -17.9904,8.404 -1.0413,1.166 1.7551,2.5878 2.6069,3.8986 3.3483,5.1525 2.7325,4.2654 5.8106,9.7317 3.0284,5.9647 6.2401,11.8404 9.9068,17.4411 3.6149,5.5217 7.556,10.847 11.2712,16.3032 6.2125,9.6636 12.6601,19.1645 19.5314,28.3724 5.3545,7.1518 11.6441,13.4485 16.1648,21.1894 4.9273,8.0098 9.8303,16.0415 15.0166,23.8876 2.9537,4.0064 5.1152,8.5229 7.9125,12.628 2.1923,3.2174 3.5552,4.8118 5.9455,7.8009 4.6206,5.6735 10.6645,9.8601 16.313,14.4108 5.0243,4.1399 2.5138,2.0977 7.5305,6.1276 1.0902,0.92 2.191,1.8275 3.2707,2.7599 9.3608,8.0844 -2.9238,-2.4311 6.2094,5.5885 4.282,3.7599 8.7267,7.3396 13.0527,11.0494 8.7565,7.1375 17.0994,14.7921 26.4491,21.1607 6.3155,4.0485 13.3045,6.7221 20.4818,8.7747 4.2286,1.2128 8.5711,2.0207 12.743,3.436 2.5018,0.8487 4.9442,1.8632 7.4226,2.7777 1.4296,0.5297 2.8497,1.0858 4.2888,1.589 3.8375,1.342 5.4626,1.7221 9.2646,3.1025 4.3428,1.5767 8.6104,3.3707 12.9436,4.9775 12.898,5.5567 25.9962,10.6088 39.2607,15.2166 6.9981,2.1414 13.9025,4.5114 20.7764,7.0142 6.6533,2.4363 13.7481,3.2557 20.7259,4.2534 8.0315,0.9115 16.1174,1.3109 24.1923,1.617 1.7984,0.074 3.607,0.017 5.3952,0.223 2.0148,0.2315 4.0016,0.6698 5.9868,1.0848 9.3272,1.9496 18.2386,5.2328 27.3005,8.114 7.7259,2.2974 15.6925,4.007 23.7758,4.2372 3.992,0.1137 4.8158,-0.08 8.6455,-0.4527 1.2047,-0.2116 2.4188,-0.3753 3.6141,-0.6349 4.1615,-0.904 3.702,-1.0429 7.732,-2.1094 4.3202,-1.1432 8.7371,-1.888 13.122,-2.7289 8.3256,-2.0905 16.734,-3.8585 24.9831,-6.2417 5.0218,-1.5223 10.1738,-2.6665 15.0993,-4.5 3.3724,-1.2554 4.4413,-1.8368 7.6228,-3.3365 5.4157,-2.7867 11.0624,-5.0619 16.5915,-7.606 5.4274,-2.8989 11.1732,-5.1393 16.7135,-7.7975 3.5021,-1.6803 5.8367,-3.0145 9.212,-4.863 8.8593,-4.6417 16.7159,-10.8622 25.0277,-16.3586 4.3303,-2.5685 8.7724,-4.9413 12.8205,-7.9577 2.9026,-2.1627 4.3053,-3.4976 6.9704,-5.8555 6.0111,-5.7331 11.87,-11.6237 17.8265,-17.4148 6.8128,-6.1978 12.4394,-13.4955 18.3791,-20.4898 3.3484,-4.2441 7.2106,-8.0304 10.8351,-12.0267 2.3358,-2.5753 4.271,-4.8998 6.5096,-7.5403 5.4555,-6.4594 10.7832,-13.0232 16.2629,-19.4626 4.6107,-5.609 9.736,-10.7699 14.397,-16.3298 0.4957,-0.7484 2.221,-1.7284 1.487,-2.2453 -5.6033,-3.9455 -11.4586,-8.3873 -18.2151,-9.5338 -2.4517,-0.4161 -3.3482,3.681 -4.9199,5.6081 -2.7101,3.323 -5.2954,6.7459 -7.9207,10.1363 -9.5603,12.3462 -10.4883,13.6627 -20.1005,26.4048 -12.9905,18.3975 -25.2655,37.2882 -38.4591,55.5436 -3.3773,4.673 -7.5031,10.1314 -11.0221,14.8172 -3.979,5.4518 -14.3051,16.3115 -4.0454,23.37 8.1947,5.6378 13.0656,-0.1437 17.6512,-4.1988 11.2237,-10.0894 22.1848,-20.458 33.366,-30.5944 8.0239,-7.1307 15.8809,-14.5608 22.5531,-23.0039 4.0263,-5.0951 5.7384,-7.874 9.3707,-13.2826 7.9095,-12.3279 14.7321,-25.298 22.1828,-37.8989 9.0317,-13.4248 18.767,-26.3603 28.3625,-39.3839 6.6538,-9.2507 12.0793,-19.3132 17.2096,-29.4669 3.6751,-7.8642 4.8557,-16.4986 7.3574,-24.7371 0.6614,-2.2699 1.3987,-4.5092 2.2824,-6.7011 5.1746,-13.1614 -13.4384,-20.4795 -18.6131,-7.3181 v 0 c -1.0495,2.7111 -2.025,5.4435 -2.8172,8.2436 -0.915,3.0503 -1.2133,3.9047 -1.9751,7.0114 -1.1962,4.8786 -2.0476,9.8661 -4.0924,14.496 -4.6097,9.1619 -9.4903,18.2459 -15.4533,26.6091 -9.9945,13.5657 -20.1589,27.0275 -29.4785,41.071 -7.2549,12.2806 -13.9248,24.9037 -21.5822,36.9451 -2.9641,4.4389 -4.7847,7.3566 -8.0452,11.5218 -6.0833,7.7709 -13.3415,14.5387 -20.6945,21.0771 -11.2174,10.1696 -22.2152,20.5707 -33.4746,30.6937 -5.2625,5.2797 2.2648,-3.2025 8.5037,3.3957 2.6981,2.8536 1.5522,7.6996 2.3003,11.5549 0.012,0.06 -0.1211,-0.1075 -0.089,-0.1593 0.5769,-0.9342 1.2224,-1.8247 1.8643,-2.7155 1.0963,-1.5212 2.233,-3.0129 3.3496,-4.5194 3.695,-4.9211 7.7644,-10.3036 11.3333,-15.2433 13.0793,-18.1031 25.2754,-36.817 38.1218,-55.0829 10.6455,-14.1133 9.385,-12.5278 19.9083,-26.1542 2.3894,-3.094 4.7352,-6.2231 7.1968,-9.26 1.3864,-1.7104 5.266,-2.9777 4.343,-4.9767 -8.5912,-18.6057 -18.604,-10.3915 -13.1254,-14.8086 -4.5534,5.545 -9.7455,10.5591 -14.2497,16.1547 -5.4877,6.4506 -10.8281,13.0217 -16.2896,19.4939 -1.677,1.9803 -4.0642,4.8334 -5.8049,6.752 -3.8592,4.2536 -7.9573,8.2964 -11.5316,12.8054 -5.5197,6.512 -10.7313,13.3232 -17.0699,19.0886 -5.7434,5.5841 -11.4057,11.2503 -17.1735,16.8077 -1.7116,1.5311 -3.2796,2.9958 -5.1085,4.3883 -3.8991,2.9686 -8.3174,5.1038 -12.4514,7.7068 -7.8306,5.2106 -15.2608,11.0567 -23.59,15.4893 -2.2816,1.2543 -5.3982,3.0097 -7.7539,4.1386 -5.6074,2.6871 -11.4204,4.9563 -16.9128,7.8879 -5.6039,2.5794 -11.3286,4.8847 -16.8172,7.7116 -1.953,0.939 -3.3572,1.6655 -5.3894,2.4353 -4.6631,1.7663 -9.5762,2.7843 -14.3301,4.2595 -7.642,2.2398 -15.4614,3.8005 -23.1664,5.8043 -5.0173,0.9626 -10.0364,1.8729 -14.9798,3.1782 -2.6301,0.6945 -3.223,1.0348 -5.7205,1.6312 -0.7001,0.1672 -1.4124,0.2788 -2.1186,0.4182 -8.209,1.0062 -16.3824,-0.6001 -24.2463,-2.9579 -14.3492,-4.5566 -28.7228,-10.1705 -43.9864,-10.3468 -7.3817,-0.2761 -14.7718,-0.6436 -22.1181,-1.4303 -5.6106,-0.7998 -11.3422,-1.3665 -16.7124,-3.2481 -6.9679,-2.5351 -13.9638,-4.9501 -21.0585,-7.1145 -13.1384,-4.5567 -26.0909,-9.6013 -38.8743,-15.078 -4.5088,-1.6668 -8.9472,-3.5244 -13.4655,-5.1626 -6.4949,-2.3547 -2.7873,-0.8344 -8.7388,-2.9159 -1.4477,-0.5063 -2.8762,-1.0656 -4.3142,-1.5984 -0.3812,-0.1406 -8.4807,-3.1302 -8.6302,-3.1801 -4.2704,-1.4276 -8.6897,-2.3157 -13.0226,-3.5172 -5.1386,-1.4264 -10.1422,-3.2832 -14.7056,-6.0893 -8.7603,-5.883 -16.4121,-13.2115 -24.6443,-19.7831 -4.1605,-3.5656 -8.4467,-6.9985 -12.5623,-10.6149 -8.6187,-7.5734 2.1389,1.593 -6.8287,-6.1326 -1.2002,-1.0339 -2.4239,-2.0402 -3.6359,-3.0603 -3.9576,-3.1771 -7.8706,-6.4035 -11.858,-9.5437 -2.3492,-1.85 -4.5255,-3.4482 -6.6775,-5.5146 -0.789,-0.7575 -1.4886,-1.6028 -2.233,-2.4042 -1.3737,-1.7042 -3.3408,-4.0744 -4.5915,-5.8955 -2.9067,-4.2323 -5.1195,-8.9206 -8.1859,-13.0529 -5.02,-7.5756 -9.7404,-15.348 -14.5106,-23.0817 -2.1323,-3.5351 -2.3379,-4.0703 -4.8343,-7.4134 -3.9718,-5.3187 -8.5223,-10.1883 -12.4907,-15.5117 -6.7052,-8.9705 -12.9612,-18.2505 -19.026,-27.664 -3.558,-5.222 -7.3301,-10.3188 -10.8088,-15.5924 -2.5949,-3.9338 -4.2372,-6.8401 -6.4814,-10.9922 -1.0292,-1.9041 -2.0082,-3.8349 -3.0122,-5.7524 -3.5131,-6.1794 -2.918,-5.3601 -6.6235,-11.0465 -0.6612,-1.0146 -0.8773,-3.3448 -2.0401,-3.0063 -20.0092,5.824 -20.3733,3.9978 -17.3428,10.2191 2.2996,5.0045 4.5714,10.0222 6.8482,15.037 0.836,1.8411 1.6536,3.6905 2.4812,5.5354 0.4467,0.9956 0.4107,3.555 1.3418,2.9859 1.6571,-1.0128 1.6226,-3.5291 2.434,-5.2937 4.7971,-0.111 9.5968,-0.5247 14.3913,-0.333 0.3658,0.014 0.422,0.6021 0.5811,0.9318 0.045,0.094 -0.1781,-0.1209 -0.2328,-0.2099 -1.0263,-1.6677 -1.383,-3.6719 -1.9903,-5.4978 -0.7091,-2.6278 -0.8462,-2.8738 -1.2898,-5.642 -0.9714,-6.062 -0.8476,-12.222 -1.5689,-18.3102 -0.5942,-4.4145 -0.8203,-6.5912 -1.7125,-11.0509 -1.784,-8.9179 -4.6251,-17.5854 -7.4157,-26.2244 -1.0274,-3.0443 -4.3609,-12.894 -5.3719,-16.0023 -1.8937,-5.8215 -3.8881,-11.5953 -3.4527,-17.8065 0,-14.1421 -20,-14.1421 -20,0 z" /><g
       id="g638"
       transform="translate(-277.8125,9.921875)"><g
         id="g584"
         transform="translate(-292.69531,-119.0625)"><path
           id="path312"
           style="fill:#000000;stroke-width:20;paint-order:markers stroke fill"
           d="m 2406.8133,862.74889 c -10.394,-0.0318 -20.7892,0.0453 -31.1816,0.10904 -12.0317,0.0983 -24.0639,0.14585 -36.096,0.17363 -13.1903,0.43159 -26.0573,3.52069 -38.8214,6.62492 -12.7909,3.99566 -25.5389,8.12646 -38.3651,12.01219 -11.8012,3.04504 -22.4938,8.88222 -33.6956,13.45861 -11.6433,4.83365 -22.3593,11.44976 -33.0104,18.12189 -9.3989,5.72839 -16.1732,14.47869 -24.2941,21.63795 -0.5646,0.52657 -1.1565,1.01458 -1.7348,1.52187 -16.236,2.52403 -29.4994,12.54666 -42.3152,22.718 -20.5818,19.58773 -39.5219,40.83405 -55.7651,64.17491 -11.0063,15.8157 -14.8001,22.9648 -24.4001,39.3108 -13.0804,24.3705 -25.1037,49.5745 -31.9706,76.4796 -4.8818,19.127 -5.2842,25.9807 -8.1494,45.962 -4.9395,41.5581 -7.0888,83.7119 -1.0258,125.2875 1.2953,8.8818 3.2494,17.6551 4.8741,26.4826 6.8319,31.5019 16.4365,62.5162 30.4023,91.6301 5.1719,10.7812 12.9761,24.3846 18.8506,34.8955 9.7263,15.3674 16.8693,32.171 25.7054,48.0131 5.893,10.5655 7.649,12.563 14.5882,22.5547 16.9146,23.0045 35.8431,44.4234 56.501,64.1092 20.1045,19.3691 43.1171,35.6128 68.217,47.7759 25.95,9.9141 52.6525,17.6513 79.0561,26.2362 20.922,6.162 41.6122,13.4201 63.0267,17.7746 13.2594,2.6962 17.3339,2.8669 30.887,4.4328 33.9668,2.9491 68.0647,3.3453 101.9798,-0.1773 21.4687,-2.9672 42.5407,-7.6973 62.1931,-16.9462 14.4369,-9.3334 29.1183,-18.2006 44.4423,-26.0046 8.932,-5.5674 18.953,-9.1101 28.1187,-14.21 7.445,-4.1425 11.3982,-7.1111 18.3663,-11.9171 23.0287,-17.6251 42.7966,-38.7658 61.1058,-61.1379 23.0223,-27.9507 41.3533,-59.1718 57.9867,-91.2182 11.1812,-21.9726 20.4581,-44.9937 26.7859,-68.8516 4.1603,-15.6856 4.522,-20.3265 7.1644,-36.3926 2.9638,-23.4069 4.9884,-46.9506 3.1678,-70.5264 -1.058,-13.7003 -1.8637,-16.2497 -4.3005,-30.5093 -5.5888,-32.1329 -14.2996,-63.5424 -25.7323,-94.0547 -7.9362,-21.5714 -17.7826,-42.382 -27.7053,-63.0938 -10.7459,-22.4682 -20.3959,-45.4192 -30.2374,-68.2905 -8.1116,-19.4294 -18.4193,-37.7605 -31.119,-54.53154 -10.0443,-13.18308 -22.9173,-23.29042 -36.5797,-32.40164 -11.2672,-7.74393 -23.0316,-14.65502 -35.4578,-20.34295 -10.8573,-4.47287 -22.4007,-6.91127 -33.4667,-10.74508 -10.3275,-4.36131 -21.5816,-6.69155 -31.5247,-11.90212 -20.1403,-10.76895 -39.7644,-22.45876 -60.1198,-32.81918 -18.6051,-9.71599 -34.4644,-13.50597 -55.1765,-14.87971 -10.3879,-0.37238 -20.7803,-0.51338 -31.1743,-0.54519 z m -1.0826,39.99859 c 9.9513,0.0243 19.9023,0.14572 29.8488,0.47388 14.3754,0.74539 26.6359,3.62562 39.4787,10.62002 20.5433,10.3966 40.2398,22.35059 60.6175,33.06723 11.7458,5.5658 24.1682,9.36178 36.3456,13.88753 9.8173,3.25285 19.8498,5.81434 29.6183,9.22011 10.5041,4.79886 20.4105,10.6905 29.9217,17.25992 10.018,6.66105 19.6562,13.75653 27.019,23.46113 10.9226,13.957 19.1314,29.7365 26.1085,45.9894 10.0562,23.3691 19.9297,46.8148 30.9108,69.7715 9.4265,19.6499 18.7887,39.3929 26.3266,59.8604 10.5933,28.1593 18.5946,57.1691 23.7696,86.8345 2.2562,12.7752 4.3952,25.5455 4.5821,38.5656 0.2364,16.4691 -1.81,32.8843 -3.5217,49.2244 -2.127,13.3114 -2.5831,18.3028 -5.98,31.2596 -5.6328,21.4852 -13.9197,42.2247 -24.0022,61.9885 -15.3297,29.6338 -32.2054,58.5172 -53.4763,84.3493 -15.8584,19.5453 -33.0473,37.9414 -52.8821,53.5322 -2.5633,1.786 -10.0259,7.1136 -13.1547,8.8609 -9.3719,5.2338 -19.6301,8.8607 -28.7802,14.5408 -15.0252,7.7281 -29.7864,16.0155 -43.6981,25.6335 -15.1702,7.8143 -32.2821,10.2289 -48.9133,13.1434 -31.0052,3.3475 -62.1957,2.7438 -93.2594,0.2103 -11.1345,-1.2389 -15.4329,-1.4639 -26.2904,-3.6364 -20.3221,-4.0665 -39.9144,-11.0813 -59.77,-16.8667 -24.7907,-8.058 -49.7982,-15.4664 -74.3117,-24.3505 -21.4868,-9.806 -40.6105,-24.5386 -57.7753,-40.6181 -18.7764,-17.7822 -35.8491,-37.2667 -51.2728,-58.0337 -5.0225,-7.1224 -7.5301,-10.2666 -11.7404,-17.8149 -9.0837,-16.2857 -16.4554,-33.5444 -26.4247,-49.3583 -4.5907,-8.2002 -13.0551,-23.0318 -17.1654,-31.5195 -12.729,-26.2845 -21.4287,-54.3331 -27.6738,-82.8058 -1.476,-7.8144 -3.2507,-15.578 -4.4276,-23.443 -5.7292,-38.2863 -3.631,-77.1139 0.8625,-115.3997 2.5152,-18.0744 2.716,-23.1504 6.9334,-40.3298 5.8388,-23.7839 16.7093,-45.9391 28.0913,-67.4895 8.706,-14.8936 12.1498,-21.405 22.0819,-35.7932 14.2568,-20.6532 30.9475,-39.3568 48.843,-56.90914 8.7921,-7.47332 5.8165,-5.29475 9.372,-7.37939 0.1148,0.0331 0.2332,0.0564 0.3488,0.0873 0.3175,-0.30852 0.6401,-0.61176 0.97,-0.90744 0.5953,-0.52776 1.1841,-1.06228 1.7761,-1.5937 0.562,-0.50003 1.1176,-1.00604 1.6991,-1.48363 0.8235,-0.67025 1.6465,-1.34087 2.4728,-2.00763 1.0656,-0.83675 2.1209,-1.6863 3.1817,-2.52904 1.2875,-1.02481 2.5716,-2.05418 3.8685,-3.067 1.564,-1.19758 3.185,-2.31827 4.8121,-3.4277 2.1045,-1.42451 4.2701,-2.75505 6.4487,-4.06228 2.2726,-1.31938 4.51,-2.69977 6.7965,-3.9951 0.6824,-0.38658 1.3726,-0.75966 2.0588,-1.13947 3.9989,-2.09122 8.0298,-4.13214 12.176,-5.9185 0.8202,-0.35338 1.6489,-0.68769 2.4732,-1.03146 0.2002,-0.0815 0.4023,-0.15847 0.6031,-0.23875 1.6851,-1.51016 3.4228,-2.96636 5.2735,-4.30723 8.764,-5.50805 17.524,-11.06113 27.1038,-15.06833 9.9493,-4.18332 19.4621,-9.33764 29.9558,-12.11761 12.1191,-3.6805 24.1977,-7.49458 36.2355,-11.43031 9.6939,-2.37419 19.4415,-4.83608 29.4323,-5.48442 12.083,-0.0279 24.1663,-0.0755 36.249,-0.17415 9.95,-0.0611 19.902,-0.13432 29.8535,-0.11007 z" /><path
           style="fill:#000000;stroke-width:20;paint-order:markers stroke fill"
           id="path514"
           d="m 2153.3642,952.97055 c 1.4008,-0.75795 2.6886,-1.691 3.9869,-2.60731 1.0444,-0.72096 2.106,-1.41816 3.1783,-2.09714 0.854,-0.54382 1.7145,-1.07624 2.567,-1.62242 1.0775,-0.65186 2.0624,-1.44196 3.1307,-2.10744 1.798,-1.17247 3.5523,-2.41064 5.3269,-3.61812 1.9338,-1.35832 3.9939,-2.51119 6.0164,-3.72724 2.4638,-1.54027 4.8804,-3.15351 7.3627,-4.6641 3.5301,-2.06849 7.0439,-4.16748 10.6544,-6.09407 3.142,-1.78959 6.5371,-3.02072 9.9491,-4.17533 4.6613,-1.32718 9.3068,-2.701 13.9263,-4.16751 2.5276,-0.72551 5.0006,-1.60782 7.4498,-2.56045 6.5863,-2.57292 2.9476,-11.88744 -3.6387,-9.3145 v 0 c -2.2446,0.88138 -4.5181,1.67754 -6.8372,2.34379 -4.6806,1.48621 -9.3916,2.86371 -14.1091,4.22751 -3.9482,1.33916 -7.8087,2.77185 -11.4545,4.82745 -3.7738,2.02052 -7.4556,4.20458 -11.1447,6.37427 -2.4651,1.50468 -4.8749,3.09506 -7.317,4.6364 -2.1794,1.31495 -4.3998,2.56217 -6.4853,4.02767 -1.6897,1.15094 -3.3621,2.32801 -5.0713,3.44979 -1.0666,0.68744 -2.0853,1.44317 -3.1557,2.12347 -0.839,0.53827 -1.6868,1.06135 -2.5275,1.59718 -1.211,0.76965 -2.4127,1.55541 -3.5914,2.37387 -0.562,0.39757 -1.1111,0.82447 -1.6895,1.19862 -0.3433,0.22214 -0.7051,0.41508 -1.0472,0.63923 -0.014,0.009 0.032,-0.005 0.048,-0.008 -6.3245,3.1623 -1.8524,12.10657 4.4722,8.9443 z" /></g><path
         style="fill:#000000;stroke-width:20;paint-order:markers stroke fill"
         id="path590"
         d="m 2276.6321,425.12035 c -7.0862,2.35532 -13.7233,6.07343 -19.8393,10.32716 -2.1815,1.51723 -4.2656,3.16979 -6.3984,4.75467 -8.0194,6.07902 -15.7291,12.64158 -22.2718,20.32109 -1.5853,1.86068 -3.1833,3.72565 -4.5394,5.75939 -1.6313,2.44653 -2.9329,5.09752 -4.3994,7.64628 -1.0747,2.75992 -2.3118,5.46195 -3.224,8.27974 -2.5655,7.9244 -4.3899,18.44815 -4.7646,26.74281 -0.4411,9.76352 0.2149,14.18264 0.9888,23.88312 1.1797,9.8113 1.2593,11.6627 2.9313,21.14497 0.5251,2.97778 0.979,5.97656 1.7433,8.90209 0.9114,3.4885 2.0085,6.93332 3.2758,10.30888 3.1044,8.26854 5.0458,11.13086 9.3008,18.86 1.8857,2.89954 3.6715,5.86658 5.6571,8.69868 2.8049,4.00063 8.3254,10.9456 11.5752,14.83969 2.6247,3.14502 6.949,8.08915 9.901,11.03828 1.687,1.6854 3.488,3.25271 5.232,4.87907 4.6918,3.95045 9.4752,7.84088 14.7173,11.05202 4.3973,2.69359 9.0108,4.79938 13.7395,6.81858 12.4626,5.23343 25.5797,8.75937 38.78,11.5529 10.7944,2.22946 21.7905,2.99458 32.7886,3.0399 12.6884,-0.27996 25.2093,-2.62464 37.4946,-5.66359 6.9162,-1.75575 13.5072,-4.42299 19.383,-8.51448 3.6168,-2.51849 6.1177,-4.85071 9.4278,-7.73223 7.455,-6.593 14.9546,-13.24444 21.4368,-20.82808 1.4141,-1.65444 2.7213,-3.39741 4.0819,-5.09612 7.2941,-10.04914 13.6957,-20.70205 20.1509,-31.29711 3.6466,-5.56845 6.7241,-11.48699 9.3301,-17.60805 1.4404,-3.3833 3.1893,-7.88513 3.7744,-11.51154 0.4184,-2.5935 0.3939,-5.23928 0.5909,-7.85892 -0.159,-10.40331 -2.9094,-20.4556 -5.0707,-30.55633 -1.9008,-9.63388 -5.0073,-18.96663 -8.7349,-28.03242 -4.5785,-10.61601 -10.3194,-20.68565 -16.4341,-30.48042 -5.6759,-9.27518 -13.8608,-16.4174 -22.2591,-23.13551 -7.63,-5.8673 -15.9026,-10.88639 -24.5575,-15.08443 -1.0184,-0.42973 -2.001,-0.95673 -3.0552,-1.28921 -5.0519,-1.59332 -10.1907,-2.198 -15.4152,-2.8671 -6.1895,-0.79274 -1.9229,-0.27202 -8.1264,-1.0078 -8.1878,-0.68641 -16.3625,-1.56424 -24.5551,-2.20456 -8.8415,-1.06384 -17.5397,0.0742 -26.2786,1.38425 -6.2558,0.93078 -12.4118,2.36545 -18.656,3.34973 -3.9401,0.6686 -7.9286,0.89651 -11.8815,1.46275 -3.443,0.48569 -6.852,1.13247 -10.2557,1.83525 -2.4881,0.34473 -4.9851,0.57801 -7.47,0.99799 -3.6531,0.83931 -1.7866,0.32215 -5.5892,1.58707 -19.9172,7.30102 -9.592,35.46819 10.3252,28.16717 v 0 c -0.4681,-0.005 -0.3497,0.0236 0.3161,-0.18269 0.6087,-0.10565 1.2032,-0.298 1.8177,-0.36288 2.2292,-0.2354 4.4869,-0.2795 6.6765,-0.82846 2.8168,-0.58341 5.6317,-1.13356 8.4844,-1.52392 4.0723,-0.60129 8.1994,-0.76729 12.2544,-1.51921 6.1886,-0.97819 12.2944,-2.35712 18.4861,-3.32343 6.4681,-1.00031 12.9082,-2.00512 19.457,-1.13295 7.7884,0.59505 15.557,1.4569 23.3417,2.08587 3.943,0.46585 7.8882,0.93885 11.8233,1.46719 1.0891,0.14624 2.1673,0.38111 3.2619,0.47752 0.1735,0.0154 0.3319,-0.18552 0.5014,-0.14599 0.5528,0.12887 1.0543,0.42108 1.5814,0.63164 6.6581,3.11938 12.9273,7.09797 18.8147,11.48603 5.7603,4.57068 11.6131,9.26886 15.5324,15.59896 5.257,8.36155 10.1657,16.98038 14.1409,26.03257 3.079,7.37074 5.5791,14.99391 7.1195,22.84352 1.663,7.74866 3.7699,15.43825 4.4183,23.36376 0.1036,0.47022 0.3395,0.93001 0.3108,1.41063 -0.1216,2.03205 -1.3349,4.83907 -2.0378,6.53346 -2.0773,5.00777 -4.5814,9.82448 -7.6024,14.33269 -5.8201,9.55477 -11.5963,19.15086 -18.0588,28.2924 -0.8892,1.14538 -1.7302,2.32989 -2.6677,3.43617 -5.7442,6.77847 -12.4624,12.66333 -19.0945,18.53763 -2.4763,2.18919 -4.9816,4.709 -7.8192,6.46274 -2.5891,1.60015 -5.5836,2.3853 -8.4695,3.23599 -9.8899,2.4833 -19.9738,4.4223 -30.1894,4.77448 -8.9506,0.01 -17.9027,-0.6246 -26.6919,-2.40231 -11.3402,-2.34701 -22.6065,-5.39149 -33.313,-9.849 -3.0154,-1.23397 -6.0311,-2.53781 -8.8416,-4.20376 -3.897,-2.31 -7.396,-5.21139 -10.8979,-8.06336 -1.2245,-1.11088 -2.4981,-2.1699 -3.6735,-3.33264 -4.8444,-4.79232 -9.2,-10.15346 -13.4163,-15.49164 -1.6489,-2.08767 -3.3208,-4.16044 -4.8661,-6.32601 -1.5943,-2.23435 -3.0311,-4.57697 -4.5467,-6.86546 -3.2571,-5.73743 -4.568,-7.5861 -7.007,-13.63361 -0.8865,-2.19813 -1.7227,-4.42655 -2.3342,-6.71647 -0.6881,-2.57699 -1.0863,-5.22351 -1.5553,-7.84923 -1.5127,-8.46881 -1.5812,-10.0878 -2.6568,-18.88377 -0.5535,-6.36352 -1.2534,-11.99086 -1.0398,-18.36671 0.2674,-7.98415 1.9147,-16.12876 4.4729,-23.67957 0.5773,-1.19423 1.0215,-2.46253 1.7319,-3.58267 0.9173,-1.44627 2.0345,-2.75781 3.1265,-4.07723 5.2095,-6.29502 11.5652,-11.50821 18.0309,-16.45097 3.8809,-2.95315 7.8096,-5.98961 12.1554,-8.25675 2.5464,-1.32837 5.0722,-2.10645 7.7009,-3.26467 1.2883,-0.56763 2.538,-1.21917 3.807,-1.82874 18.1902,-10.91412 2.7553,-36.6389 -15.4348,-25.72478 z" /><path
         style="fill:#000000;stroke-width:20;paint-order:markers stroke fill"
         id="path594"
         d="m 2534.3516,661.38181 c -8.3938,2.41633 -16.4975,6.06224 -23.5595,11.26188 -1.9383,1.42714 -3.7262,3.04795 -5.5893,4.57192 -9.2289,8.86045 -16.6137,19.55697 -22.1103,31.10304 -1.3896,2.91894 -2.5503,5.94143 -3.8255,8.91215 -3.9112,11.1202 -7.2767,22.651 -8.614,34.4112 -0.828,7.28107 -0.5254,8.93824 -0.3099,16.15991 1.301,11.07784 4.7586,21.94949 9.8467,31.88319 3.1172,6.08576 4.6558,7.93895 8.458,13.42964 8.1735,9.77643 17.8047,18.62666 28.8448,25.10163 2.5313,1.48457 5.1803,2.75865 7.7704,4.13797 16.101,7.71443 32.5965,13.43565 49.9275,17.61435 6.1829,1.24156 12.4301,2.61789 18.774,2.66189 7.4263,0.0515 14.743,-1.22507 22.0544,-2.33833 9.8582,-1.74795 19.629,-4.18423 28.9028,-7.98664 6.5401,-2.70867 12.0905,-7.02016 17.2083,-11.81888 6.9004,-6.8362 11.7952,-15.20674 16.7998,-23.44089 5.7502,-9.32651 8.3753,-19.78438 10.5195,-30.38798 1.7373,-9.06706 3.1682,-18.15565 3.8582,-27.36318 0.7091,-9.58718 0.5879,-19.20936 -1.0372,-28.68613 -1.6714,-6.89684 -4.708,-13.27195 -8.1386,-19.43814 -3.629,-5.95058 -7.9753,-11.36777 -12.8725,-16.30825 -5.9213,-5.78081 -12.401,-10.72984 -19.9099,-14.22025 -4.6741,-1.39737 -8.58,-4.45989 -12.6938,-7.04551 -6.7012,-4.37208 -13.4507,-8.56747 -20.9098,-11.51056 -6.1585,-1.89624 -12.5206,-3.14516 -18.8692,-4.22942 -6.3449,-0.81285 -12.6809,-1.69825 -19.0449,-2.36241 -5.1289,-0.53846 -10.2845,-0.68921 -15.4373,-0.76203 -5.6549,0.0654 -10.9809,2.00419 -16.1985,3.97748 -2.9932,1.31017 -1.6714,0.73695 -3.963,1.72532 -19.4703,8.42071 -7.5616,35.95585 11.9087,27.53511 v 0 c 2.1317,-0.92395 1.2492,-0.5085 2.6685,-1.20089 0.9917,-0.3752 4.6175,-1.42962 5.2342,-1.84192 0.9345,-0.62479 -1.7667,0.41849 -0.066,-0.19796 4.2569,0.0578 8.5171,0.16261 12.7548,0.60441 5.7357,0.59219 11.4429,1.40819 17.1649,2.10688 4.421,0.72853 8.7945,1.7118 13.1678,2.67996 5.7062,1.97001 10.4413,5.9095 15.6303,8.87863 5.2595,3.30313 10.577,7.17849 16.5229,9.08108 4.4052,1.53286 7.5482,5.39218 11.0764,8.24172 3.0546,2.74571 5.3105,6.21011 7.6796,9.53886 1.9132,3.35343 3.615,6.78701 4.8432,10.45379 1.688,6.21856 0.6146,14.42691 0.568,20.81356 -0.5487,7.94321 -1.8923,15.76138 -3.3419,23.58599 -1.4547,7.19992 -2.839,14.38502 -6.7538,20.75563 -3.6295,5.97787 -7.0014,12.14787 -11.8206,17.26523 -2.4555,2.38585 -5.063,4.63836 -8.2683,5.95495 -6.8151,3.14878 -14.4512,4.32766 -21.7147,5.94675 -5.1224,0.786 -10.4245,1.93503 -15.6271,2.05393 -4.6234,0.10568 -9.17,-1.06624 -13.6758,-1.89529 -14.8367,-3.53234 -29.1667,-8.50328 -42.9842,-15.00719 -4.0674,-2.08865 -6.3134,-3.04935 -9.9726,-5.60205 -5.8722,-4.09646 -11.2461,-8.98956 -16.0236,-14.30557 -2.1934,-3.06454 -3.947,-5.29746 -5.7178,-8.6428 -3.3941,-6.41183 -5.8601,-13.46044 -7.1645,-20.58374 -0.2037,-3.95737 -0.4768,-6.24226 -0.055,-10.2073 0.9995,-9.40253 3.6524,-18.63667 6.6456,-27.56292 4.2936,-10.4512 9.604,-20.58106 17.6061,-28.71277 5.8386,-5.18464 12.4916,-8.69243 20.0864,-10.59524 19.936,-7.24948 9.6838,-35.44326 -10.2523,-28.19381 z" /><path
         style="fill:#000000;stroke-width:20;paint-order:markers stroke fill"
         id="path614"
         d="m 2615.8958,496.69763 c -6.1645,4.14089 -12.292,8.43222 -17.9714,13.22993 -1.3815,1.16703 -2.6897,2.41811 -4.0346,3.62718 -6.8388,6.51592 -11.5549,14.81193 -14.1249,23.87449 -0.4594,1.61993 -0.7701,3.27837 -1.1551,4.91754 -1.8699,8.96985 -1.384,17.52727 0.6425,26.43182 0.4784,2.10201 1.0969,4.16963 1.6454,6.25444 3.4315,9.98569 8.7075,19.35175 15.3554,27.55982 0.9765,1.20568 2.0344,2.34309 3.0516,3.51467 7.7837,8.17819 18.4175,11.84592 28.9288,15.08845 6.3671,1.93931 12.8674,3.35594 19.5209,3.78251 3.556,0.22796 5.9251,0.1497 9.4383,0.1208 10.4878,0.12579 20.3041,-3.34264 29.8704,-7.25265 6.0997,-2.67091 12.1393,-5.89701 16.8132,-10.74195 0.9654,-1.00063 1.8124,-2.10915 2.7183,-3.1637 2.7765,-3.56412 5.3877,-7.31779 7.3684,-11.3937 1.4091,-2.90028 1.57,-3.59421 2.6011,-6.50706 2.0979,-5.65221 2.577,-11.61878 2.8347,-17.58466 0.4202,-6.81542 -0.3344,-13.57592 -1.3372,-20.30192 -0.5514,-5.81459 -2.7694,-11.18249 -4.908,-16.54744 -0.6318,-1.23457 -1.1787,-2.51651 -1.8957,-3.70372 -1.7195,-2.84721 -3.2234,-4.591 -5.2134,-7.14716 -1.8015,-2.31386 -3.5375,-4.67088 -5.2736,-7.03361 -3.5341,-5.06663 -8.6398,-8.46658 -14.0246,-11.27995 -1.9272,-1.18309 -4.2193,-1.49238 -6.2727,-2.33273 -0.1196,-0.0489 -0.1349,-0.2328 -0.245,-0.29987 -1.7886,-1.08747 -3.6743,-2.00616 -5.5039,-3.02295 -5.9528,-3.39603 -12.1173,-6.41662 -18.6375,-8.54739 -3.9666,-1.24719 -8.0949,-1.40316 -12.214,-1.42042 -2.4051,0.009 -4.81,0.0475 -7.2151,0.0661 -5.5638,-0.14081 -9.5351,1.75848 -13.7835,5.18917 -2.3337,2.18948 -2.0729,1.80729 -4.3124,3.62117 -1.748,1.63031 -0.8397,0.72342 -2.6946,2.7505 -11.5958,13.3431 7.2742,29.742 18.8699,16.39893 v 0 c -0.2643,0.15962 -0.199,0.13859 0.105,-0.17698 -0.091,0.0507 -0.3549,0.21495 -0.2722,0.152 1.5644,-1.19049 3.1155,-2.37582 4.5338,-3.72967 -0.7271,0.2042 1.5417,-0.44117 -1.0081,0.42915 -0.4104,0.1401 -0.8317,0.25096 -1.2572,0.33491 -0.3317,0.0655 -2.446,0.0612 0.014,0.0301 2.3129,-0.018 4.6256,-0.0536 6.9386,-0.0655 1.5653,0.003 3.1538,-0.0735 4.6968,0.23762 4.9829,1.50812 9.5499,4.11707 14.1015,6.58754 4.1259,2.28865 8.2339,4.73813 12.7897,6.06465 1.1102,0.53403 2.1214,1.14757 3.1623,1.80512 0.2829,0.17867 0.6533,0.23817 0.8784,0.48553 0.4369,0.47951 0.8038,1.01809 1.2055,1.52715 1.9052,2.59228 3.8092,5.18131 5.7925,7.71491 0.9184,1.17319 1.9322,2.27203 2.8083,3.47718 0.2635,0.36253 0.4696,0.76345 0.7043,1.14519 1.4303,3.58762 3.1131,7.07052 3.4055,10.98532 0.7733,5.16221 1.4491,10.33285 1.0842,15.57038 -0.1399,3.55333 -0.2169,7.12325 -1.4981,10.49346 -1.2152,3.77195 -3.1284,7.01897 -5.6096,10.11642 -0.4054,0.56036 -0.9441,1.377 -1.4738,1.85955 -2.3749,2.1632 -5.3999,3.51387 -8.2796,4.83526 -4.3582,1.80377 -9.0781,3.90784 -13.7369,4.78004 -2.2079,0.41333 -4.6498,0.47387 -6.8813,0.59695 -2.1611,0.0267 -4.727,0.0943 -6.8947,-0.0167 -4.9571,-0.25421 -9.763,-1.33977 -14.4994,-2.79413 -4.8509,-1.46849 -9.6437,-2.94574 -14.1304,-5.34207 -0.5923,-0.31631 -1.2001,-0.61227 -1.7495,-0.9983 -0.5655,-0.39735 -1.0538,-0.89453 -1.5808,-1.34178 -5.5319,-6.18342 -10.0784,-13.28346 -13.0425,-21.05305 -1.2063,-4.37788 -2.8451,-9.99268 -2.7296,-14.59445 0.045,-1.77686 0.446,-4.36441 0.6882,-6.1355 1.2112,-5.87449 3.2454,-11.53456 7.6974,-15.76496 6.1343,-5.65676 12.9635,-10.52224 19.9004,-15.14348 14.2966,-10.39749 -0.4077,-30.61589 -14.7043,-20.2184 z" /><path
         style="fill:#000000;stroke-width:20;paint-order:markers stroke fill"
         id="path618"
         d="m 2555.2567,340.77232 c -0.9661,0.25038 -1.9522,0.43355 -2.8984,0.75115 -2.0074,0.67387 -3.6419,1.55348 -5.5569,2.40089 -2.6304,1.164 -5.2697,2.25946 -7.8698,3.49453 -4.1487,1.95385 -8.4434,3.4874 -12.0142,6.46917 -1.0319,0.86175 -1.9147,1.88786 -2.8721,2.83178 -4.8062,5.6333 -8.2967,12.15906 -10.8162,19.08519 -1.901,6.4938 -2.4347,13.27471 -2.8522,19.99729 -0.3817,6.09179 1.2538,11.46257 4.1894,16.70913 3.6928,5.53656 8.7003,10.09837 13.7647,14.36415 3.2511,2.64641 6.967,4.56829 11.0467,5.55249 2.1021,0.50713 4.0814,0.71038 6.2151,0.98854 6.585,1.24248 13.2181,0.85912 19.844,0.2809 7.6503,-0.82028 14.9788,-3.25726 22.1162,-6.02276 4.0908,-1.5203 7.952,-3.57627 11.6569,-5.86658 0.7306,-0.45167 1.4823,-0.87432 2.1736,-1.38404 1.0192,-0.75146 1.9666,-1.5957 2.95,-2.39355 5.141,-4.71067 8.0581,-11.00251 10.4599,-17.41437 1.7289,-4.59184 2.9151,-9.2896 3.4789,-14.15756 0.3318,-4.37846 0.4801,-8.84521 -0.1342,-13.21073 -0.1558,-1.10784 -0.4072,-2.20014 -0.6108,-3.3002 -1.7663,-5.97037 -5.0753,-11.24863 -9.2238,-15.83505 -3.4695,-3.50649 -7.4216,-5.28711 -12.2292,-6.01445 -1.2619,-0.25083 -2.5637,-0.0502 -3.831,-0.1656 -0.9374,-0.0854 1.0482,0.0507 0.9804,-0.0772 -0.087,-0.16489 -0.2913,-0.23334 -0.437,-0.34999 -3.5137,-2.4387 -7.1421,-4.60299 -11.115,-6.19811 -3.6231,-1.27989 -7.4315,-1.54067 -11.2361,-1.60589 -2.7095,-0.018 -5.419,0.0114 -8.1284,0.0277 -0.3568,0.003 -0.7137,0.004 -1.0706,0.006 -14.1419,0.0723 -14.0397,20.07201 0.1022,19.99972 v 0 c 0.3627,-0.003 0.7255,-0.004 1.0882,-0.006 2.5672,-0.0154 5.1345,-0.0425 7.7018,-0.0297 1.4833,0.019 2.9698,0.0329 4.4342,0.30224 3.3222,0.96276 5.8096,3.76909 8.9032,5.19953 3.32,1.62063 6.2395,2.95921 10.0332,2.7309 -0.1155,-0.20664 -0.6335,-0.71996 0.2086,-0.14531 1.8289,1.73728 2.8638,4.04098 4.2173,6.13114 0.8473,3.38132 0.6741,6.95915 0.4608,10.41035 -0.2897,3.22656 -1.2574,6.27435 -2.3398,9.32079 -1.1864,3.22691 -2.4024,6.56267 -4.7083,9.17927 -1.2072,1.25074 -0.451,0.58092 -2.5785,1.92762 -2.6736,1.69241 -5.4811,3.19067 -8.4586,4.28027 -5.3665,2.0987 -10.8667,4.02558 -16.6128,4.73819 -5.2556,0.46423 -10.352,0.87564 -15.5781,-0.19844 -2.5668,-0.31282 -4.9306,-0.30221 -6.9729,-2.06251 -3.3311,-2.73245 -6.5247,-5.73804 -9.2791,-9.05139 -1.0972,-1.6486 -1.6841,-3.42403 -1.5188,-5.43275 0.2953,-4.86682 0.6572,-9.75703 1.7343,-14.52422 1.4637,-4.28982 3.6587,-8.27024 6.3709,-11.9045 0.2476,-0.30604 0.5049,-0.60452 0.7428,-0.91816 0.1132,-0.14928 0.157,-0.36039 0.3096,-0.46916 2.2192,-1.58239 5.7331,-2.25951 8.0611,-3.7501 2.8768,-1.38723 1.5155,-0.7685 4.7064,-2.135 0.3824,-0.16372 5.55,-2.11095 5.8208,-2.75659 14,-1.99998 11.1716,-21.79899 -2.8284,-19.79898 z" /></g></g></svg>
