<?xml version="1.0" encoding="UTF-8" standalone="no"?>
<!-- Created with Inkscape (http://www.inkscape.org/) -->

<svg
   width="3840mm"
   height="2160mm"
   viewBox="0 0 3840 2160"
   version="1.1"
   id="svg5"
   inkscape:version="1.2.2 (732a01da63, 2022-12-09)"
   sodipodi:docname="heart of gold.svg"
   xml:space="preserve"
   inkscape:export-filename="..\..\items\heartOfGold.png"
   inkscape:export-xdpi="96.096664"
   inkscape:export-ydpi="96.096664"
   xmlns:inkscape="http://www.inkscape.org/namespaces/inkscape"
   xmlns:sodipodi="http://sodipodi.sourceforge.net/DTD/sodipodi-0.dtd"
   xmlns="http://www.w3.org/2000/svg"
   xmlns:svg="http://www.w3.org/2000/svg"><sodipodi:namedview
     id="namedview7"
     pagecolor="#ffffff"
     bordercolor="#000000"
     borderopacity="0.25"
     inkscape:showpageshadow="2"
     inkscape:pageopacity="0.0"
     inkscape:pagecheckerboard="0"
     inkscape:deskcolor="#d1d1d1"
     inkscape:document-units="mm"
     showgrid="false"
     inkscape:zoom="0.056568542"
     inkscape:cx="3491.3397"
     inkscape:cy="4260.3184"
     inkscape:window-width="1920"
     inkscape:window-height="986"
     inkscape:window-x="-11"
     inkscape:window-y="-11"
     inkscape:window-maximized="1"
     inkscape:current-layer="g7131" /><defs
     id="defs2" /><g
     inkscape:label="Layer 1"
     inkscape:groupmode="layer"
     id="layer1"><g
       id="g7131"
       transform="matrix(2.2500004,0,0,2.2499996,-1003.8446,-1030.6602)"><path
         style="fill:#ffe64e;fill-opacity:1;stroke:none;stroke-width:20;paint-order:markers stroke fill"
         id="path1746"
         d="m 1113.8842,831.84499 c 2.2269,9.36328 2.7538,19.00806 3.7224,28.55296 0.2706,2.33262 0.5397,4.66537 0.8116,6.99783 0.4656,3.99404 0.9939,8.9173 1.6788,12.86806 1.0767,6.21038 2.7048,12.30289 4.1612,18.42958 1.5138,5.53934 2.5068,11.24778 4.4246,16.67584 2.1522,6.0915 5.0286,11.92631 7.6674,17.81456 0.5751,1.33228 1.1371,2.67025 1.7251,3.99687 0.8902,2.00814 2.0632,4.3929 2.8643,6.49491 1.5799,4.14594 2.8903,8.43862 4.3058,12.64076 4.2745,12.93815 9.582,25.46705 15.4166,37.76729 3.7827,6.92555 7.8138,13.96345 13.0206,19.95375 1.2311,1.4163 2.5852,2.7208 3.8778,4.0812 6.281,5.9841 13.9518,10.1092 21.0023,15.063 4.8406,3.1781 9.3105,6.85 13.8158,10.4714 6.5067,4.3401 13.1801,8.4572 19.9448,12.3886 6.0105,3.425 12.1583,6.6008 18.4129,9.5541 6.3387,2.8157 13.1,4.1467 20.0476,3.3345 2.1097,-0.2466 4.1592,-0.8645 6.2387,-1.2968 10.6424,-3.2724 20.2861,-9.0494 30.0333,-14.3169 8.6758,-4.4561 17.7005,-8.2051 26.593,-12.2088 14.8409,-6.5633 29.2578,-14.0297 43.2773,-22.1898 15.3192,-8.6189 29.9442,-18.3914 44.9703,-27.5013 6.1954,-3.72412 12.604,-7.09266 18.7948,-10.82379 6.1,-3.67644 12.0121,-7.67133 18.0306,-11.47876 10.81,-6.77148 20.6507,-14.88932 30.0672,-23.45569 7.7529,-6.89152 14.8775,-14.44836 21.5713,-22.36197 4.0214,-5.08738 7.8349,-10.3546 10.7766,-16.15456 2.2382,-4.41291 2.5512,-5.60488 4.3132,-10.23347 4.7522,-12.71133 6.3555,-26.15796 7.4195,-39.59122 0.446,-6.55606 0.3155,-13.12979 0.01,-19.68722 -0.098,-2.06098 -0.3795,-7.06398 -0.6928,-9.12366 -0.296,-1.94593 -0.7628,-3.86199 -1.1442,-5.79297 -3.0661,-10.82469 -9.0729,-20.3036 -16.069,-28.97923 -4.4897,-5.0936 -9.586,-10.24811 -15.4707,-13.76331 -1.536,-0.91749 -3.1531,-1.6918 -4.7295,-2.5377 -6.5703,-2.3237 -13.2327,-4.39499 -19.8809,-6.49673 -6.2054,-2.14805 -12.0109,-5.24352 -18.0215,-7.85577 -10.2415,-4.33555 -19.8938,-3.77304 -30.677,-2.51085 -11.4157,1.35679 -22.1946,5.38504 -32.8827,9.39702 -11.0105,4.14206 -22.3036,7.4635 -33.549,10.89412 -10.0718,3.46353 -20.5571,5.37937 -30.8813,7.89411 -11.0785,2.87917 -21.9572,6.40302 -33.1415,8.86333 -5.1039,1.15501 -10.2088,2.32534 -15.2746,3.64008 -2.8254,0.73329 -5.6144,1.68598 -8.4789,2.25473 4.9107,-0.81585 5.1059,-1.27646 11.562,1.49995 10.8967,4.68611 1.2251,1.72439 5.3665,4.71326 0.058,0.0421 -0.064,-0.47546 -0.3257,-1.67095 1.1015,2.57958 0.6457,5.39363 0.012,8.02714 -0.069,0.28654 -0.4905,0.77189 -0.209,0.85913 0.3786,0.11731 0.6785,-0.41013 1.0225,-0.60706 0.543,-0.31086 1.0922,-0.61079 1.6383,-0.9162 6.7627,-3.26544 13.6069,-6.35408 20.3276,-9.70701 7.5488,-4.24725 15.2458,-8.54705 21.8268,-14.24982 1.3477,-1.16793 2.597,-2.44486 3.8956,-3.66729 4.002,-4.33514 7.7027,-9.06766 10.581,-14.23887 0.6507,-1.16906 1.3385,-2.33084 1.8074,-3.58396 0.7501,-2.00491 1.224,-4.1026 1.836,-6.15389 -0.5566,-4.23119 -0.1014,-8.72461 -1.6697,-12.6936 -1.3108,-3.31713 -4.0429,-5.95064 -6.6567,-8.37748 -5.1072,-4.74188 -13.2686,-5.22298 -19.792,-5.42287 -14.4215,0.0816 -28.8115,-0.82859 -43.2032,-1.62031 -13.5894,-0.82716 -27.2002,-1.14511 -40.8111,-1.32765 -11.815,-0.3361 -23.4331,1.6488 -34.8804,4.35369 -6.5077,1.86013 -13.0988,3.87144 -19.0424,7.19252 -5.2507,2.93393 -6.3811,4.09199 -11.1512,7.77562 -5.843,4.91072 -11.8063,9.76493 -17.1263,15.25712 -2.9573,3.05311 -4.2028,4.65042 -6.8256,7.79428 -4.3122,5.21557 -8.74,10.3274 -12.9683,15.6119 -5.1226,6.42075 -9.307,13.521 -13.4448,20.59705 -3.7116,6.14166 -1.7958,2.96513 -5.7463,9.53031 -14.583,24.23504 19.6906,44.85844 34.2735,20.6234 v 0 c 4.0283,-6.69449 2.0164,-3.35484 6.0356,-10.01895 3.1267,-5.39364 6.2777,-10.82307 10.1185,-15.74628 4.0819,-5.10495 8.3707,-10.03202 12.5303,-15.07387 1.0668,-1.30021 2.8151,-3.47892 3.9744,-4.70053 4.3118,-4.54372 9.2639,-8.46053 14.0158,-12.51953 1.2583,-1.05222 2.8478,-2.46925 4.2763,-3.39021 3.1253,-2.01491 6.8915,-2.85591 10.3696,-4.02635 8.224,-1.99141 16.5481,-3.54232 25.0568,-3.26374 13.0564,0.17385 26.1128,0.47397 39.1485,1.27084 14.8033,0.81436 29.6065,1.74292 44.4403,1.66918 0.7245,0.008 1.4535,0.10536 2.1734,0.0236 0.191,-0.0217 -0.3572,-0.14229 -0.5373,-0.20942 -0.7455,-0.27781 -1.5408,-0.44495 -2.2395,-0.82537 -1.3364,-0.72765 -2.7979,-1.36445 -3.8322,-2.48054 -6.8088,-7.3473 -4.9681,-7.33298 -5.747,-17.65618 2.3001,-5.96929 1.5255,-3.3786 0.5822,-1.89714 -1.0714,1.68262 -2.2148,3.34388 -3.4741,4.89156 -4.2681,4.73657 -10.3881,7.47744 -15.7134,10.79119 -7.9909,4.02662 -16.2892,7.43601 -24.0828,11.85003 -3.9793,2.67374 -6.6308,4.16562 -10.0288,7.63693 -6.2786,6.41385 -9.5789,12.82271 -10.1695,21.95309 -0.1486,2.29669 0.4877,4.57708 0.7316,6.86565 1.3149,4.75085 2.7024,10.05996 5.81,14.01632 5.5733,7.09555 8.8943,8.88873 18.2277,10.69234 2.2253,0.43003 4.5243,-0.27979 6.7865,-0.41968 7.9105,-1.84777 15.6743,-4.3158 23.659,-5.87372 5.2543,-1.17155 6.8458,-1.4664 12.0662,-2.87345 7.3314,-1.97602 14.5362,-4.41267 21.9233,-6.18755 11.0461,-2.71476 22.2715,-4.76726 33.05,-8.48961 12.0519,-3.67665 24.1473,-7.25791 35.9434,-11.70815 7.7113,-2.89902 15.4368,-6.04703 23.6611,-7.13669 7.8998,-1.02656 -0.5599,0.0259 6.2633,-0.70009 1.2868,-0.13694 2.468,-0.30019 3.709,0.22662 7.2667,3.10933 14.243,6.92806 21.8261,9.27452 3.1252,0.98771 6.2323,2.02345 9.3519,3.0276 1.7975,0.57856 3.5629,1.32173 5.4266,1.62536 0.1315,0.0214 -0.1812,-0.19563 -0.2718,-0.29345 -0.1467,-0.15372 -0.6377,-0.53983 -0.4403,-0.46117 0.4933,0.19648 2.6344,1.87698 2.7753,1.98483 1.5861,1.21406 3.1046,2.45364 4.3127,4.07458 3.1899,3.81767 5.9337,7.92292 8.0259,12.4546 0.9239,2.28362 0.7739,5.33871 0.8944,7.73877 0.2505,4.99256 0.4057,9.99831 0.083,14.99269 -0.7378,9.73831 -1.6509,19.52832 -5.0406,28.77162 -1.9375,5.49682 -4.3956,10.03453 -8.1794,14.53224 -5.5317,6.60109 -11.4902,12.84909 -17.9294,18.57486 -7.6754,7.01595 -15.677,13.68705 -24.511,19.21634 -5.5399,3.508 -10.9736,7.22376 -16.5896,10.60863 -6.4534,3.88964 -13.1397,7.39127 -19.5871,11.29199 -14.822,8.99369 -29.2589,18.62357 -44.3645,27.14109 -12.8074,7.4716 -25.9943,14.28102 -39.5609,20.2771 -9.7723,4.3998 -19.6906,8.5199 -29.1889,13.4925 -6.7763,3.6621 -13.5008,7.503 -20.5271,10.6542 -0.1116,0.1042 -0.468,0.2382 -0.3347,0.3125 0.4098,0.2281 0.9305,0.1387 1.3807,0.2698 0.094,0.027 -0.2749,-0.049 -0.2899,0.048 -0.015,0.1 0.2762,0.058 0.2582,0.1565 -0.048,0.2625 -0.9351,-0.5928 -0.781,-0.1755 -5.2326,-2.4393 -10.3433,-5.1327 -15.374,-7.9638 -5.0359,-2.9037 -9.8692,-6.1695 -14.9532,-8.9688 -5.2261,-4.1874 -10.4229,-8.4181 -16.0174,-12.1175 -5.0762,-3.50531 -10.347,-6.70947 -15.3544,-10.30502 -1.8624,-1.65378 -3.0898,-3.43416 -4.5068,-5.5112 -1.6834,-2.4675 -3.4314,-4.90632 -4.744,-7.60071 -5.1692,-10.87117 -9.8769,-21.93856 -13.6444,-33.38412 -1.7408,-5.1622 -3.3991,-10.3913 -5.3801,-15.46958 -1.1791,-3.02286 -1.718,-3.9162 -2.9763,-6.75687 -0.6604,-1.49096 -1.2947,-2.99329 -1.9421,-4.48993 -2.2889,-5.10646 -2.0846,-4.67566 -4.3714,-9.68147 -0.4819,-1.05487 -1.0521,-2.07301 -1.4528,-3.16132 -1.7348,-4.71112 -2.4835,-9.72979 -3.8547,-14.54272 -1.1753,-4.93967 -2.5984,-9.88131 -3.4855,-14.88461 -0.6314,-3.56158 -1.1224,-8.23309 -1.5368,-11.77817 -0.2504,-2.14132 -0.4994,-4.28278 -0.7491,-6.42419 -1.1666,-11.45021 -1.905,-23.00269 -4.7116,-34.20816 -6.8599,-27.43978 -45.6657,-17.73835 -38.8057,9.70142 z" /><path
         style="fill:#000000;stroke:none;stroke-width:20;paint-order:markers stroke fill"
         id="path1348"
         d="m 1390.3518,750.72284 c -5.0921,-9.86428 -13.0309,-16.26748 -22.0165,-22.41934 -7.4916,-4.57311 -15.1108,-8.94794 -23.2877,-12.17186 -5.5689,-1.96744 -11.2451,-3.45705 -17.0433,-4.55824 -7.9545,-1.29488 -16.0134,-1.85704 -24.0508,-2.36157 -7.6555,-0.41153 -15.3207,-0.59917 -22.986,-0.69064 -7.5411,-0.11213 -15.0755,-0.0314 -22.6103,0.28673 -8.3151,0.30887 -16.1883,1.45682 -24.2519,3.46945 -7.4395,1.91352 -14.6091,4.73742 -21.7876,7.44411 -7.424,2.75984 -14.3061,6.72491 -21.1459,10.66906 -6.6067,3.95142 -12.9142,8.34059 -19.1979,12.77659 -5.2283,3.41323 -10.2531,7.11907 -15.6346,10.29338 -6.3043,3.85784 -12.6518,7.64495 -18.8206,11.71747 -6.6353,4.0282 -12.7136,8.79885 -18.3297,14.13793 -4.1394,3.75817 -7.9131,7.86114 -11.443,12.18946 -2.5266,3.11848 -4.9088,6.34704 -7.3584,9.52405 -2.2439,2.69404 -4.0957,5.67766 -6.009,8.60697 -0.2877,-0.0665 -2.901,5.7276 -2.2545,4.09506 -13.5541,24.82514 21.554,43.99346 35.108,19.16835 v 0 c 2.4447,-4.68566 0.9867,-1.79215 0.6658,-1.43547 1.3413,-2.06393 2.5891,-4.18221 4.1999,-6.05335 2.2171,-2.89562 4.3995,-5.81699 6.6783,-8.66415 2.5074,-3.09346 5.2091,-5.99033 8.187,-8.6455 3.7776,-3.7651 8.1445,-6.78635 12.6707,-9.59284 5.6143,-3.75152 11.4609,-7.13832 17.1983,-10.6962 6.2355,-3.74703 12.1748,-7.92353 18.2157,-11.97105 5.2852,-3.73343 10.5666,-7.45281 16.1103,-10.8018 4.9705,-2.86808 9.9277,-5.86084 15.3082,-7.90384 5.7533,-2.18364 11.5033,-4.4686 17.4466,-6.07923 1.976,-0.50996 4.0295,-1.16287 6.0626,-1.42166 3.3435,-0.42558 6.7294,-0.53493 10.0822,-0.86294 6.8104,-0.29233 13.6195,-0.35385 20.436,-0.25339 6.9944,0.0822 13.9885,0.25048 20.9743,0.61616 6.3791,0.39336 12.771,0.83479 19.0999,1.74155 1.1184,0.2106 2.2546,0.32916 3.3638,0.58367 2.3053,0.52892 4.4931,1.49664 6.8006,2.02252 5.4127,1.89267 10.1512,5.29469 15.1904,7.9524 2.2075,1.46367 4.4198,2.83832 6.3655,4.64685 0.4493,0.41762 0.8621,0.87278 1.2931,1.30929 0.2122,0.21503 0.635,0.94753 0.6365,0.64537 0,-0.55996 -0.4212,-1.03772 -0.6318,-1.55657 11.1417,25.99735 47.9075,10.24057 36.7658,-15.75678 z" /><path
         style="fill:#ffe64e;fill-opacity:1;stroke:none;stroke-width:441.285;paint-order:markers stroke fill"
         d="m 1273.9678,751.1879 c -52.1666,-0.25022 -95.7736,37.00626 -134.2589,67.99029 -21.4607,26.79383 6.4123,62.44175 11.402,90.98817 16.404,48.5657 39.135,97.25294 85.3143,124.09684 14.3455,9.2927 29.2669,31.7816 46.9648,13.3457 80.2479,-38.4293 167.329,-77.99196 222.5064,-150.33822 20.5138,-44.74504 -2.1156,-122.34378 -60.8868,-117.80576 -57.1344,-0.49014 -107.3493,31.01578 -155.2728,57.08994 -23.7124,4.84135 -36.3782,-31.68478 -11.7327,-40.15793 14.0863,-15.34702 46.1561,-19.90928 51.7196,-40.19214 -16.3611,-8.44147 -38.0756,-3.14846 -55.7559,-5.01689 z"
         id="path1695" /><path
         style="fill:#000000;stroke:none;stroke-width:20;paint-order:markers stroke fill"
         id="path1346"
         d="m 1086.0849,829.96682 c 0.4639,2.94592 0.7927,5.91634 1.3917,8.83779 0.7187,3.50481 4.0722,15.51199 4.8866,18.57537 2.719,10.22802 5.2483,20.50481 7.8136,30.77204 4.5596,20.20332 10.9403,39.916 18.0253,59.35634 6.0589,16.69499 14.1731,32.48141 22.8499,47.93543 7.1839,12.56961 16.23,23.87881 25.5406,34.90651 6.2002,6.9558 12.9517,13.374 19.8818,19.5899 9.6864,8.0823 20.2691,14.988 30.4723,22.3862 7.8503,5.937 16.0843,11.3154 24.2607,16.7831 6.2117,4.4779 12.6664,7.1948 20.1328,8.7176 2.6035,0.024 5.2322,0.436 7.8104,0.073 6.9768,-0.9823 15.1732,-4.5685 21.4279,-7.2518 13.5015,-5.7922 26.6416,-12.4446 39.9002,-18.7625 22.8177,-10.587 45.6479,-21.1091 68.0255,-32.6056 19.2252,-9.8458 36.6869,-22.6053 53.8413,-35.6234 12.6411,-9.20049 24.7235,-19.09985 36.7811,-29.03738 7.845,-6.08333 15.4788,-12.39015 22.7773,-19.11946 5.6572,-5.02449 11.4591,-9.85234 16.8203,-15.19909 6.6784,-6.80321 12.2677,-14.73007 16.107,-23.48222 1.0347,-2.35874 1.8771,-4.79722 2.8156,-7.19582 5.5322,-17.67435 6.6195,-36.2457 7.094,-54.63426 0.1913,-12.43243 0.3547,-25.06986 -3.0915,-37.1447 -0.7059,-2.47298 -1.6729,-4.86383 -2.5094,-7.29575 -3.9905,-10.5913 -10.7615,-19.68553 -17.2501,-28.83511 -4.9613,-7.44107 -10.58,-14.45136 -17.2586,-20.43671 -1.5384,-1.37877 -3.1712,-2.64859 -4.7567,-3.97288 -9.373,-7.04326 -19.9012,-12.31119 -30.8435,-16.4185 -7.694,-2.56345 -15.8116,-3.35527 -23.8531,-3.98773 -6.5272,-0.41563 -13.0695,-0.49511 -19.6078,-0.53459 -8.0226,-0.0914 -16.0478,0.22749 -24.0489,0.79764 -7.9704,0.4435 -15.5467,2.88536 -23.0572,5.38097 -8.7762,2.91615 -3.6245,1.13532 -13.155,4.54948 -12.7711,4.66921 -25.0907,10.42109 -37.528,15.88553 -9.9901,3.76616 -19.4031,8.76655 -28.6512,14.05395 -1.4276,0.83236 -2.8651,1.64793 -4.2828,2.49711 -2.8145,1.6859 -4.5382,2.87174 -7.319,4.40534 -3.2932,1.81618 -6.6094,3.52841 -9.8517,5.44433 -5.1408,3.1173 -9.6931,7.01919 -14.1029,11.07168 -20.7052,19.2691 6.5455,48.55054 27.2506,29.28146 v 0 c 2.287,-2.1803 4.6612,-4.26942 7.324,-5.98876 3.1423,-1.89601 6.3992,-3.51388 9.6053,-5.29873 3.9242,-2.18469 3.6174,-2.18673 7.2458,-4.36256 1.3271,-0.79581 2.6732,-1.55956 4.0098,-2.33934 8.018,-4.60121 16.1761,-8.93008 24.8691,-12.14638 11.5891,-5.09702 23.0641,-10.46949 34.9516,-14.858 10.9969,-3.96131 1.3366,-0.54139 12.4916,-4.31776 4.2858,-1.45092 8.557,-3.12081 13.1291,-3.36569 6.9447,-0.53075 13.9181,-0.75459 20.8826,-0.69098 5.6078,0.0326 11.2186,0.0924 16.8182,0.42061 4.3687,0.31318 8.7746,0.71016 13.0571,1.63814 6.8348,2.42811 13.3309,5.77964 19.339,9.84287 2.7515,2.15662 5.1798,4.47894 7.5722,7.03191 0.6468,0.69024 1.3335,1.34887 1.9102,2.09867 1.8574,2.41478 3.3416,5.10188 5.2491,7.48173 6.4722,9.09558 -1.8284,-2.61752 5.2492,7.54211 2.6159,3.75512 5.3672,7.40114 6.9973,11.73654 1.107,2.73939 1.5728,3.54071 2.1696,6.50698 1.5456,7.68215 1.0434,15.54933 1.0585,23.32641 -0.3358,13.91335 -0.9785,27.94709 -4.5179,41.47923 -2.2599,6.38852 -5.0264,11.95888 -9.9677,16.72273 -4.8147,5.01755 -10.4568,9.13616 -15.496,13.91888 -6.7423,6.233 -13.8465,12.00364 -21.0894,17.64675 -11.6437,9.60171 -23.31,19.16721 -35.5271,28.04494 -15.2913,11.61928 -30.8053,23.09484 -47.938,31.90471 -22.0152,11.3234 -44.501,21.6343 -66.9456,32.0709 -12.5824,5.996 -25.0631,12.2474 -37.8299,17.8469 -2.8742,1.2607 -5.8507,2.2867 -8.6913,3.6215 -0.3068,0.1441 -0.9425,0.5846 -0.6607,0.773 0.7143,0.4773 1.6884,0.3187 2.5326,0.4781 -1.852,0.6398 -3.6466,-2.3548 -5.1832,-2.6389 -7.7569,-5.1849 -15.5783,-10.269 -23.0147,-15.9155 -9.0872,-6.5866 -18.4617,-12.7897 -27.2455,-19.7813 -5.558,-4.9826 -10.9903,-10.0991 -16.0261,-15.6179 -7.6854,-9.098 -15.2574,-18.35218 -21.233,-28.70011 -7.6336,-13.55937 -14.8132,-27.39088 -20.142,-42.04748 -6.6227,-18.11784 -12.5659,-36.49741 -16.794,-55.33842 -3.4135,-13.66208 -6.9249,-27.28669 -10.5573,-40.89175 -0.6007,-2.24986 -1.0724,-4.53573 -1.7583,-6.76111 -0.1001,-0.3248 -0.3889,-0.55753 -0.5834,-0.83629 0,-28.28428 -39.9999,-28.28428 -39.9999,0 z" /><path
         style="fill:#ffe64e;fill-opacity:1;stroke-width:8.88889;paint-order:markers stroke fill"
         id="path1104"
         d="m 1350.0388,850.34006 c 2.1103,-1.18551 4.4503,-1.86599 6.7564,-2.56561 3.0705,-0.85201 6.2771,-1.1003 9.4423,-1.36844 3.5909,-0.33129 7.1952,-0.43202 10.7989,-0.51855 2.146,0.0137 4.3042,0.0129 6.4453,0.1868 1.8949,0.15392 3.7843,0.49869 5.6573,0.81053 3.3184,0.62739 6.6694,1.08055 9.8636,2.20985 3.3255,1.12758 6.2913,3.02515 9.2116,4.93138 0.4901,0.34713 0.9814,0.69274 1.4705,1.04137 1.0523,0.74996 1.4215,0.97216 2.3299,1.79396 1.222,1.10554 2.2721,2.39404 3.3571,3.62869 2.4473,2.80654 4.6869,5.78448 7.0064,8.69527 0.7068,0.95055 1.5666,1.76343 2.3871,2.61086 4.3829,4.50523 10.7542,-1.69301 6.3714,-6.19825 v 0 c -0.6205,-0.63572 -1.2812,-1.23441 -1.809,-1.95487 -2.4109,-3.02035 -4.733,-6.11527 -7.2813,-9.02349 -0.8226,-0.93451 -2.0735,-2.38213 -2.9483,-3.2701 -1.8095,-1.83662 -3.9058,-3.32234 -6.0289,-4.76935 -3.5319,-2.30059 -7.1451,-4.53335 -11.165,-5.88748 -1.6196,-0.55022 -1.7465,-0.63259 -3.3874,-1.03795 -2.6144,-0.64587 -5.287,-1.00204 -7.9237,-1.53907 -2.2167,-0.36614 -4.4386,-0.74006 -6.6805,-0.91981 -2.3556,-0.18884 -4.7293,-0.18429 -7.09,-0.19466 -3.7839,0.0914 -7.5681,0.20337 -11.3388,0.548 -3.7862,0.32362 -7.6117,0.65815 -11.2747,1.72096 -3.4653,1.05609 -7.0103,2.13108 -9.955,4.32101 -4.7723,4.09049 1.0126,10.83943 5.7848,6.74895 z" /></g></g></svg>
