<?xml version="1.0" encoding="UTF-8" standalone="no"?>
<!-- Created with Inkscape (http://www.inkscape.org/) -->

<svg
   width="3840mm"
   height="2160mm"
   viewBox="0 0 3840 2160"
   version="1.1"
   id="svg5458"
   inkscape:version="1.2.2 (732a01da63, 2022-12-09)"
   sodipodi:docname="lucky pebble.svg"
   xml:space="preserve"
   inkscape:export-filename="..\..\items\lucky pebble.png"
   inkscape:export-xdpi="96.096664"
   inkscape:export-ydpi="96.096664"
   xmlns:inkscape="http://www.inkscape.org/namespaces/inkscape"
   xmlns:sodipodi="http://sodipodi.sourceforge.net/DTD/sodipodi-0.dtd"
   xmlns="http://www.w3.org/2000/svg"
   xmlns:svg="http://www.w3.org/2000/svg"><sodipodi:namedview
     id="namedview5460"
     pagecolor="#ffffff"
     bordercolor="#000000"
     borderopacity="0.25"
     inkscape:showpageshadow="2"
     inkscape:pageopacity="0.0"
     inkscape:pagecheckerboard="0"
     inkscape:deskcolor="#d1d1d1"
     inkscape:document-units="mm"
     showgrid="false"
     inkscape:zoom="0.056568542"
     inkscape:cx="11287.192"
     inkscape:cy="4976.264"
     inkscape:window-width="1920"
     inkscape:window-height="986"
     inkscape:window-x="-11"
     inkscape:window-y="-11"
     inkscape:window-maximized="1"
     inkscape:current-layer="layer1" /><defs
     id="defs5455" /><g
     inkscape:label="Layer 1"
     inkscape:groupmode="layer"
     id="layer1"><path
       style="fill:#999999;fill-opacity:1;stroke:none;stroke-width:58.1584;stroke-dasharray:none;paint-order:markers stroke fill"
       id="path17761"
       d="m 957.73571,862.04765 c 19.36335,-12.42787 39.5534,-23.37342 59.54209,-34.61774 13.8631,-6.96179 24.5968,-15.78237 34.2486,-28.32272 9.4425,-14.78237 13.262,-28.00789 -4.849,-41.12498 -6.5301,-4.72953 -15.3131,-0.56549 -21.5707,1.54625 -10.4353,4.92565 -18.2681,13.87084 -26.74105,21.70526 7.90565,10.54216 13.16055,24.16336 23.71695,31.62652 3.6515,2.58151 7.7238,-4.41619 11.5495,-6.69402 19.5692,-11.65153 38.6873,-23.96873 57.5119,-36.92916 15.3896,-10.71899 30.228,-22.25268 44.3966,-34.7258 9.8696,-9.34413 18.0543,-20.46777 26.0462,-31.60122 4.4651,-6.13238 8.789,-12.42171 12.6075,-19.03857 0.8366,-1.44968 2.507,-2.72463 2.395,-4.42177 -0.5638,-8.54813 -2.903,-16.85753 -4.3545,-25.28628 -8.2495,-0.66855 -16.52,-2.92251 -24.7484,-2.00562 -3.4561,0.3851 -24.3293,14.22077 -25.5045,15.02719 -15.5499,10.67062 -29.9983,22.86675 -44.4502,35.11791 -17.4063,16.20835 -35.7787,31.80614 -50.438,50.98254 6.9767,10.56235 10.624,24.87731 20.9304,31.68705 4.8438,3.20037 10.4976,-4.76967 15.5481,-7.58478 4.9935,-2.78334 9.7541,-6.02015 14.5416,-9.18702 16.1962,-10.71338 31.5683,-22.60844 46.9769,-34.5394 17.8614,-14.26154 35.845,-28.56143 51.5132,-45.56188 8.7612,-9.59591 18.6071,-17.91804 27.9701,-26.81502 8.6306,-7.90139 17.6559,-15.16309 27.2902,-21.60844 13.9854,-7.97214 28.3765,-15.13967 42.5474,-22.7479 9.2191,-4.77644 17.4285,-11.33795 27.009,-15.27495 13.3105,-4.84614 26.4633,-10.13971 39.7912,-14.93941 14.5581,-5.15993 29.5057,-8.847 44.1018,-13.89528 14.06,-4.92532 28.1642,-9.85221 42.7631,-12.59565 17.4322,-2.58304 34.4242,-7.63039 51.5175,-11.96258 17.4105,-5.03115 35.0779,-8.81853 52.7755,-12.47232 16.8911,-4.72615 33.8328,-9.23737 50.7873,-13.70317 20.7909,-5.28241 41.7688,-9.65798 62.5561,-14.97071 15.3582,-3.59637 30.7474,-7.00934 46.0832,-10.74462 16.5407,-4.42381 33.0967,-8.73358 49.4205,-14.00379 8.9477,-2.90507 18.0054,-5.27161 27.1807,-7.18825 14.3751,-3.04774 28.8624,-5.51381 43.3686,-7.73885 17.91,-2.57024 35.9158,-3.70999 53.9624,-4.39986 25.3291,-0.7061 50.6674,-0.94412 76.0041,-1.05461 25.9099,-0.0439 51.8197,-0.0143 77.7296,-0.004 23.3461,0.0103 46.6922,0.0143 70.0383,0.0164 20.4416,0.0959 40.8862,-0.24609 61.3233,0.27535 22.7493,0.46762 45.405,2.17511 68.0236,4.75191 17.3653,2.14228 34.8293,4.13007 51.8957,8.31454 11.0087,2.69922 17.6267,5.07322 28.3785,8.57699 19.5019,6.9922 39.2622,13.18821 58.3386,21.43043 19.7569,8.47604 38.5312,19.24082 58.0654,28.23819 20.2676,9.28018 41.1809,16.77011 62.1614,23.97413 21.0681,7.1619 42.2433,13.92637 62.7336,22.83942 12.6981,5.75373 24.8066,12.90343 37.1496,19.47836 10.8507,5.2411 20.1417,13.1809 29.6799,20.62948 10.0396,9.43914 20.4053,18.32195 31.525,26.28397 10.0947,7.0253 20.7291,13.04026 30.267,20.93071 7.805,7.25824 16.9954,12.81822 24.5824,20.31984 6.5247,7.40514 12.8866,14.79569 20.3132,21.21054 8.3256,5.66938 13.5332,14.58534 19.5688,22.62846 7.6683,9.87851 15.2612,19.82711 23.0391,29.60862 5.2055,6.17323 10.0074,10.92068 13.9123,18.07655 4.8939,8.01245 9.8801,15.95905 14.7518,23.98702 5.1923,9.81987 7.9794,20.84837 11.3536,31.47266 2.7984,8.01259 3.7378,16.40242 4.1189,24.87411 0.2217,12.63256 0.6055,25.29028 0.04,37.91641 -0.3026,16.12342 -2.6759,32.049 -4.8438,47.9743 -2.1729,16.64671 -3.0915,33.42979 -3.5747,50.21524 -0.3441,19.68597 -0.2489,39.37787 -0.2382,59.06647 0.018,16.3325 0.03,32.665 0.039,48.9975 0.01,10.6956 0.01,21.3912 0.01,32.0868 -0.1308,9.5598 0.2884,19.1367 -0.2374,28.6843 -0.7276,7.0672 -2.4892,14.1271 -5.4203,20.5423 -2.1003,4.597 -4.5208,7.7425 -7.3508,11.9323 -12.6226,16.6249 -27.4993,31.2164 -42.6811,45.1514 -11.1448,9.7372 -22.828,18.7466 -35.5546,25.9853 -11.4597,7.2595 -23.1231,14.0962 -34.9219,20.707 -14.9248,8.9897 -30.3175,17.0403 -45.3018,25.9095 -8.898,5.6153 -18.4168,10.2752 -26.8144,16.7595 -2.4344,1.8799 -4.7387,3.9439 -7.1079,5.9159 -11.733,10.9826 -24.7241,20.0381 -38.4056,27.9917 -12.692,7.462 -26.3926,12.4981 -39.5125,18.9416 -12.5442,6.6444 -25.5731,12.0799 -38.7781,17.0158 -14.0785,4.6663 -27.9106,10.0888 -41.8562,15.1906 -14.3539,5.084 -28.6568,10.4403 -43.3046,14.5007 -12.076,3.2587 -23.807,7.7103 -35.7175,11.5586 -16.2448,4.9265 -32.6613,9.1293 -49.2423,12.5679 -21.6398,4.7508 -43.4147,8.7247 -65.1267,13.0616 -20.8394,4.3454 -41.6256,9.0268 -62.555,12.8648 -12.5025,1.8188 -24.966,3.8121 -37.3462,6.417 -15.6277,2.8204 -30.7627,7.674 -45.9316,12.4456 -13.2504,4.4287 -26.4993,8.8575 -39.7282,13.3598 -14.7464,5.012 -29.7311,9.1605 -44.6064,13.7011 -14.0949,4.4829 -28.4065,8.0929 -42.6917,11.8051 -10.4936,3.2552 -21.2476,4.3902 -32.0771,5.3606 -16.7359,1.5184 -33.5386,1.6318 -50.3066,2.452 -15.6827,1.0471 -31.3832,1.6388 -47.0916,1.9971 -16.7309,0.2792 -33.465,0.2468 -50.1975,0.2532 -18.2118,0 -36.4235,-0.01 -54.6353,-0.015 -16.527,0 -33.054,0 -49.5811,0 -20.468,-3e-4 -40.9361,-2e-4 -61.4041,-10e-5 -15.4898,0.5852 -30.8518,-0.839 -46.1496,-3.2114 -1.9075,-0.3752 -3.828,-0.6819 -5.7224,-1.1255 -9.0551,-2.1204 -17.966,-5.0529 -26.9531,-7.467 -12.3347,-3.3133 -14.8036,-3.8466 -27.4376,-6.9533 -22.091,-5.9586 -44.462,-10.3799 -66.8896,-14.5673 -11.8587,-2.3298 -23.5064,-5.4714 -35.4268,-7.4931 -14.8203,-2.3793 -29.2661,-6.7808 -43.6535,-11.1509 -10.38,-2.9297 -19.5346,-8.2714 -28.5627,-14.2936 -18.5413,-13.2901 -38.5064,-23.9736 -58.4907,-34.5241 -12.1657,-6.9792 -24.4531,-13.7065 -36.8866,-20.1278 -12.3539,-5.9093 -24.8306,-11.5134 -37.2222,-17.3302 -11.2492,-5.0505 -22.952,-8.7903 -34.3175,-13.5187 -15.5876,-7.7956 -31.5447,-14.5905 -47.9057,-20.3333 -12.6378,-3.9602 -25.0731,-8.5114 -37.4212,-13.3796 -8.4301,-4.7812 -16.7249,-9.835 -25.2923,-14.3322 -10.3375,-4.8591 -19.4003,-12.0374 -28.4942,-19.0584 -8.9253,-7.1303 -17.0634,-15.2549 -24.7116,-23.8797 -8.5409,-10.7797 -18.31144,-20.3465 -28.32147,-29.5435 -13.59852,-11.9423 -26.76464,-24.4321 -39.59506,-37.2982 -8.77502,-8.8519 -16.89628,-18.4755 -24.43468,-28.534 -1.91426,-3.3557 -4.22215,-6.5169 -5.75316,-10.1112 -0.91014,-2.1367 -1.05952,-4.825 -1.40449,-7.0937 -0.84801,-8.6224 -0.7971,-17.3129 -0.79834,-25.9725 0.0511,-10.4644 -0.0243,-20.9268 0.35225,-31.3843 0.0522,-24.4142 2.301,-48.6231 5.77479,-72.7241 1.96163,-19.8266 8.79937,-38.2469 16.24185,-56.3509 9.13538,-19.53863 17.02004,-39.60921 22.45732,-60.66036 3.27642,-13.63763 3.67819,-27.71476 3.82421,-41.70603 0.0299,-6.0511 -0.007,-12.10223 -0.0401,-18.15322 -0.0107,-1.91408 0.16286,-3.83948 -0.0328,-5.74223 -0.26249,-2.55246 0.91058,-6.63538 -1.33617,-7.5707 -10.43124,-4.34266 -22.00205,-4.48342 -33.00308,-6.7251 -11.79659,15.72527 -18.93542,34.58868 -26.9392,52.64414 -4.87346,12.84856 -10.4133,25.38206 -16.05583,37.86338 12.08101,3.45565 23.7838,9.17186 36.24298,10.36696 2.26881,0.21762 1.82759,-4.44362 2.83403,-6.61871 1.55144,-3.35291 3.18684,-6.66155 4.83739,-9.96042 6.65002,-13.29143 13.71345,-26.34634 20.5072,-39.55482 7.97994,-16.06936 16.28214,-31.98841 22.20902,-49.07126 1.74996,-5.75762 4.19767,-11.19632 6.62331,-16.64949 11.36958,-25.56491 -22.59922,-42.67837 -33.9688,-17.11349 v 0 c -2.91989,6.5667 -5.80316,13.14972 -7.96167,20.0574 -5.12744,15.2436 -12.98852,29.19053 -19.86905,43.57214 -8.96728,17.44155 -18.7094,34.5584 -26.74121,52.5244 -1.45428,3.253 -6.48634,7.41926 -4.04399,9.91335 9.16131,9.35538 22.13527,13.24213 33.20289,19.86323 5.67277,-12.57179 11.29906,-25.17455 16.17359,-38.12662 3.7021,-8.35377 7.23588,-16.80506 11.11277,-25.06951 8.9333,-19.04331 -0.85212,2.07301 6.94997,-13.62358 0.31345,-0.63061 0.49545,-1.32583 0.74314,-1.98874 -9.62456,-3.63059 -19.62466,-6.28634 -28.87372,-10.89176 -1.02278,-0.50927 -0.11701,-4.7938 -0.22498,-3.59749 -0.66132,7.32687 0.6537,15.80089 0.0743,23.22542 -0.1012,10.58291 -0.20391,21.25922 -2.50456,31.61766 -4.86652,19.22832 -12.43062,37.36662 -20.65987,55.22012 -8.65546,21.28533 -16.51494,43.01343 -18.92816,66.25243 -3.67871,25.6193 -6.08526,51.362 -6.18236,77.3093 -0.36438,10.9517 -0.3524,21.9052 -0.3776,32.8635 0.004,11.0434 -0.0435,22.1422 1.40189,33.1018 0.93415,5.1984 1.22334,7.7644 2.93252,12.9265 2.67898,8.0912 7.32547,15.1787 11.88365,22.1617 8.67754,11.471 17.91431,22.5257 27.98906,32.6306 13.2485,13.2738 26.82576,26.1814 40.86031,38.51 9.07013,8.2577 17.82122,16.9579 25.51619,26.696 9.2654,10.4104 19.13715,20.2055 29.95982,28.7816 10.8499,8.366 21.7673,16.7509 34.0548,22.6126 9.7264,4.9884 18.8682,11.2013 28.7351,15.9014 12.788,5.0414 25.6646,9.7676 38.7506,13.8738 10.9898,3.8213 21.8601,8.0349 32.4087,13.0975 2.5091,1.2043 4.9414,2.5849 7.4516,3.7869 2.024,0.9692 4.0977,1.8165 6.1466,2.7247 10.8628,4.4789 21.9844,8.1819 32.7808,12.8405 11.9792,5.6185 24.0335,11.0484 35.9894,16.7232 12.3365,6.3574 24.4998,13.0748 36.5796,19.9675 18.9106,9.9833 37.8275,20.0388 55.3482,32.6605 12.0148,7.8997 24.3739,14.8459 38.0925,18.7879 15.8545,4.8147 31.787,9.581 48.1179,12.1991 11.7122,1.936 23.1151,5.2207 34.7866,7.3797 21.7696,4.0583 43.4833,8.3429 64.9227,14.1424 12.0644,2.9632 14.6503,3.5272 26.4259,6.6889 9.8919,2.6559 19.69,5.829 29.6692,8.1063 2.34,0.534 4.7098,0.9065 7.0647,1.3597 17.0886,2.6404 34.2624,4.207 51.5584,3.6278 20.4677,-1e-4 40.9354,-2e-4 61.4032,10e-5 16.5239,0 33.0478,0 49.5718,0 18.2196,0.01 36.4392,0.014 54.6588,0.015 16.9971,-0.01 33.9958,0.026 50.9912,-0.2624 16.021,-0.3671 32.0345,-0.9646 48.0295,-2.0311 17.2367,-0.8633 34.5125,-0.9457 51.7152,-2.5499 12.7667,-1.1445 25.4552,-2.6468 37.8385,-6.3612 14.7781,-3.8412 29.5804,-7.5903 44.1635,-12.2214 15.2236,-4.6739 30.5762,-8.887 45.668,-14.0442 12.9641,-4.4138 25.9492,-8.7507 38.9323,-13.0992 14.0672,-4.4256 28.0755,-9.0114 42.5832,-11.5678 12.0749,-2.5525 24.2437,-4.4177 36.4337,-6.237 21.1103,-3.8838 42.0848,-8.5665 63.1029,-12.9698 21.8026,-4.3647 43.6728,-8.3418 65.4035,-13.1182 17.833,-3.7274 35.5029,-8.2261 52.9723,-13.5579 11.4413,-3.7172 22.7141,-7.9823 34.3136,-11.1352 15.5361,-4.3688 30.7561,-9.9067 45.9792,-15.3623 14.0271,-5.1322 27.9325,-10.6 42.098,-15.28 14.3711,-5.3773 28.5496,-11.3086 42.2158,-18.5083 6.3343,-3.1977 12.8778,-5.6427 19.3086,-8.6018 7.6223,-3.5074 14.9465,-7.7165 22.4262,-11.5411 15.453,-9.1043 30.2865,-19.2681 43.6155,-31.6753 3.0178,-2.5896 5.32,-4.7648 8.5624,-6.9019 6.6,-4.3505 13.6272,-7.996 20.3147,-12.1868 14.7176,-8.7347 29.8692,-16.6053 44.5265,-25.4627 11.9281,-6.685 23.7368,-13.5725 35.313,-20.9294 15.0339,-8.7508 29.0763,-19.1658 42.2197,-30.884 17.5251,-16.1298 34.6865,-33.0474 48.9503,-52.5548 2.1646,-3.3739 4.5053,-6.6274 6.494,-10.1218 7.443,-13.0781 11.7131,-27.9497 12.9744,-43.1348 0.4624,-10.2515 0.2523,-20.5118 0.2886,-30.7733 0,-10.7023 0,-21.4045 -0.01,-32.1067 -0.01,-16.3332 -0.022,-32.6665 -0.038,-48.9997 -0.01,-19.2762 -0.1016,-38.5555 0.221,-57.82932 0.4311,-15.27262 1.2452,-30.54437 3.2033,-45.6933 2.3469,-17.23916 4.8329,-34.49074 5.1955,-51.94067 0.5455,-13.92235 0.2894,-27.86764 -0.056,-41.79427 -0.6401,-12.10614 -2.1285,-24.11746 -6.0485,-35.58437 -4.3727,-13.74352 -8.1517,-27.91915 -15.3842,-40.35671 -4.6689,-7.69257 -9.4288,-15.32064 -14.156,-22.97202 -4.9407,-8.53118 -10.8124,-16.09347 -17.3996,-23.241 -7.5824,-9.5199 -14.9636,-19.22172 -22.4397,-28.83596 -7.7895,-10.19307 -14.706,-21.37701 -25.2694,-28.69848 -1.5117,-1.28207 -3.1265,-2.44179 -4.5154,-3.87258 -5.0257,-5.17678 -9.128,-11.33131 -14.4873,-16.16106 -8.5192,-7.81908 -17.8371,-14.55677 -26.5909,-22.08094 -10.2566,-8.30066 -21.2995,-15.17726 -32.2207,-22.42322 -10.7145,-7.60931 -20.4161,-16.43838 -30.2179,-25.30809 -11.2438,-8.78004 -22.3266,-17.93615 -35.092,-24.14931 -13.2078,-7.03517 -26.1678,-14.67832 -39.7942,-20.7536 -21.3784,-9.23851 -43.3923,-16.467 -65.3771,-23.86422 -19.8488,-6.80615 -39.6386,-13.86888 -58.8152,-22.63577 -19.8256,-9.05624 -38.7903,-20.1427 -58.874,-28.59741 -20.1245,-8.60682 -40.8665,-15.33678 -61.4456,-22.59965 -12.8521,-4.15642 -18.8701,-6.3572 -32.1435,-9.57614 -18.1309,-4.39688 -36.6634,-6.56924 -55.1061,-8.8292 -23.6509,-2.67761 -47.3423,-4.47456 -71.1283,-4.96663 -20.7308,-0.50847 -41.4674,-0.21039 -62.2026,-0.28638 -23.3426,-0.003 -46.6853,-0.006 -70.028,-0.0164 -25.9657,-0.01 -51.9315,-0.0398 -77.8972,0.005 -25.7381,0.11252 -51.4779,0.35485 -77.2079,1.08037 -19.3921,0.75099 -38.7439,2.00477 -57.9865,4.78605 -15.1335,2.33915 -30.2517,4.89013 -45.2494,8.08056 -10.4058,2.18826 -20.6873,4.86846 -30.8379,8.15998 -15.4837,5.01018 -31.1988,9.06003 -46.8844,13.28606 -15.4695,3.76798 -30.993,7.20666 -46.4841,10.84476 -20.8658,5.34591 -41.9356,9.69217 -62.7996,15.03392 -16.3342,4.3025 -32.6773,8.56869 -48.9164,13.26391 -18.2173,3.76189 -36.4038,7.66683 -54.329,12.82951 -16.4358,4.17063 -32.7705,9.05833 -49.5365,11.51985 -16.2409,3.21591 -32.0428,8.28527 -47.6827,13.91936 -14.7178,5.12694 -29.8462,8.70135 -44.501,14.03638 -13.9273,5.01873 -27.6789,10.53047 -41.5762,15.63648 -4.7441,2.03018 -6.0861,2.46632 -10.6558,4.98219 -6.6252,3.64757 -12.6163,8.51384 -19.4459,11.77096 -15.2455,8.1855 -30.7805,15.80081 -45.6944,24.64499 -11.3589,7.66974 -22.0891,16.20538 -32.2548,25.5946 -10.0102,9.52436 -20.5427,18.43228 -29.8682,28.75097 -14.0305,15.52271 -30.7097,28.02372 -46.6909,41.11369 -14.4657,11.2082 -28.8807,22.41433 -44.0727,32.50178 -4.3742,2.90455 -9,5.37877 -13.287,8.42725 -1.1607,0.82536 -3.4046,1.72318 -2.9751,3.13682 3.4643,11.40203 9.2569,21.84805 13.8855,32.77206 4.3138,-6.06965 9.5641,-11.2031 14.7433,-16.43296 9.6156,-9.70957 19.4731,-19.15051 29.6881,-28.14367 13.1945,-11.20643 26.3791,-22.35097 40.5217,-32.20014 3.7297,-2.59744 7.5295,-5.0855 11.3999,-7.43834 2.6948,-1.63816 9.9579,-1.74659 8.2818,-4.52641 -2.8501,-4.72702 -9.8211,-4.11382 -14.7317,-6.17072 -0.8525,-7.82664 -1.2222,-15.73008 -2.5574,-23.47989 -0.1403,-0.81383 -0.7054,1.47675 -1.1125,2.18168 -3.3478,5.79781 -7.1047,11.33329 -11.0435,16.68766 -6.272,8.74705 -12.619,17.54714 -20.1763,25.09542 -12.9894,11.51879 -26.7002,22.02645 -40.8176,31.92766 -18.0982,12.47521 -36.5335,24.15247 -55.273,35.50161 -2.7873,1.68809 -9.0098,1.68439 -8.3796,5.03116 2.4069,12.78107 10.6401,23.48243 15.9602,35.22366 5.186,-4.80642 10.1446,-9.90587 15.4803,-14.51592 -1.68,-3.6708 5.525,11.77269 -7.5011,-2.55696 -11.8402,-13.0252 -10.069,-12.08709 -7.4508,-23.46766 0.2604,-1.13152 -1.5633,6.47485 -1.3383,3.19135 -5.9325,8.18494 -13.6672,13.67382 -22.50614,18.00204 -20.5878,11.58401 -41.3737,22.87328 -61.31509,35.68152 -22.78749,14.55213 -3.45167,48.85184 19.33583,34.29971 z" /><path
       style="fill:#999999;fill-opacity:1;stroke:none;stroke-width:1453.96;stroke-dasharray:none;paint-order:markers stroke fill"
       d="m 1944.8383,426.40808 c -138.7227,1.17102 -272.8524,46.73055 -407.0782,79.21998 -124.8861,41.29354 -266.4188,51.44449 -368.5126,147.80439 -72.8847,65.52274 -156.8416,118.03409 -223.24805,191.11548 -54.09007,95.91624 -57.10459,213.85167 -58.03265,322.77097 0.26218,100.6627 92.29862,158.3889 163.5984,204.2511 87.6881,52.7472 187.8502,74.9118 276.4153,126.2619 137.9476,69.4379 294.0332,83.4856 444.6656,76.9298 174.2917,7.8218 341.8809,-50.1847 509.6458,-91.3897 173.027,-45.5827 353.1665,-108.907 478.7178,-250.4757 47.9391,-50.8882 53.3086,-125.1919 49.3066,-193.0888 -2.3651,-81.84823 -0.2886,-165.60119 -8.6171,-246.1934 -29.8423,-84.91529 -96.1855,-146.35906 -171.102,-185.49876 -119.7874,-64.3517 -240.7491,-136.91079 -377.0469,-150.1992 -102.2617,-16.50275 -204.925,-33.90606 -308.712,-31.50806 z"
       id="path17759" /><path
       style="fill:#666666;fill-opacity:1;stroke:none;stroke-width:58.1584;stroke-dasharray:none;paint-order:markers stroke fill"
       id="path17863"
       d="m 1002.1647,765.96485 c -3.45865,1.2192 -7.27145,3.40006 -10.58309,5.52474 -5.97866,3.44863 -10.49204,9.09913 -14.90784,14.47699 -2.00165,2.82491 -4.50657,5.12596 -7.00489,7.43149 -3.69343,3.27448 -7.18888,6.78473 -10.76731,10.19947 -4.77238,4.9175 -9.84528,9.49016 -14.75635,14.24961 -5.29702,5.67926 -10.62128,11.3429 -15.47313,17.46377 -4.53103,5.75043 -8.07448,12.1533 -11.2471,18.82373 -3.1321,7.92157 -6.05644,15.94967 -8.87741,24.0056 -2.23678,7.49474 -5.05288,14.76396 -7.77263,22.06759 -3.26767,9.35107 -5.84373,18.9469 -8.75693,28.42395 -1.92794,6.3114 -3.54062,12.73834 -4.96728,19.19788 -1.66642,7.73271 -3.19264,15.49596 -4.57027,23.29312 -1.22033,6.51386 -2.35617,13.0392 -3.36934,19.59287 -1.32618,8.87505 -1.56702,17.87434 -1.78376,26.84114 -0.46882,7.7824 -0.83578,15.5675 -1.02887,23.3632 -0.28893,3.5095 -0.18485,7.0769 -0.70348,10.5657 -0.45559,3.0648 -1.51784,6.1885 -2.29996,9.1625 -1.96229,7.428 -3.47223,14.9808 -4.41232,22.6306 -0.60726,5.302 -0.50928,10.6528 -0.50704,15.9827 0.0149,6.5464 0.0299,13.0927 0.038,19.6391 0.007,6.1879 0.008,12.3758 0.008,18.5637 -0.0651,8.2048 -0.0181,16.3997 0.33242,24.5965 0.29107,7.2392 0.75046,14.536 2.0932,21.6558 0.66383,3.52 1.58891,6.9986 2.4638,10.4641 1.95799,6.9366 4.36561,13.7406 7.31237,20.2689 2.27724,5.1261 3.81185,10.6064 5.4036,16.0084 2.18481,6.6667 4.8094,13.1509 7.16653,19.7472 2.04736,6.0115 3.69854,12.1722 5.61706,18.2391 1.6305,5.355 3.61129,10.5812 5.47828,15.8478 2.31552,6.2543 5.31258,12.1895 8.53272,17.9608 2.69385,5.3613 6.31292,10.1272 10.02096,14.7236 2.88648,3.1866 5.76953,6.3766 8.67716,9.5414 2.64465,2.9401 4.70417,6.3422 6.83312,9.6987 2.13431,3.1867 4.03292,6.5233 6.14229,9.729 15.26451,23.1527 46.02819,0.1766 30.76365,-22.9762 v 0 c -1.97865,-2.9968 -3.72684,-6.1623 -5.75752,-9.1341 -3.39211,-5.3477 -6.86354,-10.6479 -11.1121,-15.2842 -2.36026,-2.5687 -4.67481,-5.1962 -7.08933,-7.7018 -2.31992,-2.8414 -4.65254,-5.7321 -6.22233,-9.1238 -2.10962,-3.7146 -4.05229,-7.5541 -5.62851,-11.5607 -1.70811,-4.8134 -3.54163,-9.5818 -5.01968,-14.4801 -2.07349,-6.5568 -3.84712,-13.2184 -6.10949,-19.7018 -2.09919,-5.8719 -4.38441,-11.663 -6.44902,-17.5493 -2.18988,-7.3654 -4.35561,-14.7987 -7.5727,-21.7438 -2.08142,-4.0451 -3.22048,-8.6232 -4.70324,-12.932 -0.10795,-0.4234 -1.54685,-6.0259 -1.70239,-6.7782 -1.13385,-5.4836 -1.34801,-11.1633 -1.5957,-16.7497 -0.32902,-7.5878 -0.34706,-15.1733 -0.29305,-22.769 0,-6.2044 0,-12.4088 -0.008,-18.6133 -0.008,-6.5352 -0.0228,-13.0704 -0.038,-19.6057 -0.003,-3.6322 -0.10547,-7.2804 0.20499,-10.9018 0.65772,-5.7426 1.89951,-11.3873 3.3368,-16.9612 0.79166,-3.0384 1.85854,-6.965 2.47089,-10.0284 1.27827,-6.3949 1.68586,-12.8676 1.89739,-19.3882 0.18873,-7.8041 0.6029,-15.5937 1.02941,-23.3866 0.16891,-7.1331 0.29925,-14.2983 1.29746,-21.36661 0.96799,-6.26324 2.05793,-12.49809 3.22563,-18.72321 1.27288,-7.27035 2.70849,-14.50377 4.26085,-21.71181 1.0894,-5.30141 2.54181,-10.53526 4.05846,-15.71287 2.6719,-8.70619 5.07434,-17.50464 7.97815,-26.12816 2.81195,-7.56771 5.73777,-15.09633 8.05769,-22.8582 2.31867,-6.66363 4.8389,-13.24834 7.19129,-19.89785 0.65034,-1.37229 1.21011,-2.7944 1.91235,-4.1374 1.31442,-2.5137 3.07394,-4.73678 4.62912,-7.07641 3.69992,-4.78843 7.95306,-9.04211 11.94562,-13.54574 4.83627,-4.6913 9.83745,-9.1948 14.53821,-14.03977 3.43325,-3.27732 6.77116,-6.66189 10.32878,-9.78747 3.81909,-3.53862 7.58401,-7.18873 10.74621,-11.4177 1.7916,-2.22845 0.9305,-1.20409 3.1208,-3.68953 0.5066,-0.57486 1.0911,-1.08093 1.5239,-1.72045 0.1545,-0.22847 -0.9924,0.35972 -0.7689,0.20907 0.7074,-0.47691 1.4571,-0.87871 2.1856,-1.31805 2.4618,-1.63179 5.1553,-2.7324 7.8435,-3.9116 23.769,-12.64909 6.9618,-48.42618 -16.8072,-35.77709 z" /><path
       style="fill:#666666;fill-opacity:1;stroke:none;stroke-width:58.1584;stroke-dasharray:none;paint-order:markers stroke fill"
       id="path17865"
       d="m 1007.414,808.67725 c -0.035,0.0185 -0.1393,0.072 -0.1037,0.0556 2.1104,-0.97504 4.0375,-2.03367 5.9338,-3.45731 1.6746,-1.2572 2.5199,-2.1418 3.9962,-3.55696 2.4048,-2.18892 4.5071,-4.69738 6.6697,-7.14324 0.797,-0.91858 1.4902,-1.49535 2.4521,-2.40753 1.4799,-1.3944 1.0914,-1.0842 2.8546,-2.8177 0.1677,-0.16489 -0.3183,0.34848 -0.4775,0.52274 -0.3022,0.30985 0.047,-0.0565 0.3593,-0.26993 0.1355,-0.0926 -0.5383,0.30392 -0.378,0.3202 0.1795,0.0182 0.3046,-0.20545 0.4542,-0.31245 1.5931,-1.13951 1.0763,-0.77899 3.0177,-2.38284 3.0445,-2.81569 5.4991,-6.2335 7.7953,-9.73725 2.3928,-3.82955 3.7816,-8.16819 4.9697,-12.55048 0.2733,-0.93935 0.6754,-1.80785 1.0405,-2.74656 0.689,-2.09553 1.4383,-4.16332 2.1687,-6.24221 1.7038,-4.47992 -0.4415,0.68985 0.4081,-1.16144 0.049,-0.10594 -0.082,0.21926 -0.1222,0.3289 0.1006,-0.23087 0.2011,-0.46175 0.3017,-0.69265 11.1452,-25.67657 -22.9719,-42.45237 -34.1172,-16.7758 v 0 c -0.6415,1.48781 -1.2133,2.94534 -1.7507,4.48178 -0.01,0.0209 0.022,-0.0382 0.032,-0.0572 -0.5439,1.61988 -1.218,3.19217 -1.6575,4.85132 -0.8946,2.31471 -1.8376,4.61592 -2.444,7.04172 -0.1451,0.55521 -0.3222,1.10083 -0.457,1.65894 -0.01,0.0283 0.077,0.018 0.07,0.0462 -0.1135,0.42843 -0.8757,1.51098 0.5723,-0.81841 -0.2987,0.51323 -0.6504,0.99856 -0.9955,1.47809 -0.6669,0.92644 -0.6222,0.80507 0.3889,-0.0646 0.1755,-0.12443 0.3471,-0.25548 0.5266,-0.37335 0.081,-0.0529 -0.1506,0.1221 -0.2292,0.17809 -0.2749,0.19563 -0.5578,0.37833 -0.831,0.57658 -1.0809,0.78449 -1.3897,0.99872 -2.2268,1.69672 -0.3728,0.31083 -0.7424,0.626 -1.1137,0.93901 -0.6977,0.63473 -1.5042,1.34646 -2.1207,2.03996 -0.2835,0.31885 1.2568,-1.13599 0.9271,-0.87225 -0.7027,0.56203 -1.311,1.24198 -1.9722,1.8547 -1.70066,1.61367 -3.41967,3.21106 -4.95199,5.01124 -1.4843,1.70569 -2.91054,3.4631 -4.59948,4.95363 -0.10213,0.1116 -0.43718,0.26466 -0.30648,0.3348 0.14751,0.0791 0.28064,-0.18573 0.42486,-0.2713 0.30639,-0.18174 0.614,-0.36137 0.92678,-0.53046 0.5378,-0.29083 2.01618,-0.76298 -0.23968,0.10591 -24.42583,11.14174 -9.62152,47.90752 14.80439,36.76581 z" /><path
       style="fill:#666666;fill-opacity:1;stroke:none;stroke-width:58.1584;stroke-dasharray:none;paint-order:markers stroke fill"
       id="path17869"
       d="m 1176.2021,603.53939 c -6.7308,8.67908 -12.5887,18.06684 -18.3453,27.49172 -4.8613,8.62952 -10.1407,16.96913 -15.6481,25.14325 -5.376,8.29889 -10.2637,16.96241 -14.6716,25.88212 -4.7046,9.75268 -8.2044,20.09936 -12.1542,30.21269 -3.5538,8.07363 -7.6181,15.85934 -11.8444,23.55101 -5.5132,9.96138 -12.3004,19.04016 -19.1311,28.00006 -5.0394,6.33857 -10.5179,12.30879 -16.0993,18.11145 -8.7702,8.1163 -16.34,17.50277 -23.979,26.7789 -6.1686,8.40915 -12.5647,16.61009 -18.8788,24.89427 -6.4087,8.88072 -13.2739,17.36445 -20.0828,25.89525 -6.90958,8.60401 -12.98821,17.89827 -19.50542,26.83052 -7.20728,10.23374 -14.3476,20.53392 -20.54717,31.49537 -3.73093,6.98563 -6.49659,14.46956 -9.16008,21.96557 -0.8167,2.29844 -3.79008,10.78995 -4.38488,13.20459 -0.97617,3.96267 -1.65964,8.00055 -2.48946,12.00081 -4.17991,25.01855 -6.74282,50.30093 -8.27287,75.64733 -0.76295,16.3524 -1.176,32.737 -2.35294,49.0657 -0.20706,2.8728 -1.57795,17.1412 -1.84179,19.9213 -1.71376,22.8865 -5.02351,45.5825 -7.77694,68.3416 -2.19373,15.905 -2.92635,31.9341 -3.23182,47.9841 -0.0542,15.8297 -0.39325,31.6717 0.0869,47.4963 0.53712,11.0055 2.40806,21.8778 5.30016,32.4441 2.04943,7.1389 5.21211,13.8869 8.67375,20.3583 3.03342,5.2971 6.61943,10.1809 10.13542,15.1142 16.06161,22.5336 46.00259,-1.6423 29.94101,-24.1759 v 0 c -2.6073,-3.6575 -5.29347,-7.2502 -7.62763,-11.1183 -2.12967,-3.6166 -3.81735,-7.6218 -5.11834,-11.6471 -2.14256,-7.2225 -3.19988,-14.7938 -3.74377,-22.3281 -0.50725,-15.1039 -0.0721,-30.2321 -0.0729,-45.3418 0.2721,-14.6109 0.90559,-29.2016 2.93174,-43.6785 2.79592,-23.1216 6.15096,-46.1798 7.8944,-69.4303 2.2221,-23.4315 3.61452,-46.9164 4.30869,-70.4595 1.39459,-23.4574 3.78003,-46.84792 7.55532,-70.0159 0.44112,-2.47663 0.74627,-4.98512 1.32334,-7.42987 0.4421,-1.87285 1.12418,-3.67247 1.72723,-5.4937 2.47626,-7.47837 5.08286,-14.96534 8.51598,-22.01294 5.24707,-9.6281 11.79297,-18.38269 17.91817,-27.38548 6.1717,-8.47117 11.9492,-17.26621 18.4567,-25.45601 6.9946,-8.76456 14.0455,-17.4829 20.6342,-26.60222 6.0065,-7.89202 12.1369,-15.66915 17.9524,-23.7245 7.0168,-8.52757 13.9467,-17.17431 22.0416,-24.59635 6.5685,-6.89129 13.0634,-13.91846 18.9649,-21.46612 8.0224,-10.5442 15.9323,-21.2666 22.3811,-33.0018 5.0761,-9.24735 9.9388,-18.62804 14.1034,-28.38709 3.5378,-9.06394 6.6714,-18.33901 10.7988,-27.12011 3.4835,-7.287 7.6157,-14.23223 11.8733,-21.02903 5.8321,-8.67246 11.4574,-17.49994 16.6136,-26.64899 4.9405,-8.10263 9.9343,-16.20139 15.6998,-23.67354 17.0127,-21.72856 -11.8587,-47.33594 -28.8713,-25.60736 z" /><path
       style="fill:#666666;fill-opacity:1;stroke:none;stroke-width:58.1584;stroke-dasharray:none;paint-order:markers stroke fill"
       id="path17871"
       d="m 1100.3532,677.50597 c -6.2226,13.56587 -11.7239,27.47772 -17.2689,41.36662 -4.3011,10.79032 -8.8029,21.55904 -14.1794,31.80181 -2.1991,3.58137 -4.3974,7.16594 -6.6339,10.72123 -1.331,2.11582 -3.814,5.52341 -4.4974,7.8205 -1.0301,3.46189 -1.4065,7.10668 -2.1096,10.66004 12.5426,18.8545 8.616,24.76232 31.5757,15.75482 2.7844,-1.09236 4.2376,-4.44235 6.101,-6.90052 3.6295,-4.78832 7.1462,-13.07734 9.7913,-18.5906 6.7399,-15.91236 17.6391,-35.73055 -2.7166,-49.13815 -5.3891,-3.54965 -12.669,-0.42916 -19.0034,-0.64373 -18.2089,6.86361 -32.8514,20.49571 -47.4281,33.499 -3.2785,3.20783 -25.8737,24.01266 -20.6521,30.15356 23.2438,27.33587 24.5721,22.23068 39.4916,11.0155 6.9602,-5.96223 13.8384,-12.05426 20.3298,-18.59521 1.5454,-1.55718 3.1772,-3.03916 4.5323,-4.78562 1.5209,-1.96001 5.7313,-4.47167 4.0577,-6.28515 -8.7808,-9.51487 -20.5965,-15.19693 -30.8947,-22.79542 -2.4435,2.64673 -5.0128,5.16829 -7.3306,7.94017 -5.0445,6.03287 -10.5487,14.09901 -14.8457,20.64975 -2.7223,4.15031 -12.4116,19.62867 -14.9024,23.95866 -2.5781,4.48196 -4.9445,9.09812 -7.4167,13.64721 -8.82233,17.90919 -17.21622,36.05773 -25.73068,54.13634 -2.45366,4.92006 -4.56225,10.04319 -7.25182,14.82992 -0.59828,1.06476 -1.43372,1.98189 -1.92642,3.10624 -1.14282,2.60784 -4.58,5.73661 -2.95745,8.03833 6.78327,9.62252 16.96134,15.90508 25.44198,23.85761 3.94837,-2.49341 8.11139,-4.63701 11.84519,-7.48022 3.3731,-2.56852 6.3568,-5.67822 9.3895,-8.68931 11.828,-11.74319 21.5848,-25.0417 30.6863,-39.19911 5.2902,-8.71969 10.018,-17.87226 12.6688,-27.91476 1.2416,-4.70365 1.4732,-7.09916 2.16,-11.77438 -0.077,-7.88519 0.8958,-15.23497 -6.3673,-21.50792 -4.7715,-4.121 -11.2526,-5.75001 -17.3362,-6.67084 -3.6367,-0.55046 -7.2666,1.28696 -10.7838,2.41454 -6.3519,2.03631 -13.6694,6.30282 -19.5113,9.42228 -15.04502,8.60452 -30.37696,19.15893 -42.69581,31.87695 -2.32829,2.40377 -4.43504,5.03926 -6.65256,7.55888 -8.49027,11.09737 -15.95039,23.05833 -23.08392,35.17588 -7.309,13.02422 -15.70266,25.29017 -23.11658,38.24197 -7.77011,13.80996 -13.49975,28.6234 -17.46991,44.11774 -4.09865,15.43989 -4.52324,31.49788 -4.98846,47.42052 -0.35344,15.1062 -0.29646,30.2184 -0.27946,45.3279 -0.37753,15.9371 -0.91039,31.8692 -1.2172,47.8084 -0.27881,17.2318 0.35171,34.4775 1.72562,51.6451 1.4003,14.7293 2.8424,29.4544 3.7977,44.2254 0.89829,8.3693 0.30033,17.24 3.90752,25.0615 5.12843,11.1199 9.50028,14.3383 17.54416,22.8273 9.21953,8.0294 8.97114,8.1382 18.10683,14.967 3.46958,2.5935 8.67566,6.4712 12.82304,7.8367 2.93808,0.9674 6.52282,3.5682 9.079,1.7481 7.8255,-5.5721 12.86482,-14.6354 19.29724,-21.9531 -3.32559,-6.1811 -5.62785,-13.1295 -9.97676,-18.5434 -2.91857,-3.6333 -17.24215,-11.2335 -21.50877,-13.582 -2.8477,-1.5675 -5.78355,-2.9586 -8.57198,-4.6425 -1.61549,-0.9756 -3.75212,-1.5717 -4.61627,-3.3217 -0.6563,-1.329 2.58188,1.2108 3.87284,1.8162 0.31518,-0.1643 0.7963,-0.1549 0.94558,-0.4929 0.36704,-0.8312 0.30358,-1.8083 0.46864,-2.7097 0.2118,-1.1568 0.3971,-2.3203 0.66193,-3.4647 1.24411,-5.3756 2.52502,-10.6204 3.53059,-16.0718 2.65136,-16.2313 2.75455,-32.6819 2.50196,-49.0953 -0.37244,-13.5665 -0.55184,-27.1363 -0.6576,-40.7077 -0.10283,-18.662 -0.0935,-37.3245 -0.0967,-55.9868 0.71069,-21.5631 0.19289,-43.20915 2.19162,-64.69599 1.36002,-11.10025 4.28119,-21.95044 8.1373,-32.35267 0.87379,-2.35717 1.72847,-4.73329 2.82908,-6.98029 1.04258,-2.12857 2.38817,-4.07281 3.58228,-6.1092 5.00905,-7.94303 10.53163,-15.54864 16.58567,-22.62534 3.74742,-4.38047 3.03491,-3.47279 1.75243,-1.64505 -7.40594,3.78884 -8.845,5.85809 -19.67171,-0.96419 -15.62478,4.61613 -2.76925,-9.86073 -6.46304,-12.57665 -0.59436,-0.43702 -0.37098,1.48651 -0.58056,2.22231 -0.28956,1.01664 -0.61106,2.02266 -0.91658,3.03398 -4.18544,11.581 -7.61734,23.42578 -11.00908,35.28904 -5.33156,21.4394 -11.25872,42.69708 -16.33557,64.20778 -1.6967,8.84837 -4.57872,17.65177 -4.94477,26.75807 -0.11343,2.8221 -0.2998,5.7186 0.31028,8.4677 0.83673,3.7702 1.46413,8.0178 3.9715,10.826 3.84147,4.3025 9.44028,6.3211 14.16043,9.4816 4.33752,-0.6931 8.90432,-0.444 13.01257,-2.0793 9.83504,-3.9147 17.82147,-21.0654 22.66867,-30.4335 5.24227,-8.7404 -2.95541,5.5897 -8.47783,5.763 -6.89383,0.2165 -12.86831,-5.3067 -19.4258,-7.5809 -0.24501,-0.085 -0.41363,0.4328 -0.39627,0.7065 0.11355,1.7901 0.56238,3.539 0.77848,5.3184 0.29453,2.4251 0.50198,4.8612 0.75298,7.2918 0.92563,12.9812 2.02489,25.9522 2.83104,38.9435 0.82683,10.0256 2.05298,20.0039 2.87342,30.0301 0.6403,7.9546 0.74767,15.9393 0.81496,23.9177 0.0439,9.2674 0.0246,18.535 0.0166,27.8025 -0.007,6.8128 -0.011,13.6257 -0.0127,20.4385 -0.003,8.1833 0,16.3665 0,24.5498 0.26552,7.1832 0.98561,14.3301 1.29227,21.511 0.18921,7.2279 1.02233,14.411 1.42848,21.6265 0.76388,7.2106 1.35637,14.4314 1.68312,21.6793 0.26132,6.7502 0.25724,13.5076 0.27056,20.2623 -0.19723,7.6281 0.11363,15.2188 0.77675,22.8115 0.70301,6.2146 1.40347,12.4385 2.21133,18.6404 0.79445,5.9428 2.23525,11.7766 3.86871,17.5148 -0.27944,-1.519 0.75591,3.1601 0.54844,2.3753 -1.01485,-3.8387 0.35531,-7.2445 1.88958,-10.694 9.88505,-9.5873 2.76805,-5.1071 22.18745,-5.8125 0.14692,-0.01 0.42566,-0.1513 0.35012,-0.2855 -0.61233,-1.0875 -1.49281,-1.9771 -2.19896,-2.9982 -1.13646,-1.6432 -2.18314,-3.3557 -3.3275,-4.9927 -1.69421,-2.4236 -3.45781,-4.7913 -5.18673,-7.187 -6.52782,-9.6347 -14.10276,-18.4957 -19.74053,-28.7848 -3.92911,-7.7708 -8.39438,-15.3472 -11.11401,-23.7233 -3.43156,-11.8128 -6.48307,-23.7231 -8.84239,-35.8302 -3.08063,-15.3302 -3.76634,-30.9908 -4.2675,-46.6063 0.41266,-17.2973 1.37083,-34.5959 2.3094,-51.8739 0.89411,-20.512 1.95509,-41.0045 4.4786,-61.3691 1.97822,-16.7346 5.85228,-33.085 9.42198,-49.4856 3.59854,-15.39665 0.60643,-2.1201 0.27879,-2.105 -11.18498,0.5163 -22.37441,-2.9399 -33.53433,-1.9907 -1.50827,0.1283 0.1179,3.2184 0.18097,4.8274 0.49596,12.656 0.17247,6.501 1.22978,20.7669 1.33365,15.7054 3.90465,31.2415 6.37516,46.7752 4.44156,27.8865 41.49501,21.201 37.05348,-6.6854 v 0 c -2.29292,-14.3741 -4.69652,-28.7479 -5.96614,-43.2781 -1.05263,-13.7984 -0.6352,-6.8311 -1.24019,-20.9029 -0.24633,-3.5236 1.91598,-8.9018 -1.0235,-10.544 -31.41438,-17.54979 -34.80165,-18.07218 -39.9666,4.1095 -3.84519,17.6672 -7.95937,35.294 -10.07376,53.3224 -2.60427,21.3286 -3.83942,42.7743 -4.73404,64.2569 -0.99964,18.5015 -2.08637,37.0268 -2.34941,55.5541 0.58468,17.9105 1.50012,35.8592 5.04479,53.4357 2.77698,13.9749 6.21907,27.7729 10.33299,41.3731 3.76495,10.6458 8.80508,20.6555 14.1479,30.4969 6.56957,11.5282 14.56585,21.9444 22.22084,32.6645 1.48535,2.0474 3.00056,4.0706 4.45603,6.1422 3.20442,4.5607 5.6842,8.7957 9.42143,12.8753 1.86509,2.036 3.39323,4.9157 5.96037,5.7033 20.01035,6.1393 17.07273,5.4169 28.4354,-4.2132 1.09787,-2.0241 2.50851,-3.8895 3.29341,-6.0722 2.49123,-6.9278 1.92533,-13.9576 -0.0855,-20.8492 -1.07945,-3.7871 -2.10957,-7.6163 -2.62633,-11.5396 -0.77146,-5.5562 -1.33266,-11.1551 -1.99955,-16.7244 -0.56176,-6.3888 -0.80915,-12.7599 -0.61447,-19.1822 -0.015,-7.3744 -0.0169,-14.7516 -0.31485,-22.1207 -0.34224,-7.4052 -0.86007,-14.7975 -1.70779,-22.1588 -0.4046,-7.0234 -1.18582,-14.017 -1.39951,-21.0498 -0.28878,-6.566 -0.82542,-13.1089 -1.25225,-19.6653 0,-8.1795 -2e-4,-16.359 0,-24.5386 0.003,-6.8043 0.007,-13.6087 0.0127,-20.413 0.008,-9.4009 0.0278,-18.8018 -0.0181,-28.2025 -0.0779,-9.0212 -0.22363,-18.0485 -0.95652,-27.0418 -0.80491,-9.746 -1.94681,-19.4509 -2.81275,-29.1903 -0.85222,-13.6183 -1.98084,-27.2181 -2.99009,-40.8229 -0.57556,-5.2355 -1.2299,-12.7843 -2.45957,-17.9845 -0.77881,-3.2935 -0.45634,-7.52303 -2.8969,-9.71092 -6.34605,-5.68907 -13.6586,-11.78975 -21.92565,-12.54186 -8.52224,-0.7753 -12.74894,8.00283 -16.21605,13.98104 -2.27674,4.40724 -4.57602,8.76574 -7.02602,13.06534 -0.29859,0.5241 -1.45082,1.6266 -0.87641,1.5843 1.3015,-0.096 2.35894,-1.1868 3.53841,-1.7802 3.00764,-0.095 6.01525,-0.1907 9.02286,-0.286 3.45871,2.8903 7.57002,5.0675 10.3761,8.671 1.35412,1.739 1.13576,4.3597 1.5031,6.5842 0.0246,0.1482 -0.4234,0.1107 -0.42235,-0.04 0.0524,-7.4299 2.94462,-14.5773 4.08368,-21.7999 4.91518,-20.87312 10.70332,-41.48655 15.83792,-62.29843 3.38682,-11.84656 6.87039,-23.64481 10.99245,-35.23105 1.58145,-5.65697 4.64316,-15.421 3.06725,-21.12036 -1.36101,-4.92212 -2.80392,-10.56333 -6.63579,-13.6766 -11.57128,-9.40134 -15.46796,-5.8828 -25.2801,-2.11638 -1.9133,1.53572 -3.93466,2.9297 -5.73985,4.60714 -1.78144,1.65539 -6.843,7.93038 -8.1495,9.5845 -5.83853,7.39188 -11.38044,15.05921 -16.25534,23.21409 -1.93637,3.59807 -4.05732,7.09049 -5.8091,10.79416 -1.40279,2.96576 -2.5089,6.0825 -3.63749,9.17797 -4.9295,13.52042 -8.50809,27.63337 -10.16567,42.03925 -0.34477,3.98145 -0.79589,7.95409 -1.03429,11.94437 -1.1238,18.80984 -0.5839,37.72424 -1.3265,56.54994 0.003,18.7706 -0.007,37.5414 0.0981,56.3117 0.10695,13.6823 0.28506,27.3633 0.6615,41.0407 0.21699,13.6581 0.26594,27.3432 -1.83007,40.8713 -1.00361,5.7127 -2.60147,11.233 -3.67501,16.9198 -1.96809,10.4254 -2.01857,20.3623 1.07515,30.6495 3.18688,4.8207 5.76324,10.1715 9.56063,14.4619 2.17538,2.4579 5.28298,3.7504 8.03892,5.4231 5.30118,3.2175 10.86796,5.9118 16.30505,8.8613 1.5982,0.867 4.05161,4.3143 4.80412,2.5811 1.33025,-3.0637 -1.06024,-6.6552 -1.59036,-9.9828 18.37167,-17.4668 11.52073,-21.488 24.34941,-16.746 0.29814,0.1102 -0.66659,0.048 -0.94021,-0.1189 -1.72675,-1.0566 -3.34898,-2.2975 -4.98495,-3.5068 -7.10149,-5.2491 -7.11161,-5.473 -14.15056,-11.4535 -1.92804,-1.8502 -3.79306,-3.7776 -5.78409,-5.5505 -0.70908,-0.6314 -1.50962,-1.1395 -2.3007,-1.6488 -0.23407,-0.1506 -0.69847,-0.04 -0.76251,-0.3231 -0.33706,-1.4905 -0.22896,-3.0565 -0.3473,-4.5844 -0.0307,-0.3965 -0.7221,-9.1328 -0.76332,-9.6535 -0.97596,-15.0031 -2.41018,-29.9629 -3.84866,-44.9225 -1.30677,-15.7436 -1.81451,-31.5711 -1.59322,-47.3754 0.31078,-16.2276 0.87426,-32.4473 1.225,-48.6737 -0.0166,-14.6836 -0.0743,-29.3696 0.26174,-44.0501 0.36677,-12.84444 0.46064,-25.84273 3.73019,-38.3158 2.89824,-11.87725 7.44925,-23.11715 13.29567,-33.70564 7.27572,-12.83285 15.70663,-24.87052 22.8565,-37.79237 5.8925,-10.07052 12.1278,-19.94617 18.92426,-29.35277 1.25762,-1.51799 2.42014,-3.13155 3.77283,-4.55395 9.95362,-10.46666 22.6115,-19.19457 34.8636,-26.22746 2.4997,-1.36885 4.9724,-2.7953 7.4992,-4.10655 1.7138,-0.88926 3.5692,-1.4741 5.2181,-2.49277 0.2613,-0.16139 0.5408,-0.7275 0.2937,-0.91239 -4.6454,-3.4762 -17.2706,-7.47247 -13.1871,-17.6957 -0.3627,2.89012 -0.6749,5.87938 -1.5945,8.64743 -1.7066,5.13718 -4.4959,9.78553 -7.1299,14.41323 -5.2821,8.31776 -10.7166,16.37435 -17.12022,23.78414 -2.37792,2.75158 -4.8838,5.37683 -7.41141,7.97292 -1.99809,2.05224 -4.30346,3.77063 -6.16105,5.96728 -0.34383,0.40659 -0.16926,1.07911 -0.25391,1.61867 6.96998,8.40092 14.73191,16.12699 20.91009,25.20275 0.6493,0.95385 -2.3074,4.01789 -1.6782,3.04896 4.4111,-6.79199 7.618,-14.32952 11.1609,-21.64189 8.1755,-17.39095 16.294,-34.81742 24.694,-52.08481 10.2549,-19.04514 21.4733,-37.63913 34.8143,-54.43115 -8.4578,-9.10224 -17.9963,-17.19556 -25.3735,-27.30677 -0.9039,-1.23896 4.2418,-3.44725 2.7814,-3.65826 -1.5659,-0.22622 -2.1985,2.41774 -3.3432,3.57709 -5.5666,5.63745 -11.4799,10.87032 -17.4262,16.04266 -12.1231,10.93563 2.7322,-4.42184 20.4149,24.34133 1.8739,3.04826 -3.447,6.36471 -4.4564,9.84554 -0.3804,1.31159 1.6237,-2.13667 2.51,-3.13373 2.7514,-3.09483 6.3896,-6.61193 9.2933,-9.49605 10.2664,-9.17091 20.4635,-18.76145 32.4403,-25.35391 -2.9171,-1.12895 -6.7583,-0.8541 -8.7514,-3.38682 -3.716,-4.72231 -5.245,-11.02202 -7.161,-16.83446 -0.2506,-0.7602 1.0256,-3.01945 0.8766,-2.22959 -0.4756,2.51997 -2.8125,7.83344 -3.552,9.6362 -0.775,1.88918 -1.5648,3.77145 -2.3472,5.65719 -2.9698,6.23181 -2.233,4.81872 -5.1429,10.46445 -0.3703,0.71845 -1.8919,2.02137 -1.1306,2.14369 1.0306,0.1656 1.5266,-1.75284 2.5578,-1.91434 22.0082,-3.44697 14.9429,-3.63705 27.3215,16.96106 -0.7078,2.67067 -1.3904,5.34913 -2.1237,8.01208 -0.035,0.12695 -0.039,-0.28416 0.026,-0.39592 0.8246,-1.38462 1.7638,-2.6883 2.6212,-4.05016 2.7376,-4.34806 5.4657,-8.70929 8.0227,-13.18101 5.9298,-11.49427 11.1253,-23.42558 15.8807,-35.51722 5.6501,-14.15225 11.3299,-28.28518 17.5742,-42.1545 9.8695,-26.26127 -25.0245,-41.11691 -34.894,-14.85561 z" /><path
       style="fill:#000000;fill-opacity:1;stroke:none;stroke-width:58.1584;stroke-dasharray:none;paint-order:markers stroke fill"
       id="path17757"
       d="m 964.64743,819.43167 c 39.95917,-32.12129 79.09707,-65.3799 118.48617,-98.28557 23.3579,-18.5235 47.3299,-36.21214 70.054,-55.62351 15.1366,-13.47758 30.8395,-26.20277 46.4252,-39.07869 14.6054,-11.77478 30.0041,-22.44874 45.6249,-32.62884 16.2101,-10.50759 34.5302,-16.05188 52.2352,-22.88445 3.2835,-1.29945 6.5673,-2.59876 9.8508,-3.89832 4.8163,-1.90616 14.5177,-5.85626 19.4506,-7.36703 12.0679,-3.69602 24.6703,-5.861 36.957,-8.53998 22.6791,-5.2954 45.4579,-10.14982 68.0002,-16.08093 26.2691,-7.65169 52.5412,-15.24897 78.7333,-23.19747 26.3645,-8.50453 53.113,-15.47347 79.7373,-22.96287 29.5775,-8.70464 59.6256,-15.33017 89.5749,-22.36851 29.6954,-7.28724 59.629,-13.34326 89.5084,-19.68969 22.5769,-5.36717 45.2282,-10.36468 67.8113,-15.70132 14.9242,-3.47105 30.0204,-6.03959 45.2611,-7.17616 20.0591,-0.77489 40.1433,-0.56571 60.2128,-0.55322 26.0887,0.0292 52.1775,0.0623 78.2662,0.0805 38.0647,2.17781 75.8778,6.98738 113.571,12.88894 26.2191,3.56177 52.0452,9.58784 78.182,13.67234 13.8228,2.16017 31.9425,4.57592 45.7535,6.46901 32.9625,4.14698 65.7303,9.3631 98.0572,17.4094 22.0406,5.15874 42.6244,14.84328 63.2924,24.15945 33.7514,15.90852 67.3588,32.21357 100.7022,49.07174 21.7657,10.45075 42.9416,22.20434 64.3517,33.43743 22.8976,10.63466 45.4894,21.86779 67.2276,34.99951 20.6457,12.91024 40.6127,27.02406 59.2187,43.07485 14.6571,13.14104 28.8782,26.79057 41.8321,41.83581 12.1887,13.92815 20.3569,31.13627 29.3224,47.45181 9.4749,17.71097 17.684,36.09001 23.1403,55.64237 4.5134,33.27279 4.461,67.10035 4.8744,100.66351 0.2436,26.90288 0.1536,53.80728 0.088,80.71077 -0.2042,19.36475 1.3593,38.68495 2.1883,58.01865 0.6488,17.8979 0.7477,35.8114 0.8241,53.7203 0.7256,15.7485 -0.9414,31.3307 -3.3796,46.8308 -3.7323,15.8431 -10.1231,30.6967 -16.7289,45.3608 -8.9008,18.1057 -19.8991,35.007 -31.9184,50.9141 -16.3269,16.3596 -33.3606,31.9918 -50.3462,47.5965 -21.902,18.0838 -45.2208,34.3067 -68.598,50.1599 -24.3033,16.819 -49.8817,31.3688 -75.3696,46.0112 -21.7236,12.7869 -44.7797,22.5187 -67.5844,32.806 -20.5676,8.4998 -41.7391,15.2112 -62.6036,22.8394 -20.9805,7.5691 -42.3639,13.6689 -63.7098,19.9355 -20.431,7.1486 -41.4564,11.9512 -62.1604,18.0297 -26.0957,8.6263 -52.5156,15.7352 -79.1741,22.076 -29.1959,6.7029 -58.1642,14.4273 -87.2258,21.7299 -28.6382,6.8291 -57.1423,14.2615 -85.7182,21.3852 -37.8301,8.3843 -75.3891,18.1153 -113.4627,25.2122 -24.69,5.3167 -49.6232,8.0949 -74.7548,9.2078 -28.726,0.6777 -57.4253,2.2189 -86.1448,3.149 -20.3048,0.6431 -40.6126,0.9552 -60.9199,0.4058 -31.8988,-1.4458 -63.8628,-1.0603 -95.6968,-3.8172 -23.9132,-2.3305 -47.8721,-4.4025 -71.6796,-7.7736 -23.4714,-4.8585 -47.0774,-8.8774 -70.6275,-13.2807 -23.2008,-4.6891 -46.3729,-9.1757 -69.1476,-15.8718 -32.0518,-9.4988 -62.4042,-23.7737 -92.0315,-39.6537 -25.3536,-15.6321 -52.0523,-28.4945 -78.6531,-41.4814 -14.8059,-6.3241 -29.0003,-14.2518 -43.9644,-20.1666 -8.5303,-3.3717 -12.8688,-4.5415 -21.5748,-7.247 -19.8503,-6.4273 -40.2296,-11.0973 -59.7391,-18.6626 -14.3416,-5.4789 -27.5767,-13.4915 -40.4755,-22.0065 -16.9299,-11.8231 -35.4573,-20.5718 -52.9764,-31.2966 -14.1926,-9.7069 -28.88744,-18.613 -42.59983,-29.1026 -6.28163,-4.8053 -12.33646,-9.938 -18.52697,-14.8754 -14.0062,-10.7568 -26.48796,-23.2909 -38.34607,-36.602 -8.49367,-9.5085 -15.76518,-19.8584 -22.35312,-30.8952 -4.76288,-7.6354 -8.1828,-15.5383 -10.45579,-24.3264 -3.29107,-12.8304 -6.24194,-25.8185 -8.50194,-38.9052 -1.61383,-10.4738 -1.99235,-21.087 -2.2089,-31.6778 -0.13375,-10.2283 -0.0785,-20.4582 -0.0598,-30.6871 -0.36401,-13.0054 0.24703,-25.9304 1.36413,-38.8726 2.39186,-12.0833 2.93543,-24.4366 4.44313,-36.6445 1.37293,-12.12 3.0531,-24.1896 4.49657,-36.2999 1.94012,-13.85746 3.2787,-27.81209 6.02164,-41.52623 2.74314,-12.22026 4.99704,-24.53672 7.31387,-36.85096 2.92938,-12.91198 6.9061,-25.58809 11.31705,-38.00864 2.97976,-9.65827 6.76943,-18.90961 10.66705,-28.16899 3.16778,-6.83088 6.73042,-13.33185 10.46489,-19.81883 4.74902,-6.15421 8.49251,-13.12685 13.48799,-19.06744 17.26406,-21.50276 -11.30728,-47.48858 -28.5713,-25.98581 v 0 c -6.07358,7.73033 -11.38809,16.05182 -16.97626,24.18038 -4.55865,7.94745 -8.85958,15.98284 -12.70922,24.35294 -4.20848,10.02241 -8.28749,20.05732 -11.5595,30.48312 -5.05128,14.46815 -9.76012,29.15682 -12.97909,44.22113 -2.27214,12.20139 -4.53913,24.39006 -7.24595,36.49636 -2.85247,14.78497 -4.54186,29.75756 -6.51887,44.69607 -1.41699,12.0851 -3.11175,24.1278 -4.4869,36.2187 -1.49532,12.6958 -2.27652,25.4875 -4.59029,38.0711 -1.21428,14.1278 -1.88202,28.2524 -1.52097,42.4461 -0.0194,10.5499 -0.0764,21.1008 0.069,31.6499 0.26928,12.7612 0.80693,25.5448 2.84078,38.1498 2.54227,14.2674 5.64002,28.4587 9.2836,42.4502 3.38016,12.4611 8.18958,24.0115 14.89636,34.8792 7.89522,13.2186 16.70639,25.5947 26.83631,37.0034 13.33565,14.8909 27.35939,28.9572 43.04507,41.0493 6.63814,5.2941 13.14772,10.7742 19.89194,15.9142 14.523,11.0684 30.03708,20.5402 45.08119,30.7564 17.1773,10.4489 35.2426,19.131 51.8713,30.5953 15.1383,9.9753 30.7339,19.2291 47.5533,25.6453 20.3058,7.6924 41.3099,12.9628 61.9754,19.4353 6.6073,2.0296 11.5636,3.4106 17.9951,5.929 14.432,5.6511 28.0738,13.3869 42.3562,19.4292 26.1896,12.7862 52.4665,25.4527 77.4241,40.8524 31.8483,17.0572 64.5229,32.2946 98.9673,42.4942 23.9321,6.9727 48.2347,11.8449 72.6136,16.7007 24.0765,4.493 48.1988,8.6545 72.2074,13.539 24.4475,3.4084 49.0292,5.6448 73.584,7.9887 32.5324,2.754 65.1792,2.5413 97.7773,3.9336 20.9996,0.5412 41.9986,0.2751 62.9954,-0.412 28.8649,-0.9362 57.7098,-2.4804 86.5814,-3.1659 26.7788,-1.2124 53.3627,-4.1433 79.676,-9.7755 38.7608,-7.2662 77.0219,-17.073 115.5317,-25.6632 28.5999,-7.1298 57.1275,-14.5711 85.7905,-21.4032 28.9114,-7.278 57.7367,-14.9435 86.7825,-21.6215 27.2739,-6.4926 54.3139,-13.7538 81.0159,-22.5665 20.6693,-6.1352 41.7102,-10.8266 62.1119,-18.0154 22.0916,-6.4857 44.2134,-12.8332 65.9271,-20.6656 21.6946,-7.933 43.7238,-14.8726 65.0655,-23.8437 23.8833,-10.7855 48.0139,-21.0283 70.7632,-34.432 26.2931,-15.1051 52.6632,-30.1438 77.7356,-47.4915 24.8783,-16.921 49.751,-34.1413 72.9415,-53.6027 9.7362,-8.9492 19.2607,-18.142 28.9534,-27.1412 5.7219,-5.3123 12.4363,-11 17.9147,-16.6145 2.86,-2.9308 5.509,-6.0858 8.2636,-9.1288 13.7289,-18.3428 26.4062,-37.7083 36.4644,-58.6174 8.1274,-18.062 15.8419,-36.464 19.9153,-56.1207 2.7238,-17.7168 4.6399,-35.5481 3.8827,-53.5379 -0.079,-18.4574 -0.1849,-36.9194 -0.8626,-55.3651 -0.8039,-18.6912 -2.3206,-37.3697 -2.1493,-56.08946 0.066,-27.11313 0.1557,-54.2271 -0.092,-81.33958 -0.4603,-37.11099 -0.1664,-75.1454 -6.4785,-111.71021 -6.4769,-22.50831 -15.5978,-43.87569 -26.6744,-64.26475 -10.3286,-18.79359 -19.9386,-38.40528 -34.1068,-54.34081 -14.2569,-16.43534 -29.7373,-31.5219 -45.8644,-45.86076 -20.2499,-17.37709 -41.8613,-32.81714 -64.3276,-46.77471 -22.3842,-13.45655 -45.5342,-25.21664 -69.1269,-36.06871 -21.575,-11.31806 -42.9148,-23.15972 -64.847,-33.69257 -33.8321,-17.09182 -67.9179,-33.654 -102.1681,-49.7721 -22.649,-10.20654 -45.2712,-20.63469 -69.4167,-26.28175 -33.5678,-8.30042 -67.5634,-13.8603 -101.7879,-18.12588 -13.463,-1.84465 -31.2182,-4.21259 -44.7235,-6.31238 -26.2604,-4.08292 -52.2019,-10.18106 -78.5466,-13.73132 -39.4901,-6.17225 -79.1219,-11.21971 -119.0112,-13.31407 -26.0896,-0.0183 -52.1793,-0.0514 -78.2689,-0.0805 -20.9753,-0.013 -41.9687,-0.25194 -62.9306,0.65622 -17.0702,1.33405 -33.9964,4.09122 -50.7129,8.02441 -22.3194,5.27667 -44.7084,10.20831 -67.0199,15.52379 -30.1286,6.40176 -60.3118,12.51191 -90.256,19.85693 -30.4521,7.15793 -61.0022,13.90814 -91.0772,22.75623 -26.8565,7.55983 -53.8389,14.59502 -80.4363,23.16726 -25.7742,7.82198 -51.6274,15.2967 -77.4738,22.84026 -22.0351,5.83599 -44.3291,10.50235 -66.498,15.71906 -24.5869,5.36228 -48.4016,10.61844 -71.54,21.39243 -20.0811,7.77002 -40.777,14.263 -59.0669,26.39089 -16.7741,10.97748 -33.3416,22.41981 -49.0136,35.12418 -15.7583,13.02102 -31.6359,25.88884 -46.943,39.51436 -22.551,19.37911 -46.5472,36.77456 -69.6952,55.31998 -39.4801,32.98259 -78.71311,66.31135 -118.75911,98.51578 -20.75125,17.66903 2.72611,48.90378 23.47735,31.23475 z" /><path
       style="fill:#cccccc;fill-opacity:1;stroke:none;stroke-width:60.0001;stroke-dasharray:none;paint-order:markers stroke fill"
       id="path17949"
       d="m 1916.6439,633.51004 c 11.0827,-4.15501 22.6071,-5.84959 34.3694,-6.34214 19.9841,-0.4441 39.7968,0.68025 59.4119,4.55009 16.3291,3.46229 32.5301,7.50451 48.6394,11.86924 22.5441,5.56781 43.8844,14.61307 65.1869,23.65907 11.6726,5.06798 23.7596,9.45888 34.6048,16.20673 11.7256,8.48453 23.5473,16.82718 35.4702,25.03236 11.4803,8.19169 23.6371,15.45598 34.5308,24.44205 10.2377,7.78894 19.4445,16.83166 28.2275,26.21121 9.5817,9.52942 17.3467,20.55196 25.7617,31.04886 7.5102,7.66323 14.353,15.90918 21.289,24.08441 7.7585,9.12479 15.8741,17.93986 24.7449,25.99206 10.4434,9.56606 22.5152,16.46301 35.3383,22.25452 9.9147,4.50139 20.4789,7.02734 31.2464,8.30885 10.701,1.11717 17.8559,-0.66927 25.984,-8.86921 3.4738,-3.50446 4.5225,-8.28982 5.9191,-12.73466 3.023,-13.28137 -1.2145,-26.26079 -5.3607,-38.78061 -3.6717,-10.6022 -7.6021,-20.96614 -13.067,-30.78319 -3.7135,-6.17111 -6.3415,-12.77379 -8.9712,-19.43298 -9.4225,-17.52727 -19.4169,-34.78847 -29.9301,-51.69784 -9.0838,-14.1452 -20.6212,-26.17814 -33.2981,-37.09183 -17.9564,-14.71144 -37.0182,-27.92605 -56.4503,-40.58832 -14.4123,-9.72328 -29.7,-18.01331 -44.7182,-26.73229 -11.9625,-8.11651 -25.0068,-14.17492 -38.4694,-19.31551 -15.8305,-6.09486 -32.359,-10.02374 -48.7695,-14.17687 -17.5373,-3.63239 -34.4688,-9.69039 -51.92,-13.63713 -4.3995,-0.99499 -8.8464,-1.76805 -13.2696,-2.65208 -21.402,-4.23389 -43.0967,-6.58079 -64.857,-7.85577 -21.5658,-0.80573 -43.1561,-0.64659 -64.7336,-0.62926 -16.1027,-0.0185 -32.1322,1.89556 -47.3264,7.29877 -12.015,4.77631 -16.0451,7.89879 -21.7146,21.26904 -1.8955,4.47016 -1.6389,11.82661 -1.7359,16.59509 1.3181,11.44997 5.4496,20.15828 16.1857,25.99084 7.7195,4.19372 16.297,2.87689 24.3391,1.37736 8.8735,-3.10303 17.59,-6.60336 26.761,-8.73937 11.8359,-3.20468 24.1814,-3.83529 36.3691,-4.54072 9.3749,-0.92586 18.5463,0.67802 27.6831,2.52129 12.4077,2.65851 24.9102,4.97377 37.1199,8.44987 15.6686,4.62597 30.5748,11.33766 45.5814,17.70049 27.7353,11.18309 55.5311,22.15999 82.9415,34.13813 21.7457,9.02226 41.4894,21.73171 60.7493,35.09822 18.61,12.1653 30.9371,29.67355 44.3756,46.87271 14.2726,17.82979 28.9548,35.36418 40.4182,55.18023 7.0743,14.12613 16.609,26.92498 27.6448,38.18025 11.6456,10.08932 19.1123,14.5012 35.9389,6.99984 7.2187,-3.21808 9.1304,-12.74564 11.3706,-18.94621 0.2154,-3.84788 0.8877,-7.69733 0.6462,-11.54369 -1.2165,-19.37379 -11.8413,-36.37454 -21.5657,-52.49547 -9.3367,-14.84014 -20.4153,-28.52071 -31.507,-42.07145 -9.6316,-11.74324 -18.383,-24.27835 -29.1545,-35.04782 -2.4865,-2.48605 -5.1183,-4.8223 -7.6775,-7.23344 -17.3701,-15.84627 -36.6169,-29.19479 -56.7416,-41.24799 -14.5118,-9.04359 -28.9473,-18.25384 -43.8871,-26.5802 -16.3126,-8.5008 -33.8533,-14.12044 -51.4985,-19.08823 -27.2315,-7.64508 -38.0432,30.86603 -10.8118,38.51111 v 0 c 14.6633,4.10337 29.2654,8.65836 42.8985,15.55112 14.5967,8.06053 28.5865,17.19339 42.7752,25.93951 17.7156,10.5673 34.6551,22.25183 49.9657,36.1505 12.5163,11.54689 22.775,25.01299 33.2132,38.42374 9.9093,12.03294 19.7547,24.23459 28.1807,37.3643 6.4534,10.683 13.1252,21.23882 16.4218,33.41674 1.3977,-1.29042 4.8836,-4.57663 5.7941,-4.7834 4.8468,-1.10058 9.9122,-1.00933 14.8817,-0.92839 0.5371,0.009 3.1867,1.81382 1.2497,1.01716 -0.7243,-0.55224 -1.4487,-1.10448 -2.1731,-1.65671 -8.8483,-8.60492 -15.8395,-19.07358 -21.3937,-30.05273 -12.4757,-21.33005 -27.9056,-40.54602 -43.4707,-59.68823 -5.627,-7.19992 -11.0284,-14.57875 -16.8114,-21.65394 -10.467,-12.80565 -22.7986,-23.91834 -36.2901,-33.46051 -21.4017,-14.82706 -43.4053,-28.82442 -67.5291,-38.88221 -27.5485,-12.03002 -55.4686,-23.09585 -83.3487,-34.31334 -16.5796,-7.01958 -33.0701,-14.37304 -50.4069,-19.3902 -13.1925,-3.6435 -26.6062,-6.36323 -40.0044,-9.14284 -12.4976,-2.51176 -25.115,-4.33898 -37.9075,-3.24032 -14.5698,0.85579 -29.2777,1.80128 -43.4338,5.59157 -8.8443,2.18683 -18.0683,4.67109 -26.2713,8.62431 -0.098,0.21243 -0.3089,0.44682 0.037,0.64296 1.1907,0.6749 2.6427,0.94086 3.665,1.85084 1.0274,0.91461 6.6042,5.98329 4.6766,8.89061 -0.073,-0.6881 -0.1451,-1.37626 -0.2184,-2.06431 -0.052,-0.48699 0.2507,-1.73207 -0.1571,-1.46084 -1.9268,1.28148 -3.2276,3.3225 -4.9557,4.86137 -1.5233,1.35647 0,-1.14149 2.7303,-1.46724 10.4667,-4.3401 22.2898,-4.32158 33.4107,-4.78819 20.7938,-0.0167 41.599,-0.16547 62.3829,0.56202 19.9364,1.14578 39.8117,3.29452 59.4201,7.16399 21.3297,4.15907 41.9664,10.94272 63.1339,15.82635 14.9248,3.77505 29.98,7.27937 44.3867,12.79578 11.4722,4.32128 22.4588,9.55302 32.5944,16.51963 14.427,8.36051 29.1079,16.31812 42.9518,25.64561 18.0149,11.73525 35.7036,23.94672 52.3776,37.54974 9.6674,8.06818 18.2539,17.21991 25.2401,27.74202 9.2766,14.9089 17.8468,30.21597 26.7287,45.3563 3.3325,8.29112 6.7009,16.5236 11.2688,24.24684 0.2855,0.5007 2.9121,5.04576 3.3148,5.95434 2.584,5.83017 4.1762,12.06693 6.6903,17.92621 1.7659,5.19896 3.548,10.49906 4.6179,15.87283 3.1214,-4.3103 4.127,-4.99811 10.1559,-7.64389 0.897,-0.39362 1.9436,-0.26945 2.9222,-0.31017 0.1379,-0.006 0.5139,0.17087 0.376,0.17296 -0.7195,0.0111 -1.4358,-0.0972 -2.1537,-0.14576 -6.6834,-0.70149 -13.2289,-2.27013 -19.3757,-5.04966 -9.076,-4.05529 -17.6233,-8.65309 -24.9768,-15.50043 -7.6159,-6.7728 -14.3568,-14.44654 -21.012,-22.14909 -6.7216,-7.91395 -13.2734,-15.998 -20.654,-23.31722 -9.1377,-11.21974 -17.4235,-23.152 -27.7789,-33.36129 -10.018,-10.57844 -20.4243,-20.86951 -32.0108,-29.7385 -11.8167,-9.61049 -24.6938,-17.74058 -37.1832,-26.43431 -12.5515,-8.63746 -24.922,-17.52039 -37.3913,-26.275 -12.6166,-7.54407 -26.1409,-13.27002 -39.728,-18.83186 -22.9871,-9.75754 -46.0622,-19.4021 -70.3703,-25.45124 -17.0469,-4.60767 -34.1863,-8.89405 -51.4701,-12.52594 -9.4157,-1.80162 -12.5208,-2.5922 -22.2373,-3.61685 -15.5101,-1.6356 -31.2002,-1.75495 -46.7738,-1.61618 -14.599,0.80362 -29.1043,2.61056 -42.9127,7.7025 -27.2877,7.44206 -16.763,46.03263 10.5247,38.59053 z" /></g></svg>
