<?xml version="1.0" encoding="UTF-8" standalone="no"?>
<!-- Created with Inkscape (http://www.inkscape.org/) -->

<svg
   width="3840mm"
   height="2160mm"
   viewBox="0 0 3840 2160"
   version="1.1"
   id="svg5"
   inkscape:version="1.2.2 (732a01da63, 2022-12-09)"
   sodipodi:docname="pickups.svg"
   xml:space="preserve"
   inkscape:export-filename="pickups.png"
   inkscape:export-xdpi="96.096664"
   inkscape:export-ydpi="96.096664"
   xmlns:inkscape="http://www.inkscape.org/namespaces/inkscape"
   xmlns:sodipodi="http://sodipodi.sourceforge.net/DTD/sodipodi-0.dtd"
   xmlns="http://www.w3.org/2000/svg"
   xmlns:svg="http://www.w3.org/2000/svg"><sodipodi:namedview
     id="namedview7"
     pagecolor="#ffffff"
     bordercolor="#000000"
     borderopacity="0.25"
     inkscape:showpageshadow="2"
     inkscape:pageopacity="0.0"
     inkscape:pagecheckerboard="0"
     inkscape:deskcolor="#d1d1d1"
     inkscape:document-units="mm"
     showgrid="false"
     inkscape:zoom="0.04"
     inkscape:cx="3262.5"
     inkscape:cy="4475"
     inkscape:window-width="1920"
     inkscape:window-height="986"
     inkscape:window-x="-11"
     inkscape:window-y="-11"
     inkscape:window-maximized="1"
     inkscape:current-layer="layer1" /><defs
     id="defs2" /><g
     inkscape:label="Layer 1"
     inkscape:groupmode="layer"
     id="layer1"><g
       id="g7131"
       transform="matrix(2.2500004,0,0,2.2499996,-1003.8446,-1030.6602)"><path
         style="fill:#ff2a2a;fill-opacity:1;stroke:none;stroke-width:20;paint-order:markers stroke fill"
         id="path1746"
         d="m 546.50002,655.45607 c 2.22694,9.36328 2.75383,19.00806 3.72247,28.55296 0.27054,2.33262 0.5397,4.66537 0.81159,6.99783 0.46556,3.99404 0.99388,8.9173 1.6788,12.86806 1.07665,6.21038 2.70473,12.30289 4.16116,18.42958 1.51381,5.53934 2.50679,11.24778 4.42463,16.67584 2.15222,6.0915 5.02856,11.92631 7.66741,17.81456 0.57504,1.33228 1.13707,2.67025 1.72511,3.99687 0.89014,2.00814 2.06319,4.3929 2.86422,6.49491 1.57996,4.14594 2.89036,8.43862 4.30588,12.64076 4.27448,12.93815 9.58197,25.46705 15.41658,37.76729 3.78272,6.92557 7.81381,13.96346 13.0206,19.95374 1.23108,1.41634 2.58522,2.72084 3.87781,4.08125 6.28097,5.98408 13.95172,10.10914 21.00231,15.06299 4.8406,3.17804 9.3105,6.84993 13.8158,10.47141 6.50669,4.34002 13.18009,8.45715 19.94474,12.38859 6.01051,3.425 12.15827,6.60077 18.41296,9.55402 6.33863,2.8157 13.09995,4.14671 20.04753,3.33455 2.10969,-0.24665 4.15918,-0.8645 6.23877,-1.29678 10.64231,-3.27247 20.28608,-9.04941 30.03323,-14.31695 8.67584,-4.45606 17.70054,-8.20512 26.593,-12.2088 14.84093,-6.5633 29.25784,-14.02969 43.27732,-22.18978 15.31916,-8.61886 29.94416,-18.39143 44.9703,-27.50129 6.1954,-3.72412 12.60401,-7.09266 18.79481,-10.82379 6.10002,-3.67644 12.01206,-7.67133 18.03056,-11.47876 10.81008,-6.77148 20.65078,-14.88932 30.06728,-23.45569 7.75284,-6.89152 14.87749,-14.44836 21.57124,-22.36197 4.02137,-5.08738 7.83489,-10.3546 10.77658,-16.15456 2.23819,-4.41291 2.55122,-5.60488 4.31326,-10.23347 4.75216,-12.71133 6.35545,-26.15796 7.41945,-39.59122 0.44601,-6.55606 0.31554,-13.12979 0.005,-19.68722 -0.0976,-2.06098 -0.37952,-7.06398 -0.69279,-9.12366 -0.29596,-1.94593 -0.76276,-3.86199 -1.14414,-5.79297 -3.06612,-10.82469 -9.07293,-20.3036 -16.06901,-28.97923 -4.48969,-5.0936 -9.58607,-10.24811 -15.47077,-13.76331 -1.53594,-0.91749 -3.15302,-1.6918 -4.72951,-2.5377 -6.57027,-2.3237 -13.23266,-4.39499 -19.88084,-6.49673 -6.20544,-2.14805 -12.01092,-5.24352 -18.02154,-7.85577 -10.24147,-4.33555 -19.89376,-3.77304 -30.67693,-2.51085 -11.41579,1.35679 -22.19465,5.38504 -32.88279,9.39702 -11.01045,4.14206 -22.30353,7.4635 -33.54898,10.89412 -10.07173,3.46353 -20.55704,5.37937 -30.88132,7.89411 -11.07847,2.87917 -21.95711,6.40302 -33.14147,8.86333 -5.10386,1.15501 -10.20879,2.32534 -15.27461,3.64008 -2.82537,0.73329 -5.61437,1.68598 -8.47889,2.25473 4.91067,-0.81585 5.10591,-1.27646 11.56198,1.49995 10.89676,4.68611 1.2251,1.72439 5.36652,4.71326 0.0583,0.0421 -0.0636,-0.47546 -0.32571,-1.67095 1.10154,2.57958 0.64569,5.39363 0.0119,8.02714 -0.0689,0.28654 -0.49051,0.77189 -0.20899,0.85913 0.37861,0.11731 0.67852,-0.41013 1.0225,-0.60706 0.54303,-0.31086 1.09223,-0.61079 1.63836,-0.9162 6.76261,-3.26544 13.60688,-6.35408 20.32754,-9.70701 7.5488,-4.24725 15.24577,-8.54705 21.82677,-14.24982 1.34776,-1.16793 2.59705,-2.44486 3.8956,-3.66729 4.002,-4.33514 7.70276,-9.06766 10.58105,-14.23887 0.65072,-1.16906 1.3385,-2.33084 1.80735,-3.58396 0.75012,-2.00491 1.22401,-4.1026 1.83602,-6.15389 -0.55658,-4.23119 -0.10134,-8.72461 -1.66971,-12.6936 -1.3108,-3.31713 -4.04288,-5.95064 -6.6567,-8.37748 -5.1072,-4.74188 -13.26854,-5.22298 -19.79192,-5.42287 -14.42156,0.0816 -28.81154,-0.82859 -43.2032,-1.62031 -13.58945,-0.82716 -27.20025,-1.14511 -40.81114,-1.32765 -11.81502,-0.3361 -23.43306,1.6488 -34.88036,4.35369 -6.50777,1.86013 -13.09883,3.87144 -19.04241,7.19252 -5.25073,2.93393 -6.38116,4.09199 -11.15126,7.77562 -5.84295,4.91072 -11.80631,9.76493 -17.12626,15.25712 -2.95736,3.05311 -4.20283,4.65042 -6.82559,7.79428 -4.31218,5.21557 -8.74001,10.3274 -12.96834,15.6119 -5.12258,6.42075 -9.30696,13.521 -13.44478,20.59705 -3.71163,6.14166 -1.79581,2.96513 -5.7463,9.53031 -14.58296,24.23504 19.69058,44.85844 34.27354,20.6234 v 0 c 4.02823,-6.69449 2.01634,-3.35484 6.0356,-10.01895 3.12669,-5.39364 6.27761,-10.82307 10.11849,-15.74628 4.08191,-5.10495 8.3707,-10.03202 12.53027,-15.07387 1.06677,-1.30021 2.81511,-3.47892 3.97435,-4.70053 4.31187,-4.54372 9.26397,-8.46053 14.01588,-12.51953 1.25831,-1.05222 2.84779,-2.46925 4.2763,-3.39021 3.12526,-2.01491 6.89145,-2.85591 10.36961,-4.02635 8.22394,-1.99141 16.54804,-3.54232 25.05675,-3.26374 13.05637,0.17385 26.11279,0.47397 39.14847,1.27084 14.80338,0.81436 29.60655,1.74292 44.44034,1.66918 0.72445,0.008 1.45351,0.10536 2.17339,0.0236 0.19101,-0.0217 -0.35721,-0.14229 -0.53734,-0.20942 -0.74549,-0.27781 -1.54072,-0.44495 -2.23943,-0.82537 -1.33641,-0.72765 -2.79792,-1.36445 -3.83223,-2.48054 -6.80881,-7.3473 -4.96813,-7.33298 -5.74701,-17.65618 2.3001,-5.96929 1.52553,-3.3786 0.58221,-1.89714 -1.07143,1.68262 -2.21482,3.34388 -3.47411,4.89156 -4.26807,4.73657 -10.38807,7.47744 -15.71339,10.79119 -7.99087,4.02662 -16.28918,7.43601 -24.08275,11.85003 -3.97936,2.67374 -6.63082,4.16562 -10.02889,7.63693 -6.27857,6.41385 -9.5789,12.82271 -10.1695,21.95309 -0.14857,2.29669 0.48773,4.57708 0.7316,6.86565 1.3149,4.75085 2.7024,10.05996 5.81001,14.01632 5.57337,7.09555 8.89434,8.88873 18.22778,10.69234 2.22528,0.43003 4.52427,-0.27979 6.78643,-0.41968 7.91054,-1.84777 15.67429,-4.3158 23.65901,-5.87372 5.25436,-1.17155 6.84586,-1.4664 12.06617,-2.87345 7.33142,-1.97602 14.53623,-4.41267 21.92335,-6.18755 11.04611,-2.71476 22.27151,-4.76726 33.04997,-8.48961 12.05196,-3.67665 24.14733,-7.25791 35.94341,-11.70815 7.71133,-2.89902 15.43682,-6.04703 23.66116,-7.13669 7.89972,-1.02656 -0.55994,0.0259 6.26329,-0.70009 1.28681,-0.13694 2.46801,-0.30019 3.70896,0.22662 7.26675,3.10933 14.243,6.92806 21.82609,9.27452 3.12526,0.98771 6.23236,2.02345 9.35196,3.0276 1.79742,0.57856 3.56285,1.32173 5.42652,1.62536 0.13158,0.0214 -0.18116,-0.19563 -0.27175,-0.29345 -0.14674,-0.15372 -0.6377,-0.53983 -0.44027,-0.46117 0.49324,0.19648 2.63433,1.87698 2.77522,1.98483 1.5861,1.21406 3.10465,2.45364 4.31276,4.07458 3.1899,3.81767 5.93365,7.92292 8.02587,12.4546 0.92395,2.28362 0.77393,5.33871 0.89437,7.73877 0.25056,4.99256 0.40571,9.99831 0.0831,14.99269 -0.73779,9.73831 -1.65082,19.52832 -5.04055,28.77162 -1.93749,5.49682 -4.39566,10.03453 -8.17941,14.53224 -5.5317,6.60109 -11.49025,12.84909 -17.92939,18.57486 -7.67545,7.01595 -15.67703,13.68705 -24.511,19.21634 -5.53987,3.508 -10.97359,7.22376 -16.58958,10.60863 -6.45343,3.88964 -13.13974,7.39127 -19.58716,11.29199 -14.82198,8.99369 -29.25884,18.62357 -44.36448,27.14109 -12.80743,7.4716 -25.99426,14.28102 -39.56093,20.27709 -9.77222,4.39978 -19.69061,8.51995 -29.18886,13.4925 -6.77629,3.6621 -13.50081,7.503 -20.52709,10.65422 -0.11157,0.10416 -0.46804,0.23823 -0.33467,0.31247 0.40971,0.22807 0.93041,0.13872 1.38065,0.26977 0.094,0.0274 -0.27487,-0.049 -0.2899,0.0477 -0.0153,0.0995 0.2762,0.0575 0.25818,0.15653 -0.0478,0.26252 -0.93512,-0.59283 -0.781,-0.17545 -5.23261,-2.4393 -10.34325,-5.13276 -15.37393,-7.96385 -5.03595,-2.90372 -9.86925,-6.16945 -14.95325,-8.96882 -5.22612,-4.18738 -10.42289,-8.41806 -16.01739,-12.11747 -5.07617,-3.5053 -10.34704,-6.70946 -15.35436,-10.30501 -1.86245,-1.65378 -3.08988,-3.43416 -4.50688,-5.5112 -1.68339,-2.4675 -3.43138,-4.90632 -4.74393,-7.60071 -5.16919,-10.87117 -9.87697,-21.93856 -13.6444,-33.38412 -1.7408,-5.1622 -3.39916,-10.3913 -5.38009,-15.46958 -1.17917,-3.02286 -1.71807,-3.9162 -2.97633,-6.75687 -0.6604,-1.49096 -1.29474,-2.99329 -1.94212,-4.48993 -2.28886,-5.10646 -2.08462,-4.67566 -4.37139,-9.68147 -0.48189,-1.05487 -1.05214,-2.07301 -1.45285,-3.16132 -1.73472,-4.71112 -2.48349,-9.72979 -3.85469,-14.54272 -1.17523,-4.93967 -2.59837,-9.88131 -3.48544,-14.88461 -0.63143,-3.56158 -1.12241,-8.23309 -1.53686,-11.77817 -0.25035,-2.14132 -0.49937,-4.28278 -0.74909,-6.42419 -1.1666,-11.45021 -1.90494,-23.00269 -4.71159,-34.20816 -6.85993,-27.43978 -45.66565,-17.73835 -38.8057,9.70142 z" /><path
         style="fill:#000000;stroke:none;stroke-width:20;paint-order:markers stroke fill"
         id="path1348"
         d="m 822.96764,574.33392 c -5.0921,-9.86428 -13.03089,-16.26748 -22.01654,-22.41934 -7.49157,-4.57311 -15.11072,-8.94794 -23.28762,-12.17186 -5.56895,-1.96744 -11.24516,-3.45705 -17.04337,-4.55824 -7.95451,-1.29488 -16.0134,-1.85704 -24.05073,-2.36157 -7.65556,-0.41153 -15.3207,-0.59917 -22.98602,-0.69064 -7.54116,-0.11213 -15.07551,-0.0314 -22.61029,0.28673 -8.31514,0.30887 -16.18837,1.45682 -24.25194,3.46945 -7.43953,1.91352 -14.60905,4.73742 -21.78757,7.44411 -7.42405,2.75984 -14.30613,6.72491 -21.14595,10.66906 -6.60667,3.95142 -12.91415,8.34059 -19.19782,12.77659 -5.2283,3.41323 -10.25311,7.11907 -15.63463,10.29338 -6.30436,3.85784 -12.65182,7.64495 -18.82066,11.71747 -6.6353,4.0282 -12.71354,8.79885 -18.32964,14.13793 -4.13938,3.75817 -7.91313,7.86114 -11.44299,12.18946 -2.52659,3.11848 -4.90879,6.34704 -7.35846,9.52405 -2.24388,2.69404 -4.09564,5.67766 -6.00895,8.60697 -0.28774,-0.0665 -2.90097,5.7276 -2.25452,4.09506 -13.55407,24.82514 21.55397,43.99346 35.10804,19.16835 v 0 c 2.44462,-4.68566 0.98671,-1.79215 0.66575,-1.43547 1.34133,-2.06393 2.58913,-4.18221 4.19991,-6.05335 2.2171,-2.89562 4.39949,-5.81699 6.67832,-8.66415 2.50741,-3.09346 5.20909,-5.99033 8.18698,-8.6455 3.77761,-3.7651 8.14451,-6.78635 12.67066,-9.59284 5.6143,-3.75152 11.46098,-7.13832 17.19836,-10.6962 6.23552,-3.74703 12.17478,-7.92353 18.21572,-11.97105 5.28521,-3.73343 10.56656,-7.45281 16.11024,-10.8018 4.97051,-2.86808 9.92777,-5.86084 15.30824,-7.90384 5.75333,-2.18364 11.50326,-4.4686 17.44657,-6.07923 1.97606,-0.50996 4.02955,-1.16287 6.06261,-1.42166 3.34354,-0.42558 6.72938,-0.53493 10.08218,-0.86294 6.81038,-0.29233 13.61954,-0.35385 20.43607,-0.25339 6.99432,0.0822 13.98842,0.25048 20.97429,0.61616 6.37911,0.39336 12.77096,0.83479 19.09988,1.74155 1.11836,0.2106 2.25462,0.32916 3.3638,0.58367 2.30529,0.52892 4.49313,1.49664 6.80054,2.02252 5.41279,1.89267 10.15124,5.29469 15.19041,7.9524 2.2075,1.46367 4.41981,2.83832 6.36553,4.64685 0.44927,0.41762 0.86215,0.87278 1.29307,1.30929 0.21228,0.21503 0.635,0.94753 0.63657,0.64537 0.003,-0.55996 -0.42125,-1.03772 -0.63186,-1.55657 11.14171,25.99735 47.90753,10.24057 36.76582,-15.75678 z" /><path
         style="fill:#ff2a2a;fill-opacity:1;stroke:none;stroke-width:1667.85;paint-order:markers stroke fill"
         d="m 2670.5522,2172.4686 c -197.1649,-0.9457 -361.9789,139.8662 -507.4351,256.9712 -81.1112,101.268 24.2354,236.0003 43.0943,343.8923 61.9992,183.5554 147.9116,367.57 322.4476,469.0274 54.2194,35.1222 110.615,120.1194 177.5048,50.4403 303.2993,-145.2444 632.4248,-294.7726 840.9691,-568.2073 77.5324,-169.1151 -7.9958,-462.4017 -230.1234,-445.2501 -215.941,-1.8525 -405.7297,117.225 -586.8579,215.773 -89.6215,18.298 -137.4922,-119.7535 -44.344,-151.778 53.2398,-58.0045 174.4483,-75.2477 195.4757,-151.9073 -61.8372,-31.9048 -143.9079,-11.8997 -210.7311,-18.9615 z"
         id="path1695"
         transform="scale(0.26458333)" /><path
         style="fill:#000000;stroke:none;stroke-width:20;paint-order:markers stroke fill"
         id="path1346"
         d="m 518.7007,653.5779 c 0.46392,2.94592 0.79274,5.91634 1.39178,8.83779 0.71864,3.50481 4.07218,15.51199 4.88657,18.57537 2.71901,10.22802 5.2483,20.50481 7.81357,30.77204 4.55964,20.20332 10.94028,39.916 18.02537,59.35634 6.05885,16.69499 14.17301,32.48141 22.84981,47.93543 7.18397,12.56962 16.23005,23.87881 25.5406,34.90653 6.20022,6.95582 12.95175,13.374 19.88185,19.58989 9.68635,8.08225 20.2691,14.98801 30.47225,22.38615 7.85035,5.93707 16.08436,11.31546 24.26076,16.78313 6.21165,4.47794 12.66634,7.19484 20.1328,8.7176 2.60345,0.0243 5.23222,0.43603 7.81034,0.0731 6.97683,-0.98229 15.17322,-4.56846 21.42792,-7.25178 13.50156,-5.79226 26.64161,-12.44465 39.90025,-18.76256 22.81767,-10.58698 45.64785,-21.10906 68.02549,-32.60558 19.22523,-9.84573 36.68688,-22.60523 53.8413,-35.62342 12.64113,-9.20044 24.72352,-19.0998 36.78113,-29.03733 7.84495,-6.08333 15.47876,-12.39015 22.77724,-19.11946 5.65722,-5.02449 11.45916,-9.85234 16.82028,-15.19909 6.6784,-6.80321 12.26772,-14.73007 16.10701,-23.48222 1.03468,-2.35874 1.87711,-4.79722 2.81567,-7.19582 5.5322,-17.67435 6.61945,-36.2457 7.09398,-54.63426 0.19132,-12.43243 0.35465,-25.06986 -3.09157,-37.1447 -0.70581,-2.47298 -1.67289,-4.86383 -2.50931,-7.29575 -3.99053,-10.5913 -10.76151,-19.68553 -17.25012,-28.83511 -4.96128,-7.44107 -10.58,-14.45136 -17.25859,-20.43671 -1.53844,-1.37877 -3.17119,-2.64859 -4.75676,-3.97288 -9.37294,-7.04326 -19.90119,-12.31119 -30.84345,-16.4185 -7.69406,-2.56345 -15.81164,-3.35527 -23.85312,-3.98773 -6.52724,-0.41563 -13.06946,-0.49511 -19.60784,-0.53459 -8.02257,-0.0914 -16.0478,0.22749 -24.04886,0.79764 -7.97041,0.4435 -15.5467,2.88536 -23.05716,5.38097 -8.77623,2.91615 -3.6245,1.13532 -13.15509,4.54948 -12.77106,4.66921 -25.09062,10.42109 -37.52799,15.88553 -9.99006,3.76616 -19.40309,8.76655 -28.65118,14.05395 -1.42758,0.83236 -2.86512,1.64793 -4.28278,2.49711 -2.81451,1.6859 -4.53819,2.87174 -7.31901,4.40534 -3.29322,1.81618 -6.60937,3.52841 -9.85168,5.44433 -5.14078,3.1173 -9.69312,7.01919 -14.10295,11.07168 -20.70513,19.2691 6.5455,48.55054 27.2506,29.28146 v 0 c 2.28708,-2.1803 4.66121,-4.26942 7.32406,-5.98876 3.14232,-1.89601 6.39921,-3.51388 9.60525,-5.29873 3.92425,-2.18469 3.61741,-2.18673 7.24583,-4.36256 1.32712,-0.79581 2.67321,-1.55956 4.00981,-2.33934 8.01796,-4.60121 16.17609,-8.93008 24.86911,-12.14638 11.58904,-5.09702 23.06407,-10.46949 34.95154,-14.858 10.99693,-3.96131 1.33662,-0.54139 12.49161,-4.31776 4.2858,-1.45092 8.557,-3.12081 13.12916,-3.36569 6.94467,-0.53075 13.91809,-0.75459 20.88261,-0.69098 5.60771,0.0326 11.21851,0.0924 16.81813,0.42061 4.36877,0.31318 8.77462,0.71016 13.05716,1.63814 6.83472,2.42811 13.33087,5.77964 19.33893,9.84287 2.7515,2.15662 5.17985,4.47894 7.57221,7.03191 0.64683,0.69024 1.33353,1.34887 1.91027,2.09867 1.85737,2.41478 3.34158,5.10188 5.24907,7.48173 6.47223,9.09558 -1.82846,-2.61752 5.24914,7.54211 2.61599,3.75512 5.36721,7.40114 6.99736,11.73654 1.10694,2.73939 1.57274,3.54071 2.16956,6.50698 1.54567,7.68215 1.04346,15.54933 1.05857,23.32641 -0.33581,13.91335 -0.97859,27.94709 -4.51792,41.47923 -2.25997,6.38852 -5.02645,11.95888 -9.96768,16.72273 -4.81478,5.01755 -10.45683,9.13616 -15.49603,13.91888 -6.74235,6.233 -13.84649,12.00364 -21.08944,17.64675 -11.6437,9.60171 -23.30995,19.16721 -35.52706,28.04494 -15.29132,11.61928 -30.8053,23.09484 -47.93797,31.9047 -22.01527,11.32342 -44.50109,21.63429 -66.94567,32.07094 -12.58234,5.99593 -25.0631,12.24732 -37.82989,17.84691 -2.87422,1.26066 -5.85073,2.28669 -8.69129,3.62146 -0.30679,0.14414 -0.94248,0.58462 -0.66067,0.77295 0.71427,0.47736 1.68839,0.31875 2.53259,0.4781 -1.852,0.63987 -3.64662,-2.35479 -5.18324,-2.6389 -7.75692,-5.1849 -15.57827,-10.26898 -23.01472,-15.91543 -9.08717,-6.58664 -18.46168,-12.78969 -27.24547,-19.78136 -5.558,-4.9826 -10.99032,-10.09904 -16.02605,-15.61785 -7.68543,-9.09801 -15.25741,-18.35219 -21.23305,-28.70012 -7.63363,-13.55937 -14.81323,-27.39088 -20.14202,-42.04748 -6.6227,-18.11784 -12.56591,-36.49741 -16.79398,-55.33842 -3.41352,-13.66208 -6.92486,-27.28669 -10.55727,-40.89175 -0.60071,-2.24986 -1.07246,-4.53573 -1.75834,-6.76111 -0.10012,-0.3248 -0.38888,-0.55753 -0.58333,-0.83629 0,-28.28428 -39.99999,-28.28428 -39.99999,0 z" /></g><g
       id="g7137"
       transform="matrix(2.2500004,0,0,2.2499996,-2079.6044,-160.69795)"><path
         style="fill:#5e9fff;fill-opacity:1;stroke:none;stroke-width:20;paint-order:markers stroke fill"
         id="path1972"
         d="m 1445.527,696.32095 c 2.227,9.3633 2.7539,19.008 3.7225,28.5529 0.2706,2.3327 0.5397,4.6654 0.8116,6.9979 0.4656,3.994 0.9939,8.9173 1.6788,12.868 1.0767,6.2104 2.7047,12.3029 4.1612,18.4296 1.5138,5.5394 2.5068,11.2478 4.4246,16.6759 2.1522,6.0915 5.0286,11.9263 7.6674,17.8145 0.575,1.3323 1.1371,2.6703 1.7251,3.9969 0.8902,2.0081 2.0632,4.3929 2.8642,6.4949 1.58,4.1459 2.8904,8.4386 4.3059,12.6408 4.2745,12.9381 9.582,25.467 15.4166,37.7672 3.7827,6.9256 7.8138,13.9635 13.0206,19.9538 1.2311,1.4163 2.5852,2.7208 3.8778,4.0812 6.281,5.9841 13.9517,10.1092 21.0023,15.063 4.8406,3.1781 9.3105,6.85 13.8158,10.4714 6.5067,4.3401 13.1801,8.4572 19.9448,12.3886 6.0105,3.425 12.1582,6.6008 18.4129,9.554 6.3386,2.8157 13.1,4.1468 20.0475,3.3346 2.1097,-0.2467 4.1592,-0.8645 6.2388,-1.2968 10.6423,-3.2725 20.2861,-9.0494 30.0332,-14.3169 8.6759,-4.4561 17.7006,-8.2052 26.593,-12.2088 14.841,-6.5633 29.2579,-14.0297 43.2774,-22.1898 15.3191,-8.6189 29.9441,-18.3914 44.9703,-27.5013 6.1954,-3.7241 12.604,-7.0927 18.7948,-10.8238 6.1,-3.6764 12.012,-7.6713 18.0305,-11.4788 10.8101,-6.7714 20.6508,-14.8893 30.0673,-23.4556 7.7529,-6.8916 14.8775,-14.4484 21.5713,-22.362 4.0213,-5.0874 7.8348,-10.3546 10.7765,-16.1546 2.2382,-4.4129 2.5513,-5.6049 4.3133,-10.2334 4.7522,-12.7114 6.3554,-26.158 7.4194,-39.5913 0.4461,-6.556 0.3156,-13.1298 0,-19.6872 -0.098,-2.061 -0.3795,-7.064 -0.6927,-9.1236 -0.296,-1.946 -0.7628,-3.862 -1.1442,-5.793 -3.0661,-10.8247 -9.0729,-20.3036 -16.069,-28.9792 -4.4897,-5.0936 -9.5861,-10.2482 -15.4708,-13.7634 -1.5359,-0.9174 -3.153,-1.6918 -4.7295,-2.5377 -6.5702,-2.3237 -13.2326,-4.3949 -19.8808,-6.4967 -6.2055,-2.148 -12.0109,-5.2435 -18.0216,-7.8558 -10.2414,-4.3355 -19.8937,-3.773 -30.6769,-2.5108 -11.4158,1.3568 -22.1946,5.385 -32.8828,9.397 -11.0104,4.1421 -22.3035,7.4635 -33.549,10.8941 -10.0717,3.4636 -20.557,5.3794 -30.8813,7.8941 -11.0784,2.8792 -21.9571,6.4031 -33.1414,8.8634 -5.1039,1.155 -10.2088,2.3253 -15.2747,3.6401 -2.8253,0.7332 -5.6143,1.6859 -8.4788,2.2547 4.9106,-0.8159 5.1059,-1.2765 11.5619,1.4999 10.8968,4.6861 1.2251,1.7244 5.3666,4.7133 0.058,0.042 -0.064,-0.4755 -0.3258,-1.671 1.1016,2.5796 0.6457,5.3937 0.012,8.0272 -0.069,0.2865 -0.4905,0.7719 -0.2089,0.8591 0.3786,0.1173 0.6785,-0.4101 1.0225,-0.607 0.543,-0.3109 1.0922,-0.6108 1.6383,-0.9162 6.7626,-3.2655 13.6069,-6.3541 20.3276,-9.7071 7.5488,-4.2472 15.2457,-8.547 21.8267,-14.2498 1.3478,-1.1679 2.5971,-2.4448 3.8956,-3.6673 4.002,-4.3351 7.7028,-9.0676 10.5811,-14.2388 0.6507,-1.1691 1.3385,-2.3309 1.8073,-3.584 0.7501,-2.0049 1.224,-4.1026 1.836,-6.1539 -0.5565,-4.2312 -0.1013,-8.7246 -1.6697,-12.6936 -1.3108,-3.3171 -4.0428,-5.9506 -6.6567,-8.3775 -5.1072,-4.7418 -13.2685,-5.2229 -19.7919,-5.4228 -14.4215,0.082 -28.8115,-0.8286 -43.2032,-1.6203 -13.5894,-0.8272 -27.2002,-1.1452 -40.8111,-1.3277 -11.815,-0.3361 -23.4331,1.6488 -34.8804,4.3537 -6.5078,1.8601 -13.0988,3.8714 -19.0424,7.1925 -5.2507,2.9339 -6.3812,4.092 -11.1513,7.7756 -5.8429,4.9108 -11.8063,9.765 -17.1262,15.2572 -2.9574,3.0531 -4.2028,4.6504 -6.8256,7.7942 -4.3122,5.2156 -8.74,10.3274 -12.9683,15.6119 -5.1226,6.4208 -9.307,13.521 -13.4448,20.5971 -3.7117,6.1416 -1.7958,2.9651 -5.7463,9.5303 -14.583,24.235 19.6906,44.8584 34.2735,20.6234 v 0 c 4.0282,-6.6945 2.0164,-3.3548 6.0356,-10.019 3.1267,-5.3936 6.2776,-10.823 10.1185,-15.7462 4.0819,-5.105 8.3707,-10.0321 12.5303,-15.0739 1.0667,-1.3002 2.8151,-3.4789 3.9743,-4.7005 4.3119,-4.5438 9.264,-8.4606 14.0159,-12.5196 1.2583,-1.0522 2.8478,-2.4692 4.2763,-3.3902 3.1253,-2.0149 6.8915,-2.8559 10.3696,-4.0263 8.224,-1.9914 16.5481,-3.5423 25.0568,-3.2638 13.0563,0.1739 26.1128,0.474 39.1484,1.2709 14.8034,0.8143 29.6066,1.7429 44.4404,1.6692 0.7244,0.01 1.4535,0.1053 2.1734,0.024 0.191,-0.022 -0.3572,-0.1423 -0.5374,-0.2095 -0.7455,-0.2778 -1.5407,-0.4449 -2.2394,-0.8253 -1.3364,-0.7277 -2.7979,-1.3645 -3.8322,-2.4806 -6.8088,-7.3473 -4.9682,-7.333 -5.747,-17.6562 2.3001,-5.9692 1.5255,-3.3786 0.5822,-1.8971 -1.0715,1.6826 -2.2149,3.3439 -3.4741,4.8916 -4.2681,4.7365 -10.3881,7.4774 -15.7134,10.7912 -7.9909,4.0266 -16.2892,7.436 -24.0828,11.85 -3.9793,2.6737 -6.6308,4.1656 -10.0289,7.6369 -6.2785,6.4139 -9.5789,12.8227 -10.1695,21.9531 -0.1485,2.2967 0.4878,4.5771 0.7316,6.8657 1.3149,4.7508 2.7024,10.0599 5.81,14.0163 5.5734,7.0955 8.8944,8.8887 18.2278,10.6923 2.2253,0.43 4.5243,-0.2798 6.7864,-0.4197 7.9106,-1.8477 15.6743,-4.3158 23.6591,-5.8737 5.2543,-1.1715 6.8458,-1.4664 12.0661,-2.8734 7.3314,-1.9761 14.5363,-4.4127 21.9234,-6.1876 11.0461,-2.7147 22.2715,-4.7672 33.0499,-8.4896 12.052,-3.6766 24.1474,-7.2579 35.9435,-11.7081 7.7113,-2.8991 15.4368,-6.0471 23.6611,-7.1367 7.8997,-1.0266 -0.5599,0.026 6.2633,-0.7001 1.2868,-0.137 2.468,-0.3002 3.709,0.2266 7.2667,3.1093 14.243,6.9281 21.8261,9.2745 3.1252,0.9877 6.2323,2.0235 9.3519,3.0276 1.7974,0.5786 3.5629,1.3217 5.4265,1.6254 0.1316,0.021 -0.1811,-0.1957 -0.2717,-0.2935 -0.1468,-0.1537 -0.6377,-0.5398 -0.4403,-0.4611 0.4933,0.1964 2.6343,1.8769 2.7752,1.9848 1.5861,1.214 3.1047,2.4536 4.3128,4.0746 3.1899,3.8176 5.9336,7.9229 8.0259,12.4546 0.9239,2.2836 0.7739,5.3387 0.8943,7.7387 0.2506,4.9926 0.4057,9.9983 0.083,14.9927 -0.7378,9.7383 -1.6508,19.5283 -5.0405,28.7716 -1.9375,5.4969 -4.3957,10.0346 -8.1794,14.5323 -5.5317,6.6011 -11.4903,12.8491 -17.9294,18.5748 -7.6755,7.016 -15.677,13.6871 -24.511,19.2164 -5.5399,3.508 -10.9736,7.2237 -16.5896,10.6086 -6.4534,3.8897 -13.1397,7.3913 -19.5872,11.292 -14.8219,8.9937 -29.2588,18.6236 -44.3644,27.1411 -12.8075,7.4716 -25.9943,14.281 -39.561,20.2771 -9.7722,4.3998 -19.6906,8.5199 -29.1888,13.4925 -6.7763,3.6621 -13.5008,7.503 -20.5271,10.6542 -0.1116,0.1042 -0.4681,0.2382 -0.3347,0.3125 0.4097,0.228 0.9304,0.1387 1.3807,0.2697 0.094,0.027 -0.2749,-0.049 -0.2899,0.048 -0.015,0.1 0.2762,0.058 0.2581,0.1566 -0.048,0.2625 -0.9351,-0.5929 -0.781,-0.1755 -5.2326,-2.4393 -10.3432,-5.1327 -15.3739,-7.9638 -5.0359,-2.9037 -9.8692,-6.1695 -14.9532,-8.9688 -5.2262,-4.1874 -10.4229,-8.4181 -16.0174,-12.1175 -5.0762,-3.5053 -10.3471,-6.7095 -15.3544,-10.305 -1.8624,-1.6538 -3.0899,-3.4342 -4.5069,-5.5112 -1.6834,-2.4675 -3.4313,-4.9063 -4.7439,-7.6007 -5.1692,-10.8712 -9.877,-21.9386 -13.6444,-33.3842 -1.7408,-5.1622 -3.3992,-10.3913 -5.3801,-15.4695 -1.1792,-3.0229 -1.7181,-3.9162 -2.9763,-6.7569 -0.6604,-1.491 -1.2948,-2.9933 -1.9421,-4.4899 -2.2889,-5.1065 -2.0847,-4.6757 -4.3714,-9.6815 -0.4819,-1.0549 -1.0522,-2.073 -1.4529,-3.1613 -1.7347,-4.7111 -2.4835,-9.7298 -3.8547,-14.5427 -1.1752,-4.9397 -2.5983,-9.8814 -3.4854,-14.8847 -0.6314,-3.5615 -1.1224,-8.233 -1.5369,-11.7781 -0.2503,-2.1413 -0.4993,-4.2828 -0.7491,-6.4242 -1.1666,-11.4502 -1.9049,-23.0027 -4.7115,-34.2082 -6.86,-27.4398 -45.6657,-17.7383 -38.8057,9.7014 z" /><path
         style="fill:#000000;stroke:none;stroke-width:20;paint-order:markers stroke fill"
         id="path1974"
         d="m 1721.9947,615.19875 c -5.0921,-9.8642 -13.0309,-16.2674 -22.0166,-22.4193 -7.4915,-4.5731 -15.1107,-8.9479 -23.2876,-12.1719 -5.5689,-1.9674 -11.2452,-3.457 -17.0434,-4.5582 -7.9545,-1.2949 -16.0134,-1.857 -24.0507,-2.3616 -7.6556,-0.4115 -15.3207,-0.5991 -22.986,-0.6906 -7.5412,-0.1121 -15.0755,-0.031 -22.6103,0.2867 -8.3151,0.3089 -16.1884,1.4568 -24.2519,3.4695 -7.4396,1.9135 -14.6091,4.7374 -21.7876,7.4441 -7.4241,2.7598 -14.3061,6.7249 -21.146,10.669 -6.6066,3.9515 -12.9141,8.3406 -19.1978,12.7766 -5.2283,3.4133 -10.2531,7.1191 -15.6346,10.2934 -6.3044,3.8578 -12.6518,7.645 -18.8207,11.7175 -6.6353,4.0282 -12.7135,8.7988 -18.3296,14.1379 -4.1394,3.7582 -7.9131,7.8611 -11.443,12.1895 -2.5266,3.1184 -4.9088,6.347 -7.3585,9.524 -2.2438,2.6941 -4.0956,5.6777 -6.0089,8.607 -0.2878,-0.067 -2.901,5.7276 -2.2545,4.095 -13.5541,24.8252 21.5539,43.9935 35.108,19.1684 v 0 c 2.4446,-4.6857 0.9867,-1.7922 0.6658,-1.4355 1.3413,-2.0639 2.5891,-4.1822 4.1999,-6.0533 2.2171,-2.8956 4.3995,-5.817 6.6783,-8.6642 2.5074,-3.0934 5.2091,-5.9903 8.187,-8.6455 3.7776,-3.7651 8.1445,-6.7863 12.6706,-9.5928 5.6143,-3.7515 11.461,-7.1383 17.1984,-10.6962 6.2355,-3.747 12.1748,-7.9235 18.2157,-11.9711 5.2852,-3.7334 10.5666,-7.4528 16.1102,-10.8018 4.9706,-2.868 9.9278,-5.8608 15.3083,-7.9038 5.7533,-2.1836 11.5032,-4.4686 17.4466,-6.0792 1.976,-0.51 4.0295,-1.1629 6.0626,-1.4217 3.3435,-0.4256 6.7293,-0.5349 10.0821,-0.8629 6.8104,-0.2924 13.6196,-0.3539 20.4361,-0.2534 6.9943,0.082 13.9884,0.2505 20.9743,0.6161 6.3791,0.3934 12.771,0.8348 19.0999,1.7416 1.1183,0.2106 2.2546,0.3291 3.3638,0.5837 2.3053,0.5289 4.4931,1.4966 6.8005,2.0225 5.4128,1.8926 10.1513,5.2947 15.1904,7.9524 2.2075,1.4636 4.4198,2.8383 6.3656,4.6468 0.4492,0.4176 0.8621,0.8728 1.293,1.3093 0.2123,0.215 0.635,0.9475 0.6366,0.6454 0,-0.56 -0.4212,-1.0377 -0.6319,-1.5566 11.1418,25.9974 47.9076,10.2406 36.7659,-15.7568 z" /><path
         style="fill:#5e9fff;fill-opacity:1;stroke:none;stroke-width:441.285;paint-order:markers stroke fill"
         d="m 1605.6106,615.66385 c -52.1665,-0.2502 -95.7736,37.0063 -134.2588,67.9903 -21.4607,26.7938 6.4122,62.4417 11.402,90.9882 16.4039,48.5657 39.1349,97.2529 85.3142,124.0968 14.3456,9.2927 29.2669,31.7816 46.9649,13.3457 80.2479,-38.4293 167.329,-77.992 222.5064,-150.3382 20.5137,-44.7451 -2.1156,-122.3438 -60.8869,-117.8058 -57.1343,-0.4901 -107.3493,31.0158 -155.2728,57.09 -23.7123,4.8413 -36.3781,-31.6848 -11.7327,-40.158 14.0864,-15.347 46.1562,-19.9093 51.7197,-40.1921 -16.3611,-8.4415 -38.0757,-3.1485 -55.756,-5.0169 z"
         id="path1976" /><path
         style="fill:#000000;stroke:none;stroke-width:20;paint-order:markers stroke fill"
         id="path1978"
         d="m 1417.7277,694.44275 c 0.4639,2.9459 0.7928,5.9164 1.3918,8.8378 0.7186,3.5048 4.0722,15.512 4.8866,18.5754 2.719,10.228 5.2483,20.5048 7.8135,30.772 4.5597,20.2033 10.9403,39.916 18.0254,59.3564 6.0589,16.6949 14.173,32.4814 22.8498,47.9354 7.184,12.5696 16.2301,23.8788 25.5406,34.9065 6.2002,6.9558 12.9518,13.374 19.8819,19.5899 9.6863,8.0823 20.2691,14.988 30.4722,22.3862 7.8504,5.937 16.0844,11.3154 24.2608,16.7831 6.2116,4.4779 12.6663,7.1948 20.1328,8.7176 2.6034,0.024 5.2322,0.436 7.8103,0.073 6.9769,-0.9823 15.1732,-4.5685 21.4279,-7.2518 13.5016,-5.7923 26.6417,-12.4446 39.9003,-18.7626 22.8177,-10.5869 45.6478,-21.109 68.0255,-32.6055 19.2252,-9.8458 36.6869,-22.6053 53.8413,-35.6235 12.6411,-9.2004 24.7235,-19.0998 36.7811,-29.0373 7.845,-6.0833 15.4788,-12.3901 22.7773,-19.1194 5.6572,-5.0245 11.4591,-9.8524 16.8202,-15.1991 6.6784,-6.8032 12.2678,-14.7301 16.107,-23.4823 1.0347,-2.3587 1.8772,-4.7972 2.8157,-7.1958 5.5322,-17.6743 6.6195,-36.2457 7.094,-54.6342 0.1913,-12.4325 0.3546,-25.0699 -3.0916,-37.1447 -0.7058,-2.473 -1.6729,-4.8639 -2.5093,-7.2958 -3.9905,-10.5913 -10.7615,-19.6855 -17.2501,-28.8351 -4.9613,-7.4411 -10.58,-14.4514 -17.2586,-20.4367 -1.5384,-1.3788 -3.1712,-2.6486 -4.7568,-3.9729 -9.3729,-7.0432 -19.9011,-12.3112 -30.8434,-16.4185 -7.6941,-2.5634 -15.8116,-3.3553 -23.8531,-3.9877 -6.5273,-0.4156 -13.0695,-0.4951 -19.6079,-0.5346 -8.0225,-0.091 -16.0478,0.2275 -24.0488,0.7976 -7.9704,0.4435 -15.5467,2.8854 -23.0572,5.381 -8.7762,2.9162 -3.6245,1.1353 -13.1551,4.5495 -12.771,4.6692 -25.0906,10.4211 -37.528,15.8855 -9.99,3.7662 -19.4031,8.7666 -28.6511,14.054 -1.4276,0.8323 -2.8652,1.6479 -4.2828,2.4971 -2.8145,1.6859 -4.5382,2.8717 -7.319,4.4053 -3.2933,1.8162 -6.6094,3.5284 -9.8517,5.4443 -5.1408,3.1173 -9.6931,7.0192 -14.103,11.0717 -20.7051,19.2691 6.5455,48.5506 27.2506,29.2815 v 0 c 2.2871,-2.1803 4.6612,-4.2694 7.3241,-5.9888 3.1423,-1.896 6.3992,-3.5139 9.6052,-5.2987 3.9243,-2.1847 3.6175,-2.1867 7.2459,-4.3626 1.3271,-0.7958 2.6732,-1.5595 4.0098,-2.3393 8.0179,-4.6012 16.1761,-8.9301 24.8691,-12.1464 11.589,-5.097 23.0641,-10.4695 34.9515,-14.858 10.997,-3.9613 1.3367,-0.5414 12.4916,-4.3177 4.2858,-1.451 8.557,-3.1209 13.1292,-3.3657 6.9447,-0.5308 13.9181,-0.7546 20.8826,-0.691 5.6077,0.033 11.2185,0.092 16.8181,0.4206 4.3688,0.3132 8.7747,0.7102 13.0572,1.6381 6.8347,2.4281 13.3309,5.7797 19.3389,9.8429 2.7515,2.1566 5.1799,4.4789 7.5722,7.0319 0.6469,0.6903 1.3336,1.3489 1.9103,2.0987 1.8574,2.4148 3.3416,5.1019 5.2491,7.4817 6.4722,9.0956 -1.8285,-2.6175 5.2491,7.5421 2.616,3.7551 5.3672,7.4012 6.9974,11.7366 1.1069,2.7394 1.5727,3.5407 2.1695,6.5069 1.5457,7.6822 1.0435,15.5494 1.0586,23.3265 -0.3358,13.9133 -0.9786,27.947 -4.5179,41.4792 -2.26,6.3885 -5.0265,11.9589 -9.9677,16.7227 -4.8148,5.0176 -10.4568,9.1362 -15.496,13.9189 -6.7424,6.233 -13.8465,12.0036 -21.0895,17.6467 -11.6437,9.6018 -23.3099,19.1673 -35.527,28.045 -15.2913,11.6193 -30.8053,23.0948 -47.938,31.9047 -22.0153,11.3234 -44.5011,21.6343 -66.9457,32.0709 -12.5823,5.996 -25.0631,12.2473 -37.8298,17.8469 -2.8743,1.2607 -5.8508,2.2867 -8.6913,3.6215 -0.3068,0.1441 -0.9425,0.5846 -0.6607,0.7729 0.7143,0.4774 1.6884,0.3188 2.5326,0.4781 -1.852,0.6399 -3.6466,-2.3547 -5.1833,-2.6389 -7.7569,-5.1849 -15.5782,-10.2689 -23.0147,-15.9154 -9.0871,-6.5866 -18.4617,-12.7897 -27.2454,-19.7813 -5.558,-4.9826 -10.9904,-10.0991 -16.0261,-15.6179 -7.6854,-9.098 -15.2574,-18.3522 -21.233,-28.7001 -7.6337,-13.5594 -14.8133,-27.3909 -20.1421,-42.0475 -6.6227,-18.1178 -12.5659,-36.4974 -16.7939,-55.3384 -3.4136,-13.6621 -6.9249,-27.2867 -10.5573,-40.8918 -0.6007,-2.2498 -1.0725,-4.5357 -1.7584,-6.7611 -0.1001,-0.3248 -0.3888,-0.5575 -0.5833,-0.8363 0,-28.2842 -40,-28.2842 -40,0 z" /></g><g
       id="g7125"
       transform="matrix(2.2500004,0,0,2.2499996,-2656.0713,-978.04149)"><path
         style="fill:#ffc800;fill-opacity:1;stroke:none;stroke-width:20;paint-order:markers stroke fill"
         id="path7115"
         d="m 2373.006,1031.388 c 11.3755,3.555 23.0111,6.3355 34.7441,8.4297 2.6173,0.4671 5.2491,0.8487 7.8737,1.273 11.6668,1.6087 23.4033,2.6487 35.1675,3.1538 5.9826,0.2092 11.9694,0.2227 17.9548,0.206 3.9582,-0.019 7.9163,-0.029 11.8745,-0.035 5.0152,-0.01 10.0304,0 15.0457,-0.01 8.8892,0.1052 17.7516,-0.7508 26.6141,-1.32 7.4496,-0.5435 14.9494,-0.522 22.3801,-1.3328 4.9886,-0.5443 9.1594,-1.3079 14.1413,-2.1287 13.5291,-2.3418 26.8773,-5.5619 40.1212,-9.1557 13.0855,-3.7709 26.1004,-7.8147 39.0121,-12.1452 11.6767,-4.0343 23.3983,-7.9491 34.9188,-12.4193 5.8216,-2.2591 11.5935,-4.645 17.3937,-6.95827 9.2826,-3.83881 18.6944,-7.39362 27.8389,-11.56116 4.6315,-2.11068 6.4299,-3.09239 10.8956,-5.37744 8.7667,-4.4024 17.1558,-9.62057 24.3734,-16.31339 1.8666,-1.73072 3.6174,-3.58211 5.426,-5.37318 9.103,-9.1974 17.2501,-19.27006 25.5535,-29.17801 7.1895,-8.70961 14.06,-17.74513 19.7951,-27.49413 1.1747,-1.99713 2.2465,-4.05307 3.37,-6.07959 6.3791,-11.85479 10.6357,-24.67682 14.5925,-37.49763 3.1594,-10.59177 6.2161,-21.21397 8.9472,-31.92478 1.869,-7.35555 4.7844,-14.46268 5.8166,-22.01098 -8.3773,-0.48913 -16.9976,-3.53004 -25.1317,-1.46743 -2.6268,0.66612 -0.6528,5.38075 -0.9311,8.07638 -1.1324,10.96714 -1.8661,22.00592 -3.8439,32.8703 -0.6609,3.63064 -1.5875,7.20791 -2.3812,10.81185 -3.3285,14.16669 -9.0599,27.57088 -13.9126,41.24008 -3.0409,8.56562 -4.209,12.555 -6.9734,21.32478 -4.0939,13.25115 -7.7679,26.64277 -12.3256,39.74766 -1.5547,4.46977 -3.2319,8.71411 -4.9334,13.11942 -2.8765,6.0166 -5.2702,12.8728 -9.5792,18.06776 -2.6893,3.25615 -5.3367,6.5337 -8.25,9.59281 -3.4018,3.62925 -7.5068,6.48005 -11.8171,8.91995 -4.2717,2.076 -8.4294,4.4582 -12.8355,6.2503 -2.0238,0.8232 -4.7233,1.6682 -6.7754,2.3428 -7.8558,2.1704 -15.7141,4.3295 -23.6109,6.3476 -7.2834,1.7312 -14.5478,3.5994 -21.9218,4.9178 -4.4426,0.7943 -8.0105,1.2649 -12.5008,1.9095 -14.1818,1.742 -28.4779,2.0759 -42.7161,3.1308 -10.9366,0.8542 -21.8693,1.7296 -32.7481,3.1523 -12.4921,1.8284 -24.7122,5.073 -36.8699,8.4084 -7.9243,2.2858 -15.7819,4.7767 -23.7546,6.8899 -5.4774,1.45 -11.0546,2.3759 -16.6763,3.0297 -6.4242,0.6708 -12.9067,0.1861 -19.3378,-0.1666 -9.8877,-0.025 -19.1246,-2.8488 -28.4845,-5.7044 -6.8357,-2.2642 -13.7688,-4.3747 -20.3973,-7.2172 -2.2705,-0.9738 -3.8311,-1.8606 -6.0065,-3.0165 -7.6138,-4.4339 -15.1824,-8.9478 -22.7615,-13.4417 -4.9627,-3.0256 -10.321,-5.3132 -15.4344,-8.0515 -1.6335,-0.8748 -3.1952,-1.8778 -4.7914,-2.8191 -3.1121,-2.1841 -6.336,-4.2013 -9.5927,-6.1606 -15.1597,-9.09303 -28.0191,12.3461 -12.8594,21.4391 v 0 c 3.3186,1.9827 6.5534,4.0977 9.7583,6.2591 1.774,1.0451 4.5498,2.7013 6.3153,3.6474 4.5841,2.4564 9.3934,4.4968 13.854,7.1898 7.9454,4.7109 15.8698,9.4612 23.877,14.0651 3.5409,1.8474 4.7398,2.5577 8.4808,4.15 7.2482,3.0853 14.8093,5.4141 22.2812,7.8737 4.8589,1.4746 8.7979,2.7449 13.7378,3.943 6.7682,1.6415 13.6914,2.6114 20.6545,2.8063 7.8657,0.4312 15.787,0.9268 23.6394,0.032 6.7909,-0.8122 13.5339,-1.9318 20.151,-3.6921 8.0437,-2.1335 15.9789,-4.6208 23.968,-6.9476 11.0506,-3.0386 22.1534,-6.0149 33.5012,-7.7282 10.4129,-1.3711 20.8819,-2.1787 31.3501,-3.0087 14.8078,-1.1058 29.6804,-1.4236 44.423,-3.3169 5.104,-0.7362 8.7005,-1.2074 13.7628,-2.1242 7.8319,-1.4183 15.5564,-3.375 23.2929,-5.2277 8.4576,-2.1645 16.8814,-4.4583 25.2809,-6.8372 3.6774,-1.2266 5.5965,-1.7975 9.2263,-3.3007 5.167,-2.1399 10.0774,-4.8955 15.0677,-7.4 1.3563,-0.7992 2.7395,-1.5542 4.0688,-2.3975 2.4172,-1.5335 3.6438,-2.5057 5.7878,-4.1869 2.6625,-2.0875 5.2908,-4.2162 7.5496,-6.7522 3.4539,-3.6511 6.6458,-7.518 9.8187,-11.4141 0.726,-0.9536 1.4906,-1.8786 2.1775,-2.8607 4.6448,-6.64105 7.7113,-14.24795 11.0202,-21.59162 1.9507,-5.05904 3.5395,-9.0679 5.3422,-14.2607 4.5902,-13.22329 8.3222,-26.72487 12.4388,-40.09744 2.5016,-7.95155 3.8097,-12.37477 6.5654,-20.13495 5.2475,-14.77846 11.4014,-29.28726 14.905,-44.63079 0.8977,-4.1805 1.936,-8.33332 2.6937,-12.54149 1.2685,-7.04559 2.2929,-16.6471 3.0229,-23.79194 0.3371,-3.29798 0.6027,-6.60289 0.9263,-9.90224 0.2035,-2.07542 2.5038,-5.25812 0.6546,-6.22181 -7.3951,-3.8535 -16.1774,-4.05461 -24.2663,-6.0819 -0.3048,2.22827 -0.2188,1.60298 -1.0951,4.61862 -1.3716,4.72043 -2.8411,9.41271 -4.1209,14.15976 -2.6257,10.31483 -5.5784,20.54077 -8.6145,30.74162 -3.4351,11.19174 -7.0911,22.4105 -12.5937,32.78534 -0.9048,1.65322 -1.7645,3.3319 -2.7143,4.95967 -5.1046,8.74823 -11.2864,16.82102 -17.7168,24.62347 -7.8309,9.34376 -15.4998,18.85556 -24.0623,27.55014 -1.3607,1.37517 -2.677,2.79551 -4.0817,4.12549 -5.7126,5.40842 -12.4439,9.5056 -19.4545,13.00083 -3.6616,1.88161 -5.7007,2.98183 -9.4721,4.70331 -8.9048,4.0649 -18.0777,7.51594 -27.1172,11.26014 -5.6409,2.24978 -11.253,4.57335 -16.914,6.77251 -11.2466,4.36917 -22.6943,8.18409 -34.0943,12.12652 -12.4447,4.18258 -24.9955,8.06856 -37.6059,11.71866 -12.4291,3.3766 -24.9542,6.4089 -37.6501,8.6173 -3.3026,0.5486 -8.5812,1.4825 -12.081,1.8753 -7.2898,0.8182 -14.6566,0.7407 -21.9651,1.3026 -8.3288,0.5362 -16.6574,1.3572 -25.0108,1.2685 -5.0268,2e-4 -10.0536,-10e-5 -15.0804,0.01 -3.9698,0.01 -7.9395,0.015 -11.9092,0.035 -5.6081,0.016 -11.2174,0.01 -16.8229,-0.1835 -10.7909,-0.4534 -21.5542,-1.4176 -32.2591,-2.8592 -2.3588,-0.3771 -4.7243,-0.715 -7.0765,-1.1315 -10.8,-1.9126 -21.514,-4.4579 -31.983,-7.728 -16.8571,-5.3233 -24.3854,18.5163 -7.5283,23.8395 z" /><g
         id="g6767"
         transform="matrix(1,0,-0.24610818,0.91386214,-305.74671,281.30709)"><path
           style="fill:#ffc800;fill-opacity:1;stroke:none;stroke-width:21.4701;paint-order:markers stroke fill"
           id="path2750"
           d="m 2885.6477,401.3266 c -1.1145,0.0437 -2.2403,-0.0577 -3.3433,0.13093 -2.7498,0.47036 -5.5084,0.97719 -8.1854,1.84097 -7.4237,2.39531 -15.656,7.25692 -22.0144,12.24943 -2.4974,1.96085 -4.8176,4.20582 -7.2263,6.30872 -9.4472,9.09328 -17.0204,20.27618 -24.5721,31.37343 -7.3615,10.81778 -2.7469,3.85497 -10.2648,15.41895 -5.1152,8.09458 -9.8086,16.53027 -13.7044,25.49033 -2.8506,6.55701 -5.1085,13.42017 -7.6205,20.15006 -0.6752,1.89261 -1.3375,3.7915 -2.0256,5.67783 -2.286,6.26417 -1.4579,3.56306 -3.7222,10.42065 -1.7344,5.25281 -3.2517,10.57872 -4.73,15.93227 -2.7905,10.10998 -4.9127,20.51583 -5.6673,31.11257 -0.194,2.72215 -0.2337,5.45598 -0.3506,8.18396 -0.1498,10.19468 0.092,20.42911 1.3806,30.53108 0.4744,3.71929 1.5803,10.07936 2.2286,13.92232 2.2545,14.56252 7.8703,27.8375 13.5816,40.9302 4.808,11.08258 10.3851,21.71734 16.6187,31.80634 6.836,11.22403 14.0891,22.11597 21.5712,32.77756 7.7005,11.34358 17.5078,20.39324 28.1506,27.83598 2.0164,1.41023 4.1072,2.6747 6.1608,4.01203 7.2885,4.04132 14.8069,7.71842 22.6338,10.15432 3.6883,1.14789 5.977,1.57733 9.6896,2.40065 11.5578,1.97332 23.0645,4.23911 34.526,6.851 20.3303,4.39157 41.0578,5.01742 61.6826,5.18933 13.9274,-0.15989 27.841,-0.88732 41.7414,-1.85035 12.2402,-0.84532 24.4981,-1.23476 36.7491,-1.80714 10.4526,-0.20356 20.8806,-0.86454 31.2904,-1.9529 10.4502,-1.1263 20.5714,-4.51974 30.6353,-7.78469 10.8524,-3.9946 21.5146,-8.59177 31.9879,-13.75046 4.9326,-2.8821 10.2923,-4.62308 15.2222,-7.50587 4.979,-2.91136 5.5005,-3.5871 10.1717,-7.27076 5.8134,-5.40645 11.6591,-11.01717 16.3314,-17.79607 3.4171,-4.95765 3.9523,-6.41809 6.6156,-11.68044 4.1961,-7.81763 6.7792,-16.53132 9.4388,-25.14092 2.4979,-7.76849 3.9947,-15.86304 5.5438,-23.92974 2.8744,-14.96757 0.1,-0.23683 3.07,-16.12318 3.4419,-18.03509 5.3893,-36.35697 6.8363,-54.72605 1.6224,-17.7453 0.7122,-35.56899 -0.2458,-53.31904 -0.9338,-13.07509 -2.3194,-26.11461 -3.9339,-39.10067 -1.5565,-11.15831 -5.5356,-21.51548 -9.8374,-31.57332 -0.8806,-1.70791 -1.668,-3.48448 -2.6416,-5.12377 -5.1152,-8.61048 -11.7375,-16.08128 -18.4653,-22.99726 -7.2316,-6.97213 -15.6223,-12.12379 -23.9736,-17.06598 -1.6156,-0.87421 -3.2288,-1.75388 -4.8464,-2.62269 -5.1292,-2.75493 -3.6195,-1.84419 -8.4344,-4.66377 -3.8994,-2.28341 -4.4672,-2.78224 -8.6932,-4.90337 -1.575,-0.7907 -3.1863,-1.48303 -4.7794,-2.22454 -10.137,-3.83577 -20.2832,-7.63477 -30.5125,-11.13243 -11.2916,-3.43388 -22.5973,-6.90598 -34.0834,-9.38774 -5.4909,-1.1864 -9.961,-1.89632 -15.4429,-2.83558 -13.411,-2.14533 -26.8976,-3.42243 -40.4133,-4.24346 -12.6579,-0.47737 -25.3018,-1.31036 -37.9571,-1.86083 -10.809,-0.39326 -21.6244,-0.68202 -32.4384,-0.50028 -12.3442,0.60864 -24.5775,2.71612 -36.6964,5.38847 -10.269,2.50792 -20.5431,5.54775 -30.0699,10.75652 -2.7287,1.49192 -5.5002,2.94759 -8.0034,4.89503 -3.624,2.81923 -6.8715,6.23318 -10.3071,9.34977 -13.6099,15.02638 -26.3184,31.23329 -37.6865,48.57335 -2.1267,3.24389 -4.1328,6.59046 -6.1992,9.88571 -11.9689,21.07008 -19.7455,44.8659 -23.9135,69.54172 -0.7864,4.6551 -1.2579,9.37354 -1.8865,14.06028 -1.1208,14.72614 -0.8909,29.85329 4.0084,43.74482 0.8409,2.38383 1.7055,4.80548 3.0001,6.90205 1.9135,3.09911 4.3649,5.70677 6.5474,8.56015 2.3765,1.68338 4.5546,3.81309 7.1292,5.05017 10.5281,5.0588 21.3582,3.27236 29.9006,-5.83737 6.8241,-7.27748 6.6569,-12.48907 8.7095,-22.14631 -0.1405,-3.70997 0.079,-7.46152 -0.4212,-11.12989 -1.3554,-9.92848 -5.3747,-19.33002 -10.0081,-27.72423 -1.1951,-2.16502 -2.4135,-4.32835 -3.8394,-6.29917 -1.6518,-2.28345 -3.5777,-4.284 -5.3665,-6.426 -9.2139,-6.16546 -12.028,-10.30358 -24.8089,-5.99257 -7.3862,2.49126 -12.9622,10.10795 -16.4211,17.52596 -3.4584,7.4168 -2.9525,9.33442 -3.8833,17.76473 8.6286,7.44863 15.5389,18.85511 25.8855,22.34585 4.849,1.63597 8.8992,-5.63826 12.8415,-9.2801 2.5072,-2.31597 4.3201,-5.49105 6.3024,-8.40513 6.074,-8.92886 11.1755,-18.80679 16.5063,-28.32542 6.5511,-11.509 13.9062,-22.35387 20.9209,-33.48097 6.1272,-9.71941 5.2146,-8.33209 11.1011,-18.24465 3.4943,-6.50816 7.648,-12.62646 12.8328,-17.48029 4.7146,-4.41344 10.4526,-7.34816 15.8385,-10.44712 10.2695,-5.54523 20.9809,-9.93387 31.7955,-13.8311 1.1449,-0.37092 2.2728,-0.82077 3.4348,-1.11281 2.0299,-0.5102 4.8321,-0.70458 6.8411,-0.73958 6.7082,-0.11688 13.185,0.949 19.8157,2.02426 18.742,3.00377 36.9713,9.0365 55.5215,13.1657 3.112,0.69269 6.2481,1.23248 9.3723,1.8487 8.6096,1.40936 17.3001,1.86815 25.9848,2.02411 2.9739,0.0534 5.9496,-0.0373 8.9228,0.056 7.0659,0.22142 11.3379,0.72967 18.4549,1.38614 8.3264,0.81708 16.6391,1.80376 24.9576,2.72045 1.9725,0.21737 3.9577,0.30793 5.9188,0.63354 3.3456,0.55551 5.6663,1.55672 8.9085,2.71417 3.5044,1.71764 5.385,2.57386 8.8328,4.53739 0.3511,0.20009 4.462,2.47713 5.0096,3.49126 0.1286,0.23802 -0.5389,0.40293 -0.4487,0.6633 0.4551,1.31365 1.2869,2.409 1.9304,3.6135 6.5347,13.08041 12.26,26.67643 17.694,40.40115 4.849,12.0543 6.1709,25.21359 7.3761,38.27208 0.7921,10.26843 -0.7522,20.39289 -2.3871,30.4392 -3.9635,24.35356 0.9962,-6.98681 -2.9218,17.94572 -2.1339,15.68277 -3.8351,31.42502 -6.2576,47.05554 -0.4176,2.01391 -0.7271,4.06165 -1.2528,6.04169 -1.3156,4.95628 -4.4022,11.14526 -7.2451,15.17151 -0.7319,1.03655 -1.5481,1.9901 -2.3223,2.98513 -6.5765,7.70442 -14.0711,14.13571 -22.252,19.36953 -7.7893,4.72346 -16.2586,7.69844 -24.8981,9.46251 -10.5854,2.49117 -21.3748,3.27259 -32.1251,4.17181 -17.2485,1.60401 -34.4977,3.27028 -51.7806,4.29631 -11.3387,0.61588 -22.7081,1.05663 -34.0431,0.0513 -7.4266,-0.65866 -11.3861,-1.53019 -18.9405,-2.84838 -9.73,-1.96738 -19.3937,-4.3318 -29.0174,-6.89281 -2.8641,-0.76215 -5.7454,-1.4495 -8.582,-2.33793 -5.6621,-1.77333 -9.6139,-3.58151 -15.1328,-5.89348 -13.9396,-5.9056 -27.6395,-12.64504 -40.6742,-20.86359 -3.6065,-2.57736 -6.3574,-4.49369 -9.8925,-7.22264 -1.9097,-1.47438 -4.9032,-3.6966 -6.5304,-5.85452 -0.5763,-0.76428 -0.939,-1.71161 -1.4087,-2.56734 -0.7929,-1.44476 -1.5859,-2.88945 -2.3788,-4.33419 -5.2353,-10.85194 -9.9682,-22.02309 -14.2169,-33.43138 -0.8615,-2.29872 -2.1055,-5.3323 -2.7239,-7.84956 -0.3241,-1.31915 -0.5291,-2.67338 -0.7874,-4.01176 -1.329,-6.8935 -2.3534,-13.76661 -3.2522,-20.75099 -1.0086,-9.71416 0.9517,-19.18691 3.9296,-28.21067 2.835,-7.0634 5.9219,-14.21584 10.0954,-20.38714 0.8684,-1.28431 1.8288,-2.48269 2.7429,-3.72404 6.2921,-8.86045 13.8465,-16.20862 21.6956,-23.14234 7.4927,-6.54957 15.6787,-11.94856 23.6995,-17.5772 4.6514,-3.01639 9.2782,-6.21002 14.1777,-8.68367 4.8067,-2.42681 10.0052,-4.01714 15.0112,-5.76988 14.197,-4.60665 29.0502,-5.29642 43.6742,-6.64723 11.3033,-0.91177 22.6169,-1.85669 33.9479,-2.16956 2.7173,-0.075 5.4364,-0.17992 8.1537,-0.10855 2.8159,0.0738 5.6245,0.36271 8.4367,0.54409 3.1412,0.30538 6.2876,0.54441 9.4234,0.91619 4.8951,0.5804 13.2853,1.91484 18.2065,2.69425 7.0914,1.12304 14.1788,2.20404 21.244,3.52814 2.2389,0.53918 4.4881,1.02538 6.7172,1.61755 8.7463,2.32376 17.3781,5.20366 26.0461,7.87703 5.4811,1.69051 10.9718,3.34056 16.456,5.01854 2.0244,0.64953 4.0495,1.29515 6.073,1.94851 2.2244,0.7183 6.0098,1.89623 8.3505,2.85435 3.7497,1.53477 7.2737,3.64963 10.7995,5.74805 2.3188,1.94867 7.9463,5.38972 8.9234,8.79997 0.05,0.17334 -0.1918,0.30411 -0.2244,0.48275 -0.068,0.3742 -0.048,0.76267 -0.072,1.14403 0.214,1.70257 0.7136,5.3628 0.7226,6.93464 0.01,0.94824 -0.1845,1.88484 -0.2996,2.82378 -0.7127,5.81528 -2.1883,11.34291 -3.5501,16.99668 -4.0418,15.21013 -8.8133,30.13082 -13.7467,44.98027 -5.5282,16.10533 -10.242,32.61959 -16.3182,48.47413 -0.8025,2.09428 -1.7166,4.12943 -2.5749,6.19416 -2.6784,5.21425 -4.4781,11.25316 -7.9603,15.88935 -1.407,1.8731 -1.5991,1.86513 -3.4083,3.48464 -4.7192,4.26859 -9.5761,8.64737 -15.1533,11.36029 -2.9741,1.44677 -8.8233,3.25712 -11.4966,4.15404 -16.0785,5.18219 -32.7009,6.77624 -49.3009,7.70429 -3.0073,0.10138 -6.0142,0.22999 -9.022,0.30411 -12.0772,0.29754 -24.0771,-0.083 -36.1297,-1.08513 -10.755,-0.89425 -17.2122,-1.79825 -27.9278,-3.11954 -14.8307,-2.17633 -29.8633,-3.10896 -44.5146,-6.73453 -6.0989,-1.50922 -9.6184,-2.90171 -15.5805,-4.9929 -6.8768,-2.63026 -13.625,-5.68324 -20.2933,-8.94358 -3.7219,-1.81976 -6.8707,-3.35718 -10.1764,-5.97345 -5.5303,-5.15228 -9.6197,-11.85638 -13.2109,-18.84854 -1.0308,-2.47857 -1.8441,-4.06923 -2.4021,-6.72127 -0.2871,-1.36325 -0.4252,-2.76264 -0.6102,-4.14913 -0.9469,-7.10439 -1.4808,-14.19918 -1.9396,-21.36386 -0.092,-5.16207 -0.6001,-10.41308 0.2032,-15.54231 0.4654,-2.97322 1.7981,-5.77709 2.8871,-8.47584 4.7509,-10.66961 8.7622,-21.78747 14.3735,-31.91475 3.7044,-7.02555 8.2309,-13.01188 13.3763,-18.64767 8.3666,-6.52739 18.2494,-9.72305 27.8807,-12.7576 20.9966,-5.59421 42.4148,-8.54401 63.8339,-10.95476 15.9057,-2.03987 31.8924,-2.69961 47.8814,-3.01754 15.7043,-0.20146 31.41,-0.17414 47.1151,-0.15292 5.8468,0.39377 12.0224,-0.68748 17.8171,0.67745 2.2918,0.53982 4.939,2.03257 6.9911,3.03993 13.6758,7.58684 26.4403,17.10316 38.9736,26.91148 4.9218,4.00939 9.9267,7.88911 14.6791,12.16724 0.9554,0.86021 3.5378,2.45594 3.6565,4.47663 -0.086,0.55973 -0.5543,-0.30991 -0.608,-0.083 -0.1381,0.58406 0.1313,1.2156 0.057,1.81496 -0.055,0.4427 -0.3295,0.81406 -0.4342,1.24455 -2.3456,9.63637 1.32,-3.79193 -1.7958,7.30764 -1.842,5.76021 -4.5556,11.18881 -7.8504,16.01691 -1.2348,1.80929 -5.6806,7.52556 -6.7593,8.92717 -4.4204,6.10238 -9.7039,11.1989 -14.8019,16.50386 -5.2945,5.50957 -7.3776,7.7888 -12.7124,13.50942 -9.9684,10.29575 -19.1209,21.89634 -30.2157,30.66514 -1.1906,0.94108 -2.4767,1.71058 -3.7153,2.56589 -7.5835,4.40406 -15.8429,6.74818 -24.0509,9.01632 -7.9663,2.26948 -16.0977,3.08725 -24.2649,3.5716 -15.43,1.24244 -30.707,-2.06397 -45.9057,-4.63939 -2.9679,-0.48048 -5.9338,-0.97587 -8.9035,-1.44142 -6.5082,-1.02025 -8.8871,-1.43535 -15.3879,-1.94702 -4.3495,-0.34237 -8.718,-0.32376 -13.0633,-0.73036 -1.5872,-0.14855 -3.162,-0.4405 -4.7432,-0.66074 -11.499,-2.79716 -22.1726,-8.52939 -32.829,-14.03856 -6.3534,-3.4181 -12.818,-6.4566 -19.3966,-9.23998 -2.0896,-0.88409 -4.2161,-1.65669 -6.2785,-2.6217 -4.5045,-2.10773 -5.7923,-3.14864 -10.0124,-5.89072 -2.713,-2.26952 -6.2695,-4.60467 -7.6385,-8.433 -0.7916,-2.21387 0.1752,-0.91864 0.5675,-2.51743 0.2829,-1.15282 0.3017,-2.37072 0.4522,-3.55609 1.719,-9.17787 5.8764,-17.17383 10.9837,-24.34847 4.6241,-5.36831 10.3161,-9.25906 15.8744,-13.18551 8.0854,-5.21175 15.7687,-11.20006 23.7982,-16.51852 1.0576,-0.63079 2.1122,-1.26785 3.1727,-1.89242 3.2099,-1.89075 4.0539,-2.47308 7.4265,-3.9343 5.5298,-2.39574 11.2126,-4.08379 16.9249,-5.77844 14.2785,-3.48117 28.9044,-3.77377 43.4353,-3.93283 23.3683,0.007 46.7366,0.1691 70.1048,0.2628 3.1779,0.0118 6.3558,0.0241 9.5338,0.0353 8.5113,0.0302 17.2108,-0.50924 25.6706,0.85124 1.6404,0.26387 3.2594,0.683 4.8893,1.0245 4.6598,1.19507 9.3122,2.50028 13.8972,4.03934 1.0464,0.35131 5.0692,1.62989 5.8547,2.54869 -0.2204,0.0177 -0.7795,-0.16201 -0.6612,0.0531 0.558,1.01527 1.4346,1.745 2.1378,2.63257 1.2753,1.60943 2.562,3.20802 3.7973,4.85813 1.9418,2.59318 6.3463,8.78375 8.1275,11.58834 0.9364,1.47472 1.7553,3.04398 2.6329,4.56597 3.7134,5.93652 0.2209,1.95924 -0.027,1.53419 -0.3005,-0.51752 -0.2794,-1.25772 -0.649,-1.71217 -0.1236,-0.15202 -0.217,0.46298 -0.3953,0.42797 -0.2228,-0.665 -0.016,-0.51621 -0.5241,-0.59258 -7.1361,5.91388 -14.8051,10.95366 -22.2832,16.2684 -11.3779,8.29744 -22.9783,16.17702 -34.5258,24.15463 -7.2112,4.65475 -14.4986,9.17675 -21.8284,13.58297 -5.8139,3.23566 -11.3583,7.48635 -17.6204,9.56398 -1.0036,0.33296 -2.0474,0.47478 -3.0713,0.71215 -14.2719,2.73897 -28.8314,2.27783 -43.2324,1.6152 -16.8775,-0.80237 -33.4357,-4.76578 -50.0065,-8.23487 -7.1498,-1.59109 -14.3322,-3.08404 -21.4268,-4.98651 -6.1132,-1.63929 -12.1499,-3.70441 -18.1805,-5.6992 -6.1042,-2.00259 -3.7661,-1.21835 -9.261,-3.07947 -2.83,-0.95852 -3.6253,-1.04292 -6.0216,-2.41181 -2.3104,-1.3198 -2.5115,-1.63167 -4.59,-3.3492 -0.8689,-0.77633 -1.7891,-1.48171 -2.6067,-2.32903 -2.0741,-2.14989 -0.7297,-2.60671 0.6408,0.18408 0.93,1.89349 0.9136,2.83237 1.157,4.79622 0.2392,-0.61666 -0.3852,2.8373 0.3538,2.61143 1.1205,-0.34251 1.9918,-1.36924 3.0094,-2.00943 1.7131,-1.07785 3.4229,-2.16727 5.1813,-3.14378 4.8781,-2.70913 8.5421,-4.27066 13.6202,-6.6096 12.1708,-5.59919 24.77,-9.79425 37.0957,-14.88393 8.872,-4.02051 17.4233,-8.91513 26.0225,-13.6437 7.5293,-4.62443 16.1118,-5.27444 24.4404,-6.25485 15.0585,-1.10953 30.0984,-2.59191 45.1667,-3.50332 26.8584,-1.27807 53.7385,-1.6157 80.6056,-2.58079 9.1284,-0.10336 18.2502,-0.9419 27.3783,-1.03972 1.3777,-0.0147 2.7591,0.007 4.1312,0.14992 0.4546,0.0475 1.7754,0.46704 1.3205,0.41971 -1.0903,-0.11351 -2.1598,-0.41296 -3.2395,-0.61946 -5.2168,-3.64794 -3.9804,-1.93416 -7.6819,-8.70661 -0.3527,-0.64541 -0.3191,-1.53999 -0.7504,-2.11859 -0.1442,-0.19356 -0.172,0.48974 -0.3371,0.65959 -0.1624,0.16688 -0.6167,0.0607 -0.7866,0.0386 -0.067,-0.29213 0.043,-0.98153 -0.2024,-0.87636 -0.9461,0.40449 -1.615,1.39881 -2.4688,2.01853 -1.4237,1.03355 -2.8551,2.06382 -4.358,2.93681 -7.6192,4.42678 -15.9247,7.27062 -23.958,10.48336 -3.0411,1.21743 -6.083,2.43116 -9.1231,3.65223 -9.7247,3.90615 -7.6192,2.97783 -17.4344,7.3717 -4.4712,2.00161 -11.2911,5.2231 -15.8772,7.02175 -2.5217,0.989 -5.0927,1.80298 -7.6387,2.70449 -13.915,4.09458 -28.1067,6.95251 -42.3257,9.23573 -12.3068,1.98046 -24.6832,3.28707 -37.0803,4.21627 -4.6665,0.2481 -9.3387,0.47145 -14.0113,0.49449 -2.6651,0.0131 -4.6598,0.0875 -7.2252,-0.51946 -1.0501,-0.24856 -2.0651,-0.66552 -3.0978,-0.9983 -9.5419,-4.40263 -18.5568,-10.17382 -27.2841,-16.39665 0.14,-0.0104 0.3109,-0.13319 0.4202,-0.0318 2.7019,2.50463 5.3692,6.47815 5.2403,10.74434 -0.1696,5.61361 -2.0417,11.01888 -3.684,16.30749 -0.3741,1.20486 -2.0489,1.56694 -2.2564,2.82408 -0.1111,0.67297 1.1885,0.0321 1.7828,0.0481 22.5766,-4.8547 45.5316,-6.70078 68.3776,-9.04602 13.1413,-1.50425 26.3522,-2.49698 39.4337,-4.65193 6.9398,-1.14326 9.3216,-1.81324 15.9756,-3.37886 12.5912,-3.56425 24.7745,-8.79548 37.4287,-12.07086 3.3375,-0.72901 6.7376,-1.09838 10.1349,-1.11803 0.63,-0.003 2.5133,0.18644 1.8881,0.098 -0.7739,-0.10937 -1.9135,0.59476 -2.3347,-0.1612 -5.4372,-9.75728 -9.7938,-20.26047 -14.6907,-30.39073 4.2264,-4.6865 9.4972,-8.38171 12.6796,-14.05945 0.9411,-1.67889 -3.4534,0.3873 -5.171,0.66363 -3.1637,0.50903 -6.3185,1.09044 -9.47,1.69198 -8.3918,1.60191 -16.0277,3.20309 -24.3732,5.28892 -5.0553,1.26352 -10.0808,2.68124 -15.1214,4.02187 -5.7251,1.53647 -11.4361,3.1446 -17.1752,4.60947 -15.1704,3.87212 -23.59,5.90518 -39.202,8.32212 -21.0267,3.25522 -42.2058,4.71652 -63.3656,6.20574 -18.7608,1.35514 -37.6258,1.28831 -56.3152,3.80144 -12.8651,3.61045 -17.9581,3.29331 -17.5996,33.77441 0.079,6.71467 7.9338,10.0025 12.7495,13.78329 3.2084,2.5188 7.2216,3.29284 10.8855,4.77194 6.4595,2.60775 20.0782,7.35963 26.3747,9.59572 4.7427,1.54134 9.4629,3.17889 14.2283,4.62405 10.7243,3.25224 17.9022,5.0989 28.9017,7.16238 4.9237,0.92364 9.8788,1.60807 14.8241,2.35836 14.6235,2.21849 17.0127,2.41806 32.335,4.35827 39.8783,5.07627 80.0285,5.2104 120.0915,4.75937 13.4051,-0.26143 26.8136,-0.38574 40.2177,-0.73029 5.1594,-0.13261 11.7697,-0.29963 16.9854,-0.86124 2.4556,-0.26442 4.8938,-0.71511 7.3406,-1.07269 10.4434,-2.50918 2.6382,-0.44507 11.5483,-3.21985 0.3204,-0.0998 -0.6831,0.62303 -0.939,0.37962 -7.8684,-7.48598 -16.0308,-14.6764 -23.0537,-23.20641 -0.9369,-1.13801 1.2277,-5.53631 0.073,-4.70554 -2.0831,1.49866 -2.4795,4.88585 -3.7193,7.32875 -7.2697,14.33714 -15.068,28.29527 -23.0148,42.14131 -1.9785,3.20632 -3.9579,6.4105 -5.896,9.64956 -16.0353,26.85074 16.9151,52.98462 32.9505,26.13388 v 0 c 2.0719,-3.47787 4.2254,-6.88832 6.3097,-10.35638 8.3537,-14.55972 16.546,-29.24146 24.189,-44.31634 2.045,-4.03861 10.4379,-19.62487 9.0181,-22.7909 -11.198,-24.97177 -14.2923,-28.02338 -27.2677,-24.45959 -1.8436,0.5064 -3.5454,1.61789 -5.4845,1.72952 -1.5325,0.2539 -3.0568,0.58729 -4.5977,0.76164 -4.6379,0.52481 -10.6161,0.65878 -15.132,0.77483 -13.3049,0.34193 -26.6142,0.46577 -39.9204,0.72562 -38.4744,0.437 -77.0358,0.37535 -115.3353,-4.48644 -16.365,-2.06711 -15.7983,-1.89551 -31.2886,-4.20985 -10.0187,-1.4969 -15.7448,-2.26435 -25.6174,-4.68241 -4.2527,-1.04157 -8.4712,-2.2663 -12.6768,-3.53641 -4.4532,-1.34481 -8.8632,-2.87135 -13.2947,-4.30704 -4.453,-1.5798 -8.9139,-3.12921 -13.3583,-4.73938 -3.751,-1.35899 -7.4854,-2.77874 -11.2282,-4.16791 -1.8856,-0.69989 -5.5821,-4.3807 -5.657,-2.09935 -0.1225,3.72869 6.1502,5.65329 5.4208,9.28876 -5.8799,29.30614 -3.996,28.68312 -14.5926,29.61453 17.8935,-2.58402 36.0344,-1.98045 53.9917,-3.55879 22.4729,-1.5917 44.9529,-3.19285 67.2793,-6.70593 16.6362,-2.61768 25.845,-4.83558 41.9147,-8.93708 5.7203,-1.46003 11.4123,-3.06292 17.1186,-4.59439 4.6641,-1.24681 9.3138,-2.56502 13.9919,-3.74042 8.2397,-2.07038 14.4516,-3.34183 22.6934,-4.94236 2.577,-0.50045 5.1535,-1.00834 7.7419,-1.42354 2.0619,-0.33074 4.3768,0.3334 6.205,-0.81361 6.7948,-4.26285 12.7717,-10.06546 19.1575,-15.09819 -4.8054,-10.40529 -8.5514,-21.55885 -14.4164,-31.21578 -0.9723,-1.60116 -3.3475,-0.66192 -5.0379,-0.81726 -7.2046,-0.66214 -14.7651,0.79463 -21.8292,2.17407 -2.1267,0.56982 -4.264,1.08762 -6.3796,1.70945 -10.1571,2.9855 -20.038,7.11167 -30.1834,10.14434 -4.807,1.15363 -7.7489,1.94383 -12.6868,2.76142 -12.6714,2.09803 -25.472,3.03778 -38.2016,4.50325 -25.2817,2.59561 -50.7347,4.5557 -75.6222,10.57418 -4.8162,1.84895 -14.9905,4.50752 -18.2342,10.38564 -3.31,5.9981 -5.8418,12.87762 -6.5673,19.9365 -0.6553,6.37863 4.3424,14.35323 7.9918,18.64824 1.5401,1.81263 3.4247,3.18847 5.1369,4.78273 12.4391,8.78519 25.3068,17.06111 39.3035,22.06743 2.6525,0.64151 5.279,1.44686 7.9571,1.92454 9.2327,1.64651 18.6563,0.38388 27.9276,0.16807 13.3887,-1.01079 26.7554,-2.42456 40.0468,-4.5678 16.3531,-2.67233 32.6877,-5.91668 48.6468,-10.87122 3.2457,-1.17711 6.5172,-2.26205 9.7364,-3.53135 4.7794,-1.88461 11.4858,-5.04341 16.2378,-7.17921 9.127,-4.10223 6.6714,-3.02419 16.2083,-6.8549 3.0427,-1.22221 6.0878,-2.43709 9.1319,-3.65567 13.9065,-5.57986 27.7333,-10.71827 39.861,-20.68414 2.1246,-1.74593 4.2132,-3.58423 6.0704,-5.69655 2.3672,-2.69196 4.3717,-5.77656 6.5577,-8.66486 1.1877,-2.64903 2.596,-5.18143 3.5631,-7.94706 2.5461,-7.27986 4.1418,-18.92158 2.0905,-26.53447 -1.1793,-4.37671 -2.8512,-8.68879 -5.2438,-12.3493 -1.9942,-3.05071 -5.0869,-4.89756 -7.6303,-7.34632 -2.8697,-1.23568 -5.6502,-2.79204 -8.609,-3.70711 -3.3028,-1.0215 -9.4189,-1.10088 -12.7921,-1.06772 -9.1006,0.0895 -18.1951,0.94055 -27.296,1.03665 -27.1587,0.97636 -54.3311,1.3054 -81.4803,2.62329 -15.753,0.97448 -31.4809,2.46619 -47.2207,3.69028 -13.1347,1.62256 -25.5892,3.39575 -37.4952,10.49898 -7.3983,4.07095 -14.7606,8.26402 -22.3393,11.87194 -12.7762,5.33005 -25.8903,9.57211 -38.486,15.49456 -14.9492,6.97605 -32.3916,14.79612 -41.982,30.68723 -1.7452,2.89174 -2.6262,6.36149 -3.9394,9.54226 -1.3922,8.95721 -2.6257,11.57074 -0.5961,20.80585 2.5673,11.68151 9.8759,20.1649 18.1782,26.78504 5.3047,3.86393 6.1212,4.78839 11.81,7.66145 6.0939,3.07761 12.6193,4.70509 18.9584,6.93186 14.3259,4.72894 28.7727,8.89703 43.484,11.72914 18.4203,3.85483 36.8412,8.12913 55.6059,8.94232 18.1481,0.78907 36.5112,1.20812 54.4082,-2.93559 2.5267,-0.77712 5.0855,-1.42637 7.5797,-2.33143 7.751,-2.81235 14.818,-7.62816 22.0226,-11.83882 8.0095,-4.8378 15.9954,-9.75067 23.8586,-14.8945 11.6906,-8.07721 23.4341,-16.05617 34.9543,-24.45505 4.1992,-2.98443 8.4127,-5.94224 12.6069,-8.93618 7.511,-5.36165 15.0267,-10.83878 20.6523,-18.86707 3.642,-6.10565 4.8903,-7.32862 7.0255,-14.49538 3.2015,-10.74523 2.744,-20.31923 -0.6932,-30.94582 -0.8962,-2.77082 -2.4172,-5.21699 -3.6259,-7.82546 -1.429,-2.39005 -2.7918,-4.83452 -4.287,-7.17015 -2.2791,-3.55971 -7.5229,-10.87592 -9.9629,-14.08726 -2.5659,-3.37744 -7.5263,-9.61173 -10.582,-12.51131 -2.0452,-1.94084 -4.322,-3.53321 -6.4828,-5.29982 -1.692,-0.89884 -3.3539,-1.87676 -5.0758,-2.69654 -1.1493,-0.54713 -2.3455,-0.9541 -3.5274,-1.39929 -7.2895,-2.74557 -14.7566,-4.85774 -22.2602,-6.66028 -2.6405,-0.49362 -5.2673,-1.09607 -7.9214,-1.48084 -12.8397,-1.86144 -25.8344,-0.63165 -38.7254,-1.07967 -23.5466,-0.0944 -47.093,-0.26047 -70.6396,-0.26083 -17.7837,0.20999 -35.6732,0.80014 -53.0883,5.40883 -5.9563,1.79336 -9.2948,2.68529 -15.1858,4.92791 -6.1187,2.32921 -11.9621,5.15822 -17.6771,8.56908 -1.5504,0.92546 -3.0882,1.87928 -4.6323,2.81893 -8.3198,5.56726 -16.3512,11.68459 -24.7221,17.15322 -9.5298,6.76364 -18.9852,13.86171 -26.2792,23.82641 -1.3415,1.98701 -2.7512,3.91525 -4.0246,5.96098 -6.3069,10.13295 -11.3676,21.70866 -13.8668,33.89242 -0.803,3.91386 -1.1531,7.93298 -1.7296,11.89946 0.075,11.21646 -0.7006,14.74961 2.8284,25.75249 3.2216,10.04378 10.006,18.37948 17.2429,24.77209 2.3212,2.05047 4.8617,3.74872 7.2924,5.6231 7.4922,4.65496 7.8042,5.15551 15.6271,8.81691 8.4775,3.9677 3.5322,1.14108 11.0379,4.59122 1.9217,0.88335 3.8002,1.88699 5.6959,2.84184 2.0688,1.04205 4.1318,2.09919 6.1976,3.1488 3.2938,1.70214 11.5383,5.99462 14.6892,7.48389 9.6745,4.5729 19.7138,8.2656 30.0326,10.30189 2.4098,0.29775 4.8135,0.66852 7.2295,0.89324 3.9081,0.36354 7.7525,0.34025 11.6607,0.62135 5.5986,0.40262 7.3125,0.7402 13.2183,1.66527 2.8845,0.45174 5.7653,0.93265 8.6479,1.39899 17.825,3.02009 35.7497,6.56416 53.8385,5.06526 10.6053,-0.66166 21.1685,-1.85207 31.51,-4.7868 12.3851,-3.44577 24.7436,-7.38114 35.8852,-14.739 2.2222,-1.6362 4.5048,-3.16826 6.6664,-4.9086 12.1391,-9.77292 22.4311,-22.21334 33.3216,-33.67273 4.8326,-5.18408 7.2493,-7.81891 12.0462,-12.81058 6.2857,-6.54082 12.7101,-12.93575 18.1899,-20.42066 3.4091,-4.45815 6.4635,-8.29462 9.5872,-13.07007 5.8258,-8.90604 10.3764,-18.91508 13.4471,-29.48191 1.6114,-6.69663 2.7972,-10.43709 3.3245,-17.41969 0.6615,-8.76391 -0.096,-17.13569 -2.9678,-25.3229 -0.7657,-2.18242 -1.8854,-4.17663 -2.8284,-6.26497 -1.279,-2.02121 -2.4302,-4.15863 -3.8375,-6.06363 -6.8585,-9.28576 -16.7899,-15.7024 -25.1849,-22.92044 -15.0691,-11.77321 -30.4588,-23.18305 -47.1067,-31.80533 -2.9927,-1.25609 -5.924,-2.72736 -8.9786,-3.76817 -9.8065,-3.3417 -20.0001,-3.06872 -30.1078,-3.0066 -15.953,-0.0216 -31.9063,-0.0492 -47.8583,0.15988 -17.058,0.34526 -34.1125,1.0707 -51.0823,3.22986 -23.7313,2.68334 -47.4676,6.00786 -70.6893,12.43221 -3.4864,1.13865 -7.0056,2.15071 -10.4587,3.41597 -10.3389,3.78817 -20.7436,8.78931 -29.6254,16.0904 -1.6576,1.3624 -3.1723,2.94154 -4.7585,4.4123 -2.943,3.28223 -4.0862,4.45327 -6.8726,7.99516 -4.7405,6.02581 -8.9127,12.62141 -12.7129,19.46751 -1.129,2.11059 -2.3091,4.18593 -3.3867,6.33177 -5.1118,10.17885 -9.0305,21.08879 -13.7078,31.52624 -2.2773,6.18422 -3.3674,8.50066 -4.8186,15.09462 -2.2217,10.09489 -2.0119,20.54974 -1.5145,30.85856 0.8538,12.89777 1.6807,25.95906 5.0327,38.39233 1.5536,5.76302 3.2647,9.04746 5.6274,14.33378 1.1319,2.11227 2.2058,4.2671 3.3954,6.3368 6.1119,10.63451 13.5789,20.22001 22.67,27.56512 1.7852,1.25343 3.5259,2.59455 5.3552,3.76025 3.289,2.09599 7.4268,4.13953 10.8725,5.81741 7.8941,3.84392 15.888,7.42583 24.0406,10.48106 8.3224,2.85984 11.4453,4.14346 20.0432,6.22383 15.5954,3.77348 31.5492,4.96833 47.334,7.19876 11.6178,1.42481 18.216,2.3517 29.9196,3.30656 13.194,1.07646 26.3485,1.47446 39.5684,1.13799 3.27,-0.0832 6.5387,-0.22658 9.8081,-0.33988 7.8608,-0.45411 11.5049,-0.56171 19.344,-1.42647 13.3212,-1.46952 26.5372,-4.08983 39.4528,-8.15702 7.8605,-2.76362 11.2141,-3.59983 18.5954,-7.48568 8.4313,-4.43858 15.9311,-10.95671 23.0794,-17.65394 1.8605,-1.9779 3.8134,-3.84618 5.5814,-5.93374 6.8154,-8.04695 10.9802,-18.41278 15.4429,-28.24145 1.1332,-2.77993 2.3254,-5.52887 3.3996,-8.33975 6.2011,-16.2263 11.0623,-33.10013 16.7008,-49.58357 5.3938,-16.24023 10.5976,-32.56839 14.9558,-49.22482 1.5407,-6.49362 3.0822,-12.43449 4.0908,-19.10137 1.6766,-11.0831 1.1983,-22.28769 -1.2237,-33.16475 -2.5416,-8.4353 -2.4321,-9.98394 -6.8885,-17.31148 -5.5237,-9.08244 -13.7705,-15.35048 -21.8929,-20.91726 -4.9975,-2.90405 -6.4061,-3.86654 -11.5361,-6.29085 -6.9884,-3.30261 -14.315,-5.39849 -21.5733,-7.73558 -5.415,-1.65676 -10.8366,-3.2851 -16.2486,-4.95437 -12.2262,-3.77091 -24.3981,-7.89153 -36.8636,-10.51371 -7.4052,-1.36769 -14.8249,-2.52703 -22.2555,-3.70099 -6.1314,-0.96879 -14.1665,-2.24545 -20.2467,-2.95093 -3.5602,-0.41309 -7.1323,-0.67666 -10.6984,-1.01498 -3.6581,-0.20027 -7.3128,-0.51643 -10.9741,-0.60082 -3.0488,-0.0703 -6.0989,0.0506 -9.1472,0.13693 -11.9023,0.33733 -23.7863,1.32202 -35.6592,2.28527 -17.5059,1.61872 -35.233,2.7044 -52.1671,8.51225 -5.0927,1.80224 -8.8966,3.0523 -13.8943,5.20719 -8.5371,3.68091 -16.5878,8.59165 -24.4094,13.95975 -9.2594,6.49858 -18.6754,12.78474 -27.2849,20.41253 -10.2243,9.09121 -19.9954,18.83588 -28.2014,30.40083 -1.5698,2.2403 -3.2094,4.41793 -4.7094,6.72083 -6.1378,9.42344 -10.8312,20.10652 -14.8209,30.90352 -0.7419,2.40944 -1.5615,4.78893 -2.2256,7.22836 -3.8301,14.07171 -5.2473,28.90819 -3.6751,43.56921 1.9577,14.95497 3.9875,30.18865 9.5816,44.01311 5.2131,13.92557 10.9601,27.61751 17.6313,40.69951 4.3291,7.32941 5.4634,9.9369 11.1295,16.45477 1.7327,1.99304 3.7031,3.69657 5.6475,5.41039 5.5748,4.91322 11.7697,8.84998 17.6945,13.1448 2.3249,1.44284 4.6239,2.94348 6.9752,4.32854 12.6691,7.46265 25.8967,13.63716 39.2086,19.38045 8.2146,3.3849 10.9789,4.72979 19.4916,7.38632 2.9705,0.927 5.9865,1.6492 8.9855,2.44527 10.5791,2.80817 21.2032,5.39804 31.9048,7.51525 9.9452,1.69053 13.2017,2.46892 22.9973,3.3044 12.6408,1.07816 25.3231,0.6211 37.9664,-0.0639 17.5567,-1.05779 35.0814,-2.71279 52.6029,-4.35531 12.2558,-1.02536 24.5438,-2.01851 36.6115,-4.84267 2.1714,-0.48619 4.3563,-0.89845 6.5143,-1.45851 10.6928,-2.77518 21.0581,-7.32997 30.74,-13.21553 1.8791,-1.24513 3.7889,-2.43053 5.637,-3.73539 10.088,-7.12228 19.1794,-15.99581 27.3333,-25.84452 1.5428,-2.14114 3.17,-4.20535 4.6289,-6.42347 7.6396,-11.61634 12.7114,-25.30409 15.1146,-39.57345 2.4045,-15.59241 4.1807,-31.28061 6.2389,-46.93489 3.1877,-20.33277 7.525,-40.72951 5.7147,-61.55735 -1.7381,-18.20103 -3.9857,-35.67401 -10.7598,-52.45872 -6.3408,-15.97805 -12.9942,-31.84335 -20.8526,-46.91571 -4.867,-8.06861 -5.4033,-9.91435 -12.3696,-16.84801 -1.6039,-1.59618 -3.5091,-2.74566 -5.3408,-3.97369 -6.2109,-4.16434 -12.9887,-7.1517 -19.6792,-10.08165 -2.7472,-0.88533 -5.4616,-1.91795 -8.241,-2.65603 -6.5606,-1.74212 -7.7869,-1.63445 -13.8464,-2.3023 -8.568,-0.94431 -17.1305,-1.96042 -25.7072,-2.79686 -9.2057,-0.82803 -12.2349,-1.23688 -21.4051,-1.52868 -9.4811,-0.30173 -19.0116,0.17538 -28.435,-1.4348 -2.5617,-0.49221 -5.135,-0.91012 -7.6851,-1.47667 -19.54,-4.34126 -38.7411,-10.71414 -58.4999,-13.76451 -3.6962,-0.56202 -7.3795,-1.25032 -11.0887,-1.68607 -12.1684,-1.42958 -24.6459,-1.0763 -36.3783,3.21655 -12.8911,4.68917 -25.6638,9.93192 -37.8656,16.67855 -6.491,3.82449 -11.0503,6.24298 -17.1895,11.04798 -10.7053,8.3785 -19.5204,19.43882 -26.4395,31.99433 -5.4459,9.19373 -4.5133,7.76001 -10.3103,16.95903 -7.4882,11.883 -15.335,23.4706 -22.2988,35.7848 -1.7341,3.09705 -7.8457,14.04196 -9.7248,17.28409 -1.2708,2.1924 -2.5553,4.37511 -3.8925,6.51436 -0.8663,1.38582 -4.0005,3.20698 -2.7152,4.05725 1.7817,1.17882 3.9547,-1.28601 5.9322,-1.92903 7.4907,7.72883 14.9815,15.45767 22.4722,23.1865 -0.3419,1.5309 -0.5536,3.10844 -1.0253,4.59272 -0.1855,0.58318 -0.9655,0.63851 -1.3396,0.81743 -2.2127,1.0581 -4.2185,3.06402 -6.6085,3.25588 -8.8776,0.7126 -8.8355,-0.349 -13.4464,-4.98105 1.4491,-0.24051 0.5435,-0.24177 2.3374,2.80472 0.7405,1.25772 1.4126,2.56786 2.0822,3.87729 0.5681,1.1107 1.0689,2.26559 1.6299,3.38103 0.286,0.56842 0.5154,1.19442 0.9096,1.66902 0.137,0.16507 0.3895,0.0862 0.5842,0.12938 1.3721,-2.65593 2.0648,-4.54716 4.6455,-6.33273 4.5223,-3.12861 9.755,-3.94394 14.3249,-0.59493 0.6699,0.49087 1.1387,1.27489 1.7081,1.91233 0.5943,1.20257 1.2671,2.35785 1.7828,3.6077 0.094,0.22826 -0.3821,-0.28063 -0.4985,-0.49478 -0.3416,-0.62749 -0.6533,-1.28848 -0.8543,-1.99188 -1.7765,-6.20969 -1.4822,-12.85637 -1.2171,-19.27823 0.4349,-3.50986 0.7397,-7.04446 1.3054,-10.52957 3.0316,-18.68476 8.5593,-36.84751 17.3953,-52.95617 1.7248,-2.77255 3.3946,-5.59172 5.1747,-8.31766 9.678,-14.8208 20.5013,-28.63602 31.9032,-41.70847 1.2737,-1.41955 2.4101,-3.02344 3.8211,-4.25863 2.3702,-2.07507 6.6517,-4.09754 9.3256,-5.31245 5.5509,-2.52205 11.3331,-4.11608 17.1603,-5.53763 9.8227,-2.20719 19.7406,-3.9082 29.7421,-4.55903 10.1031,-0.19663 20.2088,0.13356 30.3075,0.47322 12.4595,0.53996 24.9076,1.3682 37.3697,1.83036 12.2545,0.73537 24.4814,1.88032 36.6427,3.80857 4.1899,0.71306 9.121,1.50852 13.2786,2.39565 10.3635,2.21136 20.5529,5.37432 30.7465,8.42592 9.0871,3.09924 18.0726,6.54411 27.1224,9.78131 8.0222,3.55563 15.3726,8.81061 23.3085,12.61729 3.4784,2.03467 6.8574,4.17813 10.224,6.44755 0.4284,0.28869 3.0551,2.0168 3.6338,2.48374 0.649,0.52374 1.2523,1.11915 1.8783,1.67874 2.6101,2.58823 5.0064,5.34248 7.3583,8.24408 1.1758,1.45067 2.4069,2.84612 3.507,4.3736 0.3054,0.42374 0.5509,0.90006 0.8263,1.35008 2.453,5.68742 4.9578,11.47952 6.1021,17.73095 1.4907,11.74228 2.6945,23.54801 3.5994,35.36841 0.8337,15.41197 1.7516,30.89136 0.3313,46.30284 -1.2896,16.50456 -3.006,32.96936 -6.1026,49.17303 -3.1933,17.09624 0.1891,-0.90728 -3.0504,16.01881 -1.1785,6.15753 -2.2233,12.35966 -4.1458,18.28679 -1.8849,6.10989 -3.5356,12.37613 -6.5677,17.89477 -0.2998,0.66198 -1.478,3.34537 -1.9328,4.06179 -2.5543,4.02355 -6.0516,7.12339 -9.2377,10.42959 -1.4499,1.26401 -2.2656,2.08062 -3.8412,3.071 -4.5344,2.85009 -9.7158,4.16336 -14.2608,7.01403 -8.8741,4.38934 -17.9128,8.26466 -27.0838,11.75403 -7.7068,2.50175 -15.4408,5.26027 -23.4278,6.24971 -9.7393,1.03084 -19.4958,1.60582 -29.2759,1.80004 -12.5113,0.58455 -25.0298,0.98331 -37.5298,1.85243 -13.0093,0.90189 -26.0292,1.58916 -39.0633,1.76834 -18.116,-0.13762 -36.3331,-0.5553 -54.2057,-4.31606 -11.5602,-2.63055 -23.1601,-4.97427 -34.8234,-6.91737 -0.6877,-0.14734 -4.6371,-0.96803 -5.6584,-1.26675 -5.0673,-1.48211 -9.901,-3.89936 -14.6825,-6.2868 -4.8133,-3.00249 -3.225,-1.86339 -8.2532,-5.70237 -2.4577,-1.87639 -5.3538,-4.07401 -7.5769,-6.34421 -2.8887,-2.95008 -4.3132,-5.12183 -6.8331,-8.52167 -6.9995,-9.94934 -13.7641,-20.13564 -20.1459,-30.62249 -5.0853,-8.1022 -9.5012,-16.76035 -13.4054,-25.68675 -4.0783,-9.31444 -8.3981,-18.63323 -10.0446,-29.00659 -0.1892,-1.11671 -1.6021,-9.39557 -1.7976,-10.8044 -1.0507,-7.57356 -1.1552,-15.27096 -1.1089,-22.92363 0.039,-1.59279 0.021,-3.18882 0.1175,-4.77832 0.4673,-7.67541 2.0185,-15.19191 4.0622,-22.4947 1.5988,-5.82843 3.2554,-11.64227 5.2789,-17.29778 0.6586,-1.84029 1.3785,-3.65067 2.0479,-5.48559 0.6062,-1.66066 1.1861,-3.33382 1.7791,-5.00074 2.0619,-5.54278 3.8914,-11.24607 6.174,-16.67551 2.9017,-6.9026 6.5305,-13.32872 10.4238,-19.53696 7.0625,-10.8965 2.3061,-3.68521 9.7793,-14.68632 5.5163,-8.12031 10.9312,-16.41374 17.6064,-23.35134 1.2039,-1.13922 2.3506,-2.36347 3.611,-3.41763 2.6101,-2.18242 5.0837,-3.66539 7.9553,-5.31691 0.8892,-0.51154 1.8555,-0.85112 2.7053,-1.44545 0.1339,-0.0936 -0.038,-0.47649 0.1122,-0.52531 0.581,-0.18821 1.2054,-0.0647 1.8084,-0.097 28.2843,0 28.2843,-46.09671 0,-46.09671 z" /><path
           style="fill:#000000;fill-opacity:1;stroke:none;stroke-width:20.5842;paint-order:markers stroke fill"
           id="path2677"
           d="m 2973.4842,357.27502 c -13.4533,0.66349 -26.8649,2.11472 -40.2936,3.21561 -8.1075,0.49528 -16.2905,1.32077 -24.1707,3.63269 -11.8581,3.47894 -23.3033,8.80901 -34.6639,13.84706 -15.1819,7.14225 -30.0282,15.45451 -43.3852,26.25635 -6.8825,5.56576 -9.8123,8.71334 -16.0878,14.86396 -10.3509,11.21482 -19.9431,23.61399 -26.9584,37.73105 -1.7038,3.42859 -3.1685,6.99662 -4.7525,10.49492 -7.3317,17.86524 -15.0109,35.7238 -19.9222,54.64398 -1.1072,4.26477 -1.9537,8.60739 -2.9302,12.91109 -4.3089,20.23835 -5.4329,41.00986 -5.9219,61.72049 -0.142,12.78025 0.6558,25.61551 3.0824,38.1361 1.4132,7.29258 3.1652,13.34741 5.0732,20.47758 5.9009,20.98471 13.0309,41.51126 21.6486,61.30418 5.4975,11.00943 11.4563,21.8329 18.6682,31.58809 4.7714,6.45376 6.7488,8.4149 12.0589,14.41543 13.878,14.14184 28.7473,27.23384 44.9119,38.02402 11.5576,7.13729 24.4228,10.09025 37.1356,13.47456 13.3552,3.90629 27.0558,5.71646 40.78,7.05073 15.4437,1.32527 30.9352,1.54912 46.4166,1.68421 18.2055,-0.0451 36.4192,0.42779 54.6146,-0.33984 16.9301,-0.85544 33.7645,-3.12361 50.633,-4.83545 16.7943,-1.3014 33.2587,-5.08693 49.5646,-9.53633 13.3177,-4.10831 26.7016,-8.26035 39.4209,-14.3497 2.5546,-1.22314 5.0384,-2.62129 7.5575,-3.93194 14.2676,-8.16633 25.13,-21.30298 35.4998,-34.55104 10.6596,-13.26267 18.6953,-28.626 26.771,-43.85974 5.981,-11.40795 10.1957,-23.78063 12.8321,-36.6343 1.532,-7.46882 2.1397,-12.99402 3.1486,-20.54308 2.3755,-19.86866 2.7597,-39.94112 3.0474,-59.95469 0.8863,-19.9425 -1.9785,-39.66588 -4.7515,-59.28931 -2.9162,-17.58428 -7.1919,-34.86611 -13.7062,-51.23206 -4.7747,-10.32757 -10.1173,-20.45299 -16.5594,-29.63131 -1.8067,-2.57421 -3.7475,-5.02965 -5.6212,-7.54444 -9.9795,-12.67423 -20.4766,-24.8415 -30.9473,-37.01701 -6.9783,-8.01429 -15.8555,-13.30604 -24.4339,-18.87488 -10.5436,-7.36859 -21.8716,-13.07801 -33.3247,-18.44458 -7.2013,-3.62612 -14.7484,-6.19588 -22.388,-8.38935 -7.1543,-1.9241 -14.2526,-4.11632 -21.4635,-5.75994 -1.6717,-0.2736 -3.3367,-0.6059 -5.0154,-0.82084 -2.0498,-0.26241 -4.1144,-0.36528 -6.166,-0.6106 -10.0312,-1.19945 -20.0091,-2.95168 -29.9795,-4.64257 -8.9594,-1.52121 -17.917,-3.11509 -26.9574,-3.91236 -4.2227,-0.33305 -8.457,-0.31879 -12.6875,-0.30276 -7.4049,-0.0605 -14.8059,0.49595 -22.172,1.2936 -7.3385,0.7449 -14.5692,2.42141 -21.6573,4.6159 -6.3489,2.03754 -12.6836,3.94032 -18.854,6.60435 -25.6694,11.40112 -11.118,51.62528 14.5514,40.22416 v 0 c 4.8767,-2.30989 10.0966,-3.36009 15.1221,-5.18432 4.7871,-1.63478 9.7852,-2.55463 14.7567,-3.14278 6.104,-0.71063 12.2498,-1.1151 18.3884,-1.0758 3.1814,-0.0124 6.3663,-0.045 9.5434,0.1746 8.0707,0.65654 16.0486,2.26551 24.0501,3.54213 13.1452,2.22842 26.3078,4.36453 39.5448,5.76142 6.4783,1.26611 12.7739,3.63326 19.2012,5.19029 5.7963,1.65797 11.5309,3.5374 16.9726,6.35883 9.9007,4.62155 19.702,9.49968 28.7845,15.92439 5.4236,3.51048 11.1848,6.68833 15.871,11.36695 9.8711,11.47712 19.7644,22.94812 29.2105,34.85738 6.3871,8.39118 12.0705,17.36492 16.5505,27.18707 5.3098,12.73485 8.2139,26.50109 10.7473,40.1917 2.4307,17.18142 5.1221,34.42913 4.2853,51.89748 -0.2567,18.14088 -0.558,36.33848 -2.6392,54.35683 -1.8812,14.41279 -4.052,28.85109 -11.0071,41.51206 -6.8712,12.96267 -13.5551,26.15818 -22.6247,37.4539 -6.7939,8.72691 -13.6884,17.83144 -22.7309,23.77549 -12.608,6.78131 -26.0188,11.31206 -39.5295,15.33458 -14.4031,3.93669 -28.9313,7.36539 -43.7773,8.45831 -16.1956,1.64784 -32.359,3.82004 -48.6108,4.6884 -17.5735,0.80871 -35.1746,0.192 -52.759,0.30713 -14.4521,-0.12451 -28.9137,-0.31366 -43.332,-1.52236 -11.7932,-1.12631 -23.5709,-2.61678 -35.0394,-6.01623 -8.9002,-2.36657 -17.974,-4.14767 -26.2866,-8.59028 -13.4261,-8.65502 -25.4226,-19.89286 -37.0578,-31.21329 -3.6103,-4.01739 -5.6771,-6.12779 -8.9006,-10.40488 -5.5832,-7.40798 -10.1084,-15.71066 -14.4598,-24.04036 -7.7526,-17.66708 -14.034,-36.05934 -19.3673,-54.79176 -0.884,-3.27117 -3.2865,-11.88634 -4.0334,-15.59003 -1.9541,-9.69309 -2.6257,-19.62693 -2.5075,-29.53953 0.3989,-17.58129 1.2169,-35.23243 4.7923,-52.43495 0.7241,-3.32184 1.3383,-6.67558 2.1726,-9.96556 4.2941,-16.93281 11.3141,-32.82679 17.7869,-48.81609 1.0464,-2.41057 2.0025,-4.87193 3.1393,-7.23177 5.0086,-10.39828 12.0348,-19.47458 19.4924,-27.78778 4.5555,-4.52316 7.2545,-7.40354 12.1779,-11.47692 10.9649,-9.07195 23.3326,-15.82983 35.8584,-21.79984 11.0032,-4.90127 9.3878,-4.31483 20.4417,-8.71643 2.4894,-0.99131 4.9503,-2.08878 7.4941,-2.89377 6.2439,-1.976 12.7832,-2.50125 19.2283,-2.87354 12.469,-1.02382 24.9228,-2.29889 37.4055,-3.09729 27.6548,0 27.6548,-43.33537 0,-43.33537 z" /><path
           style="fill:#000000;fill-opacity:1;stroke:none;stroke-width:21.4701;paint-order:markers stroke fill"
           id="path2697"
           d="m 2823.4087,671.82639 c 17.8855,-23.21832 35.9944,-46.21258 53.957,-69.35383 17.3635,-22.41124 34.0587,-45.47214 50.4812,-68.79748 9.8972,-14.45633 20.5176,-28.21669 30.8789,-42.22792 9.3523,-12.60781 19.9988,-23.78669 29.5775,-36.14053 6.2844,-8.42018 12.5511,-16.8297 19.4803,-24.55517 -3.9087,3.37332 6.4095,-6.88466 4.6373,-5.39085 -7.362,6.20595 3.4954,3.07713 -16.5925,4.89583 -0.9322,0.0843 -3.0187,-1.69179 -2.7456,-0.66137 0.7212,2.71867 2.9273,4.57675 4.391,6.86518 26.121,41.83864 56.7851,79.4737 88.2404,115.97444 21.5807,24.65353 43.6422,48.72633 65.772,72.72013 12.0856,12.93256 24.5279,25.57122 35.0832,40.23169 4.7173,6.69031 8.822,13.85418 13.8202,20.26989 5.3671,7.23784 -4.7791,-6.0658 -3.538,-19.20994 0.4668,-4.94241 4.8665,-8.2217 7.5542,-12.11061 0.4423,-0.64009 2.2611,-0.78838 1.7653,-1.37414 -0.6448,-0.76173 -1.8434,0.1297 -2.7652,0.19304 -1.5626,0.10741 -3.1255,0.2127 -4.6882,0.31906 -25.2798,1.27038 -50.5309,-1.51167 -75.7443,-3.253 -28.3319,-1.91692 -56.695,-3.11679 -85.0684,-3.78238 -20.1885,-0.63471 -40.3725,-0.009 -60.5541,0.59228 -3.6354,0.0972 -7.2707,0.2042 -10.9064,0.2918 -6.4317,0.15498 -16.2679,0.27551 -22.6591,0.66303 -9.6634,0.58585 -19.2789,1.85632 -28.8931,3.06951 -15.6239,2.87145 -31.3338,4.55661 -47.1209,5.61775 -12.5072,0.70837 -25.0291,0.93739 -37.5497,1.01069 -6.6924,0.0222 -13.3845,-0.007 -20.0769,-0.0232 -5.0657,-0.0115 -10.1311,-0.0147 -15.1968,-0.0171 -28.2843,-0.014 -28.3015,46.08263 -0.019,46.09666 v 0 c 5.0438,0.003 10.0878,0.006 15.1316,0.0167 6.7881,0.0161 13.5763,0.0461 20.3644,0.0226 13.2326,-0.0788 26.4668,-0.32708 39.6851,-1.08904 16.4574,-1.11661 32.8507,-2.81801 49.1382,-5.81318 8.5873,-1.08567 17.1873,-2.28936 25.818,-2.81883 11.0953,-0.68066 22.2171,-0.45956 33.3174,-0.94654 19.566,-0.58338 39.134,-1.20742 58.7068,-0.58637 27.8466,0.65113 55.6826,1.8297 83.4882,3.70936 26.8478,1.85395 53.7396,4.75989 80.6559,3.24406 5.5139,-0.41962 18.0552,-0.92004 22.3287,-4.67839 4.5196,-3.97479 10.1457,-8.18743 11.4546,-14.56335 3.2327,-15.74874 -0.041,-19.05706 -5.678,-26.38823 -1.1488,-0.26515 -0.2391,0.0159 -1.8788,-2.57247 -3.3181,-5.23893 -6.6071,-10.50182 -10.2224,-15.48033 -11.6734,-15.96681 -24.9642,-30.17595 -38.345,-44.21482 -21.8025,-23.6387 -43.5398,-47.35237 -64.8057,-71.63641 -30.2612,-35.08397 -59.7773,-71.24916 -84.8604,-111.51425 -3.77,-5.54163 -11.3919,-18.41227 -17.7736,-20.60759 -15.8046,-5.43658 -22.3057,-1.54029 -31.5135,9.83053 -7.644,8.55347 -14.6687,17.74768 -21.581,27.08745 -9.6292,12.68156 -20.7539,23.78119 -30.0799,36.80702 -10.5696,14.29393 -21.3982,28.33764 -31.4966,43.08353 -16.0173,22.7512 -32.2961,45.24881 -49.232,67.10804 -18.5725,23.9273 -37.37,47.63372 -55.7181,71.786 -17.3649,25.72917 14.2092,54.02981 31.574,28.30063 z" /><path
           style="fill:#000000;fill-opacity:1;stroke:none;stroke-width:21.4701;paint-order:markers stroke fill"
           id="path2699"
           d="m 2980.646,398.96163 c -0.7453,2.98718 -1.6912,5.9174 -2.2357,8.96153 -2.8281,15.80259 -1.4642,33.06308 -0.6707,49.04127 0.5022,14.47935 1.9315,28.8763 2.8448,43.32055 0.6305,10.68177 0.7197,21.38928 0.7813,32.09096 0.039,12.09349 0.024,24.18712 0.013,36.28069 0.3914,10.60783 1.0007,21.20112 1.3571,31.8114 0.2548,7.96768 0.2746,15.94124 0.2905,23.91315 -0.03,11.37163 -0.1381,22.72793 0.5146,34.07904 0.5316,11.00202 1.2316,21.99557 2.3662,32.93807 1.5094,8.63311 2.7831,17.23258 3.2763,26.0214 0.417,9.67647 0.4543,19.36777 0.48,29.05405 0.01,6.8821 -0.011,13.76417 -0.019,20.64629 -0.01,3.66083 0,1.86723 -0.01,5.38083 -0.03,32.59529 39.97,32.64381 39.9999,0.0486 v 0 c 0,-3.49842 0,-1.71224 0.01,-5.35849 0.01,-6.95314 0.026,-13.90629 0.019,-20.85947 -0.029,-10.67452 -0.077,-21.3551 -0.5704,-32.01719 -0.5797,-9.59753 -1.646,-19.09461 -3.479,-28.4903 -1.0975,-10.1155 -1.6341,-20.29935 -2.1638,-30.47144 -0.6212,-10.34905 -0.399,-20.70973 -0.4236,-31.07866 -0.018,-8.53234 -0.044,-17.06633 -0.3206,-25.59394 -0.3379,-10.00158 -0.8451,-19.99164 -1.3269,-29.98489 0.01,-12.20931 0.026,-24.41873 -0.016,-36.62801 -0.069,-11.7228 -0.1839,-23.45147 -0.8874,-35.15142 -0.9078,-14.2025 -2.3011,-28.35908 -2.8038,-42.59601 -0.6109,-12.20045 -1.2203,-24.43266 -0.4752,-36.63631 11.4874,-29.78592 -25.065,-48.50758 -36.5524,-18.72164 z" /></g><path
         style="fill:#000000;fill-opacity:1;stroke:none;stroke-width:20;paint-order:markers stroke fill"
         id="path7034"
         d="m 2298.4817,918.68835 c 2.1373,7.20635 4.8585,14.18859 7.6575,21.15595 2.6546,6.19069 5.6438,12.22962 9.0996,18.01034 3.883,6.68613 8.0401,13.24687 11.4964,20.17099 2.7479,6.19958 5.9621,12.1617 9.1612,18.13401 2.6596,4.31866 4.9773,8.82846 7.4628,13.24776 2.3061,4.7036 4.9414,9.214 7.6322,13.7031 4.1688,5.8034 8.005,11.8382 12.2722,17.5713 3.3477,4.6314 7.331,8.7527 11.5567,12.5809 4.0928,4.0671 8.6659,7.5725 13.24,11.0695 4.1309,3.4783 8.7913,6.2076 13.2723,9.1878 5.3951,4.0384 11.257,7.4147 17.3003,10.3743 6.7979,3.0544 14.1542,4.359 21.4244,5.7481 6.5677,1.3847 13.2897,1.4321 19.9369,2.0922 7.1088,0.7231 14.2541,1.0924 21.3852,1.5527 7.2191,0.6819 14.4399,0.5514 21.6688,0.2003 7.7502,-0.629 15.4961,-1.1339 23.2701,-1.4032 9.2644,-0.024 18.492,-0.6554 27.7157,-1.4508 10.0073,-1.4701 20.0707,-2.3765 30.1402,-3.2692 7.9576,-0.7553 15.9348,-1.5092 23.8104,-2.9004 6.0592,-1.2026 11.9266,-3.163 17.9324,-4.5785 7.2739,-1.8763 14.4508,-4.1394 21.6525,-6.2815 5.9846,-1.5855 11.9435,-3.2428 17.8726,-5.02 5.1165,-1.2204 10.1907,-2.5973 15.2405,-4.0684 5.6496,-1.8107 11.3429,-3.4799 17.0119,-5.2279 6.7419,-1.8668 13.0643,-4.8571 19.3019,-7.9684 3.5144,-2.0275 7.366,-3.345 11.0043,-5.1132 3.6375,-1.7678 4.6762,-2.439 8.1296,-4.4191 6.1121,-3.7991 12.1105,-7.7552 17.8985,-12.0312 4.5916,-3.7279 9.0456,-7.6254 13.3919,-11.6348 6.4352,-6.2823 11.7499,-13.5622 16.8494,-20.93393 4.7604,-7.03011 8.8702,-14.46707 13.23,-21.74618 2.9842,-4.86672 6.0637,-9.67198 9.0741,-14.52176 3.3269,-5.53559 5.8884,-11.51419 8.3019,-17.4956 1.7211,-3.94224 3.5946,-7.80042 5.1469,-11.81833 1.5616,-4.40479 3.2539,-8.76313 4.7197,-13.19988 1.4409,-5.29818 2.9173,-10.58683 4.446,-15.86018 2.7506,-7.97642 5.4256,-15.97361 7.756,-24.08378 2.672,-9.22954 4.4027,-18.6481 5.5901,-28.17114 0.838,-6.84538 1.1473,-13.73468 1.2573,-20.6249 0.043,-4.41058 0.019,-8.82148 0,-13.23213 -0.1151,-6.13429 -0.6117,-12.25662 -0.8771,-18.38709 -0.09,-5.14178 -0.8046,-10.24112 -1.1936,-15.36306 -0.25,-4.03159 -0.2667,-8.07336 -0.2899,-12.1113 -0.3855,-4.67746 -0.7433,-9.35781 -1.1481,-14.03419 -0.4664,-5.3499 -0.9366,-10.68662 -2.0055,-15.95406 -0.8586,-4.60959 -2.1251,-9.10878 -3.4081,-13.61283 -1.6767,-5.29855 -3.075,-10.6775 -4.7924,-15.96422 -2.29,-7.31118 -5.5364,-14.2738 -9.1191,-21.02955 -2.6956,-5.0234 -5.3737,-9.9925 -8.8792,-14.5021 -2.4402,-2.62 -4.6548,-5.5236 -7.3832,-7.8658 -2.5016,-2.1476 -3.4475,-2.6002 -6.2164,-4.34 -4.9821,-3.3671 -9.8782,-6.9192 -14.5473,-10.714 -2.8964,-2.4462 -5.6954,-4.999 -8.7072,-7.3045 -2.617,-2.0273 -4.9887,-4.295 -7.6136,-6.3183 -14.1875,-10.5461 -29.1018,9.5179 -14.9143,20.0639 v 0 c 2.7199,1.7558 4.712,4.5114 7.4893,6.2254 2.8548,2.0612 5.2927,4.6543 8.0735,6.8112 5.5285,4.4184 11.2239,8.6662 17.1439,12.544 0.6932,0.4043 1.4563,0.6989 2.0982,1.1808 1.9394,1.4558 3.2686,3.6195 5.0144,5.2834 2.695,3.19515 4.2082,7.15165 6.3801,10.69513 2.9316,5.46351 5.5668,11.11573 7.4203,17.04345 1.6428,4.97494 2.9038,10.06385 4.5122,15.04916 1.1313,3.96113 2.269,7.90869 2.999,11.97065 1.0107,4.23553 1.0094,8.63351 1.5526,12.93818 0.3619,3.99264 0.5654,7.99832 1.0512,11.98041 0.027,4.62801 0.055,9.26036 0.3632,13.87999 0.3758,4.84566 1.038,9.67097 1.1436,14.53393 0.2529,5.79837 0.7085,11.59044 0.8535,17.39019 0.016,4.25072 0.04,8.50162 0,12.75228 -0.092,5.99498 -0.3461,11.98975 -1.0713,17.9464 -1.0096,8.23695 -2.4971,16.37313 -4.812,24.35397 -2.3121,8.09476 -5.0575,16.04668 -7.739,24.02443 -1.4558,5.04372 -2.8996,10.09258 -4.2355,15.16959 -1.2136,4.02976 -2.9477,7.89906 -4.2621,11.89858 -1.4777,3.91562 -3.4367,7.60008 -5.0126,11.47426 -1.8338,4.64844 -3.833,9.29138 -6.3418,13.61321 -3.0654,4.96197 -6.2328,9.85925 -9.2683,14.84045 -4.082,6.81543 -7.9317,13.77689 -12.3518,20.38234 -4.0532,5.87666 -8.2312,11.71041 -13.2668,16.8008 -3.6541,3.40151 -7.4488,6.65001 -11.2625,9.87121 -5.0279,3.7163 -10.2386,7.1489 -15.5302,10.4804 -2.0998,1.2199 -3.7206,2.2129 -5.9,3.2782 -3.9404,1.9261 -8.1177,3.3606 -11.9311,5.5534 -5.0059,2.5141 -10.0584,4.9709 -15.4892,6.4383 -5.5465,1.714 -11.121,3.3377 -16.6468,5.1182 -5.1078,1.4961 -10.2532,2.8349 -15.4173,4.1208 -5.9092,1.7748 -11.8552,3.4048 -17.816,5.003 -6.7574,2.0104 -13.4911,4.1411 -20.3091,5.9223 -5.5534,1.3303 -11.0025,3.0499 -16.577,4.2954 -7.1284,1.3175 -14.3864,1.8627 -21.59,2.6028 -10.0483,0.8923 -20.0967,1.7653 -30.0789,3.2638 -8.7987,0.7587 -17.599,1.3644 -26.4377,1.3734 -7.8893,0.276 -15.7538,0.7709 -23.6177,1.4177 -6.2886,0.3079 -12.5606,0.4536 -18.8413,-0.178 -6.8876,-0.4444 -13.79,-0.7894 -20.6555,-1.4948 -5.8708,-0.5312 -11.7911,-0.6308 -17.5974,-1.7602 -5.1528,-0.9786 -10.3891,-1.805 -15.2913,-3.7308 -5.0668,-2.337 -9.8036,-5.3865 -14.3023,-8.6728 -4.0212,-2.6572 -8.2019,-5.0898 -11.8984,-8.2087 -4.0632,-3.1067 -8.1354,-6.1969 -11.7493,-9.836 -3.0469,-2.6689 -5.8325,-5.6631 -8.219,-8.9375 -3.7926,-5.0247 -7.0546,-10.4213 -10.8463,-15.4483 -2.5744,-4.2883 -5.0697,-8.607 -7.2811,-13.09904 -2.4011,-4.26857 -4.6321,-8.63364 -7.2149,-12.79633 -3.1039,-5.79417 -6.2164,-11.57814 -8.8808,-17.59435 -3.8042,-7.47556 -8.1854,-14.64357 -12.4372,-21.86818 -2.8359,-4.56663 -5.0676,-9.47843 -7.2795,-14.36957 -2.7284,-6.78844 -5.338,-13.59869 -7.4465,-20.61239 -6.2071,-16.5521 -29.6153,-7.77402 -23.4082,8.77811 z" /><path
         style="fill:#ffc800;fill-opacity:1;stroke:none;stroke-width:62.4999;paint-order:markers stroke fill"
         d="m 2813.3182,831.29615 c -10.7251,35.93359 -22.1919,73.27567 -47.5295,101.91512 -20.3671,24.00205 -42.4788,47.3207 -69.452,63.96133 -24.7986,14.1573 -53.0609,20.6193 -80.7329,26.6146 -27.6368,4.9377 -55.7559,7.1687 -83.7686,8.7854 -35.3277,0.4822 -70.7464,0.9988 -106.0128,-1.3777 -14.7709,-0.86 -29.1335,-4.5058 -43.4387,-7.9854 -0.9573,1.7838 2.4976,3.8597 3.312,5.4599 11.5711,12.5428 25.9273,22.2922 40.545,30.9413 15.3885,6.945 32.8528,6.4081 49.33,8.2133 21.3987,1.8391 42.9022,-0.4901 64.298,-1.394 20.5383,-1.668 41.0885,-3.6345 61.505,-6.3994 26.4917,-5.958 52.423,-14.214 78.5464,-21.5881 30.2344,-8.9026 60.24,-24.1156 79.4721,-49.87405 9.7996,-13.2852 17.8998,-27.74944 26.2204,-41.97662 12.8651,-24.07391 19.7245,-50.62545 27.4506,-76.62878 5.154,-18.0312 6.3053,-36.88024 5.7457,-55.54408 -2.5234,4.36348 -3.5833,11.56602 -5.4907,16.87718 z"
         id="path7036" /></g></g></svg>
