<?xml version="1.0" encoding="UTF-8" standalone="no"?>
<!-- Created with Inkscape (http://www.inkscape.org/) -->

<svg
   width="3840mm"
   height="2160mm"
   viewBox="0 0 3840 2160"
   version="1.1"
   id="svg5458"
   inkscape:version="1.2.2 (732a01da63, 2022-12-09)"
   sodipodi:docname="raven's feather.svg"
   xml:space="preserve"
   inkscape:export-filename="..\..\items\ravens feather.png"
   inkscape:export-xdpi="96.096664"
   inkscape:export-ydpi="96.096664"
   xmlns:inkscape="http://www.inkscape.org/namespaces/inkscape"
   xmlns:sodipodi="http://sodipodi.sourceforge.net/DTD/sodipodi-0.dtd"
   xmlns="http://www.w3.org/2000/svg"
   xmlns:svg="http://www.w3.org/2000/svg"><sodipodi:namedview
     id="namedview5460"
     pagecolor="#ffffff"
     bordercolor="#000000"
     borderopacity="0.25"
     inkscape:showpageshadow="2"
     inkscape:pageopacity="0.0"
     inkscape:pagecheckerboard="0"
     inkscape:deskcolor="#d1d1d1"
     inkscape:document-units="mm"
     showgrid="false"
     inkscape:zoom="0.056568543"
     inkscape:cx="10014.4"
     inkscape:cy="5374.0115"
     inkscape:window-width="1920"
     inkscape:window-height="986"
     inkscape:window-x="-11"
     inkscape:window-y="-11"
     inkscape:window-maximized="1"
     inkscape:current-layer="layer1" /><defs
     id="defs5455" /><g
     inkscape:label="Layer 1"
     inkscape:groupmode="layer"
     id="layer1"><g
       id="g3215"><path
         style="fill:#1f182d;fill-opacity:1;stroke-width:20;paint-order:markers stroke fill"
         id="path3163"
         d="m 1689.8698,1357.0775 c -0.08,4.1456 0.1141,8.2988 0,12.4435 -0.027,0.9981 -0.3256,4.2961 -0.4025,5.1948 -0.3132,2.4133 -0.3849,4.8596 -0.7063,7.2715 -0.151,1.1328 -0.041,-0.083 -0.2724,0.4955 -0.1672,0.4186 -0.2838,0.8557 -0.4257,1.2835 -1.3075,3.9424 -2.8814,7.7953 -4.1866,11.7472 -0.6829,2.8853 -1.7275,5.7567 -2.1608,8.7046 -0.1871,1.2725 -0.3049,2.5542 -0.4573,3.8314 0.3826,2.763 0,5.7454 1.1478,8.2891 4.8388,10.7528 12.0558,15.4285 23.5351,15.1445 1.742,-0.043 3.5505,-0.1754 5.1589,-0.846 3.5495,-1.48 6.7513,-3.6849 10.127,-5.5274 1.9918,-2.0361 4.1132,-3.9529 5.9752,-6.1083 1.7247,-1.9964 3.2367,-4.169 4.7626,-6.3211 4.8403,-6.8265 8.9794,-14.1645 12.0209,-21.9735 1.2758,-3.2755 2.2324,-6.6664 3.3486,-9.9996 3.6873,-12.6283 5.5003,-25.7482 9.4487,-38.3059 1.6813,-5.3473 3.0582,-8.2021 5.2479,-13.2854 4.6036,-10.4136 10.8328,-19.9528 17.3093,-29.2716 7.5709,-10.5304 15.0258,-21.1312 22.8768,-31.4562 2.8561,-3.6107 5.4748,-7.4238 8.5022,-10.8992 0.4693,-0.5388 1.007,-1.0145 1.4915,-1.5396 0.4061,-0.4401 3.8992,-4.3625 4.4124,-4.9382 12.1464,-13.4941 21.7551,-28.9803 31.8443,-44.0069 3.2023,-4.7727 6.459,-9.5119 10.096,-13.9656 0.4082,-0.4999 1.8802,-1.4067 1.2398,-1.4871 -35.6291,-4.4769 -28.5354,8.1266 -35.0909,-9.0926 -0.9298,5.8591 -1.6713,11.8317 -3.5359,17.4937 -1.4776,4.4868 -4.5127,10.0213 -6.5571,13.9741 -1.8165,3.5122 -3.6727,7.0038 -5.5091,10.5056 -2.0524,4.0152 -4.1614,8.002 -6.157,12.0457 -5.8907,11.936 -6.8921,14.5559 -12.3491,26.6693 -3.6161,8.027 -6.7327,15.1769 -10.7955,22.9542 -1.6034,3.0695 -3.3864,6.0418 -5.0797,9.0626 -4.7114,6.8344 -4.1225,6.4205 -9.1672,12.2311 -3.344,3.8517 -6.3993,7.0338 -10.6475,9.7885 -4.3546,3.0367 -8.457,6.4557 -12.1751,10.249 -5.775,5.8919 -0.265,0.4652 -3.1099,3.2541 -6.525,5.8098 -12.7851,12.1632 -17.3999,19.6428 -0.9773,1.5838 -1.7877,3.2646 -2.6815,4.8969 -12.8893,25.1767 22.7159,43.4049 35.6052,18.2282 v 0 c 0.3125,-1.3855 0.086,-0.7107 1.5562,-2.7777 3.1821,-4.4727 7.2335,-8.1579 11.3025,-11.8046 3.069,-3.1262 5.9757,-6.45 9.7114,-8.8291 1.5477,-1.1037 3.1436,-2.1429 4.6431,-3.3112 7.5705,-5.8982 15.107,-14.499 20.6909,-22.1883 2.3351,-3.2154 4.4115,-6.611 6.6173,-9.9165 2.0208,-3.6476 4.1387,-7.243 6.0624,-10.9427 10.3346,-19.8761 17.9395,-41.0705 28.8056,-60.6901 3.1199,-5.9607 9.037,-17.0061 11.6851,-23.1317 4.6916,-10.8522 6.9594,-22.4398 8.3498,-34.1212 -0.6118,-5.0236 2.5889,-12.614 -1.8355,-15.0708 -9.919,-5.5078 -22.3986,-3.8541 -33.7148,-4.6697 -0.9121,-0.066 -1.1766,1.4005 -1.7493,2.1135 -4.2808,5.3286 -8.239,10.8977 -12.0192,16.5923 -9.0724,13.5123 -17.6352,27.5032 -28.4953,39.6886 -2.3351,2.6198 -4.7714,5.1814 -7.0617,7.8366 -3.3013,3.8272 -6.2142,7.9739 -9.3281,11.9489 -8.2007,10.7904 -16.0017,21.8599 -23.9033,32.8694 -8.0146,11.5797 -15.6309,23.4811 -21.2608,36.4395 -3.2712,7.7946 -4.4498,10.1027 -7.0189,18.3941 -3.7085,11.9684 -5.7077,24.3816 -8.9045,36.4813 -1.5753,5.1215 -1.8949,6.8898 -4.1653,11.6062 -2.2894,4.7559 -5.5112,8.9126 -8.234,13.3964 2.2945,-0.7548 4.8082,-2.0372 7.3674,-1.8492 8.5362,0.6271 13.2156,4.9071 16.3681,13.0074 0.7665,1.9696 0.3589,4.2118 0.5384,6.3176 -0.1005,0.536 -0.2052,1.0712 -0.3016,1.6079 -0.037,0.2071 0.078,-0.4137 0.1241,-0.6191 0.2068,-0.9289 0.4591,-1.8473 0.6637,-2.7766 0.02,-0.093 0.017,-0.1887 0.026,-0.2831 0.075,-0.2777 0.1495,-0.5553 0.2243,-0.833 1.2895,-4.0228 2.9973,-7.8979 4.2467,-11.9329 0.7942,-2.5097 1.2851,-3.8938 1.8636,-6.6365 0.7881,-3.7362 0.8669,-7.5707 1.323,-11.3499 0.5649,-6.9747 0.6344,-13.9478 0.5393,-20.943 0,-28.2843 -40,-28.2843 -40,0 z" /><path
         style="fill:#1f182d;fill-opacity:1;stroke-width:20;paint-order:markers stroke fill"
         id="path3161"
         d="m 2566.7264,281.08261 c -11.3313,8.36549 -19.3126,20.11376 -29.2612,29.9138 -4.2779,4.21396 -7.5265,6.75396 -12.1241,10.57674 -8.3503,6.97809 -18.3076,11.18584 -28.4095,14.90057 -1.6411,0.63735 -3.2905,1.25362 -4.9232,1.91209 -13.2089,5.32699 6.3341,-3.19598 15.3447,5.97204 10.8091,10.99794 0.7128,29.6159 6.9093,16.8765 6.1207,-14.2286 14.2247,-26.44227 23.9786,-38.42012 13.9803,-14.4019 31.4075,-29.46492 -1.5144,-48.19809 -5.7618,-3.27853 -12.2673,5.02995 -18.4009,7.54494 -10.5392,9.89486 -20.2226,20.65893 -30.582,30.73358 -9.1181,8.86743 -10.9469,10.11044 -20.8889,18.53099 -19.1366,14.86887 -38.5498,29.4109 -58.3841,43.33999 -12.2628,8.31647 -23.6872,17.65083 -34.4546,27.80284 -10.9294,8.91146 -20.8843,18.99883 -31.9554,27.73691 -2.6763,2.11238 -5.4785,4.0603 -8.2178,6.09044 -2.9121,2.03372 -5.8237,4.06805 -8.7362,6.10116 -5.6951,3.97555 -10.5091,7.20082 -15.9519,11.512 -7.6758,6.07986 -14.8596,12.77016 -22.0658,19.38779 -12.3896,11.99478 -23.8003,24.95143 -34.1392,38.74474 -10.4598,16.33053 -17.9377,34.29746 -25.1928,52.21118 -1.012,2.59379 -2.0389,5.18181 -3.036,7.78137 -2.4598,6.41305 -2.6538,7.47329 -5.4476,13.61905 -3.1721,6.97797 -6.6775,13.81972 -9.9422,20.75643 -2.6058,8.25413 -5.7345,14.36151 -1.416,23.77319 6.7243,14.65508 18.5487,18.11136 34.1414,13.89131 11.5493,-3.12576 28.7209,-20.19237 37.0618,-27.61287 6.4871,-7.15653 13.2048,-14.11073 19.4615,-21.46959 7.1041,-8.35551 13.8371,-17.02115 20.6033,-25.6526 8.0659,-10.2893 30.7325,-40.21253 38.5137,-51.01978 11.9377,-16.58028 20.3443,-29.47004 31.5379,-46.246 10.2278,-16.26092 20.807,-32.3008 31.0711,-48.53826 5.499,-8.69939 10.8132,-17.4394 16.646,-25.9198 1.115,-1.50368 2.1838,-3.04271 3.345,-4.51104 1.6553,-2.09317 9.839,-9.95137 8.626,-12.14723 -18.1274,-32.81646 -13.9676,-30.95374 -32.4606,-23.10985 -22.37,14.05158 -39.1957,34.86698 -56.2449,54.63673 -15.5762,18.06186 -30.8595,36.37428 -46.3169,54.538 -23.3933,27.59885 -47.2929,54.80177 -68.905,83.84696 -8.1306,10.92692 -10.2749,14.2589 -17.6013,24.95635 -11.0034,16.43959 -21.3674,33.28286 -31.9946,49.96471 -4.8295,7.41196 -8.5464,15.48328 -13.6357,22.73236 -3.1055,4.42333 -6.9262,8.18216 -10.672,12.04495 -15.2015,16.72611 -27.8824,35.43808 -40.56,54.08189 -12.6924,19.40078 -26.3471,38.1386 -39.4542,57.25716 -2.4088,3.37515 -4.8235,6.74602 -7.2263,10.12547 -6.5069,9.1518 -8.0508,11.59388 -14.803,20.33778 -7.565,9.79638 -15.5282,19.29818 -23.2563,28.96597 -10.9249,13.62218 -22.1145,27.05185 -32.4694,41.12117 -4.5413,6.17035 -10.5082,14.8758 -14.9078,21.22718 -9.7825,13.9147 -19.8557,27.66351 -30.3868,41.02558 -4.3161,5.43329 -9.4063,10.17119 -13.9937,15.35953 -1.0098,1.14208 -2.3089,2.11344 -2.9454,3.49867 -1.9504,4.24481 -3.1497,8.79602 -4.7246,13.194 2.7878,6.0402 2.9557,14.2458 8.3632,18.12057 11.3822,8.15586 24.7441,4.08353 35.3925,-0.97697 22.0283,-10.46858 37.6529,-27.63102 54.5587,-44.61616 25.258,-28.07274 48.5851,-57.95203 68.5086,-90.06588 3.8163,-6.15143 18.9482,-32.61204 23.0189,-39.70007 13.6991,-25.29221 30.752,-48.51551 45.5751,-73.12702 3.4211,-6.61453 12.0687,-21.0421 0.7544,-26.41095 -10.9529,-5.19734 -24.7782,-0.86953 -36.2396,3.08213 -5.0937,1.7562 -6.7372,8.41772 -9.8565,12.81086 -6.6721,9.39673 -24.5133,36.81635 -30.1831,45.4606 -36.7991,55.29355 -70.871,112.33195 -103.7676,170.01279 -13.404,22.89759 -25.2897,46.71771 -39.6558,69.05131 -4.4599,6.9334 -8.7766,12.7913 -13.5628,19.4735 -13.6915,19.2497 -29.1911,37.0879 -43.8762,55.5619 -9.6386,11.4317 -16.7658,24.964 -27.6452,35.3136 -2.6326,2.8004 -6.2215,3.9968 -9.4562,5.8636 -4.6934,2.7085 -5.5075,3.4161 -9.9389,6.5053 -13.8657,10.6071 -24.1071,25.0976 -34.6188,38.8518 -1.2273,1.5486 -2.4005,3.1418 -3.6821,4.6459 -3.0644,3.5966 0.4028,-2.405 1.8965,-1.5806 10.5512,5.8231 19.746,13.8217 29.603,20.7553 0.1634,0.1149 0.3339,0.5467 0.4561,0.3887 1.0577,-1.3667 1.7855,-2.9594 2.6783,-4.4391 14.6154,-22.925 32.0236,-43.8383 48.3807,-65.5031 19.146,-25.2854 35.5,-52.2686 50.2243,-80.3082 5.5536,-11.4189 11.5688,-22.623 16.3532,-34.4003 3.6605,-9.6369 1.9149,-5.2637 5.1669,-13.14736 0.9593,-2.59783 2.55,-4.7689 4.0721,-7.03474 15.5756,-23.60932 -17.813,-45.63657 -33.3886,-22.02727 v 0 c -2.8938,4.43145 -5.7113,8.92315 -7.6836,13.8635 -0.8703,2.12609 -1.7406,4.25217 -2.6109,6.37826 -0.7731,2.06846 -1.4963,4.15621 -2.3193,6.20532 -4.3497,10.82999 -9.9622,21.07539 -15.0118,31.58079 -13.6711,26.0898 -28.9211,51.2805 -46.7293,74.793 -17.227,22.8327 -35.5825,44.8684 -50.8213,69.1338 -0.8763,1.4851 -8.5002,13.8649 -7.6184,15.001 24.2632,31.262 27.5826,29.2587 42.8157,9.9837 5.1353,-6.7196 10.2346,-13.4104 15.6704,-19.893 1.9285,-2.2999 4.833,-5.9025 7.2517,-8.1307 0.929,-0.8558 1.954,-1.6011 2.9311,-2.4017 0.4765,-0.3399 4.3367,-3.1399 5.3133,-3.6985 6.6313,-3.7936 13.5881,-7.0795 18.962,-12.7182 4.0628,-4.0062 5.4178,-5.1523 9.1944,-9.7396 7.7546,-9.4191 14.1102,-19.9448 21.876,-29.362 15.0882,-19.0099 31.0438,-37.3442 45.088,-57.1689 5.7182,-8.0031 9.7468,-13.4443 15.1207,-21.822 14.57,-22.714 26.7336,-46.8664 40.3125,-70.16085 32.4776,-56.96455 66.1281,-113.28812 102.468,-167.89018 5.0421,-7.68866 22.3176,-34.19764 28.5798,-43.19183 2.3384,-3.35857 10.3429,-7.03583 7.3539,-9.83118 -6.6488,-6.21818 -19.774,-1.30759 -26.1801,-7.77557 -7.0744,-7.14272 3.0925,-27.14998 -1.9542,-16.69785 -14.9299,24.85956 -32.2322,48.24962 -45.985,73.82414 -2.8027,4.88069 -19.1029,33.34668 -21.8227,37.74871 -18.4521,29.86466 -40.102,57.62543 -63.4494,83.80116 -10.4751,10.65557 -19.1602,20.3848 -30.9384,29.41619 -3.0767,2.35921 -6.5183,4.20664 -9.8831,6.13289 -1.6867,0.96559 -6.3733,0.94403 -5.2523,2.53169 24.6077,34.85152 -1.5678,-32.54992 16.0545,20.83191 -1.4611,3.02578 -3.1501,5.95175 -4.3833,9.07736 -0.3023,0.76607 1.0136,-1.29945 1.5583,-1.91717 3.6402,-4.12867 7.5874,-7.96939 11.2205,-12.10834 1.641,-1.8695 3.229,-3.78487 4.8435,-5.6773 11.0094,-14.01866 21.6019,-28.38995 31.8324,-42.98307 3.5726,-5.15993 10.1461,-14.73195 13.8586,-19.78213 10.1578,-13.81786 21.1623,-26.98686 31.8801,-40.36549 7.9936,-10.00194 16.2243,-19.83439 24.0387,-29.97761 7.049,-9.1499 8.6915,-11.71739 15.3401,-21.07301 2.5463,-3.58301 5.1031,-7.15859 7.6546,-10.7379 13.1315,-19.16189 26.8218,-37.93598 39.5383,-57.38048 11.399,-16.7649 22.725,-33.62846 36.257,-48.78808 3.4961,-3.63281 6.9389,-7.07969 10.1331,-11.00767 7.5485,-9.28248 13.0475,-19.84912 19.1461,-30.07934 10.3741,-16.31699 20.5213,-32.77164 31.2609,-48.85317 6.8207,-9.97937 8.8085,-13.07507 16.402,-23.2963 21.1622,-28.48562 44.6486,-55.10045 67.5545,-82.17061 15.3282,-18.01207 30.5024,-36.1555 45.9262,-54.08575 8.3748,-9.73572 22.6015,-26.45929 32.9051,-36.21546 3.3728,-3.1936 9.2316,-7.26125 13.2446,-10.14261 -14.5193,2.74399 -7.989,2.68409 -24.4775,-26.83706 -0.8389,-1.50199 2.5615,-2.57275 2.9208,-4.25521 0.2805,-1.31377 -1.7874,2.00631 -2.6588,3.02868 -4.9433,5.7994 -3.5699,4.17841 -8.26,10.55494 -6.0324,8.81883 -11.5878,17.86901 -17.2961,26.89834 -10.1473,16.05068 -20.6053,31.90642 -30.7089,47.98528 -10.4836,15.72112 -19.2183,29.09475 -30.3423,44.55068 -7.6798,10.67046 -29.6309,39.6422 -37.6441,49.89456 -6.2869,8.0436 -12.5641,16.10027 -19.1299,23.91789 -5.3152,6.3287 -11.0003,12.33736 -16.5004,18.50601 -4.516,4.13544 -9.0667,8.23328 -13.5479,12.40632 -2.1379,1.99083 -6.8985,3.22299 -6.308,6.08396 0.6356,3.07951 6.1792,2.03253 8.4352,4.22288 7.2564,7.04503 5.232,8.58499 4.1815,16.45121 -0.1107,0.8287 0.2821,-1.64814 0.4231,-2.47224 3.4868,-7.41408 7.2312,-14.72861 10.5875,-22.20161 3.1858,-7.09345 3.2623,-7.85098 5.8747,-14.67019 0.935,-2.44039 1.8979,-4.87 2.8468,-7.30502 5.9731,-14.76507 12.1101,-29.51517 20.1706,-43.29364 8.7939,-11.84566 18.6358,-22.87034 29.1492,-33.21785 6.2067,-5.70794 12.3707,-11.55425 18.9687,-16.81676 5.0356,-4.01643 9.5949,-7.04045 14.9152,-10.76166 3.2459,-2.27036 6.4876,-4.54697 9.7314,-6.82046 3.357,-2.52042 6.7822,-4.95257 10.0712,-7.56123 11.6332,-9.22687 22.1729,-19.77885 33.6241,-29.22524 0.8407,-0.7937 6.6299,-6.28015 7.7178,-7.22964 7.0343,-6.13899 14.7599,-11.4396 22.2858,-16.94129 20.8264,-14.64345 41.2423,-29.8899 61.2858,-45.58461 4.186,-3.56656 8.4535,-7.03967 12.558,-10.6997 13.4831,-12.02285 25.6185,-25.44371 38.4273,-38.15884 -3.6346,0.45884 -8.3313,3.98481 -10.9037,1.37652 -19.6847,-19.95948 -21.1448,-20.22031 -13.3284,-30.19743 0.505,-0.64463 -0.9291,1.35467 -1.4783,1.96205 -3.5525,3.92845 -7.5908,7.40264 -10.9363,11.52702 -11.4701,14.35026 -21.4679,29.10424 -28.8029,46.0235 -4.4493,9.15178 -8.963,16.49164 0.9925,29.11274 9.5663,12.12776 21.9702,4.79766 31.569,1.11908 14.3518,-5.36538 28.325,-11.75562 40.156,-21.72091 6.5077,-5.47132 9.3191,-7.61678 15.4628,-13.71182 5.9983,-5.9508 8.6344,-9.26836 14.159,-15.46384 1.7559,-1.96908 3.6388,-3.82778 5.3092,-5.86983 0.3233,-0.39521 0.4222,-0.92983 0.6333,-1.39476 24.5576,-14.03291 4.712,-48.76265 -19.8456,-34.72971 z" /><path
         style="fill:#1f182d;fill-opacity:1;stroke-width:20;paint-order:markers stroke fill"
         id="path3159"
         d="m 1668.7098,1405.0762 c -3.9989,4.5822 -7.1553,9.8101 -10.8028,14.6662 -4.5842,5.3794 -7.8496,11.6606 -11.5186,17.6552 -3.4614,5.7742 -6.8607,11.5927 -10.0542,17.5204 -1.9273,3.5749 -3.766,7.1983 -6.1726,10.48 -2.6576,3.4307 -5.8343,6.3821 -8.8976,9.4342 -2.7836,2.7949 -5.6553,5.5001 -8.4876,8.246 -2.3841,2.127 -3.9163,4.9661 -5.9415,7.3852 -0.9371,1.1192 -2.0164,2.1114 -3.0329,3.1591 -3.6208,3.58 -7.2815,7.1139 -10.8676,10.7287 -1.8384,1.8292 -0.434,0.3998 -2.325,2.4211 -0.129,0.1379 -0.5507,0.5136 -0.3964,0.4048 0.8698,-0.6134 1.494,-1.783 2.5491,-1.923 8.418,-1.117 7.4571,-1.1113 11.5472,2.3218 -4.7401,-0.4807 -9.4702,-1.8098 -14.2205,-1.442 -1.327,0.1027 -1.9696,1.7947 -2.8797,2.7658 -1.2864,1.3728 -3.1868,4.0373 -4.2779,5.4685 -1.6959,2.2244 -2.4135,3.1003 -4.1452,5.2715 -3.8637,4.5164 -7.1756,9.3851 -9.9114,14.6521 -1.8515,3.5263 -3.4318,7.1839 -5.1946,10.7553 -2.445,3.8403 -4.927,7.6581 -7.4129,11.473 -2.9271,4.27 -5.562,8.7003 -8.1076,13.2051 -2.3236,4.4356 -5.1181,8.5892 -7.8679,12.7654 -1.353,2.5752 -3.335,4.6814 -5.0778,6.9765 -1.501,1.9767 -2.1176,2.9349 -3.502,4.9653 -2.0607,3.1139 -4.3557,6.0963 -6.1043,9.4079 -1.146,2.1702 -2.1667,4.5958 -3.1547,6.8504 -2.6208,5.5402 -5.4126,10.9921 -8.1348,16.4819 -2.6755,5.4958 -4.5464,11.3184 -6.7891,16.9876 -2.6406,6.0531 -4.3944,12.4206 -6.5027,18.6626 -3.3229,10.2056 -6.2,20.5667 -8.8985,30.9559 -1.9291,6.8674 -3.6729,13.783 -5.1699,20.757 -0.1404,0.6063 -0.2473,1.2213 -0.4212,1.8189 -0.3481,1.1962 -0.8908,2.3276 -1.2903,3.5076 -1.2611,3.7245 -2.3437,7.4898 -3.3876,11.2795 -1.4643,6.3851 -3.5804,12.571 -5.488,18.8276 -2.0233,6.9341 -4.7876,13.6035 -6.9305,20.4995 -2.0009,7.0899 -4.9876,13.8526 -7.7296,20.6769 -1.7769,5.0277 -4.2103,9.7845 -6.1503,14.7453 -1.5211,3.8895 -2.0361,5.6344 -3.3098,9.5211 -1.2292,4.0936 -2.0823,8.2406 -2.1163,12.5263 -0.022,2.7633 0.4109,5.5028 0.8016,8.2281 0.6698,3.5082 0.7444,7.0682 0.8218,10.6259 0.044,2.625 0.061,5.2503 0.07,7.8756 0.01,1.4613 -0.057,3.7516 0.2628,5.123 0.357,1.5289 0.9756,2.9846 1.4634,4.4768 0.7402,1.1075 1.3902,2.2808 2.2206,3.3223 3.2531,4.0802 7.8329,5.6396 12.7591,6.5114 3.1048,0.1748 6.3825,0.8341 9.496,0.3175 1.2471,-0.2069 2.4619,-0.5749 3.6929,-0.8624 4.2256,-2.0462 8.5542,-3.8747 12.5994,-6.2673 5.6705,-3.8416 9.4127,-9.4897 12.7389,-15.3399 2.2845,-4.559 4.2943,-9.2644 5.6413,-14.1918 0.7962,-2.9126 1.1808,-5.131 1.7627,-8.0784 1.3522,-8.3269 2.3203,-16.7098 3.2296,-25.0946 0.563,-6.2154 1.2276,-12.4212 1.6875,-18.6456 0.6201,-5.9856 2.0986,-11.8519 3.5316,-17.6844 2.9917,-12.1869 6.2776,-24.2989 9.1983,-36.5032 2.413,-9.9131 4.7679,-19.8449 6.6236,-29.879 1.6402,-9.473 3.3771,-18.9198 5.6033,-28.2733 1.9951,-6.9369 3.8312,-13.9535 7.0978,-20.4176 3.464,-6.972 7.3648,-13.7137 11.3481,-20.3986 4.4898,-7.4736 10.0685,-14.1879 15.6909,-20.82 6.4991,-7.453 12.8961,-14.995 19.038,-22.7453 4.4578,-5.3712 8.4467,-11.0975 12.6111,-16.6917 4.1496,-5.7287 8.2631,-11.4789 12.5286,-17.1224 3.9242,-5.1 7.5184,-10.4364 11.3303,-15.6181 4.2287,-5.4423 7.1988,-11.6535 10.5064,-17.6544 3.0334,-5.8614 6.7301,-11.3372 10.3062,-16.8743 4.1859,-6.468 8.672,-12.7139 13.3407,-18.8394 4.0222,-5.0821 7.8506,-10.3086 11.426,-15.7159 2.832,-4.6157 5.753,-9.1755 8.5757,-13.7972 2.8831,-4.1646 5.8526,-8.2443 8.3252,-12.6727 2.1899,-3.9865 3.2177,-8.2879 3.5454,-12.783 0.1339,-3.4011 0.079,-6.8059 0.053,-10.2085 0.4461,-7.9513 -3.587,-13.3641 -7.4374,-19.7944 -0.1993,-0.4541 -0.3987,-0.9082 -0.5981,-1.3623 -6.0781,-12.7693 -24.1367,-4.1736 -18.0586,8.5958 v 0 c 0.4995,1.0142 0.999,2.0284 1.4986,3.0426 0.8334,1.3914 2.3101,3.8749 3.1775,5.2505 0.3055,0.4844 0.532,1.0407 0.9518,1.4303 0.1026,0.095 0.3163,-0.3399 0.3646,-0.2085 0.1191,0.3241 0.1011,3.0163 0.1021,3.1965 0.022,2.9326 0.065,5.8663 -0.014,8.7983 -0.06,1.5732 -0.3236,3.0212 -1.1223,4.4279 -2.2281,4.2059 -5.3369,7.8408 -7.8579,11.8655 -2.7023,4.4274 -5.5047,8.792 -8.2084,13.2182 -3.3037,5.0412 -6.9024,9.8696 -10.6344,14.5991 -4.9769,6.5393 -9.7632,13.2068 -14.2307,20.1071 -3.8305,5.9316 -7.7681,11.8113 -11.0284,18.084 -2.8776,5.2391 -5.4194,10.6854 -9.0938,15.4438 -3.7605,5.1126 -7.3111,10.3739 -11.1756,15.4106 -4.2944,5.6831 -8.4438,11.4677 -12.6167,17.2399 -4.0435,5.4339 -7.9131,10.9982 -12.2439,16.2136 -6.0039,7.5817 -12.271,14.948 -18.6236,22.2394 -6.3286,7.4804 -12.5752,15.0757 -17.6121,23.5115 -4.2463,7.1339 -8.4027,14.3291 -12.0937,21.7697 -0.6071,1.2466 -1.259,2.4723 -1.8213,3.7397 -2.977,6.7102 -4.7145,13.9025 -6.8048,20.9137 -2.3015,9.6885 -4.1233,19.4683 -5.8156,29.2808 -1.7729,9.6915 -4.0915,19.2723 -6.4054,28.8466 -2.908,12.1706 -6.1966,24.2453 -9.173,36.3991 -1.6868,6.9132 -3.4091,13.8669 -4.0512,20.9708 -0.4402,5.9959 -1.0886,11.973 -1.6252,17.9606 -0.8463,7.8191 -1.7543,15.6343 -2.9732,23.4055 -1.1012,5.6807 -2.4529,11.1227 -5.1921,16.2797 -1.6334,2.9201 -3.2617,5.8199 -5.7554,8.1098 -2.575,1.7288 -5.6686,2.5087 -8.2914,4.1532 -0.062,0.039 0.1394,0.048 0.2091,0.073 0.2873,0 0.5883,-0.074 0.8619,0.014 0.1886,0.06 -0.3918,0.067 -0.5898,0.073 -1.1298,0.037 -2.2859,-0.032 -3.4134,-0.1059 -0.3119,-0.02 -0.6232,-0.049 -0.9348,-0.074 -1.211,-0.1362 -0.6641,-0.017 -0.3045,0.6251 0.2068,0.3693 -0.4611,1.0668 0.4196,1.1986 0.043,0.4847 0.1374,0.9677 0.1274,1.4542 -0.01,0.2664 -0.1284,-0.5206 -0.1412,-0.7868 -0.036,-0.7582 0,-1.5182 -0.01,-2.2773 -0.01,-2.7413 -0.028,-5.4827 -0.075,-8.2236 -0.098,-4.3628 -0.2388,-8.7295 -1.0214,-13.0349 -0.2757,-1.9015 -0.8426,-4.0823 -0.6638,-6.0171 0.177,-1.9146 0.7394,-3.8289 1.1957,-5.6786 0.9713,-2.9891 1.5965,-5.0528 2.7444,-8.0014 1.9678,-5.0544 4.4561,-9.8957 6.2618,-15.0168 2.944,-7.332 6.1226,-14.6056 8.2776,-22.2212 2.1321,-6.9305 4.9797,-13.6075 6.9579,-20.5888 1.9516,-6.4312 4.1266,-12.7904 5.6388,-19.3487 0.9086,-3.3148 1.8406,-6.6147 2.9441,-9.8713 0.7824,-2.3091 1.2563,-3.3287 1.936,-5.7163 0.1998,-0.7017 0.3275,-1.422 0.4912,-2.1331 1.4276,-6.695 3.1274,-13.3253 4.9712,-19.9177 2.5762,-9.9334 5.3223,-19.8413 8.4946,-29.5992 1.9931,-5.9375 3.663,-11.9885 6.1684,-17.7441 2.0028,-5.1445 3.7351,-10.3965 6.0869,-15.4025 2.8647,-5.7775 5.8075,-11.5138 8.5421,-17.3557 0.073,-0.1675 1.8875,-4.3517 2.1146,-4.8007 1.4789,-2.9244 3.6013,-5.4737 5.3588,-8.2243 0.7736,-1.1422 1.7615,-2.6367 2.6038,-3.746 2.1055,-2.7731 4.4496,-5.3756 6.1417,-8.4435 2.9975,-4.555 6.029,-9.0955 8.5759,-13.9248 2.3386,-4.1409 4.7443,-8.2182 7.4556,-12.1311 2.9128,-4.4787 5.9078,-8.9135 8.5874,-13.5354 1.7045,-3.4563 3.2417,-6.9911 5.0196,-10.4091 2.1586,-4.1874 4.7089,-7.7877 7.79,-11.3809 2.1304,-2.6742 4.1836,-5.3974 6.2652,-8.1079 0.4399,-0.5728 1.0384,-1.0407 1.357,-1.6888 0.1157,-0.2353 -0.4677,0.2371 -0.7016,0.3557 -4.2032,-0.8464 -8.4063,-1.6928 -12.6095,-2.5392 0.9406,0.8548 1.5911,2.247 2.8218,2.5642 3.1415,0.8096 6.4905,1.0675 9.7095,0.6654 2.2589,-0.2821 4.2147,-3.4687 5.8682,-4.9218 3.6472,-3.68 7.3808,-7.2672 11.0552,-10.9206 1.9689,-2.048 2.9103,-2.9442 4.6959,-5.1197 1.3262,-1.6159 2.3268,-3.4884 3.8242,-4.9687 2.8929,-2.8144 5.8382,-5.5745 8.6827,-8.4383 3.825,-3.8281 7.7748,-7.554 11.0111,-11.9202 2.8544,-4.0224 5.2743,-8.2981 7.5435,-12.6757 3.0093,-5.6082 6.2405,-11.0991 9.5041,-16.5618 3.3378,-5.467 6.2778,-11.2128 10.4686,-16.1055 3.8499,-5.1634 7.267,-10.6312 11.4292,-15.5527 7.8447,-11.767 -8.7963,-22.861 -16.641,-11.094 z" /><path
         style="fill:#1f182d;fill-opacity:1;stroke-width:20;paint-order:markers stroke fill"
         id="path3157"
         d="m 1676.7467,1104.6415 c 5.0629,-6.1606 9.5776,-12.7393 14.0136,-19.3577 4.7598,-6.9213 10.128,-13.3928 15.3196,-19.9887 4.7923,-6.665 9.6225,-13.301 14.3381,-20.0213 4.7443,-7.2451 8.5839,-15.0167 11.917,-22.9941 2.716,-5.919 3.091,-12.6155 5.6558,-18.5621 4.1844,-5.5749 7.8441,-11.49614 11.4312,-17.46636 6.3891,-11.48712 13.1216,-22.76636 20.1494,-33.8723 4.8774,-7.56663 9.6174,-15.22087 14.2013,-22.96827 2.3639,-3.9838 4.7211,-7.98269 6.5313,-12.25724 0.5676,-1.3403 2.2317,-5.76411 2.7582,-7.15153 2.2006,-5.36271 3.8324,-10.93669 6.1128,-16.26767 1.7109,-3.64207 3.5916,-7.20481 5.7754,-10.58717 7.5937,-11.93048 -9.2785,-22.66955 -16.8722,-10.73909 v 0 c -2.7372,4.34149 -5.2029,8.8451 -7.3186,13.52412 -2.3476,5.57972 -4.1574,11.35441 -6.3969,16.97562 -1.0504,2.76926 -2.0068,5.59704 -3.2957,8.26875 -1.004,2.08122 -1.61,3.0787 -2.7867,5.10789 -0.5699,0.98277 -1.147,1.96138 -1.7205,2.94206 -4.4824,7.576 -9.1184,15.06024 -13.8893,22.45868 -7.1106,11.23903 -13.9378,22.6454 -20.3966,34.27333 -2.2155,3.69501 -4.3982,7.43683 -6.8525,10.98209 -1.7171,2.48031 -2.5622,3.30086 -4.1543,5.92201 -0.6513,1.0722 -1.1981,2.20448 -1.7971,3.30671 -1.0404,2.62474 -1.1786,2.79262 -1.979,5.58697 -1.2256,4.2792 -1.9617,8.7043 -3.6277,12.8557 -2.7378,6.6494 -5.9538,13.101 -9.8175,19.1749 -4.5044,6.4208 -9.1275,12.754 -13.682,19.1387 -5.5074,6.9976 -11.1968,13.8676 -16.2208,21.2289 -3.9544,5.9092 -7.9764,11.7832 -12.4478,17.317 -9.3127,10.643 5.7388,23.8131 15.0515,13.1701 z" /><path
         style="fill:#1f182d;fill-opacity:1;stroke-width:20;paint-order:markers stroke fill"
         id="path3155"
         d="m 2266.7934,272.99682 c -5.659,3.15576 -10.8858,6.98571 -16.3998,10.36701 -5.3939,3.20405 -11.0237,5.98119 -16.2762,9.4226 -1.4049,0.92049 -4.3647,3.01718 -5.8686,4.07546 -4.5389,3.02151 -8.4353,6.82477 -12.4415,10.49044 -4.3008,3.9285 -8.621,7.85211 -13.1194,11.55369 -6.6304,5.30275 -12.6708,11.27112 -18.4047,17.51692 -4.1252,4.05323 -7.6606,8.62428 -11.229,13.15972 -0.4845,0.58234 -0.9504,1.18067 -1.4535,1.74704 -1.9616,2.20827 -4.1664,4.21362 -6.2132,6.34095 -5.4875,5.70325 -0.3946,0.56552 -5.7389,5.90111 -5.6688,5.47994 -11.0019,11.2685 -16.1912,17.19937 -4.9503,6.07274 -9.6608,12.34705 -14.115,18.7924 -4.4983,5.99099 -8.8519,12.07887 -12.9433,18.356 -4.5164,6.99339 -8.3683,14.38032 -12.1365,21.7941 -2.7705,5.33037 -5.7302,10.56439 -8.7442,15.76091 -3.0987,4.71482 -6.186,9.45163 -9.4355,14.0679 -3.4847,4.93715 -6.9847,9.82956 -11.0383,14.31631 -3.0001,2.95487 -5.4471,6.34809 -7.631,9.92751 -2.3016,4.29408 -4.0108,8.86002 -5.5724,13.46375 -1.9352,5.52754 -3.7071,11.12181 -5.1392,16.8017 -1.2234,5.65065 -2.3976,11.31578 -3.4533,17.00075 -0.1211,0.72202 -0.2117,1.44983 -0.3633,2.16609 -0.1791,0.84667 -0.6164,1.68878 -0.8964,2.50798 -0.7165,2.09595 -0.6087,1.88783 -1.1849,4.19622 -0.8416,4.5549 -1.9623,9.0465 -2.978,13.56426 -0.9649,5.3513 -1.5107,10.77812 -1.9507,16.19631 -0.338,4.51326 -0.3733,9.04025 -0.4004,13.56365 -0.1763,2.63488 0.184,5.50413 -0.6461,8.05741 -0.8682,2.95357 -1.6791,5.92479 -2.5794,8.86902 -0.9226,2.42564 -1.0928,5.10317 -2.0273,7.52207 -0.086,0.22331 -0.2677,0.39783 -0.381,0.60876 -0.2993,0.55785 -0.5704,1.13038 -0.8556,1.69558 -1.3107,2.35807 -2.3892,4.88974 -4.0315,7.05141 -0.6082,0.8005 -1.3545,1.48609 -2.025,2.23515 -2.4773,2.62263 -4.9332,5.26076 -7.6215,7.66807 -1.8766,1.33326 -3.6125,2.91934 -5.641,4.03268 -0.1822,0.0999 -1.7598,0.63769 -1.826,0.66071 -1.0926,0.17592 -2.3935,0.86022 -3.5379,0.65977 -0.2319,-0.0406 0.4584,-0.11726 0.6733,-0.21347 0.1834,0.0146 0.3694,0.0784 0.55,0.0439 0.049,-0.009 -0.055,-0.0875 -0.061,-0.13732 -0.011,-0.10149 0.029,-0.20293 0.027,-0.30496 -0.017,-0.93644 0.092,-0.13774 -0.5929,-1.85933 -1.6164,-3.87681 -1.9634,-8.05127 -2.1932,-12.19602 -0.2395,-5.78707 -0.4952,-11.5774 -1.1904,-17.32965 -0.8515,-4.59516 -1.5229,-9.21981 -2.3142,-13.82358 -0.5693,-2.87724 -0.9607,-5.78858 -1.5145,-8.66823 -0.1504,-0.78176 -0.2338,-1.5848 -0.498,-2.33579 -0.5211,-1.48141 -1.2321,-2.88904 -1.8482,-4.33356 -0.5384,-0.86839 -1.0629,-1.74548 -1.6151,-2.60517 -1.1579,-1.80276 -1.0176,-1.27585 -1.6343,-2.68142 -0.2099,-0.47842 -0.8434,-2.18419 -1.0924,-2.4275 -1.941,-1.8964 -4.1318,-3.51904 -6.1977,-5.27854 -2.7992,0.20468 -5.8235,-0.50435 -8.3977,0.61404 -6.262,2.72045 -6.9432,11.28377 -8.3954,16.91966 -1.4006,5.88526 -3.3919,11.58793 -5.3095,17.31465 -1.6,4.89117 -3.5019,9.68383 -5.5198,14.41659 -1.9847,4.26434 -4.3855,8.35451 -7.0137,12.25515 -3.3454,4.4553 -6.9643,8.69892 -10.6517,12.87468 -5.36,6.16405 -10.2932,12.64973 -14.7809,19.47061 -1.921,3.19286 -4.2079,6.09227 -6.5445,8.97972 -4.0037,4.81391 -7.4887,10.01451 -11.1459,15.0867 -4.2042,5.38731 -7.7584,11.21897 -11.5343,16.90222 -3.8638,5.85777 -7.9156,11.57462 -12.4466,16.93518 -4.1091,4.67307 -7.8373,9.65425 -11.7846,14.46028 -4.5943,6.33835 -9.6739,12.29463 -14.4408,18.49792 -3.5837,4.54448 -6.4831,9.57349 -9.4309,14.54039 -2.6305,4.68513 -5.4834,9.24181 -8.2733,13.83326 -2.0475,3.06266 -4.0789,6.1078 -5.7945,9.37138 -2.1139,4.2373 -4.633,8.24429 -7.1058,12.27672 -4.8397,7.64339 -9.7206,15.26275 -14.4762,22.96104 -2.688,4.2893 -5.0062,8.79227 -7.5536,13.16207 -1.4653,2.59308 -3.1373,5.05508 -4.7497,7.55661 -3.4173,5.40515 -6.5686,10.97256 -10.0432,16.34141 -2.7165,3.78388 -4.9239,7.89093 -7.1561,11.96895 -1.3025,2.20515 -0.6296,1.05117 -2.0151,3.46398 -7.0396,12.26561 10.3066,22.221 17.3462,9.9554 v 0 c 1.3852,-2.41504 0.6485,-1.14181 2.2133,-3.81765 1.9999,-3.65498 3.96,-7.34568 6.415,-10.72406 3.468,-5.38433 6.6619,-10.93552 10.0582,-16.36477 1.7732,-2.76072 3.6111,-5.47992 5.2277,-8.33814 2.4429,-4.22087 4.7033,-8.54638 7.2735,-12.69431 4.7652,-7.71723 9.6604,-15.35242 14.5094,-23.0151 2.7283,-4.44899 5.4836,-8.88372 7.8256,-13.55312 1.4416,-2.88853 3.448,-5.4257 5.1252,-8.17777 2.819,-4.6541 5.717,-9.26353 8.3791,-14.00971 2.5346,-4.28445 5.0121,-8.63732 8.0916,-12.56043 4.6258,-6.03676 9.5923,-11.80595 14.0345,-17.98609 3.8895,-4.7427 7.5701,-9.65128 11.6198,-14.26212 5.0041,-5.9558 9.544,-12.25701 13.8137,-18.75944 3.6316,-5.47415 7.0448,-11.09241 11.0997,-16.27399 3.4352,-4.77255 6.7062,-9.66705 10.4667,-14.19738 2.7495,-3.39923 5.4146,-6.84234 7.7088,-10.57365 3.9637,-6.03673 8.3266,-11.76827 13.0647,-17.22358 4.2771,-4.85063 8.486,-9.78117 12.2946,-15.01106 3.2843,-4.96059 6.3504,-10.10279 8.7848,-15.53816 2.2081,-5.223 4.3202,-10.4975 6.078,-15.89095 2.0633,-6.18884 4.2034,-12.3531 5.7198,-18.70906 0.1891,-0.74676 1.7182,-6.1573 1.6275,-7.11049 -0.011,-0.12038 -0.166,0.17698 -0.26,0.25302 -1.3011,1.05241 -2.3144,2.67415 -3.9242,3.13129 -2.2558,0.64064 -4.6901,-0.0127 -7.0351,-0.019 -1.6024,-1.58617 -3.1235,-3.25903 -4.8073,-4.75853 -0.2349,-0.20923 0.2828,0.56219 0.4155,0.84744 0.3677,0.79057 0.6888,1.6034 1.0855,2.37984 1.0319,2.01989 1.2887,2.36196 2.3965,3.97555 0.2188,0.31872 0.4423,0.63416 0.6635,0.95123 0.033,-0.18068 0.019,-0.70765 0.099,-0.54205 0.1871,0.39018 0.6907,3.60553 0.6993,3.65546 0.252,1.45891 0.5071,2.91729 0.7648,4.37525 0.1283,0.72586 0.261,1.45093 0.3915,2.17641 0.7748,4.26228 1.3057,8.57118 2.1641,12.82147 0.6828,5.3189 0.8077,10.69123 1.0729,16.04293 0.3995,6.50976 1.2171,13.00666 3.8411,19.05059 0.5098,1.11781 0.9416,2.27462 1.5296,3.3534 2.7327,5.01433 6.7441,8.58065 12.2043,10.32484 0.9633,0.18936 1.9137,0.46373 2.8899,0.56814 4.0375,0.43177 8.0317,-0.53057 11.8301,-1.80311 2.5828,-1.03473 3.0007,-1.10601 5.5366,-2.55677 2.9083,-1.66376 5.4649,-3.90121 8.112,-5.92948 3.2287,-2.91515 6.2289,-6.06012 9.1899,-9.2456 1.4563,-1.64554 2.4715,-2.72698 3.8079,-4.56363 2.058,-2.82848 3.5543,-6.01912 5.2014,-9.08836 1.1408,-2.30682 1.6413,-3.17892 2.5679,-5.73106 0.85,-2.34101 1.1284,-4.85841 1.9361,-7.21278 0.9942,-3.29584 1.93,-6.60964 2.8677,-9.92177 0.9444,-4.16452 1.2672,-8.42312 1.2193,-12.69349 0.024,-4.0264 0.045,-8.05622 0.3359,-12.07429 0.3594,-4.48985 0.8207,-8.98141 1.531,-13.4289 0.9915,-4.436 2.1041,-8.84388 2.9208,-13.31682 0.6873,-3.32743 2.4103,-6.4048 2.6515,-9.84901 0.977,-5.28399 2.0802,-10.54603 3.193,-15.80253 1.2721,-5.16813 2.9464,-10.23594 4.6886,-15.26191 1.0691,-3.20664 2.2735,-6.36095 3.6912,-9.42943 1.5414,-2.52635 3.2398,-4.9194 5.4203,-6.96103 4.5796,-5.09947 8.6182,-10.59725 12.5465,-16.21012 3.5684,-5.09744 6.9997,-10.29975 10.3685,-15.52787 3.1953,-5.51635 6.3374,-11.06961 9.2707,-16.73 3.4456,-6.78241 6.9513,-13.54987 11.0741,-19.9527 3.978,-6.13619 8.2765,-12.03952 12.641,-17.90452 4.0052,-5.82427 8.2792,-11.4672 12.7038,-16.97839 4.8951,-5.59885 9.9251,-11.06114 15.2813,-16.2266 5.1167,-5.12707 10.2628,-10.27012 14.9811,-15.76433 3.257,-4.14205 6.4567,-8.32842 10.249,-12.00629 5.1109,-5.57908 10.4952,-10.91139 16.4222,-15.63206 4.7306,-3.93774 9.3332,-8.03444 13.8633,-12.20139 3.3797,-3.0925 6.616,-6.34804 10.452,-8.89087 2.6595,-1.87251 5.291,-3.80095 8.089,-5.46619 4.2987,-2.55833 8.819,-4.7336 13.0682,-7.37952 5.9119,-3.68437 11.6247,-7.67172 17.6391,-11.19946 11.4372,-8.318 -0.3262,-24.49272 -11.7634,-16.17472 z" /><path
         style="fill:#1f182d;fill-opacity:1;stroke-width:20;paint-order:markers stroke fill"
         id="path3153"
         d="m 1663.1198,1096.3745 c -1.4688,1.8903 -3.0888,3.6642 -4.5751,5.5479 -3.2401,4.0928 -4.6624,9.0387 -5.6474,14.0715 -0.7513,4.8868 -0.8406,9.8355 -1.204,14.7582 -0.077,3.7542 -0.9766,7.3712 -1.7781,11.0112 -0.9294,4.3835 -2.0074,8.71 -2.5405,13.1643 -0.4231,4.7458 -0.4247,9.5149 -0.4416,14.2754 0.4684,6.2246 1.6594,12.3748 2.8169,18.5024 0.6792,3.2819 1.2643,6.5816 1.707,9.9035 0.9275,5.5754 2.0817,11.1076 2.8757,16.7057 0.5995,5.116 0.9603,10.2569 1.536,15.3752 0.4166,5.7857 1.9611,11.39 3.0765,17.0598 0.9645,5.3299 1.0703,10.7664 1.2004,16.1673 0.4285,3.9295 0.4429,7.9689 1.2858,11.8485 0.7566,3.4821 1.2716,4.7729 2.3751,8.1647 2.3851,6.8312 5.3983,13.4136 7.7405,20.2606 1.4397,3.9031 3.0746,7.7315 4.4815,11.6467 0.079,0.2856 0.182,0.5655 0.2358,0.8568 0.041,0.2218 0.032,0.45 0.047,0.6751 0.1464,0.7976 0.2843,1.5969 0.4392,2.3929 0.5597,2.876 1.2373,5.71 1.9711,8.5457 1.0072,3.8381 1.8359,7.7302 2.4545,11.6503 0.4192,3.9259 0.4589,7.8836 0.5035,11.8284 0.028,4.3094 0.015,8.6189 0.01,12.9284 -0.046,6.977 -0.061,13.9468 0.3428,20.9141 0.3527,5.8729 1.8222,11.5448 3.9948,16.9848 1.0921,3.0965 3.0776,5.8034 4.2771,8.8404 1.3962,3.2795 2.9534,6.6244 5.2551,9.3864 0.5726,0.6872 1.235,1.2945 1.8525,1.9417 4.1244,3.6207 8.5826,4.1688 13.7841,3.9927 4.3057,-0.3718 7.9373,-2.6236 11.7209,-4.4656 2.2885,-1.1142 2.1203,-0.9868 4.4518,-1.8399 4.3032,-1.1736 8.7177,-1.8677 13.0048,-3.1168 3.7546,-1.0939 4.0733,-1.3316 7.6416,-2.7922 3.5609,-1.4186 6.7261,-3.6164 10.1121,-5.3689 0.679,-0.3515 2.7938,-1.147 3.3821,-1.3756 3.7677,-1.3515 7.6876,-2.2096 11.6275,-2.8742 5.5604,-0.7777 11.0194,-2.1725 16.5038,-3.3651 5.9865,-1.2214 11.7433,-3.2265 17.3983,-5.5023 5.0715,-2.1678 10.1138,-4.4161 15.1058,-6.763 3.9979,-1.6553 7.9002,-3.5273 11.8721,-5.2418 3.7428,-2.1099 7.7504,-3.3775 11.8737,-4.4897 5.8733,-1.5279 11.8423,-2.6523 17.749,-4.0538 6.037,-1.3189 12.2292,-1.5708 18.3832,-1.8032 5.7467,-0.172 11.4968,-0.1514 17.2454,-0.1451 3.5733,-0.2109 7.1979,-0.1046 10.7485,-0.637 2.1576,-0.3235 3.3701,-0.653 5.4199,-1.1425 4.6611,-1.4533 9.2924,-2.9627 13.9855,-4.3088 5.0684,-1.1469 9.5933,-3.6072 14.0565,-6.1639 3.3063,-1.8554 6.5151,-3.8419 9.6539,-5.9662 1.5811,-1.1318 3.4194,-1.975 4.9151,-3.2313 0.6672,-0.5603 1.2848,-1.1771 1.9272,-1.7656 -1.6421,-5.5382 -1.8735,-11.7107 -4.9264,-16.6146 -0.9642,-1.5488 -3.6521,-0.2114 -5.4724,-0.089 -0.8982,0.06 -1.7606,0.3832 -2.6256,0.6329 -2.7536,0.795 -5.3648,1.9195 -7.9709,3.0933 -4.3217,2.2478 -8.1874,5.0558 -10.3947,9.5622 -1.4489,2.958 -1.3257,4.6149 -1.6171,7.7658 0.1616,5.7327 2.0293,11.6988 7.1186,14.9803 1.1749,0.7576 2.5294,1.1913 3.7941,1.7869 0.9679,0.2059 1.9176,0.5363 2.9038,0.6176 3.503,0.2887 8.7949,-0.5566 12.0552,-2.0817 1.2802,-0.5988 2.4595,-1.3931 3.6892,-2.0897 4.3695,-3.4752 7.3437,-8.2241 10.3466,-12.8479 1.9735,-2.881 3.1835,-6.1914 4.8823,-9.2179 1.1781,-2.0988 2.8203,-3.9275 4.4503,-5.6729 4.6029,-4.0765 8.8327,-8.5249 13.0103,-13.0278 4.273,-4.8389 7.8837,-10.1915 12.2574,-14.9424 6.5992,-6.7588 13.4552,-13.261 20.0812,-19.9984 6.2452,-6.5239 12.4991,-13.06 18.4255,-19.8785 4.3609,-4.8848 7.3527,-10.6758 10.1813,-16.5226 1.7125,-3.8748 3.7257,-7.5873 5.1864,-11.5668 1.1938,-3.3381 2.1648,-6.7453 3.0435,-10.1778 1.2425,-7.0111 3.2074,-13.8548 5.1146,-20.7052 3.7034,-11.5131 7.0696,-23.1205 10.2398,-34.7913 3.7061,-13.6479 -15.595,-18.889 -19.301,-5.2411 v 0 c -3.1573,11.6307 -6.5298,23.191 -10.206,34.6684 -1.9458,6.9895 -3.9761,13.9735 -5.2279,21.1299 -0.7282,2.8731 -1.5404,5.722 -2.5413,8.5135 -0.9793,3.321 -3.1748,6.1966 -4.3141,9.4651 -2.0576,4.2591 -4.0962,8.5585 -7.2816,12.1207 -5.6416,6.515 -11.6326,12.7294 -17.5795,18.9626 -6.804,6.9199 -13.8634,13.5792 -20.6071,20.5542 -0.9413,1.0416 -1.9098,2.0591 -2.8238,3.1247 -3.2446,3.7829 -5.9916,7.9607 -9.3098,11.6831 -4.2503,4.5822 -8.61,9.0351 -13.2211,13.2585 -2.523,2.8667 -3.1139,3.342 -5.2085,6.4704 -2.3303,3.4804 -3.9606,7.2841 -6.0308,10.9089 -1.0988,1.6969 -2.1978,3.3926 -3.3739,5.0376 -0.2832,0.3959 -0.5785,0.783 -0.8664,1.1755 -0.1838,0.2507 -0.4447,0.4611 -0.5488,0.754 -0.03,0.085 0.1802,0.019 0.2704,0.029 0.1609,0 0.5801,-0.1195 0.4828,0.01 -0.2166,0.2856 -2.0843,0.6572 -2.2725,0.7067 -0.2441,0.064 -0.7981,-0.026 -0.726,0.2158 0.1373,0.4614 1.1652,-0.025 1.3691,0.4602 1.1863,0.7859 2.9756,1.8738 2.8274,3.6005 -0.02,0.2314 -0.4615,-1.0141 -0.3076,-0.6251 -0.2582,0.079 -1.5512,1.5548 -1.7194,1.6849 -0.092,0.071 0.072,-0.2297 0.1548,-0.311 0.5502,-0.5423 1.3286,-0.9795 1.9658,-1.3837 2.0949,-1.0074 1.017,-0.5432 3.4714,-1.4618 0.4098,-0.1534 0.8208,-0.3039 1.2307,-0.4571 0.1731,-0.065 0.6971,-0.15 0.5183,-0.1966 -0.9888,-0.2579 -2.6336,0.4825 -3.0313,-0.4588 -2.1888,-5.1808 -2.7196,-10.9147 -4.0794,-16.372 0.322,-0.2506 0.6512,-0.4922 0.966,-0.7517 0.1533,-0.1264 -0.3175,0.2391 -0.481,0.352 -1.3139,0.9065 -2.6828,1.7354 -4.0263,2.5957 -2.724,1.845 -5.5042,3.5729 -8.3825,5.1732 -3.0789,1.7639 -6.0931,3.593 -9.6331,4.2943 -4.4206,1.2701 -8.8069,2.6222 -13.1659,4.0921 -0.9548,0.2347 -1.8967,0.5325 -2.8658,0.6981 -2.8246,0.4825 -5.7364,0.293 -8.5821,0.5217 -6.0101,-0.01 -12.0217,-0.026 -18.0296,0.1596 -7.4559,0.2871 -14.9481,0.6707 -22.249,2.3316 -6.1121,1.4579 -12.2949,2.5998 -18.3677,4.2114 -5.021,1.3737 -9.9843,2.9145 -14.5684,5.4335 -4.1618,1.804 -8.2615,3.7473 -12.4456,5.5007 -4.6525,2.1911 -9.3555,4.2822 -14.0787,6.3144 -4.6027,1.8658 -9.2806,3.5229 -14.1628,4.505 -5.1913,1.1305 -10.3557,2.4683 -15.6205,3.1936 -5.3071,0.9161 -10.5832,2.1049 -15.6369,3.9993 -2.6958,1.0847 -3.3548,1.2801 -5.997,2.6404 -2.6371,1.3577 -5.0889,3.0851 -7.8335,4.2411 -2.1981,0.9508 -2.5492,1.1755 -4.9562,1.887 -4.9676,1.4686 -10.1438,2.0941 -15.0547,3.769 -3.59,1.3869 -3.2033,1.1469 -6.4976,2.748 -1.3183,0.6408 -2.629,1.2981 -3.923,1.9867 -0.1568,0.083 -0.6034,0.2198 -0.443,0.2963 0.3155,0.1505 0.6992,0 1.0488,-0.01 -3.1481,0.1247 -0.1916,0.1077 0.8804,1.6557 0.1703,0.8422 -1.9424,-3.129 -2.0065,-3.2728 -0.2504,-0.5623 -0.4725,-1.1367 -0.7087,-1.7051 -1.2734,-2.8315 -2.8337,-5.5151 -4.0763,-8.3625 -1.4142,-3.4042 -2.3318,-6.9689 -2.5663,-10.6625 -0.4031,-6.5616 -0.3288,-13.1286 -0.3075,-19.6998 0.01,-4.3948 0.02,-8.7897 -0.011,-13.1844 -0.057,-4.9282 -0.119,-9.876 -0.7553,-14.7699 -0.7393,-4.5455 -1.6673,-9.0662 -2.8468,-13.5186 -0.6197,-2.3616 -1.1868,-4.7239 -1.6551,-7.1209 -0.2574,-1.3169 -0.7008,-3.9664 -0.9813,-5.1347 -0.1606,-0.669 -0.4019,-1.3161 -0.6029,-1.9741 -1.3838,-3.8116 -2.9351,-7.5585 -4.3762,-11.3482 -2.3318,-6.7587 -5.2125,-13.2963 -7.657,-20.012 -0.2919,-0.8737 -1.3446,-3.9141 -1.627,-5.0915 -0.7155,-2.9836 -0.6229,-6.1318 -1.0376,-9.1574 -0.1612,-6.5396 -0.3508,-13.1146 -1.5743,-19.5592 -1.0196,-5.1347 -2.4361,-10.2088 -2.8255,-15.4474 -0.616,-5.3041 -0.9371,-10.6407 -1.6085,-15.9394 -0.7978,-5.5406 -1.8759,-11.029 -2.8526,-16.5387 -0.4979,-3.6791 -1.1251,-7.3383 -1.8805,-10.9738 -0.9342,-4.8781 -1.7878,-9.7781 -2.4653,-14.6982 0.014,-4.0254 0.01,-8.0565 0.3123,-12.073 0.3977,-3.7808 1.5167,-7.416 2.205,-11.1489 0.9986,-4.5682 2.0417,-9.1285 2.1889,-13.8279 0.3097,-4.2049 0.4173,-8.4254 0.9285,-12.6127 0.2936,-1.8578 0.6082,-3.7924 1.7232,-5.3566 1.7786,-2.2997 3.8491,-4.3642 5.47,-6.7851 7.8446,-11.767 -8.7964,-22.861 -16.641,-11.094 z" /><path
         style="fill:#1f182d;fill-opacity:1;stroke-width:20;paint-order:markers stroke fill"
         id="path3151"
         d="m 2211.1083,996.3334 c -6.4657,0.27263 -12.9221,0.66183 -19.3746,1.1561 -16.7885,1.4846 -33.61,2.5242 -50.4285,3.5953 -6.3161,0.5333 -12.6682,0.915 -18.9341,1.9261 -1.3813,0.2229 -2.7738,0.4221 -4.1199,0.8037 -4.3756,1.2403 -4.6016,1.6688 -8.3621,3.8524 -1.0653,0.9361 -2.2112,1.7879 -3.1958,2.8085 -4.705,4.8764 -6.7675,11.9513 -1.9794,18.0017 1.5994,2.021 4.4522,2.5976 6.6784,3.8964 2.0742,0.1176 4.1463,0.4204 6.2228,0.3527 2.0451,-0.067 6.1313,-1.0431 8.2466,-1.5216 2.9347,-0.664 5.7916,-1.3829 8.6451,-2.3355 0.3904,-0.1461 1.3324,-0.054 1.1713,-0.4381 -2.5652,-6.1202 -5.8988,-11.8892 -8.8328,-17.8414 -0.018,-0.037 0.018,-0.1343 -0.022,-0.1225 -2.6116,0.7738 -5.0969,2.0471 -7.5493,3.2048 -8.942,4.958 -13.7705,13.3174 -18.79,21.8258 -2.166,3.3451 -4.3435,6.6913 -6.2634,10.1861 -2.2582,4.1107 -0.3778,0.9446 -2.4071,4.2749 -3.0341,4.4014 -5.2753,9.2568 -7.5047,14.0936 -0.256,0.4606 -0.4946,0.9314 -0.768,1.3819 -0.8154,1.3438 -1.7713,2.6443 -2.6803,3.9252 -0.7844,1.1053 -0.7511,1.0932 -0.4745,0.5051 0.2278,-0.2332 0.4048,-0.5304 0.6835,-0.6997 2.8114,-1.7077 6.5123,-2.3838 9.6512,0.01 2.5292,1.9252 3.3014,5.4409 4.7237,8.2834 0.1585,0.3168 -0.2812,1.3278 -0.048,1.0615 0.2837,-0.3235 0.1537,-0.8467 0.2306,-1.27 0.3881,-1.7481 0.4335,-3.517 0.4358,-5.2983 0,-0.2338 0.038,-0.9293 -0.014,-0.7013 -1.2835,5.6838 0.3573,2.5043 -2.9004,7.0186 3.7174,-2.8401 7.6002,-5.6002 10.9293,-8.9074 1.7157,-1.7043 3.3432,-3.5014 4.878,-5.3703 3.4755,-4.2317 4.9722,-6.8544 7.8756,-11.3953 2.3314,-3.6097 4.3722,-7.4016 6.7176,-11.0024 0.5557,-0.8532 1.4387,-2.1993 2.282,-2.9125 0.2024,-0.1712 0.4727,-0.2405 0.709,-0.3607 2.1717,-1.4992 4.7192,-2.2945 7.2314,-3.0276 0.1215,-0.03 1.8487,-0.44 1.8362,-0.4826 -1.8813,-6.4021 -2.1437,-13.959 -6.6476,-18.8825 -1.7784,-1.944 -4.4716,2.8256 -6.461,4.5529 -1.7535,1.5224 -7.7994,8.803 -9.2574,10.5252 -4.9144,6.0742 -9.4681,12.4245 -14.1274,18.6925 -1.4318,1.9261 -2.9009,3.8246 -4.3199,5.7602 -3.7791,5.1544 -3.993,5.5723 -7.4147,10.6458 -3.1861,5.2121 -6.6463,10.923 -6.8787,17.2375 -0.053,1.4371 -0.1164,2.9358 0.3348,4.3013 0.6825,2.0653 2.0008,3.8628 3.0013,5.7942 2.1268,1.2795 4.095,2.8705 6.3805,3.8384 1.4937,0.6326 3.1725,0.7075 4.7844,0.8902 3.4149,0.3869 7.5103,0.1507 10.8931,-0.5173 1.1657,-0.2302 2.3041,-0.5823 3.4562,-0.8734 3.7709,-1.0912 7.1992,-3.0453 10.8912,-4.3427 2.048,-0.7196 4.6387,-1.4467 6.7007,-2.0512 5.066,-1.3571 10.11,-2.802 15.2077,-4.0378 2.8443,-0.5148 5.6716,-1.0941 8.5204,-1.5824 3.3901,-0.7051 6.8312,-0.8298 10.2784,-0.6892 -3.3987,0.065 -5.1259,-2.2281 -6.8426,-4.9765 -0.3391,-0.5428 -0.3877,-1.2214 -0.5297,-1.8454 -0.2087,-0.918 0.2186,-0.8668 -0.1985,-0.8816 -1.1539,2.3893 -1.6238,5.0379 -2.6564,7.4744 -0.3018,0.7122 -1.1741,2.2478 -1.5091,2.856 -3.0361,5.0367 -7.0666,9.351 -10.8859,13.7872 -5.5604,6.2855 -10.821,12.8317 -15.9896,19.4413 -5.5804,7.2586 -10.6777,14.8722 -15.349,22.7426 -2.658,4.1226 -4.5786,8.6468 -6.9254,12.9386 -1.3115,2.3982 -1.4397,2.5065 -2.8993,4.7598 -3.5088,5.7162 -8.207,10.539 -12.6725,15.4975 -5.7041,6.2584 -11.8119,12.1273 -17.7192,18.19 -4.4881,4.9628 -8.6674,10.1869 -13.1312,15.1713 -4.9529,5.0955 -10.0763,10.0171 -15.0248,15.1165 -0.9454,0.9771 -1.8909,1.9541 -2.8362,2.9312 -0.899,0.9294 -1.7734,1.8833 -2.6968,2.7884 -3.3808,3.3137 -7.1109,6.3032 -10.7887,9.2755 -4.1876,3.5514 -8.4764,6.983 -12.899,10.2373 -1.9598,1.4053 -3.8481,2.8968 -5.7143,4.4227 -0.1161,0.095 0.2337,-0.3954 0.3423,-0.292 4.7526,4.5233 9.2972,9.2604 13.9458,13.8905 6.0081,-7.5973 10.4653,-16.2126 15.3085,-24.552 5.891,-10.1434 7.7533,-12.9606 14.1235,-23.2147 10.1497,-15.3275 20.401,-30.6302 31.6682,-45.1694 5.0528,-6.5201 9.409,-11.6798 14.6352,-17.9864 2.0792,-2.2224 4.0347,-4.5673 6.2376,-6.6673 6.066,-5.7829 13.3128,-10.1205 20.4692,-14.3786 4.899,-2.9148 9.095,-5.2719 14.0215,-8.0739 6.7007,-3.9036 13.7841,-7.2372 20.0742,-11.8161 2.9529,-2.1496 5.3174,-4.237 8.0839,-6.5842 3.8829,-3.1499 6.9262,-7.2222 10.8162,-10.3554 0.3994,-0.3217 2.4017,-1.7163 2.8164,-2.0074 1.7511,-1.0919 3.5995,-1.9879 5.2293,-3.2781 1.9206,-1.5204 2.5576,-2.2924 4.1566,-3.9738 2.6045,-3.1717 5.2291,-6.909 5.11,-11.2641 -0.1175,-4.2987 -0.9282,-4.9831 -2.7735,-8.0726 -1.3573,-1.6618 -2.8104,-3.2214 -4.0904,-4.946 -1.2396,-1.5482 -0.5638,-0.7522 -2.0429,-2.3748 -9.7079,-10.2838 -24.2514,3.4452 -14.5435,13.7291 v 0 c 0.3419,0.2571 0.1049,0.061 0.6166,0.6859 1.1701,1.5389 2.3369,3.1276 3.7379,4.4636 -0.7757,-1.7459 -1.0426,-2.0253 -0.8723,-4.6141 0.1498,-2.2794 1.5409,-3.0702 0.2523,-1.2699 -0.3951,0.4368 -0.7315,0.9268 -1.1485,1.3427 -1.3016,1.2983 -3.7955,1.9641 -5.1639,3.2318 -1.6112,1.1419 -2.9965,2.0872 -4.5445,3.3757 -3.7411,3.114 -6.8592,6.8817 -10.5127,10.0919 -1.6592,1.4149 -4.5393,3.9219 -6.3177,5.2435 -5.8328,4.3347 -12.563,7.2889 -18.7726,11.0082 -4.7882,2.7242 -9.837,5.5654 -14.5539,8.3878 -5.7977,3.4692 -11.4933,6.903 -16.843,11.0602 -7.4826,5.8145 -8.4281,7.3906 -14.8434,14.2964 -5.5368,6.6849 -9.8593,11.8009 -15.228,18.7378 -11.618,15.0116 -22.2073,30.7964 -32.6644,46.6259 -6.642,10.6981 -8.4024,13.3469 -14.5493,23.9334 -4.2177,7.264 -8.0592,14.78 -13.1741,21.4824 4.1647,5.2033 7.9345,10.7489 12.494,15.6099 0.3602,0.3841 0.863,-0.6038 1.2814,-0.9234 1.6034,-1.2247 3.117,-2.5711 4.7942,-3.7026 4.6637,-3.4388 9.2026,-7.0437 13.62,-10.7942 4.3101,-3.4934 8.6158,-7.03 12.5819,-10.917 0.9225,-0.9041 1.7958,-1.857 2.6939,-2.7853 0.9391,-0.9708 1.8784,-1.9414 2.8177,-2.9121 5.1341,-5.2935 10.4744,-10.3787 15.5742,-15.7062 4.2717,-4.7773 8.3156,-9.7443 12.5525,-14.5515 6.0889,-6.2507 12.3884,-12.2982 18.2555,-18.7626 5.1941,-5.7675 10.5776,-11.4373 14.6499,-18.0905 1.9432,-3.056 2.0805,-3.156 3.7949,-6.3053 2.1668,-3.9803 3.9418,-8.1715 6.3997,-11.9934 4.2182,-7.1422 8.858,-14.03 13.8996,-20.6192 4.9689,-6.3645 10.0353,-12.6608 15.3879,-18.7078 4.759,-5.5298 9.7147,-10.9657 13.3351,-17.3483 1.2454,-2.343 1.6791,-3.0244 2.7082,-5.5359 0.7275,-1.7754 1.1383,-3.6456 1.8092,-5.4328 0.2405,-0.6407 0.5287,-1.2625 0.793,-1.8937 0.3042,-0.9193 0.7035,-1.8124 0.9125,-2.7579 0.5236,-2.3686 0.9361,-5.7402 -0.056,-8.0667 -1.7931,-4.2062 -3.5335,-6.0395 -7.5458,-7.6214 -1.1929,-0.4704 -2.5097,-0.5278 -3.7646,-0.7917 -4.8214,-0.1612 -9.6449,0.018 -14.39,0.9644 -3.2984,0.5671 -6.5755,1.2252 -9.8617,1.8602 -5.4057,1.3176 -10.7606,2.8327 -16.131,4.2858 -3.0918,0.9137 -5.3055,1.5201 -8.3532,2.6173 -3.0066,1.0824 -5.8513,2.5214 -8.832,3.6615 -1.6258,0.5254 -3.0348,0.7171 -4.7546,0.8161 -0.5251,0.03 -1.0522,0.027 -1.5765,0.069 -0.2481,0.02 -0.872,-0.093 -0.7375,0.1161 0.5995,0.933 1.5566,1.5801 2.335,2.3702 0.4182,1.2461 1.6769,3.12 1.0076,4.6613 -0.043,0.098 -0.1816,-0.1686 -0.1655,-0.2742 0.091,-0.5946 0.2671,-1.1761 0.4728,-1.7413 1.0143,-2.7881 1.5927,-3.387 3.2777,-6.2153 3.1002,-4.6107 3.3657,-5.0992 6.8267,-9.8189 1.4518,-1.9796 2.9536,-3.922 4.4182,-5.8922 4.3944,-5.9117 8.689,-11.9009 13.3017,-17.6473 1.3865,-1.6425 2.7576,-3.298 4.1594,-4.9275 1.0682,-1.2418 2.484,-2.2378 3.2501,-3.6856 0.1871,-0.3534 -1.0648,0.151 -1.1766,-0.2329 -5.9131,-20.3052 1.8538,-21.1582 -6.6983,-18.9431 -4.9988,1.5127 -9.9144,3.3882 -14.0782,6.6344 -1.1054,0.9637 -2.2828,1.8505 -3.3161,2.8912 -1.4833,1.4938 -2.9539,3.6311 -4.1047,5.4011 -2.3037,3.5432 -4.3232,7.2646 -6.6044,10.8219 -2.275,3.6163 -3.304,5.4562 -5.9426,8.8313 -0.9704,1.2412 -1.9685,2.4684 -3.0786,3.5865 -2.973,2.9942 -6.4868,5.462 -9.8283,8.013 -1.2557,1.4032 -2.8723,2.5529 -3.7669,4.2098 -2.502,4.6339 -0.7694,4.3942 -1.3858,7.1859 -0.8636,4.8464 -1.3032,7.9533 4.2137,12.4544 3.4165,2.7874 8.1134,1.8142 11.429,0.023 0.9901,-0.5349 1.827,-1.3143 2.7406,-1.9715 0.6536,-0.6956 1.3404,-1.3614 1.961,-2.0866 0.4969,-0.5807 1.5907,-2.214 2.0361,-2.8648 1.5051,-2.1993 3.0201,-4.4024 4.1476,-6.8288 1.9278,-4.1826 3.8288,-8.3957 6.4933,-12.1792 0.5398,-0.9097 1.0992,-1.808 1.6194,-2.729 1.8241,-3.229 0.2708,-0.7856 2.1172,-3.905 1.5959,-2.6962 3.3345,-5.3096 5.0103,-7.9555 2.8964,-4.9155 5.5841,-10.3438 10.1593,-13.9261 1.5948,-0.7684 2.2946,-1.1409 3.9429,-1.7937 0.7256,-0.2873 1.4744,-0.5139 2.1982,-0.8056 0.9574,-0.3859 3.1199,-0.2319 2.8436,-1.2265 -5.4234,-19.5207 -2.1274,-20.5236 -8.914,-17.9267 -2.0914,0.8001 -4.3066,1.2168 -6.4835,1.7181 -0.9123,0.2102 -1.825,0.4185 -2.7371,0.6294 -0.5901,0.1364 -1.2736,0.065 -1.7695,0.4126 -0.1851,0.1297 0.2681,0.3638 0.4021,0.5457 1.0065,0.918 2.4191,1.531 3.0195,2.7538 1.7733,3.6116 2.1757,5.4636 0.8022,8.4087 -0.1045,0.2239 -0.2873,0.4158 -0.4916,0.5547 -0.1213,0.082 0.053,-0.5675 -0.1128,-0.4252 1.3533,-1.3276 2.4556,-1.4126 4.468,-1.7428 5.8012,-0.952 11.6881,-1.283 17.5367,-1.7878 16.905,-1.0766 33.8131,-2.1221 50.6881,-3.6135 6.7703,-0.5209 13.5477,-0.8472 20.3245,-1.2519 14.0329,-1.7541 11.5523,-21.59967 -2.4807,-19.84554 z" /><path
         style="fill:#1f182d;fill-opacity:1;stroke-width:20;paint-order:markers stroke fill"
         id="path3149"
         d="m 2534.1341,505.64772 c -0.043,7.57861 3.2144,13.65358 8.633,18.80388 0.887,0.84304 1.8711,1.57758 2.8067,2.36635 2.6316,2.16451 5.8103,3.30722 8.9277,4.54068 0.5456,0.21587 1.119,0.37793 1.6273,0.67098 0.1121,0.0646 -0.2848,-0.0363 -0.3854,0.045 -0.072,0.0584 -0.01,0.18539 -0.014,0.2781 1.0841,2.12151 2.3003,4.13107 3.6596,6.0897 1.3465,1.94009 0.8917,0.93067 1.4144,2.29402 2.1664,5.20001 6.1437,9.24047 10.1719,13.04438 0.1435,0.20444 0.612,0.78497 0.4306,0.61333 -1.2618,-1.1934 -1.1798,-1.62134 -1.7652,-3.53033 -0.096,-0.31422 0.074,-1.13448 -0.2066,-0.96409 -0.4635,0.28101 -0.4357,0.99266 -0.6568,1.48756 -0.3162,0.70779 -0.6367,1.41367 -0.955,2.12051 -1.9955,3.90197 -4.253,7.68879 -6.7761,11.27286 -3.8071,4.6749 -7.5327,9.41488 -11.3182,14.10727 -3.8147,4.60446 -7.7826,9.06893 -11.659,13.6204 -2.7624,3.13815 -6.0986,5.77707 -8.6928,9.07047 -1.9351,2.45661 -3.8907,5.56742 -5.6089,8.19942 -3.9924,6.95769 -8.5127,13.56005 -13.0824,20.14283 -3.0746,4.65167 -6.5152,9.04309 -9.7526,13.57955 -3.4922,4.72885 -6.7584,9.61901 -10.2129,14.37453 -3.0853,4.14446 -6.3821,8.13112 -9.3183,12.38604 -2.205,3.19537 -2.9159,4.45696 -4.9257,7.74221 -3.5317,5.17668 -6.9487,10.43482 -10.521,15.58372 -1.5156,2.0641 -2.7385,4.34271 -4.3282,6.35445 -1.0691,1.35294 -2.4797,2.54119 -3.6859,3.76354 -3.5306,3.54814 -6.6498,7.40648 -9.4879,11.52114 -2.0523,2.6606 -3.4787,5.96615 -6.0482,8.2087 -1.1747,0.84185 -2.4821,1.74556 -3.8592,2.37906 -3.6727,1.85129 -7.0019,4.26373 -10.6234,6.20731 -2.5967,1.23952 -5.3891,2.04102 -8.1693,2.75963 -4.127,0.89524 -8.2655,1.73381 -12.3921,2.63133 -3.1804,0.67442 -6.4036,1.08596 -9.5014,2.11349 -0.998,0.331 -4.2752,1.64362 -5.3093,2.05304 -5.3336,1.8211 -10.1958,4.66532 -15.0257,7.51369 -0.6891,0.4236 -1.3838,0.83828 -2.0673,1.27079 -1.3502,0.85431 -1.8344,1.25548 -3.1116,1.95067 -1.1812,0.64291 -2.48,1.0832 -3.7193,1.5952 -1.5957,0.80076 -4.1139,1.27698 -5.4315,2.48925 -4.817,4.4319 -8.0858,8.04479 -2.9684,15.89582 1.7162,2.63298 5.685,2.6819 8.5274,4.02283 9.7416,-0.39589 18.8911,-3.864 27.8789,-7.33639 3.0232,-1.10072 5.8184,-2.7291 8.7762,-3.9746 1.4883,-0.62669 3.0782,-0.9608 4.648,-1.30246 0.4463,-0.0879 0.8926,-0.17582 1.3389,-0.26371 0.043,0.0116 0.1742,0.0378 0.1296,0.0346 -4.2878,-0.30486 -8.7277,0.0527 -9.9672,-6.83535 -2.3078,-12.8247 6.6396,-8.83725 3.2148,-10.35156 -0.5115,0.28662 -1.0377,0.54837 -1.5344,0.85984 -0.8859,0.55552 -2.5588,1.78239 -3.6373,2.36916 -1.2911,0.70239 -2.7272,1.10829 -4.1264,1.5217 -0.7023,0.18441 -1.396,0.40526 -2.1069,0.55319 -3.1057,0.64616 -6.3147,0.95977 -9.4628,1.29952 -4.3829,0.47303 -7.1491,0.74981 -11.6314,1.20923 -8.1414,0.97359 -16.3704,1.0037 -24.426,2.6443 -5.0449,1.02743 -10.92,2.68084 -15.8926,4.01246 -6.2816,1.68322 -12.5827,3.32589 -18.7786,5.31037 -2.9632,0.94909 -5.5528,1.79464 -8.2846,3.31031 -1.2222,0.6781 -2.332,1.54138 -3.498,2.31206 -3.1612,2.5636 -5.3874,5.67923 -6.2214,9.71791 -0.2159,1.04552 -0.3586,2.1386 -0.2103,3.19585 0.6103,4.3484 1.0859,4.61139 2.9513,7.77047 0.9755,1.03745 1.8057,2.23408 2.9267,3.11232 4.0807,3.1969 9.0127,4.16599 14.0808,3.42431 3.769,-0.55157 6.9823,-2.03988 10.4842,-3.41095 8.1813,-3.56085 16.3508,-7.15579 24.2824,-11.24839 9.3847,-5.21634 12.9307,-8.43468 2.8553,-21.54725 -2.2526,-2.93163 -10.7685,1.17631 -12.5275,1.83227 -8.5329,5.12479 -17.0122,10.42043 -25.0483,16.30101 -4.176,3.48212 -8.7848,6.84143 -11.7882,11.47783 -0.5724,0.88376 -1.0233,1.84058 -1.535,2.76085 -3.0178,6.45271 -1.0679,10.70486 0.2073,16.86811 1.0004,4.51411 2.8408,8.73776 5.0264,12.78771 0.7101,0.97404 1.3454,2.00729 2.1304,2.92211 1.5489,1.80531 3.856,3.8312 5.654,5.41719 1.5041,1.3267 3.6893,3.24228 5.3274,4.39007 1.091,0.76443 2.2526,1.42288 3.3788,2.13431 5.9355,3.18202 11.6651,4.40722 18.331,4.43432 2.1038,-0.0707 4.173,-0.43945 6.24,-0.80058 3.4828,-0.60846 0.6776,-0.37489 1.2871,-0.12965 4.4663,0.35002 -0.4949,1.04767 -6.8277,-5.44798 -0.8821,-0.90474 -0.8246,-2.94725 -0.8281,-4.30985 -0.8362,1.87751 -1.8055,3.71274 -2.9435,5.42454 -2.904,2.66216 -5.82,5.30334 -8.6143,8.08569 -3.1364,3.44784 -6.7778,6.37247 -10.1836,9.53829 -0.6893,0.64071 -5.4427,5.23168 -6.3509,6.10782 -4.8342,4.55023 -9.4629,9.30188 -13.7926,14.33372 -0.5157,0.64329 -0.9931,1.31919 -1.5469,1.92985 -0.2177,0.23995 -0.5135,0.39592 -0.7568,0.60989 -1.3638,1.19959 -2.7799,2.33963 -4.1276,3.55738 -3.7182,3.35965 -5.2487,5.02547 -8.7681,8.6084 -5.4405,6.15312 -10.7161,12.44534 -16.138,18.61516 -2.8372,3.40209 -5.2062,7.1393 -7.6959,10.79034 -1.9872,3.06345 -4.4826,5.71429 -6.8787,8.45249 -2.7944,3.13168 -5.3752,6.44554 -8.088,9.6453 -1.6507,1.96916 -3.2854,3.95994 -4.9839,5.88883 -1.4188,1.5539 -2.5782,3.34375 -4.08,4.82521 -0.5042,0.49742 -1.0908,0.90424 -1.6197,1.37536 -2.9307,2.59588 -5.7824,5.26031 -8.4547,8.12199 -2.6963,3.00633 -5.8459,5.57157 -8.4159,8.70252 -0.7488,0.91228 -1.4251,1.88171 -2.1377,2.82257 -2.9784,4.26815 -5.2083,8.90439 -6.6112,13.90499 -0.6121,2.97601 -1.2588,5.93498 -1.5994,8.95644 -0.038,0.49556 -0.048,0.99393 -0.1127,1.48672 -0.01,0.04 -0.054,-0.13692 -0.069,-0.0995 -0.1016,0.25201 -0.1404,0.52496 -0.2085,0.78801 -0.3263,1.26105 -0.6125,2.52354 -0.8714,3.80008 -0.2949,1.78892 -0.166,0.90082 -0.3885,2.66412 -1.6927,14.0405 18.1635,16.4344 19.8562,2.394 v 0 c 0.082,-0.7578 0.033,-0.3713 0.1486,-1.1594 0.4925,-2.5773 1.4151,-5.08067 1.5292,-7.72264 0.2003,-2.02184 0.727,-3.97899 1.0476,-5.98218 0.5703,-2.61466 2.0038,-4.89743 3.3769,-7.16219 2.5591,-3.68271 6.1277,-6.438 9.0959,-9.76757 2.2383,-2.41543 4.663,-4.62314 7.1198,-6.8158 2.7493,-2.45059 5.268,-5.08151 7.496,-8.01994 1.7421,-2.02234 3.4661,-4.06308 5.1755,-6.11278 2.6186,-3.12012 5.1514,-6.31396 7.8495,-9.36754 2.9256,-3.34698 5.9039,-6.64546 8.3582,-10.3663 2.0221,-2.976 3.9463,-6.01768 6.1854,-8.84116 5.1816,-5.89674 10.2489,-11.88828 15.3954,-17.81524 2.2252,-2.27425 4.906,-5.09386 7.2955,-7.24979 3.0051,-2.71135 6.3986,-5.09257 8.7911,-8.42209 3.9175,-4.56501 8.1313,-8.851 12.5103,-12.97545 0.1092,-0.10534 5.7768,-5.5734 5.8297,-5.62264 3.6658,-3.40699 7.5703,-6.57045 10.9564,-10.27049 3.806,-3.82106 8.1492,-7.1243 11.3559,-11.50416 2.3421,-3.76351 4.5567,-7.6835 5.6329,-12.02084 0.3265,-2.18345 1.1704,-5.82679 -0.367,-7.72263 -4.8395,-5.96781 -6.3025,-6.47505 -11.4513,-6.65131 -2.613,0.0367 -5.164,0.4259 -7.7246,0.93025 -2.7084,0.0689 -5.3453,-0.36156 -7.8273,-1.51757 -3.5397,-1.97155 -6.2934,-4.968 -9.4163,-7.50819 -1.3619,-2.25679 -2.2883,-4.7489 -2.9541,-7.29147 -0.6293,-2.83559 -0.2852,-1.44314 -0.8945,-3.71633 -0.1044,-0.38939 -0.1718,-0.79045 -0.3113,-1.16867 -0.021,-0.0567 -0.1305,-0.14983 -0.1548,-0.0945 -0.2362,0.53917 -0.3182,1.1362 -0.5406,1.68124 -0.026,0.0635 -0.044,-0.12991 -0.066,-0.19484 0.1077,-0.77711 0.7134,-1.36715 1.2455,-1.90066 1.9243,-1.92945 4.0306,-3.6926 6.1607,-5.38543 6.9107,-5.14888 14.3641,-9.53977 21.5775,-14.24668 -0.05,-2.67742 0.2831,5.92312 -3.1429,-1.35139 -2.1464,-4.55755 -3.5826,-9.53497 -4.1016,-14.54589 -0.1235,-1.19237 4.1946,-3.18719 1.4716,-1.52717 -0.7037,0.42894 -1.4311,0.81751 -2.1466,1.22626 -7.3503,3.81691 -14.9527,7.107 -22.5285,10.44549 -1.123,0.46553 -2.2447,0.93416 -3.369,1.39655 -0.5591,0.22995 -1.1799,0.34255 -1.6811,0.68045 -0.2222,0.14976 1.6576,1.86375 1.7877,2.49733 -0.47,0.983 0.1853,-0.4489 0.256,2.84056 0.031,1.43415 -0.8413,2.98429 -1.9452,3.84779 -0.056,0.0439 -0.017,-0.14148 -0.025,-0.21223 1.5398,-1.57432 3.9885,-2.13513 5.9876,-2.77714 5.9898,-1.92368 12.0855,-3.50417 18.1591,-5.13348 4.203,-1.12945 9.7587,-2.68364 14.0606,-3.61206 7.5985,-1.63986 15.4329,-1.42423 23.1158,-2.46605 9.0962,-0.9325 18.3406,-1.49135 27.1972,-3.89009 3.0405,-0.99533 5.9187,-2.05192 8.7103,-3.64154 6.9535,-3.95946 -0.1882,0.0535 2.8188,-1.88301 0.3693,-0.23784 0.765,-0.43191 1.1475,-0.64789 4.4505,-2.53971 7.5791,-3.76486 6.7013,-12.42681 -0.6815,-6.72481 -6.7822,-7.6372 -11.3574,-7.93242 -0.7925,-0.0512 -3.1334,0.47132 -3.9331,0.6328 -2.2856,0.53734 -3.2965,0.72006 -5.5846,1.50373 -3.6575,1.25262 -7.0193,3.15561 -10.5908,4.61481 -3.4368,1.32892 -6.8588,2.70994 -10.3835,3.79566 -13.8266,4.25897 5.1402,-1.68365 -7.4381,1.86828 -0.2762,0.078 -0.4939,0.29252 -0.7408,0.43878 6.0961,4.28935 8.1222,3.68049 5.825,13.83578 -0.7773,3.43633 -6.2034,4.46183 -2.3319,2.87245 0.6322,-0.25953 1.2739,-0.49541 1.9108,-0.74314 4.0379,-1.66854 7.8347,-3.55809 11.4214,-6.07425 3.9353,-2.32156 7.8585,-4.70863 12.2279,-6.145 1.4996,-0.59386 3.1679,-1.44976 4.7612,-1.8564 2.285,-0.58316 4.6555,-0.77496 6.9403,-1.36305 4.4049,-0.95967 8.8266,-1.83779 13.2242,-2.83123 4.3075,-1.14593 8.6104,-2.44594 12.5835,-4.50254 3.4332,-1.86127 6.6509,-4.04776 10.0716,-5.9204 3.2242,-1.65888 6.279,-3.60683 8.977,-6.04784 3.2738,-3.34246 5.9464,-7.14664 8.4572,-11.08753 0.7195,-1.04814 1.3895,-2.13257 2.1651,-3.13983 1.5485,-2.01089 3.4244,-3.75775 5.0837,-5.67262 0.6648,-0.67379 3.2121,-3.24683 3.6569,-3.7402 2.5084,-2.78212 4.4914,-5.93339 6.5636,-9.0392 3.7834,-5.47235 7.4369,-11.03662 11.1526,-16.55466 1.609,-2.64676 2.3358,-3.9239 4.0895,-6.48131 2.9093,-4.24246 6.23,-8.18118 9.2739,-12.32459 3.4756,-4.80422 6.7868,-9.72536 10.3034,-14.50035 3.2827,-4.60748 6.7826,-9.06032 9.8981,-13.7863 4.6792,-6.74071 9.3171,-13.50021 13.406,-20.62382 0.7658,-1.17592 1.5392,-2.34688 2.2974,-3.52775 0.444,-0.69159 0.8051,-1.44007 1.309,-2.08936 2.718,-3.50255 6.3643,-6.18551 9.1688,-9.60951 3.9908,-4.68653 8.0752,-9.28594 11.9987,-14.03024 4.0898,-5.07 8.1467,-10.1672 12.1906,-15.27307 3.1751,-4.62902 6.1421,-9.42163 8.5868,-14.48152 1.5199,-3.40157 3.4605,-7.10825 3.5688,-10.91962 0.1336,-4.70255 -1.8372,-8.37189 -5.0018,-11.5955 -1.3515,-1.24568 -2.5584,-2.59712 -3.8545,-3.89477 -0.1446,-0.14478 -0.3582,-0.21857 -0.4793,-0.38357 -0.5729,-0.78118 -1.528,-2.90073 -1.8377,-3.54115 -0.5636,-0.99661 -1.0903,-2.01499 -1.6907,-2.98982 -0.3151,-0.51147 -0.7014,-0.97544 -1.052,-1.46315 -0.1704,-0.20862 -0.3686,-0.39732 -0.5112,-0.6259 -1.5933,-2.55479 -2.7684,-5.37617 -4.8829,-7.59248 -1.0004,-0.97094 -1.9022,-2.05512 -3.0012,-2.91285 -2.2314,-1.74136 -4.7931,-2.88327 -7.4543,-3.76208 -0.2099,-0.0693 -0.4454,-0.0479 -0.6498,-0.13192 -0.3479,-0.14299 -0.6598,-0.36127 -0.9897,-0.5419 -2.5178,-1.91664 -0.01,0.0488 -2.4559,-2.04253 -1.4283,-1.22102 -1.7105,-1.5535 -1.6452,-3.64582 0,-14.14214 -20,-14.14214 -20,0 z" /><path
         style="fill:#1f182d;fill-opacity:1;stroke-width:20;paint-order:markers stroke fill"
         id="path3147"
         d="m 2278.6232,302.14374 c 5.5941,-4.5679 11.3896,-8.88363 16.822,-13.64321 5.2428,-5.56136 10.5008,-11.03424 16.0554,-16.28175 6.0757,-5.31458 12.3075,-10.46871 18.2256,-15.95919 4.4862,-4.43767 9.1897,-8.57072 14.1666,-12.44656 4.8194,-3.59726 9.5789,-7.17145 14.914,-9.95035 4.9501,-2.3787 10.0519,-4.48121 15.2402,-6.29127 6.9123,-2.62073 13.9529,-4.83221 21.0538,-6.87757 6.5932,-2.32513 13.1531,-4.71106 19.7858,-6.93861 8.7925,-2.6194 17.3072,-5.98702 25.8715,-9.24739 6.6956,-2.37385 13.1225,-5.39696 19.6805,-8.10031 5.8976,-3.34074 12.0549,-6.16337 18.2792,-8.83776 8.9212,-3.61596 18.1385,-6.27639 27.6377,-7.77249 5.5606,-0.81982 11.1731,-1.1234 16.7872,-1.19277 5.5675,0.2699 11.0295,-0.40898 16.4309,-1.70477 7.0877,-1.26894 14.3365,-1.24816 21.5136,-1.40927 7.8395,-0.40515 15.6511,-1.17395 23.4945,-1.50942 6.0829,-0.29073 12.1758,-0.10042 18.2512,-0.5046 8.1884,-0.88511 16.4278,-0.92928 24.6385,-1.4573 7.1041,-0.32732 14.093,-1.63678 21.1355,-2.51395 7.1604,-0.83721 14.3936,-0.70083 21.5908,-0.748 5.4491,-0.0905 10.9752,-0.0547 16.3071,1.22916 1.6719,0.40255 6.3693,1.93273 7.7428,2.36882 8.2023,2.63483 16.5057,4.95519 24.816,7.22793 5.7272,1.62121 11.6012,2.34638 17.5358,2.16987 4.432,-0.44118 11.4522,-1.53908 14.6497,-4.99669 1.2682,-1.37135 2.1709,-3.04023 3.2562,-4.56034 -6.4164,-13.15857 -1.9761,-13.99355 -12.3155,-13.89128 -0.8319,0.008 -1.638,0.29154 -2.4548,0.44956 -0.6271,0.12133 -1.2817,0.62166 -1.8764,0.38845 -0.5427,-0.21285 1.425,0.058 1.6867,-0.46289 0.195,-0.38856 -0.8091,-0.31933 -1.2134,-0.479 -0.3188,-0.18842 -0.8213,-0.2205 -0.9562,-0.56526 -0.1043,-0.26693 0.5942,0.0685 0.8271,0.23553 0.527,0.3778 1.0168,0.82948 1.3943,1.35671 1.7204,2.40213 1.011,4.66124 0.171,7.20013 -2.6239,3.90982 -8.1712,4.72192 -11.4734,0.96819 -0.7679,-0.87302 -1.1097,-2.04362 -1.6645,-3.06543 -0.353,-2.73082 -0.1831,-6.67691 2.4934,-8.11697 -3.7655,-0.27545 -7.5377,-0.46281 -11.3099,-0.62127 1.5656,0.74931 -2.0635,-0.54018 -1.5645,-0.34901 0.8827,0.33821 1.9791,0.33075 2.6578,0.9886 3.0276,2.93399 5.0284,5.52069 4.0214,9.7197 -0.3416,1.42518 -1.3679,2.59234 -2.0521,3.88851 -1.8492,1.70937 -1.2184,1.38951 -5.1705,2.18373 -0.5204,0.10464 -1.1348,-0.39291 -1.5888,-0.1174 -0.3035,0.18424 0.6122,0.36163 0.9324,0.51588 2.7228,1.31294 1.7616,0.416 2.8556,1.57826 3.8587,6.13404 8.3651,11.8877 13.493,17.01199 7.0538,5.79323 13.0294,7.78359 21.9686,5.08738 -4.0688,0.46901 -4.3164,1.17976 -8.083,-1.39519 -0.8046,-0.54992 -1.2015,-1.53785 -1.868,-2.24872 -0.063,-0.0673 -0.2664,-0.1281 -0.2744,-0.0362 -0.1188,1.39309 0.1532,2.79223 0.2069,4.18935 0.1122,4.64617 0.046,9.2942 0.019,13.94101 -0.033,5.68878 -0.039,11.37766 -0.044,17.06652 0,5.63969 0,11.27939 0,16.91909 -0.2259,6.61446 0.29,13.1963 0.7763,19.78582 0.4559,5.79278 0.7067,11.59769 0.8252,17.4063 0.074,4.53525 0.065,9.07124 0.063,13.60691 -0.1866,2.9164 0.6061,6.54764 -1.1425,9.17218 -1.5983,3.18902 -3.5605,6.15394 -5.5801,9.08799 -1.8878,3.23487 -4.8381,5.5904 -7.0908,8.52701 -2.9035,3.78487 -3.4406,5.02074 -5.7576,9.0609 -4.2828,8.03592 -8.4304,16.1562 -12.5285,24.29166 -3.3833,6.72888 -7.0737,13.29439 -10.5291,19.98475 -2.6265,5.45568 -5.4822,10.73877 -8.5482,15.95172 -3.906,6.40829 -7.1969,13.15067 -10.4894,19.88561 -2.0804,3.80138 -4.7485,7.30263 -7.3411,10.79836 -2.7609,3.80714 -4.9991,7.97557 -8.1119,11.51319 -2.3791,2.31298 -5.1104,4.17684 -7.7398,6.19667 -3.7939,2.73087 -7.8254,5.06431 -11.8433,7.43281 -2.8049,1.70762 -6.0965,2.22639 -9.2019,3.18312 -4.3908,1.56273 -8.3648,4.06956 -12.2275,6.63646 -8.2336,6.68589 -6.112,10.86305 1.6673,19.33488 0.9999,1.08895 2.9279,0.41794 4.3819,0.68564 0.2642,0.0486 0.4207,0.33433 0.6357,0.49557 3.5181,2.46052 0.081,1.54903 -0.4007,-2.4697 -0.1475,-1.2301 0.2646,-2.46362 0.397,-3.69544 4.0059,-6.76614 1.5857,-2.04047 0.9092,-2.00639 -0.1916,0.01 0.5627,-0.48053 0.3762,-0.43579 -1.2122,0.29067 -3.1196,1.47814 -4.1936,1.98588 -3.7815,1.3675 -7.5198,2.8801 -11.3221,4.21405 -5.1207,1.56458 -10.0461,3.68501 -15.2692,4.90368 -5.8961,1.03899 -11.9257,0.99705 -17.8946,1.07487 -8.4704,0.0492 -16.9191,-0.25564 -25.3413,0.75861 -6.4568,0.8078 -12.7131,2.31468 -18.7976,4.60272 -13.2057,5.0606 -6.049,23.73627 7.1567,18.67569 v 0 c 4.5703,-1.80549 9.2997,-2.78349 14.1673,-3.4386 7.6479,-1.05529 15.3835,-0.36955 23.08,-0.60018 7.4613,-0.10047 14.9979,-0.10713 22.3345,-1.63441 5.8623,-1.45196 11.4739,-3.60664 17.2078,-5.47804 4.4547,-1.5739 8.8509,-3.31706 13.2557,-5.01097 5.0101,-2.3916 9.7488,-4.42646 12.636,-9.55329 0.4188,-1.8828 1.2758,-3.71967 1.2567,-5.6484 -0.074,-7.3978 -6.5066,-12.01634 -12.4015,-14.92007 -1.6906,-0.57454 -5.0749,-1.97326 -7.08,-1.80713 -0.6925,0.0574 1.6189,0.0172 1.996,0.60063 7.354,11.38037 7.3826,8.38854 2.3972,15.96665 2.224,-1.52344 4.5393,-2.94894 6.9618,-4.12353 4.6039,-1.41853 9.3976,-2.39805 13.4973,-5.0837 4.7017,-2.79487 9.4364,-5.53326 13.8473,-8.78874 3.7015,-2.84682 7.5305,-5.534 10.7031,-8.9987 3.3737,-3.96401 6.1397,-8.33016 9.0245,-12.65393 3.3141,-4.46863 6.6518,-9.01425 9.2477,-13.93463 3.0665,-6.2838 6.1253,-12.57641 9.7734,-18.55075 3.2285,-5.53263 6.2749,-11.12118 9.0652,-16.89047 3.4837,-6.75273 7.2167,-13.3735 10.6225,-20.16779 3.947,-7.85048 7.9552,-15.67997 12.0726,-23.43811 0.8779,-1.58454 2.2564,-4.22405 3.3875,-5.72112 2.7001,-3.57441 6.2418,-6.49684 8.5434,-10.39674 2.749,-4.01733 5.3948,-8.10387 7.4694,-12.52027 2.1696,-5.48646 3.1639,-11.12766 2.7615,-17.0465 0,-4.67577 0.011,-9.35191 -0.068,-14.02723 -0.1283,-6.16212 -0.3923,-12.32045 -0.8752,-18.4659 -0.4503,-6.10152 -0.9578,-12.18855 -0.7223,-18.31433 0,-5.63349 0,-11.26698 0,-16.90047 0.01,-5.65614 0.011,-11.31232 0.044,-16.96839 0.029,-4.95977 0.1,-9.92103 -0.036,-14.87989 -0.3265,-7.55415 -0.9496,-16.32761 -9.8422,-18.81106 -1.9402,-0.5418 -4.0286,0.0139 -6.0428,0.0209 -0.2868,0.0942 -0.8885,-0.0179 -0.8602,0.2825 0.044,0.46482 1.1507,0.0311 1.3211,0.46581 0.164,0.41865 -0.9163,-0.0903 -1.3161,-0.29597 -0.4082,-0.20997 -0.7876,-0.47182 -1.1813,-0.70773 -6.1587,-5.86596 -9.8576,-13.74717 -16.3306,-19.32795 -7.0419,-4.38046 -14.0261,-8.16357 -21.8824,-2.16272 -1.1711,1.75288 -2.8194,3.268 -3.5131,5.25864 -0.6268,1.79824 -0.8861,3.8902 -0.3083,5.70472 2.1916,6.87991 7.3234,8.84214 13.6017,9.36113 4.8152,0.20101 9.6295,0.66501 14.4497,0.50577 1.3851,-0.26839 2.7993,-0.41573 4.1556,-0.80516 4.2423,-1.21826 9.0037,-4.99219 10.1525,-9.41617 0.4901,-1.88691 0.2847,-3.88862 0.4268,-5.83293 -0.689,-1.6311 -1.0345,-3.45503 -2.0674,-4.89329 -4.0323,-5.61496 -12.0129,-6.91703 -17.6549,-3.02378 -1.23,0.84876 -2.155,2.07091 -3.2327,3.10636 -0.7162,1.5246 -1.7346,2.94099 -2.1486,4.5738 -2.0678,8.1576 3.9872,14.69145 11.0439,17.4162 4.6948,1.43356 3.8442,1.47357 9.8155,1.52084 0.5797,0.005 1.1367,-0.22918 1.7032,-0.35335 0.2614,-0.0573 1.0321,-0.10148 0.78,-0.19107 -8.2699,-2.93709 -0.4435,6.15375 -8.3551,-13.68197 1.1327,-1.39245 1.8759,-3.29505 3.6759,-3.84842 0.4059,-0.12479 -0.707,0.49385 -1.112,0.62144 -1.1113,0.3501 -1.8537,0.3723 -3.0237,0.50552 -3.7608,0.45665 -7.615,-0.71117 -11.2527,-1.489 -8.0574,-2.19726 -16.1055,-4.45042 -24.057,-7.00434 -3.3406,-1.05185 -6.763,-2.20488 -10.1851,-2.97492 -6.5633,-1.4769 -13.3271,-1.67309 -20.0245,-1.55281 -7.9828,0.0528 -16.0023,-0.0648 -23.9408,0.9021 -6.6522,0.83467 -13.2518,2.07575 -19.9609,2.40216 -8.2583,0.552 -16.5507,0.5578 -24.787,1.46758 -5.8659,0.48916 -11.783,0.0676 -17.6588,0.47021 -7.7061,0.33577 -15.3837,1.04403 -23.0828,1.49589 -8.6087,0.19527 -17.3065,0.21855 -25.774,1.96706 -3.9468,0.97033 -7.8977,1.39739 -11.9785,1.14356 -6.5842,0.0889 -13.166,0.46298 -19.6848,1.44181 -11.1314,1.80102 -21.962,4.8648 -32.4047,9.15843 -6.1155,2.64863 -12.2959,5.28964 -18.0186,8.72749 -6.3676,2.65428 -12.6287,5.55925 -19.1343,7.88308 -8.3163,3.16738 -16.5777,6.45048 -25.1219,8.97893 -6.3585,2.13554 -12.6618,4.39499 -18.9608,6.68122 -7.4639,2.15529 -14.8694,4.47756 -22.1393,7.22443 -6.0841,2.14867 -12.0818,4.59924 -17.8768,7.43635 -6.401,3.35539 -12.1984,7.54563 -17.9529,11.90732 -5.4302,4.24446 -10.5922,8.75384 -15.5047,13.58871 -5.9155,5.55548 -12.2636,10.65136 -18.3224,16.05012 -5.3859,5.09358 -10.5806,10.3214 -15.5531,15.82291 -5.3669,4.78597 -11.2532,8.95572 -16.756,13.58521 -10.6431,9.31267 2.527,24.36421 13.17,15.05154 z" /><path
         style="fill:#000000;stroke-width:20;paint-order:markers stroke fill"
         id="path1505"
         d="m 1665.3129,1385.7345 c -3.3028,4.072 -6.5537,8.1916 -9.6941,12.3904 -3.3737,5.3918 -7.0688,10.5624 -10.7331,15.7577 -3.9823,5.8456 -8.0332,11.6294 -12.3472,17.2358 -5.6786,7.0887 -11.0255,14.4385 -16.4034,21.7563 -4.864,6.1756 -9.844,12.3201 -15.511,17.7837 -5.4114,5.043 -10.3783,10.5315 -15.1614,16.1657 -5.9784,6.9516 -10.9444,14.6722 -16.2375,22.1368 -6.272,8.3965 -12.4474,16.8625 -18.5848,25.3581 -5.8887,8.3068 -11.8259,16.6013 -17.24,25.2265 -6.1082,10.4648 -12.1346,20.9792 -17.7381,31.7246 -5.4305,11.1099 -10.4462,22.4031 -15.2464,33.797 -4.9816,13.5686 -9.4856,27.3188 -13.741,41.1337 -3.0584,9.8982 -5.7955,19.897 -8.9198,29.775 -1.7928,5.6683 -3.7738,11.3992 -5.6859,17.0269 -4.6992,13.7012 -9.0703,27.5106 -13.0031,41.4505 -2.4723,9.1399 -4.755,18.3316 -6.1595,27.7004 -0.9872,8.4319 -1.2907,16.919 -2.0199,25.3727 -0.5982,9.5975 -1.5993,19.1602 -2.5921,28.7232 -0.7361,6.8893 -1.1415,13.8091 -1.3673,20.7324 -0.347,5.8692 1.0639,10.6248 3.7357,15.7719 2.1207,3.6728 4.8829,6.8837 8.1053,9.6188 3.2138,2.5535 7.0879,3.3987 11.0804,3.6712 0.9328,0.119 1.876,-0.017 2.8099,0.057 0.074,0.01 -0.2753,0.044 -0.2088,0.077 0.601,0.2958 2.3648,0.6242 2.9835,0.7914 2.9062,0.6028 5.8979,1.4038 8.893,1.3959 1.0189,0 2.0354,-0.098 3.0531,-0.1466 4.4757,-0.5463 8.2894,-2.7116 11.6999,-5.5305 3.4388,-3.0656 6.3296,-6.6625 8.973,-10.4177 1.5587,-2.6882 3.7166,-4.9906 5.298,-7.6603 0.5494,-0.9275 1.0228,-1.8979 1.5342,-2.8469 2.3472,-4.4315 3.7897,-9.2227 5.0844,-14.0416 1.2673,-5.0341 2.7084,-10.0187 4.0789,-15.0248 1.6371,-6.4427 2.1866,-13.0877 2.6162,-19.7001 0.3149,-7.2719 0.5813,-14.5472 1.1242,-21.8067 0.5126,-6.0674 0.9782,-12.1413 2.0163,-18.1445 1.1368,-6.4965 2.8417,-12.861 4.7234,-19.1742 0.3675,-1.2266 0.7162,-2.459 1.1027,-3.6798 1.7677,-5.5834 0.8914,-2.3039 2.6828,-8.3002 1.5482,-5.1825 2.8428,-10.435 4.3249,-15.6366 2.574,-8.8647 5.2818,-17.6884 8.4379,-26.364 2.6171,-7.2283 5.5055,-14.3516 8.5085,-21.4279 3.8982,-8.5816 8.4745,-16.826 12.6018,-25.299 2.7104,-5.2099 5.4442,-10.4423 8.5806,-15.4143 1.4045,-2.2265 4.3625,-6.4568 5.8398,-8.5944 7.4392,-10.3473 15.2558,-20.4069 22.6723,-30.772 7.2267,-10.403 14.7234,-20.5955 22.5523,-30.5522 6.2175,-7.907 12.5048,-15.7588 18.7677,-23.6298 4.5331,-5.5264 8.6009,-11.3735 12.1527,-17.5719 3.1352,-6.0332 6.6234,-11.8681 9.8941,-17.8256 2.4488,-4.5751 5.0075,-9.0843 7.8781,-13.4077 3.1623,-4.2898 5.9446,-8.8308 8.6112,-13.4402 2.7945,-4.1382 5.4782,-8.3341 8.0637,-12.6076 2.4282,-4.5027 5.0318,-8.8743 7.8709,-13.128 2.3729,-4.0877 5.0568,-7.9823 7.2395,-12.1764 1.0639,-2.1577 0.5505,-1.1474 1.5321,-3.0351 6.5067,-12.5564 -11.2507,-21.7583 -17.7574,-9.2019 v 0 c -1.1289,2.1844 -0.5924,1.1191 -1.6136,3.1941 -1.6868,3.5465 -4.23,6.6356 -6.0391,10.1216 -2.9991,4.4993 -5.7879,9.1088 -8.3453,13.8743 -0.9282,1.5347 -1.7904,3.1097 -2.7547,4.622 -1.7884,2.8044 -3.841,5.4408 -5.5088,8.3235 -2.4644,4.2618 -5.0338,8.4514 -7.9714,12.4077 -3.17,4.7939 -6.0375,9.768 -8.7425,14.839 -3.214,5.8717 -6.6662,11.6101 -9.7444,17.5574 -2.9939,5.3268 -6.5616,10.2631 -10.4156,15.0024 -6.2871,7.9021 -12.5995,15.7843 -18.841,23.7226 -8.0119,10.1957 -15.696,20.6251 -23.0946,31.2751 -7.4789,10.4563 -15.3816,20.5901 -22.8631,31.0434 -2.1484,3.1127 -4.5834,6.5738 -6.5909,9.7674 -3.4184,5.4379 -6.4037,11.1541 -9.3547,16.8521 -4.2747,8.7857 -9.0496,17.3191 -13.0321,26.2442 -3.1371,7.4005 -6.155,14.8504 -8.894,22.4078 -3.3113,9.1254 -6.1788,18.3973 -8.877,27.7216 -1.4269,5.0244 -2.6747,10.1 -4.1658,15.1055 -1.407,4.7231 -1.2322,3.7241 -2.7632,8.562 -0.3898,1.2318 -0.7417,2.4752 -1.1126,3.7128 -2.1077,7.0837 -4.0013,14.2303 -5.2704,21.519 -1.1191,6.6324 -1.7108,13.3278 -2.2465,20.0305 -0.5379,7.3258 -0.8387,14.6653 -1.1378,22.004 -0.3324,5.2631 -0.7228,10.5588 -1.9485,15.703 -1.3776,5.0404 -2.8287,10.059 -4.1063,15.1265 -0.9194,3.4435 -1.8618,6.8935 -3.5463,10.0601 -1.3332,3.0081 -3.8354,5.3548 -5.4492,8.2134 -1.6447,2.3846 -3.4508,4.6634 -5.5609,6.6573 -0.148,0.1474 -0.2124,0.3831 -0.393,0.4884 -0.2029,0.1183 -0.5324,0.092 -0.6366,0.302 -0.075,0.1509 0.3383,-0.064 0.504,-0.034 0.075,0.014 -0.14,0.059 -0.21,0.088 0.1849,0.036 0.7427,0.097 0.5547,0.1072 -1.7569,0.094 -3.5536,-0.4739 -5.2629,-0.7666 -3.135,-0.8469 -6.3015,-1.7144 -9.584,-1.5808 -1.6828,-0.068 -0.2139,0.051 0.3023,0.7598 -1.0115,-0.3521 -2.3291,-2.6741 -3.0617,-3.5051 -0.243,-0.4253 -0.5734,-0.8035 -0.7674,-1.2533 -0.612,-1.419 -0.7531,-2.9265 -0.6224,-4.4533 0.2071,-6.4497 0.585,-12.8964 1.2709,-19.3143 1.005,-9.6808 2.017,-19.362 2.6257,-29.0774 0.6882,-8.0502 1.0148,-16.1267 1.8787,-24.1624 1.235,-8.5288 3.4208,-16.8698 5.6229,-25.1923 3.836,-13.6031 8.106,-27.077 12.6913,-40.4467 2.0515,-6.0403 3.9604,-11.5554 5.8833,-17.6401 3.115,-9.857 5.8493,-19.8326 8.8997,-29.7093 4.0567,-13.1797 8.3644,-26.2906 13.0581,-39.2552 4.5877,-10.892 9.3778,-21.6882 14.5504,-32.3172 5.3604,-10.2899 11.1411,-20.3493 16.9694,-30.3795 5.1259,-8.2715 10.8996,-16.1389 16.4854,-24.1037 6.1724,-8.5443 12.387,-17.0557 18.6893,-25.5043 4.9565,-6.9953 9.5978,-14.2376 15.1757,-20.7685 4.3653,-5.1561 8.9093,-10.1703 13.862,-14.7734 6.4035,-6.285 12.1979,-13.1656 17.6734,-20.2688 5.2891,-7.2018 10.5514,-14.4324 16.14,-21.4059 4.4783,-5.8273 8.704,-11.8256 12.8374,-17.9013 3.5603,-5.0498 7.1972,-10.0504 10.4207,-15.327 2.913,-3.9195 5.9626,-7.7411 9.0262,-11.5435 9.0536,-10.8643 -6.3109,-23.668 -15.3644,-12.8037 z" /><path
         style="fill:#1f182d;stroke-width:668.132;paint-order:markers stroke fill;fill-opacity:1"
         d="m 10188.173,597.5363 c -253.9995,5.3601 -509.2286,6.95117 -761.6593,37.34063 -231.9312,55.58304 -444.8191,171.61412 -645.9272,296.84057 -176.5512,122.4517 -352.4048,249.3601 -506.3227,399.791 -124.5591,152.546 -248.9802,305.8354 -366.4932,464.0352 -49.9043,70.5584 -111.4652,142.4513 -108.3794,234.4017 -2.5498,148.9333 -27.488,306.9919 -123.6746,425.8524 -26.2929,35.0102 -101.0214,30.514 -96.0532,-23.8926 -14.1725,-79.4234 -14.5921,-166.3764 -43.9698,-239.8914 5.4222,111.9842 -85.7605,195.5595 -143.406,281.8451 -151.232,201.6632 -296.8754,407.6534 -441.9768,613.6911 -115.1286,196.8637 -246.9368,383.6436 -359.6918,581.9018 -89.7107,181.7545 -196.881,354.0537 -294.0886,531.5152 -67.6687,141.886 -15.0335,302.3039 3.0052,449.2677 31.6039,185.6217 77.4524,369.6 83.9848,558.3767 -0.044,86.1275 50.3939,-32.7033 75.1474,-52.5842 250.4888,-348.5339 461.8107,-723.4063 702.402,-1078.6781 154.3036,-229.2987 319.1495,-451.3987 461.5175,-688.6405 150.9074,-228.9311 319.4404,-446.0012 464.8824,-678.8068 103.7325,-170.6002 220.7602,-332.5905 345.0721,-488.4368 76.583,-132.6965 176.1096,-252.5494 266.4771,-376.5999 134.3576,-164.5094 294.2687,-307.6887 461.5875,-437.8158 148.9732,-111.4398 318.9467,-190.5035 480.0592,-281.4962 45.4708,-28.2213 106.3062,38.034 69.5194,77.8577 -110.4327,98.7612 -256.5037,145.621 -378.2833,228.5463 -185.1092,115.6561 -343.036,269.8054 -494.379,425.6311 -114.546,146.8766 -226.8031,297.0315 -325.7248,454.285 -158.0854,185.4165 -281.3269,395.7623 -415.0783,598.3998 -154.4904,235.602 -331.1744,455.8766 -475.2334,698.4624 -141.6077,228.969 -311.5613,438.7227 -452.5035,668.3122 -193.3496,292.582 -368.5358,597.337 -569.528,884.6481 -55.6223,66.9068 -101.1072,152.623 -173.6391,199.351 114.8706,-3.6071 218.6658,-65.859 324.1993,-105.2204 181.0955,-80.403 380.3804,-105.6404 577.1375,-97.3593 44.5116,-5.2488 68.2643,-60.4328 103.1434,-87.7004 107.0877,-118.1316 187.4288,-256.9345 291.0765,-377.9022 128.1016,-162.0309 243.1738,-333.7169 369.3558,-496.994 36.1963,-46.1227 84.4248,-85.5538 116.4408,-132.8031 -104.1304,-0.1807 -207.9417,21.4953 -311.5345,19.4903 -25.5289,-10.0443 -59.8828,-50.2479 -26.0849,-71.5393 152.8198,-112.1583 338.8244,-167.3592 518.8499,-218.951 85.4326,-171.4197 240.4723,-291.8948 338.707,-454.7167 50.3522,-75.3944 120.1398,-136.9949 182.5944,-199.5988 -68.5396,-9.9441 -150.6127,-23.4469 -195.1794,-81.6039 -19.0673,-53.4207 49.3404,-78.8902 88.0223,-90.7484 98.3339,-41.0173 206.2974,-54.1055 303.8212,-95.9029 165.5512,-143.5248 285.3745,-330.5289 429.1669,-494.4223 78.8274,-105.7094 173.5057,-203.9281 226.9612,-325.7593 -48.1487,-46.2597 -129.9839,-75.1876 -148.7065,-145.1503 5.9525,-59.2048 83.9197,-49.4109 125.6426,-58.4883 89.9556,-22.2732 188.0567,-35.6305 265.9079,-88.7681 147.946,-147.0794 264.582,-323.7417 366.673,-504.8494 30.664,-50.857 51.359,-104.5682 41.108,-164.8822 -5.279,-131.96246 11.038,-266.26979 -11.38,-396.8499 -16.65,-34.66989 -23.869,-100.57655 -77.065,-90.65162 -45.446,-2.51886 -91.001,-2.20035 -136.5,-2.13888 z"
         id="path439"
         transform="scale(0.26458333)" /><path
         style="fill:#1f182d;fill-opacity:1;stroke-width:334.066;paint-order:markers stroke fill"
         d="m 6327.544,5325.1994 c -28.6905,22.8773 -42.6641,60.4975 -66.6573,88.2115 -64.9229,91.4312 -137.4106,176.9974 -211.9648,260.5925 -72.7206,91.2089 -140.6037,186.5782 -203.0599,285.0803 -71.2998,120.4934 -122.9056,251.3065 -161.696,385.5791 -34.5691,119.2597 -80.2304,235.4713 -107.73,356.6724 -17.4566,104.3704 -24.0645,210.4071 -30.8613,315.8796 -3.43,22.0392 15.1768,37.6283 35.8131,38.5017 18.4316,7.5099 40.2296,5.5815 49.7095,-14.3416 68.7894,-89.3846 58.919,-208.7598 71.5803,-314.6197 11.6497,-98.7578 47.0721,-192.631 74.9287,-287.6176 47.7633,-145.3427 119.2443,-282.5378 213.764,-403.0021 66.5945,-96.764 143.4275,-185.8627 211.3296,-281.565 51.0436,-83.5986 99.5289,-168.7726 152.8326,-251.042 13.9992,-23.7899 29.7629,-47.2693 42.3855,-71.4258 -29.5706,-30.0163 -57.3199,-66.2728 -68.57,-106.653 -0.5618,-0.2578 -1.1943,-0.326 -1.804,-0.2503 z"
         id="path1790"
         transform="scale(0.26458333)" /><path
         style="fill:#392c52;stroke-width:20;paint-order:markers stroke fill;fill-opacity:1;stroke:#000000;stroke-dasharray:none"
         id="path307"
         d="m 1712.733,1409.4748 c 12.1378,-15.2621 23.2197,-31.3403 35.2542,-46.6984 18.9735,-26.6165 36.3893,-54.3557 53.5327,-82.1817 17.8132,-28.4535 35.9104,-56.7295 53.9479,-85.0421 14.6977,-23.1683 28.6986,-46.7847 43.8523,-69.6601 11.548,-17.0582 22.8391,-34.2737 34.7279,-51.099 11.6536,-17.6796 23.9886,-34.8992 36.2674,-52.147 7.9026,-11.4843 16.8216,-22.2583 24.5894,-33.83663 2.9134,-4.34253 9.3106,-14.8078 12.1569,-19.4242 8.8925,-14.10454 17.5633,-28.34817 26.3382,-42.52658 7.2005,-12.15242 14.8095,-24.07103 22.6733,-35.80387 12.7289,-19.14221 27.1333,-37.08128 41.1927,-55.2455 9.8083,-12.38099 16.7621,-26.67024 25.8463,-39.52521 7.7847,-9.86411 14.9636,-20.18276 21.8591,-30.68465 8.4728,-13.15093 17.0875,-26.20894 25.6241,-39.31917 8.5136,-13.85324 16.5622,-27.96704 25.3019,-41.68148 10.5845,-16.32096 23.4654,-30.9277 34.8946,-46.64136 4.9531,-8.37311 12.1882,-14.89631 18.0863,-22.4958 3.9298,-5.00949 7.706,-10.01665 10.4865,-15.76136 1.1935,-5.17486 3.7867,-8.94752 7.2037,-12.83169 9.4143,-12.40533 18.3256,-25.17804 27.5869,-37.69791 7.1668,-9.81911 14.0947,-19.81433 21.3766,-29.54882 6.9058,-9.25095 13.5499,-18.74608 20.9454,-27.61462 8.2209,-10.08361 18.1356,-18.42693 28.0402,-26.75993 9.1305,-7.80751 17.4826,-16.41546 25.7943,-25.06898 7.5016,-7.84373 15.3955,-15.29477 23.3932,-22.62849 7.9871,-7.37457 17.2319,-13.26298 26.1476,-19.44216 9.1951,-6.21827 17.4299,-13.78519 26.6782,-19.91106 10.0078,-5.4378 19.86,-11.15362 29.8051,-16.70241 6.7545,-3.10065 13.4038,-6.28234 19.8807,-9.93796 6.7951,-2.89121 13.1695,-6.63382 19.6023,-10.24535 8.1265,-4.47123 16.0038,-9.29566 23.6164,-14.59281 2.5655,-1.63094 1.3656,-0.96848 3.5551,-2.06578 18.6896,-10.03494 4.498,-36.46596 -14.1915,-26.43103 v 0 c -4.5233,2.49624 -2.3523,1.19385 -6.5238,3.88929 -6.8065,4.75912 -13.8676,9.04367 -21.1485,13.04433 -6.4626,3.63228 -12.8572,7.32769 -19.6634,10.27978 -6.4313,3.63469 -13.1041,6.64273 -19.753,9.86623 -10.6703,5.96228 -21.2999,12.00179 -31.9408,18.0149 -9.2843,6.32462 -17.8302,13.65562 -27.0088,20.13696 -10.0329,6.95693 -20.3791,13.63983 -29.3319,21.98653 -8.4642,7.7625 -16.8087,15.66042 -24.7532,23.95754 -7.5771,7.88895 -15.1564,15.76772 -23.4725,22.89506 -11.2875,9.49799 -22.488,19.11985 -31.8517,30.60552 -7.6374,9.30743 -14.7033,19.08373 -21.8524,28.76857 -7.3006,9.78228 -14.2839,19.79745 -21.4648,29.66738 -8.818,11.92829 -17.3685,24.05147 -26.2028,35.96423 -4.9042,5.77398 -10.2498,12.40092 -11.8023,20.04301 -0.6665,3.34232 -5.7077,7.14986 -7.283,10.29862 -1.6403,2.75227 -4.5384,5.00729 -6.6137,7.38198 -4.2153,4.82332 -7.8924,10.10152 -11.6116,15.30363 -11.768,16.21975 -25.1329,31.23332 -35.9262,48.15668 -8.6805,13.63358 -16.727,27.6316 -25.1393,41.42906 -8.5216,13.08733 -17.1191,26.12385 -25.5792,39.25031 -6.7072,10.26654 -13.7784,20.28102 -21.3483,29.93003 -8.7041,12.54141 -15.7258,26.18087 -24.9861,38.35657 -14.4792,18.70895 -29.3004,37.19515 -42.3982,56.91899 -8.0494,12.0383 -15.8741,24.24261 -23.2533,36.70461 -8.784,14.19355 -17.4632,28.45258 -26.366,42.57149 -1.654,2.68369 -9.2346,15.04344 -11.0592,17.76883 -7.7564,11.58574 -16.7029,22.34187 -24.5897,33.83708 -12.2981,17.2779 -24.6608,34.5224 -36.3296,52.2347 -12.0607,17.0753 -23.5288,34.5375 -35.2418,51.8504 -15.2336,23.0324 -29.3692,46.7686 -44.1376,70.0993 -18.1191,28.4407 -36.2978,56.8447 -54.1896,85.4281 -16.5508,26.8769 -33.3876,53.6507 -51.6131,79.424 -11.2734,14.4172 -21.9521,29.2765 -32.8437,43.9762 -15,15 6.2132,36.2132 21.2132,21.2132 z" /><path
         style="fill:#000000;stroke-width:20;paint-order:markers stroke fill"
         id="path1489"
         d="m 1987.8452,574.99898 c 1.7615,-0.28874 6.3907,-2.66753 5.352,1.04449 4.3297,9.08931 6.2301,19.08929 8.0097,28.92761 1.6235,9.81787 1.9317,19.76813 3.0625,29.6423 0.6548,4.99216 1.1043,18.03022 6.7836,20.14233 3.8559,1.43402 8.1992,0.68567 12.2989,1.02849 10.6513,-6.05483 15.9399,-17.25686 21.4114,-27.6993 5.644,-11.01342 9.6757,-22.69734 12.9374,-34.60266 2.3149,-8.19997 2.6058,-16.70283 3.459,-25.11534 1.0175,-8.08003 1.5754,-16.19898 1.9104,-24.33246 -0.049,-8.30101 0.4138,-16.53709 1.2545,-24.79016 1.4562,-5.85435 4.6122,-11.06135 7.717,-16.16845 2.8699,-5.34953 6.739,-10.05419 10.3598,-14.89654 5.011,-6.27293 8.9744,-13.28132 13.6607,-19.78131 5.4995,-8.41642 11.7202,-16.26126 18.1779,-23.95516 8.8927,-10.40699 17.3594,-21.15455 25.956,-31.80001 4.7038,-6.48761 9.9389,-12.53892 15.0531,-18.69461 6.7421,-7.52427 12.335,-15.92302 18.2595,-24.07663 7.5018,-9.60284 15.6143,-18.73364 23.8942,-27.66978 5.0096,-5.8791 11.1169,-10.49285 17.2008,-15.16423 6.5243,-5.03253 13.3334,-9.69764 19.6349,-15.01206 9.9562,-8.15594 20.1712,-15.99282 30.2499,-24.00324 10.5688,-8.1099 20.9724,-16.44491 31.816,-24.1876 11.0314,-8.03051 22.5454,-15.35973 34.1058,-22.59635 16.3549,-10.62685 33.2283,-20.41381 50.4847,-29.49655 12.7297,-6.38325 25.7933,-12.03877 38.3609,-18.73899 8.8348,-4.9004 18.3082,-8.43839 27.8389,-11.70732 10.4709,-3.97981 21.1706,-7.19818 31.943,-10.23402 11.7942,-3.40241 23.9538,-5.44568 36.0919,-7.1846 11.0699,-1.34962 22.2235,-1.66835 33.3622,-1.85862 8.5817,-0.0938 17.1641,-0.0572 25.746,-0.0388 7.7715,0.0174 15.543,0.0241 23.3144,0.0281 7.1409,-0.38779 14.2076,-1.46066 21.2332,-2.74006 7.7503,-1.34068 15.6276,-1.56735 23.4716,-1.79787 8.7714,-0.20941 17.5466,-0.16315 26.3196,-0.16103 13.653,0.006 27.3058,0.0151 40.9586,0.0201 8.8371,0.003 17.6741,0.004 26.5112,0.004 0.7869,1e-5 3.5155,-0.287 4.6107,0.40803 0.1833,0.11641 0.04,0.46232 0.1841,0.62519 1.8304,2.0734 3.0126,2.63834 4.2635,5.32675 4.1368,8.32403 7.1657,17.10736 9.2546,26.14958 1.9733,9.24964 2.059,18.74887 2.2286,28.16396 0.1143,13.14982 0.045,26.30069 0.026,39.45085 -0.3246,13.70061 0.4758,27.44365 -0.3026,41.13012 -1.4042,8.35801 -3.8767,16.59824 -7.016,24.467 -3.7359,9.08289 -8.9757,17.40739 -13.9766,25.82119 -6.2222,9.29058 -12.374,18.58272 -17.7636,28.38482 -5.5544,10.03877 -12.3415,19.33927 -19.4474,28.32399 -6.9062,8.81293 -13.516,17.84723 -20.3637,26.70728 -5.8629,8.42677 -13.1752,15.68693 -19.9795,23.33789 -4.5452,5.00544 -9.1011,9.84123 -14.3089,14.12978 -2.2697,1.40227 -4.853,2.74783 -7.4837,3.32822 -5.7122,1.95033 -11.6049,3.29922 -17.3892,5.00629 -6.358,1.88378 -12.577,4.15017 -18.8629,6.24456 -5.9072,2.06362 -12.0767,3.37143 -18.2121,4.58171 -9.3387,1.45534 -18.7782,1.03323 -28.1124,2.60419 -2.4231,1.66923 -6.0521,2.32889 -7.2691,5.00774 -6.133,13.49883 6.0887,21.26001 14.6703,28.36201 6.7802,5.92699 14.4552,10.64988 21.7461,15.88826 0.7285,0.62439 1.8523,0.97345 2.1855,1.8732 0.1923,0.51905 -1.144,-0.63143 -1.6225,-0.35314 -0.4987,0.29003 -0.416,1.07772 -0.5762,1.63195 -1.179,4.08127 -2.5904,7.63391 -4.4562,11.47532 -5.2474,9.37281 -12.0273,17.75076 -18.7267,26.10816 -6.2207,8.26598 -12.0787,16.80281 -18.0339,25.26252 -7.0528,9.87991 -14.9945,19.0864 -22.936,28.25607 -7.6492,8.61015 -15.0125,17.47893 -22.1351,26.52887 -6.3152,8.04611 -13.1877,15.6319 -19.4048,23.75858 -6.2727,7.9916 -12.5574,15.97808 -18.7484,24.03985 -6.23,7.46086 -12.4603,14.91893 -18.6151,22.44178 -5.0016,5.38525 -9.6619,11.1475 -15.3373,15.8497 -5.2208,3.31666 -9.0249,10.13455 -14.5205,12.71776 -7.033,3.03559 -14.3906,5.19157 -21.7581,7.23786 -10.7521,2.4353 -21.3666,5.45327 -32.0153,8.30903 -12.6092,3.11184 -24.6238,8.00824 -36.7033,12.66991 -8.3999,3.28475 -16.623,8.80097 -13.5782,19.36766 0.5384,1.86849 2.1533,3.23839 3.23,4.85759 5.4161,4.85344 12.3529,7.60069 18.9557,10.46102 6.6623,2.88639 13.7359,4.30472 20.9238,4.98737 6.2257,0.40465 12.4718,0.32398 18.7073,0.30583 0.4637,0.0704 1.834,0.36534 1.3911,0.21119 -9.0954,-3.16497 1.2973,2.04536 -7.3185,-5.45272 -0.2766,-0.24072 -0.4048,0.61362 -0.5694,0.94136 -3.952,7.87379 2.2721,-3.89271 -3.0308,5.99842 -5.4061,6.85975 -12.0296,12.62989 -18.4168,18.54571 -6.6933,6.30378 -13.4879,12.51619 -19.7468,19.25677 -6.3658,7.65323 -11.3095,16.33699 -16.8955,24.55421 -5.2808,9.31322 -11.2372,18.20444 -17.6837,26.74556 -5.4421,6.52306 -11.6504,12.36702 -17.4906,18.5407 -6.4534,6.79352 -12.8364,13.65245 -19.0628,20.65557 -6.0346,6.53474 -10.8866,13.87057 -15.1679,21.63628 -4.0041,6.70827 -7.3024,13.76214 -11.3819,20.4201 -2.9982,4.4636 -8.3414,5.0953 -13.219,6.6335 -11.9798,3.1426 -23.9732,6.2481 -35.793,9.9567 -10.6986,3.205 -21.2496,6.9858 -31.5667,11.2639 -9.5088,3.8449 -18.2686,9.2197 -27.4589,13.7216 -9.051,4.8766 -18.1459,9.6898 -26.8929,15.0988 -10.5104,7.384 -12.9894,9.6016 0.069,23.1189 0.451,0.4669 8.6858,-0.1408 9.5789,-0.195 9.8091,-1.3958 19.6332,-2.5664 29.5187,-3.2409 11.3645,-0.267 22.6969,-0.8954 34.0371,-1.679 5.0542,-0.2858 10.1311,-0.7405 15.1262,-1.593 2.8515,-0.4867 5.6171,-1.4283 8.4795,-1.8459 0.6911,-0.1009 -1.3318,0.4216 -1.9977,0.6325 -7.881,7.146 -3.8967,-5.1746 -6.7215,-5.1615 -0.6913,0 -0.309,1.3512 -0.5435,2.0015 -1.1428,3.1686 -2.9383,5.9839 -4.7447,8.7984 -5.4421,7.4125 -11.5676,14.3664 -18.2916,20.641 -5.8984,5.3585 -11.0923,11.3596 -16.231,17.4265 -4.1272,5.3566 -8.0318,10.8909 -11.77,16.5263 -5.5313,7.6351 -10.6602,15.5606 -16.0037,23.3372 -6.4346,9.2141 -12.9033,18.4107 -19.637,27.4097 -6.1124,8.4438 -12.6252,16.5867 -18.9893,24.8406 -7.6236,9.3283 -15.0325,18.819 -22.2,28.5026 -6.0811,7.6394 -10.9354,16.2786 -17.5662,23.4632 -7.6635,7.6183 -13.7065,16.5605 -19.8714,25.3731 -5.4218,8.5923 -11.4202,16.7936 -17.0799,25.2248 -3.9726,5.8956 -8.0148,11.6286 -12.6004,17.059 -5.6879,6.7868 -11.9653,13.0226 -18.3979,19.0946 -5.4604,5.1989 -10.6926,10.6433 -16.2034,15.7876 -2.3909,2.0561 -5.2318,2.0316 -8.2338,2.191 -9.0593,0.3044 -18.1274,0.1896 -27.1903,0.163 -14.0183,-0.6013 -27.9369,0.9289 -41.8418,2.4634 -8.4941,1.3005 -17.1388,2.0281 -25.5307,3.9536 -4.6004,1.0556 -8.7131,2.4521 -13.1901,3.8725 -10.2746,3.771 -20.6155,7.3538 -30.8913,11.1226 -7.8788,2.5341 -15.613,5.5639 -23.2006,8.869 -6.676,3.1607 -13.3668,6.2718 -20.199,9.0817 -6.7377,3.2273 -13.8664,5.5512 -21.0365,7.6138 -6.6491,1.962 -13.1869,4.2078 -19.657,6.6918 -1.8102,0.4813 -9.8163,2.5026 -10.9399,0.4376 -2.0776,-2.4339 -4.4467,-4.7225 -5.9132,-7.6067 -1.8313,-4.4256 -3.8873,-8.7158 -5.3698,-13.2872 -1.7998,-6.1254 -2.0344,-12.5222 -2.9688,-18.7944 -0.9718,-5.2882 -1.5681,-10.6254 -1.8836,-15.9895 -0.2432,-6.2821 -0.2194,-12.5713 -0.2246,-18.8572 -0.4349,-9.086 -2.2636,-18.0206 -4.2058,-26.8824 -1.5928,-7.8158 -3.0097,-15.6624 -4.4772,-23.5035 -1.1115,-7.5416 -3.055,-14.9269 -4.2734,-22.4464 -2.0422,-10.6274 -4.6885,-21.0965 -6.1722,-31.8267 -1.8218,-12.008 -2.9914,-24.0978 -5.3374,-36.0215 -1.4946,-8.1727 -3.7181,-16.176 -4.7706,-24.4228 -0.958,-8.2182 -1.067,-16.4965 -1.1544,-24.7594 0.02,-6.8389 -0.3732,-13.6712 0.5663,-20.4581 0.6541,-5.9309 3.17,-11.4179 5.7496,-16.7272 3.2591,-7.3215 7.3901,-14.1733 10.9172,-21.3598 3.9395,-7.9294 8.5559,-15.5005 13.3594,-22.9303 4.9052,-8.1505 9.9851,-16.1766 14.7602,-24.4072 3.3106,-6.0951 5.9503,-12.634 9.8102,-18.4144 4.2254,-6.5126 7.3701,-13.674 10.9837,-20.5408 4.3493,-6.418 7.3801,-13.52958 10.9254,-20.3811 3.2107,-7.10004 7.1264,-13.80524 10.3186,-20.91467 3.591,-7.26038 7.9994,-14.06425 12.3451,-20.88558 3.9001,-6.50462 8.4909,-12.54995 12.6524,-18.88212 3.9916,-5.63822 7.574,-11.51451 11.006,-17.50388 3.4184,-6.62392 7.1521,-13.01599 11.2379,-19.24365 4.3275,-6.02668 8.6617,-12.0464 12.9233,-18.12189 4.2409,-6.51553 8.055,-13.2746 11.8153,-20.07479 4.6179,-7.5072 8.7248,-15.2981 13.1182,-22.93209 3.0433,-5.572 6.5128,-10.89835 9.8434,-16.30202 3.7273,-4.97652 7.2901,-10.06377 11.0021,-15.04963 3.3134,-5.08444 7.1943,-9.76934 10.7148,-14.70975 4.2005,-5.60043 8.6468,-10.99923 12.6998,-16.71163 3.621,-5.57578 7.6239,-10.8793 11.4113,-16.34342 5.4755,-6.8144 10.6262,-13.85679 15.2913,-21.25147 3.7484,-5.38805 7.5694,-10.71914 10.9425,-16.35368 2.9848,-4.70387 6.5848,-8.94607 10.0066,-13.32479 4.014,-5.24095 8.3502,-10.25038 11.9138,-15.81425 3.692,-5.08413 6.9723,-10.45972 10.3616,-15.74967 2.7916,-4.31189 6.0634,-8.27675 9.1791,-12.35048 2.9203,-3.03213 5.4766,-6.34823 8.1474,-9.59575 2.2758,-3.22286 4.9871,-6.08116 7.4899,-9.12418 3.7477,-3.79098 4.74,-9.44706 8.0327,-13.48971 2.7265,-3.61219 5.4768,-7.19399 8.0181,-10.95105 3.692,-3.40209 5.9223,-7.66262 7.568,-12.33606 1.7439,-6.48753 1.6469,-13.27007 1.7019,-19.93482 0,-1.51678 0.01,-3.03353 0.011,-4.55031 0.035,-14.14208 -19.9649,-14.19166 -20,-0.0496 v 0 c 0,1.48008 -0.01,2.96013 -0.011,4.44021 -0.036,4.62214 0.043,9.30087 -0.711,13.87496 -0.738,3.12365 -3.3405,4.90744 -5.1853,7.43884 -2.4296,3.70705 -5.2203,7.10613 -7.8334,10.67951 -2.5966,3.94399 -4.4781,8.23312 -7.0406,12.17644 -2.5308,3.07954 -5.2661,5.98866 -7.5828,9.23812 -2.7575,3.43775 -5.5336,6.81931 -8.5213,10.07178 -3.4194,4.52441 -7.0709,8.88612 -10.1125,13.68677 -3.4196,5.35866 -6.7571,10.78013 -10.4792,15.93577 -2.9984,5.07831 -7.3266,9.29532 -10.7181,14.1042 -3.9301,5.05169 -8.0674,9.95034 -11.4345,15.41637 -3.2369,5.52135 -7.124,10.61143 -10.681,15.92532 -4.4756,7.16831 -9.5791,13.87269 -14.8011,20.5082 -3.7399,5.41705 -7.7086,10.67004 -11.3011,16.18573 -4.0205,5.72735 -8.5548,11.05101 -12.6877,16.69449 -3.3899,4.83487 -7.2379,9.35226 -10.4339,14.32277 -4.0608,5.45801 -7.9959,11.00124 -11.9914,16.50913 -3.4279,5.58093 -7.0082,11.07786 -10.1542,16.82464 -4.4333,7.73634 -8.615,15.60631 -13.2769,23.2138 -3.4184,6.18352 -6.8672,12.33813 -10.6947,18.27951 -4.3675,6.24837 -8.8465,12.41189 -13.2634,18.62346 -4.3059,6.56328 -8.263,13.29613 -11.8687,20.27137 -3.2352,5.64632 -6.6085,11.18322 -10.3852,16.49137 -4.1835,6.41848 -8.8757,12.50027 -12.7909,19.09662 -4.8631,7.64263 -9.7871,15.2745 -13.7262,23.44963 -3.0345,6.78984 -6.8322,13.16151 -9.8588,19.95731 -3.4808,6.82201 -6.5542,13.82588 -10.8397,20.21612 -3.3444,6.3787 -6.252,13.035 -10.1417,19.0892 -3.8223,6.1463 -7.059,12.6344 -10.2464,19.1313 -4.6136,7.9569 -9.5255,15.712 -14.2618,23.5933 -5.22,8.095 -10.2417,16.3386 -14.5172,24.9787 -3.5378,7.234 -7.7271,14.1134 -10.9813,21.4918 -3.4473,7.2259 -6.6579,14.6905 -7.5468,22.7281 -1.0208,7.7531 -0.8274,15.53 -0.7438,23.3381 0.097,9.0614 0.2431,18.1387 1.3231,27.1479 1.1631,8.6783 3.3229,17.1324 4.9851,25.7232 2.3259,11.5403 3.3116,23.2793 5.1473,34.8999 1.5472,10.8809 4.071,21.5331 6.2438,32.2963 1.2782,7.6629 3.1846,15.2027 4.3511,22.8876 1.5152,8.0378 2.9599,16.0839 4.5979,24.0968 1.6386,7.4656 3.2093,14.9742 3.7415,22.6147 0.01,6.6785 -0.02,13.3608 0.2603,20.0347 0.3636,5.9925 1.007,11.9599 2.0857,17.8698 1.2199,7.3397 1.3118,14.9016 3.7511,22.0255 1.9643,5.8159 4.4522,11.3809 7.0129,16.9531 3.8458,6.4147 8.7093,12.2801 15.318,15.9949 1.6692,0.6092 3.2874,1.3824 5.0075,1.8275 6.8991,1.7852 14.4077,-0.046 21.0335,-1.9539 5.9415,-2.2816 11.9383,-4.3589 18.0486,-6.1513 7.86,-2.2867 15.6968,-4.8212 23.1023,-8.3364 6.959,-2.8777 13.7999,-6.01 20.5965,-9.2508 7.2003,-3.1753 14.5799,-5.9926 22.066,-8.4128 10.0025,-3.6719 20.0745,-7.1456 30.0682,-10.8407 2.104,-0.6722 8.3221,-2.7126 10.5857,-3.2323 7.9764,-1.8313 16.1903,-2.529 24.263,-3.7724 13.1579,-1.4523 26.3214,-2.9492 39.5889,-2.3428 9.5293,0.028 19.0651,0.1564 28.5896,-0.2079 7.6551,-0.5795 14.7697,-2.1765 20.5927,-7.5746 5.4943,-5.193 10.7982,-10.5875 16.2472,-15.829 6.9623,-6.5971 13.774,-13.3575 19.9358,-20.7217 5.0644,-5.9982 9.5382,-12.3361 13.9358,-18.8313 5.5666,-8.3306 11.5195,-16.402 16.8517,-24.8915 5.7084,-8.1609 11.2519,-16.4731 18.3856,-23.4985 6.867,-7.8252 12.4993,-16.5844 18.7421,-24.907 7.0842,-9.5811 14.4284,-18.9536 21.9608,-28.186 6.4227,-8.3317 12.996,-16.5514 19.1664,-25.0737 6.8906,-9.2181 13.5234,-18.6285 20.1079,-28.0667 5.4052,-7.8775 10.5852,-15.907 16.2002,-23.6288 3.2847,-4.9893 6.7648,-9.8526 10.3478,-14.6297 4.6525,-5.4931 9.3175,-10.952 14.6764,-15.7884 7.9197,-7.5024 15.2645,-15.6702 21.5439,-24.6041 3.9402,-6.4165 11.7246,-20.4988 7.4566,-28.1885 -1.7335,-3.1233 -5.1143,-4.9884 -7.6715,-7.4826 -2.4432,-0.2222 -4.8764,-0.6943 -7.3295,-0.6666 -1.137,0.013 -2.2103,0.5353 -3.3193,0.7866 -5.6017,1.2691 -11.3411,1.8768 -17.0725,2.1655 -11.3376,0.7834 -22.6654,1.3956 -34.0269,1.6782 -9.8416,0.6781 -19.6417,1.742 -29.3956,3.2329 -1.1979,0.077 -2.3987,0.119 -3.5939,0.2315 -0.43,0.04 -1.4041,-0.1856 -1.2759,0.2269 1.4895,4.7912 4.5274,9.0561 5.6798,13.9392 0.1609,0.6818 -5.0228,4.4074 1.3262,-0.3622 8.1769,-5.0848 16.7223,-9.5392 25.1733,-14.1463 8.8143,-4.3416 17.2453,-9.4546 26.3409,-13.2143 9.7378,-4.0937 19.757,-7.5868 29.8645,-10.6426 11.843,-3.7324 23.8844,-6.7713 35.8755,-9.9829 9.5083,-3.0649 18.7943,-6.2144 24.191,-15.2375 4.2521,-6.9398 7.7328,-14.2608 11.873,-21.26747 3.5135,-6.48174 7.5343,-12.53419 12.5714,-17.95042 6.088,-6.85014 12.331,-13.55682 18.644,-20.19903 6.3515,-6.71452 13.1311,-13.04888 18.9344,-20.24899 6.6275,-8.80872 12.8513,-17.92449 18.2546,-27.54302 5.026,-7.40372 9.5451,-15.16369 15.0462,-22.22544 5.862,-6.39602 12.3706,-12.1652 18.6427,-18.15084 8.0545,-7.46041 16.5025,-14.72936 22.568,-23.98673 2.2337,-4.38002 6.6831,-12.29498 5.8207,-17.3999 -1.609,-9.52492 -4.9225,-12.96448 -14.0932,-13.53024 -5.6063,0.0164 -11.2207,0.0875 -16.8204,-0.22217 -5.0933,-0.445 -10.1034,-1.39419 -14.8277,-3.4341 -4.1172,-1.76869 -8.1483,-3.71346 -12.1823,-5.66153 1.3343,3.09052 1.9795,3.46392 0.6314,7.58692 -0.3498,1.06979 -1.271,1.8714 -2.0534,2.68047 -0.1784,0.18442 -0.9453,0.36386 -0.7409,0.20876 1.0778,-0.81778 4.1214,-2.0755 5.0228,-2.48264 11.4115,-4.41616 22.7569,-9.06796 34.6741,-12.0078 10.7073,-2.87149 21.3778,-5.90555 32.1892,-8.35649 9.0697,-2.52124 18.18,-5.17123 26.6556,-9.33524 1.5033,-0.96282 3.0718,-1.83081 4.5099,-2.88848 4.6251,-3.40138 7.8817,-8.49281 12.6727,-11.73002 6.5254,-5.59212 12.1994,-12.04293 17.903,-18.45741 6.2853,-7.68299 12.6589,-15.29035 19.0001,-22.92762 6.2063,-8.08861 12.5061,-16.10069 18.8037,-24.1122 6.0977,-8.08064 13.0231,-15.48916 19.2064,-23.50196 6.92,-8.80874 14.096,-17.42445 21.534,-25.80065 8.3756,-9.67756 16.7424,-19.40148 24.1705,-29.83551 5.7152,-8.12135 11.3474,-16.30873 17.2859,-24.26697 7.6661,-9.56926 15.3877,-19.20505 21.1949,-30.05418 5.9031,-12.69222 11.5276,-29.20087 -1.9497,-39.44035 -6.9302,-4.96266 -14.2139,-9.44928 -20.6661,-15.05651 -0.732,-0.60325 -9.2332,-8.22561 -9.5241,-7.60172 -4.4947,9.63978 0.595,6.41522 -7.1081,9.34283 9.4022,-1.82136 19.1091,-0.65286 28.5019,-2.6775 6.9668,-1.39076 13.9663,-2.90396 20.6814,-5.23835 6.0664,-2.04788 12.077,-4.21532 18.2198,-6.04068 5.7731,-1.74982 11.6921,-3.02778 17.3982,-5.00898 5.1114,-1.64635 10.2084,-3.73812 14.4766,-7.05843 6.0026,-4.95588 11.3112,-10.49125 16.5315,-16.27073 7.109,-7.99463 14.7267,-15.59957 20.86,-24.39943 6.8037,-8.80642 13.3731,-17.78402 20.2356,-26.54324 7.7782,-9.86792 15.209,-20.07306 21.2833,-31.09595 5.262,-9.61151 11.3948,-18.64333 17.4223,-27.7873 5.5539,-9.34456 11.3175,-18.61931 15.4024,-28.73508 3.828,-9.88316 7.0369,-20.15389 8.3691,-30.696 0.7218,-14.04162 0.085,-28.12164 0.3312,-42.17613 0.021,-13.28137 0.091,-26.56349 -0.028,-39.84449 -0.199,-10.83076 -0.3951,-21.74454 -2.7541,-32.36792 -2.6368,-11.10312 -6.3267,-21.93963 -11.685,-32.05117 -1.2751,-1.90597 -2.3789,-3.93825 -3.8251,-5.71791 -5.425,-6.67644 -13.6999,-10.60483 -22.2732,-10.17253 -8.8349,-2.6e-4 -17.6699,-7.9e-4 -26.5046,-0.004 -13.6538,-0.005 -27.3074,-0.0138 -40.9609,-0.0201 -8.9721,-0.002 -17.9457,-0.0484 -26.9156,0.16976 -8.8475,0.2629 -17.7276,0.56777 -26.4638,2.11274 -5.8446,1.06433 -11.7086,1.9646 -17.6396,2.41646 -7.7607,-0.004 -15.5213,-0.0107 -23.282,-0.028 -8.7107,-0.0187 -17.4219,-0.0557 -26.1323,0.0417 -11.9771,0.2067 -23.9699,0.57103 -35.8689,2.0598 -13.005,1.88083 -26.0292,4.07714 -38.667,7.73034 -11.1345,3.13805 -22.194,6.47127 -33.0211,10.57102 -10.5282,3.62835 -20.9843,7.56664 -30.7513,12.97552 -12.53,6.69282 -25.5942,12.27053 -38.2664,18.68888 -17.6899,9.32568 -35.0051,19.34175 -51.7769,30.24002 -11.9053,7.45527 -23.7607,15.00875 -35.1237,23.27791 -11.1115,7.95224 -21.8021,16.46961 -32.6295,24.80114 -10.2439,8.14343 -20.6148,16.12263 -30.7408,24.4062 -6.0217,5.14295 -12.6408,9.53929 -18.8835,14.40551 -6.9729,5.35948 -13.9196,10.74584 -19.6975,17.44244 -8.8026,9.52833 -17.4602,19.23235 -25.3964,29.49998 -5.6682,7.81034 -11.0006,15.86506 -17.4695,23.05916 -5.1619,6.23347 -10.4741,12.34096 -15.2259,18.90585 -8.5075,10.55489 -16.909,21.19143 -25.7145,31.50642 -6.779,8.0899 -13.3272,16.33376 -19.1185,25.16847 -4.567,6.42056 -8.5494,13.24583 -13.42,19.45211 -4.0023,5.3666 -8.248,10.59807 -11.4462,16.50926 -4.6159,7.65638 -9.0505,15.54411 -10.5035,24.49867 -0.8794,8.6518 -1.3892,17.29502 -1.3404,25.99568 -0.3157,7.74639 -0.8547,15.47715 -1.829,23.17192 -0.7148,7.30623 -0.9334,14.69157 -2.8514,21.82836 -2.8624,10.53156 -6.4051,20.86711 -11.3736,30.61536 -2.3011,4.42923 -4.6224,8.928 -7.2504,13.17466 -4.055,6.55275 0.016,-0.37771 -3.5538,4.56613 -0.1113,0.1542 -0.066,0.37457 -0.099,0.56184 8.4733,2.73087 7.0994,0.19132 9.6812,5.50511 0.097,0.20008 -0.3251,-0.33004 -0.3868,-0.54377 -0.2262,-0.78433 -0.3489,-1.59642 -0.4636,-2.40464 -0.3465,-2.44345 -0.4252,-4.92019 -0.8214,-7.35804 -1.1861,-10.3061 -1.4647,-20.70142 -3.2545,-30.93908 -2.2741,-12.44975 -4.8108,-25.12107 -10.9663,-36.32311 -1.3312,-1.7364 -2.4458,-3.66286 -3.9937,-5.20922 -6.2775,-6.27102 -15.6122,-6.56463 -23.5736,-4.09255 -13.598,3.88514 -8.1035,23.11562 5.4945,19.23048 z" /></g></g></svg>
