<?xml version="1.0" encoding="UTF-8" standalone="no"?>
<!-- Created with Inkscape (http://www.inkscape.org/) -->

<svg
   width="3840mm"
   height="2160mm"
   viewBox="0 0 3840 2160"
   version="1.1"
   id="svg5458"
   inkscape:version="1.2.2 (732a01da63, 2022-12-09)"
   sodipodi:docname="sharp tooth.svg"
   xml:space="preserve"
   inkscape:export-filename="..\..\items\sharp tooth.png"
   inkscape:export-xdpi="96.096664"
   inkscape:export-ydpi="96.096664"
   xmlns:inkscape="http://www.inkscape.org/namespaces/inkscape"
   xmlns:sodipodi="http://sodipodi.sourceforge.net/DTD/sodipodi-0.dtd"
   xmlns="http://www.w3.org/2000/svg"
   xmlns:svg="http://www.w3.org/2000/svg"><sodipodi:namedview
     id="namedview5460"
     pagecolor="#ffffff"
     bordercolor="#000000"
     borderopacity="0.25"
     inkscape:showpageshadow="2"
     inkscape:pageopacity="0.0"
     inkscape:pagecheckerboard="0"
     inkscape:deskcolor="#d1d1d1"
     inkscape:document-units="mm"
     showgrid="false"
     inkscape:zoom="0.04"
     inkscape:cx="10537.5"
     inkscape:cy="5100"
     inkscape:window-width="1920"
     inkscape:window-height="986"
     inkscape:window-x="-11"
     inkscape:window-y="-11"
     inkscape:window-maximized="1"
     inkscape:current-layer="layer1" /><defs
     id="defs5455" /><g
     inkscape:label="Layer 1"
     inkscape:groupmode="layer"
     id="layer1"><path
       style="fill:#ffffff;stroke-width:176.777;paint-order:markers stroke fill"
       d="m 1897.2558,365.32462 c -96.1659,-10.57469 -192.6196,-26.27862 -289.6392,-22.15253 -38.6671,3.46959 -80.7623,5.23399 -113.8627,27.78106 -15.0805,7.76771 -7.7879,27.8335 -12.0765,41.51717 -11.843,111.63495 -26.7971,223.03923 -34.9546,335.00811 -1.6176,47.43953 4.6867,94.45068 12.8152,141.04475 6.8816,55.75447 16.2916,111.14664 30.5864,165.50162 20.4219,86.9857 30.8242,176.5828 59.5276,261.4531 18.1884,48.1066 47.8004,91.0179 63.9202,140.0524 24.8011,61.5976 69.3796,112.3431 113.2004,161.1497 26.5975,27.2697 59.0053,49.1621 92.1655,67.0806 24.08,-40.9307 40.9627,-85.9883 60.2112,-129.4078 40.8683,-99.2781 69.0931,-203.3879 90.8899,-308.385 11.9622,-60.2051 34.4441,-117.7029 44.293,-178.3937 13.7673,-74.76245 39.9977,-146.31953 58.3784,-219.9392 26.1122,-86.44894 63.5092,-169.05138 101.8435,-250.653 12.9304,-29.75795 35.1796,-54.7301 46.8525,-84.93111 2.5343,-14.01803 1.0458,-30.59844 -12.3493,-38.83066 -48.956,-43.49347 -113.1284,-63.30425 -173.3541,-85.68353 -44.931,-13.2928 -92.2904,-15.52967 -138.4474,-22.21198 z"
       id="path507" /><path
       style="fill:#ffffff;stroke-width:20;paint-order:markers stroke fill"
       id="path560"
       d="m 1481.9864,396.6264 c 2.0007,-0.0311 4.0163,0.15257 6.0021,-0.0933 11.5572,-1.43082 22.295,-6.85207 32.5027,-12.10776 10.4775,-6.37132 13.9454,-13.09281 8.9731,-26.0019 -1.7667,-4.58655 -9.0462,-8.12424 -13.4116,-9.36408 -2.2938,-0.65146 -4.7163,-0.70646 -7.0745,-1.05969 -2.7406,0.30503 -5.5398,0.27456 -8.222,0.9151 -7.0979,1.6951 -19.8253,8.37862 -24.9622,13.85106 -1.6235,1.72953 -2.8366,3.803 -4.2548,5.70448 -3.0857,14.03283 -5.8711,13.64877 16.4881,23.12263 2.143,0.90803 10.1253,-4.79233 12.2274,-6.05253 5.1356,-3.07875 6.1088,-3.34516 11.9499,-6.11948 12.7337,-5.48905 24.7881,-12.49144 37.6959,-17.57514 0.802,-0.25297 1.5875,-0.56572 2.4059,-0.759 1.7324,-0.40911 3.5276,-0.4853 5.2822,-0.78532 5.5025,-0.94093 10.9858,-1.98938 16.4896,-2.92491 12.7401,-1.55694 25.6455,-1.32669 38.4623,-1.25287 10.1696,-0.0285 20.2827,1.15603 30.3712,2.30011 10.1873,1.2008 20.361,2.51447 30.538,3.79932 17.1885,2.05432 34.3435,4.18324 51.3742,7.29998 18.7248,3.57232 37.3798,7.49791 56.1764,10.68209 12.9607,1.28416 26.0073,2.28323 39.0392,2.37548 7.4527,-0.25533 14.8769,0.12767 22.2882,-0.82661 2.7631,-8.50711 9.5099,-16.66047 8.2891,-25.52137 -0.6255,-4.54043 -8.2107,-4.15902 -12.5722,-5.56776 -1.0346,-0.33419 -18.4519,-2.47192 -18.4887,-2.4761 -12.3096,-1.40268 -12.3637,-1.25268 -25.4713,-2.17137 -12.8327,-0.68178 -25.6769,-1.12504 -38.5221,-1.48526 -4.0231,-0.11285 -10.5599,-0.41456 -14.8349,-0.006 -1.8092,0.17271 -3.5846,0.60204 -5.3769,0.90306 -1.8474,9.02855 -7.874,18.16996 -5.5421,27.08564 1.2383,4.73451 9.1351,3.58441 13.8786,4.78806 4.1323,1.04858 8.422,1.3331 12.6417,1.94143 16.5969,2.3927 33.2587,4.18229 49.9241,6.0146 30.0532,2.78952 60.159,5.22201 90.346,5.75926 16.2104,-0.52421 18.0344,0.0245 9.5853,-30.51304 -0.7895,-2.85326 -5.7325,-1.48354 -8.6135,-2.16461 -21.3624,-5.05005 -0.109,0.37165 -21.8726,-5.32194 -7.2975,-2.23639 -14.7286,-4.27865 -21.6959,-7.45832 -0.6069,-0.277 -2.1987,-1.47351 -1.7402,-0.98878 10.8969,11.52238 7.9944,-0.81313 -2.488,26.58742 -0.066,0.1691 -0.3713,0.45582 -0.1973,0.50713 1.1087,0.32706 2.302,0.23889 3.4387,0.44911 1.4686,0.27149 2.9142,0.65561 4.3688,0.99402 9.0855,2.1137 18.1673,4.21498 27.2787,6.21593 13.949,3.27462 28.0858,5.42395 42.329,6.85279 6.7717,0.59354 13.526,1.37246 20.3085,1.82344 9.7344,0.01 19.4572,0.37292 29.1911,0.38564 11.4234,0.12259 22.779,1.52262 34.1172,2.79317 12.3696,1.42263 24.7232,2.97944 37.0771,4.53013 12.7478,1.87534 25.3882,4.42957 37.7961,7.90596 10.4048,2.60786 17.9405,9.78386 26.3629,15.98562 11.1094,8.01959 22.1821,16.10869 33.5145,23.81182 13.4,9.12134 27.5323,17.05018 41.2811,25.60495 6.749,4.44962 13.522,8.90653 19.8868,13.90256 1.2696,0.99644 2.5566,1.98245 3.7067,3.11463 0.3543,0.34881 1.12,1.62668 0.7605,1.2831 -0.808,-0.77263 -1.4194,-1.72776 -2.1292,-2.59166 -0.2284,-0.6842 -0.2454,-1.48101 -0.6854,-2.05262 -0.155,-0.20146 -0.3047,0.41578 -0.3901,0.65525 -0.3375,0.94685 -0.5432,1.93687 -0.8723,2.88669 -0.9753,2.81566 -2.3922,5.5396 -3.5859,8.26294 -2.2523,6.31238 -4.6851,12.51265 -7.3787,18.65034 -3.9306,8.96915 -6.8664,18.03323 -12.1691,26.33543 -7.7017,11.01292 -13.6389,23.07622 -20.8061,34.42213 -6.7627,10.87738 -12.0056,22.61604 -16.5262,34.57496 -2.4026,5.99367 -3.2906,12.55003 -6.1207,18.38034 -1.0512,2.16552 -2.3963,4.17564 -3.6027,6.25869 -5.6562,9.62368 -11.3654,19.13778 -16.0863,29.26493 -6.9789,14.54675 -11.3397,30.1106 -15.8126,45.55225 -4.6461,17.71172 -9.5055,35.3626 -14.4232,53.00063 -4.736,19.80365 -11.2822,39.05545 -18.0672,58.22845 -7.3062,20.41985 -13.3223,41.27742 -17.9808,62.45271 -2.2512,10.6906 -3.6226,21.56609 -6.0729,32.217 -1.8485,8.03462 -4.5847,15.81955 -7.2618,23.60234 -4.8878,15.02156 -8.1424,30.49597 -12.3194,45.72449 -3.9547,14.04699 -7.3063,28.23383 -9.9848,42.57633 -2.0813,13.7068 -4.6386,27.3248 -7.3206,40.9246 -4.2729,16.0441 -10.1954,31.5733 -14.7691,47.5334 -3.3558,12.6653 -8.9302,24.5324 -13.0777,36.9349 -5.1037,15.773 -8.7818,31.95 -12.8148,48.015 -2.7787,10.9207 -5.1495,21.9146 -8.5937,32.6502 -5.1872,15.5532 -9.5904,31.3587 -14.28,47.0684 -3.9252,13.0272 -7.4356,26.1589 -10.8274,39.3309 -3.1986,11.4107 -7.602,22.4156 -11.6575,33.535 -5.0051,14.4154 -7.3779,29.5196 -10.727,44.357 -2.0124,8.2403 -3.6585,16.6128 -6.3111,24.683 -0.2202,0.67 -3.3595,9.2633 -3.5459,9.7746 -2.0076,4.9947 -3.2991,10.264 -5.3926,15.2262 -1.3542,3.2099 -3.2269,6.3159 -4.7952,9.4237 -4.4115,8.7688 -8.277,17.7392 -11.3736,27.0525 -2.1566,7.3775 -5.6124,14.2377 -7.972,21.5386 -1.6731,6.5924 -1.2416,10.6747 1.583,17.1028 0.5167,1.1759 2.4998,4.4141 2.1963,3.1661 -4.3442,-17.8625 -1.8059,5.1311 -3.075,-9.5905 -2.76,8.5505 -4.811,17.3055 -7.0985,25.9896 -2.1203,4.0103 -2.9611,8.8361 -5.5277,12.616 -0.2054,0.3024 0.085,-0.764 0.3158,-1.0504 0.7222,-0.9145 1.6457,-1.65 2.4686,-2.4751 -10.8362,-7.3603 7.0052,-0.1714 6.0417,-2.0696 -0.2999,-0.5909 -1.1973,-0.5691 -1.7861,-0.8731 -1.0396,-0.5367 -2.0658,-1.0985 -3.0983,-1.6486 -6.7598,-3.6018 -2.9634,-1.6983 -11.1216,-5.4628 -23.514,-8.2786 -47.6416,-14.5524 -71.9885,-19.809 -24.6727,-4.3347 -49.2677,-8.9979 -73.8188,-13.9786 -17.0942,-3.7332 -34.3625,-6.6171 -51.4875,-10.1842 -3.6703,-1.0098 -3.3804,-0.7416 -6.1671,-2.0022 -0.5552,-0.251 -2.2484,-0.8359 -1.6396,-0.8084 2.1231,0.096 4.4358,4.5443 3.0772,0.6203 -3.7462,-7.5527 -8.2177,-14.6568 -11.702,-22.3388 -3.0567,-7.1531 -5.1333,-14.6548 -7.5542,-22.03 -4.3764,-14.2621 -12.2499,-26.9811 -19.2589,-40.0274 -4.7139,-10.7583 -11.4727,-20.3607 -17.4891,-30.3866 -5.2182,-9.2838 -9.9541,-18.8066 -14.3778,-28.489 -5.8414,-11.2893 -11.1604,-22.8336 -17.0912,-34.0767 -2.3816,-4.5571 -5.0091,-9.0575 -7.0095,-13.8076 -1.4938,-3.5474 -2.3805,-7.5419 -3.5611,-11.192 -3.1144,-10.0067 -6.3595,-19.9652 -9.0555,-30.0971 -3.3828,-11.4502 -6.3455,-23.0158 -9.4972,-34.5312 -2.0467,-13.0607 -5.1585,-25.8523 -8.5951,-38.609 -2.6058,-9.5491 -6.0556,-18.8501 -8.4203,-28.4677 -1.0127,-4.1187 -1.8515,-8.2782 -2.7955,-12.4132 -4.5844,-14.6622 -8.1097,-29.6027 -11.8566,-44.4904 -3.9612,-15.5225 -9.1448,-30.6721 -12.7711,-46.2819 -2.0589,-12.7539 -5.225,-25.2778 -7.8007,-37.9258 -1.902,-10.8714 -3.0861,-21.87594 -4.0749,-32.86646 -0.7081,-7.20713 -0.6461,-14.44369 -0.091,-21.65402 0.6034,-6.36038 1.4358,-12.69639 2.2482,-19.03267 1.144,-10.0206 -1.3394,-19.79754 -3.934,-29.38766 -3.3039,-10.03725 -5.083,-20.36124 -6.3114,-30.82362 -1.3441,-10.99569 -1.6307,-22.08572 -2.0592,-33.14567 -1.2398,-11.70777 -1.6028,-23.46315 -1.9067,-35.22178 -0.4175,-15.81438 -2.8976,-31.48652 -5.1287,-47.12193 -0.4591,-5.66469 -1.82,-11.20941 -2.4909,-16.84295 -0.4796,-4.02782 -0.357,-8.05159 -0.2058,-12.0913 -0.054,-10.57634 0.5861,-21.1545 0.5138,-31.72967 -0.049,-7.22941 -0.4874,-14.94391 -0.8281,-22.16042 -1.5196,-17.787 -1.0942,-35.57994 0.2876,-53.3479 0.3025,-3.16703 0.5861,-6.3359 0.9064,-9.50118 0.5911,-5.84215 1.5821,-14.12333 2.0149,-19.91874 0.7621,-10.20489 0.9701,-20.45534 1.1855,-30.68213 0.1295,-18.16326 1.8185,-36.24522 2.0739,-54.40195 0.3251,-10.87733 0.058,-21.82782 1.0147,-32.68144 0.3014,-3.42055 1.3715,-9.49921 1.9045,-12.74682 1.9116,-8.94765 2.8002,-18.37516 6.1811,-26.94873 2.87,-6.91352 5.3746,-13.96273 7.3484,-21.18299 2.2169,-7.30473 4.6335,-14.52991 6.4306,-21.95516 0.6862,-3.28467 0.7324,-3.76655 1.5126,-6.69693 0.1862,-0.69903 1.121,-2.58619 0.5985,-2.086 -3.1297,2.99575 -4.2722,9.95087 -8.5996,9.74504 -23.0673,-1.09724 -18.3041,-19.16916 -20.537,-9.86837 -1.8483,18.62897 -3.5876,37.27032 -4.6634,55.96115 -1.1237,10.3418 -0.1208,20.97415 -2.0356,31.23948 -0.4267,2.28736 -1.5209,5.38873 -2.2479,7.60609 -2.8972,6.94198 -4.9395,14.12182 -6.4547,21.47751 -1.0567,6.15616 -3.3315,11.96098 -4.8119,18.03503 -1.232,6.64318 -2.6676,13.23079 -4.249,19.79838 -4.9654,20.62389 24.2012,27.64599 29.1666,7.0221 v 0 c 1.5806,-6.56606 3.055,-13.14871 4.2487,-19.79754 1.5192,-6.41548 4.0614,-12.52862 5.0421,-19.07058 1.2707,-6.33624 3.1994,-12.41256 5.6556,-18.39898 1.5964,-5.14873 2.4716,-7.44881 3.4252,-13.00264 1.8796,-10.94528 1.2039,-22.1716 2.2118,-33.1939 1.0598,-18.61115 2.8446,-37.16745 4.6486,-55.71948 0.3555,-11.44891 2.3371,-17.27764 -20.3103,-20.0337 -8.2374,-1.00242 -10.6005,14.56553 -11.7768,20.0022 -1.6862,7.15958 -4.2037,14.06281 -6.2205,21.12988 -1.7005,6.44518 -4.1174,12.65976 -6.6111,18.83466 -3.611,10.47403 -5.7227,21.37648 -7.5628,32.28714 -0.9439,5.84862 -1.7382,10.09946 -2.2539,16.01969 -0.9788,11.23425 -0.7216,22.56542 -1.0519,33.82414 -0.2275,18.08148 -1.9962,36.08874 -2.07,54.17877 -0.1946,9.47757 -0.3531,18.99009 -1.0555,28.44769 -0.4149,5.58683 -1.4543,14.35601 -2.0166,19.93581 -0.3366,3.34291 -0.6348,6.68952 -0.9523,10.03428 -1.4563,19.00842 -1.9361,38.04958 -0.3428,57.07809 0.2608,5.46784 0.7597,14.64725 0.7986,20.23743 0.073,10.43276 -0.5624,20.86835 -0.5036,31.3024 -0.1424,5.39584 -0.307,6.65915 0.024,11.84322 0.4785,7.49177 2.1641,14.80166 2.9592,22.25773 2.0679,14.48822 4.4173,29.00762 4.8378,43.65926 0.3076,11.8856 0.6359,23.77632 1.9191,35.6077 0.4595,11.85408 0.7953,23.7382 2.2461,35.52242 1.4295,11.91705 3.4482,23.71058 7.1542,35.16082 1.5803,5.76953 3.4585,11.64288 3.1254,17.69708 -0.879,6.85749 -1.7801,13.71499 -2.4075,20.60117 -0.6528,8.85989 -0.7355,17.75109 0.1293,26.6051 1.1015,12.10155 2.4015,24.21935 4.5628,36.18045 2.6571,12.9128 5.8282,25.7134 7.9769,38.7305 3.7006,15.7693 8.7951,31.1174 12.8923,46.781 3.693,14.672 7.1162,29.4163 11.702,43.8463 1.0322,4.5203 1.9651,9.0642 3.0824,13.5641 2.3846,9.6051 5.7461,18.9217 8.4142,28.4451 0.7545,2.7988 3.4074,12.5475 4.109,15.4983 1.3589,5.716 2.1263,11.517 3.249,17.2761 0.3879,1.9902 0.8454,3.966 1.2681,5.949 3.1361,11.4539 6.0808,22.9594 9.4477,34.348 2.8475,10.6356 6.2187,21.1038 9.5018,31.6087 0.9989,3.0751 1.8627,6.1941 2.9157,9.2511 2.4697,7.17 6.0396,13.8751 9.6681,20.5134 5.678,10.7279 10.7079,21.7758 16.3311,32.5324 4.8952,10.7083 10.1468,21.2396 15.9579,31.486 5.7905,9.6014 12.2644,18.8005 16.7705,29.1241 6.189,11.5066 13.2656,22.6758 17.1963,35.2309 2.7922,8.3902 5.1214,16.9535 8.7369,25.052 3.3352,7.3038 7.2342,14.2618 11.2221,21.2251 1.9835,4.6283 2.691,7.1069 6.5451,11.2035 5.1172,5.4389 13.0255,7.1503 19.8718,9.0446 17.1744,3.5528 34.4769,6.4876 51.6192,10.2111 24.4329,4.9568 48.9063,9.6199 73.4653,13.9047 22.2497,4.7824 44.2407,10.579 65.8434,17.7704 1.625,0.732 3.276,1.4089 4.8752,2.1959 6.6306,3.263 15.3687,9.1112 23.0461,8.744 3.0654,-0.1465 6.0042,-1.274 9.0063,-1.9112 1.9659,-1.4561 4.1499,-2.6565 5.8977,-4.3683 5.8077,-5.6877 8.2217,-16.0961 11.3563,-23.3447 2.2833,-8.6708 4.3405,-17.4071 7.0874,-25.9476 1.1546,-12.2626 1.9397,-5.6682 -2.3172,-16.604 -0.1637,-0.4202 0.5249,0.7544 0.6459,1.1889 0.721,2.589 1.4085,3.992 0.7164,6.2585 -0.031,0.099 -0.068,-0.1951 -0.1031,-0.2927 2.0408,-7.1884 6.0165,-13.7485 7.8135,-21.0445 2.5911,-7.9185 5.9511,-15.4901 9.6706,-22.9453 2.0968,-4.1569 4.3661,-8.2672 6.1618,-12.5673 2.0886,-5.0018 3.4353,-10.284 5.4275,-15.3217 4.5405,-12.4592 8.3234,-25.1197 10.9378,-38.1394 3.0555,-13.592 5.2388,-27.4188 9.6447,-40.6709 4.3894,-12.0384 9.1384,-23.961 12.5266,-36.3374 3.2921,-12.8026 6.7046,-25.5647 10.5204,-38.2254 4.6357,-15.5293 8.9826,-31.1553 14.1133,-46.5287 3.6053,-11.3478 6.2332,-22.9244 9.1122,-34.4717 3.8442,-15.3355 7.3483,-30.7775 12.1822,-45.8437 4.2399,-12.821 10.1361,-25.038 13.4591,-38.1691 4.7682,-16.7688 11.2042,-33.0199 15.3551,-49.9657 2.7022,-13.7028 5.2895,-27.4233 7.3801,-41.2348 2.5127,-13.5265 5.7003,-26.8963 9.4257,-40.1423 4.0026,-14.62159 7.1698,-29.46402 11.7608,-43.91251 2.0425,-5.96156 3.8386,-10.98354 5.5903,-17.10225 3.9472,-13.78744 5.9881,-27.97289 8.6742,-42.03546 4.3567,-19.96807 10.0905,-39.61476 16.9577,-58.86713 7.0108,-19.81556 13.7656,-39.71891 18.6834,-60.17879 4.8906,-17.54123 9.7326,-35.09299 14.3409,-52.71085 4.0508,-13.98468 7.9046,-28.11838 14.2217,-41.29667 4.3198,-9.41632 9.6942,-17.92623 14.8512,-26.88242 1.8828,-3.27747 3.8756,-6.58696 5.4399,-10.03281 2.779,-6.12239 4.1909,-12.70208 6.3746,-19.03264 3.7648,-10.07863 8.1762,-19.96948 13.8287,-29.14265 7.1841,-11.43061 13.216,-23.51804 20.9279,-34.61728 1.2748,-2.09884 2.6399,-4.1454 3.8242,-6.29649 4.1932,-7.61532 6.6461,-15.95599 10.3204,-23.80006 2.6814,-6.13399 5.1986,-12.31478 7.3758,-18.64357 2.8285,-6.45564 6.8487,-14.78932 7.3047,-21.85466 0.168,-2.60273 -0.2012,-5.2124 -0.3018,-7.81859 -1.272,-2.92943 -2.164,-6.05513 -3.816,-8.78826 -1.9025,-3.14736 -6.6878,-6.9633 -9.5388,-9.19049 -7.0463,-5.50465 -14.5249,-10.43715 -21.9941,-15.33828 -13.4223,-8.31509 -27.1795,-16.07537 -40.2614,-24.94295 -11.0328,-7.4679 -21.7703,-15.37635 -32.5848,-23.15492 -11.3929,-8.36443 -21.9595,-17.36035 -36.1,-20.72035 -13.8302,-3.81959 -27.8868,-6.74388 -42.0946,-8.76839 -12.4864,-1.56699 -24.9722,-3.14037 -37.4743,-4.57732 -12.4339,-1.39186 -24.8893,-2.88705 -37.4176,-2.97957 -9.1129,-0.0117 -18.2148,-0.38747 -27.3284,-0.32532 -6.422,-0.38124 -12.8097,-1.22201 -19.2228,-1.73466 -13.0867,-1.30617 -26.0708,-3.27436 -38.8834,-6.30408 -10.5234,-2.30938 -8.5404,-1.84035 -18.9551,-4.25941 -9.3851,-2.17996 -18.7057,-4.86493 -28.4559,-3.98001 -4.0388,7.40767 -10.6011,13.92304 -12.1164,22.22301 -0.5881,3.22163 4.252,5.0228 6.7575,7.13168 1.2334,1.03823 2.8424,1.52844 4.3141,2.18721 8.2065,3.67381 16.9,6.14586 25.488,8.72247 19.0018,4.9407 5.0802,1.46798 22.2662,5.42174 2.163,0.4976 5.6487,3.6127 6.4747,1.55272 12.6317,-31.49816 12.3321,-28.47462 0.2555,-27.99942 -29.2678,-0.50371 -58.4541,-2.90912 -87.5932,-5.58421 -10.0158,-1.10084 -24.0143,-2.59775 -34.0693,-3.86413 -4.8807,-0.61456 -9.7528,-1.29649 -14.6231,-1.98922 -3.7237,-0.5296 -7.3976,-1.75247 -11.158,-1.67752 -0.6408,0.0128 -0.174,1.27004 -0.2605,1.90513 -2.6561,8.32978 -5.3123,16.65959 -7.9685,24.9894 1.5422,-1.14075 0.5124,-0.49478 4.7709,-0.49029 2.8072,0.003 5.613,0.12791 8.419,0.20649 12.4587,0.3489 24.9163,0.77776 37.3633,1.42723 11.2199,0.77236 22.3179,1.76877 33.4695,3.22373 2.2557,0.29446 5.2013,2.58403 6.7609,0.92807 1.2703,-1.34883 -2.6581,-2.58216 -3.9871,-3.87323 3.1793,-8.04134 6.3587,-16.08269 9.538,-24.12402 -1.853,0.53865 -0.7878,0.29481 -4.39,0.35739 -4.4157,0.0767 -8.8356,-0.14892 -13.249,0.12364 -11.3919,0.0153 -22.7944,-1.07449 -34.1413,-1.95509 -18.6734,-3.15679 -37.1999,-7.08584 -55.8044,-10.61677 -17.573,-3.18905 -35.2592,-5.4557 -52.9943,-7.5496 -10.3034,-1.30087 -20.6034,-2.63096 -30.9175,-3.84489 -11.1545,-1.26314 -22.3377,-2.52371 -33.5808,-2.49041 -14.5556,-0.0797 -29.2136,-0.30452 -43.6625,1.67736 -5.3904,0.91791 -10.761,1.94298 -16.1497,2.86907 -4.0988,0.70443 -5.7278,0.77983 -9.9423,1.9111 -1.4106,0.37865 -2.7695,0.92882 -4.1541,1.39324 -13.5187,5.42855 -26.2816,12.50896 -39.5943,18.4082 -2.9182,1.41632 -5.8809,2.74494 -8.755,4.24897 -2.2373,1.17081 -4.4073,2.46783 -6.5703,3.7708 -0.8898,0.53594 -2.3864,0.72302 -2.5832,1.74294 -0.1455,0.75299 1.6854,-0.69443 2.29,-0.22257 5.6532,4.41224 12.0682,8.41291 15.9388,14.44984 1.3463,2.09963 -1.3746,4.79524 -2.0619,7.19287 -0.674,0.6234 -1.2824,1.32641 -2.0222,1.87018 -0.4974,0.36563 0.7945,-0.96012 1.2884,-1.33074 2.7565,-2.06931 7.004,-3.61172 9.3256,-5.66253 0.146,-0.12893 0.061,-0.38469 0.091,-0.57707 1.2271,-1.06845 -2.4667,-1.87945 -2.922,-4.89814 -1.9072,-12.64487 -1.1869,-9.47582 4.8772,-16.23975 0.3802,-0.42414 -0.9072,0.68903 -1.3609,1.03353 -6.8124,3.5188 -13.6987,6.79808 -21.0318,9.09691 -21.0491,-2.6331 -24.7729,27.13489 -3.7237,29.76799 z" /><path
       style="fill:#ffffff;stroke-width:20;paint-order:markers stroke fill"
       id="path562"
       d="m 1630.8609,1513.4422 c 4.1446,22.266 15.2673,42.0789 27.5809,60.7708 8.1731,11.5226 17.8507,21.8915 28.2458,31.424 10.7244,8.6228 19.803,19.0096 29.4549,28.7622 5.9701,6.5879 13.1328,11.8564 19.9538,17.489 4.5921,3.7921 7.4402,6.4024 11.8808,10.3572 7.6273,6.019 14.5789,12.9352 22.6324,18.4137 5.5839,3.7988 6.9061,4.2803 12.8689,7.4194 8.9337,3.6626 19.405,9.4212 29.4395,8.3268 2.8401,-0.3097 5.55,-1.3581 8.325,-2.0373 1.989,-1.0654 4.136,-1.8777 5.9671,-3.1961 9.0339,-6.5043 14.3388,-17.2891 19.2667,-26.9456 6.5115,-12.4499 10.3374,-26.0334 15.259,-39.1409 4.5547,-13.3359 10.5023,-26.1289 16.5455,-38.8411 5.1236,-11.1835 10.6918,-22.163 16.2189,-33.1515 5.5353,-11.1053 12.1235,-21.6404 18.3708,-32.3541 4.1075,-7.2136 8.2197,-14.4187 12.4253,-21.5754 10.7472,-18.2892 -15.1176,-33.4883 -25.865,-15.1991 v 0 c -4.2226,7.1859 -8.3549,14.4185 -12.4764,21.6629 -6.5612,11.2527 -13.4635,22.3282 -19.263,34.0006 -5.6144,11.1919 -11.2989,22.3596 -16.5099,33.7467 -6.3962,13.4805 -12.6876,27.0484 -17.5362,41.1777 -4.5247,12.081 -8.0414,24.6053 -13.9323,36.1196 -2.063,4.1149 -2.0054,4.1705 -4.402,8.2308 -1.1999,2.0329 -2.7792,3.8598 -3.7267,6.022 -0.075,0.1694 0.1309,0.346 0.1963,0.5191 -0.093,0.1834 -0.1867,0.3668 -0.2801,0.5502 0.3969,0.1373 0.8643,0.1474 1.1904,0.4123 0.1153,0.094 -0.031,0.4147 -0.1795,0.4078 -5.1439,-0.236 -10.4624,-3.7655 -15.2135,-5.3626 -3.8589,-1.9617 -5.3003,-2.5501 -8.8947,-4.9451 -7.3364,-4.8884 -13.5226,-11.3038 -20.4843,-16.6731 -5.2931,-4.7058 -7.6084,-6.848 -13.1171,-11.3988 -5.918,-4.8892 -12.194,-9.3882 -17.3421,-15.1434 -10.0119,-10.1055 -19.438,-20.8602 -30.5468,-29.8106 -8.6173,-7.8207 -16.584,-16.4029 -23.4469,-25.8134 -4.9106,-7.3949 -9.8724,-14.9254 -13.7715,-22.9209 -3.4181,-7.0089 -4.3862,-10.7085 -7.2246,-17.7443 -0.4869,-1.2068 -1.073,-2.3711 -1.6094,-3.5568 0,-21.2132 -29.9981,-21.2159 -30,0 z" /><path
       style="fill:#e7e7e7;fill-opacity:1;stroke-width:20;paint-order:markers stroke fill"
       id="path2073"
       d="m 1551.8835,340.00712 c -2.0586,4.08726 -4.1945,8.13721 -6.0282,12.33189 -2.0581,4.74178 -2.3837,9.91206 -2.8968,14.98483 -0.7886,7.62426 -1.6181,15.24387 -2.367,22.87223 -0.5288,6.16707 -1.2431,12.31469 -2.3303,18.40878 -0.6752,3.37735 -1.3928,6.74807 -2.3879,10.04716 -1.015,2.93097 -1.9297,5.89115 -2.7517,8.88174 -0.6599,2.47449 -1.2622,4.96372 -1.8816,7.44852 -0.5283,2.12143 -1.0395,4.24733 -1.5866,6.36405 -0.3193,1.31715 -0.7886,2.59046 -1.2391,3.8666 -0.6541,1.83536 -1.2785,3.6798 -1.8427,5.54476 -0.8391,2.69219 -1.6645,5.38838 -2.4673,8.09165 -1.2579,4.25783 -2.0659,8.62486 -2.7798,13.0007 -0.6639,4.26836 -1.5189,8.50283 -2.3992,12.73077 -1.0422,4.86018 -2.166,9.7024 -3.1569,14.57338 -1.1468,5.75376 -1.83,11.58264 -2.4318,17.41392 -0.6068,6.21253 -1.1199,12.43373 -1.6687,18.65157 -0.502,5.62575 -1.0661,11.24564 -1.6039,16.86801 -0.5875,6.14145 -1.1174,12.28828 -1.6357,18.4359 -0.547,6.47245 -1.0892,12.94529 -1.6238,19.41877 -0.6346,6.56347 -0.9311,13.14993 -1.0994,19.73956 -0.121,5.89436 -0.1192,11.79026 -0.1207,17.68557 -0.012,6.50573 -0.4122,13.00163 -0.6684,19.50029 -0.3101,7.36325 -0.3443,14.73105 -0.2126,22.09832 0.1355,6.91065 0.3435,13.81953 0.5389,20.7287 0.2249,6.44867 0.5508,12.89344 0.952,19.33342 0.1809,3.87925 0.5185,7.74769 0.7804,11.62154 0.1791,2.81387 0.2152,5.63364 0.2378,8.45219 -0.025,3.22995 -0.3765,6.44758 -0.7038,9.65779 -0.6295,5.12258 -1.019,10.26555 -1.3004,15.41757 -0.2395,6.70144 -0.4749,13.40366 -0.6525,20.10719 -0.1934,8.47061 -0.1872,16.94344 -0.3657,25.41429 -0.1877,8.02616 -0.7141,16.03777 -1.1734,24.05126 -0.4592,7.98176 -0.5678,15.97681 -0.6359,23.96958 -0.1317,8.25368 0.035,16.50392 0.3892,24.74963 0.4157,7.62778 0.9468,15.24659 1.2345,22.88082 0.1649,7.88247 0.4555,15.75972 0.8886,23.63182 0.4757,6.63321 0.8757,13.26837 1.08,19.91566 0.097,6.56286 0.3654,13.12032 0.853,19.66547 0.5694,6.34932 1.5662,12.64936 2.4115,18.96565 1.0276,7.1854 1.9621,14.38111 2.7075,21.60135 0.8825,10.59558 1.6209,21.19868 2.6929,31.77818 1.144,10.6077 2.7318,21.1627 4.4451,31.6915 1.619,10.3382 3.9156,20.5347 6.7267,30.6085 2.8257,9.4818 6.3839,18.7198 9.8085,27.9952 2.8005,7.7672 5.7835,15.4662 8.6678,23.2021 2.4953,6.3752 4.2689,12.9776 5.804,19.6375 1.703,7.855 3.1591,15.7601 4.5822,23.6696 1.163,6.7675 2.3842,13.5215 3.8698,20.2262 1.3879,6.1675 3.0651,12.2636 4.8075,18.3387 1.6112,5.6378 3.329,11.2437 5.0886,16.8367 1.6018,5.0308 3.3442,10.0158 5.1792,14.9658 1.6027,4.0721 3.2512,8.1267 4.906,12.178 2.001,4.7828 4.1979,9.4796 6.2486,14.2408 2.2501,5.2509 4.3275,10.5732 6.2054,15.968 1.7895,5.3392 3.573,10.6799 5.4458,15.9906 2.2404,6.3089 4.2721,12.6882 6.2591,19.0805 2.254,7.5048 4.5928,14.982 7.1923,22.3746 2.6349,7.4113 5.7411,14.6417 8.8107,21.88 2.959,7.1731 6.3755,14.1381 9.9215,21.0349 2.4525,4.5706 4.7423,9.2178 6.7474,14.0015 2.163,5.0842 3.6587,10.4064 5.1611,15.712 1.6061,5.6417 3.0351,11.3316 4.382,17.0401 1.5437,6.5595 2.9929,13.1407 4.4704,19.7154 1.4178,6.424 3.1182,12.7782 4.9412,19.0974 1.1643,4.1082 2.5404,8.1491 4.0719,12.1335 1.1209,2.7733 2.2214,5.554 3.3047,8.3422 1.5201,4.0714 3.3327,8.0185 5.2578,11.9114 2.3792,4.6034 4.9856,9.0836 7.6424,13.5308 2.1422,3.5116 4.1206,7.113 5.9582,10.7917 1.3532,2.784 2.5049,5.6584 3.6928,8.515 0.9647,2.342 1.7907,4.7349 2.5385,7.1537 1.0434,3.2891 1.8391,6.6468 2.7433,9.9746 0.9256,3.4518 2.138,6.8141 3.3395,10.1763 1.1417,3.3213 2.5056,6.5603 3.9725,9.7494 0.917,1.9125 1.7581,3.8594 2.6582,5.7797 1.0586,2.3273 2.1604,4.6343 3.2768,6.9344 1.2502,2.6377 2.4964,5.2765 3.8465,7.8648 1.2091,2.2872 2.5953,4.4724 4.0046,6.6396 1.4381,2.3219 3.1221,4.4643 4.906,6.5268 1.6726,1.8197 3.3805,3.604 5.0315,5.4435 1.6788,1.7947 3.2697,3.6659 4.7965,5.5906 1.1279,1.5597 2.3551,3.0469 3.4841,4.6052 0.4063,0.5378 0.8009,1.0842 1.194,1.6316 12.3857,17.2219 36.7411,-0.2941 24.3554,-17.516 v 0 c -0.462,-0.6417 -0.9246,-1.2831 -1.4002,-1.9149 -1.3668,-1.8414 -2.7832,-3.646 -4.1563,-5.4828 -1.902,-2.3858 -3.8669,-4.7202 -5.948,-6.9528 -1.5463,-1.7226 -3.1209,-3.4173 -4.7199,-5.0911 -0.8838,-1.0056 -1.7188,-2.0377 -2.3963,-3.1997 -0.8957,-1.3761 -1.7931,-2.7534 -2.5756,-4.1984 -1.2201,-2.3148 -2.3001,-4.6986 -3.4375,-7.0544 -1.0615,-2.1832 -2.105,-4.3746 -3.1097,-6.5846 -0.8783,-1.8625 -1.6854,-3.7576 -2.5802,-5.6126 -1.1034,-2.3664 -2.1054,-4.7823 -2.9519,-7.2531 -0.9417,-2.6352 -1.9139,-5.2636 -2.645,-7.9675 -1.0041,-3.6724 -1.88,-7.3804 -3.0448,-11.0078 -1.0318,-3.2968 -2.1579,-6.5628 -3.4822,-9.7551 -1.4559,-3.5 -2.8814,-7.0162 -4.5627,-10.4166 -2.1765,-4.3451 -4.5083,-8.6062 -7.0359,-12.7586 -2.2579,-3.7772 -4.4766,-7.5795 -6.5215,-11.4774 -1.5362,-3.0811 -2.9691,-6.2112 -4.1678,-9.4413 -1.0731,-2.7615 -2.1586,-5.5175 -3.2737,-8.2624 -1.2263,-3.1732 -2.3172,-6.3951 -3.2434,-9.6697 -1.6593,-5.7417 -3.2071,-11.5151 -4.4938,-17.3533 -1.5013,-6.6804 -2.9741,-13.3673 -4.5434,-20.0323 -1.4507,-6.1383 -2.9877,-12.2572 -4.7154,-18.3242 -1.8389,-6.4855 -3.7271,-12.9713 -6.3788,-19.1822 -2.3179,-5.4788 -4.8945,-10.8345 -7.7151,-16.0737 -3.2098,-6.2384 -6.3116,-12.5338 -8.9808,-19.0267 -2.8261,-6.6633 -5.6966,-13.3153 -8.1337,-20.1338 -2.4842,-7.0389 -4.6855,-14.1699 -6.8412,-21.3155 -2.1002,-6.7515 -4.2483,-13.4892 -6.6149,-20.1531 -1.8636,-5.2803 -3.6286,-10.5939 -5.4143,-15.901 -2.1228,-6.0626 -4.4417,-12.054 -6.9799,-17.9557 -1.9786,-4.584 -4.0787,-9.1139 -6.0263,-13.7113 -1.5342,-3.7516 -3.0537,-7.5097 -4.5539,-11.2749 -1.6647,-4.4712 -3.2306,-8.9798 -4.6849,-13.524 -1.6837,-5.3508 -3.3282,-10.7137 -4.8694,-16.1076 -1.5766,-5.4905 -3.0987,-10.999 -4.3582,-16.5725 -1.4064,-6.3057 -2.5248,-12.6655 -3.6294,-19.0302 -1.5111,-8.3967 -3.0595,-16.7885 -4.8814,-25.1244 -1.8404,-7.9172 -3.9712,-15.7652 -6.9215,-23.3521 -2.8739,-7.7053 -5.8438,-15.3746 -8.634,-23.1111 -3.1456,-8.5191 -6.4201,-17.0008 -9.0629,-25.6943 -2.5293,-8.9941 -4.5561,-18.1067 -6.0054,-27.3409 -1.6196,-9.9337 -3.1197,-19.8924 -4.2084,-29.8998 -1.0789,-10.5996 -1.7889,-21.2258 -2.6992,-31.83988 -0.7817,-7.5156 -1.739,-15.00834 -2.8128,-22.48777 -0.7687,-5.74389 -1.6691,-11.47315 -2.2313,-17.24199 -0.4667,-6.10323 -0.6835,-12.22037 -0.7825,-18.34028 -0.2154,-6.88751 -0.6112,-13.76397 -1.111,-20.63666 -0.4254,-7.70088 -0.6995,-15.40703 -0.8648,-23.11799 -0.2934,-7.68599 -0.8073,-15.35766 -1.2408,-23.03648 -0.3351,-7.73022 -0.4884,-15.46455 -0.3623,-23.2024 0.063,-7.50517 0.1585,-15.01275 0.5878,-22.50773 0.4796,-8.37554 1.0256,-16.74932 1.2159,-25.1383 0.1757,-8.4164 0.1772,-16.83454 0.3618,-25.2508 0.1694,-6.42702 0.3997,-12.85245 0.6191,-19.27781 0.2508,-4.68167 0.614,-9.35283 1.1907,-14.00691 0.4355,-4.29942 0.8704,-8.60983 0.8564,-12.93637 -0.028,-3.41612 -0.082,-6.8334 -0.3061,-10.24335 -0.2613,-3.81772 -0.5912,-7.63034 -0.7694,-11.45365 -0.3817,-6.09992 -0.6885,-12.20457 -0.9057,-18.31263 -0.1927,-6.80787 -0.3977,-13.61544 -0.5319,-20.42475 -0.1255,-6.79249 -0.091,-13.58525 0.1944,-20.37408 0.2706,-6.88922 0.6929,-13.77551 0.6916,-20.67251 0,-5.64512 0,-11.2908 0.1111,-16.93505 0.1503,-6.01885 0.4211,-12.03447 1.0073,-18.02881 0.5331,-6.45637 1.074,-12.91209 1.6194,-19.36742 0.5087,-6.03552 1.0289,-12.07024 1.6055,-18.0997 0.5446,-5.69518 1.1163,-11.3878 1.624,-17.08645 0.5361,-6.07393 1.0379,-12.15109 1.6274,-18.22013 0.4981,-4.86267 1.0486,-9.72564 1.9918,-14.52589 0.9719,-4.82113 2.108,-9.60723 3.1252,-14.41889 0.9692,-4.65998 1.9059,-9.32802 2.6402,-14.03186 0.5039,-3.11783 1.0455,-6.23578 1.9274,-9.27344 0.7943,-2.67639 1.615,-5.34447 2.4431,-8.01052 0.4166,-1.41224 0.9156,-2.79712 1.4,-4.18722 0.7384,-2.0959 1.4665,-4.19859 1.9979,-6.3587 0.564,-2.19459 1.1007,-4.39608 1.6454,-6.59551 0.5622,-2.25708 1.1102,-4.51784 1.7033,-6.76712 0.763,-2.79 1.6621,-5.53362 2.5789,-8.27669 1.2928,-4.396 2.3168,-8.86129 3.1706,-13.36326 1.2039,-6.85707 2.0603,-13.76426 2.6452,-20.70219 0.7455,-7.59883 1.5739,-15.18872 2.3581,-22.78356 0.2056,-2.03274 0.3894,-4.15092 0.6028,-6.1378 1.5541,-3.73354 3.6203,-7.23646 5.3584,-10.88375 9.4142,-19.00978 -17.4697,-32.32353 -26.8839,-13.31378 z" /><path
       style="fill:#e7e7e7;fill-opacity:1;stroke-width:20;paint-order:markers stroke fill"
       id="path2075"
       d="m 1730.8397,1644.1149 c 1.6881,2.0896 3.5658,4.0104 5.4111,5.9584 1.3585,1.5018 3.0487,2.833 4.1764,4.4928 -0.091,-0.1203 -0.3126,-0.5068 -0.2739,-0.3608 0.055,0.2083 0.228,0.3663 0.3261,0.5581 0.019,0.038 -0.097,-0.1324 -0.087,-0.091 0.1962,0.8355 0.7323,1.6313 1.0897,2.4142 0.7331,1.7552 1.6695,3.4082 2.5655,5.082 1.1279,1.9129 2.2932,3.7973 3.4644,5.685 0.86,1.5337 1.8559,2.9858 2.7981,4.4691 1.0925,1.3761 1.9814,2.9194 3.1567,4.2316 0.4914,0.5487 1.0124,1.07 1.5185,1.605 1.8984,1.9087 3.8773,3.7359 5.9221,5.4864 1.0613,0.9153 2.2061,1.7243 3.3521,2.5281 17.3906,12.1477 34.57,-12.4463 17.1794,-24.594 v 0 c -0.3593,-0.249 -0.72,-0.4652 -1.0526,-0.7502 -1.5007,-1.2756 -2.9397,-2.6232 -4.3267,-4.0216 0.1716,0.2048 0.3466,0.4068 0.5149,0.6144 0.024,0.03 0.073,0.1342 0.05,0.1032 -0.4005,-0.5531 -0.7293,-1.1669 -1.2049,-1.6569 -0.082,-0.084 0.1156,0.2038 0.1733,0.3056 -1.3484,-2.0874 -1.4688,-2.1881 -2.5942,-4.1452 -0.8132,-1.309 -1.7671,-2.8414 -2.5241,-4.0591 -0.5979,-1.1102 -1.2458,-2.1842 -1.7112,-3.3622 -1.1666,-2.5469 -2.281,-5.1322 -3.8958,-7.4388 -2.0488,-2.7849 -4.35,-5.3517 -6.8508,-7.741 -1.4053,-1.48 -2.8536,-2.923 -4.1303,-4.5182 -13.5804,-16.2964 -36.627,2.9091 -23.0467,19.2055 z" /><path
       style="fill:#e7e7e7;fill-opacity:1;stroke-width:20;paint-order:markers stroke fill"
       id="path2424"
       d="m 1551.3887,337.22657 c -7.6437,-0.0432 -15.0596,2.32105 -22.3108,4.49759 -7.1732,1.5326 -13.895,3.20853 -20.7685,5.88846 -9.689,4.08903 -18.5746,9.77231 -26.925,16.11048 -6.7899,5.4188 -12.9245,11.96682 -16.611,19.93615 -0.8874,1.91825 -1.5195,3.94459 -2.2792,5.91687 -2.8469,9.72259 -4.2161,19.79729 -5.029,29.87128 -1.0788,10.86934 -1.7515,21.76023 -2.0944,32.67559 -0.4117,8.15316 -1.0878,16.28092 -2.0245,24.38749 -1.0762,8.06564 -1.305,16.1948 -1.465,24.31896 -0.7701,8.34422 0.882,16.49572 2.0264,24.70084 -0.052,2.08743 0.4452,4.30163 -0.096,6.36424 -0.097,0.37057 -0.3824,0.66865 -0.5108,1.02962 -1.3372,4.29181 -0.6207,2.20515 -2.1367,6.26441 -4.5474,10.90414 -4.958,22.85193 -5.5907,34.48648 -0.8426,10.00569 -1.4463,20.02697 -1.8042,30.06116 -0.3202,15.71456 -0.2607,31.43488 -0.2703,47.15209 -0.3649,6.76447 0.5086,13.61408 -0.1739,20.36752 -0.1045,1.03356 -1.2751,8.64878 -1.3371,9.05772 -2.1375,10.01953 -3.9316,20.08602 -5.5293,30.20321 -1.8107,11.60159 -2.4001,23.33348 -2.6936,35.05544 -0.3504,15.19611 -0.054,30.41309 1.0306,45.57464 1.2941,11.72263 1.7091,23.51061 2.3883,35.27901 0.9881,11.36478 1.9254,22.73316 2.8892,34.09979 1.4433,13.20896 3.7108,26.30559 5.4609,39.47332 0.8762,8.15129 0.9638,16.36371 1.1533,24.55228 0.4935,21.20746 30.4854,20.50957 29.9919,-0.69789 v 0 c -0.2171,-9.27897 -0.3413,-18.58455 -1.4077,-27.81483 -1.694,-12.69555 -3.8452,-25.32713 -5.3062,-38.05431 -0.9461,-11.09543 -1.8424,-22.19478 -2.8313,-33.28685 -0.6878,-11.91885 -1.1111,-23.85878 -2.4178,-35.73151 -1.0564,-14.18711 -1.2582,-28.43535 -0.9603,-42.6558 0.2509,-10.40249 0.744,-20.81631 2.3355,-31.11442 1.6079,-10.18469 3.4672,-20.30516 5.5603,-30.40338 0.5723,-3.80455 1.3025,-8.29302 1.6392,-12.10699 0.6387,-7.23455 -0.075,-14.53448 0.208,-21.77867 0.01,-15.36864 -0.046,-30.74011 0.2514,-46.1064 0.3478,-9.85184 0.9659,-19.68857 1.7798,-29.51313 0.4604,-8.65619 0.3933,-17.67316 3.8057,-25.78587 3.5016,-9.69637 5.7159,-17.77481 4.2744,-28.18347 -0.953,-6.63487 -2.4576,-13.14275 -1.7349,-19.90323 0.1383,-7.16928 0.3044,-14.3439 1.2724,-21.46059 1.0329,-8.93984 1.7733,-17.90512 2.2083,-26.89648 0.3226,-10.44337 0.9839,-20.8606 2.0167,-31.25965 0.5641,-7.4336 1.5844,-14.83386 3.3562,-22.08315 1.4634,-5.13131 4.7257,-8.9934 8.9483,-12.21415 6.1082,-4.80198 12.7884,-8.92281 19.894,-12.08199 5.8049,-2.54092 12.0769,-3.23175 18.1358,-4.96218 2.9671,-0.8917 5.9027,-1.72704 8.9095,-2.47438 0.8954,-0.22254 1.7437,-0.6744 2.6628,-0.75533 0.7003,-0.0616 1.4061,0 2.1091,0 21.2132,0 21.2132,-29.99999 0,-29.99999 z" /><path
       style="fill:#e7e7e7;fill-opacity:1;stroke-width:20;paint-order:markers stroke fill"
       id="path2426"
       d="m 1443.5156,934.43649 c -0.6135,8.91201 -1.0552,17.833 -1.3461,26.76102 -0.3045,10.34396 -0.297,20.69361 -0.3144,31.04105 -0.5034,12.89024 2.2404,25.53254 6.3799,37.65744 3.4623,8.8859 7.1789,17.6655 10.7322,26.5165 3.6365,9.5584 6.3959,19.429 11.3334,28.4245 1.116,1.3589 1.9063,3.0699 3.348,4.0768 10.3791,7.2493 12.8303,5.6707 24.9874,-3.4865 1.9529,-1.471 2.7851,-9.863 2.7772,-11.8578 -0.012,-2.9491 -0.4608,-5.8801 -0.6913,-8.8202 -2.7866,-16.602 -6.9327,-32.9267 -9.1043,-49.6289 -1.4175,-10.6616 -2.6512,-21.36318 -4.3769,-31.98163 -9.9918,0.97173 -20.4113,-0.1355 -29.9754,2.91518 -2.1426,0.68342 -0.2326,4.49222 -0.2956,6.74026 -0.3605,12.86489 0.1397,25.74169 0.4954,38.60109 0.8106,14.3561 -0.4514,28.7011 -1.3024,43.0236 -0.042,6.7193 -1.7005,13.8203 0.2671,20.4418 1.5335,5.1606 2.4598,5.9717 5.1541,9.8264 6.0535,6.8964 13.7934,10.5055 23.1862,6.977 4.5977,-1.727 6.2086,-4.6987 8.6468,-8.1648 1.486,-2.076 2.0801,-4.7601 3.5557,-6.8456 0.066,-0.093 -0.025,0.2343 -0.086,0.3303 -0.2616,0.4116 -0.5807,0.7837 -0.8711,1.1756 -3.5614,1.4049 -6.8773,4.6195 -10.6843,4.2147 -4.3754,-0.4653 -7.819,-4.0831 -11.4499,-6.5685 -0.6441,-0.4409 -1.1092,-2.8273 -1.1371,-2.0471 -0.054,1.4977 0.6853,2.9181 1.0539,4.3707 0.8228,3.2424 1.7104,6.4679 2.5614,9.703 2.0388,9.3047 3.8247,18.7156 5.2068,28.1493 1.0907,8.8882 1.2593,17.7705 3.0947,26.5533 1.765,9.8056 4.9517,19.1865 8.0735,28.6205 3.2116,9.7897 5.8966,19.6824 7.6267,29.8384 1.6672,11.1278 2.3502,22.3355 4.5023,33.388 2.4463,9.7024 4.4582,19.496 6.7857,29.226 1.9559,7.5947 3.6201,15.3465 6.199,22.7672 1.4546,4.1857 2.8844,7.1302 4.689,11.1293 4.11,10.3288 8.2378,20.6575 11.4574,31.3047 3.8936,12.3457 8.9084,24.3073 13.9997,36.1978 4.639,9.1848 7.5841,19.3091 12.2944,28.4346 1.1592,2.2457 2.4633,4.4137 3.6949,6.6206 7.2131,12.2876 15.9736,23.5387 23.6871,35.499 7.9787,11.2786 15.072,23.1364 21.8739,35.1524 5.0007,8.6579 10.8249,16.7978 16.0263,25.3277 2.637,4.6128 5.8888,8.8454 8.6031,13.4094 1.399,2.3524 2.6013,4.8164 3.9188,7.2154 4.4044,8.4572 9.8819,16.2798 15.0216,24.2934 4.779,6.9416 9.0544,14.1594 12.7387,21.7353 2.6605,7.9144 7.8742,14.4815 12.4898,21.3216 5.2296,7.7881 11.5151,14.8508 17.9795,21.631 5.8925,5.6293 11.5858,11.3967 16.8413,17.621 7.4249,9.4982 15.1076,18.769 24.4886,26.3917 5.9166,5.0844 13.5793,6.7591 20.4167,10.0502 2.8877,1.364 1.4503,0.6759 4.3124,2.0641 19.09,9.2504 32.1722,-17.7469 13.0822,-26.9974 v 0 c -3.2424,-1.5699 -1.6107,-0.7902 -4.8951,-2.3387 -4.7339,-2.1185 -9.8238,-3.4901 -14.234,-6.2511 -8.0372,-6.1382 -13.8046,-14.6427 -20.2705,-22.2986 -5.6705,-6.6875 -11.7247,-12.9794 -18.0932,-19.01 -5.3271,-5.5059 -10.4653,-11.3112 -14.7688,-17.6558 -5.0307,-7.4394 -0.3375,-0.5481 -5.1456,-7.4757 -0.6106,-0.8798 -1.1512,-1.8104 -1.8133,-2.6521 -0.1083,-0.1377 -0.3906,-0.086 -0.4651,-0.2443 -1.1241,-2.3895 -1.5588,-5.0713 -2.9777,-7.3412 -4.2231,-8.5904 -9.0013,-16.8582 -14.4339,-24.7469 -4.7725,-7.4403 -9.8815,-14.6903 -13.9782,-22.5379 -4.1081,-7.4801 -8.531,-14.7247 -13.2307,-21.8463 -5.0512,-8.2257 -10.6035,-16.1328 -15.5099,-24.451 -7.093,-12.5139 -14.4705,-24.8805 -22.7728,-36.6374 -7.4045,-11.4588 -15.7212,-22.291 -22.7699,-33.9817 -5.8762,-10.2318 -9.5472,-21.4487 -14.5377,-32.1223 -4.67,-10.8783 -9.2744,-21.822 -12.8717,-33.1094 -3.6336,-11.8821 -8.1554,-23.454 -12.8351,-34.9592 -1.0817,-2.3725 -2.3576,-4.6692 -3.2097,-7.1335 -2.4135,-6.9799 -4.0094,-14.2581 -5.8357,-21.4011 -2.2708,-9.3484 -4.1565,-18.784 -6.5384,-28.1062 -2.2558,-10.7542 -2.4255,-21.7932 -4.3565,-32.6082 -2.0404,-11.6032 -4.9929,-22.9535 -8.7052,-34.1397 -2.7981,-8.4513 -5.7491,-16.8008 -7.248,-25.6092 -1.9138,-8.0421 -1.2162,-16.4205 -2.7267,-24.5489 -1.5811,-10.5121 -3.5185,-21.0092 -5.8677,-31.3701 -1.0821,-4.1134 -2.035,-8.2975 -3.2221,-12.381 -0.644,-2.2152 -0.4621,-4.9421 -2.0582,-6.6077 -12.0728,-12.5985 -11.2626,-9.2387 -24.8908,-4.657 -3.2101,3.4986 -5.3111,6.7 -7.2789,10.9474 -0.025,0.053 0.1073,-0.048 0.1609,-0.072 1.5019,-1.4511 2.897,-2.8746 5.161,-3.4638 3.1358,-0.816 10.3179,-1.4582 12.2954,2.6619 0.096,0.7488 0.2329,1.4935 0.2868,2.2466 0.01,0.1168 -0.2284,0.372 -0.2414,0.2555 -0.4803,-4.289 0.6643,-8.6484 0.5247,-12.9321 0.9027,-15.1912 2.1881,-30.4065 1.3437,-45.633 -0.3389,-12.2392 -0.7103,-24.4673 -0.5026,-36.71168 0.023,-1.37545 1.4375,-3.85661 0.089,-4.12603 -9.6276,-1.92278 -19.6016,-1.15226 -29.4025,-1.72842 1.7135,10.29575 2.8277,20.69513 4.2369,31.03383 2.1824,16.4269 5.9395,32.5444 9.009,48.8196 0.201,1.2088 0.4092,2.4165 0.6032,3.6265 0.054,0.3386 -0.092,1.2702 0.1417,1.019 0.6747,-0.7265 0.4893,-2.1787 1.3657,-2.6422 9.0306,-4.7761 16.8201,-10.6352 23.2253,-0.1269 -1.3003,-1.695 -0.767,-0.8656 -2.1021,-4.2982 -2.5957,-6.6734 -4.6439,-13.5504 -7.3104,-20.1979 -3.3886,-8.4361 -6.9073,-16.8148 -10.261,-25.2632 -3.2412,-8.8492 -5.0723,-18.2298 -4.6903,-27.68068 0.017,-10.04015 0.01,-20.08249 0.2987,-30.11938 0.2984,-9.25282 0.8331,-18.49157 1.3618,-27.73325 0,-21.21321 -29.9999,-21.21321 -29.9999,0 z" /><path
       style="fill:#e7e7e7;fill-opacity:1;stroke-width:20;paint-order:markers stroke fill"
       id="path2432"
       d="m 1494.3641,408.74886 c 1.4286,-0.51384 2.8708,-0.99168 4.286,-1.54154 1.8392,-0.71459 10.0929,-4.20386 11.4778,-4.77726 5.7167,-2.36694 11.4634,-4.64484 17.2416,-6.8562 1.7151,-0.67675 3.4242,-1.36893 5.1453,-2.03026 4.0142,-1.54246 4.9848,-1.85848 9.0467,-3.22736 1.3836,-0.46625 2.7496,-0.9907 4.1559,-1.38276 0.4388,-0.12232 1.7989,-0.26826 1.3579,-0.15436 -0.7387,0.19076 -1.504,0.25754 -2.256,0.38629 -23.9556,-29.57502 -13.758,-6.58778 -10.4477,-24.08089 0.1784,-0.94229 -1.5237,1.16485 -2.2908,1.74051 -5.4082,4.05873 -10.6977,8.23939 -15.9735,12.46994 -8.1361,6.77601 -16.5948,13.16641 -24.409,20.32288 -4.5788,4.19336 -4.7313,4.5002 -8.8742,8.86431 -5.2556,6.07201 -10.2572,12.42333 -14.102,19.50241 -0.7622,1.40338 -1.4351,2.85348 -2.1526,4.28022 -2.7076,6.75066 -6.7645,15.45093 -4.0454,22.86876 1.1061,3.01736 3.5525,5.35638 5.3288,8.0346 3.3305,1.36581 6.4042,3.79923 9.9915,4.09744 10.6014,0.88136 17.3386,-7.42894 23.2623,-14.57168 4.664,-5.6238 7.7128,-9.65232 12.2723,-15.5184 9.6871,-13.18948 20.6804,-25.3656 32.5027,-36.66162 1.826,-1.72807 3.8133,-3.24014 5.9412,-4.567 0.4076,-0.25418 0.8632,-0.44177 1.2281,-0.75427 1.4772,-1.26508 3.6991,-2.10831 4.2814,-3.96399 1.5888,-5.06362 1.281,-10.5365 1.9215,-15.80473 -7.8989,-1.82078 -15.5908,-5.41276 -23.6967,-5.46234 -2.6009,-0.0159 -3.9243,3.42291 -5.7431,5.28219 -7.7671,7.93993 -12.8103,17.93804 -17.9115,27.66388 -6.3904,12.49548 -13.2904,24.7346 -19.2646,37.44135 -3.4313,7.29816 -4.3363,9.74291 -7.305,16.9768 -5.597,13.42665 -7.466,27.85573 -9.0413,42.19265 -0.5371,4.45487 -0.6622,8.94702 -1.1628,13.40488 -0.078,0.69374 -0.174,1.38599 -0.2982,2.07296 -0.2084,1.15266 -0.081,1.31204 -0.3139,0.93903 9.3645,3.48657 18.4418,7.87252 28.0935,10.45972 0.9216,0.24702 0.7352,-1.76186 1.1506,-2.62072 0.8796,-1.81867 1.8419,-3.59646 2.7333,-5.40938 6.4336,-13.08423 12.4885,-26.32594 18.4881,-39.61329 8.4179,-19.06844 17.0108,-38.05115 25.8811,-56.91211 2.356,-4.79401 7.6538,-14.47858 -0.055,-17.90785 -8.2141,-3.65421 -18.2951,0.0111 -26.8171,2.87475 -2.8607,0.96126 -3.2202,5.10697 -4.7237,7.72367 -4.9628,8.63735 -6.6604,12.34802 -11.1655,21.33081 -6.5283,12.78692 -11.2613,26.31538 -15.0285,40.14505 -3.3317,12.23105 -5.4322,21.88702 -6.9189,34.56249 -0.6927,5.90563 -0.8734,11.86011 -1.3101,17.79016 -0.8516,16.38244 0.8037,32.71226 1.4424,49.05912 0.1221,3.12655 0.2065,11.82587 0.2439,14.90477 0,6.80207 0.1376,13.603 0.2951,20.40284 0.056,2.41081 0.1376,7.18786 0.3542,9.71111 0.104,1.21042 0.3137,2.40943 0.4705,3.61416 0.6588,1.84345 0.026,5.36098 1.9764,5.53037 9.2361,0.80216 19.0661,0.53316 27.6549,-2.95685 2.7356,-1.11159 0.9497,-5.83383 1.216,-8.77464 0.2157,-2.38236 0.2323,-4.7806 0.2277,-7.1727 -0.019,-9.94894 -0.4056,-12.52413 -1.1587,-22.81608 -1.6017,-19.61425 -4.412,-39.09755 -6.4354,-58.66667 -1.1372,-6.64903 -0.5063,-13.74494 -2.7717,-20.19869 -0.6505,-1.85327 -0.8136,-4.30355 -2.4784,-5.34585 -5.2515,-3.2879 -11.4823,-4.65952 -17.2235,-6.98928 -3.8492,2.78992 -8.1285,5.06674 -11.5475,8.36974 -2.3845,2.30357 -6.7087,12.01338 -7.7663,14.78153 -2.4214,6.33736 -4.0472,12.75229 -5.3449,19.40322 -0.6834,3.50237 -1.1379,7.04554 -1.7068,10.56831 -2.6439,19.64105 -2.9387,39.48231 -3.1446,59.26714 -0.086,12.48794 0.078,24.97354 -0.2047,37.45907 -0.3066,12.16901 -0.4203,24.34135 -0.4934,36.51361 0.08,10.30079 -0.131,20.59324 -0.4253,30.88844 -0.1275,4.36925 -0.2288,8.73919 -0.3041,13.10963 -0.036,2.09997 -0.1568,5.53786 0.1235,7.60383 0.2232,1.64505 0.6757,3.25075 1.0135,4.87614 7.9715,12.28024 5.4691,13.41787 28.894,2.57183 2.507,-1.16078 2.0871,-5.1204 2.9586,-7.74205 0.6827,-2.0537 1.1686,-4.16817 1.6982,-6.26655 0.8801,-3.487 2.5954,-11.13258 3.3876,-14.61831 4.2945,-18.83193 6.3442,-38.06089 8.077,-57.26697 0.7166,-8.84865 1.0825,-17.71888 1.5855,-26.58073 0.1095,-1.92863 0.1664,-3.86122 0.3384,-5.78527 0.021,-0.23559 0.4691,-0.7211 0.2386,-0.66826 -8.872,2.03319 -17.6507,4.45405 -26.4761,6.68107 -0.7856,-0.75906 -2.0747,-3.33253 -2.3568,-2.27719 -0.8595,3.21487 0.1944,6.65271 0.2978,9.97887 0.1477,4.75043 0.3061,9.50052 0.4552,14.25093 0.4314,13.74368 0.8308,27.48785 1.1995,41.23333 0.5078,19.10268 0.6609,38.212 0.7364,57.32047 0.021,10.3636 0.1374,20.72545 -0.2116,31.08423 -0.025,3.06813 -0.2924,6.12383 -0.5594,9.17741 -1.8251,21.13455 28.0636,23.71572 29.8888,2.58117 v 0 c 0.3059,-3.57872 0.6034,-7.16041 0.6538,-10.75436 0.3575,-10.73324 0.2599,-21.46908 0.2282,-32.2072 -0.077,-19.33707 -0.2328,-38.67504 -0.747,-58.00624 -0.3702,-13.79659 -0.771,-27.59186 -1.204,-41.38663 -0.1489,-4.74525 -0.3013,-9.49039 -0.4547,-14.23548 -0.1223,-3.78399 0.1761,-7.60579 -0.3725,-11.35179 -0.6416,-4.38084 -2.1193,-8.59782 -3.1789,-12.89674 -9.1349,1.79559 -18.6075,2.34069 -27.4048,5.38676 -1.3832,0.47892 -0.5351,2.88163 -0.6813,4.33805 -0.1959,1.95263 -0.2325,3.91798 -0.3436,5.87724 -0.4834,8.51821 -0.835,17.04433 -1.5107,25.55071 -1.6053,17.8758 -3.4684,35.77966 -7.4523,53.31015 -0.6217,2.73707 -2.3831,10.56474 -3.107,13.48558 -0.4125,1.66478 -1.0043,3.28742 -1.3196,4.97334 -0.055,0.29298 -0.07,0.86823 0.228,0.86456 24.7272,-0.30673 18.0419,-7.77894 25.3319,5.03703 0.041,0.59991 0.7003,1.6315 0.123,1.79975 -0.5762,0.16793 -0.1284,-1.19531 -0.1376,-1.79549 -0.018,-1.1938 0.035,-2.38765 0.055,-3.5814 0.073,-4.27199 0.1724,-8.54345 0.297,-12.81425 0.3007,-10.52084 0.5153,-21.0394 0.437,-31.56582 0.072,-12.00653 0.1836,-24.01319 0.4864,-36.01649 0.2834,-12.60795 0.1347,-25.21556 0.2107,-37.82586 0.1881,-18.31668 0.4194,-36.68588 2.7761,-54.87961 1.1901,-7.68062 2.3355,-15.29974 4.9169,-22.66844 0.5837,-1.666 1.3088,-3.28004 2.0286,-4.89188 0.4346,-0.97306 2.4875,-2.70733 1.4325,-2.85809 -2.2387,-0.31993 -4.2913,1.4286 -6.437,2.14292 -6.3532,-3.44027 -13.6421,-3.03422 -14.5107,-9.55583 -0.045,-0.33684 0.3428,0.60196 0.4031,0.93636 0.2215,1.22836 0.3057,2.47769 0.4365,3.71899 0.3855,3.65821 0.6611,7.32758 1.099,10.98055 2.001,19.28185 4.7465,38.48182 6.3587,57.80535 0.6476,8.51164 1.0417,11.49749 1.0896,19.67267 0.012,2.04152 -0.3215,4.08564 -0.1773,6.12208 0.016,0.22011 0.4055,0.2194 0.6262,0.21492 28.3934,-0.57631 24.2284,-9.37635 28.129,3.49134 -0.6084,-2.3817 -0.4458,-7.24575 -0.4986,-9.52114 -0.1557,-6.70406 -0.2968,-13.40916 -0.2902,-20.11545 -0.053,-4.32575 -0.1198,-11.91027 -0.286,-16.16675 -0.5895,-15.1016 -2.1376,-30.18404 -1.4725,-45.31879 0.3399,-5.07849 0.4572,-10.1768 1.0195,-15.23547 1.2848,-11.55856 3.0336,-19.44328 6.0255,-30.63013 3.2556,-12.1734 7.342,-24.08306 13.1134,-35.31388 4.4587,-8.92498 5.2127,-10.72351 10.0098,-19.23526 1.1012,-1.95392 5.4606,-4.80068 3.4432,-5.78086 -6.771,-3.28983 -16.4,1.24656 -22.3274,-3.39428 -6.3081,-4.93906 2.4852,-21.65665 -2.3392,-11.80672 -8.9352,19.00209 -17.5968,38.12421 -26.076,57.33529 -5.8314,12.9205 -11.7303,25.78674 -17.9667,38.51767 -1.1182,2.2828 -2.2912,4.53866 -3.3979,6.82707 -0.3148,0.65098 -1.5128,1.66653 -0.8656,1.98916 8.9241,4.44905 18.4457,7.58214 27.6686,11.3732 0.8374,-2.85483 0.9722,-3.00988 1.4765,-6.05634 0.8916,-5.38565 0.9147,-10.86848 1.5598,-16.2814 1.2547,-11.55134 2.5218,-23.24264 6.9825,-34.0859 2.567,-6.28806 3.506,-8.80047 6.4727,-15.12509 5.8546,-12.48114 12.6565,-24.48476 18.9189,-36.75912 2.9705,-5.70267 5.7939,-11.66733 9.6225,-16.87203 0.9052,-1.2306 2.0062,-2.30627 2.9476,-3.50946 0.3096,-0.39582 1.2538,-1.0655 0.7987,-1.27876 -6.5112,-3.0512 -13.4144,-5.18411 -20.1216,-7.77618 3.9492,-26.11869 -2.0396,-9.09825 5.5013,-17.67168 0.5104,-0.5802 -1.32,0.80412 -1.9665,1.22743 -3.5939,2.35341 -7.0056,4.95575 -10.1308,7.91326 -12.8653,12.32967 -24.8708,25.57201 -35.451,39.93026 -7.4764,9.62824 -4.5116,5.9101 -11.5685,14.64656 -1.0001,1.23815 -2.2269,2.32162 -3.0075,3.70867 -0.1352,0.24032 0.3242,0.55425 0.5995,0.57015 9.9667,0.57586 2.1337,-2.25486 12.5511,3.48557 4.1816,7.91024 3.1571,3.55661 3.0454,11.35295 0,0.25969 0.037,-0.52012 0.095,-0.77332 0.4856,-2.13072 1.267,-4.18738 2.066,-6.21504 2.8875,-6.04404 6.7743,-11.44826 11.1835,-16.4846 9.1584,-9.80697 19.8594,-17.89388 30.2244,-26.36367 3.0114,-2.41583 7.7243,-6.22821 10.8882,-8.65557 3.7371,-2.86703 16.0873,-10.92703 14.7641,-16.20743 -1.8585,-7.41651 -8.9637,-12.38898 -13.4455,-18.58348 -1.9645,0.037 -3.941,-0.10848 -5.8935,0.11086 -3.1133,0.34975 -6.3979,1.5731 -9.3436,2.57072 -5.1211,1.73431 -10.2101,3.55854 -15.208,5.62591 -9.6932,3.71546 -19.3635,7.55478 -28.8836,11.69689 -0.2362,0.10276 -0.445,0.25945 -0.6676,0.38917 -20.5798,5.14496 -13.3037,34.24923 7.2761,29.10427 z" /><path
       style="fill:#e7e7e7;fill-opacity:1;stroke-width:20;paint-order:markers stroke fill"
       id="path2434"
       d="m 1456.5655,746.76224 c -0.7603,7.33169 -1.5074,12.69214 -1.3853,20.23478 0.1754,10.82868 1.4967,22.95991 2.6543,33.67159 1.1756,10.87813 2.5086,21.73867 3.7351,32.61116 2.6521,23.822 3.9363,47.77285 5.1553,71.70354 0.4356,8.42426 -0.8788,25.82021 14.0997,25.61606 7.7799,-0.10604 13.3148,-8.48032 18.3844,-14.38275 1.3789,-1.60544 4.3912,-22.48482 4.4098,-22.60087 0.605,-4.56766 1.2247,-9.13339 1.815,-13.70298 0.9646,-7.46823 2.2691,-18.4422 3.3527,-25.99587 1.4113,-9.83768 3.2057,-19.61313 4.967,-29.39211 1.2225,-6.77743 2.3958,-13.56489 3.4241,-20.37487 0.1763,-1.16756 0.9247,-5.87013 0.7878,-7.2662 -0.2229,-2.27335 -0.812,-4.49578 -1.218,-6.74368 -9.5708,0.42548 -19.5901,-1.65025 -28.7124,1.27643 -3.0045,0.96396 -2.1962,5.92011 -3.1215,8.93681 -5.9856,19.51434 -9.0957,39.80294 -12.3498,59.90174 -3.8396,26.33655 -6.2187,52.86143 -7.5428,79.43586 -0.975,18.97351 -0.6599,37.96784 0.1034,56.94004 0.9216,18.61398 2.8437,18.51548 30.7751,6.85258 1.8254,-0.7622 0.2649,-3.94788 0.3447,-5.92448 0.086,-2.1242 0.1011,-4.25067 0.1517,-6.37602 0.3253,-9.90682 0.01,-19.82801 0.2532,-29.7348 0.1151,-4.68537 0.4365,-8.14776 0.789,-12.83327 1.0982,-13.169 2.4531,-26.3779 5.097,-39.33801 0.2987,-1.11686 0.5593,-2.24462 0.8961,-3.35061 2.9787,-9.78262 7.1879,4.894 -18.8972,4.77203 -7.3679,-0.0345 -7.7017,-15.40846 -6.4382,-1.99409 1.1321,14.45604 2.1141,28.93436 2.5565,43.43048 0.2428,7.96063 0.2622,14.56963 0.3347,22.51062 0.2434,10.70806 -0.3308,21.42847 0.107,32.13305 0.1732,4.2338 0.4026,6.3685 0.7602,10.439 1.1143,11.8712 1.0154,23.8168 1.347,35.7264 0.083,9.7675 1.0042,19.4825 2.3199,29.152 0.6268,3.9327 1.0943,7.8914 1.7211,11.824 0.058,0.3636 0.8335,4.9918 1.1091,5.6088 1.0445,2.3381 2.3925,4.5285 3.5888,6.7927 8.8734,-3.0112 18.3606,-4.6084 26.6204,-9.0335 1.6538,-0.886 0.5247,-3.718 0.6728,-5.5884 0.4812,-6.0762 0.6503,-15.3039 0.7728,-21.0023 0.3175,-14.7644 0.234,-11.8558 0.1979,-26.817 -0.1877,-18.6901 -0.6557,-37.3757 -1.0098,-56.06305 0.01,-1.34723 -0.033,-2.69555 0.022,-4.04167 0.4229,-10.34555 11.0541,8.63095 -18.5386,9.30997 -11.3195,0.25975 -9.7961,-17.46035 -10.2899,-8.54448 0.1187,3.12285 0.1721,6.24888 0.3561,9.36855 0.2715,4.602 1.643,20.93818 2.0014,25.01668 1.1712,13.3298 2.4596,26.6505 3.7055,39.9735 1.5204,15.4985 2.6493,31.1395 6.5555,46.274 0.6521,2.5265 1.4641,5.009 2.1961,7.5135 3.5598,10.2426 9.5595,19.3157 15.0394,28.5859 10.7951,18.261 36.6201,2.9944 25.825,-15.2666 v 0 c -4.2331,-7.1605 -8.9014,-14.1441 -12.103,-21.8503 -0.5686,-1.8803 -1.2043,-3.7417 -1.7057,-5.641 -3.6563,-13.8506 -4.4726,-28.2227 -5.9376,-42.4088 -1.2369,-13.2266 -2.5164,-26.4509 -3.6799,-39.6842 -0.2241,-2.5489 -1.7013,-20.08918 -1.9192,-23.67443 -0.1711,-2.81586 -0.2231,-5.63767 -0.3346,-8.45651 -0.2075,-6.75095 0.6723,-18.99729 -10.7598,-19.83986 -20.5005,-1.51098 -20.4057,12.36025 -20.4271,23.9341 0.3511,18.5243 0.8139,37.0469 1.0045,55.5739 0.036,12.5429 -0.069,25.072 -0.4797,37.6097 -0.075,2.3006 -0.1856,4.6001 -0.3164,6.8983 -0.053,0.9317 -1.1666,2.8462 -0.2351,2.7897 8.6568,-0.5245 17.1034,-2.8866 25.6552,-4.33 0.9133,1.9303 1.7589,3.8941 2.7399,5.7909 0.1535,0.2968 -0.1799,-0.644 -0.2472,-0.9713 -0.1429,-0.6937 -0.272,-1.3905 -0.383,-2.09 -0.6151,-3.8733 -1.0803,-7.7709 -1.6959,-11.6442 -1.1942,-8.5914 -1.9868,-17.2261 -2.0524,-25.9074 -0.3517,-12.517 -0.2594,-25.0699 -1.4533,-37.5458 -0.2825,-3.1279 -0.5123,-5.314 -0.6512,-8.5139 -0.4576,-10.55058 0.1788,-21.12205 -0.099,-31.67644 -0.079,-8.50977 -0.095,-14.90988 -0.3588,-23.46722 -0.4687,-15.20708 -1.4959,-30.39676 -2.7201,-45.55916 -0.709,-5.71097 -1.0978,-19.48727 -9.1666,-21.06731 -20.146,-3.94502 -22.5214,6.85945 -25.6185,19.09821 -2.8121,14.19214 -4.466,28.60264 -5.6012,43.01984 -0.447,6.0887 -0.7201,8.8047 -0.8712,14.93081 -0.2396,9.71505 0.071,19.44428 -0.2453,29.15941 -0.044,1.92694 -0.096,3.85378 -0.1319,5.78088 -0.017,0.8926 -0.9196,2.6911 -0.027,2.6782 9.3695,-0.1354 18.5837,-3.5603 27.942,-3.0817 1.7777,0.091 1.4181,7.43678 1.1098,3.3338 -0.094,-1.2559 -0.1313,-2.5155 -0.197,-3.7732 -0.7315,-18.07398 -1.0458,-36.16871 -0.1158,-54.24433 1.2573,-25.46979 3.5445,-50.89059 7.1952,-76.13536 2.4316,-15.07151 4.8484,-30.14006 8.4373,-44.99199 0.8375,-3.46597 1.8444,-6.88891 2.7957,-10.3254 0.437,-1.57866 2.9123,-4.17102 1.3689,-4.71953 -8.268,-2.93835 -17.3415,-2.69227 -26.0122,-4.03841 -0.2554,-1.85886 -0.4913,-3.72052 -0.7664,-5.57657 -0.03,-0.20439 0.055,0.41373 0.032,0.61907 -0.1314,1.16811 -0.3189,2.32931 -0.4942,3.49165 -0.9928,6.5872 -2.1288,13.15223 -3.3116,19.7076 -1.8432,10.23831 -3.706,20.47311 -5.1826,30.77287 -1.0737,7.48958 -2.3966,18.56853 -3.3537,26.0029 -0.5562,4.3212 -1.138,8.6391 -1.7071,12.95863 -0.5571,3.60849 -1.0428,7.22874 -1.6714,10.82545 -0.3649,2.08799 -3.4185,6.02573 -1.3081,6.2229 5.2306,0.48866 9.9722,-6.58564 14.9634,-4.94715 5.6002,1.83835 6.8201,9.78005 11.3278,13.5777 2.8504,2.40149 -5.5287,-17.2616 -0.6107,-11.16505 -1.2515,-24.54402 -2.5792,-49.10762 -5.3055,-73.53959 -1.2136,-10.75692 -2.524,-21.50295 -3.698,-32.26427 -0.8213,-7.52845 -2.3415,-21.48125 -2.5242,-29.50927 -0.1066,-4.68439 0.4081,-10.43148 0.7766,-15.26238 4.3265,-20.76733 -25.0429,-26.88595 -29.3694,-6.11865 z" /><path
       style="fill:#e7e7e7;fill-opacity:1;stroke-width:20;paint-order:markers stroke fill"
       id="path2436"
       d="m 1494.7786,1112.9669 c -0.01,11.1793 1.1481,22.3086 2.5158,33.3891 1.3961,10.5886 2.2125,21.2445 3.6832,31.8241 0.9568,6.8834 1.3159,8.4442 2.5321,15.0216 2.0172,9.551 5.4152,18.7145 8.59,27.9198 1.4794,3.6308 1.625,4.2456 3.4386,7.6903 0.5409,1.0272 0.9885,2.1294 1.73,3.0226 1.6174,1.9482 2.7704,5.584 5.2985,5.4432 8.131,-0.4525 16.8996,-2.1274 23.3942,-7.0403 3.3792,-2.5562 1.6074,-8.3203 2.4112,-12.4804 -0.025,-3.6419 0.1156,-7.2887 -0.076,-10.9256 -0.393,-7.4737 -1.7271,-17.3349 -2.6707,-24.7934 -1.1041,-8.728 -2.237,-17.4523 -3.4203,-26.1699 -0.1022,-1.1181 0.5728,-4.0521 -0.3067,-3.3543 -0.9458,0.7505 1.0243,3.035 -0.031,3.622 -7.1442,3.9748 -14.9966,6.5919 -22.7865,9.0728 -0.7035,0.224 -1.4185,-1.8334 -1.8426,-1.229 -0.5046,0.7191 0.6582,1.629 0.9915,2.4418 0.6408,1.5628 1.2873,3.1234 1.931,4.6851 5.7358,15.432 13.9292,29.778 20.5687,44.8115 1.0009,2.2662 1.874,4.5866 2.8111,6.8799 0.6799,1.9045 1.4043,3.7937 2.0397,5.7135 1.8394,5.5574 4.7203,23.7662 14.9825,19.9298 8.3756,-3.1311 11.0881,-14.0311 16.6321,-21.0466 -3.8773,-24.0468 -9.6313,-47.7046 -16.32,-71.107 -2.3483,-8.8239 -6.0159,-17.185 -9.1936,-25.7156 -3.6078,-9.6852 2.0355,4.9335 -2.2859,-6.1704 -2.0192,-4.7338 -5.5624,-16.4741 -12.36,-15.2607 -7.8881,1.4081 -14.6855,7.3859 -19.9238,13.4493 -2.2022,2.5491 -0.2788,6.7313 -0.4182,10.097 0.9027,21.9314 3.851,43.7009 6.3833,65.4829 1.776,15.2766 2.0408,17.9153 3.7088,33.1211 2.9509,24.728 7.4311,49.2482 12.597,73.6006 3.4432,16.9596 7.2166,33.8397 11.3966,50.6323 1.6906,6.6957 3.7629,13.3016 6.195,19.7655 0.5729,1.5228 2.8217,7.4325 4.0839,8.6589 2.7284,2.6509 6.0672,4.5906 9.1009,6.8859 6.6925,-5.3735 14.754,-9.3882 20.0777,-16.1205 1.9094,-2.4145 0.065,-6.1579 -0.027,-9.2347 -0.1129,-3.7667 -0.3592,-7.5283 -0.5877,-11.2897 -0.9333,-15.3598 -2.0931,-30.707 -3.0589,-46.0653 -0.9218,-21.5692 -3.6554,-42.9823 -7.0603,-64.2802 -3.0591,-17.7666 -4.7296,-18.5432 -31.4878,-4.0148 -2.0578,1.1172 -0.2156,4.6792 -0.2336,7.0206 -0.022,2.8119 0.077,5.6234 0.1151,8.4351 0.4454,15.8943 1.2934,31.8207 3.3248,47.6019 1.2456,9.6772 2.0733,13.1713 3.9341,22.9087 4.4868,21.8039 12.7448,42.5019 20.961,63.1004 2.6554,6.7473 5.851,13.257 8.8797,19.8385 1.5163,3.2949 2.9909,6.5202 4.0413,9.9896 -0.055,0.056 -0.1276,0.2387 -0.1663,0.1696 -0.2454,-0.438 -0.5079,-2.5191 -0.1192,-2.6288 8.69,-2.4519 17.7106,-3.5609 26.4707,-5.7497 0.328,-0.082 0.4305,-0.6232 0.3506,-0.9516 -0.9166,-3.7648 -2.1975,-7.4315 -3.2963,-11.1473 -7.3085,-26.6475 -13.1909,-53.6898 -17.5699,-80.9708 -0.8589,-6.1482 -1.26,-12.3411 -1.562,-18.5362 -0.037,-0.7591 0.651,-2.388 -0.1009,-2.2776 -30.6067,4.4946 -30.9516,-2.7638 -27.9268,10.3192 6.3668,25.0032 11.6052,50.2669 17.1029,75.4694 0.8652,4.0467 1.7427,8.0908 2.5957,12.1401 1.897,9.0057 2.2112,11.3285 4.469,20.1867 2.2704,8.9072 5.1539,17.5465 8.2177,26.2033 4.7375,12.4623 9.931,24.7473 15.3929,36.9077 4.2498,9.2584 7.8428,18.8049 12.3504,27.9408 2.7238,4.9675 5.239,10.0751 8.4565,14.7535 0.5925,0.8616 0.8256,2.3896 1.8626,2.5243 7.7425,1.0062 15.6069,0.5067 23.4104,0.76 1.6011,-4.5863 4.2355,-8.9344 4.8034,-13.7588 0.545,-4.629 -3.4734,-24.8727 -4.302,-28.9238 -2.8654,-14.0095 -6.4173,-27.8638 -9.9786,-41.7075 -2.6378,-9.3122 -5.2321,-18.6402 -8.3678,-27.8007 -1.8489,-5.4017 -3.9281,-10.7227 -5.8254,-16.1076 -2.1268,-6.8166 -3.9077,-13.7352 -6.063,-20.5422 -1.681,-3.7844 -1.6911,-7.6482 -2.0739,-11.6938 -0.9252,-5.1447 -0.7979,-5.1587 -2.1459,-10.0063 -0.3523,-1.2668 -0.6552,-2.5562 -1.1609,-3.77 -5.0432,-12.1032 -9.847,-11.4721 -30.0295,3.7278 -3.015,2.2707 1.1492,7.4609 1.7238,11.1913 9.041,37.4868 21.2395,74.0987 32.6724,110.8982 5.8551,18.7126 11.9502,37.3861 16.2227,56.5384 1.6852,7.0898 3.3853,14.2979 6.3117,21.007 0.492,1.128 1.0636,2.2198 1.5953,3.3297 2.2304,4.419 4.9154,8.5624 7.5919,12.7181 1.7203,2.7618 3.846,5.2309 5.866,7.7706 13.2156,16.5936 36.6825,-2.0961 23.4669,-18.6897 v 0 c -1.3982,-1.7537 -2.9024,-3.4351 -4.1133,-5.328 -2.0828,-3.2321 -4.2354,-6.4069 -5.96,-9.8501 -0.9806,-1.7322 -1.6317,-3.641 -2.2549,-5.5273 -1.2985,-3.9302 -2.3911,-7.932 -3.2287,-11.986 -4.4795,-19.9359 -10.7031,-39.4105 -16.8485,-58.8836 -11.1517,-35.8941 -23.0451,-71.6035 -31.9578,-108.1433 -5.0629,-11.5125 0.9674,-0.1714 -28.6416,2.8037 -0.9371,0.094 -0.3204,-2.0268 -1.0492,-2.6233 -0.6477,-0.5301 0.5292,1.5885 0.7658,2.3914 0.747,2.5353 0.7604,2.7919 1.3098,5.2847 0.2451,2.5367 0.3866,5.0843 0.6966,7.6139 0.4344,3.5452 1.5227,6.9611 2.6563,10.3314 2.2764,7.0911 4.0338,14.341 6.3574,21.4195 1.828,5.174 3.8262,10.2898 5.6112,15.4784 2.1358,6.2081 3.0605,9.4128 4.9576,15.9275 0.9692,3.3283 1.9079,6.6653 2.8618,9.998 3.3999,13.2031 6.7813,26.415 9.5478,39.7697 0.9119,4.4021 1.7031,8.8284 2.5127,13.2504 0.4805,2.6248 -1.0913,6.8291 1.3574,7.8893 2.1113,0.9142 2.7888,-3.6602 4.1831,-5.4903 7.154,0.8858 14.2801,2.0365 21.4619,2.6574 0.3675,0.032 -0.4801,-0.5615 -0.6939,-0.862 -0.4133,-0.5809 -0.8109,-1.1735 -1.1858,-1.7799 -1.9946,-3.2261 -3.6868,-6.6253 -5.5298,-9.937 -4.411,-8.7345 -7.6416,-18.022 -11.8394,-26.8616 -5.134,-11.4164 -10.0046,-22.954 -14.4842,-34.6441 -2.7159,-7.6283 -5.2854,-15.2361 -7.2985,-23.0877 -2.1455,-8.3679 -2.4847,-10.8126 -4.3236,-19.5409 -0.8616,-4.0897 -1.7479,-8.1743 -2.6218,-12.2614 -5.5777,-25.5679 -10.8978,-51.1967 -17.3625,-76.561 -4.3452,-15.979 -0.2174,-10.0562 -31.0946,-1.5007 -0.8043,0.2229 0.07,1.6677 0.1116,2.5012 0.2416,4.7987 0.3876,7.9668 0.8785,12.9029 0.2936,2.9526 0.6827,5.8949 1.024,8.8424 4.6035,28.5499 10.7358,56.8578 18.428,84.7379 1.2112,4.0705 2.2437,8.1984 3.6336,12.2114 1.0318,2.979 0.4953,8.3325 3.6219,8.7371 21.9376,2.839 29.3645,1.2223 27.7494,-13.5747 -0.1775,-1.6265 -0.6235,-3.2124 -0.9353,-4.8186 -0.4542,-1.3636 -0.8614,-2.7438 -1.3626,-4.0908 -3.5154,-9.4491 -8.6775,-18.2017 -12.2419,-27.6333 -7.5145,-18.8341 -15.1702,-37.7261 -19.3641,-57.6428 -1.6246,-8.4122 -2.4848,-12.1312 -3.5697,-20.4776 -1.9315,-14.859 -2.7261,-29.8587 -3.1541,-44.8258 -0.04,-2.4145 -0.1054,-4.8288 -0.1208,-7.2437 -0.01,-1.4461 1.493,-4.3346 0.047,-4.3384 -35.8884,-0.094 -22.9583,13.5783 -28.9241,0.3208 -0.6984,-1.552 4.1701,12.649 0.9844,5.0098 3.2568,20.3516 5.8861,40.8116 6.7428,61.4254 0.9601,15.2593 2.0961,30.5076 3.0417,45.7675 0.2107,3.3992 0.3827,6.8007 0.5499,10.2022 0.088,1.7836 -1.5414,5.6764 0.2148,5.3529 6.9618,-1.2826 12.8419,-5.9608 19.2628,-8.9412 2.3859,2.0783 4.7918,4.1337 7.1576,6.2347 0.073,0.065 -0.2261,-0.028 -0.2678,-0.1162 -0.5067,-1.0676 -0.9257,-2.1753 -1.3445,-3.2803 -2.1001,-5.5415 -3.9072,-11.2021 -5.3459,-16.9512 -4.0979,-16.4547 -7.7888,-32.9968 -11.1622,-49.6158 -4.9686,-23.3723 -9.2683,-46.9087 -12.1215,-70.6406 -1.6837,-15.3457 -1.9455,-17.9583 -3.7373,-33.3711 -2.3725,-20.4074 -5.0936,-40.7981 -6.1826,-61.3285 -0.2694,-14.449 1.6163,3.0642 -19.2561,4.2418 -3.8104,0.215 -5.4496,-5.3514 -8.332,-7.853 -0.2888,-0.2506 0.3334,0.6886 0.4827,1.0406 0.6478,1.5278 1.2195,3.0872 1.8859,4.6075 2.2883,5.7684 -0.7444,-1.9617 2.2607,6.106 2.8538,7.6612 6.1961,15.1514 8.3045,23.0774 6.3226,22.0711 11.7568,44.3808 15.4582,67.0559 5.9339,-4.2599 10.525,-12.1389 17.8015,-12.7799 5.1376,-0.4526 7.6547,6.9203 11.6468,10.1857 0.2502,0.2046 -0.2277,-0.6059 -0.3152,-0.917 -0.3731,-1.3261 -0.6832,-2.6696 -1.0661,-3.9929 -0.5556,-1.9207 -1.1117,-3.8425 -1.749,-5.7377 -0.7873,-2.3416 -1.6822,-4.6456 -2.5234,-6.9685 -1.1308,-2.734 -2.1964,-5.496 -3.3925,-8.2021 -6.4608,-14.617 -14.4302,-28.5644 -20.0185,-43.5648 -0.995,-2.3893 -3.7438,-9.2763 -5.1317,-11.4361 -1.5095,-2.349 -2.3746,-6.6738 -5.1657,-6.5942 -21.4515,0.6119 -25.2534,0.6733 -25.544,13.7641 -0.034,1.5241 0.2965,3.0345 0.4448,4.5517 1.1701,8.6146 2.2833,17.2365 3.38,25.8608 0.7765,6.1068 2.0119,15.2935 2.4417,21.5199 0.1756,2.5441 0.1369,5.0984 0.2054,7.6476 7.0213,5.4311 -3.9385,-2.6171 22.072,-1.6471 1.4271,0.053 1.6657,2.3244 2.5919,3.4114 0.3327,0.3905 -0.5527,-0.8652 -0.8037,-1.3127 -1.0161,-1.8114 -1.0431,-2.0337 -1.9059,-4.0458 -2.6922,-7.8033 -5.6024,-15.5593 -7.4552,-23.6189 -1.0641,-5.6916 -1.4241,-7.2842 -2.2581,-13.2563 -1.4755,-10.5657 -2.2725,-21.2113 -3.6783,-31.7855 -1.2193,-9.8605 -2.2926,-19.7614 -2.2895,-29.7109 0,-21.2132 -30,-21.2132 -30,0 z" /><path
       style="fill:#000000;stroke-width:20;paint-order:markers stroke fill"
       id="path460"
       d="m 1475.7691,391.10486 c 3.9341,-6.2358 8.1692,-12.24846 13.6283,-17.24031 5.1817,-5.33578 11.4956,-8.74706 18.0006,-12.1547 9.8731,-4.78903 20.572,-7.52003 31.169,-10.17971 13.217,-4.09258 26.6836,-6.17105 40.4314,-7.20358 15.2737,-1.14241 30.5861,-2.23105 45.9076,-2.363 16.3852,-0.77717 32.7985,-1.13147 49.1986,-0.73388 14.2169,0.50179 28.3896,1.75441 42.5258,3.30282 10.4155,1.19098 20.8131,2.5311 31.213,3.84868 18.6804,2.11573 37.4735,3.18983 56.2151,4.66109 58.2362,6.47314 116.3345,14.14874 174.4526,21.59859 45.8143,4.5303 87.8517,23.07745 130.2808,39.58675 29.3084,10.56606 55.7382,24.9749 81.2599,42.6018 8.1483,6.44878 16.6518,12.54474 23.9282,19.99767 1.2898,2.43699 7.9641,6.91757 8.3623,9.43496 0.038,0.2381 -0.3405,-0.40754 -0.5803,-0.43141 -0.1379,-0.0142 -0.1482,0.23434 -0.2222,0.35152 0.4302,5.41927 1.7773,10.74543 1.7793,16.19211 -0.4343,4.40478 0.4169,9.30445 -1.452,13.43578 -3.7196,7.43892 -7.9487,14.59931 -12.2993,21.70085 -4.549,7.40008 -9.6995,14.39416 -14.2744,21.7763 -6.019,9.4882 -11.3388,19.37219 -16.4827,29.35352 -5.0664,9.46004 -9.8134,19.07654 -14.0112,28.95279 -4.9295,11.65187 -10.8643,22.81454 -15.8864,34.43108 -6.6864,15.9762 -13.3566,31.95157 -20.157,47.88049 -6.935,15.87759 -13.7561,31.80154 -20.709,47.67101 -6.5399,15.02833 -12.7669,30.20382 -18.0226,45.73155 -4.2664,12.94202 -8.5093,25.89159 -12.459,38.93435 -3.1104,11.42802 -6.6368,22.73561 -9.8269,34.13975 -3.6536,11.79073 -6.2486,23.85617 -9.1651,35.83955 -2.2733,12.09662 -6.054,23.74738 -10.0188,35.37261 -3.9674,12.19606 -7.9786,24.38775 -11.4801,36.72816 -2.3517,9.81711 -5.1966,19.50527 -7.8548,29.24185 -2.5304,9.4746 -4.5194,19.0903 -7.1231,28.5442 -3.7365,12.5563 -5.5771,25.5482 -8.0423,38.3838 -3.0373,16.7262 -6.059,33.4402 -9.4311,50.1037 -2.3798,11.2359 -6.0903,22.1147 -9.8904,32.934 -4.4136,12.1641 -8.2587,24.5034 -11.148,37.1168 -3.7994,16.5549 -8.2765,32.9322 -12.0061,49.5054 -3.076,14.8754 -5.9175,29.7847 -9.4052,44.5713 -4.5403,19.0916 -8.2912,38.3526 -12.7596,57.459 -3.3431,12.4789 -6.6997,24.9598 -10.3206,37.3609 -3.3282,8.691 -4.2175,18.1442 -7.1776,26.9084 -4.0204,10.6475 -8.0529,21.2641 -11.3097,32.1742 -3.5544,10.9213 -7.0731,21.8484 -10.3051,32.872 -3.142,10.9271 -6.9362,21.6396 -10.5615,32.4092 -4.5222,14.1424 -10.1197,27.8794 -16.1725,41.4252 -6.2449,13.657 -12.0088,27.521 -17.56,41.4714 -5.9484,15.4396 -12.5202,30.6332 -19.5658,45.6017 -5.1986,11.0591 -10.3759,22.1555 -15.9899,33.0137 -4.2641,7.6246 -6.6801,16.1542 -10.8649,23.8013 -1.0589,1.7368 -1.8373,3.6222 -2.82,5.3987 -0.083,0.1502 -0.4208,0.5361 -0.3445,0.3824 1.1751,-2.3649 3.1168,-3.6094 5.2985,-4.9329 -3.1589,1.1449 4.2513,-1.1358 3.2344,-1.8485 -1.3858,-0.971 -3.1451,-1.2602 -4.6579,-2.0182 -1.9112,-0.9577 -3.765,-2.0282 -5.6013,-3.1224 -3.2344,-1.9273 -9.0548,-5.7852 -12.1899,-7.8373 -8.6365,-5.6158 -17.6578,-10.5804 -26.2269,-16.3056 -8.7589,-5.9234 -17.1884,-12.3168 -25.5596,-18.7717 -8.8748,-7.5329 -17.7802,-15.0793 -25.4796,-23.8361 -11.2865,-12.6266 -22.6993,-25.1073 -33.547,-38.1301 -8.8073,-10.778 -17.6442,-21.5168 -26.1316,-32.5497 -9.1745,-12.0946 -18.8325,-23.8563 -26.7529,-36.8304 -8.2006,-14.534 -15.5755,-29.4975 -22.0871,-44.8575 -6.0005,-12.7642 -11.0456,-25.8585 -15.1481,-39.3381 -9.9342,-26.0208 -25.4007,-49.4056 -38.2863,-73.991 -1.4045,-2.8859 -2.9356,-5.7135 -4.2137,-8.6575 -2.0001,-4.6069 -6.2877,-16.8781 -7.7862,-20.9906 -3.9139,-10.7408 -7.7289,-21.453 -11.2418,-32.3321 -6.2695,-18.7048 -11.0921,-37.7875 -14.9237,-57.122 -4.0797,-22.1907 -8.3099,-44.3487 -12.9006,-66.4411 -6.4589,-31.562 -11.6276,-63.356 -18.3163,-94.8715 -6.0169,-28.4275 -14.6122,-56.2072 -20.4541,-84.66775 -5.6536,-29.91843 -9.0582,-60.19675 -13.5823,-90.29527 -2.241,-16.01592 -3.6941,-32.10673 -7.2913,-47.89489 -3.5254,-12.29454 -4.2053,-24.95346 -5.1286,-37.63281 -1.1972,-22.56772 -2.0816,-45.1617 -1.2018,-67.75313 0.5769,-19.81855 2.1388,-39.57745 4.0893,-59.30143 2.6834,-24.78318 5.8311,-49.51314 8.9211,-74.24803 2.4932,-19.93073 5.0062,-39.85896 7.5083,-59.78857 2.1025,-16.72658 4.195,-33.45439 6.2875,-50.18218 1.3232,-13.24625 1.8555,-26.54892 3.037,-39.80688 1.3437,-13.78976 3.0501,-27.54108 4.7412,-41.2916 1.3518,-10.18642 2.695,-20.34168 3.0828,-30.61487 1.0248,-28.26571 -38.9489,-29.71503 -39.9738,-1.44933 v 0 c -0.3133,9.12428 -1.6778,18.12714 -2.81,27.18195 -1.7458,14.19809 -3.5059,28.39726 -4.8835,42.63683 -1.1307,12.78185 -1.7124,25.59949 -2.8842,38.37762 -2.0918,16.72181 -4.1835,33.44361 -6.2852,50.16417 -2.5042,19.9381 -5.0154,39.87532 -7.5116,59.8144 -3.1368,25.07595 -6.3245,50.14791 -9.0358,75.27437 -2.0256,20.52861 -3.6474,41.09379 -4.2545,61.71991 -0.8886,24.06706 -0.062,48.13498 1.2791,72.17483 1.0751,14.73408 2.085,29.45983 6.057,43.76247 3.5055,14.73144 4.346,29.8773 6.7021,44.80772 4.6388,30.80643 8.0955,61.80368 13.9597,92.41439 5.8961,28.53658 14.3525,56.43008 20.5053,84.91288 6.6932,31.4534 11.7967,63.2004 18.2797,94.6969 4.5692,21.9766 8.767,44.021 12.8302,66.0951 4.1527,20.8565 9.3433,41.4534 16.0979,61.6363 3.6591,11.2979 7.6027,22.4391 11.6732,33.5943 3.0574,8.3784 5.8794,16.7809 9.4639,24.9585 1.4483,3.3039 3.1688,6.4817 4.7532,9.7225 11.7736,22.362 25.5343,43.7623 35.4357,67.0526 4.5271,14.8248 10.0117,29.2687 16.5951,43.3164 7.3336,17.2225 15.5848,34.0355 24.899,50.2818 8.7847,14.0281 18.9062,27.0897 29.0529,40.1548 8.8054,11.4422 17.9656,22.5867 27.1038,33.7634 11.1217,13.343 22.823,26.132 34.3707,39.0876 9.4442,10.558 20.0457,19.9506 30.9688,28.9555 9.1113,7.0183 18.2884,13.9668 27.8281,20.3971 8.6789,5.7501 17.7157,10.8895 26.4909,16.4797 13.6379,8.9023 28.717,19.6615 45.6784,20.2564 3.1017,0.1088 6.1401,-0.9095 9.2101,-1.3642 1.9502,-0.903 4.0216,-1.5807 5.8508,-2.7089 6.6295,-4.0888 10.4179,-10.5326 13.7469,-17.2955 3.9528,-7.8244 7.003,-16.0431 10.9109,-23.8903 5.7948,-11.3029 11.241,-22.7956 16.6222,-34.298 7.3769,-15.708 14.2939,-31.6346 20.5322,-47.8315 5.3493,-13.4436 10.9012,-26.8049 16.9242,-39.9637 6.555,-14.7149 12.6367,-29.6314 17.5599,-44.9821 3.7785,-11.2703 7.7528,-22.4754 11.0324,-33.9081 3.21,-10.978 6.7489,-21.8446 10.2622,-32.7268 3.1999,-10.8484 7.4642,-21.3009 11.2437,-31.9539 2.6164,-9.063 4.3176,-18.369 7.3054,-27.3388 3.7983,-13.0917 7.3888,-26.2469 10.8629,-39.4285 4.4642,-19.0919 8.2265,-38.334 12.749,-57.414 3.4963,-14.9188 6.4331,-29.9426 9.4934,-44.9551 3.7149,-16.5589 8.2253,-32.9119 11.9952,-49.4568 2.4723,-11.1426 6.0478,-21.9746 9.8846,-32.7161 4.3831,-12.5518 8.6388,-25.1786 11.3431,-38.219 3.3998,-16.8007 6.4508,-33.6523 9.5123,-50.5161 2.2595,-11.8367 3.9329,-23.8235 7.3532,-35.4051 2.5494,-9.4589 4.6553,-19.031 7.1147,-28.5137 2.6228,-9.6155 5.443,-19.18128 7.7537,-28.87837 3.2943,-11.67167 7.1246,-23.18738 10.8556,-34.72388 4.3399,-12.75336 8.4588,-25.56308 11.021,-38.81191 2.812,-11.55419 5.2962,-23.19068 8.83,-34.55617 3.0915,-11.13214 6.5745,-22.15339 9.5858,-33.30965 3.8161,-12.65426 7.9588,-25.20515 12.0846,-37.76103 4.809,-14.43073 10.7398,-28.46016 16.746,-42.42648 7.0034,-15.98771 13.8773,-32.02889 20.8621,-48.02499 6.7799,-15.9025 13.4477,-31.84427 20.1189,-47.79147 4.9902,-11.71439 11.1146,-22.88901 15.9828,-34.65744 3.7532,-8.96737 8.1766,-17.62106 12.7272,-26.20717 4.6692,-9.0854 9.4988,-18.07794 14.9876,-26.70197 4.5249,-7.4395 9.8345,-14.37485 14.3175,-21.84638 6.0231,-9.84244 11.9422,-19.77379 16.3122,-30.48942 2.5379,-8.69811 3.5247,-17.53344 3.3109,-26.60505 -0.3246,-8.61693 -1.6271,-17.17191 -3.1746,-25.64644 -0.7354,-2.30774 -1.2702,-4.68931 -2.2063,-6.92319 -3.3558,-8.00842 -9.7823,-13.82966 -15.5394,-20.06977 -9.125,-9.11371 -19.3435,-16.9947 -29.6221,-24.76188 -6.7629,-4.65868 -12.6,-8.78658 -19.682,-13.14138 -22.0557,-13.56217 -45.5824,-24.65924 -69.7839,-33.81032 -45.387,-17.65976 -90.7037,-37.17913 -139.6996,-41.98456 -58.768,-7.53314 -117.5147,-15.31472 -176.4089,-21.80062 -18.1075,-1.42065 -36.2658,-2.46038 -54.317,-4.46647 -10.6256,-1.34623 -21.249,-2.71514 -31.8908,-3.92875 -15.273,-1.66864 -30.5865,-3.00983 -45.947,-3.52922 -16.8479,-0.37601 -33.7119,-0.11499 -50.5439,0.72527 -16.2081,0.19298 -32.4071,1.22835 -48.5646,2.47909 -15.9988,1.25933 -31.7522,3.62572 -47.1535,8.30332 -13.6515,3.46671 -27.373,7.15792 -39.9948,13.56066 -9.767,5.15459 -19.1685,10.82323 -27.053,18.67404 -7.3595,7.21133 -13.8633,15.1109 -19.2341,23.93098 -15.6915,23.5325 17.5885,45.72353 33.28,22.19104 z" /></g></svg>
