<?xml version="1.0" encoding="UTF-8" standalone="no"?>
<!-- Created with Inkscape (http://www.inkscape.org/) -->

<svg
   width="3840mm"
   height="2160mm"
   viewBox="0 0 3840 2160"
   version="1.1"
   id="svg5"
   inkscape:version="1.2.2 (732a01da63, 2022-12-09)"
   sodipodi:docname="shop_options.svg"
   xml:space="preserve"
   inkscape:export-filename="coin_icon.png"
   inkscape:export-xdpi="96.096664"
   inkscape:export-ydpi="96.096664"
   xmlns:inkscape="http://www.inkscape.org/namespaces/inkscape"
   xmlns:sodipodi="http://sodipodi.sourceforge.net/DTD/sodipodi-0.dtd"
   xmlns="http://www.w3.org/2000/svg"
   xmlns:svg="http://www.w3.org/2000/svg"><sodipodi:namedview
     id="namedview7"
     pagecolor="#ffffff"
     bordercolor="#000000"
     borderopacity="0.25"
     inkscape:showpageshadow="2"
     inkscape:pageopacity="0.0"
     inkscape:pagecheckerboard="0"
     inkscape:deskcolor="#d1d1d1"
     inkscape:document-units="mm"
     showgrid="false"
     inkscape:zoom="0.04"
     inkscape:cx="112.5"
     inkscape:cy="6050"
     inkscape:window-width="1920"
     inkscape:window-height="986"
     inkscape:window-x="-11"
     inkscape:window-y="-11"
     inkscape:window-maximized="1"
     inkscape:current-layer="layer1" /><defs
     id="defs2" /><g
     inkscape:label="Layer 1"
     inkscape:groupmode="layer"
     id="layer1"><rect
       style="fill:#e6e6e6;stroke-width:20;paint-order:markers stroke fill"
       id="rect7566"
       width="5397.5"
       height="2877.3438"
       x="-575.46875"
       y="-112.44791" /><g
       id="g7624"
       transform="translate(-687.91667,138.90625)"><path
         style="fill:#ffffff;fill-opacity:1;stroke:none;stroke-width:44.2748;paint-order:markers stroke fill"
         id="path2677"
         d="m 1981.6973,380.17003 c -30.3941,1.36426 -60.8418,4.34826 -91.2625,6.6119 -18.3345,1.01839 -36.9008,2.71576 -55.0639,7.4695 -27.3319,7.15336 -54.0812,18.11299 -80.5855,28.47218 -35.496,14.68582 -70.4559,31.7774 -102.5308,53.98803 -16.5273,11.44425 -23.7085,17.91627 -38.9795,30.56311 -25.3885,23.0598 -49.2916,48.55484 -67.7182,77.58219 -4.4752,7.04983 -8.4386,14.38638 -12.6574,21.57954 -19.84,36.73432 -40.4606,73.4549 -55.0521,112.35838 -3.2894,8.76917 -6.0068,17.69842 -9.0094,26.54764 -13.4828,41.61388 -19.8995,84.32404 -24.8759,126.90902 -2.7115,26.27861 -3.3187,52.67034 -0.2022,78.41504 1.8148,14.99493 4.6236,27.44481 7.5821,42.10579 9.3495,43.14855 21.5503,85.35505 37.2357,126.05305 10.3088,22.6374 21.6904,44.8925 36.0914,64.951 9.5277,13.2702 13.6098,17.3027 24.4345,29.6409 28.5787,29.0783 59.5844,55.9979 93.9352,78.1846 24.6688,14.6756 53.0628,20.7475 81.0332,27.7062 29.3181,8.0321 59.8057,11.7542 90.4354,14.4977 34.5003,2.725 69.3143,3.1853 104.1222,3.463 40.9708,-0.093 81.8631,0.8796 122.9464,-0.6987 38.2529,-1.759 76.5548,-6.4228 114.8293,-9.9426 38.0308,-2.676 75.7842,-10.4597 113.3052,-19.6086 30.7338,-8.4474 61.6246,-16.9848 91.3828,-29.5057 5.9767,-2.515 11.827,-5.3898 17.7402,-8.0848 33.6306,-16.7915 60.5296,-43.8029 86.3412,-71.0434 26.4663,-27.2706 47.4221,-58.8605 68.4436,-90.184 15.5923,-23.4569 27.3911,-48.8975 35.7287,-75.327 4.8448,-15.3573 7.2463,-26.7182 10.9292,-42.2405 9.0635,-40.85373 13.6847,-82.12651 18.0778,-123.2782 5.7266,-41.00556 2.9722,-81.56056 0.4057,-121.91005 -3.2704,-36.15661 -9.6562,-71.69133 -21.2503,-105.34282 -8.8102,-21.23544 -18.936,-42.05522 -31.7129,-60.92758 -3.5833,-5.29307 -7.4905,-10.34192 -11.2356,-15.5128 -20.0818,-26.06062 -41.4231,-51.07883 -62.7034,-76.11399 -14.2012,-16.47889 -33.1845,-27.35973 -51.4436,-38.81032 -22.344,-15.15122 -46.7634,-26.89087 -71.5285,-37.92555 -15.5243,-7.45599 -32.0243,-12.73991 -48.8029,-17.2501 -15.737,-3.95631 -31.2979,-8.46393 -47.2148,-11.84352 -3.7101,-0.56258 -7.3942,-1.24585 -11.131,-1.68781 -4.563,-0.53956 -9.1891,-0.75108 -13.7593,-1.25551 -22.3457,-2.46629 -44.468,-6.06921 -66.5849,-9.546 -19.874,-3.1279 -39.7303,-6.40521 -59.922,-8.04455 -9.4387,-0.68482 -18.9686,-0.65549 -28.4902,-0.62253 -16.6497,-0.1244 -33.4061,1.01976 -50.1291,2.65988 -16.651,1.53166 -33.2339,4.97888 -49.5928,9.49117 -14.6664,4.18957 -29.2756,8.10204 -43.6576,13.57979 -59.89,23.44286 -34.6777,106.15135 25.2123,82.70849 v 0 c 11.4049,-4.74957 23.3462,-6.90898 34.995,-10.65994 11.0769,-3.36142 22.4948,-5.2528 33.7908,-6.46215 13.867,-1.46119 27.7707,-2.29286 41.5752,-2.21205 7.1605,-0.0255 14.3326,-0.0925 21.44,0.35901 18.0362,1.34997 35.6853,4.65832 53.4498,7.28329 29.1596,4.58205 58.3757,8.9743 87.8975,11.84657 14.3392,2.60336 28.0613,7.47067 42.2313,10.67222 12.7314,3.4091 25.2825,7.27356 36.9982,13.07496 21.4116,9.50278 42.5516,19.53314 61.7847,32.74356 11.5461,7.21821 23.9141,13.75247 33.5824,23.3726 20.0619,23.59914 40.1749,47.18568 59.1997,71.67338 12.8004,17.25385 23.9086,35.70556 32.1503,55.90176 9.5635,26.18527 13.5213,54.49126 16.6591,82.64175 2.2534,35.32825 5.0809,70.79281 -0.071,106.71105 -3.9729,37.30108 -8.0567,74.7188 -16.1117,111.76794 -6.9302,29.63545 -14.5168,59.32335 -32.5354,85.35665 -17.8863,26.6537 -35.3947,53.7862 -57.9155,77.0123 -16.9196,17.9442 -34.1362,36.6648 -55.5943,48.8869 -29.6372,13.9437 -60.6595,23.2598 -91.8114,31.5308 -33.1438,8.0946 -66.474,15.1447 -100.082,17.3919 -36.7486,3.3883 -73.5228,7.8547 -110.2518,9.6403 -39.6918,1.6628 -79.1788,0.3947 -118.7653,0.6315 -32.4939,-0.256 -64.9971,-0.645 -97.2121,-3.1303 -26.3239,-2.3159 -52.5448,-5.3806 -77.7127,-12.3705 -19.5825,-4.8661 -39.6652,-8.5284 -57.5371,-17.6632 -28.5888,-17.7964 -53.4777,-40.9035 -77.5381,-64.1805 -7.3713,-8.2605 -11.6266,-12.5999 -18.079,-21.3944 -11.1757,-15.2322 -19.8035,-32.3041 -28.0352,-49.4315 -14.1367,-36.3269 -24.8276,-74.1448 -33.3215,-112.66225 -1.3768,-6.72614 -5.17,-24.44057 -6.1573,-32.05605 -2.5826,-19.93083 -2.2345,-40.35669 -0.1133,-60.73887 4.1881,-36.15046 9.3321,-72.44455 20.5964,-107.81619 2.251,-6.83033 4.2606,-13.72626 6.7535,-20.49108 12.8309,-34.81706 31.6006,-67.4981 49.157,-100.37513 2.8056,-4.95658 5.4175,-10.01761 8.4169,-14.86989 13.2155,-21.38083 30.7232,-40.04342 49.0587,-57.13693 11.0965,-9.30048 17.7083,-15.22308 29.5483,-23.59873 26.369,-18.65364 55.4611,-32.54912 84.7615,-44.8246 25.6745,-10.07793 21.9301,-8.8721 47.6252,-17.92263 5.7867,-2.03832 11.5291,-4.29492 17.4033,-5.95014 14.4186,-4.06303 29.2304,-5.14304 43.8015,-5.90854 28.2469,-2.10517 56.5066,-4.72695 84.7421,-6.36861 62.2233,0 70.334,-89.10573 8.1107,-89.10573 z" /><path
         style="fill:#ffffff;fill-opacity:1;stroke:none;stroke-width:46.1803;paint-order:markers stroke fill"
         id="path2697"
         d="m 1585.1558,1026.9472 c 44.5879,-47.74124 89.6366,-95.0218 134.3835,-142.60459 43.2624,-46.08175 85.1427,-93.49933 126.4589,-141.46065 24.9744,-29.72495 51.4457,-58.01886 77.381,-86.8286 23.4023,-25.92404 49.4492,-48.90994 73.3134,-74.31177 15.7159,-17.31349 31.3899,-34.60505 48.4265,-50.49008 -9.426,6.93618 15.7099,-14.15617 11.4428,-11.08461 -17.726,12.76061 7.2888,6.32716 -38.2494,10.06675 -2.1132,0.17334 -6.4754,-3.47864 -6.0538,-1.3599 1.1139,5.5901 5.7298,9.41066 8.5949,14.11611 50.9417,86.02817 112.8921,163.41298 176.8351,238.46541 43.9424,50.69233 89.0753,100.19057 134.3767,149.52636 24.7721,26.5918 50.4018,52.57928 71.4074,82.72397 9.3618,13.7566 17.2565,28.4868 27.3017,41.6787 10.7214,14.8824 -9.6177,-12.4724 -4.3651,-39.4992 1.9753,-10.1626 12.4884,-16.90541 19.2635,-24.90174 1.115,-1.31615 5.2351,-1.62106 4.2291,-2.82549 -1.3082,-1.56626 -4.1719,0.26668 -6.2578,0.39692 -3.5359,0.22086 -7.0722,0.43735 -10.6081,0.65605 -57.1174,2.61214 -113.4117,-3.10828 -169.8159,-6.68878 -63.388,-3.94155 -126.9805,-6.40871 -190.696,-7.77729 -45.3054,-1.30509 -90.8365,-0.0185 -136.3576,1.21784 -8.1979,0.19986 -16.3973,0.41987 -24.5941,0.59999 -14.5003,0.31867 -36.6543,0.5665 -51.107,1.36332 -21.8523,1.20462 -43.725,3.81694 -65.584,6.31149 -35.6912,5.90425 -71.3539,9.36926 -107.0735,11.55116 -28.2738,1.45654 -56.4909,1.92745 -84.676,2.07817 -15.062,0.0456 -30.1138,-0.0144 -45.1687,-0.0477 -11.3956,-0.0236 -22.7922,-0.0302 -34.1896,-0.0352 -63.637,-0.0288 -72.3032,94.75466 -8.6702,94.78346 v 0 c 11.348,0.01 22.6964,0.012 34.043,0.034 15.2702,0.033 30.538,0.095 45.8157,0.046 29.7881,-0.162 59.6115,-0.6725 89.4953,-2.2392 37.2381,-2.296 74.4415,-5.7944 111.6489,-11.953 19.5247,-2.2324 39.1,-4.7074 58.6181,-5.7961 25.0918,-1.3995 50.0745,-0.9449 75.1413,-1.9462 44.1327,-1.1996 88.2775,-2.4827 132.2001,-1.2057 62.533,1.3388 124.9434,3.7622 187.1543,7.6271 60.0605,3.8121 120.0232,9.7873 180.8686,6.6704 12.4848,-0.8628 40.7964,-1.8918 51.1152,-9.6196 10.913,-8.173 24.3602,-16.8349 28.4985,-29.945 10.2211,-32.3824 3.4745,-39.185 -7.8366,-54.25928 -2.5352,-0.5452 -0.541,0.0327 -3.7459,-5.28948 -6.4852,-10.77224 -12.9004,-21.59373 -20.1031,-31.83049 -23.2768,-32.83079 -50.5217,-62.04747 -78.001,-90.91405 -44.6314,-48.60564 -89.102,-97.36544 -132.4053,-147.29802 -61.5214,-72.13929 -121.1639,-146.50177 -170.0649,-229.29442 -7.4453,-11.39464 -22.1857,-37.85912 -36.1337,-42.37311 -34.5428,-11.17864 -49.8995,-3.16713 -72.7453,20.21343 -18.7998,17.58755 -36.3262,36.49259 -53.6269,55.69693 -24.0392,26.07569 -51.1472,48.89863 -74.5686,75.6822 -26.4569,29.39103 -53.4497,58.26756 -78.9309,88.5879 -40.2971,46.78078 -81.135,93.04012 -123.332,137.98684 -46.2664,49.19906 -92.9977,97.94395 -138.8013,147.60561 -43.8865,52.90404 21.8585,111.09554 65.7448,58.19154 z" /><path
         style="fill:#ffffff;fill-opacity:1;stroke:none;stroke-width:46.1803;paint-order:markers stroke fill"
         id="path2699"
         d="m 1990.0093,465.88559 c -2.2361,6.14221 -4.9127,12.1673 -6.7076,18.42661 -9.3209,32.49312 -9.4826,67.98395 -10.6877,100.83814 -1.58,29.77228 -1.0586,59.37514 -1.7071,89.07525 -0.5805,21.96375 -2.3839,43.98041 -4.2482,65.98509 -2.1757,24.86651 -4.4729,49.7333 -6.7611,74.59997 -1.1047,21.81171 -1.7164,43.59352 -2.9003,65.41027 -0.918,16.38306 -2.3657,32.77821 -3.822,49.16996 -2.1958,23.38223 -4.5645,46.73293 -5.2204,70.07296 -0.863,22.62226 -1.3456,45.22706 -0.8407,67.72696 1.7803,17.7513 3.0367,35.4334 2.5015,53.5049 -0.8728,19.8966 -2.6028,39.8238 -4.3578,59.7406 -1.2656,14.1509 -2.6009,28.3018 -3.9069,42.4527 -0.7077,7.5274 -0.3495,3.8394 -1.0296,11.064 -6.1681,67.0221 83.8229,67.1219 89.9907,0.1 v 0 c 0.6547,-7.1934 0.3204,-3.5207 1.0254,-11.018 1.3238,-14.297 2.6612,-28.594 3.9468,-42.8911 1.9326,-21.9488 3.8236,-43.9101 4.7089,-65.8334 0.492,-19.7343 -0.1297,-39.2621 -2.4954,-58.5814 -0.5762,-20.7994 0.1225,-41.7393 0.8345,-62.65507 0.5392,-21.27961 2.9782,-42.58313 4.8635,-63.90361 1.5565,-17.54411 3.0952,-35.09161 4.0689,-52.62599 1.1116,-20.56514 1.8401,-41.1066 2.6264,-61.65461 2.3076,-25.10466 4.6288,-50.20954 6.8193,-75.31413 2.0388,-24.1043 3.9755,-48.22066 4.5824,-72.27798 0.6155,-29.20303 0.1302,-58.31164 1.6637,-87.58546 0.9089,-25.08644 1.8271,-50.23818 5.7877,-75.33119 31.4214,-61.2455 -47.3176,-99.74078 -78.739,-38.49524 z" /><path
         style="fill:#ffffff;fill-opacity:1;stroke:none;stroke-width:45;paint-order:markers stroke fill"
         id="path7034"
         d="m 1473.416,1079.6525 c 7.6996,16.2143 16.6232,31.9244 25.7158,47.6009 8.4561,13.9291 17.6043,27.5166 27.6987,40.5233 11.4188,15.0438 23.404,29.8054 33.9582,45.3847 8.6696,13.949 18.2932,27.3638 27.8869,40.8015 7.7165,9.717 14.7403,19.864 22.1054,29.8075 7.0756,10.5831 14.8143,20.7315 22.6693,30.8319 11.7078,13.0577 22.76,26.636 34.6609,39.5354 9.3902,10.4207 20.0058,19.6936 31.0493,28.3071 10.8402,9.1509 22.5359,17.0381 34.2304,24.9063 10.6898,7.8262 22.2705,13.9671 33.5482,20.6726 13.7589,9.0864 28.3026,16.6831 43.0872,23.3422 16.5205,6.8724 33.5955,9.8077 50.5107,12.9332 15.3327,3.1155 30.4763,3.2222 45.6973,4.7074 16.2848,1.627 32.5099,2.4579 48.7395,3.4936 16.5165,1.5343 32.711,1.2406 48.8352,0.4507 17.1856,-1.4153 34.4113,-2.5513 51.7948,-3.1572 20.8353,-0.054 41.3441,-1.4747 61.7784,-3.2643 21.9267,-3.3078 44.2058,-5.3472 66.5041,-7.3557 17.6016,-1.6994 35.2479,-3.3957 52.4099,-6.5259 13.1508,-2.7059 25.5661,-7.1168 38.5113,-10.3016 15.6136,-4.2217 30.8539,-9.3137 46.1984,-14.1334 12.8294,-3.5674 25.5721,-7.2963 38.1997,-11.295 11.0225,-2.7459 21.8872,-5.8439 32.6591,-9.1539 11.9853,-4.0741 24.1256,-7.8298 36.1797,-11.7628 14.4204,-4.2003 27.4463,-10.9285 40.2329,-17.9289 7.0941,-4.5619 15.2317,-7.5262 22.7086,-11.5047 7.4752,-3.9775 9.543,-5.4877 16.5189,-9.943 12.2283,-8.5479 24.1377,-17.4492 35.4455,-27.0702 8.8357,-8.3877 17.2938,-17.1571 25.4646,-26.1782 11.9592,-14.1352 20.997,-30.515 29.5138,-47.1014 7.8909,-15.8177 14.1547,-32.5509 21.0444,-48.9289 4.7622,-10.9501 9.7635,-21.7619 14.5915,-32.6739 5.265,-12.4551 8.6301,-25.907 11.6611,-39.3651 2.2911,-8.8701 4.9589,-17.551 6.8398,-26.5913 1.7467,-9.9107 3.8061,-19.717 5.3244,-29.6997 1.1167,-11.9209 2.3172,-23.8204 3.6414,-35.6854 2.9892,-17.9469 5.8,-35.9406 7.7901,-54.18851 2.3097,-20.76646 2.4257,-41.95822 1.2773,-63.38506 -0.8604,-15.4021 -2.928,-30.90302 -5.4445,-46.40601 -1.6725,-9.92381 -3.4958,-19.84833 -5.3078,-29.77229 -2.7197,-13.80215 -6.2929,-27.57739 -9.3492,-41.37094 -2.2651,-11.56901 -5.9185,-23.04252 -8.8483,-34.56688 -2.1797,-9.07108 -3.8386,-18.16506 -5.5106,-27.25042 -2.7436,-10.52429 -5.4262,-21.05507 -8.2128,-31.57693 -3.1955,-12.03727 -6.3942,-24.04489 -10.9121,-35.89662 -3.781,-10.37158 -8.4354,-20.49476 -13.1289,-30.62887 -5.898,-11.92173 -11.2019,-24.02437 -17.1867,-35.91948 -8.0853,-16.45016 -18.1826,-32.11605 -28.9537,-47.31648 -8.0802,-11.30265 -16.0992,-22.48312 -25.7955,-32.62972 -6.5414,-5.895 -12.689,-12.4281 -19.7675,-17.69805 -6.49,-4.8321 -8.7999,-5.85045 -15.7278,-9.765 -12.5604,-7.57597 -25.0015,-15.5682 -37.0292,-24.10649 -7.4982,-5.50395 -14.8199,-11.24775 -22.5213,-16.43513 -6.7015,-4.56142 -12.9475,-9.66374 -19.6651,-14.21617 -36.1523,-23.72872 -61.6611,21.41527 -25.5088,45.14377 v 0 c 6.8241,3.95055 12.4117,10.15065 19.3481,14.00715 7.2502,4.6377 13.7756,10.47217 20.8976,15.32519 14.2115,9.9414 28.7301,19.49895 43.6057,28.224 1.7218,0.90967 3.557,1.57252 5.1946,2.6568 4.9476,3.27555 8.8062,8.14387 13.4017,11.88765 7.3455,7.18908 12.3373,16.09121 18.6455,24.06403 8.7877,12.2929 16.9842,25.01039 23.5324,38.34776 5.6919,11.19361 10.5705,22.64366 16.1892,33.8606 4.1344,8.91254 8.2777,17.79455 11.5496,26.93396 3.9731,9.52994 5.7344,19.4254 8.6833,29.1109 2.4159,8.98344 4.4806,17.99622 7.171,26.95592 1.9172,10.41302 3.8384,20.83581 6.385,31.22997 2.7893,10.90273 6.2148,21.75968 8.4032,32.70134 2.8949,13.04633 6.2434,26.07848 8.8962,39.12792 1.7411,9.56412 3.5003,19.12864 5.1154,28.69262 2.1978,13.48871 4.0308,26.97694 4.7885,40.3794 1.0325,18.53313 0.9494,36.83953 -1.0578,54.79642 -1.9551,18.21322 -4.9424,36.10505 -7.7756,54.05495 -1.2524,11.3484 -2.4757,22.7083 -3.4449,34.1316 -1.1141,9.067 -3.4637,17.7729 -4.8167,26.7718 -1.7542,8.8102 -4.6839,17.1002 -6.6756,25.8171 -2.2614,10.459 -4.8972,20.9056 -8.8083,30.6297 -4.9068,11.1644 -10.069,22.1833 -14.9007,33.391 -6.4506,15.3347 -12.3199,30.998 -19.6155,45.8603 -6.7623,13.2225 -13.8227,26.3484 -23.1109,37.8018 -6.8572,7.6534 -14.0922,14.9625 -21.3809,22.2102 -9.822,8.3617 -20.1692,16.085 -30.7389,23.5809 -4.2352,2.7448 -7.4836,4.979 -11.96,7.3759 -8.0932,4.3337 -16.9167,7.5614 -24.6173,12.4952 -10.2548,5.6567 -20.6374,11.1845 -32.2681,14.4861 -11.792,3.8565 -23.6833,7.5099 -35.4022,11.516 -10.8924,3.3662 -21.9325,6.3785 -33.0359,9.2718 -12.5838,3.9933 -25.3084,7.6608 -38.0791,11.2567 -14.3977,4.5234 -28.6939,9.3175 -43.3199,13.3252 -11.9615,2.9932 -23.5322,6.8623 -35.5752,9.6647 -15.5104,2.9643 -31.6222,4.191 -47.5334,5.8563 -22.2507,2.0076 -44.5095,3.9719 -66.3683,7.3435 -19.4927,1.7071 -39.0505,3.0699 -58.9339,3.0902 -17.6402,0.621 -35.1368,1.7345 -52.5712,3.1898 -14.0258,0.6928 -28.0794,1.0206 -42.4643,-0.4005 -15.6754,-0.9999 -31.3442,-1.7762 -47.0745,-3.3633 -13.4224,-1.1952 -26.783,-1.4193 -40.3002,-3.9605 -11.9864,-2.2018 -24.0996,-4.0612 -35.902,-8.3943 -12.3378,-5.2582 -24.2189,-12.1196 -35.6592,-19.5138 -10.1136,-5.9787 -20.496,-11.452 -30.0642,-18.4695 -10.3884,-6.9901 -20.7904,-13.9431 -30.3815,-22.131 -7.9261,-6.0051 -15.3948,-12.742 -22.0779,-20.1094 -10.5489,-11.3056 -20.0532,-23.4479 -30.6011,-34.7587 -7.5125,-9.6486 -14.8594,-19.3657 -21.6369,-29.4728 -7.1148,-9.6043 -13.8855,-19.4257 -21.3666,-28.7917 -9.3081,-13.0369 -18.6313,-26.0509 -27.0396,-39.5873 -11.5581,-16.82 -24.2912,-32.948 -36.7558,-49.2034 -8.2126,-10.2749 -15.2042,-21.3265 -22.143,-32.3315 -8.862,-15.274 -17.4654,-30.5971 -25.023,-46.3779 -20.6056,-37.2422 -69.7529,-17.4916 -49.1473,19.7507 z" /></g><path
       style="fill:#ffffff;stroke-width:20;paint-order:markers stroke fill"
       id="path7717"
       d="m 2176.5387,647.62173 c 30.6145,-2.57413 61.2204,-4.7352 91.9228,-5.94614 68.5695,-1.81332 137.1698,-2.05685 205.7594,-2.31566 48.4925,-0.32147 97.0432,0.4065 145.4276,3.756 43.7394,3.51827 87.4702,7.17002 131.3143,9.08121 51.0138,1.28585 102.0519,1.20925 153.079,1.25143 14.6822,0.003 29.3647,-0.003 44.0473,-0.027 2.3153,-0.004 4.6307,-0.008 6.9461,-0.0145 0.8723,-0.003 2.7395,0.85063 2.6175,-0.0132 -4.6133,-32.65437 -10.9355,-65.04437 -16.4034,-97.56656 -32.1326,7.54221 -55.9596,33.75462 -76.3627,57.93404 -14.0324,16.62983 -30.6009,39.55439 -43.5353,56.99979 -42.8422,56.7486 -82.7199,115.55389 -120.4058,175.82507 -25.667,42.19001 -53.8245,82.78064 -79.9522,124.6776 -16.7182,26.80837 -33.0319,53.86709 -49.6493,80.73809 -43.3931,69.1829 -85.0755,139.4089 -123.3839,211.5353 -20.3098,39.9806 -42.1494,79.1681 -64.0944,118.2685 -7.9734,12.8153 -13.7553,27.1879 -22.6489,39.4502 -4.221,5.8197 -9.0155,11.2031 -13.3784,16.9173 -13.9406,17.4103 -26.4452,35.8814 -37.8579,55.025 -35.9679,60.8794 50.1286,111.7459 86.0966,50.8664 v 0 c 9.2343,-15.8592 19.8473,-30.8668 31.2622,-45.2315 1.74,-2.2821 17.9208,-23.4857 18.628,-24.4985 9.6045,-13.7548 16.5467,-29.2559 25.123,-43.6222 22.2882,-39.7861 44.5478,-79.6162 65.1949,-120.2852 37.2516,-70.2045 77.9011,-138.4951 120.1103,-205.83 16.379,-26.4873 32.4569,-53.1608 48.9288,-79.5905 26.2729,-42.15621 54.6264,-82.97562 80.4281,-125.43183 36.2497,-58.06209 74.703,-114.64779 115.9557,-169.2925 10.0799,-13.62237 26.3912,-36.07771 37.4859,-49.60022 4.6824,-5.7068 9.6854,-11.14465 14.6619,-16.59687 2.8086,-3.07718 7.0504,-5.1544 8.6879,-8.98538 0.6135,-1.43518 -5.6592,0.76793 -4.6622,-0.43299 1.371,-1.65166 4.1756,-0.99732 6.2634,-1.49598 -2.337,-33.25857 -3.9097,-66.5797 -7.0109,-99.77572 -0.072,-0.76634 -1.5393,0.01 -2.309,0.0122 -2.2902,0.007 -4.5805,0.0106 -6.8707,0.0145 -14.61,0.0238 -29.2201,0.0302 -43.8304,0.0269 -49.6149,-0.0408 -99.2396,0.0233 -148.8432,-1.15822 -43.0313,-1.84219 -85.9419,-5.55268 -128.8724,-8.94572 -50.7701,-3.37495 -101.6853,-4.41132 -152.5651,-3.98404 -69.7934,0.26368 -139.5981,0.50969 -209.3702,2.39453 -34.0897,1.37557 -68.1112,3.67162 -102.0765,6.87163 -70,10 -55.8579,108.99494 14.1421,98.99493 z" /><path
       style="fill:#ffffff;stroke-width:20;paint-order:markers stroke fill"
       id="path7719"
       d="m 2265.6055,1077.594 c 101.4056,-5.529 202.9882,-7.8241 304.5225,-9.7345 99.6189,-1.9914 199.2699,-1.4458 298.8705,-4.2553 44.5942,-2.0144 88.8124,-8.0419 132.7571,-15.6016 69.6854,-11.9978 52.7179,-110.5478 -16.9675,-98.55 v 0 c -39.2705,6.76724 -78.7651,12.26968 -118.6132,14.19151 -99.2868,2.809 -198.6254,2.21932 -297.9302,4.23306 -104.3962,1.96853 -208.8629,4.21886 -313.1077,10.26629 -70.3221,7.40232 -59.8536,106.85284 10.4685,99.45054 z" /></g></svg>
