<?xml version="1.0" encoding="UTF-8" standalone="no"?>
<!-- Created with Inkscape (http://www.inkscape.org/) -->

<svg
   width="3840mm"
   height="2160mm"
   viewBox="0 0 3840 2160"
   version="1.1"
   id="svg5458"
   inkscape:version="1.2.2 (732a01da63, 2022-12-09)"
   sodipodi:docname="wiggly worm.svg"
   xml:space="preserve"
   inkscape:export-filename="..\..\items\wigglyWorm.png"
   inkscape:export-xdpi="96.096664"
   inkscape:export-ydpi="96.096664"
   xmlns:inkscape="http://www.inkscape.org/namespaces/inkscape"
   xmlns:sodipodi="http://sodipodi.sourceforge.net/DTD/sodipodi-0.dtd"
   xmlns="http://www.w3.org/2000/svg"
   xmlns:svg="http://www.w3.org/2000/svg"><sodipodi:namedview
     id="namedview5460"
     pagecolor="#ffffff"
     bordercolor="#000000"
     borderopacity="0.25"
     inkscape:showpageshadow="2"
     inkscape:pageopacity="0.0"
     inkscape:pagecheckerboard="0"
     inkscape:deskcolor="#d1d1d1"
     inkscape:document-units="mm"
     showgrid="false"
     inkscape:zoom="0.056568542"
     inkscape:cx="11782.167"
     inkscape:cy="6611.4484"
     inkscape:window-width="1920"
     inkscape:window-height="986"
     inkscape:window-x="-11"
     inkscape:window-y="-11"
     inkscape:window-maximized="1"
     inkscape:current-layer="layer1" /><defs
     id="defs5455" /><g
     inkscape:label="Layer 1"
     inkscape:groupmode="layer"
     id="layer1"><path
       style="fill:#ffffff;stroke-width:40;paint-order:markers stroke fill"
       id="path841"
       d="m 1110.4737,1382.1759 c 4.5025,-6.6085 9.5796,-12.8821 14.4694,-19.2388 2.3623,-3.1612 5.2528,-5.768 8.4195,-8.0836 2.5599,-1.8719 1.4856,-2.0589 2.9329,-1.6146 7.6342,-1.8538 15.4336,-2.808 23.2512,-3.4426 7.2598,-0.5238 14.4919,0.8957 21.5972,2.2298 5.6654,1.0625 11.3133,2.5534 16.6034,4.8739 5.6592,1.7607 10.4169,5.1821 16.0415,7.0827 2.7548,0.9309 5.6025,1.5597 8.4038,2.3395 16.4014,3.8079 32.94,7.1909 49.747,8.4434 10.9333,0.261 21.6508,-1.2837 31.6833,-5.7612 2.8202,-1.2587 7.5072,-4.007 10.4112,-5.6684 10.0853,-6.202 21.0307,-10.8124 31.6538,-16.0076 7.1267,-3.4702 14.4372,-6.5938 21.0702,-10.9844 2.8313,-1.8742 5.5206,-3.9548 8.3,-5.9051 8.0873,-5.1931 15.15,-11.7675 22.9406,-17.3605 7.9743,-4.5624 16.5129,-7.9816 24.8533,-11.7876 7.3501,-4.001 15.6169,-5.222 23.7846,-6.4254 8.1523,-1.5153 16.3905,-2.4259 24.5908,-3.6198 5.5079,-0.8973 11.1627,0.6532 16.4875,2.0703 3.4643,1.4579 6.8984,3.4007 9.7713,5.8514 0.6356,0.5422 3.4595,3.9896 3.6883,4.2632 0.6681,0.9584 1.3292,1.9217 2.0041,2.8752 3.4062,4.8123 2.9116,3.804 5.6765,8.5197 1.0364,1.7678 4.1565,7.4809 5.1568,9.0471 1.3056,2.0441 2.7532,3.9939 4.1298,5.9908 7.1141,8.1571 14.5142,16.5753 23.2809,23.0486 8.5135,6.2864 12.5562,7.9876 21.8934,12.9477 19.3216,8.7287 39.766,14.9219 60.6927,18.2847 3.0919,-0.057 6.2343,0.3892 9.2756,-0.1705 11.6927,-2.152 21.128,-9.4042 26.297,-20.0221 0.8996,-1.8479 1.4801,-3.8348 2.2201,-5.7522 0.3395,-3.0786 0.9922,-6.1387 1.0184,-9.2359 0.036,-4.2316 -2.4442,-13.9498 -4.45,-17.8504 -1.102,-2.1429 -2.5753,-4.0735 -3.863,-6.1102 -4.1685,-2.6438 -7.9728,-5.9765 -12.5055,-7.9313 -3.9981,-1.7242 -13.1393,-1.6452 -17.5304,-1.5819 -7.1225,0.1028 -14.2615,0.6835 -21.3709,1.097 -1.8727,0.116 -3.7454,0.232 -5.6182,0.3479 -0.3821,-0.047 -1.2303,-0.5161 -1.1464,-0.1404 2.7911,12.4989 6.758,24.72 9.432,37.2445 0.1273,0.596 -1.7872,1.3168 -1.1827,1.3942 2.4949,0.3196 5.0168,-0.3724 7.5232,-0.5821 2.9755,-0.249 5.9483,-0.5293 8.9224,-0.794 14.8308,-1.7139 29.8283,-4.5996 43.3955,-11.083 2.3578,-1.1268 4.5987,-2.4835 6.8981,-3.7253 12.2854,-6.9664 21.9846,-17.2976 32.5889,-26.4127 0.4929,-0.4332 3.9155,-3.8153 5.5048,-4.3447 0.4086,-0.1361 0.8645,0.1496 1.2896,0.08 1.3859,-0.2268 2.7257,-0.6813 4.1016,-0.9624 0.6997,-0.143 10.6257,-1.8974 10.9158,-1.9488 5.2517,-0.5731 10.5315,-2.0626 15.8454,-2.1054 0.2724,0 0.5174,0.1709 0.7784,0.2491 1.1091,0.3325 2.221,0.6554 3.3315,0.9831 6.9656,2.3744 15.1116,3.3451 21.3278,7.6235 1.3871,0.9548 2.1801,2.5674 3.2449,3.872 10.2491,13.7097 21.9974,26.115 34.6737,37.5803 7.8264,6.094 15.8361,12.6928 25.225,16.3039 3.1068,1.195 6.3086,2.1265 9.4629,3.1898 3.925,0.9057 7.8211,1.9471 11.775,2.7171 5.3123,1.0345 21.2564,3.4105 26.8723,4.2265 10.6515,1.5476 21.243,2.8529 31.9682,3.7358 13.0092,0.5171 26.2242,-0.558 37.9788,-6.6647 6.9978,-3.6355 8.0533,-5.353 13.6206,-10.6296 9.5538,-12.1553 10.4504,-23.5739 9.515,-38.3342 -0.8264,-7.0768 -1.0035,-14.1914 -1.4946,-21.2818 -0.6002,-5.183 -1.6113,-10.476 -3.9472,-15.197 -0.7082,-1.4313 -1.139,-3.1934 -2.436,-4.125 -4.8075,-3.4531 -10.3084,-5.8207 -15.4626,-8.7311 -5.9449,2.6831 -12.247,4.685 -17.8346,8.0494 -1.5109,0.9098 -1.8765,2.9887 -2.8919,4.4307 -0.6335,0.8996 -1.5524,1.562 -2.2731,2.3932 -3.7986,4.3811 -2.4249,2.7691 -6.4465,7.9056 -5.5598,7.1036 -9.5477,15.2716 -14.8929,22.507 -0.5304,0.5349 -1.0361,1.0955 -1.5911,1.6047 -0.4702,0.4314 -0.9752,0.824 -1.4806,1.2135 -3.838,2.9575 3.086,-3.3528 4.2928,-2.2114 27.5874,26.0939 13.9511,38.9445 23.995,29.0329 6.4284,-6.6219 10.9745,-14.5068 14.8619,-22.7979 1.7283,-5.3239 5.4469,-9.407 8.2922,-14.1487 1.2138,-2.0228 2.3185,-4.1091 3.4778,-6.1636 4.0059,-7.6109 7.2996,-15.6488 9.4813,-23.9805 0.4733,-1.8077 1.053,-3.6074 1.2432,-5.4664 0.3096,-3.0276 0.1663,-6.0846 0.2494,-9.1269 -0.7643,-3.0855 -1.2316,-6.2601 -2.293,-9.2565 -3.4305,-9.6851 -10.9624,-17.732 -17.3736,-25.5293 -2.5079,-3.3739 -5.4649,-6.4932 -7.2985,-10.3228 -0.932,-1.9465 -1.6327,-3.9958 -2.4869,-5.9778 -4.995,-11.4074 -10.5451,-22.5556 -15.8953,-33.7977 -3.967,-8.7851 -9.1826,-16.978 -12.8854,-25.8808 -5.1133,-10.5769 -9.7178,-21.3877 -14.5612,-32.0883 -4.0893,-10.9715 -10.3292,-21.0706 -14.1851,-32.1362 -0.6147,-1.764 -1.025,-3.5927 -1.5375,-5.3891 -3.5312,-15.1892 -4.0774,-30.9017 -5.6887,-46.3792 -1.751,-14.2819 -2.7356,-28.626 -3.2456,-43.0002 -0.044,-9.84427 -0.4813,-19.65803 -1.0856,-29.48061 -0.606,-10.8971 -0.6957,-21.81394 -0.7805,-32.72486 -0.072,-14.05802 -0.06,-28.11634 -0.058,-42.1745 0.1017,-6.80572 -0.3236,-13.65279 0.5944,-20.42353 0.4552,-3.35719 1.1873,-6.50195 1.8857,-9.82115 2.0684,-8.32546 3.5598,-16.90044 6.5012,-24.98955 1.1531,-3.17079 4.0575,-8.69863 5.4586,-11.49056 8.2452,-13.12471 17.9786,-25.18172 26.1524,-38.36453 3.5865,-5.2205 5.8295,-11.16383 8.7057,-16.75794 1.8653,-3.62776 4.3284,-7.07065 6.4788,-10.52711 5.6221,-9.02939 10.3422,-18.57143 15.3777,-27.93019 3.9189,-7.07009 10.9806,-11.80242 17.0542,-16.94127 9.7519,-7.16962 20.8155,-12.37787 31.5148,-17.97261 12.1529,-6.38027 25.2779,-10.24623 38.6957,-12.82454 14.1747,-2.32926 28.3787,-4.47652 42.5847,-6.60451 10.4228,-1.57554 20.9708,-1.82575 31.4901,-2.01191 12.0996,0.64598 24.2055,1.96281 36.0862,4.37845 1.5076,0.35965 5.5502,1.23886 7.1699,1.91334 2.0338,0.84693 7.6649,6.46631 9.1797,7.89704 5.4531,5.13284 9.0772,11.5465 11.648,18.50075 1.6518,5.47524 2.6263,11.18704 3.3478,16.86081 0.7512,5.6505 -0.6603,3.21488 0.4929,0.27673 1.5803,-4.0264 1.8688,-4.00515 4.1882,-6.40575 -1.3889,0.48025 1.5903,-0.96919 1.111,-0.92289 -1.3043,0.12602 -2.5616,0.57677 -3.8635,0.72562 -2.5882,0.29591 -3.8222,0.33785 -6.5698,0.51872 -12.3018,0.51715 -24.6061,1.05558 -36.8554,2.3328 -13.1122,1.20415 -24.4703,7.48504 -35.0257,14.90419 -8.9323,7.50295 -17.3975,16.01663 -22.3728,26.74816 -1.1958,2.57945 -2.0293,5.31188 -3.044,7.96779 -3.1817,10.4588 -4.4169,21.48242 -3.8681,32.40067 0.267,5.31 1.1367,11.0785 1.8412,16.36019 1.7827,12.22809 3.8873,24.52341 8.2534,36.14637 3.6946,9.83543 5.117,11.62018 10.1122,20.54294 3.4983,5.14657 6.0924,9.43705 10.3174,13.96423 6.5455,7.01352 14.8038,13.50372 23.2504,18.01384 4.4981,2.40183 9.2793,4.23124 13.9189,6.34685 19.6019,7.2875 39.9136,12.68132 60.5944,15.78755 8.0157,1.02677 16.2279,1.69627 24.1232,-0.59661 6.738,-1.95677 8.6349,-3.40815 14.5316,-6.67721 9.0656,-5.30587 17.7611,-11.13816 25.1646,-18.62793 -11.337,-3.56571 -22.6739,-7.13145 -34.0109,-10.69716 -0.033,-1.96673 1.2886,-4.50625 -0.099,-5.90013 -1.0972,-1.10204 -0.8824,2.98252 -1.3197,4.47493 -2.2427,7.65241 -4.0341,15.31929 -5.6673,23.12431 -2.9237,14.95179 -3.8667,30.17259 -5.8757,45.25524 -2.6088,15.46254 -4.1214,31.04999 -4.9055,46.70093 -1.0126,24.0836 0.7655,48.1638 2.5309,72.168 2.0506,20.2376 1.6241,40.565 1.0339,60.8571 -0.2869,15.3574 -0.8509,30.7003 -1.5353,46.0443 -0.3675,9.6452 -0.8075,19.3388 -3.0573,28.7539 -2.2347,8.1046 -5.3683,15.8722 -7.6057,23.98 -3.9499,13.6533 -7.1179,27.4905 -11.2573,41.0903 -3.1812,10.8073 -6.6233,21.55 -8.9076,32.5914 -1.746,9.7056 -1.2832,19.5898 -1.8213,29.3865 -0.331,4.4467 -0.9348,4.6814 -3.5008,7.6352 -0.4328,0.4115 -0.8102,0.8904 -1.2983,1.2345 -0.2926,0.2063 -0.6728,0.2462 -1.002,0.387 -4.8416,2.0709 -9.8667,3.3053 -14.9662,4.6038 -11.5987,2.5761 -21.587,7.9802 -31.5219,14.2541 -6.0274,3.8711 -12.448,7.0669 -19.2658,9.2637 -6.8748,1.7564 -13.9542,2.7221 -20.989,3.63 -10.3076,1.035 -20.6833,0.8023 -31.0078,0.2094 -14.4835,-0.6199 -28.8399,-2.1856 -43.1914,-4.1441 -14.057,-1.9362 -28.1633,-3.494 -42.1606,-5.8336 -13.5641,-2.3565 -26.9797,-5.2743 -40.6994,-6.5436 -15.424,-1.0327 -30.8916,-1.0364 -46.3428,-1.0833 -11.2231,-0.014 -22.4463,0.021 -33.6695,0.035 -16.6405,-0.047 -33.244,1.5197 -49.8087,2.9608 -11.3262,0.9658 -22.561,3.0888 -33.3338,6.7675 -6.695,2.2863 -10.0085,3.9249 -16.328,6.7464 -11.8854,6.2303 -23.291,13.3209 -34.9645,19.9359 -9.37,5.6509 -20.0897,8.066 -30.3576,11.4884 -11.3105,3.907 -22.3865,8.4426 -33.438,13.0185 -1.8944,0.4257 -3.9989,2.024 -6.0783,1.7654 -0.08,-0.01 -0.057,-0.1847 -0.136,-0.201 -0.6959,-0.1437 -1.4102,-0.1758 -2.1153,-0.2637 -12.5685,-1.6085 -24.8607,-4.6332 -37.1876,-7.4669 -6.3803,-1.0022 -12.2028,-3.5587 -18.2597,-5.5819 -10.2902,-2.6076 -19.6437,-7.6213 -29.1866,-12.112 -2.4496,-1.2522 -4.8311,-2.7788 -6.9144,-4.5932 -0.8303,-0.7231 -1.3421,-1.748 -2.0718,-2.5724 -1.1411,-1.2894 -2.3398,-2.5266 -3.5097,-3.7899 -6.8607,-7.2738 -14.7066,-13.419 -22.5407,-19.5786 -12.6831,-11.3211 -25.355,-22.667 -38.2261,-33.7768 -8.9602,-7.7188 -17.8309,-14.5314 -29.24,-18.2193 -7.0205,-2.2694 -11.3064,-2.4305 -18.6742,-3.3503 -20.5041,-2.1369 -40.9776,-0.4104 -61.314,2.3456 -11.0383,1.7957 -22.1163,3.856 -32.483,8.195 -6.2251,2.6056 -8.7031,4.1956 -14.536,7.4463 -11.2092,6.3308 -20.2405,14.9443 -28.6894,24.4974 -0.6862,0.8278 -3.7807,4.6466 -4.8653,5.6866 -2.2215,2.13 -5.329,3.7712 -7.8573,5.4297 -1.8295,1.2001 -3.6469,2.4186 -5.4703,3.6279 -12.3877,6.8911 -23.4873,14.9346 -33.9293,24.4954 -8.675,7.6735 -13.77,18.1154 -20.0554,27.6203 -4.7794,7.0801 -11.295,12.836 -17.7329,18.3797 -14.0031,10.845 -4.6885,7.4104 20.7844,34.6637 0.087,0.093 6.9681,-4.5997 7.1551,-4.7266 9.6983,-6.3466 17.2608,-15.1996 25.3322,-23.3734 9.6324,-9.7079 20.3799,-18.1206 31.1773,-26.4642 9.5004,-7.1668 18.5113,-14.9426 27.7966,-22.3773 -13.6534,9.5077 4.3845,-1.8359 -28.2753,-27.6824 -1.859,-1.4712 -3.4287,3.275 -5.1226,4.9336 -8.5581,8.3798 -17.0874,16.787 -25.6722,25.14 -12.7417,12.3168 -24.9675,25.7803 -40.2213,35.0662 -9.8678,5.4959 -20.5178,9.3079 -30.8027,13.913 -9.4524,4.794 -19.9747,5.1184 -30.3447,5.6852 -8.7006,0.3673 -17.4296,0.4867 -26.1343,0.1427 -4.2864,-0.1694 -8.0802,-0.295 -11.9539,-2.1052 -0.5184,-0.4871 -0.9929,-1.0255 -1.5551,-1.4613 -3.0327,-2.3511 -6.2775,-4.4156 -9.3764,-6.6786 -4.0645,-2.9679 -7.9026,-6.0553 -11.5813,-9.482 -2.205,-3.1562 -3.0201,-6.9887 -3.7486,-10.7048 -0.9046,-5.9197 -1.0909,-11.9144 -1.173,-17.892 0.7805,-7.6108 1.8557,-15.189 2.5053,-22.8212 0.5568,-1.1679 0.1845,-4.2606 1.4935,-5.1689 0.5305,-0.3681 -0.2469,1.3451 -0.6982,1.8069 -1.4552,1.4892 -3.1151,2.7637 -4.6726,4.1455 -1.0727,0.4747 -2.3898,0.5935 -3.2181,1.4241 -0.3561,0.3571 0.9786,0.2551 1.4787,0.32 1.4833,0.1926 2.9759,0.3046 4.4644,0.4513 6.2809,0.6192 12.562,1.1512 18.8557,1.6198 18.1981,1.0666 36.4892,-0.2923 54.6557,-1.4871 18.9402,-1.029 37.313,-5.7482 55.5735,-10.5156 14.3914,-3.7574 18.2552,-4.7478 32.7065,-8.4855 23.7537,-5.6777 47.0411,-12.9983 69.5785,-22.3927 16.5938,-7.817 34.059,-13.2588 51.7752,-17.8472 16.1301,-4.536 32.8249,-5.1606 49.4397,-5.9906 18.2536,-0.7926 36.5211,-1.2452 54.79,-1.4759 11.5016,-0.3988 22.6277,2.921 33.81,5.0796 13.128,2.5342 13.6227,2.4608 27.0745,4.4765 11.2128,1.5202 22.4605,2.7775 33.7297,3.7953 3.0338,0.274 8.881,0.4417 12.175,1.5537 1.8668,0.6302 3.5796,1.6476 5.3695,2.4714 13.3438,6.166 25.3385,14.7464 37.9698,22.1776 12.037,7.0816 11.0031,6.29 23.6583,12.6076 16.1915,7.9475 33.5535,12.7688 51.3527,15.3822 11.1471,1.6367 16.2909,1.778 27.6316,2.5781 14.1741,0.6495 28.3675,1.0683 42.558,1.0762 7.4087,0 17.0143,-0.059 24.4589,-0.8506 3.6053,-0.3833 7.1645,-1.1171 10.7468,-1.6757 13.247,-2.1954 23.9975,-9.6309 34.8871,-16.8345 0.3943,-0.1337 0.7702,-0.3468 1.183,-0.4011 0.4098,-0.054 0.8247,0.108 1.2374,0.083 1.7098,-0.1037 3.4119,-0.3098 5.1176,-0.4683 9.536,-0.8855 19.0636,-1.8035 28.5861,-2.8259 3.1205,-0.4101 6.2484,-0.7682 9.3617,-1.2302 8.8006,-1.3062 10.6477,-1.8834 19.485,-3.2786 10.4526,-1.6503 20.9235,-2.9922 31.3545,-4.7916 19.8154,-3.615 32.7508,-11.785 47.5169,-24.7842 8.457,-7.5978 14.4401,-16.8681 17.5838,-27.8208 1.723,-6.0028 2.1173,-10.6269 2.9237,-16.7362 0.6117,-8.1806 0.2194,-16.4844 -2.0184,-24.4206 -1.4752,-5.232 -3.9179,-10.0279 -6.0246,-15.0034 -0.5063,-1.2552 -0.9053,-2.5593 -1.5189,-3.7657 -3.5553,-6.9895 -4.8183,-8.4759 -8.97,-14.9018 -3.6801,-5.6961 -7.2494,-11.451 -10.7586,-17.2533 -4.3788,-6.6408 -8.5587,-13.3491 -12.3483,-20.3309 -6.0336,-9.4125 -15.4767,-14.6664 -26.7488,-14.2601 -1.8108,0.065 -3.6036,0.3831 -5.4054,0.5746 -16.4302,11.1902 -18.2984,6.952 -14.6601,31.1794 0.4308,2.8687 3.1729,4.8708 5.0095,7.1163 3.3729,4.1238 7.8743,7.5551 11.9125,11.0015 4.314,3.4131 8.4826,7.5222 13.6137,9.7404 6.1381,2.6534 7.3454,2.6072 13.5701,3.9204 22.5913,4.0133 45.4709,5.8273 68.3357,7.407 10.7772,0.055 21.8887,1.5886 32.6088,-0.3562 6.4415,-1.1687 7.9464,-2.0215 13.6881,-4.2299 11.0932,-5.059 22.0617,-10.3772 32.956,-15.86 8.4776,-4.3417 17.2122,-8.141 25.8239,-12.1965 10.8442,-4.7644 21.0152,-10.8539 31.6864,-15.9606 12.4592,-5.4776 24.2369,-12.2444 35.8571,-19.2892 7.8111,-4.5926 14.6039,-10.2409 20.0973,-17.4682 3.0092,-3.9591 3.9269,-6.0554 6.3474,-10.4835 6.4777,-14.6253 9.5329,-30.489 13.7956,-45.8506 3.59,-13.5298 7.757,-26.8727 10.2129,-40.668 2.5623,-15.7586 0.2608,-31.7548 -2.0457,-47.3994 -1.8244,-14.6727 -6.5469,-28.7394 -11.1934,-42.7049 -2.6279,-7.59661 -4.6935,-15.27929 -8.2221,-22.53753 -0.019,-0.039 -5.1847,-9.6089 -5.577,-10.33581 -5.1037,-9.5086 -12.4522,-17.86689 -22.5831,-22.12713 -2.0176,-0.84847 -4.1631,-1.35327 -6.2446,-2.02989 -2.7856,-0.39385 -5.5528,-0.95218 -8.3567,-1.18157 -5.5106,-0.4508 -20.2219,-0.56618 -25.1255,-0.60648 -17.1955,-0.14129 -34.3931,-0.0848 -51.5889,-0.0678 -20.8643,0.49863 -42.0063,-0.73052 -62.7344,2.39903 -3.7112,0.56033 -7.3774,1.38586 -11.0662,2.07878 -26.3584,6.19865 -52.8639,11.7871 -79.5494,16.38445 -10.8822,1.89659 -21.7015,3.77658 -32.7215,4.60158 -16.0809,0.95597 -32.194,1.07381 -48.2979,1.1689 -6.0562,-0.14232 -7.0827,-0.11832 -12.7727,-0.4156 -1.3236,-0.0692 -2.6494,-0.12176 -3.9681,-0.25496 -0.3028,-0.0306 -1.1783,-0.30488 -0.8822,-0.235 8.7219,2.05756 3.1726,0.29178 14.2994,12.40711 0.251,2.11449 0.2231,4.28119 0.7531,6.34354 0.074,0.28676 0.5981,-0.21336 0.7585,-0.46223 1.054,-1.63501 1.9211,-3.38388 2.8297,-5.10397 4.6629,-8.82763 9.0776,-17.77534 13.3715,-26.78633 5.7007,-12.90476 11.0635,-26.4009 12.4235,-40.5805 0.2482,-2.58789 0.227,-5.19459 0.3405,-7.7919 -0.469,-12.09894 -2.6167,-25.4812 -6.9768,-36.8527 -0.9335,-2.43438 -2.1249,-4.76178 -3.1874,-7.14269 -1.536,-2.26351 -2.806,-4.73242 -4.6079,-6.79056 -10.2672,-11.72731 -26.1072,-14.81402 -38.6862,-4.22568 -2.7588,2.32222 -4.293,5.79522 -6.4395,8.69283 -0.9477,3.90215 -2.5019,7.70538 -2.8432,11.70643 -1.0387,12.17957 5.9291,30.53901 11.9579,40.8581 1.8932,3.24035 4.1887,6.22824 6.283,9.34236 10.5274,12.76247 23.2706,23.99921 38.049,31.62466 2.4376,1.25783 4.9914,2.27666 7.4871,3.41498 3.1474,0.89178 6.2121,2.15683 9.442,2.67534 9.0706,1.4561 16.9641,0.85227 26.0703,0.35208 14.1293,-0.77611 28.2225,-2.10701 42.317,-3.33793 17.4654,-2.36382 35.3115,-6.8947 47.7654,-20.37623 8.9736,-9.71394 9.8352,-14.87805 14.7804,-26.88489 4.982,-16.65478 7.4146,-34.05333 6.8332,-51.4464 -0.2993,-8.95186 -0.9613,-11.69012 -2.2745,-20.25952 -3.2299,-17.68435 -12.2493,-33.65021 -24.1847,-46.96074 -2.5991,-2.89845 -5.452,-5.55879 -8.178,-8.33818 -12.1449,-10.9193 -25.2093,-21.36656 -40.2256,-28.0923 -2.2172,-0.99308 -4.5217,-1.77845 -6.7825,-2.66766 -8.0268,-2.26211 -17.7231,-5.03549 -26.2037,-4.04405 -2.5467,0.29771 -5.0393,0.94975 -7.559,1.42462 -2.486,1.05064 -5.0553,1.92281 -7.4581,3.15185 -4.7305,2.41967 -7.6295,5.04013 -11.6921,8.47866 -6.0738,5.14082 -11.3068,10.79923 -16.4973,16.81429 -11.5196,15.31178 -16.4958,31.07317 -20.1008,49.60406 -1.3069,11.13949 -3.551,22.89701 -2.2998,34.15792 0.2686,2.41787 0.8398,4.79245 1.2598,7.18867 4.1555,13.71746 11.3125,23.16253 24.5915,29.42926 8.1774,3.85919 12.7933,4.23535 21.596,6.02393 4.1136,0.33798 8.2135,0.9824 12.3409,1.01391 19.6869,0.15026 42.2424,-4.86852 60.3431,-12.57564 4.2646,-1.81587 8.2919,-4.14512 12.4379,-6.21769 3.4243,-2.32785 7.5347,-3.87757 10.2729,-6.98359 4.4004,-4.99169 8.2016,-10.67983 10.7258,-16.83682 4.9147,-11.98771 3.308,-31.15945 -2.9778,-42.48202 -2.399,-4.32131 -6.046,-7.82059 -9.069,-11.73089 -9.593,-6.82244 -11.3199,-9.54765 -23.4278,-11.87841 -13.5449,-2.60739 -27.8521,0.7362 -40.4663,5.54241 -4.3353,1.65179 -8.4599,3.81084 -12.6899,5.71627 -17.0618,9.07748 -31.4059,21.74383 -41.1707,38.52558 -5.1929,8.92445 -5.8396,12.27825 -9.0926,21.78934 -0.7083,3.57129 -1.7075,7.09702 -2.125,10.71385 -1.4622,12.66494 0.8636,25.75697 9.379,35.77688 8.2986,9.76479 13.6279,10.73123 24.7762,15.78469 4.7284,1.04865 9.3768,2.56469 14.185,3.14598 19.9242,2.40863 41.1087,-3.39759 55.3793,-18.01961 3.6981,-3.78915 6.4037,-8.43367 9.6055,-12.65052 9.5189,-17.68155 14.8464,-34.60761 11.6716,-54.89892 -1.6674,-10.65771 -4.0332,-14.31036 -8.3028,-23.72845 -5.3189,-9.08552 -11.6424,-17.55185 -21.7075,-21.87754 -11.9661,-5.14276 -24.1991,-3.96246 -36.7018,-2.84692 -14.7675,2.45594 -28.914,7.6454 -39.3594,18.82743 -2.3005,2.4628 -4.5553,5.07164 -6.0832,8.07551 -1.9281,3.79055 -2.7728,8.04076 -4.1592,12.06113 0.9094,5.29834 0.5314,10.98855 2.7282,15.89501 7.6264,17.03308 31.0523,21.2421 46.9336,15.416 4.5135,-1.65576 8.4616,-4.56653 12.6924,-6.8498 3.5261,-3.46191 7.4036,-6.59903 10.5783,-10.38577 8.6491,-10.31637 13.6761,-22.95853 15.6229,-36.17322 1.2242,-8.31017 0.5814,-11.39746 -0.022,-19.4395 -0.6863,-2.80371 -1.0561,-5.70439 -2.0588,-8.4111 -3.6026,-9.72526 -8.9038,-15.92024 -21.1116,-18.1583 -5.6508,-1.03595 -11.5211,1.57895 -16.801,3.84339 -7.4798,3.20791 -12.6518,11.22569 -17.4141,17.18299 -8.3614,13.76731 -14.0309,29.62222 -10.5749,45.93744 0.7913,3.73568 1.7806,7.5447 3.7168,10.83598 2.3591,4.01008 5.9705,7.13703 8.9558,10.70554 4.5455,1.9866 8.738,5.17758 13.6366,5.95985 17.5662,2.80517 37.9931,-9.7419 46.2736,-24.85729 2.2686,-4.1411 3.1815,-8.8915 4.7722,-13.33724 0.2143,-9.9521 1.4834,-14.06147 -2.6079,-23.23524 -6.2582,-14.03257 -19.4149,-21.49207 -34.8251,-16.55871 -4.4392,1.42119 -7.674,5.29302 -11.511,7.93951 -2.0161,2.99911 -4.3398,5.81287 -6.0481,8.99735 -6.1241,11.41595 -8.193,28.29115 -3.7163,40.5299 1.5191,4.15301 4.3052,7.72565 6.4577,11.58846 7.6715,6.57386 13.5391,13.61453 24.3116,15.10792 15.8148,2.19239 28.2067,-1.36049 42.995,-6.05192 15.3606,-4.87302 34.9841,-13.00554 49.8026,-18.89847 15.4189,-5.58356 35.645,-16.78922 53.0548,-14.70631 2.4163,0.28908 6.0391,2.35074 6.4505,5.2274 0.089,0.61926 -0.561,1.11831 -0.8415,1.67746 -0.1365,0.55279 -0.6702,3.55422 -1.5217,3.92475 -0.4483,0.1951 -0.77,-0.67218 -1.2494,-0.76835 -0.5186,-0.10404 -1.0616,0.0706 -1.574,0.20195 -2.1207,0.54351 -15.7865,6.37482 6.729,-2.91475 4.5723,2.31566 8.7886,5.54013 13.717,6.94695 0.9961,0.28432 1.3381,-1.5989 1.8356,-2.50748 1.4473,-2.64353 2.4775,-5.5059 3.9816,-8.11753 3.6088,-6.26567 9.4303,-15.24002 14.8474,-20.27806 1.4526,-1.35101 3.4832,-1.89973 5.2248,-2.84961 0.4549,0.38354 1.7735,0.71826 1.3647,1.15056 -0.024,0.0254 -5.4685,1.6288 -5.4677,3.68224 0,1.42099 0.7063,2.75291 1.0394,4.1343 0.511,2.11976 1.3777,4.19145 1.4926,6.36889 0.073,1.39123 -0.6275,2.71475 -0.9413,4.07212 -4.5477,4.93448 -9.8237,9.83088 -16.0424,12.58927 -3.7038,1.64293 -3.0039,1.75832 -4.8545,0.23545 1.2152,-0.29585 2.4175,-0.65124 3.6458,-0.88754 0.4982,-0.0959 3.1979,-0.37404 3.8198,-0.1656 1.5667,0.52506 2.1855,2.1877 4.1296,1.17726 1.5099,-0.78478 2.6904,-2.08447 4.0355,-3.12671 1.6208,-0.78336 3.1156,-1.91466 4.8623,-2.35006 2.2519,-0.56131 10.3441,0.50731 11.7964,2.72775 0.035,0.0528 -0.8994,4.53739 -0.9984,5.01959 1.0576,9.95728 -1.2898,19.48188 -4.1058,28.97013 -3.1569,10.63721 -5.0805,16.15821 -10.0549,25.82315 -1.6539,3.21339 -3.6424,6.24327 -5.4637,9.3649 -1.5659,1.9046 -2.5651,4.47627 -4.6977,5.71386 -1.694,0.98306 1.5931,-3.86709 3.2672,-4.8837 2.3133,-1.40473 5.2855,-1.17674 7.895,-1.89458 1.2344,-0.33962 3.3417,-0.0251 3.6235,-1.27415 0.7107,-3.15087 -1.2754,-6.39154 -1.1661,-9.61972 0.1684,-4.973 1.3286,-9.86261 1.9929,-14.79389 3.2801,-14.71673 4.1901,-20.92518 9.1528,-35.03316 1.5129,-4.30077 5.509,-14.52711 9.2552,-18.80163 0.4324,-0.49337 0.4789,1.58538 -0.054,1.96736 -2.5795,1.84734 -5.697,2.7945 -8.5455,4.19176 -9.7259,10.37368 -9.04,-5.26761 -14.0852,-5.67055 -0.7306,-0.0583 -0.6092,1.34938 -1.0639,1.92419 -1.0386,1.31312 -2.3696,2.37876 -3.3898,3.70631 -14.4331,18.78237 1.5553,0.16774 -14.9724,18.70464 -3.7866,3.46403 -10.2877,10.38828 -15.7798,12.33855 -0.7445,0.26434 -1.8104,-0.4114 -2.0676,-1.15835 -0.2358,-0.68492 0.7568,-1.24621 1.0056,-1.92651 0.1989,-0.54377 -0.138,-1.35683 0.3234,-1.70661 0.6522,-0.49443 1.6174,-0.25183 2.4261,-0.37772 0.6969,-0.274 1.4707,-0.40214 2.0908,-0.82201 1.1498,-0.77851 2.0747,-1.8474 3.1497,-2.72629 2.3907,-1.95453 4.7452,-3.96055 7.2457,-5.77247 6.9119,-5.00846 12.0554,-8.73577 20.1621,-11.33523 2.2501,-0.72149 4.6716,-0.71445 7.0075,-1.07169 0.6193,0.5338 1.6262,0.81727 1.8581,1.60136 0.1686,0.57023 -0.7421,0.95668 -0.9353,1.51903 -0.2086,0.60674 -0.2753,1.2686 -0.2429,1.90936 0.2528,4.99777 1.0853,2.32897 0.8554,8.14121 -0.051,1.28058 -0.4498,2.52338 -0.6747,3.7851 2.84,-0.32414 -5.5662,8.85563 -3.8598,6.66086 1.1976,-1.54027 1.947,-3.77637 3.7667,-4.48006 12.2269,-4.72824 12.0318,-2.63236 21.2739,2.53013 0.7283,-11.20709 3.0536,-22.35679 6.5674,-33.02111 0.7534,-2.2865 2.5349,-4.29038 2.7194,-6.69073 0.1572,-2.04557 -1.7552,3.7089 -2.6328,5.56334 -2.5591,40.95308 -15.3356,-1.03875 -21.3181,2.91751 -0.8225,0.5439 0.5338,1.89902 0.761,2.85853 0.3771,1.59266 0.9449,3.16299 1.0515,4.79621 0.1534,2.3518 -1.335,8.0853 -1.7411,9.91396 -1.9166,7.70372 -4.361,15.25937 -6.6881,22.84447 -0.6698,2.18281 -3.0391,9.69423 -3.4878,12.17131 -0.4461,2.46269 -0.5761,4.97224 -0.8641,7.45837 0.2758,2.59254 0.1077,5.27174 0.8273,7.77764 2.8152,9.80328 8.8918,17.29504 21.3456,17.82664 6.2047,0.26485 11.8641,-4.14658 16.9806,-7.66649 3.3929,-2.33412 9.9527,-14.6654 11.7902,-17.86183 1.7587,-3.48311 3.5849,-6.93296 5.2762,-10.4493 3.4703,-7.21513 4.7076,-10.42408 7.7173,-17.35695 0.4364,-1.00526 2.4186,-2.81991 1.3381,-3.0031 -37.7313,-6.39694 -34.8763,-15.27257 -38.2607,-1.02733 -0.2719,2.51301 -1.0456,10.1931 -1.5435,12.71357 -0.044,0.22231 -0.6392,0.6421 -0.4868,0.47435 3.7479,-4.12779 5.7212,-11.85984 11.2746,-12.35538 25.5007,-2.27555 24.5197,19.9109 24.2395,4.69321 -0.812,-10.51801 -1.2159,-21.06237 -1.5188,-31.60549 -0.1669,-5.80832 -0.2096,-14.51546 -0.8161,-20.28685 -0.3844,-3.65783 -1.0976,-7.2736 -1.6464,-10.91041 -2.2917,-9.9723 -4.6711,-20.08751 -8.9049,-29.45865 -2.3753,-5.25746 -3.2816,-6.41377 -6.1955,-11.14327 -15.099,-23.91696 -48.9227,-2.56376 -33.8237,21.35319 v 0 c 5.1152,7.68874 7.3185,16.68585 9.4297,25.58876 0.4021,2.287 0.9534,4.55276 1.2064,6.86104 0.5754,5.24888 0.6258,14.2644 0.7728,19.33136 0.336,11.58025 0.7846,23.16276 1.7438,34.71087 2.346,16.14649 0.6074,26.64452 28.4439,28.71856 15.3894,1.14663 16.9011,-27.55625 17.7736,-36.65701 0.2486,-22.10607 3.479,-13.46642 -38.2341,-17.26015 -1.2711,-0.1156 -1.047,2.32823 -1.5548,3.4992 -2.6548,6.12142 -3.6776,8.82004 -6.6972,15.16345 -1.3982,2.93725 -2.9067,5.82073 -4.36,8.73112 -1.178,2.14064 -2.4116,4.25159 -3.5341,6.42189 -0.3197,0.61822 -1.4796,2.00593 -0.7874,1.93389 4.1504,-0.43204 8.0516,-4.02029 12.1248,-3.11404 9.3602,2.08253 16.856,7.86421 15.9886,17.05446 -1.8135,0.1185 -0.5133,0.14851 0.7421,-4.23035 3.3008,-11.51249 7.4433,-22.79274 9.8746,-34.54725 0.5924,-4.36973 1.6325,-8.70185 1.7772,-13.10918 0.2937,-8.94662 -0.7817,-15.95064 -3.9856,-24.16053 -1.3879,-3.55653 -2.7872,-7.2037 -5.0451,-10.28221 -2.928,-3.99219 -5.5787,-9.27074 -10.326,-10.67565 -8.1733,-2.41879 -17.0474,0.0349 -25.5711,0.0523 -3.2421,3.73663 -7.088,7.02503 -9.7262,11.20986 -2.6012,4.12584 -6.917,20.6655 -7.7416,24.33217 -2.3009,10.23152 -4.3652,21.71414 -3.5742,32.2821 0.3636,4.85797 1.9665,9.5426 2.9498,14.31391 4.4622,5.30148 7.1849,12.81314 13.3865,15.90447 5.8793,2.93069 13.3169,2.14445 19.699,0.58767 4.3584,-1.06312 7.601,-4.88479 10.8023,-8.02767 2.0993,-2.06102 3.4958,-4.75914 4.8711,-7.35981 4.6675,-8.8261 4.2968,-10.50959 6.3476,-20.27441 0.1971,-10.62344 1.1282,-14.44863 -2.1839,-24.82472 -4.8615,-15.2297 -14.9399,-28.00379 -31.0246,-32.35243 -5.2789,-1.42716 -10.9149,-0.69201 -16.3723,-1.03801 -5.1342,1.32392 -10.4433,2.09571 -15.4024,3.97182 -10.486,3.967 -23.1785,11.77676 -31.3612,19.26741 -10.9693,10.04168 -19.5338,19.64063 -21.9768,34.86107 -0.9866,6.1462 0.8,12.42402 1.2,18.63601 3.161,5.27002 5.273,11.33335 9.483,15.81004 7.6684,8.15417 20.17,12.1615 31.0985,11.47398 5.7337,-0.36073 11.3358,-2.39358 16.5543,-4.79626 8.6722,-3.9928 17.0644,-13.01769 23.7646,-19.3448 3.6968,-4.30482 7.6562,-8.39737 11.0904,-12.9145 9.651,-12.69447 20.3296,-29.03574 17.3423,-45.93241 -0.9244,-5.22829 -1.9447,-10.98563 -5.4628,-14.96213 -4.5957,-5.19446 -11.7315,-7.40164 -17.5972,-11.10245 -5.8135,1.24865 -12.088,1.15623 -17.4405,3.74598 -7.847,3.79663 -13.6276,14.14179 -17.1065,21.47628 -8.863,18.6854 -13.4913,39.01702 -17.1388,59.2488 -0.8118,17.00533 -4.0317,30.88828 3.9623,46.77614 3.464,6.88451 7.7871,14.02932 14.277,18.18595 14.0218,8.98073 26.14,4.13404 37.598,-4.78427 3.4307,-2.67023 5.232,-6.94439 7.848,-10.4166 2.4095,-4.27768 5.047,-8.43476 7.2286,-12.83306 5.5321,-11.15327 9.231,-20.91917 12.4852,-32.97634 3.3723,-12.49495 5.9364,-23.83512 5.0545,-36.85786 -0.3958,-5.84301 -2.1194,-11.51946 -3.179,-17.27917 -3.0663,-5.57474 -5.0598,-11.89217 -9.1987,-16.72421 -14.4226,-16.83771 -40.0915,-17.81529 -59.0289,-9.29248 -4.3695,1.96649 -8.0124,5.25746 -12.0185,7.8862 -8.404,8.84724 -14.7252,13.41411 -17.8419,26.31784 -3.801,15.73641 2.9195,33.30326 17.5245,41.02399 4.6508,2.45858 10.1342,2.82791 15.2013,4.24187 4.2273,-0.57552 8.5601,-0.62589 12.682,-1.72659 15.9039,-4.24688 33.5872,-19.4846 40.6648,-34.12082 2.4658,-5.09921 3.2846,-10.84162 4.9269,-16.26243 -0.2096,-5.27151 0.2315,-10.60945 -0.6286,-15.81452 -0.7518,-4.54953 -2.2738,-8.98623 -4.1647,-13.19196 -7.9121,-17.59805 -19.8426,-29.67993 -40.7341,-28.75772 -5.3349,0.2355 -10.1128,3.43479 -15.1692,5.15217 -4.3369,3.38186 -9.117,6.26158 -13.0107,10.14553 -11.7037,11.67471 -24.9232,34.08561 -27.6941,50.38812 -1.0337,6.08182 -2.5346,12.93022 0.1032,18.50684 3.8251,8.08641 12.0309,13.24166 18.0464,19.86248 6.2607,-0.71104 12.7637,-0.26744 18.7822,-2.13315 3.6315,-1.12575 6.5484,-3.97332 9.3181,-6.57788 10.8132,-10.16836 16.3902,-22.87532 14.1606,-37.861 -0.7151,-4.80695 -2.7859,-9.31191 -4.1789,-13.96783 -3.3006,-4.47633 -5.7968,-9.67653 -9.9018,-13.42898 -4.242,-3.87768 -9.3214,-6.9659 -14.6805,-9.04227 -27.935,-10.82337 -57.5999,3.59799 -83.179,13.68295 -16.1788,6.44737 -29.4513,12.01373 -45.809,17.54783 -4.739,1.60327 -9.6755,2.59606 -14.3801,4.29728 -1.6275,0.58849 -2.8748,2.0283 -4.528,2.5399 -0.9574,0.29625 -1.9995,-0.14044 -2.9992,-0.21066 -0.4411,0.21116 -0.8823,0.42232 -1.3235,0.63349 -3.042,0.75641 -2.3656,-1.16671 -2.2018,-4.26151 0.062,-1.16846 0.2237,-2.33098 0.4073,-3.48658 0.1259,-0.79174 0.6312,-1.55424 0.52,-2.34817 -0.04,-0.2861 -0.5745,-0.0614 -0.8617,-0.0921 -1.6983,0.57457 -3.3027,1.67437 -5.0949,1.72368 -7.2227,0.19879 -9.6539,-1.11334 -13.9063,-6.57918 -0.4547,-0.58441 -0.4438,-1.47299 -0.3049,-2.20027 0.1089,-0.56981 1.7601,0.30591 1.7403,-0.0193 0.3576,0.22987 1.0444,0.26543 1.0729,0.68964 0.1652,2.46457 -2.4682,4.19103 -3.8514,5.5395 -0.6355,0.61952 -2.0964,0.97004 -1.9238,1.84058 0.2015,1.01597 1.8314,0.99901 2.6201,1.67036 1.1066,0.94189 2.0183,2.09116 3.0275,3.13674 0.3388,1.15562 0.9868,2.26296 1.0166,3.46689 0.01,0.33248 -0.781,-0.0445 -0.9391,-0.33716 -0.4687,-0.8678 -0.6218,-1.88026 -0.784,-2.85313 -0.6588,-3.95208 -0.2037,-4.89625 1.3868,-9.15839 0.67,-1.79552 1.605,-3.48068 2.4075,-5.221 0.6546,-1.13644 1.3532,-2.24867 1.9639,-3.40931 0.2585,-0.49136 1.1717,-1.38076 0.6393,-1.53811 -2.4598,-0.72697 -5.404,0.64908 -7.6759,-0.54149 -3.962,-2.07619 -6.9749,-5.62901 -10.1368,-8.7929 -0.3323,-0.33248 -0.5138,-1.2917 -0.059,-1.40891 0.4608,-0.11866 0.4676,0.82892 0.7014,1.24336 1.6818,11.16467 -0.8119,19.12601 -7.5372,28.2349 -0.5419,0.69464 -1.02,1.44423 -1.6257,2.08391 -0.4592,0.48485 -2.356,1.7471 -2.3344,2.09376 0.044,0.70972 0.7159,1.23351 0.9903,1.88952 2.5049,5.98884 1.6143,3.76605 0.9041,11.7783 -0.6942,0.78618 -1.0787,2.05528 -2.0827,2.35857 -0.7011,0.21175 0.5395,-1.3671 0.9037,-2.00244 0.3968,-0.69221 0.795,-1.40952 1.3695,-1.96316 3.8099,-3.67138 9.269,-4.69236 14.1865,-5.91725 2.3765,-0.2632 4.7486,-0.56911 7.1294,-0.78959 1.6979,-0.15724 3.4263,-0.0385 5.104,-0.34335 0.4885,-0.0887 0.8541,-0.51049 1.2494,-0.81103 0.2407,-0.18304 0.3608,-0.72234 0.6498,-0.63309 1.6729,0.51665 3.7355,4.00388 4.3392,4.82732 2.7427,5.03243 5.4772,10.44368 5.6723,16.34172 0.258,7.80087 -2.8407,15.16349 -5.8621,22.15399 -0.8575,1.63629 -1.4965,3.40712 -2.5724,4.90884 -6.6116,9.22906 -18.3671,10.34645 -28.6463,8.36306 -1.6269,-0.45911 -3.2224,-1.04889 -4.8806,-1.37737 -0.6519,-0.12912 -2.7128,0.25027 -3.4557,-0.25797 -3.3151,-2.26806 -0.8672,-8.3403 -0.7478,-11.18875 0.5935,-1.99285 1.0487,-4.03223 1.7805,-5.97856 5.2843,-14.05524 14.3112,-22.9929 27.223,-30.42449 2.8156,-1.34784 5.5684,-2.83564 8.4469,-4.04349 5.957,-2.49965 8.1275,-2.92338 14.0725,-4.24852 1.8139,-0.40434 3.6258,-1.13115 5.4811,-1.0215 0.7863,0.0465 1.5239,0.39976 2.2858,0.59965 0.5317,-0.0201 1.172,-0.38264 1.5951,-0.06 2.0184,1.53913 2.4711,4.97025 2.9482,7.06498 0.267,1.172 -0.052,2.5871 0.6785,3.54158 0.5576,0.72845 3.1041,3e-5 2.6366,0.78934 -1.1757,1.98479 -3.7012,2.75468 -5.5517,4.13199 -2.6501,1.41695 -5.2039,3.03088 -7.9503,4.2508 -12.509,5.55638 -29.9751,9.91669 -43.7072,10.22789 -2.6025,0.059 -5.1986,-0.28406 -7.7979,-0.42608 -2.0653,-0.33251 -4.1387,-0.61807 -6.1959,-0.99751 -1.2098,-0.22315 -2.4096,-0.50189 -3.6007,-0.80941 -0.7171,-0.18516 -1.3805,-0.72054 -2.1191,-0.66741 -0.32,0.023 -0.1435,0.9549 -0.4472,0.85193 -0.3076,-0.1043 -1.7529,-2.15747 -2.0334,-2.54368 -1.0591,-3.0367 -0.7354,-5.78546 -0.5571,-9.02491 0.3103,-5.6356 0.7882,-11.26845 1.7088,-16.8411 2.0098,-10.98061 4.8522,-21.75743 11.239,-31.10786 3.0333,-3.62145 4.1923,-5.21298 7.62,-8.47608 2.0814,-1.98147 4.2673,-3.85006 6.3999,-5.77636 0.4127,-0.37274 0.9938,-0.58563 1.2926,-1.05465 0.094,-0.14719 -0.2974,-0.1828 -0.4461,-0.27422 -0.2573,-0.0879 -0.6311,-0.0311 -0.7721,-0.26366 -0.094,-0.15541 0.3449,-0.14168 0.5266,-0.14139 0.7298,0 1.4577,0.0798 2.1844,0.14589 2.685,0.24419 5.356,0.659 7.9411,1.446 12.5152,4.45156 23.048,12.93191 32.9126,21.62157 1.8431,1.80207 3.7794,3.51361 5.5294,5.40623 5.4917,5.93902 11.5578,13.97214 14.163,21.73007 0.6772,2.01673 0.9935,4.13718 1.4902,6.20577 0.934,5.56239 1.5177,8.07625 1.7771,13.86057 0.5639,12.5798 -1.0165,25.20381 -4.2287,37.35793 -1.4402,4.5974 -2.6903,11.28225 -6.7681,14.61968 -6.0331,4.93784 -14.6072,5.63031 -21.8631,6.99135 -13.5754,1.18597 -27.1414,2.38845 -40.7436,3.23167 -3.2715,0.20283 -6.546,0.35335 -9.8185,0.53922 -1.5214,0.0864 -3.0398,0.31729 -4.5631,0.27758 -1.0302,-0.0269 -2.0364,-0.31748 -3.0546,-0.4762 -11.1898,-4.64553 -20.8006,-12.24997 -28.8465,-21.26385 -4.0389,-5.49224 -6.9549,-10.11597 -9.1695,-16.65105 -0.5893,-1.739 -0.8,-3.59447 -1.4259,-5.32063 -0.123,-0.33928 -0.4965,-0.98169 -0.7767,-0.75428 -0.8724,0.708 -1.2021,1.89857 -1.8032,2.84787 -1.125,1.03307 -2.0386,2.35979 -3.3752,3.09917 -2.0819,1.15171 -4.3378,2.15636 -6.696,2.47211 -3.5586,0.47649 -10.5768,-0.9175 -11.843,-5.20211 -0.043,-0.1461 0.3013,-0.0453 0.4519,-0.0679 1.8499,3.16569 1.1817,1.6932 2.6349,6.61101 1.8309,6.19644 3.3433,12.56281 3.6611,19.0351 0.048,11.37457 -4.3344,22.09866 -8.9036,32.34616 -3.9754,8.37727 -8.1074,16.66841 -12.4049,24.88621 -2.3332,4.46153 -6.7026,11.69 -7.6297,16.67549 -0.704,3.78595 -0.2035,7.69901 -0.3053,11.54851 3.8103,4.96673 6.8877,10.59376 11.431,14.90017 1.7061,1.61721 4.402,1.67973 6.6787,2.26531 7.6815,1.97572 16.4163,0.59894 24.2011,1.41065 17.0516,-0.10152 34.1135,-0.23598 51.1388,-1.2868 12.2631,-0.96938 24.3373,-2.902 36.4422,-5.065 26.9533,-4.65404 53.7418,-10.23469 80.3587,-16.53262 2.6343,-0.5321 5.248,-1.17853 7.9028,-1.59626 19.2513,-3.02929 38.9497,-1.5545 58.3292,-2.15138 24.7436,-0.0243 49.4981,-0.0763 74.2336,0.37084 0.043,-0.11289 -0.016,-0.90932 0.2146,-0.8088 2.0761,0.90413 3.223,3.86387 4.2124,5.45232 1.7495,3.24027 4.547,7.41921 5.9067,10.85001 2.0209,5.09955 3.0141,10.58148 5.1368,15.65006 3.9153,11.7675 8.0742,23.5861 9.5825,35.9581 1.7114,11.403 3.7298,23.1282 2.2054,34.6476 -2.1187,12.5272 -6.2806,24.5493 -9.3552,36.8583 -3.4937,12.6275 -6.2715,25.5202 -10.6304,37.8741 -2.0181,4.2121 -0.057,0.3464 -2.5877,4.6454 -0.2273,0.3862 -0.3333,0.844 -0.6043,1.2009 -2.2049,2.9044 -5.7987,4.4449 -8.6308,6.5715 -10.5095,6.3931 -21.1575,12.5199 -32.455,17.4425 -10.5678,5.1166 -20.7115,11.0461 -31.4394,15.8427 -8.8866,4.234 -17.953,8.0975 -26.702,12.6253 -9.8813,4.9786 -19.8313,9.8247 -29.8676,14.4656 -0.7653,0.3404 -1.5504,0.6394 -2.296,1.0213 -0.2884,0.1478 -0.4778,0.4897 -0.7939,0.5614 -8.3103,1.8853 -17.184,-0.077 -25.553,0.219 -21.1436,-1.4562 -42.3008,-3.0917 -63.2051,-6.7173 -5.9872,-1.0891 -3.2783,-1.1031 -2.1654,0.2525 0.155,0.1889 -0.4638,-0.1615 -0.6771,-0.2806 -0.4579,-0.2558 -0.9035,-0.5357 -1.3302,-0.8407 -1.8065,-1.2908 -3.2245,-2.5645 -4.95,-4.0213 -5.8937,-5.0136 -0.025,0 -5.5075,-4.7464 -0.5014,-0.4341 -0.8919,-1.5181 -1.5145,-1.29 -0.5431,0.199 0.5641,1.0861 0.5017,1.6611 -2.3652,21.8026 1.7325,14.9767 -15.1511,24.9855 -4.1007,-0.1 -7.7331,-2.9118 -9.4883,-6.6079 4.1206,7.4763 8.4741,14.7742 13.2347,21.8719 3.758,6.2059 7.5668,12.3724 11.5176,18.4583 1.1762,1.8119 2.3654,3.6154 3.5681,5.4099 0.5805,0.8662 1.3071,1.6428 1.7811,2.5717 0.7289,1.4283 1.2044,2.9724 1.8067,4.4586 1.1289,2.6342 1.796,4.3396 3.0278,6.7761 0.2408,0.4764 0.5999,0.8952 0.7848,1.3959 1.2465,3.3743 1.4735,7.0144 1.3385,10.5704 -0.364,3.1267 -0.8514,10.944 -2.46,13.8373 -1.3118,2.3596 -3.1174,3.9164 -4.9883,5.8644 -3.7381,3.4053 -7.5334,6.5198 -11.7479,9.3291 -1.0357,0.6905 -2.0361,1.457 -3.1641,1.9834 -4.3185,2.0148 -8.1488,2.7157 -12.8133,3.9092 -10.4021,1.8157 -20.8535,3.1334 -31.2819,4.779 -4.4764,0.7064 -13.2674,2.3433 -17.9576,3.0468 -2.794,0.4192 -5.6013,0.7436 -8.4019,1.1153 -13.2092,1.4226 -5.8362,0.6692 -19.3323,1.9555 -11.8771,1.132 -24.2219,1.5958 -34.6478,8.1088 -6.1435,4.0939 -11.9504,8.954 -19.2895,10.6908 -2.2407,0.4057 -4.4595,0.9612 -6.7223,1.2171 -6.5582,0.7417 -15.0418,0.7762 -21.4934,0.7744 -13.4227,0 -26.8482,-0.3947 -40.2565,-0.9837 -21.9675,-1.4804 -43.9914,-3.7923 -63.9565,-13.8844 -10.9272,-5.3869 -9.9536,-4.6622 -20.6345,-10.9403 -14.6738,-8.625 -28.6057,-18.6282 -44.3474,-25.3222 -4.2523,-1.5134 -8.4117,-3.319 -12.7569,-4.5401 -4.8686,-1.3682 -10.3811,-1.5448 -15.3977,-1.9959 -10.5741,-0.9507 -21.1279,-2.1258 -31.6502,-3.5407 -12.1308,-1.7996 -12.9884,-1.7898 -24.9026,-4.091 -14.0097,-2.7059 -27.9804,-6.4832 -42.3888,-5.8993 -18.7657,0.2387 -37.53,0.7028 -56.2798,1.5226 -19.3416,0.9672 -38.7471,1.9727 -57.5158,7.2296 -19.5295,5.1026 -38.8129,11.0932 -57.1404,19.6575 -20.7519,8.7192 -42.2721,15.3102 -64.1565,20.5678 -10.6857,2.7637 -22.1849,5.729 -32.8651,8.5268 -15.7918,4.1368 -31.6511,8.4091 -48.0436,9.2875 -16.3002,1.0888 -32.72,2.3423 -49.0513,1.5092 -5.9876,-0.4426 -11.9593,-0.9687 -17.9358,-1.5408 -3.4877,-0.3339 -10.4187,-1.1228 -13.681,-0.7734 -3.2631,0.3495 -6.4204,1.3637 -9.6307,2.0456 -2.9797,2.0356 -6.2085,3.7475 -8.939,6.1067 -1.5055,1.3007 -2.5491,3.0689 -3.6209,4.7451 -4.0922,6.3992 -5.7497,13.9377 -6.7151,21.3583 -0.7396,8.938 -2.3369,17.7862 -2.6416,26.7535 0.1311,8.6098 0.4891,17.2477 2.0659,25.7341 2.7264,12.123 6.8584,22.7971 15.8382,31.7812 11.1316,10.0841 23.4312,19.221 36.8283,26.0523 2.8875,0.8694 5.7229,1.9359 8.6625,2.6082 4.5564,1.0422 10.561,1.381 15.2052,1.5583 9.7304,0.3716 19.4857,0.2177 29.2106,-0.2008 15.2143,-0.9071 30.5426,-2.2208 44.4203,-9.1217 12.0043,-5.3934 24.4868,-9.7866 35.8124,-16.6025 2.6521,-1.7145 5.3795,-3.3178 7.9564,-5.1434 3.9979,-2.8322 10.0232,-8.0003 13.6501,-11.1703 8.7098,-7.6124 17.0417,-15.6246 25.1318,-23.8921 8.5419,-8.3113 17.0292,-16.6758 25.5432,-25.0151 1.894,-1.8551 6.6638,-3.0457 5.7223,-5.5242 -15.1461,-39.8723 -10.3049,-40.9239 -25.1054,-31.7332 -9.095,7.2952 -17.9364,14.9046 -27.2403,21.9394 -12.2217,9.4453 -24.3276,19.0469 -35.2164,30.046 -6.2383,6.3474 -12.0106,13.3622 -19.4076,18.4204 -0.8942,0.6182 -4.8793,3.2234 -4.8522,3.265 23.0912,35.4051 12.1305,40.8627 25.7059,30.0278 9.1589,-7.9949 18.2274,-16.3597 24.9262,-26.5976 3.3888,-5.1683 2.8113,-4.1842 5.9328,-9.3392 2.3458,-3.8741 4.2927,-7.8377 7.8083,-10.8492 2.4456,-2.2708 4.4058,-4.1714 7.0273,-6.2665 6.8374,-5.4644 14.4936,-9.7198 21.9122,-14.3163 9.4356,-6.2584 19.2634,-12.2619 26.0495,-21.5823 5.4495,-6.1642 11.0983,-12.0979 18.3881,-16.1613 4.2112,-2.4232 8.4984,-5.0307 13.143,-6.5709 6.3563,-2.1077 13.0711,-3.0387 19.6226,-4.2708 17.0446,-2.3465 34.1854,-3.9507 51.389,-2.2335 2.7449,0.2585 9.2844,0.6098 12.0713,1.7352 5.4729,2.21 9.4845,7.1224 14.234,10.3816 13.3409,11.4938 26.4009,23.312 39.6293,34.9324 6.212,4.882 12.5012,9.6504 17.9805,15.3834 2.195,2.342 4.2188,4.8452 6.4835,7.1198 5.2783,5.3015 11.6022,9.4399 18.2654,12.7787 11.1309,5.2346 22.1286,10.9035 34.0944,14.0367 2.7749,0.7145 5.4009,2.0967 8.1158,2.9982 4.3528,1.4454 8.8891,2.2394 13.3054,3.448 14.2271,3.2677 28.436,6.7126 42.9717,8.3568 2.004,0.1277 4.0041,0.3706 6.0122,0.3832 7.236,0.046 14.1686,-1.8114 20.7951,-4.6013 10.2191,-4.2323 20.4559,-8.4395 30.9089,-12.0698 12.6446,-4.3253 25.8173,-7.4308 37.3073,-14.5951 10.5968,-6.008 21.0115,-12.3299 31.6523,-18.2566 3.6766,-1.6709 7.6742,-3.5851 11.491,-4.9357 8.1371,-2.8792 16.633,-4.519 25.2253,-5.2066 15.4293,-1.3423 30.8949,-2.8458 46.3942,-2.8102 11.1655,-0.015 22.331,-0.049 33.4966,-0.036 14.3227,0.043 28.6594,0.038 42.9604,0.9298 12.7046,1.0326 25.0647,4.2161 37.647,6.1565 14.3837,2.3767 28.8623,4.052 43.3078,6.0071 15.4127,2.1031 30.8409,3.7563 46.3913,4.4504 12.7894,0.6847 25.6446,0.9447 38.3985,-0.4855 9.621,-1.2692 19.3091,-2.6033 28.6213,-5.4013 9.7748,-3.3916 19.1759,-7.6852 27.8583,-13.3658 6.6853,-4.2529 12.1288,-7.6396 20.0815,-9.3052 14.2907,-3.7065 28.7704,-8.1363 38.5414,-19.9848 7.6181,-9.8067 11.3802,-17.9916 12.2069,-30.5745 0.3782,-7.8269 0.1858,-15.688 1.077,-23.484 1.921,-9.8191 5.2987,-19.2849 7.9775,-28.9084 4.241,-13.9891 7.5638,-28.1994 11.5899,-42.2478 2.2775,-8.6383 5.9993,-16.8092 7.9954,-25.5411 2.6207,-11.7951 3.7275,-23.8014 4.0218,-35.8781 0.6936,-15.5509 1.2645,-31.1011 1.5581,-46.6655 0.628,-21.6577 1.0191,-43.353 -1.1248,-64.9532 -1.6465,-22.3713 -3.3642,-44.8121 -2.4718,-67.2591 0.7077,-14.5526 2.1764,-29.03423 4.6061,-43.40891 1.8706,-14.12327 2.8162,-28.36132 5.3873,-42.38373 0.4935,-2.39517 0.9478,-4.79872 1.4805,-7.1855 0.4972,-2.22764 1.0226,-4.44974 1.6085,-6.65568 0.8309,-3.12817 6.7603,-19.77138 4.4707,-21.3733 -9.8882,-6.91806 -22.7861,-7.95854 -34.1791,-11.93782 -4.801,4.96523 -10.7911,8.41841 -16.6466,12.02005 -0.7785,0.50337 -1.5569,1.00674 -2.3354,1.51011 -0.2537,0.24111 -0.47,0.52895 -0.7611,0.72329 -2.7882,1.86148 -6.7074,-0.0764 -9.6872,0.0892 -17.1761,-2.47038 -33.9958,-7.11382 -50.3553,-12.84332 -2.9001,-1.1934 -5.8885,-2.19141 -8.7002,-3.58018 -4.8641,-2.40245 -7.0917,-4.40926 -11.1993,-7.64511 -0.8517,-0.67091 -1.7749,-1.26273 -2.5434,-2.02758 -2.4862,-2.47457 -4.3807,-5.46013 -6.3943,-8.2989 -2.901,-4.91037 -4.5958,-7.3393 -6.6953,-12.73913 -3.671,-9.44205 -5.2959,-19.46412 -6.7522,-29.42952 -1.3593,-10.00009 -2.7407,-20.14924 0.085,-30.06029 0.5535,-2.02396 0.7386,-3.20924 1.7578,-5.03889 2.2801,-4.09297 5.9701,-7.16716 9.1881,-10.48017 4.8159,-3.52436 9.869,-7.10615 15.9743,-7.68654 11.7821,-1.24815 23.627,-1.6628 35.4584,-2.21078 9.6731,-0.70094 19.4264,-1.67164 28.0541,-6.50245 1.891,-1.43106 4.0624,-2.55249 5.6729,-4.29316 8.0713,-8.72371 9.2077,-17.45959 7.7804,-28.5985 -1.2135,-8.82065 -2.7263,-17.6898 -5.7294,-26.09675 -5.0102,-12.50548 -11.7527,-24.0783 -21.745,-33.32363 -11.2504,-10.27878 -20.3483,-17.00067 -35.7152,-19.68455 -14.6984,-2.87714 -29.6334,-4.67821 -44.6087,-5.14051 -12.2637,0.22378 -24.5536,0.59277 -36.7009,2.44747 -14.7973,2.2198 -29.5964,4.43778 -44.3541,6.91049 -17.1698,3.42017 -33.9753,8.42608 -49.5313,16.63007 -13.3013,6.95529 -27.0053,13.51561 -38.8209,22.88654 -9.943,8.41764 -20.4044,16.66528 -26.4386,28.52214 -4.6374,8.62007 -8.9764,17.41331 -14.1157,25.75176 -3.0263,4.86452 -6.1383,9.67533 -8.7754,14.76936 -2.2248,4.29752 -1.4849,3.71144 -3.7194,7.87519 -0.8734,1.62764 -1.8556,3.19455 -2.7834,4.79184 -8.7226,14.28499 -19.8201,26.93665 -27.9468,41.6047 -3.6264,7.40698 -5.1412,9.98347 -7.9388,17.79807 -3.2879,9.18445 -5.0308,18.8823 -7.3426,28.32986 -1.1838,5.81403 -1.8252,8.38351 -2.5498,14.30859 -0.9751,7.97261 -0.7329,16.00904 -0.7571,24.01935 0,14.16486 -0.014,28.32989 0.059,42.4946 0.091,11.6265 0.1965,23.25909 0.8549,34.87025 0.584,9.48061 0.9963,18.94864 1.0355,28.45137 0.5499,15.2814 1.5858,30.5336 3.4356,45.7184 1.8776,17.9897 2.4926,36.2662 7.1871,53.8156 0.9329,2.9813 1.7527,6.0004 2.7988,8.9438 4.0915,11.512 10.4178,22.0983 14.773,33.5011 4.7477,10.4755 9.2325,21.0737 14.2651,31.4183 4.0806,9.2879 9.0656,18.1168 13.5002,27.2372 5.14,10.7999 10.4756,21.5076 15.2885,32.4598 1.3661,3.161 3.1207,7.3658 4.701,10.35 2.9718,5.6122 7.005,10.5384 10.9128,15.5039 2.6334,3.2027 5.3233,6.3571 7.828,9.663 0.9138,1.2061 2.2294,3.2382 2.4728,3.0441 0.3751,-0.2992 0.2057,-0.9374 0.3085,-1.4061 0.2082,-0.4408 0.5994,-1.8092 0.6245,-1.3224 0.048,0.9347 -0.3261,1.8447 -0.5507,2.7532 -1.3532,5.472 -3.4565,10.768 -6.0427,15.7661 -4.2021,7.7093 -9.9207,14.5636 -13.0578,22.8313 -2.1722,4.6656 -4.4223,9.1635 -8.1997,12.8036 -11.026,12.4787 -8.8306,7.7441 18.1023,35.8886 1.7103,1.7871 4.4909,-2.1007 6.5987,-3.3952 4.8153,-2.9572 8.463,-7.7423 12.1521,-11.8749 4.9108,-6.9511 9.0971,-14.352 14,-21.3109 3.7927,-4.9551 8.1267,-9.4355 11.6371,-14.6115 0.213,-0.314 -0.5215,0.5514 -0.7822,0.8271 -5.4738,2.1126 -10.9476,4.2252 -16.4214,6.3378 -4.7328,-2.8743 -9.6597,-5.4509 -14.1982,-8.6229 -0.605,-0.4228 -0.7007,-1.3024 -0.9803,-1.9854 -0.1157,-0.2824 -0.3698,-1.1461 -0.1985,-0.8936 0.4864,0.7171 0.6785,2.5299 0.7869,3.1986 0.4691,2.6774 0,-0.3089 0.2071,5.4087 0.1798,5.0356 0.9148,10.0444 1.2252,15.071 0.016,0.2148 0.3623,7.9702 0.4664,8.0947 0.2559,0.3061 1.0498,-0.7053 1.1689,-0.258 -2.0538,6.085 -15.0671,5.0295 -19.6311,5.225 -9.8184,-0.7688 -19.5108,-2.01 -29.2592,-3.4246 -3.4714,-0.5037 -20.2449,-3.0037 -24.0288,-3.6953 -2.8521,-0.5212 -5.6682,-1.2234 -8.5023,-1.8352 -1.4228,-0.3807 -2.8789,-0.6539 -4.2684,-1.1423 -5.8775,-2.066 -10.7645,-6.3028 -15.6877,-9.9294 -10.2348,-9.1652 -18.3228,-18.1408 -26.9789,-28.7869 -1.8188,-2.2369 -3.6723,-4.4455 -5.5085,-6.6682 -6.2225,-6.1979 -6.8069,-7.5205 -14.4466,-12.1179 -9.3216,-5.6096 -20.3827,-7.8838 -30.6782,-10.886 -3.2482,-0.6086 -6.463,-1.4352 -9.7445,-1.8258 -8.5534,-1.0181 -17.1868,1.4231 -25.6039,2.4228 -14.71,2.6153 -30.004,5.194 -40.9873,16.307 -8.4822,7.3715 -16.2901,15.6328 -25.8263,21.6881 -2.8584,1.6685 -4.4159,2.7244 -7.5652,3.9333 -8.5992,3.3011 -17.7594,4.9718 -26.8723,6.0104 -3.1988,0.2853 -29.7316,2.0084 -30.0003,4.2487 -4.7543,39.6455 -1.4902,39.2459 17.9421,38.0559 6.4027,-0.3725 12.8043,-0.7652 19.2126,-1.0298 1.2886,-0.053 2.5901,0.051 3.8668,-0.1318 0.2128,-0.03 0.5762,-0.3256 0.4285,-0.4817 -1.9762,-2.0906 -4.2527,-3.8754 -6.379,-5.8131 -0.3309,-0.7661 -0.7232,-1.5086 -0.9929,-2.2983 -0.058,-0.1712 -0.034,-0.7136 0.023,-0.542 0,0.012 1.1017,4.3562 1.1301,4.3828 1.2917,1.2076 -3.4704,-13.2604 1.1811,-5.1719 1.0261,-0.7284 6.8573,-2.9606 6.2619,-0.8142 -16.6286,-2.456 -32.7955,-7.6983 -48.2614,-14.1838 -3.7769,-1.9465 -10.8412,-5.3621 -14.5957,-8.0271 -6.1751,-4.3831 -11.2119,-10.2859 -16.4968,-15.6397 -3.0846,-4.1432 -5.327,-8.6625 -7.9892,-13.0839 -2.9751,-4.9411 -4.0818,-6.5478 -7.3746,-11.0302 -1.4133,-1.9238 -2.8678,-3.817 -4.3017,-5.7255 -1.6068,-1.7702 -3.1169,-3.6334 -4.8206,-5.3106 -8.0532,-7.9281 -18.0036,-13.7097 -28.7666,-17.0751 -10.4507,-2.5768 -21.3202,-4.7045 -32.084,-2.8805 -8.2539,1.2016 -16.5469,2.1193 -24.7527,3.6438 -11.8542,1.7982 -23.759,4.0449 -34.5131,9.6156 -10.738,4.9382 -21.8356,9.2584 -31.7414,15.8172 -7.5557,5.549 -14.5913,11.7822 -22.4052,16.9774 -2.9395,2.0702 -5.8719,4.5457 -9.0066,6.3473 -4.8134,2.7665 -10.0188,4.7743 -14.9369,7.3341 -11.4024,5.5813 -23.1276,10.5928 -33.9683,17.2355 -2.4628,1.4152 -5.1556,3.4395 -7.8295,4.4975 -3.6911,1.4604 -7.7458,1.4983 -11.6431,1.7274 -14.2989,-0.8423 -28.3156,-4.2461 -42.2872,-7.2173 -1.9435,-0.4536 -3.9949,-0.6006 -5.8182,-1.412 -4.4718,-1.9901 -8.5398,-4.9793 -13.3563,-6.2215 -7.9932,-3.2776 -16.2797,-5.8289 -24.8034,-7.3177 -10.5987,-1.9301 -21.349,-3.7078 -32.1577,-2.7574 -12.564,1.0568 -25.2341,2.5987 -37.0786,7.1592 -2.2968,1.2161 -4.6579,2.3177 -6.8902,3.6482 -1.2079,0.7199 -2.2883,1.6355 -3.406,2.4886 -5.8306,4.4504 -11.1653,9.4777 -15.6324,15.3203 -6.8098,8.8534 -14.073,17.4623 -19.3165,27.3812 -11.4873,25.8465 25.0651,42.092 36.5525,16.2455 z" /><path
       style="fill:#ffaaaa;stroke-width:40;paint-order:markers stroke fill;fill-opacity:1"
       id="path894"
       d="m 2161.4773,753.22397 c -7.0633,3.02578 -13.1644,7.69676 -19.0648,12.53631 -6.133,5.03036 -6.6422,5.66163 -12.5704,11.12514 -7.6966,7.69422 -14.9947,15.89508 -20.2838,25.47258 -2.9668,5.37239 -3.369,7.01815 -5.4762,12.60644 -2.4362,7.81497 -3.6766,15.31829 -2.9484,23.51736 0.4036,4.54498 1.082,6.58505 2.1634,10.9643 2.7396,8.85516 6.7937,16.4899 12.8023,23.58946 3.7634,4.44667 5.6401,5.78707 9.9949,9.56736 8.3447,6.34169 17.6376,11.4473 27.4507,15.13692 1.6403,0.61674 3.3164,1.13392 4.9745,1.70087 6.4523,2.04108 13.1825,3.44392 19.9804,3.4381 5.436,-0.004 6.9251,-0.36809 12.1657,-1.06407 2.3848,-0.65762 4.8242,-1.14237 7.1544,-1.97287 6.7304,-2.39874 12.677,-6.35743 17.6958,-11.4132 4.1743,-4.20497 4.7039,-5.71857 7.9308,-10.85604 1.0523,-2.70504 2.2789,-5.3486 3.1568,-8.11516 1.375,-4.33314 2.2142,-9.90275 2.7467,-14.40061 0.7576,-6.40104 0.9648,-12.84597 1.183,-19.28119 0.042,-7.05914 0.582,-14.19998 -0.63,-21.20369 -0.9243,-5.34109 -1.4928,-6.22972 -3.3081,-11.18227 -4.8539,-11.06852 -13.7668,-19.27844 -22.6698,-27.10831 -5.8578,-4.69071 -12.1873,-10.80902 -19.8792,-12.21337 -3.123,-0.57018 -6.344,-0.25559 -9.516,-0.38338 -2.6712,0.75861 -5.4495,1.20991 -8.0136,2.27581 -9.2718,3.85432 -17.6981,12.68277 -22.8012,21.1346 -1.4101,2.33545 -2.4887,4.85563 -3.733,7.28347 -0.908,2.45126 -1.9592,4.85416 -2.724,7.35381 -1.5478,5.05909 -2.4595,10.18111 -3.1543,15.41166 -0.5435,4.09112 -1.0575,9.99564 -1.0458,14.12949 0.01,2.46594 0.2364,4.9262 0.3547,7.38931 2.2166,9.10042 1.9827,12.69569 9.5368,20.21033 5.8046,5.77437 13.3073,8.58208 21.1249,9.969 7.0769,1.2555 10.7255,0.49567 17.6171,-0.13497 2.5483,-0.6218 5.164,-1.01356 7.6448,-1.86539 7.9129,-2.71685 14.6865,-7.48176 19.6065,-14.28665 3.4615,-4.78769 3.9356,-7.0652 5.918,-12.37356 0.4355,-2.55611 1.112,-5.08273 1.3065,-7.66837 0.879,-11.68431 -3.5155,-22.73038 -13.1038,-29.80343 -2.519,-1.85819 -5.5598,-2.87798 -8.3396,-4.31699 -2.1335,-0.60151 -4.2304,-1.35253 -6.4005,-1.80452 -6.2634,-1.30455 -12.7838,-1.22454 -18.956,0.52679 -4.6611,1.32257 -5.9368,2.37516 -9.8782,4.69389 -3.723,3.26089 -7.7427,5.98475 -8.9592,11.38333 -2.1547,9.56202 -1.1685,15.89799 5.7075,22.71668 2.1626,2.14455 4.9232,4.00724 7.9185,4.55869 4.6636,0.8586 9.4785,-0.32224 14.2178,-0.48337 2.3499,-1.40967 4.6998,-2.81935 7.0497,-4.22902 22.1682,-17.56614 -2.674,-48.91675 -24.8423,-31.35061 v 0 c 1.4532,-0.69911 2.9064,-1.39825 4.3596,-2.09735 4.0234,0.0941 8.1524,-0.63815 12.0702,0.28231 2.5001,0.58735 4.7813,2.20744 6.5305,4.08765 2.2006,2.3653 4.3239,5.14429 4.998,8.30379 1.7966,8.42087 0.2372,12.54678 -4.5229,18.2998 -0.7125,0.86114 -1.78,1.35213 -2.6701,2.02819 -0.9932,0.39169 -2.2501,0.92784 -3.3398,0.49988 -0.4521,-0.17751 1.6452,-0.60161 1.4502,-0.44424 -0.4806,-0.48953 -1.0337,-0.91707 -1.4416,-1.46857 -0.8412,-1.13728 -2.9781,-4.1261 -1.9285,-5.82771 0.1736,-0.28146 1.0681,0.44582 0.8294,-0.54428 0.03,0.14815 -0.041,0.37058 0.091,0.44445 0.2211,0.1238 1.6048,-0.59626 1.9472,-0.23781 0.1393,0.14579 -0.083,0.43935 -0.2513,0.55021 -0.4958,0.32644 -1.0931,0.46323 -1.6397,0.69484 -0.8254,0.1641 -1.6483,0.34047 -2.476,0.49226 -0.6328,0.1161 -1.2815,0.15224 -1.9049,0.31131 -0.3339,0.0852 -0.9856,0.0739 -0.9463,0.41622 0.099,0.85796 0.96,1.45502 1.2544,2.26689 1.4228,3.92369 2.1362,3.74087 0.3458,3.7323 -0.1031,-1.11726 -0.2866,-2.23002 -0.3093,-3.3518 -0.06,-2.95121 0.2788,-6.74685 0.617,-9.65269 0.2516,-2.16217 0.7991,-5.96278 1.3492,-8.18941 0.2624,-1.06267 0.6436,-2.09248 0.9654,-3.13872 0.7033,-1.69746 1.28,-3.34902 2.3007,-4.89006 0.4802,-0.72501 1.0562,-1.3829 1.6218,-2.04343 0.4082,-0.47667 1.0141,-0.8046 1.2968,-1.36485 0.4283,-0.84876 -7.5059,1.46542 -2.8516,-0.0597 -5.4323,-0.95192 -3.6268,-0.13653 -7.6909,-2.36726 -0.1298,-0.0712 0.2904,0.0772 0.4155,0.15627 2.3238,1.46875 4.3629,3.35631 6.5026,5.06399 4.1804,3.65159 8.4983,7.29014 11.8474,11.7507 0.1805,0.29639 0.7285,1.1485 0.8188,1.48958 0.4607,1.73815 0.4397,3.64638 0.4588,5.40581 0.024,2.21366 -0.084,7.27418 -0.1238,9.44832 -0.1635,5.07444 -0.3364,10.14193 -0.8377,15.19729 -0.1348,1.35957 -0.3271,2.7128 -0.4906,4.06919 -0.1733,0.97983 -0.4159,1.94993 -0.52,2.93952 -0.031,0.29514 0.078,0.58836 0.1178,0.88252 -0.2328,1.24939 0.011,0.47577 -0.871,1.90042 -0.8292,1.33948 -1.5642,1.99184 -2.9546,2.77776 -0.8741,0.14427 -3.6698,0.64211 -4.7352,0.69955 -3.0856,0.16635 -6.14,-0.47545 -9.0595,-1.41247 -6.8483,-2.19599 -13.3775,-5.32874 -19.2866,-9.44994 -2.2235,-1.77041 -4.5352,-3.58987 -6.2898,-5.85904 -1.6092,-2.08124 -2.6546,-4.49728 -3.6431,-6.91221 -1.2269,-3.97055 0.035,0.27151 -0.9403,-3.47329 -0.07,-0.26821 -0.2325,-0.51449 -0.2578,-0.7905 -0.1998,-2.17535 0.5121,-4.34065 0.9087,-6.44546 0.7822,-2.3931 0.9944,-3.32719 2.1742,-5.65613 3.2313,-6.37858 8.2604,-11.55221 13.1426,-16.67698 4.6878,-4.36179 9.4221,-8.70048 14.489,-12.62748 0.8813,-0.68302 1.8106,-1.30254 2.7375,-1.92214 0.5871,-0.39243 1.2489,-0.67466 1.8029,-1.11268 0.1381,-0.10925 -0.3462,0.0652 -0.5193,0.0977 26.4834,-9.93127 12.4385,-47.38444 -14.0449,-37.45318 z" /><path
       style="fill:#000000;stroke-width:40;paint-order:markers stroke fill"
       id="path498"
       d="m 1867.2153,1136.0592 c -5.3565,-22.7012 -10.4403,-45.4408 -14.6733,-68.382 -4.9432,-24.138 -5.5753,-48.6124 -5.172,-73.13545 0.382,-24.18432 4.0462,-48.18758 6.9462,-72.16661 3.21,-33.04397 10.4535,-65.41381 19.3861,-97.32679 6.7311,-21.12426 13.3709,-42.65369 23.7272,-62.37018 4.2654,-8.12056 9.9353,-16.12768 15.0271,-23.71971 10.1226,-13.97786 20.3616,-28.01146 32.7529,-40.10311 4.2344,-4.13202 10.1581,-9.1236 14.6276,-12.98061 13.6222,-10.4039 28.6142,-19.26397 44.8714,-24.78453 18.4093,-6.17826 37.8244,-7.74099 57.0787,-8.82624 15.7029,-0.36303 31.3458,-0.69942 46.9774,-2.30015 14.7989,6.5043 27.0178,17.35635 39.561,27.32865 9.5032,8.30887 19.4904,16.60068 27.2984,26.62357 3.4332,4.407 7.3507,11.28334 10.1302,15.89302 14.7764,27.41379 22.1103,58.19293 30.2166,88.07405 8.216,28.14039 16.0605,56.37879 21.5099,85.19908 3.821,21.50523 4.3143,43.36579 4.6945,65.14296 0.2536,26.42428 0.1296,52.85065 0.09,79.27565 -0.4777,17.8331 0.6913,35.7346 -0.448,53.5537 -0.6269,9.8034 -1.8571,17.2583 -3.2152,27.039 -3.0086,21.0493 -6.2732,42.0275 -10.7311,62.8184 -3.1555,11.8443 -5.9007,23.7836 -8.4928,35.7614 -2.8981,10.9055 -6.2788,21.7141 -9.9411,32.3888 -3.3121,10.1844 -6.3965,20.4521 -10.4862,30.3603 -10.6353,26.2085 26.4292,41.2491 37.0645,15.0405 v 0 c 4.2749,-10.6621 7.8428,-21.5685 11.2913,-32.5211 4.1025,-12.144 8.0451,-24.3828 11.1685,-36.8169 2.5915,-12.0032 5.3874,-23.9525 8.5077,-35.8308 4.6618,-21.7627 8.1077,-43.7172 11.2462,-65.7506 1.6997,-12.4644 2.7947,-18.7607 3.5703,-31.2943 1.1264,-18.1999 0.016,-36.4754 0.4658,-54.689 0.04,-26.6797 0.1657,-53.36067 -0.097,-80.03956 -0.4272,-24.04853 -1.0908,-48.17911 -5.3927,-71.91261 -5.7011,-29.81661 -13.6343,-59.08884 -22.2015,-88.2006 -9.0957,-33.50903 -17.5669,-67.89803 -34.6551,-98.40031 -5.537,-9.02438 -7.8565,-13.42433 -14.4374,-21.70859 -9.3239,-11.73715 -20.9935,-21.5687 -32.2681,-31.32005 -16.907,-13.43401 -34.5748,-29.84421 -56.3635,-34.55268 -3.9867,-0.86151 -8.1147,-0.83515 -12.172,-1.25275 -15.0318,1.54824 -30.0751,1.72493 -45.1752,2.1562 -23.028,1.33403 -46.1809,3.50851 -68.1436,11.05405 -21.0718,7.66279 -40.1276,18.20614 -57.6855,32.23408 -6.1144,5.29619 -11.5735,9.86195 -17.3583,15.57629 -13.9782,13.80794 -25.7208,29.63066 -37.1313,45.56164 -7.2405,10.89724 -11.9702,17.4116 -18.0793,29.17294 -11.2479,21.65426 -18.6106,45.18937 -25.9293,68.36219 -9.4379,33.87437 -17.1319,68.22554 -20.5709,103.285 -3.0631,25.35772 -6.8796,50.74176 -7.23,76.32102 -0.4305,27.17314 0.422,54.30494 5.8327,81.04954 4.4765,24.1897 9.8071,48.1839 15.5464,72.1021 7.7703,27.196 46.2313,16.2071 38.461,-10.9889 z" /><path
       style="fill:#000000;stroke-width:40;paint-order:markers stroke fill"
       id="path504"
       d="m 1831.291,1155.8796 c 6.7581,12.4276 13.468,24.875 19.674,37.5917 3.5451,8.7121 7.6912,17.1526 11.4151,25.7853 4.0893,9.2527 9.3323,17.9729 14.3943,26.7227 4.0631,7.2848 7.931,14.6744 11.8891,22.0162 3.9262,7.3762 8.0648,14.6101 12.402,21.7521 3.6599,6.1473 7.6813,12.051 11.7134,17.9548 15.9595,23.3515 48.9836,0.7815 33.0241,-22.5701 v 0 c -3.631,-5.3097 -7.2648,-10.6093 -10.5482,-16.1474 -3.9826,-6.5579 -7.7968,-13.1867 -11.3824,-19.972 -4.1504,-7.6979 -8.2026,-15.4482 -12.4815,-23.0762 -4.2847,-7.3936 -8.7642,-14.7509 -12.2874,-22.5355 -3.9775,-9.2051 -8.3621,-18.2235 -12.1997,-27.4911 -6.0037,-12.2723 -12.3027,-24.4003 -19.0603,-36.2761 -11.4874,-25.8465 -48.0398,-9.6009 -36.5525,16.2456 z" /><path
       style="fill:#000000;stroke-width:40;paint-order:markers stroke fill"
       id="path508"
       d="m 1921.3272,1277.5095 c -6.7564,3.9488 -12.748,9.0245 -18.4664,14.3304 -2.3718,1.3927 -4.3342,3.8668 -6.9599,4.6763 -0.089,-0.1131 0.4185,-0.315 0.2835,-0.2953 -4.4302,0.6446 -8.7459,2.2533 -12.9354,3.7528 -5.8605,1.8507 -12.101,2.4114 -18.2224,2.4042 -5.7255,-0.2379 -11.1802,-2.3477 -16.1694,-5.0597 -1.1912,-0.7823 -3.3196,-2.1197 -4.3462,-3.0597 -1.1385,-1.0424 -1.9085,-2.4288 -2.9302,-3.5858 -2.6697,-3.0235 -4.7296,-5.2303 -7.4826,-8.2231 -5.6778,-6.6292 -11.6917,-12.9479 -17.6638,-19.307 -5.3642,-5.1665 -11.7024,-9.0809 -18.0086,-12.9605 -4.5973,-2.8283 -7.9172,-4.8905 -12.8869,-7.1907 -2.4849,-1.1501 -5.0654,-2.0815 -7.5981,-3.1222 -13.2446,-5.1611 -27.2485,-5.8366 -41.2524,-4.9114 -11.864,0.6975 -22.6258,5.2312 -32.8288,11.0012 -8.9588,5.0039 -15.4677,13.0675 -22.9058,19.9319 -9.6822,8.8144 -19.7486,17.3156 -30.5866,24.6821 -2.1204,1.1957 -5.2792,3.2322 -7.8002,3.7592 -1.9411,0.4058 -3.9489,0.37 -5.9217,0.5714 -10.6451,1.087 -21.1842,1.9577 -31.8794,2.3393 -2.6785,-0.041 -5.3918,0.3086 -8.0354,-0.1239 -1.8356,-0.3004 -3.505,-1.2607 -5.1935,-2.0409 -11.9721,-5.5311 -20.7021,-14.506 -30.0855,-23.5177 -6.5205,-6.4665 -12.1601,-13.7142 -18.0378,-20.7443 -1.5252,-1.8242 -2.9675,-3.7255 -4.6198,-5.4354 -5.7503,-5.9507 -6.3651,-5.9341 -12.9289,-10.546 -10.9503,-7.3585 -23.9367,-10.0366 -36.276,-14.0838 -7.7212,-2.7098 -15.4158,-5.1579 -23.6924,-5.2525 -6.4293,-0.074 -9.5568,0.9807 -15.9027,2.3277 -24.0007,7.419 -46.4672,18.9298 -68.9245,30.0232 -11.7624,6.0984 -24.0011,11.6256 -34.7172,19.5287 -1.9362,1.428 -3.764,2.9974 -5.646,4.496 -8.0878,6.9603 -15.4913,14.6191 -23.9861,21.102 -8.5206,6.8126 -17.1199,13.6443 -26.4964,19.2571 -10.8701,1.6189 -22.18,0.5818 -33.0703,-0.5729 -4.9612,-0.5969 -10.0467,-1.2082 -14.5687,-3.4966 -1.8935,-0.9583 -7.0734,-4.1721 -8.2781,-4.9037 -13.4708,-7.8171 -26.1757,-17.4732 -40.8889,-22.9527 -3.555,-1.324 -7.247,-2.2459 -10.8705,-3.3689 -17.7163,-2.9768 -36.0594,-4.2398 -53.9703,-2.0419 -2.6783,0.3287 -5.3247,0.8785 -7.987,1.3177 -15.941,3.4955 -26.3302,11.8245 -38.1051,22.4675 -13.0359,12.8949 -24.1887,27.5008 -34.5965,42.5487 -7.2771,10.4815 -12.8435,21.8264 -16.3562,34.0999 -2.1396,7.4758 -2.5879,11.0699 -3.9398,18.64 -2.5731,16.1078 -2.5357,32.4027 -0.8587,48.5823 1.7732,13.7717 5.5077,27.4174 13.333,39.0733 2.0079,2.9909 4.4038,5.7023 6.6057,8.5534 3.7227,3.0959 7.1386,6.6033 11.1681,9.2879 8.5119,5.6708 20.8226,10.6627 30.2924,14.1234 15.0173,5.4879 30.4563,9.336 45.9751,13.0594 16.5298,4.0425 33.2148,5.5834 50.0343,2.4051 9.0083,-1.7023 16.572,-4.289 25.2707,-6.9747 12.9674,-4.1615 25.5368,-9.6456 37.236,-16.6382 6.7993,-4.064 9.1542,-5.952 15.6308,-10.5831 17.8679,-13.1512 33.2965,-29.2342 49.2692,-44.5493 14.1332,-13.5508 28.3692,-26.998 44.2055,-38.5584 1.3259,-0.7595 2.573,-1.6771 3.9777,-2.2785 1.2081,-0.5171 2.5279,-0.72 3.7997,-1.0508 11.6105,-3.0199 23.503,-4.1064 35.4114,-5.3275 9.9298,-0.201 20.0333,-2.7381 29.996,-1.6684 4.3341,0.4653 5.3649,1.2212 9.4448,2.8622 14.5741,6.3565 26.7002,17.128 38.5865,27.4661 9.7859,8.6951 19.3223,17.6641 29.0115,26.4647 9.0102,6.8195 17.822,14.498 28.2461,19.1423 2.7782,1.2378 5.6901,2.1504 8.5352,3.2256 18.2017,5.7093 36.8872,9.6249 55.5884,13.2767 12.9284,2.5698 26.0506,3.7796 39.2018,4.344 12.7839,0.8208 25.4006,-1.2866 37.9843,-3.1826 9.1837,-1.3838 18.2974,-3.2221 27.01,-6.4985 4.9741,-1.8705 6.9392,-2.9586 11.7003,-5.2691 12.9429,-7.8589 26.6904,-14.2177 40.1848,-21.0438 9.7934,-5.561 20.1513,-9.6906 30.8482,-13.0895 16.2526,-4.851 33.2789,-5.95 50.1081,-7.0878 18.5405,-0.8804 37.0623,-2.1355 55.613,-2.791 13.1272,-0.4192 26.0749,1.3125 38.751,4.5838 11.1488,2.5078 21.9986,6.1178 33.1391,8.6571 5.759,1.3127 14.6049,2.9809 20.4958,4.1223 21.6148,4.5923 43.7435,4.7561 65.7343,5.1859 15.4881,-0.2899 31.0622,1.0117 46.5429,0.058 2.7955,-0.1722 5.5783,-0.5107 8.3675,-0.7661 17.0275,-2.1264 33.3324,-7.5039 49.4106,-13.2721 8.7535,-3.5499 17.9925,-6.2765 26.2832,-10.8984 6.4933,-3.6199 8.2634,-5.3163 14.2174,-9.859 13.0671,-10.6275 23.9783,-23.4928 33.883,-37.036 7.1511,-9.4026 10.8149,-20.4055 13.524,-31.7411 2.0354,-9.231 2.5353,-18.6802 2.783,-28.0986 0.1185,-7.3887 0.079,-14.7788 0.054,-22.1681 -0.023,-6.7267 -1.8315,-13.0831 -4.394,-19.2334 -0.6082,-1.1743 -1.2165,-2.3486 -1.8247,-3.5229 -13.8767,-24.6462 -48.7317,-5.0216 -34.8551,19.6246 v 0 c -0.08,-0.2352 -0.159,-0.4704 -0.2385,-0.7057 0.8996,2.1549 1.0435,1.621 1.3125,3.9692 0.023,7.0058 0.061,14.0122 -0.042,21.0175 -0.1641,6.7037 -0.4089,13.4405 -1.7506,20.032 -1.3882,6.2047 -2.9428,12.1604 -6.9109,17.2886 -7.6272,10.5467 -16.0349,20.5809 -26.0504,28.962 -1.0808,0.8595 -5.5078,4.5045 -7.2283,5.5118 -6.9427,4.0647 -14.9475,6.0912 -22.3022,9.2184 -12.9509,4.6724 -26.0452,9.1494 -39.7323,11.0979 -16.6869,1.7506 -33.5317,0.311 -50.2727,0.5292 -19.6987,-0.3806 -39.5416,-0.3507 -58.9086,-4.4642 -4.3834,-0.8479 -14.1124,-2.6951 -18.4865,-3.6794 -11.0822,-2.4938 -21.8555,-6.1537 -32.949,-8.6096 -16.5011,-4.1064 -32.9154,-6.3613 -49.9748,-5.7781 -18.9847,0.6792 -37.941,1.9402 -56.9147,2.8585 -20.0327,1.3785 -40.246,2.9253 -59.5404,8.8867 -12.7124,4.0682 -25.0687,8.9749 -36.7492,15.5052 -13.3533,6.7557 -27.0032,12.9955 -39.7715,20.8377 -3.4935,1.7507 -7.0536,3.5963 -10.8024,4.7591 -5.2782,1.6372 -10.8042,2.3933 -16.2255,3.3538 -10.0543,1.5156 -20.1155,3.4345 -30.3387,2.7715 -11.1444,-0.4599 -22.2654,-1.4583 -33.221,-3.6381 -16.6948,-3.2596 -33.3679,-6.729 -49.6708,-11.6412 -1.4931,-0.4885 -5.2993,-1.5949 -6.949,-2.5461 -5.8539,-3.3755 -11.0432,-7.9157 -16.533,-11.8184 -9.9168,-8.9928 -19.6557,-18.1826 -29.6801,-27.0581 -15.8419,-13.7157 -32.1637,-27.5189 -51.9598,-35.136 -3.7965,-1.1856 -7.5137,-2.6634 -11.3894,-3.5567 -14.808,-3.4132 -30.1079,-0.4324 -44.9973,0.4571 -18.8008,1.9507 -38.3924,3.3949 -55.6488,11.8454 -2.493,1.2208 -4.7333,2.9012 -7.1,4.3519 -17.1928,12.6701 -32.888,27.0974 -48.2248,41.9352 -14.6156,14.0155 -28.6986,28.779 -44.9384,40.9462 -12.9969,9.4144 -25.8921,16.8241 -41.3956,21.5016 -8.7178,2.7368 -17.6051,5.9797 -26.7676,6.9027 -9.261,0.933 -18.3433,-1.2233 -27.3521,-3.042 -20.8307,-4.9626 -42.0419,-10.1931 -61.2229,-20.0162 -1.4996,-0.768 -2.8882,-1.7357 -4.3323,-2.6036 -1.1103,-1.2715 -2.3224,-2.4607 -3.3306,-3.8145 -4.9987,-6.7117 -6.909,-14.8924 -8.0203,-23.0343 -1.4052,-12.4532 -1.3655,-25.0124 0.4919,-37.4293 1.1128,-6.5785 2.2227,-13.2022 4.4604,-19.5192 2.2151,-6.253 5.7794,-11.8553 9.3607,-17.391 8.6275,-12.5543 17.8942,-24.7041 28.5434,-35.6314 5.4858,-4.9996 10.8224,-10.5031 18.1248,-12.692 14.3872,-2.7764 29.2559,-1.8068 43.739,-0.3128 2.0681,0.5568 4.1791,0.9738 6.2044,1.6704 4.6904,1.6134 8.5925,3.8155 12.898,6.2936 7.9206,4.5588 15.5944,9.5431 23.3992,14.293 5.3911,3.2063 8.5024,5.2731 14.2193,7.8291 7.9397,3.5499 16.5513,5.1046 25.1364,6.064 16.6438,1.6554 34.4785,3.3709 50.693,-1.8183 2.5322,-0.8104 4.8545,-2.1697 7.2818,-3.2546 10.5463,-6.5099 20.5209,-13.9013 30.1128,-21.7458 8.6772,-6.7569 16.6108,-14.2823 24.7236,-21.6854 9.8129,-8.2069 21.5736,-13.4637 32.8952,-19.2378 19.7192,-9.7456 39.4224,-19.7913 60.2742,-26.9261 1.7277,-0.4935 3.5149,-0.7723 5.2267,-1.3184 0.1908,-0.061 0.2597,-0.4083 0.4588,-0.3877 4.2823,0.4432 8.2824,2.7302 12.4196,3.695 6.6119,2.1527 5.8442,1.9594 12.521,3.9067 4.8367,1.4106 9.7452,2.5917 13.9962,5.4419 3.9577,2.1893 5.8366,4.5164 8.8639,8.1373 6.8955,8.2476 13.5697,16.7023 21.2788,24.2307 19.0604,18.113 35.1707,32.8192 62.4085,36.6259 3.3077,0.4623 6.6794,0.066 10.019,0.099 17.1031,-0.6605 35.6982,-1.2051 52.1643,-6.1583 4.9549,-1.4905 10.2077,-4.9243 14.627,-7.5347 12.3589,-8.5823 24.0699,-18.105 35.1222,-28.3166 4.2313,-3.9456 3.7626,-3.4223 7.6411,-7.3541 1.6025,-1.6245 3.6167,-4.2342 5.4629,-5.6162 0.823,-0.6161 1.7383,-1.0981 2.6075,-1.6471 4.8371,-2.928 9.845,-5.3593 15.5795,-5.7265 8.003,-0.595 16.0281,-0.7086 23.6725,2.1653 8.712,3.2765 16.4811,8.3357 24.1713,13.527 5.8822,6.2413 11.7713,12.4723 17.3617,18.9823 7.9363,8.6196 15.2731,18.0545 25.9999,23.4056 10.9525,5.4383 22.553,9.4568 34.9465,9.4317 10.5872,-0.2443 21.2522,-1.2518 31.3064,-4.8078 4.94,-1.8478 10.1275,-2.5823 15.0687,-4.4265 6.6328,-3.0975 12.5933,-7.2301 18.1295,-12.0222 1.7352,-1.6228 3.4547,-3.3148 5.3321,-4.7769 1.3272,-1.0335 2.8387,-1.8524 4.0226,-3.0475 0.06,-0.06 -0.17,0 -0.255,-0.01 25.2982,-12.6492 7.4096,-48.4262 -17.8886,-35.7771 z" /><path
       style="fill:#ffaaaa;stroke-width:40;paint-order:markers stroke fill"
       id="path843"
       d="m 1950.8795,771.16312 c -4.2546,0.25778 -8.5953,0.19449 -12.7887,1.07394 -1.5878,0.33301 -3.1455,0.79637 -4.7182,1.19454 -7.9697,2.7286 -15.1838,7.1841 -22.0974,11.9179 -4.476,3.09726 -8.3534,6.90602 -11.6463,11.22944 -1.7841,2.34252 -2.6164,3.74962 -4.2138,6.23623 -3.342,5.52551 -5.513,11.62992 -6.993,17.89261 -0.4786,2.02557 -1.0871,5.30357 -1.4951,7.43481 -1.0023,5.20542 -1.805,10.47184 -2.0844,15.77166 -0.2418,4.58816 -0.1263,6.03139 -0.027,10.60405 0.4029,8.2382 1.3099,16.50489 3.2048,24.54629 0.3275,1.38997 0.7328,2.76048 1.0993,4.14071 2.2657,7.26977 6.3411,13.50975 12.2351,18.38737 5.0563,4.18447 6.7173,4.75364 12.5144,7.99039 9.9569,4.72888 20.702,7.44458 31.624,8.71673 5.9414,0.69202 8.2796,0.63042 14.1223,0.7847 8.5034,-0.20897 17.0925,-1.43264 24.8726,-5.06071 4.9409,-2.30405 5.9675,-3.33941 10.2858,-6.44864 6.0293,-4.99647 10.958,-11.14332 13.9539,-18.42545 1.8836,-4.57854 2.0457,-6.2317 3.0809,-10.93081 1.7059,-10.53124 0.2465,-21.17577 -1.0392,-31.66547 -0.9629,-6.91718 -2.5779,-13.77457 -5.2114,-20.25856 -1.8341,-4.51601 -2.5646,-5.60615 -4.8405,-9.83184 -3.2662,-5.67481 -6.1833,-11.54991 -9.7644,-17.04173 -0.8026,-1.23084 -1.6594,-2.42551 -2.4891,-3.63826 -5.0846,-7.10729 -11.6424,-12.78197 -20.2071,-15.2042 -1.8995,-0.53721 -3.8725,-0.76832 -5.8088,-1.15247 -5.6179,0.0212 -8.0146,-0.40934 -13.4296,1.33313 -6.9949,2.25083 -13.4571,6.24977 -19.1173,10.87517 -1.9471,1.59115 -3.7481,3.35322 -5.6222,5.02983 -1.7796,1.9285 -3.6869,3.74655 -5.3388,5.78546 -7.098,8.76067 -12.582,19.65854 -15.4512,30.56985 -0.738,2.80646 -1.1591,5.68682 -1.7387,8.53022 -0.1473,3.08086 -0.563,6.16061 -0.4421,9.24264 0.5125,13.05861 5.6877,25.674 16.7213,33.33438 3.0593,2.12396 6.6814,3.29255 10.0221,4.93881 3.0248,0.78571 6.0044,1.7716 9.0742,2.35712 12.0015,2.2892 25.1147,0.98084 35.5348,-5.83829 2.8395,-1.85825 5.1902,-4.3733 7.7853,-6.55992 1.8881,-2.4392 3.9565,-4.74885 5.6642,-7.31756 4.0431,-6.08166 6.8315,-13.15704 8.402,-20.26906 1.135,-5.13956 0.9505,-6.24486 1.1578,-11.44617 -0.4506,-4.89207 -0.336,-7.22654 -2.3295,-12.02854 -3.3939,-8.17523 -10.0994,-14.66837 -18.8567,-16.87976 -3.5151,-0.88765 -7.2255,-0.60647 -10.8382,-0.90969 -3.4463,0.75433 -6.9684,1.2209 -10.3388,2.26298 -3.0146,0.93208 -5.8935,2.27431 -8.74,3.63596 -7.9767,3.81577 -15.4292,8.93342 -21.4525,15.44474 -1.9135,2.06846 -3.5056,4.41248 -5.2585,6.61873 -1.4159,2.76112 -3.1263,5.3901 -4.2478,8.28331 -4.0154,10.35876 -3.3384,21.6435 4.3883,30.40013 6.8259,7.73572 12.0424,7.41595 21.0396,9.24054 3.4676,-0.28927 6.9756,-0.26638 10.4029,-0.86775 3.0267,-0.5311 5.9831,-1.45939 8.8694,-2.51397 6.4083,-2.34137 11.2528,-5.14498 16.5408,-9.54553 5.7084,-4.75035 7.1999,-7.43288 11.4738,-13.19485 1.164,-2.03007 2.4719,-3.98412 3.4919,-6.0902 4.7129,-9.73093 6.7096,-21.59106 0.8076,-31.44396 -1.9327,-3.22636 -5.0594,-5.56599 -7.5891,-8.34898 -2.5511,-1.39359 -4.9791,-3.04104 -7.6532,-4.18079 -8.6647,-3.693 -20.3812,-3.85082 -28.9769,0.15553 -2.4482,1.14109 -4.6184,2.80236 -6.9276,4.20354 -1.8734,2.0135 -4.1173,3.73724 -5.6201,6.04051 -1.7433,2.67166 -3.0349,5.65423 -3.9954,8.69625 -1.9006,6.0193 -1.4491,15.18118 0.8682,21.05525 1.0396,2.63533 2.6647,5.00023 3.9971,7.50035 2.0335,2.0446 3.7733,4.4309 6.1005,6.13376 7.6449,5.59398 16.963,6.63609 25.8202,3.58206 5.6247,-1.93945 6.9945,-3.52663 11.4942,-6.97788 5.935,-6.79752 3.3195,-3.04858 7.7478,-11.31485 11.2479,-25.95158 -25.4531,-41.85852 -36.701,-15.90694 v 0 c 1.8813,-2.5292 0.8644,-1.55215 2.8723,-3.10618 1.1457,-0.51141 1.5955,-0.78894 2.9754,-0.97179 3.963,-0.5252 8.1824,0.8917 11.0433,3.67419 0.8171,0.79473 1.3237,1.85605 1.9855,2.78408 0.2953,0.93601 0.6915,1.846 0.8861,2.80805 0.3789,1.87341 0.052,0.73488 -0.3483,1.48513 -0.2447,0.45918 -0.3665,0.98073 -0.6377,1.42486 -2.334,3.82336 -1.6458,2.87967 -4.781,5.31074 -1.2063,0.45511 -2.9143,1.54345 -4.2482,0.57791 -0.1243,-0.09 -0.2183,-0.25443 -0.2139,-0.40788 0,-0.1202 0.1559,-0.1832 0.2338,-0.2748 -0.3844,-0.41783 -0.7689,-0.83566 -1.1533,-1.25349 -0.9228,-1.47661 -2.1451,-2.80398 -2.7683,-4.42984 -0.9988,-2.6058 -1.2368,-4.90723 -0.3531,-7.40825 0.038,-0.10711 0.2179,0.14229 0.2253,0.25564 0.08,1.2306 -0.7728,2.35995 -1.262,3.36237 -1.0541,1.7502 -2.8497,4.81423 -4.5069,6.05359 -4.1019,3.06777 -1.3987,0.28406 -5.4163,2.67732 -0.2249,0.13399 -0.2508,0.45961 -0.3762,0.68942 2.155,1.51257 4.3618,2.90838 5.7396,5.3552 2.3605,4.19177 2.85,6.73266 1.6055,10.82029 -0.088,0.29051 -1.1219,0.46252 -0.8629,-0.29197 0.4345,-0.7026 0.8023,-1.45118 1.3036,-2.10783 1.5648,-2.04975 3.1868,-3.44527 5.3551,-4.90939 1.3533,-0.91377 2.8138,-1.65764 4.2207,-2.48645 1.1416,-0.57597 2.3476,-1.0387 3.4246,-1.72789 0.2607,-0.16684 0.3328,-0.52205 0.4992,-0.78306 -0.9096,-0.3697 -1.8752,-0.62389 -2.7287,-1.10913 -3.3796,-1.92127 -6.5814,-5.40396 -6.4215,-9.54276 0,-0.0678 0.129,0.0424 0.1935,0.0637 0.2704,0.89062 0.2608,0.63791 0.076,1.99782 -0.4079,3.00159 -1.6448,5.74286 -2.878,8.47786 0.057,0.19304 0.3922,1.08624 0.1744,1.32543 -1.9173,2.10486 -7.3599,0.97504 -9.7837,0.69538 -1.1657,1.37556 0.01,-0.35711 0,2.28528 0,0.18026 -0.3681,0.24474 -0.5202,0.14793 -1.5787,-1.00521 -1.5231,-4.16396 -1.6571,-5.65224 0.1797,-1.24661 0.2588,-2.51198 0.5393,-3.73989 1.2044,-5.27296 3.7825,-11.5122 7.0287,-15.87426 0.8102,-1.0887 1.7723,-2.05565 2.6585,-3.08345 2.6447,-2.54413 2.4802,-2.55304 5.313,-4.66431 0.6887,-0.51329 1.4987,-0.87075 2.1221,-1.46161 0.5346,-0.50679 -2.5312,-1.70387 -1.9573,-1.00449 -0.3785,-0.16127 -0.7723,-0.29052 -1.1354,-0.4838 -0.5415,-0.28821 -1.5106,-1.12127 -1.6853,-1.72677 -0.04,-0.13954 0.2569,0.1356 0.3853,0.20341 0.412,0.51525 0.8241,1.03053 1.2361,1.54578 3.8497,5.43044 6.7951,11.39719 10.0815,17.17071 0.8358,1.45939 1.6836,2.83996 2.3569,4.38388 1.5698,3.59955 2.5017,7.44263 3.0468,11.32062 0.7726,6.25581 1.7062,12.57076 1.5274,18.88453 -0.094,0.71404 -0.1185,1.43661 -0.2249,2.14892 -0.039,0.26144 -0.1412,0.51031 -0.1862,0.77076 -0.026,0.15277 0.043,0.32602 -0.027,0.46427 -0.2735,0.53932 -1.1023,1.48275 -1.4952,1.95349 -0.4929,0.46496 -0.914,1.01635 -1.4693,1.40449 -2.4871,1.73831 -5.8302,1.70977 -8.6982,2.03078 -1.5081,-0.0233 -3.0174,-0.005 -4.5244,-0.0701 -7.9147,-0.34009 -15.8174,-1.67619 -23.1782,-4.68169 -1.1984,-0.58383 -3.1186,-1.46913 -4.3916,-2.22012 -0.2795,-0.16492 -0.5782,-0.782 -0.8041,-0.54896 -0.7034,0.72591 1.3571,1.28778 0.3495,1.35573 -0.144,0.01 -0.175,-0.22956 -0.2625,-0.34433 -1.8503,-6.17443 -2.4712,-12.67945 -2.8813,-19.08564 -0.067,-2.14874 -0.1775,-4.24201 -0.087,-6.38972 0.1619,-3.85212 0.7615,-7.67987 1.5009,-11.45743 0.7331,-3.8431 1.2642,-7.83733 2.9682,-11.3972 1.7541,-2.82553 0.3654,-0.63748 1.9681,-3.05286 0.044,-0.0671 0.6103,-0.97084 0.7205,-1.09826 0.7293,-0.84371 1.2594,-1.1511 2.224,-1.90315 3.3545,-2.39948 6.9388,-4.48395 10.5806,-6.39953 -0.2102,-0.003 -0.8268,0.066 -0.6307,-0.01 0.3703,-0.14295 0.7805,-0.14626 1.1738,-0.19992 2.0661,-0.28194 4.1459,-0.31874 6.2256,-0.41492 0.8341,-0.0385 1.6677,-0.0874 2.5015,-0.13107 28.201,-2.16932 25.1331,-42.0515 -3.0678,-39.88218 z" /><path
       style="fill:#ffaaaa;stroke-width:40;paint-order:markers stroke fill;fill-opacity:1"
       id="path896"
       d="m 2177.2695,811.37526 c 1.7537,-0.1129 3.2592,0.48387 4.9706,0.93885 -26.2478,-10.53817 -41.151,26.58184 -14.9032,37.11998 v 0 c 1.5033,0.45932 2.9821,1.00822 4.51,1.3779 1.8646,0.45119 3.5388,0.46413 5.4226,0.56327 28.2843,0 28.2843,-40 0,-40 z" /><path
       style="fill:#ffffff;stroke-width:40;paint-order:markers stroke fill"
       id="path898"
       d="m 1861.7362,1027.0703 c 19.1667,0 38.3333,0 57.5,0 10.47,0 20.937,0.116 31.4016,-0.2476 7.1731,-0.037 14.296,-0.7524 21.4351,-1.3439 7.3302,-0.5204 14.6619,-1.0148 21.9705,-1.7854 9.8817,-0.7315 19.8135,-0.65 29.7177,-0.7146 23.1091,-0.1546 46.1998,-1.1222 69.299,-1.7335 12.4527,-0.3608 24.9139,-0.3198 37.3664,-0.6839 9.4526,-0.2764 18.8939,-0.8213 28.3334,-1.3691 11.1112,-0.9649 22.2288,-1.8276 33.3534,-2.6244 8.842,-0.5687 17.5049,-2.4789 26.2866,-3.5521 0.9685,-0.1275 13.3144,-1.7917 13.0872,-2.8854 -8.1903,-39.43295 0.1138,-40.23445 -14.9873,-37.31126 -12.0747,1.92715 -24.3667,2.17728 -36.5613,2.77434 -24.6932,1.04135 -49.3254,3.02911 -73.9159,5.46111 -20.7552,2.21565 -41.3566,5.60001 -61.943,8.99813 -19.107,3.15857 -38.4972,3.70301 -57.816,4.22331 -12.619,0.264 -25.3042,0.67064 -37.7193,3.15436 -1.8313,0.36634 -3.6396,0.83889 -5.4594,1.25836 -1.7548,0.47858 -3.5098,0.95694 -5.2645,1.43575 -4.3917,1.1983 -4.9641,1.447 -9.3288,2.2955 -4.7409,0.9216 -9.5137,1.4779 -14.3116,1.99 -8.2728,0.5402 -16.5195,1.4087 -24.7932,1.9382 -5.9694,0.3543 -11.9473,0.5066 -17.926,0.5631 -0.7931,0 -1.5861,0.01 -2.3792,0.012 -28.2839,0.1498 -28.0721,40.1492 0.2118,39.9995 v 0 c 0.8507,0 1.7015,-0.01 2.5522,-0.014 6.7121,-0.066 13.4232,-0.2409 20.1245,-0.6448 8.8537,-0.5784 17.6817,-1.4738 26.5325,-2.0888 11.4427,-1.2617 22.8178,-3.0705 33.8197,-6.5683 11.4499,-2.8561 23.2773,-3.1336 35.023,-3.3461 21.1391,-0.5743 42.3469,-1.2584 63.2488,-4.7428 19.732,-3.2571 39.4759,-6.516 59.3675,-8.6585 23.9318,-2.3696 47.9042,-4.3054 71.9365,-5.3147 14.1013,-0.6928 28.3117,-1.0241 42.2468,-3.4637 14.8389,-2.9127 -2.1476,1.0122 -9.059,-38.4342 -0.1865,-1.06442 5.9593,-1.5589 3.1858,-1.05553 -0.6585,0.11951 -1.3195,0.22521 -1.9812,0.32575 -0.9284,0.14108 -1.8591,0.26604 -2.7886,0.39905 -3.783,0.47035 -4.7709,0.56526 -8.617,1.16245 -5.199,0.80727 -10.354,1.97244 -15.6302,2.19093 -10.945,0.78444 -21.8849,1.61772 -32.8149,2.58945 -8.9308,0.51946 -17.8645,1.04743 -26.8077,1.30966 -12.5405,0.36767 -25.0901,0.32269 -37.6308,0.69001 -22.8336,0.60494 -45.6587,1.56168 -68.502,1.7204 -11.2191,0.0737 -22.4707,-0.0122 -33.6577,0.93496 -7.0171,0.74266 -14.0592,1.18956 -21.0963,1.70278 -3.0578,0.25688 -6.1356,0.67715 -9.1979,0.8645 -3.4288,0.20976 -6.8748,0.15364 -10.304,0.3651 -9.9995,0.35025 -20.0023,0.20513 -30.0072,0.22328 -19.1667,0 -38.3333,0 -57.5,0 -28.2843,0 -28.2843,40.00001 0,40.00001 z" /><path
       style="fill:#ff5555;stroke-width:40;paint-order:markers stroke fill;fill-opacity:1"
       id="path902"
       d="m 1876.0267,1061.703 c 0.029,3.6121 -0.1895,7.2209 -0.3358,10.8292 -0.4109,4.9931 0.3007,9.926 1.4775,14.7637 0.906,3.123 2.0616,6.1707 3.1545,9.2332 1.8437,4.475 3.378,9.063 5.0033,13.6204 0.9192,2.6352 1.3546,5.4018 2.1347,8.075 0.3023,1.036 0.6585,2.0554 0.9877,3.083 1.1286,3.5776 3.2078,6.6968 5.0244,9.9359 0.9786,1.7449 1.8136,3.587 2.7107,5.3739 0.785,1.2731 1.4888,2.5999 2.3549,3.8193 2.6821,3.7759 6.8929,8.1177 11.245,9.855 6.6402,2.6507 8.303,2.3119 14.371,2.4905 17.6435,-0.3905 35.2635,-1.4679 52.8849,-2.3874 17.366,-1.1541 34.6814,-2.9167 52.0064,-4.5472 14.3849,-1.3539 28.7696,-2.6945 43.1493,-4.1036 20.3525,-2.3206 40.7805,-3.8212 61.1884,-5.5395 7.427,-0.6975 14.865,-1.4467 22.2264,-2.6815 5.1449,-0.863 10.2287,-2.0621 15.3501,-3.0491 6.8208,-1.1254 13.6582,-2.1527 20.4136,-3.6352 2.6669,-0.547 5.4797,-1.4524 7.9182,-2.2273 3.0985,-0.6049 6.1134,-1.5276 9.1039,-2.5217 2.6403,-1.7144 5.5171,-3.1104 7.921,-5.1431 3.3436,-2.8274 6.0621,-7.6914 8.1977,-11.3994 3.1432,-5.4575 5.8458,-11.1096 8.4614,-16.8316 2.8374,-6.4599 5.2128,-13.1154 6.9276,-19.9623 0.9581,-3.8256 1.0564,-4.7204 1.7439,-8.5273 0.6759,-4.8538 1.3492,-9.8554 0.5545,-14.7472 -0.2397,-1.4748 -0.3383,-3.0305 -1.0025,-4.369 -1.5822,-3.1887 -3.7728,-6.0375 -5.6593,-9.0562 -3.7144,-1.9184 -7.2282,-4.2892 -11.1433,-5.7553 -1.7246,-0.6458 -8.6739,-0.9318 -10.9602,-0.9783 -4.6224,-0.094 -9.1405,0.033 -13.7685,0.3723 -3.7243,0.2733 -7.4359,0.6996 -11.1538,1.0494 -23.0906,2.8196 -46.0732,6.4387 -69.0743,9.8946 -10.5559,1.5727 -21.1095,3.1886 -31.7268,4.2975 -3.7004,0.3865 -7.4071,0.7108 -11.1098,1.0747 -9.6562,0.9388 -19.3424,1.5383 -28.9938,2.5281 -6.7774,0.695 -11.3092,1.2962 -18.0673,2.1375 -2.9943,0.4267 -5.9886,0.8529 -8.9828,1.2802 -8.4675,1.2083 -16.9369,2.29 -25.4473,3.1573 -0.9318,0.095 -14.6219,1.3573 -15.5732,1.4451 -12.0357,1.1075 -24.1123,1.6428 -36.192,1.9392 -6.4761,0.1449 -12.9541,0.1295 -19.4314,0.1215 -2.8965,-0.023 -5.7893,-0.1972 -8.6844,-0.2665 -0.9454,-0.023 -1.8933,-0.098 -2.8367,-0.034 -1.784,0.1217 -3.6667,-0.061 -5.3318,0.5911 -3.9032,1.5283 -7.4196,3.9029 -11.1295,5.8544 -1.9963,2.9589 -4.3091,5.7273 -5.9889,8.8767 -1.0368,1.9439 -1.4872,4.1513 -2.09,6.2704 -1.4025,4.9304 -2.1789,10.3063 -1.9589,15.4355 0.077,1.7905 0.4045,3.5615 0.6067,5.3423 0.6052,1.9808 0.966,4.0535 1.8157,5.9424 2.3991,5.3341 4.6934,7.7581 9.3596,11.392 3.5975,2.8017 9.2282,4.8079 13.4731,6.4239 5.5082,1.7605 11.1706,3.4843 16.9769,3.9193 9.7971,0.734 19.5481,-0.4577 29.2735,-1.4461 31.3408,-3.412 62.8711,-4.3679 94.3367,-5.9557 19.1682,-0.8451 38.1877,-3.3947 57.1721,-6.0247 15.4326,-2.138 30.8426,-4.4275 46.2534,-6.7157 13.6299,-2.1608 27.3201,-3.9768 40.8763,-6.5836 3.6019,-0.6926 6.7644,-1.4084 10.3049,-2.1878 4.4384,-1.0229 8.8587,-2.1802 12.9273,-4.2869 2.0631,-1.0683 3.1344,-1.8406 4.9199,-3.0417 3.0255,-2.3154 6.9788,-5.9136 8.4043,-9.5136 1.1113,-2.8063 1.9686,-5.7352 2.4697,-8.7116 0.6401,-3.8017 -0.5244,-7.4058 -1.3125,-11.0421 -3.726,-7.5066 -3.7478,-9.6771 -11.8994,-14.8792 -3.1938,-2.0382 -6.9111,-3.1482 -10.5168,-4.3116 -2.9191,-0.9418 -5.9656,-1.4478 -8.9862,-1.9811 -7.3631,-1.2999 -10.6447,-1.3009 -18.087,-1.7743 -14.0457,-0.4094 -27.8528,2.4846 -41.6022,4.9144 -14.9318,2.6388 -10.2532,1.8276 -25.9773,4.2172 -31.7612,4.5588 -63.8835,5.4644 -95.914,6.2368 -22.0458,0.5252 -44.0983,0.3852 -66.1475,0.5418 -9.7717,0.061 -19.5779,0.2393 -29.2903,1.4145 -4.4586,0.5395 -5.6874,0.8238 -9.9516,1.5998 -1.042,0.2006 -2.0839,0.4012 -3.1259,0.6018 -27.7734,5.3513 -20.2055,44.6288 7.5679,39.2775 v 0 c 0.949,-0.183 1.898,-0.366 2.8471,-0.549 3.7222,-0.7086 7.4542,-1.3344 11.236,-1.64 6.982,-0.5642 14.0032,-0.6721 21.0031,-0.7056 22.2761,-0.1606 44.5556,-0.016 66.8282,-0.5525 33.7228,-0.8177 67.5369,-1.8324 100.9697,-6.6811 16.3032,-2.488 11.815,-1.6996 27.0468,-4.3949 8.6262,-1.5265 17.298,-3.4088 26.0472,-4.128 2.0341,-0.1672 4.0793,-0.1476 6.1189,-0.2214 5.7462,0.2974 6.756,0.2141 12.3457,1.0174 1.5698,0.2255 3.0971,0.8427 4.6831,0.84 0.2853,0 0.2548,-0.5984 0.1165,-0.848 -4.4829,-8.0937 -1.3727,0.1305 -3.7901,-7.066 -0.052,-0.6271 -0.1584,-1.2522 -0.1554,-1.8815 0.024,-4.974 2.3324,-10.0888 6.536,-12.8271 -1.2407,0.8835 0.049,0.044 0.4764,0.072 0.066,0 -0.086,0.1106 -0.1495,0.1307 -0.7577,0.2414 -3.7138,0.9757 -4.2504,1.1118 -2.7158,0.5998 -6.1644,1.3768 -8.8321,1.8919 -13.1347,2.5361 -26.4058,4.2693 -39.6117,6.3751 -15.2539,2.265 -30.5075,4.5254 -45.782,6.6485 -17.86,2.4825 -35.7497,4.9257 -53.7858,5.709 -32.1584,1.6249 -64.3813,2.6177 -96.4113,6.1147 -9.5712,0.9977 -6.7649,0.7906 -15.7683,1.4226 -1.2201,0.086 -2.4394,0.2561 -3.6622,0.2292 -2.9914,-0.066 -5.9225,-0.9937 -8.7639,-1.8182 -0.8052,-0.2875 -1.6133,-0.5668 -2.4156,-0.8624 -0.4545,-0.1675 -0.8795,-0.4308 -1.3543,-0.5268 -0.094,-0.019 0.034,0.1978 0.095,0.2721 0.8481,1.0337 1.8837,1.9212 2.62,3.0373 1.614,2.4466 1.5171,3.0854 1.9556,5.5866 -0.04,0.2399 0.019,0.5206 -0.1207,0.7195 -0.068,0.096 -0.1649,-0.1931 -0.1666,-0.3106 -0.029,-1.9782 0.3246,-1.6258 0.525,-3.7659 0.012,-0.1289 -0.063,-0.444 -0.1571,-0.355 -1.3086,1.2375 -2.4437,2.6466 -3.6655,3.9699 -6.6193,2.7777 -5.9738,3.8303 -10.4054,3.5882 -0.5826,-0.032 1.167,-0.01 1.7502,0.01 3.3637,0.083 6.7249,0.2825 10.0907,0.2929 6.8227,0.01 13.6462,0.022 20.4677,-0.1336 12.9784,-0.3222 25.953,-0.9047 38.884,-2.0965 1.9922,-0.1841 14.5631,-1.3413 16.2729,-1.516 8.9365,-0.9132 17.835,-2.047 26.7263,-3.3191 2.7575,-0.3945 5.5148,-0.7901 8.2722,-1.1852 5.9878,-0.7473 10.8222,-1.3841 16.8123,-2.0011 9.7244,-1.0016 19.4857,-1.5926 29.2144,-2.5491 3.8938,-0.3828 7.7917,-0.7253 11.6827,-1.1352 11.1038,-1.1699 22.145,-2.8372 33.1849,-4.4893 22.2983,-3.351 44.5793,-6.849 66.9576,-9.634 7.6648,-0.7555 8.7621,-1.0085 15.7192,-1.2472 1.2873,-0.044 2.576,-0.033 3.8639,-0.02 0.9473,0.01 3.6221,0.359 2.8369,-0.1709 -2.4943,-1.6834 -5.0654,-3.2503 -7.598,-4.8754 -1.429,-2.5583 -3.045,-5.0208 -4.2871,-7.6749 -0.1476,-0.3154 -0.5219,-2.3595 -0.3564,-3.1656 0.026,-0.1273 0.064,0.2546 0.064,0.3845 -0.01,1.2587 -0.1756,2.2314 -0.3333,3.5189 -1.0881,6.5209 -2.984,12.8497 -5.7029,18.8864 -2.017,4.4964 -1.85,4.2973 -4.2342,8.8535 -0.7883,1.5064 -1.6345,2.982 -2.4308,4.4841 -0.3667,0.6915 -1.0865,1.3141 -1.058,2.0962 0.016,0.4446 0.7382,-0.4968 1.1073,-0.7452 1.589,-0.7917 3.178,-1.5834 4.767,-2.375 0.1657,-0.025 0.6568,-0.1252 0.4971,-0.075 -2.1924,0.6932 -4.493,1.0327 -6.7016,1.6631 -1.9484,0.5799 -3.8669,1.2717 -5.854,1.7074 -6.3627,1.4791 -12.8713,2.1986 -19.286,3.4 -1.6619,0.3232 -3.3269,0.6309 -4.9857,0.9697 -2.9297,0.5982 -5.6596,1.2771 -8.6088,1.7797 -6.5329,1.1133 -13.1389,1.7697 -19.732,2.3924 -20.5897,1.7335 -41.1995,3.251 -61.7336,5.5891 -14.3528,1.4066 -28.7107,2.7444 -43.0688,4.0958 -16.7471,1.5763 -33.4849,3.2813 -50.2701,4.4187 -16.823,0.8778 -33.6434,1.884 -50.4851,2.3343 -0.3405,0.035 -1.3232,-0.056 -1.0216,0.1056 1.4541,0.7809 3.148,1.0438 4.6052,1.8188 0.9395,0.4997 3.7116,2.3205 3.8782,3.9632 -1.6352,-3.2573 -3.1393,-6.6782 -5.1667,-9.7169 -0.083,-0.1241 -0.5015,0.2459 -0.3594,-0.2666 -0.5598,-1.4775 -0.8193,-2.9091 -1.1998,-4.4653 -0.6196,-2.5344 -1.3757,-5.039 -2.2049,-7.5117 -1.6275,-4.5614 -3.1586,-9.1613 -5.0097,-13.6383 -0.6532,-1.8261 -1.3456,-3.954 -2.039,-5.5645 -0.088,-0.2941 -0.09,-0.6207 -0.2387,-0.8893 -0.033,-0.06 0.012,0.154 -0.035,0.2034 -0.028,0.029 -0.057,-0.064 -0.061,-0.104 -0.077,-0.7254 0.02,-2.0248 0.041,-2.5654 0.1682,-4.1479 0.4029,-8.2968 0.3686,-12.4494 0,-28.2842 -40,-28.2842 -40,0 z" /><path
       style="fill:#ffffff;stroke-width:40;paint-order:markers stroke fill"
       id="path900"
       d="m 1921.7845,1182.8569 c 8.8094,6.3379 18.4361,11.3686 28.0679,16.3109 4.8131,2.4719 9.4959,5.2375 14.5624,7.1809 3.0802,1.1816 5.412,1.8137 8.5365,2.742 5.7405,1.4192 11.4414,3.0143 17.2227,4.2638 5.4444,1.2344 11.0268,1.3279 16.58,1.4031 4.9302,0.067 9.8958,-0.062 14.775,-0.8438 0.8923,-0.1429 6.0918,-1.1963 7.4816,-1.476 9.4693,-1.8436 18.9371,-3.703 28.3846,-5.6599 7.0123,-1.6972 14.1373,-2.9001 21.144,-4.6191 5.653,-1.3868 7.5049,-2.0033 13.1301,-3.6596 13.6554,-3.8326 26.4822,-9.8633 39.3855,-15.6246 7.4247,-2.9141 15.1212,-5.0838 22.4744,-8.1881 1.5157,-0.6398 2.9997,-1.3523 4.4996,-2.0285 6.2285,-2.5449 12.1301,-5.7667 17.7914,-9.3842 12.1113,-7.8194 11.1482,-9.7132 -3.0395,-37.6641 -1.9211,-3.7847 -8.4184,-1.177 -12.6578,-1.3857 -4.1233,-0.203 -20.9317,0.6826 -24.2045,0.8331 -30.489,1.9776 -60.8742,5.2342 -91.3158,7.7952 -20.3465,1.6668 -40.745,2.5369 -61.1515,2.9679 -9.5975,0.4491 -19.1033,1.886 -28.4383,4.1179 -8.4288,2.3272 -18.7963,5.0251 -19.886,17.1214 -1.6609,18.4371 6.5488,20.5373 16.9459,25.8438 18.851,6.8953 38.9812,8.5699 58.8551,9.8269 20.4281,0.83 40.8214,-1.1988 61.0829,-3.5767 9.0274,-1.2363 18.014,-2.9483 26.7168,-5.6744 15.7314,-8.3212 12.2049,-3.9324 -0.2206,-38.7252 -0.7533,-2.1095 -4.403,-0.8475 -6.6276,-1.1098 -1.4509,-0.1711 -2.9187,-0.1428 -4.379,-0.1881 -2.6148,-0.081 -6.2524,-0.1018 -8.8631,-0.1268 -12.1193,-0.1224 -24.2368,0.1818 -36.354,0.3635 -28.2811,0.4241 -27.6812,40.4196 0.5999,39.9955 v 0 c 11.7917,-0.1769 23.5836,-0.4765 35.3773,-0.3608 3.8047,0.035 4.0965,0.027 7.7684,0.1016 0.7705,0.016 2.297,0.8287 2.3113,0.058 0.015,-0.8034 -2.1441,0.063 -2.2989,-0.7253 -7.0183,-35.7417 -14.9072,-29.9116 0.4159,-37.3543 -6.1429,2.1663 -12.7422,2.8903 -19.115,4.0193 -17.8919,2.1056 -35.8949,3.9871 -53.9368,3.3801 -15.2288,-0.9241 -30.6073,-2.057 -45.2785,-6.5406 1.0913,6.8613 7.2538,13.1608 5.9305,19.9811 -2.3739,12.2342 -19.1878,15.3208 -9.6879,12.5809 6.543,-1.5879 13.2034,-2.6112 19.9299,-3.0172 21.2432,-0.4524 42.4782,-1.361 63.6588,-3.0999 29.9416,-2.5221 59.8291,-5.7063 89.8141,-7.6972 4.1026,-0.1922 8.2037,-0.4216 12.3078,-0.5766 2.992,-0.1131 6.0157,0.1974 8.9796,-0.2277 0.3474,-0.05 -0.032,-0.7014 -0.065,-1.0508 -3.6339,-38.5744 6.2887,-40.6981 -4.9501,-33.4383 -3.9438,2.6671 -8.2616,4.7081 -12.6386,6.555 -8.6297,4.0313 -17.8938,6.3959 -26.6688,10.0787 -11.2851,5.0456 -22.4665,10.4223 -34.4113,13.787 -4.1682,1.2392 -6.4528,1.9741 -10.6158,3.004 -6.7697,1.6748 -13.6632,2.8134 -20.4388,4.4662 -9.3715,1.9468 -18.7653,3.7865 -28.1599,5.6139 -1.5516,0.3129 -3.084,0.7189 -4.64,1.0093 -3.0273,0.5651 -6.134,0.5677 -9.1994,0.5261 -2.9168,-0.036 -5.8739,0.071 -8.7461,-0.5248 -4.7968,-1.0033 -9.5002,-2.4124 -14.2742,-3.5161 -1.9835,-0.5767 -4.142,-1.0418 -6.039,-1.9022 -3.4559,-1.5675 -6.6993,-3.5788 -10.1061,-5.242 -8.2804,-4.2445 -16.5891,-8.5087 -24.1339,-14.0009 -23.5339,-15.6893 -45.7219,17.5927 -22.188,33.282 z" /><g
       id="g540"
       transform="matrix(0.90000021,0,0,0.90000048,-431.43397,151.04973)"><path
         style="fill:#000000;stroke-width:40;paint-order:markers stroke fill"
         id="path510"
         d="m 2525.4416,957.61719 c 50.5795,-6.2311 101.5716,-7.40881 152.4542,-9.02094 12.2618,-0.50729 24.5282,-0.91808 36.7855,-1.52186 22.1081,-1.08903 37.7426,-2.08431 59.3963,-4.14748 18.8833,-1.79922 37.6807,-4.42333 56.5066,-6.72184 31.4888,-3.50383 63.0642,-6.13191 94.5999,-9.16337 7.8422,-0.80621 15.6638,-1.79335 23.49,-2.73764 2.9038,-0.35039 6.0777,-0.98917 9.0257,-0.88017 -7.053,-0.29241 -2.5302,0.42818 -12.4156,-4.66762 -0.526,-0.27117 -1.5563,-1.36548 -1.5973,-0.77507 -0.146,2.09505 0.8816,4.10843 1.2205,6.18099 1.3216,8.07474 1.5804,11.9204 2.4472,20.31269 1.1824,18.38921 2.7191,36.87554 1.7063,55.31636 -0.7123,12.96716 -1.7317,17.82346 -3.6296,30.70886 -2.1735,8.3414 -4.5767,18.8129 -7.928,26.8352 -3.0755,7.3626 -8.3372,15.7468 -13.114,22.0733 -7.1353,9.45 -9.2586,10.7818 -17.8041,18.8492 -12.3783,9.7196 -25.4167,18.8936 -39.5997,25.8319 -8.8048,4.3074 -13.7885,5.7549 -23.2634,9.1375 -34.9586,10.7497 -70.5591,19.3787 -106.1824,27.6278 -10.12,2.0617 -20.2948,4.4699 -30.6432,5.1213 -8.1661,0.5141 -16.2629,-0.3707 -24.3433,-1.3864 -7.1448,-1.5206 -14.8518,-2.196 -21.5643,-5.3464 -2.2971,-1.0781 -4.1672,-2.8972 -6.2182,-4.3909 -8.4948,-6.87 -17.4762,-13.167 -25.7959,-20.2541 -3.4457,-2.9352 -6.4891,-6.003 -9.7264,-9.1566 -8.0531,-8.7191 -14.5668,-18.762 -20.3732,-29.0772 -5.3679,-11.205 -10.0142,-22.7259 -14.458,-34.3208 -4.6269,-11.7144 -8.6877,-23.6361 -12.8863,-35.5082 -4.3184,-12.3091 -8.3378,-24.7337 -11.8824,-37.28959 -1.8871,-7.54469 -3.3539,-15.13646 -5.8788,-22.5059 -1.2589,-3.41114 -2.3924,-6.83967 -3.0661,-10.41358 -5.6129,-27.72177 -44.8174,-19.78401 -39.2045,7.93774 v 0 c 1.1085,5.3028 2.5573,10.49956 4.4751,15.57194 2.3281,6.59834 3.1922,13.57337 5.1815,20.28659 3.7845,13.3822 8.0617,26.6282 12.6642,39.7498 4.315,12.2003 8.5014,24.4468 13.2474,36.4885 5.1681,13.4796 10.5674,26.8907 17.0516,39.8026 7.7768,13.5345 16.3559,26.7424 27.2756,37.9863 4.8956,4.7343 7.2155,7.1204 12.5176,11.6232 9.068,7.7007 18.8196,14.5925 28.1266,21.9923 7.0102,4.7063 8.1277,5.9334 15.7991,9.2542 9.4438,4.088 19.9398,5.4037 29.9474,7.2849 8.7662,1.0157 12.1782,1.6294 21.241,1.7222 16.0872,0.1647 31.9072,-2.632 47.5401,-6.2036 37.166,-8.6116 74.3196,-17.5981 110.7455,-28.9753 12.9234,-4.7135 16.8921,-5.7343 28.9309,-11.6988 17.3011,-8.5717 33.1994,-19.8781 48.088,-32.0784 11.0676,-10.8152 14.3349,-13.0954 23.4723,-25.6731 7.2914,-10.0369 13.0299,-20.0639 17.7022,-31.578 4.3217,-10.65 6.7815,-22.4982 9.5118,-33.5778 2.2061,-15.4157 3.2403,-20.1432 4.0372,-35.7212 1.0271,-20.07701 -0.5566,-40.19907 -1.9174,-60.21483 -0.9559,-9.00898 -1.483,-15.71204 -3.1308,-24.58791 -0.64,-3.44813 -1.1928,-6.94235 -2.3299,-10.25988 -1.392,-4.06054 -2.4578,-8.48731 -5.2224,-11.77105 -8.1317,-9.65912 -10.3925,-8.81031 -19.8601,-10.24784 -11.8076,0.51033 -23.4646,2.8126 -35.237,3.78605 -31.8764,3.06422 -63.7934,5.71707 -95.6209,9.27476 -18.3267,2.23824 -36.6276,4.80706 -55.0093,6.56754 -21.064,2.01737 -36.1471,2.97799 -57.6995,4.04109 -12.1285,0.59825 -24.2657,1.00512 -36.3987,1.5077 -50.4379,1.6003 -101.0848,2.47494 -151.1866,9.00086 -28.2843,0 -28.2843,40 0,40 z" /><path
         style="fill:#000000;stroke-width:40;paint-order:markers stroke fill"
         id="path516"
         d="m 2589.8625,1015.4948 c 23.9941,0.8512 47.9931,0.9905 71.9934,0.4011 25.6458,-0.9583 51.2435,-2.8156 76.8681,-4.1858 15.2834,-1.0872 30.5774,-1.7541 45.7605,-3.8661 16.5021,-2.8404 33.2004,-4.313 49.8739,-5.7249 13.0665,-1.0219 26.1245,-2.14323 39.1851,-3.23937 22.0334,-2.48254 43.9611,-5.82997 65.8942,-9.06936 11.4276,-1.66468 6.0283,-0.89488 16.1965,-2.31979 28.0104,-3.92645 22.4576,-43.53915 -5.5528,-39.6127 v 0 c -10.4077,1.45931 -4.9112,0.67521 -16.4883,2.36177 -21.104,3.11706 -42.2029,6.32463 -63.3953,8.78025 -13.072,1.09734 -26.1413,2.22174 -39.2194,3.24226 -17.4046,1.47802 -34.8348,3.02705 -52.0637,5.97157 -14.0356,1.99948 -28.1998,2.44398 -42.3277,3.53348 -25.2437,1.35112 -50.4614,3.17169 -75.7246,4.14105 -23.67,0.59549 -47.3359,0.39346 -70.9999,-0.41347 -28.2842,0 -28.2842,40.00001 0,40.00001 z" /><path
         style="fill:#000000;stroke-width:40;paint-order:markers stroke fill"
         id="path518"
         d="m 2576.5616,973.18024 c -2.6937,0.55068 -1.2434,0.27536 -4.3547,0.80648 -27.8579,4.89278 -20.9385,44.28978 6.9194,39.39698 v 0 c 4.9517,-0.8854 2.574,-0.4132 7.1368,-1.3978 27.4397,-6.8599 17.7383,-45.66559 -9.7015,-38.80566 z" /><path
         style="fill:#000000;stroke-width:40;paint-order:markers stroke fill"
         id="path520"
         d="m 2616.7877,1134.5573 c 18.6915,0.1865 37.3749,-0.3714 56.0604,-0.753 30.3201,0.312 60.3869,-3.4982 90.2329,-8.4221 10.0042,-1.2954 19.7295,-4.1102 29.6876,-5.6404 3.3443,-0.5139 6.7074,-0.8986 10.06,-1.3565 12.7206,-2.1331 25.5114,-3.894 38.204,-6.1743 10.0682,-2.1313 20.184,-4.0383 30.1865,-6.4661 8.1106,-1.9177 16.314,-3.4242 24.5724,-4.5437 6.9191,-0.715 13.8316,-1.3357 20.724,-2.2866 28.0189,-3.8658 22.5518,-43.4905 -5.467,-39.6247 v 0 c -6.8885,0.9506 -13.802,1.5016 -20.7116,2.285 -9.6129,1.3389 -19.1733,3.0564 -28.6152,5.3139 -9.2314,2.2771 -18.5952,3.9533 -27.884,5.9746 -12.0808,2.2614 -24.3104,3.7768 -36.422,5.8899 -1.1882,0.1622 -10.8717,1.4815 -11.5668,1.5916 -9.8205,1.5553 -19.4288,4.2192 -29.288,5.5723 -27.9593,4.626 -56.1197,8.2493 -84.5299,7.8954 -18.4131,0.3763 -36.8241,0.9319 -55.2433,0.7447 -28.2843,0 -28.2843,40 0,40 z" /><path
         style="fill:#000000;stroke-width:40;paint-order:markers stroke fill"
         id="path524"
         d="m 2593.5755,681.70268 c -14.6255,7.57619 -24.7603,21.21056 -33.5772,34.69158 -6.323,11.0598 -11.337,23.11091 -13.5342,35.72738 -1.5188,8.72027 -1.2216,11.40039 -1.3531,20.13826 0.4582,9.70915 1.9743,19.3829 5.5579,28.47406 3.8306,9.71756 9.4662,18.28572 15.2783,26.87785 6.7635,10.1414 15.21,18.93544 25.4475,25.59863 5.7109,3.71697 8.0148,4.52593 14.0622,7.31398 12.0738,5.21287 25.0899,5.94643 38.0371,6.26838 14.7877,-0.5972 29.8639,-2.23346 44.0382,-6.74447 2.75,-0.87522 5.4186,-1.98795 8.128,-2.98191 2.7508,-1.36599 5.6642,-2.44451 8.2521,-4.09797 10.7272,-6.85311 19.5982,-16.88862 25.428,-28.18675 1.1724,-2.27208 2.0688,-4.67627 3.1033,-7.01442 1.292,-4.21074 3.2967,-9.80559 3.4981,-14.27422 0.7913,-17.56373 -5.3277,-34.56112 -10.6117,-51.00555 -5.888,-16.5911 -11.2794,-33.65953 -20.7084,-48.68908 -4.7379,-7.552 -6.9022,-9.52995 -12.586,-16.00308 -9.585,-9.98109 -21.5426,-16.866 -34.9525,-20.25468 -2.3114,-0.58409 -4.6707,-0.95893 -7.0061,-1.4384 -7.1125,-0.8391 -14.3773,-2.04709 -21.5718,-1.44945 -4.9998,0.41532 -6.8052,0.95618 -11.3974,1.97941 -5.9137,1.40694 -11.6588,3.4423 -17.3606,5.52921 -26.5594,9.72603 -12.8048,47.28675 13.7547,37.56072 v 0 c 4.1486,-1.51992 8.3114,-3.05197 12.604,-4.11514 1.1761,-0.29049 2.3047,-0.78857 3.5025,-0.96941 4.2692,-0.6446 8.6924,0.52509 12.9396,0.7497 7.644,1.23904 14.1076,3.48522 19.694,9.09764 2.7085,2.92333 5.2652,5.43936 7.4541,8.81245 8.2333,12.68691 12.4134,27.43766 17.5723,41.49135 3.2858,10.09925 4.2513,12.42298 6.732,22.35584 0.6237,2.49684 0.9938,5.05322 1.6373,7.54499 0.1921,0.74409 0.7903,1.37276 0.8633,2.13781 0.1146,1.20184 -0.6715,4.25963 -0.9525,5.48798 -1.7219,4.85516 -4.4881,8.78586 -7.8076,12.70908 -0.6842,0.80854 -1.2665,1.73791 -2.1169,2.36958 -1.2547,0.93231 -2.7403,1.50498 -4.1103,2.25748 -11.7713,4.68365 -24.4642,6.52404 -37.0739,7.15245 -7.6051,-0.16867 -15.3982,-0.0933 -22.6287,-2.78349 -10.0896,-4.27268 -16.8021,-9.54662 -22.8189,-18.94814 -7.306,-10.5928 -13.2413,-19.32646 -13.8819,-32.58666 -0.038,-3.85448 -0.2414,-7.55251 0.332,-11.38079 1.2138,-8.10392 4.3203,-15.9095 8.1966,-23.07016 4.4633,-7.12078 9.6127,-13.8331 15.6934,-19.56623 25.9973,-11.14171 10.2405,-47.90752 -15.7568,-36.76581 z" /><path
         style="fill:#000000;stroke-width:40;paint-order:markers stroke fill"
         id="path526"
         d="m 2645.6688,778.92285 c -2.4902,1.37567 6.2618,-5.52136 3.9039,-3.40834 -1.9519,1.74908 -4.7456,3.55703 -7.517,3.17241 -4.6156,-0.64059 -8.859,-2.89417 -13.2884,-4.34126 -7.0566,-25.04744 -8.6169,-13.6325 -4.4506,-23.73696 0.043,-0.10343 0.1199,-0.27683 0.024,-0.33478 -0.1151,-0.0697 -1.0131,0.24241 -1.2012,0.2648 9.9364,-4.7103 20.2571,5.90108 21.9311,15.32233 0.7969,4.4844 -2.0791,8.86884 -3.1187,13.30325 16.4023,-23.04256 -16.1846,-46.23913 -32.5871,-23.19657 v 0 c -1.34,4.85648 -4.6988,9.57741 -4.02,14.56941 0.7358,5.41028 4.1417,10.40845 7.9489,14.32222 6.4993,6.68128 18.004,4.96837 25.7081,2.39974 6.0164,-2.76924 12.1902,-6.1304 16.3846,-11.45778 1.7309,-2.19879 4.5773,-4.22915 4.5929,-7.02757 0.046,-8.17634 -2.9456,-16.08545 -4.4185,-24.12818 -5.016,-1.9763 -9.7303,-5.0419 -15.0482,-5.92891 -9.0131,-1.50334 -19.5611,7.99306 -25.2143,14.17455 -18.4071,21.47501 11.9631,47.50667 30.3703,26.03164 z" /><path
         style="fill:#000000;stroke-width:40;paint-order:markers stroke fill"
         id="path528"
         d="m 2858.3977,664.96162 c -2.3037,0.61254 -4.6718,1.021 -6.9115,1.83764 -10.9563,3.99515 -21.105,11.34112 -29.6097,19.18054 -2.312,2.13104 -4.4345,4.45865 -6.6517,6.68798 -5.9959,6.89343 -11.4747,14.53216 -14.5917,23.21811 -3.4147,9.51508 -4.4604,19.29869 -5.4494,29.26678 -1.2639,14.25374 -0.8318,28.78678 4.1738,42.3517 0.8763,2.37511 2.0275,4.63965 3.0411,6.95949 6.9281,14.40821 18.3563,25.4472 30.2819,35.74188 5.7412,4.70365 11.956,8.75157 18.2647,12.63668 2.7067,1.66698 7.1326,4.41807 10.0086,5.59099 2.8216,1.15067 5.774,1.95003 8.6609,2.92502 15.6197,3.32642 31.6757,3.58945 47.584,3.83159 8.9366,0.0325 17.826,-1.36424 25.8252,-5.54651 3.9801,-2.08087 6.1613,-4.06276 9.4988,-6.76024 5.0366,-4.45979 10.1621,-8.78951 13.9303,-14.4491 1.1856,-1.78065 2.1677,-3.68851 3.2517,-5.53276 5.3293,-10.073 8.0325,-21.12462 9.9957,-32.2653 1.7322,-10.51145 2.0823,-21.08256 1.256,-31.68227 -1.2348,-12.44899 -4.7223,-24.46001 -8.8672,-36.20918 -3.7735,-9.6752 -7.4838,-19.45076 -13.3279,-28.11661 -1.4634,-2.16966 -3.1263,-4.19772 -4.6895,-6.29655 -9.7221,-12.68495 -23.2632,-20.61766 -37.5235,-27.17411 -10.5322,-4.67836 -21.6908,-7.62312 -33.0864,-9.14411 -5.0363,-0.65778 -10.1047,-0.43653 -15.1561,-0.19793 -28.2469,1.4533 -26.1916,41.40046 2.0553,39.94716 v 0 c 2.7117,-0.1582 5.4279,-0.40598 8.1394,-0.0581 7.4263,0.79891 14.6584,2.99442 21.5281,5.88238 8.3317,3.69916 16.5245,7.77491 22.2993,15.08249 5.679,6.96545 8.9749,15.14382 12.0851,23.51053 3.0718,8.48513 5.6518,17.17111 6.6874,26.16729 0.7019,7.18082 0.2418,14.34118 -0.8158,21.47758 -1.1239,6.69359 -2.5458,13.38556 -5.4906,19.55125 -0.4699,1.02188 -0.9792,2.51055 -1.8201,3.34285 -1.8975,1.87796 -4.1208,3.42247 -5.9668,5.35956 -0.453,0.40048 -0.9594,0.74758 -1.3589,1.20142 -0.1538,0.17465 0.3566,0.572 0.1513,0.68133 -2.3553,1.25415 -5.4986,1.10141 -8.0013,1.23346 -12.2621,-0.18074 -24.5689,-0.44955 -36.7302,-2.16135 -3.6121,-0.46765 -5.8904,-2.25936 -9.0112,-4.16558 -4.5905,-2.80416 -9.1371,-5.69031 -13.3562,-9.04176 -7.5909,-6.43202 -15.2011,-13.11397 -19.9376,-22.0245 -4.6334,-9.01158 -4.7326,-18.94697 -3.7571,-28.88012 0.6686,-7.56949 0.3654,-5.70124 1.4869,-12.77011 0.2133,-1.34456 0.3268,-2.71389 0.6948,-4.02455 1.2073,-4.29988 3.8251,-8.06966 6.612,-11.468 4.2098,-4.401 8.3674,-8.36289 13.4181,-11.80711 2.0441,-1.39393 4.378,-2.36304 6.3105,-3.90781 0.088,-0.07 -0.1127,-0.19394 -0.169,-0.29091 28.0659,-3.50822 23.1044,-43.19934 -4.9615,-39.6911 z" /><path
         style="fill:#000000;stroke-width:40;paint-order:markers stroke fill"
         id="path530"
         d="m 2896.0947,756.76494 c -0.1878,-0.47749 -1.0707,-1.35826 -0.563,-1.43245 0.5313,-0.0777 0.6289,0.889 0.8006,1.39774 0.9708,2.87536 0.4461,5.37123 -1.0022,7.93343 -4.667,4.76422 -10.741,3.87958 -16.4436,2.18879 -1.7502,-0.51893 -2.5604,-1.22232 -3.4764,-2.44978 -0.3651,-1.38583 -1.0043,-2.72727 -1.0953,-4.15753 -0.43,-6.76529 4.0142,-13.37556 10.5907,-15.29749 1.3049,-0.38137 2.6882,-0.40886 4.0323,-0.61331 1.0543,0.1138 2.1084,0.2276 3.1625,0.3414 -27.4074,-6.98866 -37.2906,31.77108 -9.8835,38.75973 v 0 c 1.7473,0.29049 3.4944,0.581 5.2414,0.87149 5.3462,-0.38844 8.6294,-0.006 13.4572,-2.82297 7.9989,-4.66715 13.0448,-12.16338 13.3983,-21.55786 0.1098,-2.91811 -0.7543,-5.79146 -1.1316,-8.68719 -0.9271,-2.18747 -1.6558,-4.47006 -2.7813,-6.56244 -2.0768,-3.86119 -6.6421,-9.63088 -10.2825,-11.72406 -9.6589,-5.55389 -14.2129,-5.73926 -24.6621,-2.45184 -2.272,0.71486 -4.0608,2.49069 -6.0913,3.73603 -4.5614,4.37599 -6.6283,5.64737 -9.5366,11.74056 -4.4037,9.2269 -3.9362,19.61018 0.4892,28.67631 12.6492,25.29822 48.4262,7.40966 35.7772,-17.88856 z" /></g><path
       style="fill:#ffffff;stroke-width:1336.26;paint-order:markers stroke fill"
       d="m 8444.747,4310.8827 c -114.7666,128.8721 -264.9384,228.7914 -434.9846,266.6152 -155.0317,36.9139 -309.1577,94.2552 -470.0292,95.0175 -94.1838,1.642 -187.117,-27.8186 -257.9834,-91.0124 -45.0829,-28.0806 -80.3801,-75.8439 -125.7118,-100.1447 11.2381,63.1139 57.2426,119.0751 83.9689,177.6571 37.5751,74.7241 87.0383,142.8293 130.0104,213.703 26.4314,65.7631 -51.7204,105.3285 -94.5169,137.8133 -100.1051,62.3486 -235.1064,84.7783 -344.1794,33.8189 -113.6942,-63.47 -178.0561,-213.3456 -319.372,-223.6639 -101.3132,-10.9035 -159.4048,91.0141 -232.7444,141.4041 -90.9974,85.5987 -220.612,95.8374 -339.2421,91.3576 -148.8233,-10.2176 -238.9048,-147.5195 -341.007,-238.1113 -67.2686,-58.3633 -171.5831,-81.1864 -252.4206,-36.8421 -137.2127,60.516 -274.7287,126.868 -382.2585,234.1051 -68.6034,62.5668 -156.5822,108.5524 -251.8759,99.4058 -114.1863,7.2458 -218.1379,-45.1915 -311.2818,-105.4172 -75.3475,-44.6937 -171.0944,-44.8548 -253.6097,-23.4884 -77.2723,42.597 -123.9198,124.4296 -172.8407,195.1449 -51.4181,90.9408 -49.2676,203.1057 -31.0395,302.92 29.0136,87.6587 138.5543,94.2141 212.1493,122.3626 80.4093,26.2095 167.8839,44.8049 248.9434,9.6963 231.6789,-68.0045 358.8137,-296.4151 558.6361,-415.4368 104.5308,-48.791 224.1196,-49.1536 337.274,-54.3623 175.9735,20.4225 288.8832,173.4848 420.8287,273.7104 103.7784,62.3437 229.4761,75.4286 347.5812,89.0811 114.1363,13.2511 224.8333,-24.2725 322.2226,-81.1566 132.3046,-73.4704 278.1115,-125.933 431.0498,-125.9304 116.7983,-1.4112 235.7064,-16.8153 351.269,-4.1949 180.098,51.243 365.9859,84.9287 553.9468,75.3823 177.1201,6.5076 375.9185,-52.5053 470.9795,-213.2711 32.8054,-72.2277 42.5075,-159.7881 20.9232,-236.3871 -37.7677,-72.8438 21.8996,-149.7776 35.6332,-221.5183 34.3054,-127.6643 76.5093,-258.0318 90.182,-388.3958 z"
       id="path788"
       transform="scale(0.26458333)" /><path
       style="fill:#ffffff;stroke-width:1336.26;paint-order:markers stroke fill"
       d="m 7851.82,2465.3444 c -165.5433,5.3234 -346.1778,29.4593 -468.3767,153.211 -71.7406,71.1869 -142.5562,148.3223 -191.5493,236.7335 34.7123,2.4085 74.3208,-24.8728 112.7124,-21.1131 103.2175,-12.3781 210.8245,35.1688 261.3153,128.0078 57.0891,103.7018 105.649,219.5417 108.5692,339.3284 -5.9316,116.4576 -115.0958,196.0846 -223.7157,210.0604 -118.2904,24.5299 -258.1333,3.212 -334.1839,-99.8858 -30.7618,-33.4222 -51.2394,-77.2278 -75.7516,-112.6951 -26.4399,127.1778 -38.1204,258.2651 -54.2932,386.0258 343.2637,-27.5426 688.9576,-21.4586 1030.6099,-69.7421 147.883,-11.7569 296.0023,-38.8766 444.4427,-34.8741 29.9218,-8.7124 -0.8684,-78.5465 4.0711,-111.4347 -6.8177,-12.9496 6.119,-73.7256 -24.3931,-51.7209 -45.2624,44.2656 -105.8239,68.6924 -169.5606,61.4056 -100.206,6.3873 -201.9685,-20.8586 -276.2482,-90.926 -73.462,-60.6598 -132.4548,-150.8011 -117.8222,-249.9388 -5.8941,-89.0572 23.5736,-179.7174 93.809,-237.7508 43.4606,-32.0021 84.8376,-67.4021 123.4847,-104.6159 66.4846,-18.7633 135.0095,7.7129 199.9096,15.6233 -22.2018,-92.5848 -88.5321,-171.9115 -160.1148,-233.5767 -51.3104,-43.0611 -103.567,-93.6078 -165.0131,-117.7591 -39.3004,1.8791 -78.6009,3.7582 -117.9015,5.6373 z"
       id="path790"
       transform="scale(0.26458333)" /></g></svg>
