<?xml version="1.0" encoding="UTF-8" standalone="no"?>
<!-- Created with Inkscape (http://www.inkscape.org/) -->

<svg
   width="3840mm"
   height="2160mm"
   viewBox="0 0 3840 2160"
   version="1.1"
   id="svg5"
   inkscape:version="1.2.2 (732a01da63, 2022-12-09)"
   sodipodi:docname="eyeEnemy.svg"
   xml:space="preserve"
   inkscape:export-filename="sleepingEyeEnemy.png"
   inkscape:export-xdpi="96.096664"
   inkscape:export-ydpi="96.096664"
   xmlns:inkscape="http://www.inkscape.org/namespaces/inkscape"
   xmlns:sodipodi="http://sodipodi.sourceforge.net/DTD/sodipodi-0.dtd"
   xmlns="http://www.w3.org/2000/svg"
   xmlns:svg="http://www.w3.org/2000/svg"><sodipodi:namedview
     id="namedview7"
     pagecolor="#ffffff"
     bordercolor="#000000"
     borderopacity="0.25"
     inkscape:showpageshadow="2"
     inkscape:pageopacity="0.0"
     inkscape:pagecheckerboard="0"
     inkscape:deskcolor="#d1d1d1"
     inkscape:document-units="mm"
     showgrid="false"
     inkscape:zoom="0.057119268"
     inkscape:cx="2941.2142"
     inkscape:cy="5584.8054"
     inkscape:window-width="1920"
     inkscape:window-height="986"
     inkscape:window-x="-11"
     inkscape:window-y="-11"
     inkscape:window-maximized="1"
     inkscape:current-layer="layer1" /><defs
     id="defs2" /><g
     inkscape:label="Layer 1"
     inkscape:groupmode="layer"
     id="layer1"><g
       id="g7104"
       transform="translate(-376.67144,-94.986711)"><path
         style="fill:#e19999;fill-opacity:1;stroke-width:1;paint-order:markers stroke fill"
         id="path2736"
         d="m 462.8008,998.76479 c -0.0992,14.12271 3.86016,27.72991 7.09142,41.32631 1.80056,7.5764 2.95835,14.0844 4.44507,21.7973 3.04367,16.759 6.48568,33.4445 10.89962,49.9016 1.06056,3.9542 1.97422,7.9597 3.34238,11.8183 1.99755,5.6336 4.49336,11.0779 6.74007,16.6169 10.95873,23.4938 27.3771,43.6553 41.70458,65.0625 7.07784,12.0746 15.02751,23.593 23.06341,35.0398 2.96161,4.2188 5.79728,8.5321 8.94662,12.6127 9.02568,11.6944 13.46914,16.0999 23.25656,26.7561 28.736,30.0006 65.18468,50.954 99.90894,73.1891 24.75005,17.6396 50.7061,33.5405 75.07988,51.6984 18.19334,12.9804 30.52644,31.6219 44.45598,48.6734 12.03394,14.016 25.27409,26.9351 37.17039,41.0745 4.51794,5.3698 8.09135,10.2191 12.33286,15.8036 12.90543,18.3587 26.91427,35.9496 41.83568,52.7045 24.9859,24.9518 53.67359,46.0041 82.73748,65.9306 21.90516,14.3317 43.97486,28.4205 65.49926,43.3227 15.4304,10.1593 28.4652,23.245 41.8473,35.8454 13.5099,12.6196 28.331,23.7521 43.3894,34.4412 13.4713,9.6258 27.2618,18.7843 40.9396,28.1131 14.2734,9.0658 29.2274,18.1335 45.7163,22.6004 4.0782,1.1048 8.2533,1.8147 12.38,2.7221 17.4941,2.8307 35.2054,6.4875 53.0341,5.1239 4.3002,-0.3288 8.5456,-1.1715 12.8184,-1.7573 28.2516,-6.0647 44.7552,-23.6323 61.7099,-45.3345 9.5979,-12.8347 18.5049,-26.1055 29.2392,-38.0431 14.6581,-16.8923 29.9805,-33.1436 46.0102,-48.7359 11.5469,-11.1413 22.7474,-22.7491 35.3561,-32.7243 2.9614,-2.3429 11.2409,-8.2472 14.2236,-10.394 13.7333,-9.3445 26.7101,-19.7477 40.3508,-29.2163 10.2773,-7.3608 20.8898,-14.2026 31.6183,-20.8741 13.0555,-8.1529 25.0204,-17.87 36.5837,-27.987 5.8345,-5.6801 30.8417,-28.2491 27.7903,-35.8939 -7.8908,-19.7694 -25.1593,-34.3422 -37.739,-51.5133 -9.1149,1.816 -18.3504,3.1072 -27.3448,5.4481 -8.8551,2.3046 -29.4155,11.6992 -36.3402,14.9081 -22.3605,10.3621 -44.1951,21.5892 -65.8381,33.3564 -25.6005,15.2396 -50.9375,31.3099 -73.6557,50.6927 -13.1359,11.2074 -18.0807,16.6643 -30.0529,28.7222 -19.8134,20.2692 -34.0717,43.9828 -45.5592,69.6616 -10.4958,27.8823 -5.4372,42.1862 29.0743,63.0818 13.0128,7.8788 41.1538,-9.852 52.285,-16.6807 25.6255,-18.0339 49.7759,-38.0454 74.3484,-57.4629 34.157,-28.3879 67.4769,-57.7165 99.3251,-88.6741 27.5041,-29.692 57.7881,-56.5643 87.2746,-84.2301 24.7574,-21.794 47.3163,-45.7537 69.1071,-70.4537 13.5235,-16.2441 28.6954,-30.8598 44.222,-45.1354 15.8068,-14.6196 32.4634,-28.2308 47.7636,-43.396 14.6014,-14.6146 29.0078,-29.414 43.6518,-43.9875 18.6111,-18.4359 34.2015,-39.482 49.2656,-60.8178 7.5838,-10.3763 13.0206,-22.1576 20.4416,-32.6278 2.5321,-3.5724 6.0796,-7.7552 8.8228,-11.0945 6.9339,-7.7152 12.7652,-16.3992 19.8861,-23.9496 2.8951,-3.0697 5.9903,-5.9444 8.9643,-8.9377 5.8867,-5.3065 11.246,-11.1661 16.9849,-16.623 4.4641,-4.2446 9.4814,-8.0193 14.1664,-12.0066 8.9484,-7.5148 17.8404,-15.1488 25.6552,-23.8505 -23.5234,-10.6216 -47.0468,-21.2432 -70.5702,-31.8648 -0.1259,0 -0.316,-0.095 -0.3777,0.014 -1.3316,2.3705 -6.8897,14.6945 -6.9573,14.8406 -1.6994,3.6741 -3.4191,7.3388 -5.1287,11.0081 -1.8577,4.0292 -3.7154,8.0584 -5.5731,12.0875 -9.7799,21.2865 -19.727,42.5271 -27.6651,64.5815 -0.6301,1.8291 -4.8526,13.719 -5.0322,15.7099 -2.47,27.3822 -1.3459,42.8246 38.4211,54.0939 17.9895,5.0979 32.6628,-12.6571 43.1246,-23.2006 12.9055,-14.7233 24.3023,-30.6944 33.4228,-48.0413 4.1171,-7.8305 8.5978,-18.0497 12.2722,-26.1892 9.3085,-20.8033 15.6487,-42.6439 20.3439,-64.8914 2.5389,-15.1453 4.37,-30.906 1.5917,-46.1782 -0.6801,-3.7384 -1.8384,-7.3737 -2.7575,-11.0606 -5.8308,-16.02835 -15.5303,-29.41113 -27.9959,-40.92911 -4.5118,-4.16875 -9.3991,-7.91249 -14.0377,-11.93953 -20.3704,-15.30628 -41.7333,-29.21013 -61.8474,-44.86765 -12.5909,-8.83136 -23.8387,-19.23378 -34.9615,-29.78787 -12.573,-11.85429 -24.7818,-24.07918 -37.181,-36.1134 -17.9831,-17.52862 -35.9186,-35.1091 -53.8677,-52.67442 -14.4645,-13.33574 -29.6586,-25.89776 -42.0893,-41.22914 -7.784,-9.59268 -15.4447,-19.29384 -22.7939,-29.22387 -0.732,-0.98427 -1.3718,-2.04438 -2.1961,-2.9528 -6.4821,-7.14372 -13.6688,-13.55545 -20.2015,-20.64269 -5.0242,-5.45063 -7.541,-8.65814 -12.2888,-14.40328 -12.2878,-18.57549 -24.8249,-36.97557 -37.4614,-55.31501 -7.9587,-10.84506 -15.6168,-21.87469 -24.1355,-32.29184 -6.712,-8.92418 -14.558,-16.87491 -21.9979,-25.16862 -5.5558,-6.1935 -10.4231,-12.15969 -15.7646,-18.56684 -19.0982,-22.44291 -38.4971,-44.71376 -59.6525,-65.24821 -16.6478,-15.75951 -33.275,-31.54016 -49.7137,-47.51805 -13.1544,-13.4678 -28.7038,-24.19901 -42.873,-36.51687 -16.2061,-14.12356 -30.5276,-30.173 -45.0575,-45.96418 -14.5158,-17.44618 -30.1369,-33.84558 -46.4786,-49.58369 -12.5667,-12.64927 -26.4267,-23.73262 -40.7496,-34.29119 -8.2937,-6.17727 -14.8503,-14.18729 -23.8985,-19.44975 -3.7185,-2.16265 -7.7702,-3.69332 -11.6552,-5.53999 -16.4981,-5.90497 -33.7656,-7.52155 -50.9466,-3.58173 -5.0173,1.15056 -9.8831,2.88345 -14.8247,4.32517 -21.9063,7.91842 -42.8725,18.29723 -63.0274,29.92992 -11.6592,7.33156 -22.1751,16.35255 -31.5616,26.41151 -7.7933,8.82202 -4.2111,4.9191 -10.6656,11.78261 -14.1695,15.63481 -26.8528,32.55287 -39.1455,49.68017 -5.9657,9.29458 -13.2175,17.4235 -21.0519,25.13222 -13.251,10.88175 -24.4742,23.73728 -35.2323,37.01142 -12.1124,16.46756 -26.4118,31.02152 -40.74552,45.5213 -20.87732,20.07978 -41.29426,40.62066 -61.39127,61.47837 -20.42435,22.39685 -43.46239,42.10016 -65.50163,62.83349 -23.05301,21.28456 -44.3493,44.34152 -65.97718,67.04189 -2.53093,2.45724 -5.00325,4.97634 -7.5928,7.37169 -6.91822,6.39943 -12.50736,10.75971 -19.72395,17.14656 -13.4792,11.9294 -26.47344,24.34066 -39.34246,36.91867 -18.45516,18.12213 -34.68211,38.28377 -51.51601,57.86987 -13.66404,16.24441 -28.80916,31.07558 -44.31329,45.53765 -21.69316,19.09281 -43.83355,37.67079 -65.92443,56.30304 -15.18806,12.26998 -29.8295,25.17908 -45.63671,36.65929 -8.67386,6.46407 -4.44979,3.32013 -12.67164,9.43261 -45.39704,33.75067 2.3336,97.95178 47.73065,64.20115 v 0 c 8.10371,-6.0248 4.05702,-3.01117 12.14012,-9.04087 17.24728,-12.65994 33.47878,-26.55075 50.02183,-40.10427 23.11204,-19.50085 46.3014,-38.91756 68.93343,-58.97377 17.63088,-16.47262 34.81401,-33.42011 50.39574,-51.87598 15.32935,-17.84276 30.07056,-36.24059 46.79193,-52.82991 11.61381,-11.37947 23.337,-22.6354 35.51862,-33.4123 11.29488,-9.99236 12.70749,-10.51904 23.46693,-20.57389 3.28766,-3.07237 6.42882,-6.29788 9.64324,-9.44679 20.6288,-21.65329 40.90924,-43.67909 62.89834,-63.98104 22.96335,-21.64413 46.9818,-42.20215 68.27073,-65.57105 19.86233,-20.61737 40.06453,-40.89638 60.68683,-60.7564 16.1826,-16.38539 32.2596,-32.9143 46.0342,-51.43336 4.1945,-5.19639 8.2814,-10.5891 12.9528,-15.37798 3.3161,-3.39937 6.9366,-6.47486 10.4485,-9.66264 1.9615,-1.78046 3.904,-3.58169 5.856,-5.37252 11.0068,-10.9043 21.247,-22.47159 29.836,-35.41617 10.2828,-14.34336 20.8419,-28.5491 32.6153,-41.71448 7.6199,-8.2024 14.6355,-17.15074 23.9145,-23.60181 14.9386,-8.74247 30.569,-16.37075 46.6628,-22.73961 1.8763,-0.68252 3.7512,-1.36861 5.6287,-2.04753 0.7153,-0.25866 1.4583,-0.44842 2.1498,-0.76521 0.4495,-0.20587 -0.044,-0.58838 0.6748,-0.56483 4.9299,0.16174 0.6613,0.47316 3.1251,0.25628 -0.5208,-0.4648 -1.0836,-0.88638 -1.5623,-1.39436 -0.3221,-0.34184 -1.2038,-1.42158 -0.8271,-1.14099 7.3208,5.45288 12.9781,13.13299 20.8753,17.92333 11.5305,8.49622 22.7494,17.28721 32.7824,27.5762 9.4023,9.01094 18.7971,18.14499 27.3743,27.96045 2.4881,2.84736 4.8244,5.82472 7.2983,8.68452 2.7484,3.17722 5.5782,6.28325 8.3673,9.42488 16.5987,18.03779 33.0682,36.2652 51.634,52.33702 13.0538,11.22127 27.1579,21.22879 39.4092,33.34277 16.5124,16.04721 33.2052,31.90597 49.9319,47.72945 19.2259,18.38619 36.41,38.81745 53.777,58.9352 7.5131,8.98969 10.7996,13.08266 18.5831,21.76587 6.3672,7.10303 13.1424,13.85212 18.8281,21.54578 7.1524,8.59542 13.2761,17.93629 20.0273,26.84323 13.9928,20.30267 27.5621,40.89225 41.7877,61.02736 7.6626,9.19332 15.408,18.16912 23.8592,26.65386 2.1775,2.18615 4.2596,4.48315 6.6224,6.46763 0.4018,0.33745 -1.0113,-1.80663 -0.6362,-1.43975 0.891,0.87148 1.4876,2.00003 2.2313,3.00008 8.2297,11.00182 16.6503,21.8639 25.3618,32.49059 14.4724,17.23367 30.7774,32.56627 47.7244,47.34883 18.0333,17.64758 36.0566,35.30674 54.1208,52.92103 12.6199,12.23362 25.0378,24.67102 37.8252,36.73131 13.0493,12.37462 26.3323,24.49981 41.0008,34.97101 19.036,14.71041 38.8139,28.38207 58.5334,42.15316 4.5329,3.9087 9.1813,7.5767 13.7381,11.4372 0.5644,0.4781 1.1971,0.8919 1.6714,1.4594 0.7284,0.8712 0.9786,2.1696 1.9078,2.8223 0.3825,0.2687 0.081,-0.9314 0.1214,-1.397 2.5792,1.1387 0.095,16.4309 -0.2176,18.9168 -3.4173,16.5923 -8.073,32.8646 -14.9714,48.3839 -1.3166,2.928 -7.3255,16.4182 -9.0751,19.8594 -5.9541,11.7103 -13.4747,22.4268 -21.9624,32.4333 -8.5669,11.3126 5.7154,-8.9367 20.6469,-1.8065 44.7694,21.3788 33.5499,21.4629 32.9211,47.9998 -0.093,3.9283 4.0224,-21.0772 3.5883,-11.2285 6.8943,-19.8466 16.4026,-38.6774 24.9254,-57.8506 5.1007,-11.0643 10.331,-22.0737 15.3305,-33.1843 1.7,-3.7782 3.5402,-7.5002 5.0272,-11.3673 1.2825,-3.3353 6.2234,-8.1987 3.2694,-10.2093 -21.5507,-14.6682 -46.5833,-23.4166 -69.875,-35.1249 0.88,-0.8971 1.841,-1.7214 2.64,-2.6913 0.5612,-0.6813 -1.2772,1.2187 -1.9227,1.8206 -5.2189,4.866 -10.5471,9.6237 -16.0647,14.1435 -3.9899,3.4073 -8.0941,6.6803 -12.0512,10.1257 -8.3588,7.2782 -15.8049,15.502 -23.9562,23.003 -2.7348,2.7528 -10.0318,10.0559 -12.4458,12.6733 -7.6774,8.324 -14.2417,17.6003 -21.7059,26.1072 -5.9215,7.3262 -8.4244,10.1553 -13.8724,18.0294 -6.7207,9.7134 -12.0509,20.305 -18.7056,30.0632 -12.3849,17.5671 -25.0328,35.0331 -40.3307,50.234 -14.6625,14.5927 -29.0898,29.4089 -43.7083,44.0438 -14.423,14.5062 -30.5962,27.0693 -45.4209,41.1527 -17.5787,16.1624 -34.6894,32.7897 -50.0712,51.1066 -20.1228,22.8173 -40.9212,44.9656 -63.8516,65.034 -29.8365,27.997 -60.4824,55.1969 -88.3235,85.2324 -29.8515,29.0765 -61.1609,56.5306 -93.1388,83.2455 -22.3721,17.6816 -44.4257,35.7895 -67.4735,52.595 -1.8508,1.2446 -3.7032,2.4868 -5.5525,3.7337 -0.8663,0.584 -3.6215,1.5681 -2.5943,1.7591 5.2,0.9671 11.8897,-2.7975 15.8518,0.7064 33.5987,29.7133 31.2794,25.4945 26.4737,48.8781 -0.1007,0.4899 0.2282,-0.9738 0.3423,-1.4608 7.3044,-16.787 16.4325,-32.5928 29.3114,-45.8149 8.8514,-9.0111 13.7033,-14.3077 23.2888,-22.6154 18.9791,-16.4491 40.4058,-29.8191 61.8225,-42.7978 19.7819,-10.8296 39.8183,-20.9584 60.2234,-30.5735 5.1854,-2.4433 10.3623,-4.9156 15.6567,-7.1124 4.436,-1.8406 9.965,-1.758 13.5156,-4.992 1.5827,-1.4415 -4.1342,-1.1133 -6.2013,-1.6699 -10.3128,-16.9427 -24.5582,-32.0477 -30.9384,-50.828 -1.801,-5.3014 6.0571,-9.4255 8.813,-14.2994 0.4407,-0.7794 -1.2063,1.3244 -1.8363,1.9608 -3.5957,3.6322 -7.242,7.2148 -10.8369,10.8481 -8.2513,7.2708 -16.7619,14.3079 -26.0773,20.1901 -11.9351,7.4304 -23.7395,15.0548 -35.1863,23.2286 -13.913,9.7725 -27.2964,20.2725 -41.3146,29.9005 -6.3955,4.6199 -12.7562,9.1083 -18.9193,14.0535 -14.0649,11.2852 -26.8083,24.0922 -39.7027,36.6604 -17.3889,16.9758 -34.1009,34.5832 -50.0262,52.9453 -11.7419,13.3566 -22.1986,27.6204 -32.5647,42.0479 -3.3911,4.4009 -6.7154,8.641 -10.4016,12.7794 -0.5068,0.5689 -1.7254,1.0559 -1.4504,1.7664 0.2567,0.6632 1.8176,-0.6384 2.1335,0 0.2833,0.5714 -1.1222,0.6061 -1.6834,0.9091 -11.6046,3.3573 -26.0485,-1.747 -37.7867,-2.9521 -10.4018,-0.6903 -19.5302,-7.8627 -28.2155,-12.8704 -13.3035,-9.0734 -26.7259,-17.9664 -39.8224,-27.3372 -12.0544,-8.4826 -23.9063,-17.3669 -34.7447,-27.3728 -16.299,-15.3434 -32.41,-30.9999 -51.1739,-43.3907 -21.6583,-14.9708 -43.8018,-29.2181 -65.8683,-43.5765 -23.8484,-16.2417 -47.25028,-33.4934 -68.30071,-53.272 -13.62297,-15.0725 -26.02627,-31.2452 -37.78322,-47.8033 -6.21482,-8.1346 -9.11471,-12.1265 -15.81853,-20.0655 -11.36174,-13.455 -23.8129,-25.917 -35.48645,-39.0902 -7.59367,-9.1887 -14.52562,-18.8955 -22.30803,-27.9279 -10.91469,-12.6677 -22.89272,-24.306 -36.36282,-34.2679 -4.98287,-3.6735 -9.88938,-7.4529 -14.94859,-11.0206 -6.4307,-4.5348 -21.85416,-14.5526 -28.54595,-19.0295 -21.21857,-14.1956 -2.93587,-2.0833 -23.33148,-16.1445 -4.21429,-2.9054 -8.48641,-5.726 -12.72958,-8.5891 -15.92951,-10.2 -31.91643,-20.2845 -47.60656,-30.8536 -9.65224,-6.502 -18.46202,-12.2066 -27.16924,-19.858 -3.34338,-2.938 -6.33421,-6.2545 -9.50132,-9.3817 -4.98798,-5.3631 -12.24833,-12.9105 -16.78147,-18.7711 -11.19989,-14.4794 -21.14928,-30.5032 -30.87139,-46.0042 -11.60397,-17.1915 -24.55442,-33.5486 -34.50125,-51.7995 -1.1254,-2.369 -2.47454,-4.6441 -3.37621,-7.1069 -1.15046,-3.1424 -1.88733,-6.4216 -2.7595,-9.6523 -4.04246,-14.9741 -7.1379,-30.1653 -9.89722,-45.4224 -2.19167,-11.2519 -2.92409,-15.6614 -5.54357,-26.6509 -1.40862,-5.9094 -3.40905,-11.8417 -4.30408,-17.8714 -0.16566,-1.116 -0.15121,-2.25125 -0.22683,-3.37687 0,-56.56855 -80,-56.56855 -80,0 z" /><path
         style="fill:#e19999;fill-opacity:1;stroke-width:47.2441;paint-order:markers stroke fill"
         d="M 4824.292,979.78516 C 4079.7453,1750.3471 3249.9091,2431.5124 2489.1113,3185.3028 c -193.1847,188.8102 -389.3863,375.0611 -574.3164,571.8993 -2.1337,138.4753 14.2695,282.1807 99.9512,396.46 260.2594,425.5874 637.9667,759.5299 979.026,1117.9279 377.3464,381.7653 805.4824,707.9284 1200.93,1069.9871 161.961,130.3317 316.7307,280.0858 508.7403,365.1612 119.4146,24.6925 230.834,-52.8795 335.2364,-100.082 295.2836,-165.6908 510.1941,-435.6332 755.4596,-662.7935 532.2157,-536.898 1074.8876,-1063.3755 1609.7679,-1597.5005 98.8442,-111.0007 241.794,-231.6684 225.4638,-396.1914 -43.532,-133.4298 -137.6581,-245.2146 -221.2402,-355.957 C 6961.1584,3095.9218 6465.0486,2645.1844 6002.7715,2161.4588 5619.8213,1774.9589 5246.4601,1378.1271 4854.6858,1000.851 c -10.2055,-6.45567 -19.798,-16.04618 -30.3938,-21.06584 z"
         id="path2127"
         transform="scale(0.26458333)" /><path
         style="fill:#d06161;fill-opacity:1;stroke-width:1;paint-order:markers stroke fill"
         id="path2738"
         d="m 621.90714,818.97312 c 8.30363,17.03969 11.90268,36.02733 15.99914,54.40717 6.26213,26.67494 9.08383,53.92446 12.22841,81.08441 1.7096,16.65627 3.26826,33.34266 3.0431,50.105 -0.17478,13.0112 -0.72702,19.7796 -1.49881,32.7986 -1.60345,28.158 -6.09518,56.0057 -11.11885,83.7174 -3.11245,20.9532 -9.17202,41.1813 -15.66976,61.2794 -6.79995,20.1963 -14.29655,40.1509 -21.04131,60.3649 -2.15514,6.2684 -3.69059,12.7073 -5.13146,19.1667 -11.99205,55.2828 66.18967,72.2421 78.18173,16.9593 v 0 c 0.74694,-3.6818 1.62443,-7.3321 2.86403,-10.8867 6.77164,-20.46 14.48898,-40.597 21.26769,-61.0563 7.54851,-23.4705 14.50327,-47.1331 18.24693,-71.5621 5.5957,-30.8887 10.4819,-61.9447 12.26543,-93.3267 0.87116,-15.1688 1.51259,-23.1181 1.62856,-38.4185 0.14795,-19.51732 -1.52093,-38.95512 -3.5687,-58.34667 -3.47096,-29.94692 -6.7297,-59.96958 -13.63446,-89.3785 -5.56865,-24.717 -10.98936,-49.91632 -22.50752,-72.68448 -25.29821,-50.59645 -96.85239,-14.81936 -71.55415,35.77707 z" /><path
         style="fill:#ba3737;fill-opacity:1;stroke-width:1;paint-order:markers stroke fill"
         id="path3181"
         d="m 678.74408,805.03407 c 3.92287,7.20754 9.27137,13.50703 13.40239,20.57654 0.97605,1.67032 2.64658,5.07574 3.48287,6.74323 2.28746,5.40115 4.68913,10.73525 7.21106,16.0324 1.14996,2.41538 1.24627,1.54209 1.05198,2.67742 -0.26982,-0.45969 -0.8215,-1.91188 -0.80949,-1.37901 0.0428,1.89818 0.62421,3.74584 0.90514,5.62359 1.24465,8.31956 2.49769,16.63949 3.71994,24.96277 1.52672,7.50473 2.41609,15.0731 2.78132,22.71305 0.31076,9.00997 0.29536,18.02757 0.30001,27.04177 -0.10541,8.64407 -0.0578,17.26777 0.54886,25.89324 0.74019,10.96266 0.83563,21.95811 0.96652,32.94139 0.8364,13.57644 -1.33996,26.97694 -3.19537,40.37474 -1.36271,8.7531 -1.94088,17.6099 -3.23043,26.3717 -0.90961,6.1802 -2.23806,12.3367 -3.39598,18.4739 -2.09143,13.932 -4.98864,27.6926 -8.508,41.3268 -3.64982,13.405 -7.89461,26.6285 -11.45818,40.0579 -3.63786,13.506 -5.06013,27.3804 -6.27737,41.2615 -0.93072,10.5373 -1.42031,21.1067 -1.72635,31.6786 -0.0249,1.2117 0.01,2.426 -0.075,3.635 -0.0249,0.3553 -0.0821,-0.7079 -0.1047,-1.0633 -0.0228,-0.3582 0.20778,-1.3439 -0.0315,-1.0763 -0.46048,0.515 -2.91672,7.7467 -3.10587,8.2389 -2.86276,6.7233 -5.93042,13.3541 -8.81009,20.0705 -2.12259,5.457 -1.1108,2.6597 -3.02207,8.3968 -17.16471,53.9015 59.06354,78.176 76.22823,24.2745 v 0 c -0.009,-0.5709 -0.0241,-0.1318 0.37123,-1.2648 3.24337,-7.6521 6.85417,-15.1415 9.93987,-22.8617 4.42558,-11.5832 8.79594,-23.4532 8.57708,-36.0586 0.25482,-9.0057 0.66299,-18.0099 1.4538,-26.9862 0.81773,-9.3383 1.4989,-18.7016 3.92743,-27.8048 3.57759,-13.6078 8.02235,-26.9608 11.59216,-40.5718 3.9297,-15.3267 7.29054,-30.7783 9.6447,-46.4334 3.04273,-16.1537 5.60001,-32.3525 7.25791,-48.714 2.39102,-17.336 4.82037,-34.7332 3.94272,-52.28516 -0.15192,-12.59578 -0.29194,-25.20371 -1.1707,-37.77417 -0.51194,-6.70708 -0.34661,-13.41898 -0.33891,-20.14439 -0.006,-10.36932 0.007,-20.74318 -0.40552,-31.10606 -0.54507,-10.14891 -1.53012,-20.26229 -3.52656,-30.24161 -2.21705,-15.06477 -4.03362,-30.25098 -7.82026,-45.01758 -3.64104,-9.37969 -8.11924,-18.39929 -12.14588,-27.6197 -5.35424,-10.39326 -11.42164,-20.29859 -18.21442,-29.8151 -27.47211,-49.4498 -97.40469,-10.59836 -69.93258,38.85144 z" /><path
         style="fill:#d06161;fill-opacity:1;stroke-width:1;paint-order:markers stroke fill"
         id="path3577"
         d="m 722.26698,750.46355 c 2.44002,10.76163 6.58112,21.01755 11.06017,31.0638 3.54761,8.50453 7.41656,16.86727 10.9769,25.36505 3.01188,6.19548 4.89725,12.75868 6.80786,19.34406 2.92399,9.71243 6.14376,19.34083 9.49841,28.91403 1.81827,7.33595 3.88959,14.62723 5.51706,22.01188 1.63701,10.57299 2.61099,21.24091 3.40395,31.90708 0.68461,10.51275 0.72567,21.05192 0.77504,31.58231 0.0282,16.4279 0.006,32.85585 -0.005,49.28375 -0.25374,11.91509 0.37637,23.85989 -0.18206,35.76699 -1.41243,9.1465 -3.13175,18.2487 -5.52548,27.1908 -4.17047,13.6483 -8.93726,27.1024 -13.17969,40.7273 -2.7296,10.9786 -7.88824,21.0371 -11.95999,31.5382 -3.99156,10.3159 -7.35462,20.849 -10.7197,31.38 -3.25885,7.7772 -6.38207,15.611 -9.54865,23.4265 -4.36354,11.1248 -8.07853,22.4398 -11.34478,33.9296 -2.24123,8.1889 -4.03881,16.4837 -6.33243,24.6567 -2.45436,7.5302 -4.00955,15.2725 -5.78758,22.9733 -1.17088,6.148 -2.56085,12.2423 -3.56634,18.4209 -0.10385,0.5591 0.25627,1.6447 -0.31152,1.6775 -0.56105,0.032 0.70792,-1.3997 0.21629,-1.672 -0.46315,-0.2566 -0.36986,0.9925 -0.5348,1.4956 -1.28913,3.9326 -2.35058,7.8881 -3.32097,11.9094 -1.89039,5.964 1.32075,-3.4883 -1.25553,3.4913 -19.46663,53.1136 55.6473,80.6435 75.11392,27.53 v 0 c 1.53834,-4.2165 3.10075,-8.4456 4.04894,-12.8431 1.33464,-6.6589 4.60708,-12.8689 5.15874,-19.7227 -0.005,-1.4881 0.6704,-3.5132 0.96123,-4.8858 0.57404,-2.7091 1.05871,-5.4135 1.6024,-8.1251 1.36586,-6.2978 2.63533,-12.5801 4.71892,-18.7024 2.25081,-8.0698 4.13134,-16.2252 6.24086,-24.3319 2.47907,-8.7237 5.21118,-17.3204 8.54046,-25.7663 3.92311,-9.6877 7.95126,-19.337 11.61015,-29.1276 2.91476,-9.1344 5.79052,-18.2808 9.26518,-27.2232 4.47059,-12.1291 10.65919,-23.6397 13.61186,-36.3219 4.56962,-14.7934 9.90867,-29.3425 14.17976,-44.2305 3.73685,-14.5416 6.79133,-29.321 8.05895,-44.3022 0.44286,-12.9292 0.14716,-25.8688 0.24183,-38.8039 0.0116,-16.57361 0.034,-33.14724 0.004,-49.72085 -0.0601,-12.40081 -0.14454,-24.81117 -0.99851,-37.18835 -1.10453,-14.60079 -2.41819,-29.23296 -5.16443,-43.62926 -2.38707,-10.3432 -5.00753,-20.66142 -8.05696,-30.82544 -2.8842,-8.176 -5.62874,-16.408 -8.14771,-24.70163 -2.76341,-9.50751 -5.70008,-18.96277 -9.8589,-27.97278 -3.89843,-9.28799 -8.0958,-18.4454 -12.0124,-27.7267 -2.68497,-5.45475 -4.7914,-11.24725 -6.18816,-17.16529 -13.71989,-54.87956 -91.33128,-35.47671 -77.61139,19.40285 z" /><path
         style="fill:#ba3737;fill-opacity:1;stroke-width:1;paint-order:markers stroke fill"
         id="path4025"
         d="m 752.33071,1027.373 c 0,4.8178 0,9.6356 0,14.4534 -0.22526,3.9713 0.35743,8.0195 -0.15459,11.9704 -0.45416,3.2074 -0.97552,6.404 -1.44584,9.6083 -0.41664,3.917 -1.25955,7.7671 -1.83158,11.6613 -0.40323,3.1909 -0.9098,6.3693 -1.4114,9.5467 -0.75443,4.7261 -1.75434,9.4045 -2.64715,14.1057 -0.68247,4.0236 -1.2596,8.0444 -2.29632,11.9921 -1.16155,4.5485 -2.21467,9.112 -2.83816,13.7668 -0.5253,3.8833 -1.05336,7.768 -1.73977,11.627 -0.68765,3.6985 -1.60025,7.3393 -2.56646,10.9729 -1.04224,4.1141 -2.16741,8.2057 -3.30909,12.2929 -1.0283,3.9705 -2.35344,7.8617 -3.73366,11.7221 -1.75956,4.4357 -3.19855,8.9805 -4.72189,13.4993 -1.89267,4.8385 -3.71293,9.7093 -5.66989,14.5237 -1.95837,5.1921 -3.9388,10.3765 -5.79562,15.6065 -1.55588,4.4203 -2.73232,8.9519 -4.34964,13.3493 -1.78684,4.9113 -3.51772,9.8384 -4.89038,14.882 -1.33871,4.9357 -2.79106,9.8263 -4.0251,14.79 -0.90705,3.7972 -1.71387,7.6162 -2.51103,11.4376 -0.70914,2.7588 -1.57144,5.4777 -2.39715,8.204 -0.82603,2.6207 -1.44293,5.3306 -2.51706,7.8657 -0.63299,1.3483 -0.99904,2.8176 -1.68418,4.1367 -0.44463,0.8559 -0.42479,1.205 -0.43156,0.7814 1.9264,-3.1601 4.98528,-3.5242 9.07669,-3.6249 1.23132,-0.03 2.29121,0.9076 3.41238,1.4175 0.20564,0.094 0.49874,0.6061 0.556,0.3876 0.0685,-0.2613 -0.32533,-0.4314 -0.48803,-0.647 -0.3063,-0.3672 -1.2456,-1.4637 -1.6265,-1.9974 -0.0725,-0.1015 -0.27196,-0.415 -0.18595,-0.3247 0.46853,0.492 0.47467,0.9739 0.69194,0.3385 0.0569,-0.3613 0.17936,-1.2028 0.27813,-1.5015 0.0688,-0.208 0.22127,-0.3802 0.30165,-0.5841 0.95629,-2.4249 1.74266,-4.9338 2.64171,-7.3808 2.50264,-6.7535 4.32136,-13.7296 5.80887,-20.768 1.1692,-6.6877 4.0081,-12.866 6.99083,-18.906 3.98102,-8.2393 7.69133,-16.6236 11.07347,-25.1277 3.34986,-8.4292 5.05904,-17.3393 6.99058,-26.1637 1.60944,-7.2073 3.57336,-14.3322 5.05727,-21.5679 0.0789,-0.3849 1.72543,-9.0946 1.89294,-9.98 1.33723,-7.4762 3.30753,-14.8145 5.03989,-22.2031 1.22721,-4.8284 2.30058,-9.7041 3.63572,-14.5046 0.66863,-2.287 1.15091,-4.6146 1.5349,-6.9635 2.18651,-13.972 -17.57299,-17.0642 -19.75951,-3.0921 v 0 c -0.2272,1.6111 -0.62079,3.189 -1.06018,4.755 -1.37727,5.0542 -2.55548,10.1641 -3.82429,15.2458 -1.79274,7.6689 -3.83926,15.284 -5.21793,23.0446 -0.59391,3.1392 -1.13985,6.2878 -1.77826,9.4182 -1.47617,7.2383 -3.46573,14.359 -5.05802,21.5712 -1.70002,7.7667 -3.13377,15.6279 -6.04221,23.0614 -3.17605,8.0189 -6.6894,15.9148 -10.43286,23.683 -3.69435,7.5438 -7.1151,15.286 -8.61343,23.6096 -1.27815,6.0998 -2.84713,12.146 -5.01341,17.9975 -2.13751,5.8306 -4.6896,11.7024 -4.37454,18.0441 0.1283,1.0729 0.17828,2.1581 0.38494,3.2188 0.6948,3.5658 2.46185,6.7209 4.89413,9.3779 1.92318,2.4296 4.56105,5.8003 7.96473,6.0682 6.25213,0.492 9.05849,-1.0916 12.22251,-5.3246 1.50296,-2.5596 2.68113,-5.2512 3.69927,-8.0381 1.22108,-3.1126 2.17892,-6.3155 3.10142,-9.5281 0.99555,-3.2901 2.04353,-6.5709 2.83421,-9.9174 0.7443,-3.573 1.49773,-7.1435 2.34133,-10.6947 1.20258,-4.8391 2.62773,-9.6061 3.92935,-14.4199 1.18618,-4.4835 2.80408,-8.8305 4.35663,-13.198 1.62983,-4.4648 2.89184,-9.0363 4.41725,-13.5367 1.75736,-4.9504 3.63288,-9.857 5.47917,-14.7743 2.10556,-5.1919 4.08419,-10.4372 6.09344,-15.6656 1.48214,-4.4076 2.8839,-8.8388 4.60518,-13.1626 1.53132,-4.3033 3.00505,-8.6383 4.1585,-13.0599 1.16441,-4.1693 2.31259,-8.3427 3.37614,-12.5391 1.11051,-4.1855 2.14373,-8.3855 2.93473,-12.6449 0.72369,-4.1552 1.31919,-8.3309 1.87489,-12.5115 0.474,-3.8273 1.44492,-7.5545 2.35749,-11.2967 1.13837,-4.3883 1.88233,-8.8362 2.59324,-13.3116 0.92958,-4.904 1.96289,-9.7862 2.75309,-14.7153 0.51486,-3.2616 1.02749,-6.5257 1.44971,-9.8 0.55287,-3.8991 1.44158,-7.7461 1.83274,-11.6693 0.4985,-3.5391 1.1294,-7.0599 1.56459,-10.6088 0.36369,-4.6024 0.2255,-9.2121 0.24101,-13.8272 0,-4.8178 0,-9.6356 0,-14.4534 0,-14.1422 -20.00002,-14.1422 -20.00002,0 z" /><path
         style="fill:#ba3737;fill-opacity:1;stroke-width:1;paint-order:markers stroke fill"
         id="path4019"
         d="m 667.12554,1258.7991 c 2.26272,-4.478 4.17346,-9.1243 6.2216,-13.706 2.44652,-4.5805 4.28821,-9.4047 5.98143,-14.3018 1.81264,-4.441 3.35582,-8.9762 4.75552,-13.5618 0.21108,-0.6968 0.39169,-1.4036 0.6332,-2.0906 0.44685,-1.271 1.04069,-2.4857 1.53112,-3.7406 0.96776,-2.4761 1.80864,-4.9765 2.61257,-7.5096 1.18118,-4.014 1.9748,-8.1257 2.86391,-12.2105 0.31726,-2.2648 1.17633,-4.3673 2.03176,-6.4682 1.25058,-3.2293 2.48928,-6.4685 3.5606,-9.7622 0.70461,-2.2898 1.62364,-4.4955 2.73373,-6.6152 6.36116,-12.6307 -11.50141,-21.6268 -17.86258,-8.996 v 0 c -1.52119,3.0857 -2.932,6.219 -3.92208,9.5233 -0.87561,2.8275 -2.01205,5.5734 -3.04797,8.3447 -1.27137,3.1536 -2.47854,6.3497 -3.03601,9.7205 -0.75838,3.4851 -1.43651,6.9917 -2.38967,10.4304 -1.44407,4.581 -3.36232,8.9752 -4.83888,13.5404 -1.32628,4.3542 -2.82162,8.6448 -4.52927,12.8657 -0.66858,1.9378 -1.25754,3.962 -2.06383,5.8481 -0.99065,2.3175 -2.26764,4.5127 -3.27335,6.8238 -1.6719,3.7426 -3.37029,7.4716 -4.92178,11.2656 -7.49532,11.9925 9.46465,22.5925 16.95998,10.6 z" /><path
         style="fill:#d06161;fill-opacity:1;stroke-width:1;paint-order:markers stroke fill"
         id="path4271"
         d="m 1028.744,456.20765 c -0.058,7.84037 -2.3114,15.16552 -4.3403,22.65524 -3.2679,10.9914 -6.7962,21.88559 -9.3215,33.0777 -2.3578,12.10554 -2.3744,24.46608 -3.3046,36.72298 -0.9325,10.98902 -1.4021,22.00164 -1.6149,33.02526 -0.5118,13.57958 0.2337,27.12834 0.9731,40.68136 0.1672,16.75061 3.2801,33.0531 7.595,49.16617 5.546,18.21092 11.6842,36.19595 18.6861,53.89594 7.1611,19.05651 16.4014,37.1225 25.7838,55.14335 8.4931,16.29965 16.4913,32.90453 23.4121,49.93777 5.6606,15.98224 14.1738,30.65589 22.4412,45.37509 9.0055,16.86933 17.67,33.88482 25.6232,51.27307 6.4539,16.47997 15.3321,31.71058 24.7602,46.62012 8.967,13.3491 17.3318,27.0711 26.2896,40.4295 7.1017,10.3848 14.1093,20.9179 22.3087,30.4912 6.7893,7.927 11.9022,12.9886 19.0829,20.3966 15.3591,14.8385 29.4507,30.9974 45.777,44.8227 4.6279,3.919 9.4605,7.5899 14.1908,11.3849 33.9926,26.0362 70.8521,47.9176 107.6113,69.7406 17.0825,10.3861 35.2047,18.9161 52.5089,28.8898 10.7466,7.4378 21.7678,14.4241 32.9799,21.1369 13.9001,7.3229 26.7017,16.4406 40.2235,24.3985 10.5277,5.4311 20.7286,11.3785 30.6605,17.8208 15.4914,9.4935 30.7691,19.3269 46.264,28.8187 18.7445,11.7205 38.6843,21.4632 59.183,29.6893 14.4248,6.2867 28.5487,13.0462 43.4019,18.3098 1.8591,0.6996 3.7408,1.3419 5.5774,2.0989 5.8415,2.4075 11.4775,5.2192 17.3974,7.4705 7.4216,2.8223 10.1864,3.6347 17.6517,6.0819 2.2173,0.7457 4.4346,1.4913 6.6518,2.237 53.6221,18.0188 79.1045,-57.8143 25.4824,-75.833 v 0 c -2.4483,-0.8222 -4.8966,-1.6443 -7.3449,-2.4664 -13.2777,-4.294 -25.9631,-9.8489 -38.891,-15.0636 -13.909,-4.828 -26.8615,-11.7364 -40.5081,-17.2297 -16.3016,-6.2918 -31.9631,-14.3578 -46.8281,-23.5222 -14.9108,-9.1245 -29.6056,-18.591 -44.5134,-27.7154 -11.0106,-7.1371 -22.2633,-13.8544 -33.9483,-19.8418 -13.3377,-7.6131 -25.6606,-16.9365 -39.3879,-23.9053 -11.655,-6.9668 -22.9273,-14.4713 -34.2869,-21.9021 -16.9934,-9.6917 -34.6213,-18.2408 -51.4364,-28.2644 -33.6273,-19.9612 -67.4036,-39.8783 -98.6179,-63.5339 -9.0543,-7.1359 -11.2342,-8.5162 -19.3268,-16.0997 -11.4155,-10.6974 -21.7584,-22.4981 -33.0983,-33.2748 -3.138,-3.2195 -10.8159,-10.99036 -13.9977,-14.63369 -6.817,-7.80556 -12.4655,-16.56123 -18.3325,-25.07126 -8.5678,-12.76495 -16.5398,-25.89749 -25.1275,-38.64631 -7.5197,-11.86736 -14.6475,-23.90127 -19.6108,-37.12019 -8.8768,-19.39335 -18.5335,-38.38472 -28.6254,-57.17559 -6.6796,-11.88357 -13.7654,-23.62819 -18.1928,-36.60201 -7.9585,-19.20401 -16.7632,-38.07155 -26.447,-56.46822 -8.1175,-15.58922 -16.2464,-31.13738 -22.3655,-47.66275 -5.9213,-14.92155 -11.0674,-30.08096 -15.8604,-45.40457 -1.2625,-4.54723 -2.86,-9.30203 -3.5033,-14.0073 -0.8388,-6.13529 -1.039,-12.37409 -1.4123,-18.5451 -0.6335,-11.60042 -1.3661,-23.18599 -0.8684,-34.81154 0.1748,-9.51389 0.5856,-19.01646 1.4011,-28.49973 0.6472,-8.57822 0.9313,-17.17352 1.701,-25.73766 1.9659,-9.95945 5.9197,-19.42481 8.3911,-29.25866 3.8335,-14.25395 7.1024,-28.64022 7.1023,-43.49477 0,-56.56853 -80,-56.56853 -80,0 z" /><path
         style="fill:#d06161;fill-opacity:1;stroke-width:1;paint-order:markers stroke fill"
         id="path4275"
         d="m 1070.839,409.99497 c -0.2409,11.98652 0.436,24.00699 -0.2373,35.98053 -1.0148,13.04472 -1.4931,26.12017 -1.8255,39.19728 -0.8934,12.03044 -1.6981,24.06131 -2.1754,36.11631 -0.3531,10.35579 -0.4277,20.71769 -0.4538,31.07851 -0.011,9.46155 0,18.92311 0.01,28.38466 0.01,10.33185 0.01,20.66369 0.01,30.99554 -0.4108,14.46207 0.4197,28.84927 1.9574,43.22384 2.1818,15.95647 4.2802,31.92627 6.5715,47.86776 3.0238,18.87577 10.2807,36.58198 15.8923,54.74046 2.5234,9.01824 3.7444,18.3306 5.5023,27.51529 2.033,10.86639 6.9136,20.8149 10.6942,31.10667 4.5918,12.50971 10.2994,24.64482 15.9252,36.73176 6.4045,13.49274 14.4237,26.12747 22.7037,38.52751 5.5091,7.75454 10.4714,15.87667 15.3311,24.04957 8.1124,13.96103 17.5348,27.04777 27.6586,39.60122 9.9434,12.42681 20.4864,24.34534 30.6271,36.60886 9.2286,10.98276 18.7521,21.70296 28.0289,32.64686 6.2564,6.8071 11.9236,14.3102 18.6817,20.6556 5.1074,4.7954 6.9358,6.0656 12.0593,10.0633 7.2047,5.6443 14.675,10.9247 21.9751,16.4419 15.9699,11.2792 32.5173,21.8132 49.4766,31.5448 17.0706,8.9658 34.3229,17.6115 51.9406,25.4535 11.3095,5.4578 22.0808,11.9018 33.0632,17.9722 16.598,8.5265 34.054,15.2229 51.0599,22.8843 10.1219,4.6983 20.2779,9.132 29.6822,15.1662 11.0482,6.4157 21.1518,14.2313 31.6444,21.4821 12.9677,9.4222 25.897,18.928 38.6776,28.609 17.0215,12.6692 34.5855,24.6347 52.4026,36.1571 15.0037,9.2335 30.943,17.0015 47.0092,24.2101 12.2026,5.0029 23.623,11.7781 34.6405,18.982 12.1713,7.8068 24.766,14.8646 37.8048,21.1058 11.6832,4.9951 23.7718,9.0443 35.9297,12.7214 5.1911,1.358 3.5173,0.4957 5.4375,1.5302 53.8282,17.3931 78.4258,-58.7315 24.5975,-76.1246 v 0 c -5.8553,-1.7984 -3.4634,-1.1904 -7.1138,-2.0517 -8.2915,-2.43 -16.4585,-5.3295 -24.5499,-8.3488 -9.9676,-4.665 -19.4615,-10.195 -28.7612,-16.0725 -14.6351,-9.3511 -29.6189,-18.3325 -45.7235,-24.9483 -12.3132,-5.2455 -24.3263,-11.5056 -35.889,-18.2198 -16.1918,-10.4248 -32.1106,-21.325 -47.5826,-32.7891 -13.7563,-10.3574 -27.594,-20.6245 -41.5628,-30.6881 -11.4052,-7.78 -22.3139,-16.3048 -34.2932,-23.2264 -12.6307,-7.8903 -25.9345,-14.3814 -39.5249,-20.4501 -15.0189,-6.75 -30.3499,-12.8198 -45.1865,-19.9462 -13.0456,-7.2098 -25.8546,-14.859 -39.403,-21.1184 -15.1994,-6.6601 -29.9595,-14.2862 -44.7369,-21.8227 -14.0271,-7.8852 -27.5348,-16.7536 -40.8039,-25.835 -7.0535,-5.3308 -14.2675,-10.43246 -21.2352,-15.87595 -1.1582,-0.8845 -2.4969,-1.53003 -3.5939,-2.48933 -5.6271,-4.92098 -9.916,-11.36142 -15.0978,-16.70299 -9.0678,-10.69646 -18.3643,-21.18431 -27.4045,-31.90099 -10.0355,-12.13297 -20.461,-23.92905 -30.3064,-36.21876 -7.8245,-9.3785 -14.6993,-19.46122 -20.9139,-29.97462 -5.5772,-9.33463 -11.2567,-18.62741 -17.5222,-27.51918 -6.0532,-9.05761 -12.0645,-18.1996 -16.7857,-28.03565 -2.9063,-6.14166 -5.5018,-12.41136 -8.3773,-18.56769 -0.957,-2.04875 -2.161,-3.98798 -2.9645,-6.10161 -0.7664,-2.01618 -1.3916,-4.08323 -2.0874,-6.12484 -2.3137,-6.12783 -4.9788,-12.14162 -7.0938,-18.32604 -2.3768,-12.01915 -3.8981,-24.24195 -7.6228,-35.96188 -4.4066,-14.19429 -9.9726,-28.03914 -13.1434,-42.58998 -2.2133,-14.96121 -4.0728,-29.978 -6.2016,-44.9513 -1.265,-11.52012 -1.8817,-23.02611 -1.4931,-34.62303 0,-10.3454 0,-20.69076 -0.01,-31.03616 -0.01,-9.37979 -0.018,-18.75962 -0.01,-28.13941 0.023,-9.38176 0.084,-18.76447 0.3925,-28.14201 0.4819,-12.42843 1.4556,-24.81985 2.2114,-37.23272 0.3136,-12.52152 0.8059,-25.03734 1.766,-37.52829 0.5387,-13.21636 0.2672,-26.44243 0.3223,-39.668 0,-56.56855 -80,-56.56855 -80,0 z" /><path
         style="fill:#d06161;fill-opacity:1;stroke-width:1;paint-order:markers stroke fill"
         id="path4277"
         d="m 1187.7694,321.12786 c 0,15.15133 0,30.30267 0,45.45401 -0.2448,18.7629 0.5406,37.51985 1.7784,56.23774 1.3713,16.96329 4.1891,33.74435 7.7943,50.36095 2.6859,11.59939 5.9684,23.01616 9.5906,34.35049 5.4101,11.75657 10.0403,23.82901 15.2302,35.68266 4.2585,10.932 9.8038,21.28456 14.6588,31.94933 3.764,9.68968 7.6504,19.33083 11.0022,29.1727 5.0289,11.51458 9.2946,23.27886 13.1788,35.21524 4.7343,12.70818 10.1661,25.13746 15.907,37.41833 4.2853,11.21942 9.0616,22.2527 14.1357,33.13922 7.1406,13.92881 15.1906,27.40803 23.5453,40.64111 6.3245,10.41757 12.2862,21.01596 18.8267,31.31116 11.2555,17.92637 25.2384,34.10215 39.5745,49.62057 11.6161,12.0818 23.461,23.95635 34.7965,36.30438 9.144,11.66754 18.4724,23.13257 28.3656,34.17731 9.0973,10.42726 19.4846,19.56546 29.5468,29.02294 10.7338,10.31267 22.8114,18.91086 35.2122,27.06696 15.8273,9.44671 32.1397,18.0585 48.4168,26.69865 14.7003,8.2695 30.0756,15.28299 44.7629,23.56549 13.4912,7.2306 25.2096,17.0398 37.3925,26.177 9.5973,6.6713 19.0253,13.5804 28.3723,20.5983 8.5009,5.4805 15.9175,12.2863 23.6461,18.7445 17.1077,12.6076 35.7503,23.0218 54.414,33.1254 13.9557,7.2181 26.8996,16.1808 40.2775,24.3884 10.7378,6.9102 22.0358,12.8794 33.2756,18.9178 0.4247,0.281 0.8743,0.5276 1.2741,0.8429 0.095,0.075 0.3031,0.2738 0.1879,0.31 -0.2024,0.064 -0.7685,-0.3191 -0.6111,-0.1771 4.9922,4.5069 10.4771,8.367 15.8168,12.4352 11.1112,8.9397 22.8188,17.1015 34.687,24.9965 5.5769,3.4583 11.1787,6.873 16.9573,9.9861 1.6473,0.8875 3.335,1.6987 4.9791,2.592 0.6411,0.3483 2.5432,1.4212 1.8737,1.1313 -0.9156,-0.3964 -1.7445,-0.9687 -2.6167,-1.453 -0.2739,-0.1678 -0.6271,-0.7591 -0.8215,-0.5034 -0.2008,0.264 0.3803,0.5455 0.6014,0.7928 1.0061,1.1253 2.0038,2.261 3.0773,3.3221 5.4837,5.4205 11.6362,9.4354 18.4214,13.0276 4.433,2.3437 1.9704,1.076 7.4072,3.7651 50.7961,24.8949 86.0028,-46.9416 35.2067,-71.8365 v 0 c -3.5577,-1.7125 -1.5425,-0.7081 -6.0182,-3.0676 -2.6343,-1.1599 -0.7243,-0.428 2.6545,2.5413 0.2744,0.2411 0.9914,1.0569 0.6889,0.8522 -3.9784,-2.6917 -5.8077,-8.7181 -10.4044,-10.6836 -2.7285,-2.0109 -5.3723,-4.1421 -8.1856,-6.0326 -6.1916,-4.1608 -13.4536,-6.6532 -19.5207,-11.0482 -10.4673,-6.9588 -20.8046,-14.1378 -30.568,-22.0653 -3.2045,-2.4325 -6.6683,-4.7085 -9.7403,-7.3199 -5.5772,-4.7409 -10.9312,-9.6631 -17.577,-12.9305 -9.8874,-5.2725 -19.8067,-10.5229 -29.232,-16.5981 -14.6441,-8.9707 -28.815,-18.7618 -44.1223,-26.6013 -14.028,-7.5254 -27.8349,-15.5159 -41.1887,-24.1847 -8.8014,-7.2938 -17.2664,-15.00565 -26.8632,-21.28681 -9.3661,-7.00865 -18.77,-13.97547 -28.3994,-20.61863 -15.0638,-11.25678 -29.7165,-23.12927 -46.3916,-32.01662 -15.2416,-8.42997 -30.9586,-15.95835 -46.2197,-24.35786 -14.0845,-7.46845 -28.1453,-14.98944 -41.9906,-22.89471 -8.553,-5.60922 -16.9926,-11.33745 -24.355,-18.50602 -8.41,-7.8981 -17.156,-15.44712 -24.776,-24.14125 -10.1466,-11.28828 -19.3787,-23.25187 -29.0572,-34.9383 -11.4557,-12.41566 -23.2979,-24.47124 -35.063,-36.59243 -6.8912,-7.34719 -13.2303,-14.89988 -19.5345,-22.7561 -2.5944,-3.2331 -5.4395,-6.2856 -7.7382,-9.73519 -1.2029,-1.80509 -2.2482,-3.7103 -3.3723,-5.56543 -6.5411,-10.28938 -12.409,-20.93433 -18.8199,-31.30039 -6.6101,-10.30891 -12.7644,-20.94323 -18.6306,-31.68933 -5.1448,-10.8953 -9.631,-22.06763 -14.1728,-33.21825 -4.3815,-9.2501 -8.3814,-18.67043 -12.2374,-28.149 -4.0065,-12.31138 -8.1725,-24.57772 -13.5641,-36.36936 -4.239,-12.33545 -9.005,-24.48343 -13.946,-36.55372 -4.7357,-10.30835 -10.0436,-20.35265 -14.197,-30.92098 -4.0807,-9.17173 -7.0281,-19.28974 -12.2353,-27.78027 -2.8574,-8.93559 -5.4932,-17.91142 -7.6327,-27.05447 -2.8077,-12.7568 -4.9881,-25.63968 -6.1332,-38.66171 -1.1602,-16.9301 -1.8208,-33.90106 -1.5984,-50.8731 0,-15.15134 0,-30.30268 0,-45.45401 0,-56.56855 -80,-56.56855 -80,0 z" /><path
         style="fill:#d06161;fill-opacity:1;stroke-width:1;paint-order:markers stroke fill"
         id="path4279"
         d="m 1978.1694,1139.5257 c -18.6417,-9.7049 -36.3748,-20.9951 -55.1184,-30.4886 -23.778,-10.7031 -46.5902,-23.3545 -70.0831,-34.6405 -14.7181,-7.5886 -29.9761,-14.1784 -44.3707,-22.377 -8.3612,-5.362 -16.7854,-10.7612 -23.9871,-17.6456 -13.1526,-12.0069 -29.9278,-18.5067 -45.2556,-27.125 -9.7988,-4.93 -19.5035,-9.84904 -28.3889,-16.28801 -7.7008,-8.45617 -18.3789,-16.46574 -28.07,-23.58335 -12.4402,-8.15057 -24.3837,-16.97149 -36.1856,-26.00571 -10.4715,-8.00883 -20.3005,-16.77903 -30.4132,-25.22416 -15.6298,-12.84038 -32.1278,-24.60424 -47.3201,-37.97114 -11.5337,-9.46669 -22.3329,-19.74067 -33.0055,-30.1542 -12.4849,-12.334 -26.242,-23.23816 -39.196,-35.05525 -8.3545,-8.2115 -15.4232,-17.7369 -21.2686,-27.86766 -6.2954,-11.18566 -12.0578,-22.76684 -16.8434,-34.68712 -4.7085,-13.60217 -9.0892,-27.28925 -14.2566,-40.73794 -7.3169,-16.87902 -15.0853,-33.58327 -23.5767,-49.90441 -5.4284,-10.33579 -10.4531,-20.86954 -17.0644,-30.53297 -2.7548,-4.02659 -7.4348,-10.0306 -10.5758,-14.11761 -7.1134,-7.46573 -8.5525,-12.43622 -12.4341,-21.43626 -6.9923,-17.95295 -12.8795,-36.3252 -19.3232,-54.48826 -7.6739,-22.54041 -16.7153,-44.53684 -25.6473,-66.59552 -6.776,-16.22838 -12.3283,-32.9152 -19.0173,-49.17665 -6.681,-14.94186 -14.1192,-29.55308 -20.2118,-44.75305 -3.8258,-10.16876 -8.1894,-20.2424 -11.165,-30.70886 -2.6848,-10.4566 -4.9322,-20.9572 -8.0872,-31.28878 -4.4173,-11.10684 -8.3144,-22.38597 -10.2053,-34.21102 -1.6755,-9.03433 -1.8745,-18.43484 -4.1595,-27.36153 -0.7183,-2.80626 -1.6956,-5.53978 -2.5434,-8.30967 -1.7175,-3.32312 -3.435,-6.64624 -5.1525,-9.96936 -30.1976,-47.83418 -97.8453,-5.12841 -67.6478,42.70577 v 0 c -0.8463,-1.94312 -1.6927,-3.88625 -2.539,-5.82935 -0.1659,-0.8608 -0.393,-1.71204 -0.4979,-2.58236 -0.049,-0.40405 0.2625,0.77428 0.3283,1.17586 0.8709,5.31117 1.5397,10.68163 2.3007,16.01044 0.3795,2.65814 0.7422,5.31865 1.1134,7.97798 2.8406,15.51821 6.9056,30.75004 12.993,45.34265 1.6147,3.58511 0.6418,1.08641 2.0274,7.36166 1.6286,7.37653 3.3633,14.74087 5.4543,22.00095 3.9438,12.81782 8.7241,25.38082 13.6799,37.83706 6.2819,15.28662 13.3552,30.22148 20.385,45.1752 6.6846,16.04838 11.9575,32.6404 18.7946,48.63245 8.4954,20.97426 17.1436,41.866 24.4016,63.31463 7.0366,19.83383 13.3974,39.92393 21.2687,59.44243 1.3735,3.17934 5.7556,13.38112 6.8035,15.48728 4.1557,8.35279 9.8102,15.81425 15.6698,23.02158 3.2004,4.15666 6.7306,8.22283 9.467,12.71717 2.7993,4.59775 4.374,8.14195 6.9132,13.05875 1.245,2.41062 2.5297,4.80049 3.7946,7.20074 7.1881,13.61633 13.5082,27.68037 19.8557,41.70312 5.4496,13.90285 9.5671,28.21242 14.8308,42.17853 6.4743,15.6052 13.7885,30.91955 22.2819,45.5305 10.1739,16.60494 21.6337,32.52449 35.9821,45.82652 12.2992,11.1887 25.2826,21.58556 37.2088,33.18219 11.7024,11.41005 23.5572,22.66157 36.1663,33.0753 15.7444,13.73375 32.5295,26.16954 48.8138,39.24686 10.9797,9.11884 21.61,18.65249 32.9916,27.28348 12.338,9.4435 24.7999,18.712 37.8126,27.2187 4.8457,3.4496 9.6004,7.0177 14.0907,10.9281 3.0617,2.6665 5.7548,5.7347 8.7842,8.4379 1.745,1.557 3.639,2.9385 5.4585,4.4077 11.3955,8.1657 23.4802,15.0964 36.1034,21.197 9.858,5.4825 20.1786,10.2084 29.8581,15.9268 11.9949,10.9871 25.2452,20.4321 39.2223,28.7528 15.9862,8.901 32.6191,16.5546 48.9651,24.7659 23.1457,11.0733 45.5568,23.6307 68.9942,34.1082 18.002,8.723 34.5496,20.2237 52.4877,29.1164 49.6613,27.088 87.9694,-43.1437 38.3082,-70.2317 z" /><path
         style="fill:#ba3737;fill-opacity:1;stroke-width:1;paint-order:markers stroke fill"
         id="path4285"
         d="m 1855.6851,1181.7177 c -8.6236,8.3583 -17.0497,16.9175 -25.884,25.0569 -5.6142,4.7929 -10.7215,10.123 -15.8834,15.3855 -0.1879,0.1916 -4.012,4.4748 -5.2011,4.8385 4.8367,-3.9838 9.6504,-6.2667 15.7275,-7.1017 0.8811,-0.1211 1.2645,0.1891 1.6375,-0.4495 -0.9222,-0.418 -1.8725,-0.7789 -2.7666,-1.2543 -1.8145,-0.9646 -3.4855,-2.1794 -5.2645,-3.2081 -5.4116,-3.1292 -10.8553,-6.1995 -16.2609,-9.3392 -23.0018,-12.7299 -47.569,-22.3742 -71.856,-32.3387 -17.1608,-6.9151 -34.0779,-14.3898 -50.3758,-23.1535 -0.8363,-0.5662 -1.7045,-1.0878 -2.5088,-1.6985 -3.6493,-2.7709 -5.3266,-4.5929 -9.7043,-7.5376 -5.909,-3.9748 -11.2112,-6.9921 -17.3362,-10.6163 -2.9918,-1.7021 -5.9831,-3.405 -8.9753,-5.1063 -5.4139,-3.0781 -10.6212,-6.117 -16.1861,-8.9278 -7.5712,-3.8243 -15.4063,-7.0822 -23.1063,-10.63 -9.854,-4.9807 -20.0331,-9.6261 -29.3276,-15.6222 -10.848,-7.7491 -22.5079,-14.3013 -34.0583,-20.9331 -13.1532,-7.8016 -25.672,-16.6011 -38.5183,-24.8853 -10.9951,-6.1489 -20.0323,-14.6494 -29.0507,-23.2895 -14.8054,-14.1841 -5.4011,-5.2294 -20.4466,-19.4968 -3.3553,-3.10986 -6.6869,-6.24549 -10.0661,-9.32947 -6.5877,-6.01239 -12.1263,-11.01434 -19.1636,-16.50624 -9.9708,-7.78114 -20.5095,-14.87628 -30.9189,-22.04776 -13.837,-9.26084 -27.1341,-19.28405 -40.719,-28.90033 -10.1415,-6.44165 -19.0907,-14.31219 -27.648,-22.6759 -7.5013,-8.19322 -12.6062,-18.18257 -17.711,-27.95397 -4.8153,-10.29833 -10.4297,-20.07357 -16.8943,-29.41955 -5.9861,-8.04236 -9.9889,-17.23456 -14.4545,-26.14539 -1.2184,-2.26465 -2.3942,-4.55266 -3.655,-6.79394 -3.4341,-6.10471 -5.418,-9.25724 -9.5758,-15.16523 -3.9583,-5.62441 -8.3664,-10.88141 -12.2014,-16.58985 -6.0304,-9.91391 -12.1543,-19.81608 -17.4777,-30.13739 -4.8348,-10.70944 -9.2853,-21.56709 -14.2089,-32.24382 -4.4031,-9.85052 -8.2369,-19.95765 -12.0066,-30.0664 -4.1338,-11.22585 -8.9264,-22.16571 -14.1075,-32.94039 -1.5204,-3.21866 -2.4154,-5.48952 -2.9633,-9.01382 -1.5766,-7.53907 -3.6375,-14.95772 -5.393,-22.45723 -2.9924,-10.10314 -6.6297,-19.99837 -9.8395,-30.03052 -2.2414,-7.48599 -5.3536,-14.67723 -7.595,-22.16082 -1.3456,-5.08468 -1.8955,-10.29962 -2.5756,-15.49886 -1.1764,-9.32855 -2.2216,-18.6731 -3.5985,-27.97509 -0.7632,-7.34086 -2.3392,-14.49721 -4.5869,-21.52396 -3.9102,-12.22443 -0.7092,-0.90458 -2.5907,-7.6971 -1.5776,-6.9515 -2.6087,-14.00913 -4.0848,-20.98518 -1.09,-5.39862 -1.3043,-10.9137 -1.5105,-16.40118 -0.1771,-5.74665 -0.1885,-11.49639 -0.1861,-17.24517 0,-3.03713 0.01,-6.07425 0.014,-9.11135 0,-0.94896 0.1042,-3.79045 0,-2.84681 -1.0168,9.58752 0.558,1.85113 -1.0856,8.96934 10.0719,1.90297 -7.062,6.54545 -4.5724,8.65413 0.7189,0.60886 1.3619,-1.30262 2.0659,-1.9286 1.9529,-1.73638 4.0785,-3.23321 6.1952,-4.75885 9.0773,-5.34556 17.974,-10.96817 26.7701,-16.7713 5.1045,-4.17111 10.6746,-7.27925 16.5498,-10.13952 -12.9258,5.48124 -15.1424,7.46138 -36.9246,-2.39358 -6.4024,-2.89666 -9.3537,-10.50158 -13.6963,-16.02632 -0.6688,-0.85085 -0.2475,-2.59863 -1.2548,-2.99442 -0.7866,-0.30909 0.053,1.68955 0.083,2.53418 0.061,1.68508 0.127,3.36994 0.1905,5.05492 0.3449,13.02363 0.8984,26.04875 1.6595,39.05527 1.0502,16.00237 4.4514,31.71656 7.5417,47.41537 2.1309,9.41973 3.972,18.85244 5.2928,28.41477 2.5003,14.67205 6.4991,29.04445 11.1581,43.1636 3.7439,11.38489 7.0966,22.8754 11.1471,34.1589 5.9111,18.03974 14.2102,35.03451 23.2686,51.66322 6.82,12.13324 13.0216,24.56167 20.1982,36.49115 7.64,11.95041 15.6015,23.66658 22.7839,35.90565 5.5877,9.94982 12.1155,19.3294 17.4864,29.40169 4.4365,8.84338 9.1265,17.54672 14.015,26.14692 5.8557,10.16146 11.5552,20.41189 17.4135,30.57176 7.8915,13.03181 16.4458,25.48702 25.7955,37.50903 10.596,12.86271 21.8381,25.19809 33.067,37.51225 11.2778,11.66048 22.6257,23.26907 34.5204,34.30222 11.8999,10.91147 24.0869,21.49819 36.3424,32.0057 8.4983,7.2318 16.025,15.53977 23.725,23.60149 8.1896,8.22203 16.4125,16.42057 25.0803,24.13862 11.0516,9.77893 23.4813,17.74623 36.1168,25.28413 11.2384,7.4885 22.6855,14.7005 33.702,22.514 14.5464,10.4299 28.2577,21.9614 42.5244,32.7733 17.9005,13.3691 36.5244,25.7706 55.6567,37.3022 5.6253,3.2803 11.5774,6.0369 17.0304,9.6181 4.2147,2.7679 8.2486,5.8738 12.4497,8.6773 12.7903,7.7208 25.7729,15.144 38.9532,22.1836 9.1451,4.9836 18.2625,10.0213 26.8897,15.8653 11.3727,7.9971 22.8792,15.7855 34.7607,23.0074 15.6601,9.5028 32.3704,17.0796 48.3166,26.0864 6.8676,4.0737 13.988,7.6989 20.8427,11.7943 1.1078,0.6619 4.2556,2.9025 3.2766,2.0617 -16.7162,-14.3574 -1.6452,11.2951 -15.8836,-40.2863 7.5891,-8.8508 15.1782,-17.7016 22.7672,-26.5524 2.1552,-0.6657 4.7646,-0.5158 6.4655,-1.9972 0.8765,-0.7634 -2.2862,-0.4216 -3.4258,-0.6502 -2.2544,-0.4521 -4.5183,-0.8635 -6.7561,-1.392 -6.2811,-1.4835 -8.4031,-2.2604 -14.5034,-4.1629 -17.6789,-6.3242 -35.1915,-13.0994 -52.8042,-19.6049 -20.8198,-7.7032 -41.0246,-16.9603 -61.1812,-26.2314 -22.1233,-9.791 -43.4442,-21.1874 -64.0159,-33.8973 -22.0394,-14.1343 -42.0572,-31.0599 -62.4988,-47.3405 -20.6697,-16.4026 -41.3677,-32.73948 -62.6192,-48.38186 -3.1715,-2.28362 -6.3872,-4.5072 -9.5146,-6.8508 -6.3683,-4.77221 -12.5195,-9.82938 -18.8828,-14.6082 -10.295,-7.73158 -20.6427,-15.3674 -31.1784,-22.7661 -3.4864,-2.32955 -6.9803,-4.6478 -10.4591,-6.98863 -4.4445,-2.99061 -14.9393,-10.07332 -19.2532,-13.28189 -10.6058,-7.88824 -20.5349,-16.72638 -30.594,-25.2834 -11.2286,-10.58069 -23.1208,-20.54204 -33.7901,-31.70989 -2.9851,-3.12468 -6.1834,-7.18352 -8.9007,-10.51367 -12.5606,-15.41174 -23.1715,-32.23789 -33.2562,-49.33093 -14.1372,-24.96364 -29.1035,-49.44157 -43.7932,-74.08018 -8.8194,-14.50792 -17.0138,-29.39256 -26.3109,-43.60622 -5.6222,-8.59538 -8.0449,-11.85526 -13.9408,-20.17889 -4.3072,-6.14778 -8.6912,-12.29323 -12.2564,-18.91721 -2.132,-3.96126 -3.8383,-8.18401 -5.6271,-12.30545 -4.3237,-10.14288 -7.9117,-20.57509 -11.9721,-30.82428 -6.0316,-14.68556 -14.0549,-28.42514 -20.3944,-42.96653 -1.6081,-4.52311 -3.5542,-8.9572 -4.8408,-13.59181 -0.6347,-2.28663 -0.6314,-4.9418 -0.8466,-7.27315 -0.6875,-5.63446 -1.1931,-11.28789 -1.6264,-16.9467 -4.3628,-56.40004 -84.1245,-50.23016 -79.7617,6.1699 v 0 c 0.5049,6.47568 1.0743,12.9468 1.8538,19.39621 0.74,6.40553 0.9275,9.291 2.3414,15.80134 2.1553,9.92449 6.0115,19.36469 9.7082,28.78378 6.0527,13.57257 13.1088,26.64031 19.2251,40.1796 4.414,11.05445 8.2048,22.35369 12.9877,33.26095 7.0403,16.07715 15.3192,31.5036 25.9672,45.53088 5.9669,8.39047 11.9333,16.79247 17.3116,25.58029 6.6467,10.86035 12.7847,22.03759 19.469,32.8767 14.6452,24.56143 29.5615,48.96514 43.6566,73.85028 12.2379,20.63158 25.1444,40.91266 40.3871,59.49109 5.9431,7.15502 7.9073,9.7713 14.4888,16.61684 12.0528,12.53635 25.3851,23.80879 38.0952,35.65046 11.9701,10.17606 23.8504,20.47888 36.4843,29.83764 4.6482,3.44326 15.8923,11.04141 20.7934,14.3355 2.995,2.01295 6.0075,3.99976 9.0112,5.99963 19.7829,13.7565 38.5239,28.9163 57.9971,43.0924 1.5538,1.1436 15.7357,11.5712 17.2842,12.7515 14.4801,11.0372 28.4639,22.7204 42.9241,33.7843 22.9833,18.2962 45.5506,37.2421 70.4648,52.9272 23.3549,14.2755 47.3994,27.3489 72.4601,38.4108 22.0322,10.1287 44.1332,20.1984 66.8963,28.5963 19.056,7.0318 37.9755,14.4336 57.1737,21.0765 11.791,3.5429 23.5585,6.9038 35.8017,8.5498 4.2125,0.5663 8.4523,1.2619 12.7007,1.1337 6.115,-0.1847 13.1009,1.2568 18.2365,-2.0678 11.491,-7.4389 19.5606,-19.1549 29.3409,-28.7323 -2.9922,-13.1381 -4.0045,-26.8906 -8.9767,-39.4142 -1.6652,-4.1943 -6.6497,-6.117 -10.2042,-8.8974 -1.7076,-1.3357 -3.6719,-2.3065 -5.5353,-3.4143 -7.1147,-4.2295 -14.4746,-8.021 -21.6029,-12.2271 -11.5428,-6.4658 -8.3764,-4.817 -20.1059,-10.8894 -6.889,-3.5664 -14.0528,-6.8063 -20.7705,-10.7039 -1.7529,-1.017 -3.4561,-2.1172 -5.1842,-3.1759 -10.8702,-6.5613 -21.2859,-13.8108 -31.7055,-21.0599 -10.9122,-7.2564 -22.2366,-13.8253 -33.7946,-20.0024 -10.9321,-5.8038 -21.6304,-12.0326 -32.3358,-18.2382 -10.681,-7.0237 -20.9137,-14.7712 -32.5516,-20.2344 -16.7178,-9.9668 -32.8706,-20.9044 -48.5154,-32.4762 -15.0304,-11.37481 -29.4247,-23.57793 -44.8267,-34.45325 -12.7232,-8.88402 -25.7377,-17.36543 -38.7653,-25.7941 -8.4496,-5.02153 -16.8847,-10.1537 -24.2841,-16.68036 -7.0687,-5.9971 -13.3306,-12.91331 -20.0347,-19.30504 -9.5351,-9.95698 -18.9002,-20.15267 -29.4665,-29.03865 -11.5209,-9.87724 -22.9836,-19.82102 -34.1724,-30.07593 -10.2738,-9.40109 -19.8713,-19.51469 -29.6596,-29.4146 -9.8378,-10.77839 -19.6626,-21.5936 -29.0569,-32.75769 -2.3327,-2.98866 -4.784,-5.88942 -6.9823,-8.97829 -4.4653,-6.27433 -8.2806,-12.99665 -12.631,-19.34814 -5.7796,-10.01048 -11.3869,-20.11955 -17.162,-30.13278 -4.6121,-8.10972 -8.988,-16.34001 -13.1951,-24.66875 -5.9259,-10.86387 -12.6589,-21.2236 -18.8987,-31.90401 -7.3528,-12.47331 -15.3034,-24.54243 -23.2282,-36.65157 -1.6812,-2.77976 -3.4924,-5.48581 -5.0298,-8.3476 -4.4996,-8.37525 -8.5642,-16.99525 -13.4567,-25.16201 -7.1403,-13.04959 -13.7459,-26.31577 -18.2594,-40.54686 -3.8813,-10.61183 -6.8251,-21.51724 -10.4705,-32.21019 -3.1879,-9.45195 -5.8212,-19.09824 -7.8203,-28.87276 -1.5353,-11.06282 -3.5725,-22.00852 -6.0447,-32.90176 -2.3978,-12.16721 -5.1546,-24.33048 -6.175,-36.70925 -0.7659,-12.59157 -1.242,-25.20685 -1.5954,-37.81581 -0.3412,-7.13274 -0.824,-23.31579 -4.0111,-29.1044 -4.3413,-7.8849 -8.0256,-17.43623 -15.8727,-21.8454 -22.7102,-12.76041 -27.9173,-9.14178 -44.0013,-3.3705 -8.7221,4.36695 -17.3215,9.00842 -25.0431,15.02447 -9.895,6.52915 -20.0809,12.55276 -30.0069,19.02333 -7.9101,5.84869 -18.5709,14.06146 -24.2216,22.05664 -2.5833,3.65519 -4.5128,7.73115 -6.7691,11.59672 -0.9461,2.90785 -2.1871,5.73577 -2.8382,8.72355 -1.6803,7.7116 -1.5691,15.34136 -1.4977,23.13884 0,6.81154 0.02,13.62427 0.2485,20.43277 0.414,10.13362 1.1135,20.28306 3.2703,30.22028 2.1006,9.0914 2.8923,18.4749 5.7585,27.39858 0.7007,2.21814 1.3661,4.4477 2.102,6.65441 0.2649,0.79441 0.4799,1.62094 0.8993,2.34571 0.1261,0.21791 -0.061,-0.99285 0.021,-0.75493 1.0268,2.96889 0.8352,6.31994 1.5272,9.33788 1.3187,8.84315 2.2773,17.73354 3.4067,26.60224 1.275,9.7404 2.6631,19.48096 5.5197,28.91301 2.4404,7.70189 5.3222,15.24291 7.8355,22.91942 2.5709,7.92965 5.1612,15.95501 8.0852,23.71532 1.6197,6.91618 3.5073,13.75902 5.0021,20.69928 2.0795,9.37469 4.8336,18.58513 9.1501,27.20351 4.147,8.62425 8.0191,17.35987 11.2983,26.36017 4.4914,11.9281 8.9933,23.87592 14.2679,35.48324 5.4791,11.87765 10.2467,24.04608 15.9636,35.81244 6.9309,13.14003 14.5313,25.93861 22.5029,38.46949 6.7033,9.59663 14.5117,18.47647 19.7835,28.99953 6.2511,12.46108 12.2126,25.12208 20.5716,36.3669 4.3301,5.87121 -0.7909,-1.20248 3.7135,5.48491 0.125,0.18566 0.3623,0.28538 0.4655,0.48406 2.4865,4.78758 4.6177,9.77109 7.2447,14.49054 9.0443,17.23226 18.8831,34.26944 32.7571,48.14147 11.5805,11.25183 23.7434,21.84963 37.298,30.70151 13.8685,9.78225 27.4002,20.04261 41.5257,29.46301 8.5487,5.8808 17.2666,11.6506 25.5027,17.9703 5.8074,4.4561 10.0907,8.3741 15.5754,13.3751 3.1525,2.8744 6.2603,5.7974 9.3905,8.6961 19.438,18.4296 38.039,38.1862 61.2406,52.0021 14.0072,8.9973 27.6045,18.644 42.0124,27.0103 10.8071,6.1933 21.675,12.34 31.8161,19.5977 12.2665,7.4368 25.0142,14.1049 37.9714,20.2563 6.2399,2.8615 12.6773,5.437 18.8212,8.5032 4.842,2.4165 9.6617,5.254 14.3532,7.9178 2.6143,1.4844 5.2293,2.9675 7.844,4.4512 4.3893,2.5811 9.4877,5.0659 13.5865,8.1887 6.4118,4.885 3.2753,3.2387 11.446,8.7402 2.392,1.6105 4.9137,3.0197 7.3705,4.5295 18.7399,10.024 38.1063,18.7502 57.8289,26.6679 19.7371,8.0864 4.5852,1.8163 25.3398,10.5871 12.4102,5.2446 24.9965,10.2083 36.7128,16.9257 11.6384,6.7481 23.166,13.8853 35.5398,19.2035 2.5637,0.918 5.0847,1.9653 7.691,2.7541 12.5516,3.7987 27.254,4.8812 39.7372,0.1273 4.8858,-1.8607 9.2563,-4.8637 13.8844,-7.2956 9.084,-7.4863 16.8388,-16.2723 25.6098,-24.1039 9.5819,-8.8777 18.7969,-18.1279 28.1538,-27.2391 40,-40 -16.5686,-96.5685 -56.5686,-56.5685 z" /><path
         style="fill:#d06161;fill-opacity:1;stroke-width:1;paint-order:markers stroke fill"
         id="path4293"
         d="m 893.00679,1538.6519 c 11.34078,-6.3297 23.2832,-11.386 35.68205,-15.2249 16.87441,-5.4772 34.16109,-9.1357 51.64807,-11.9338 18.1161,-3.379 36.42059,-5.5255 54.74909,-7.3404 23.3807,-3.0787 46.9478,-4.1297 70.4567,-5.7346 27.5405,-1.4954 55.0402,-3.5796 82.5717,-5.2275 27.1627,-1.7108 54.3752,-2.3472 81.5835,-2.7541 16.8905,-0.2438 33.783,-0.2292 50.6747,-0.2241 20.4104,0.015 40.8208,0.025 61.2313,0.03 28.2526,-0.8492 56.5056,-1.8277 84.7262,-3.4363 21.4068,-1.3483 42.822,-2.4467 64.2665,-2.9029 16.253,0.8588 32.454,2.8948 48.5589,5.2222 4.2887,0.746 8.6136,1.2512 12.9131,1.9245 1.3835,0.2167 2.7672,0.4389 4.1381,0.7242 0.5228,0.1088 1.1324,0.1063 1.5355,0.4566 0.3068,0.2667 -0.8167,-0.059 -1.2075,-0.1715 -0.831,-0.2388 -1.6276,-0.5845 -2.4413,-0.8767 -7.1407,-3.1581 -11.6322,-9.5007 -15.0379,-16.1591 -0.4441,-0.8681 -0.4032,-1.9825 -1.0108,-2.7452 -0.285,-0.3575 -0.077,0.9118 -0.086,1.3689 -0.022,1.1259 0,2.2522 -0.01,3.3783 0.9487,2.9513 -3.0513,16.1108 0.075,5.3818 31.8221,-42.0966 0.1172,-3.3736 15.0318,-17.1239 0.2711,-0.2499 -0.7373,-0.062 -1.1054,-0.04 -1.0857,0.064 -2.1645,0.2175 -3.2492,0.2963 -7.0113,0.5092 -4.9119,0.3624 -12.5828,0.2257 -27.9048,-2.2154 -55.7303,-5.5749 -83.5352,-8.8305 -22.3744,-2.4235 -44.4778,-6.7435 -66.7252,-10.0604 -14.0919,-2.1009 -29.076,-4.0486 -43.1934,-5.9354 -31.9716,-3.9556 -63.9662,-7.782 -96.0906,-10.2839 -22.7985,-1.7756 -29.5344,-1.9644 -52.4185,-3.1307 -48.0763,-3.0575 -96.2218,-4.197 -144.3838,-4.4394 -26.514,0.1543 -53.0513,1.0305 -79.4588,3.4778 -11.07013,1.3844 -22.06947,2.9763 -32.85153,5.8955 -6.09462,1.6502 -8.16094,2.5453 -14.19704,4.7294 -11.76276,4.6961 -22.70635,11.0741 -32.83392,18.6369 -4.81827,3.4322 -8.62835,7.9207 -12.59178,12.2371 -0.19669,0.2142 0.76721,-0.8326 0.50197,-0.7134 -0.96938,0.4354 -1.61708,1.3799 -2.45005,2.0397 -5.13008,4.1729 -10.2208,8.4959 -14.36901,13.689 -1.6601,2.0783 -3.96288,3.9443 -4.58624,6.5301 -2.53555,10.5177 -3.15269,21.407 -4.72903,32.1105 7.85008,9.3031 13.65282,20.8232 23.55022,27.9093 7.90554,5.66 25.40826,4.582 35.22252,4.2127 15.11795,-0.5688 30.19293,-1.9384 45.26868,-3.145 20.60321,-1.7763 41.22031,-3.2731 61.88981,-3.9425 -11.3742,-1.746 11.3995,0.3793 8.5748,-0.058 -2.7882,-0.4321 -6.2193,0.7628 -8.4022,-1.0249 -22.5568,-18.4729 -38.7632,-29.1408 -22.5347,-57.9134 -2.9104,1.782 -6.4366,5.6883 -8.3224,7.6951 -5.0933,5.4205 -8.3521,9.5188 -12.3044,16.0997 -1.9195,3.1961 -3.427,6.6223 -5.1405,9.9335 -5.9016,14.2774 -12.00236,29.0051 -13.68289,44.5218 -0.46784,4.3196 -0.38732,8.681 -0.58097,13.0215 0.14756,9.4312 2.06232,18.6146 4.58886,27.6509 0.8686,3.1066 2.1189,6.2228 2.7471,9.3977 0.5421,4.8072 1.0768,9.6215 1.7497,14.4213 1.1289,8.9272 3.5114,17.5817 6.0825,26.1785 3.2494,10.2631 9.0447,18.947 16.3956,26.7069 1.3658,1.4419 6.7515,6.1855 8.486,7.7289 7.3969,6.7924 14.4892,13.8604 22.1684,20.3451 10.2179,9.101 23.0827,13.0777 36.1063,16.0538 10.1745,2.4159 20.6559,2.3853 31.046,2.5019 14.6639,0.3416 29.2958,-1.0335 43.8598,-2.5843 17.1721,-2.1405 33.7608,-7.3264 50.3622,-12.0064 10.5186,-3.2316 21.2678,-5.8402 32.219,-7.0303 11.5772,-1.0682 23.2094,-1.3418 34.8289,-1.5033 13.7517,-0.1011 27.5042,-0.051 41.2562,-0.04 14.0705,-0.4706 28.032,1.409 41.9791,2.9345 11.128,1.3911 22.3457,1.476 33.5226,2.1299 9.0644,0.6638 18.1416,1.105 27.225,1.396 4.8412,-0.6811 9.7825,-0.8505 14.5236,-2.0435 13.4558,-3.386 26.5083,-12.8438 36.5265,-22.1745 2.1593,-2.0111 4.1413,-4.2045 6.2119,-6.3068 7.7933,-9.0884 16.8522,-18.365 20.2582,-30.2321 1.3931,-4.854 1.6998,-9.9558 2.5498,-14.9337 -1.7865,-7.2556 -1.888,-15.1499 -5.3596,-21.7668 -13.6454,-26.0082 -45.9458,-28.6347 -71.2723,-32.2489 -46.6897,-5.8941 -93.6873,-8.5056 -140.6898,-10.1617 -28.547,-0.3529 -57.1265,-0.8355 -85.6711,0.027 -18.027,0.5449 -21.2921,0.9751 -39.2784,2.2857 -32.5536,2.4022 -64.8331,7.505 -96.5827,15.016 -14.6027,3.2802 -28.3106,9.2979 -41.4792,16.2639 -49.765,26.897 -11.7269,97.2753 38.0381,70.3783 v 0 c 6.8705,-3.9324 14.25,-7.041 21.976,-8.8189 27.5698,-6.6214 55.6538,-10.9143 83.9318,-13.0559 15.6068,-1.1667 19.0923,-1.5984 34.783,-2.0811 27.1468,-0.8353 54.3274,-0.3642 81.4773,-0.065 44.2188,1.5446 88.4324,3.965 132.3656,9.433 4.6502,0.6404 9.3027,1.2649 13.9507,1.9212 2.2657,0.3199 4.5295,0.6539 6.7902,1.0076 0.7956,0.1244 2.7237,1.1538 2.3778,0.4267 -0.6271,-1.3184 -2.5149,-1.5746 -3.4551,-2.6914 -11.8456,-14.0716 -8.498,-9.9364 -11.843,-28.9514 2.3473,-9.705 0.9115,-7.6809 4.8989,-14.1937 0.029,-0.047 0.1696,0.043 0.14,0.09 -0.4174,0.6594 -0.9071,1.2709 -1.3895,1.8844 -1.2146,1.5446 -2.973,3.5849 -4.2523,5.0896 -1.0451,1.1881 -2.4427,2.8488 -3.6283,3.918 -0.7537,0.6798 -1.6186,1.2296 -2.3685,1.9135 -0.196,0.1787 -0.711,0.6134 -0.4493,0.6565 3.1168,0.5135 6.3033,-3.6923 9.4606,-0.5459 -8.4516,-0.266 -16.8954,-0.6986 -25.3293,-1.3133 -9.7617,-0.5225 -19.551,-0.6387 -29.2721,-1.7799 -16.8099,-1.8336 -33.6461,-3.8865 -50.598,-3.4076 -14.1525,-0.012 -28.3055,-0.065 -42.4576,0.048 -14.5441,0.2095 -29.1071,0.5943 -43.5835,2.1087 -14.9134,1.9708 -29.6934,4.8655 -44.0561,9.4232 -12.3005,3.4736 -24.5638,7.4124 -37.2,9.4597 -11.4279,1.2477 -22.9172,2.403 -34.427,2.1295 -4.7588,-0.05 -9.62,0.2458 -14.321,-0.5478 -0.6869,-0.1509 -1.3763,-0.2907 -2.0606,-0.4526 -0.9065,-0.2144 -1.7887,-0.5493 -2.7115,-0.6763 -0.2236,-0.031 0.3718,0.2564 0.5604,0.3805 1.4167,0.9326 2.1573,1.3139 3.5017,2.6174 0.4274,0.4145 -0.9598,-0.7047 -1.4397,-1.057 -7.1447,-6.0035 -13.5445,-12.7795 -20.5506,-18.9444 -1.1564,-1.0283 -2.2964,-2.0751 -3.4691,-3.0847 -0.2172,-0.187 -0.8242,-0.7599 -0.6977,-0.5027 1.0233,2.0804 2.6199,3.5063 2.7601,5.9995 -1.4594,-4.8777 -3.0315,-9.6655 -3.5602,-14.7683 -1.1776,-7.4687 -1.3939,-15.0909 -3.3372,-22.436 -1.4854,-5.6492 -3.242,-11.2108 -4.9184,-16.8008 -1.2853,-2.4684 0.5632,-6.9519 1.1919,-9.1394 1.3754,-4.7852 3.1648,-9.4253 4.9813,-14.0561 0.2067,-0.6266 0.4655,-1.2384 0.6201,-1.8799 0.055,-0.2297 -0.1158,-0.5052 0,-0.7089 3.6017,-6.125 11.2814,-9.4952 15.1008,-15.4804 7.9845,-11.1215 17.7248,-21.9209 11.3104,-38.8601 -11.6843,-30.8558 -28.9556,-33.6613 -53.4239,-32.824 -21.9281,0.7219 -43.8051,2.2598 -65.66284,4.1551 -13.94605,1.117 -27.86668,2.1519 -41.83369,2.9441 -1.9876,0.1128 -7.25215,-1.118 -5.95924,0.3959 2.23353,2.615 6.38424,2.5595 9.57636,3.8392 6.15119,8.4503 12.30238,16.9006 18.45357,25.3509 -1.83398,9.6032 -3.20746,19.3058 -5.50193,28.8095 -0.25569,1.0591 -1.32675,1.7324 -2.06515,2.5335 -0.39719,0.431 -1.57443,1.6826 -1.32988,1.1501 0.82368,-1.7938 5.27109,-3.5536 5.86706,-5.0978 2.75156,-2.3263 4.77875,-3.94 7.30853,-6.4326 1.48109,-1.4594 2.91293,-2.9683 4.33999,-4.4805 0.0558,-0.059 0.17243,-0.2579 0.0988,-0.2232 -0.28273,0.1334 -0.45506,0.5349 -0.76766,0.5388 -0.24194,0 0.32676,-0.3568 0.49014,-0.5353 0.82301,-0.6291 1.53681,-1.3997 2.39294,-1.983 3.20263,-2.1819 6.78927,-3.8013 10.2107,-5.5867 2.85559,-1.1336 6.36632,-2.5846 9.3396,-3.2403 5.6886,-1.2545 11.5415,-1.6605 17.2651,-2.7159 23.8001,-2.2405 47.7286,-2.9415 71.6249,-3.1326 46.9435,0.2316 93.8698,1.3442 140.7292,4.3376 21.5653,1.0888 28.0675,1.2714 49.5317,2.9319 30.9041,2.3907 61.6797,6.0893 92.4369,9.881 12.7008,1.6962 28.6293,3.7728 41.354,5.6679 23.2916,3.4688 46.4344,7.9814 69.8627,10.4905 15.7238,1.838 31.4631,3.5066 47.1936,5.2835 10.9732,1.2396 20.2652,2.4645 31.2736,3.3047 4.7482,0.3625 9.5097,0.5228 14.2645,0.7842 11.2257,-0.085 22.269,-0.2113 33.3267,-2.4361 3.4365,-0.6915 6.9074,-1.3563 10.2,-2.5587 4.7716,-1.7426 9.9316,-3.0744 13.9018,-6.2432 6.5996,-5.2674 11.4733,-12.3921 17.2099,-18.5881 1.2092,-3.1476 2.5779,-6.2385 3.6276,-9.4429 3.1529,-9.6253 3.4001,-20.1224 3.6614,-30.1278 -0.1138,-8.6316 -0.041,-17.7241 -2.7993,-26.0302 -4.494,-13.534 -11.5577,-23.1625 -24.1772,-30.147 -2.4057,-1.1192 -4.7492,-2.3833 -7.2172,-3.3578 -10.6293,-4.1971 -22.0968,-5.0725 -33.2656,-6.9006 -20.4236,-2.9012 -40.9683,-5.5636 -61.6115,-6.011 -22.3952,0.4844 -44.7615,1.5999 -67.1173,3.0149 -26.6934,1.5315 -53.4178,2.4184 -80.1394,3.3058 -20.4089,0 -40.8178,-0.015 -61.2267,-0.03 -17.2999,-0.01 -34.6005,-0.018 -51.8991,0.2331 -28.4025,0.4275 -56.8087,1.1044 -85.1636,2.8881 -27.7562,1.6617 -55.4801,3.7615 -83.2453,5.2706 -24.3336,1.6644 -48.7267,2.7742 -72.9297,5.9421 -19.922,1.9935 -39.82294,4.3133 -59.52054,7.9611 -21.49673,3.4698 -42.75407,8.0652 -63.50005,14.7796 -3.89308,1.2844 -7.8201,2.4701 -11.67921,3.8532 -12.91836,4.6302 -25.28636,10.6349 -37.38052,17.0739 -49.80696,26.8191 -11.87899,97.2568 37.92797,70.4377 z" /><path
         style="fill:#ba3737;fill-opacity:1;stroke-width:1;paint-order:markers stroke fill"
         id="path4289"
         d="m 974.96015,1601.1495 c 35.59835,-10.0474 72.19165,-16.1369 108.59745,-22.4463 44.5814,-7.7979 89.8012,-10.1841 134.8889,-13.0791 46.0756,-3.1711 92.2596,-2.9198 138.4012,-1.9202 37.6518,0.623 75.2618,2.7049 112.6708,7.023 25.7235,3.1836 50.8951,9.4339 76.3896,13.9162 5.4265,1.0596 10.9026,1.8413 16.338,2.8503 1.604,0.2977 3.2141,0.579 4.7929,0.9901 0.157,0.041 0.4985,0.3882 0.3416,0.3469 -8.6413,-2.2764 -7.4509,-4.4001 -17.5874,-13.3089 -1.7585,-5.046 -4.1918,-9.9053 -5.2755,-15.1379 -0.5649,-2.7276 0.4033,-5.5608 0.4119,-8.3462 0,-0.3805 -0.1059,-1.3363 -0.3828,-1.0754 -1.3008,1.2249 -2.0717,2.9117 -3.1106,4.3653 -4.9335,6.9028 -2.7316,3.9622 -7.2947,9.816 -3.1976,4.2493 -5.8581,3.4801 -0.01,0.3815 3.871,-2.0497 6.7618,-2.9594 10.4845,-4.2117 -1.7214,-0.3577 -3.4524,-0.6721 -5.1643,-1.0729 -9.6205,-2.2523 -19.1479,-4.8448 -28.8101,-6.9347 -10.1567,-2.1969 -12.8981,-2.606 -23.1979,-4.4794 -28.7232,-4.42 -57.6999,-6.7478 -86.6969,-8.3772 -27.8238,-1.3529 -55.6868,-1.0995 -83.5319,-1.4782 -31.4724,-0.5762 -62.9463,-1.0121 -94.4232,-1.2279 -32.4573,0.1991 -64.8314,2.3934 -97.113,5.6152 -22.7603,2.2846 -45.5376,4.4056 -68.2277,7.3224 -17.3257,2.7935 -34.2631,7.4859 -51.1927,12.0227 -1.647,0.4251 -3.2941,0.8501 -4.9412,1.2752 -54.76954,14.1525 -34.7549,91.6083 20.0147,77.4559 v 0 c 1.8781,-0.4859 3.7563,-0.9718 5.6345,-1.4577 13.4914,-3.6155 26.9746,-7.3623 40.7096,-9.9522 21.9367,-2.8348 43.9657,-4.8322 65.9694,-7.064 29.4523,-2.9565 58.9853,-4.9772 88.599,-5.2193 31.2996,0.2138 62.5962,0.6506 93.8914,1.2224 26.7153,0.3577 53.447,0.1249 80.1436,1.3607 25.7192,1.4312 51.4129,3.468 76.9117,7.2222 9.8158,1.7677 19.5683,3.644 29.2765,5.9423 4.9402,1.1694 18.4162,4.599 22.9431,5.5098 3.9838,0.8014 8.0179,1.3279 12.0268,1.9919 5.1371,0.1342 10.3152,1.0642 15.4112,0.4025 20.5545,-2.6686 32.1863,-12.2934 44.6342,-27.3884 11.3371,-14.7976 27.8746,-35.5957 27.02,-54.9545 -0.3545,-8.0308 -3.6099,-15.6666 -5.4149,-23.4999 -5.7474,-6.0667 -10.8257,-12.8462 -17.2423,-18.2001 -2.9069,-2.4254 -6.7682,-3.4231 -10.3018,-4.7819 -10.1824,-3.9156 -21.3042,-4.4243 -31.8641,-6.73 -27.0518,-4.6956 -53.7337,-11.4809 -81.0635,-14.5917 -39.8669,-4.533 -79.9277,-6.8988 -120.0508,-7.5239 -48.4255,-1.0358 -96.8948,-1.2577 -145.2502,2.0662 -47.9491,3.0805 -96.0242,5.748 -143.4256,14.0901 -37.3649,6.4788 -74.93494,12.7812 -111.56832,22.7554 -3.60572,0.9817 -7.13624,2.2213 -10.70436,3.3319 -53.16275,19.3319 -25.8233,94.5154 27.33945,75.1835 z" /><path
         style="fill:#000000;stroke-width:1;paint-order:markers stroke fill"
         id="path1938"
         d="m 1110.9706,307.75087 c -29.1099,28.36284 -57.9866,56.96024 -87.643,84.75305 -35.81302,32.83954 -71.53227,65.77567 -106.80326,99.19736 -30.46719,27.60951 -61.13317,54.99296 -91.27952,82.95475 -23.93479,22.58146 -49.12283,43.77595 -73.52374,65.84938 -23.13102,21.12378 -45.65787,42.89334 -68.14792,64.69403 -20.72282,20.14278 -41.38454,40.34832 -62.06002,60.53976 -18.89501,18.45361 -37.79407,36.90306 -56.69515,55.35044 -18.10644,17.6728 -36.21498,35.34344 -54.32352,53.01409 -13.97145,13.63349 -27.9429,27.26698 -41.91433,40.90048 -15.253,13.97453 -26.60384,31.23915 -35.19141,49.90211 -6.32591,18.41064 -7.7031,38.00608 -8.02957,57.33608 -0.70102,17.1316 2.76154,33.8977 6.74535,50.439 4.94828,20.9677 15.48012,39.5775 26.01387,58.127 12.9445,23.2896 27.58815,45.5802 43.21682,67.1407 15.77296,21.0632 31.77094,41.9361 48.72243,62.0677 17.29862,19.973 35.77649,38.875 54.17154,57.828 17.34193,17.8218 34.74112,35.5877 52.12385,53.3697 20.81629,21.2992 41.61677,42.6137 62.41803,63.9275 24.59378,25.1889 48.73381,50.7913 74.71392,74.5638 26.95917,25.6973 55.64213,49.4512 83.93769,73.634 26.55173,21.8462 53.13979,43.6715 78.79412,66.5705 25.19905,21.9648 50.41902,43.9074 75.04182,66.5194 11.9021,12.0668 25.242,22.505 38.1371,33.4562 11.2612,9.8125 23.3699,18.5682 34.7458,28.2554 12.9482,10.8507 26.0153,21.6538 39.679,31.596 21.0035,15.0316 43.3721,27.9934 66.8452,38.7281 28.8589,11.264 59.0788,11.26 88.6484,2.4879 7.4819,-2.2196 14.6387,-5.4154 21.9581,-8.1231 36.6622,-13.784 70.1248,-33.5401 101.9049,-56.1787 27.1581,-20.307 52.0706,-43.3687 76.5698,-66.7519 22.9001,-22.1499 45.5972,-44.5086 68.3566,-66.8028 27.6713,-26.2581 53.5437,-54.2981 79.7885,-81.9577 18.5735,-19.7669 37.7011,-38.996 56.9754,-58.0758 18.6703,-18.4009 37.4566,-36.6836 56.225,-54.9842 16.4548,-16.0415 32.9075,-32.0852 49.3574,-48.1317 19.7127,-19.236 39.4254,-38.472 59.1381,-57.7081 18.2777,-17.8356 36.5553,-35.6714 54.833,-53.5071 17.7714,-17.3419 35.543,-34.6837 53.3146,-52.0255 20.6232,-19.7703 40.9234,-39.8109 60.3153,-60.7928 16.6938,-18.7891 32.0386,-38.4186 43.7451,-60.6893 10.5753,-21.3329 16.656,-44.1749 19.4653,-67.7189 2.8656,-33.9318 -12.3691,-58.0398 -28.2443,-86.252 -17.3266,-29.77695 -37.7616,-57.48244 -59.9801,-83.74671 -22.1716,-25.09107 -45.6875,-48.95497 -69.0671,-72.91196 -21.5903,-22.06271 -43.1934,-44.11291 -64.7741,-66.18514 -23.9464,-24.42002 -49.4729,-47.21032 -74.0642,-70.97837 -24.6833,-23.87739 -48.7914,-48.33605 -72.8456,-72.84358 -28.9687,-29.59482 -57.8743,-59.25137 -86.7882,-88.89983 -23.5076,-24.10781 -47.0214,-48.20962 -70.5362,-72.31031 -24.9329,-25.55499 -49.8678,-51.10787 -74.8028,-76.66076 -29.514,-30.24523 -59.0279,-60.49047 -88.5418,-90.73571 -15.5251,-15.90978 -31.0503,-31.81962 -46.5754,-47.72945 -13.1407,-14.50794 -28.1001,-26.87655 -44.6853,-37.19958 -16.9457,-8.56594 -35.2808,-15.58587 -54.6783,-12.54095 -4.7598,0.74717 -9.3259,2.42542 -13.9889,3.63815 -16.0238,6.01186 -29.0552,16.87354 -41.3929,28.37938 -8.0087,7.70022 -15.8599,15.56229 -23.762,23.3714 -8.9087,7.75677 -15.5838,17.47585 -22.6899,26.79683 -4.7227,6.06381 -10.0987,11.56838 -15.4883,17.03209 -7.5819,7.57731 -15.2824,15.03485 -22.9603,22.51452 -6.7694,5.22443 -13.4566,10.55265 -20.1151,15.91713 -44.0429,35.49963 6.1612,97.78568 50.2041,62.28606 v 0 c 8.6028,-6.93761 17.4377,-13.59204 25.7351,-20.8999 8.0713,-7.86213 16.1662,-15.70123 24.1274,-23.6752 7.7764,-7.90266 15.4385,-15.94709 22.1869,-24.76397 4.8827,-6.4382 8.9635,-13.11633 15.2326,-18.30505 7.3907,-7.30378 14.74,-14.65029 22.2073,-21.87591 3.8081,-3.58641 8.4053,-7.26963 11.8107,-10.81552 -2.4377,-0.0173 -11.6715,-0.31061 -7.3144,-1.61522 2.8992,-0.8681 6.5619,3.26168 9.5697,3.06137 11.14,6.16957 19.998,15.4532 28.745,24.56638 15.5251,15.90984 31.0503,31.81969 46.5754,47.72952 29.5139,30.24522 59.0279,60.49044 88.5418,90.73564 24.9338,25.55162 49.8676,51.10305 74.7991,76.65698 23.5099,24.09674 47.0196,48.19341 70.5228,72.29664 28.9737,29.70986 57.9392,59.42776 86.9681,89.0837 24.548,25.00983 49.1545,49.96626 74.3455,74.33187 24.0512,23.24005 48.9938,45.54719 72.4562,69.37965 21.5633,22.05447 43.1489,44.08708 64.7221,66.13199 22.0793,22.62212 44.2846,45.156 65.3038,68.776 18.9901,22.33371 36.4041,45.93122 51.2773,71.23962 2.4366,4.33 17.204,27.4974 18.2023,33.3983 0.2868,1.6959 0.1407,3.437 0.2111,5.1556 -1.0703,13.7827 -5.3504,26.9922 -11.036,39.5553 -7.9533,16.0719 -19.9776,29.3307 -31.3893,43.0366 -18.4413,19.9767 -37.8109,38.9909 -57.4217,57.8188 -17.7716,17.3418 -35.5432,34.6837 -53.3147,52.0256 -18.2776,17.8356 -36.5551,35.6713 -54.8326,53.5069 -19.7098,19.2331 -39.4194,38.4664 -59.1292,57.6994 -16.4432,16.0456 -32.8947,32.0825 -49.3455,48.1201 -18.9127,18.4414 -37.8437,36.8643 -56.6563,55.4079 -19.8663,19.6677 -39.5784,39.4923 -58.7264,59.8642 -25.5742,26.953 -50.7621,54.2987 -77.738,79.8743 -22.5144,22.0552 -44.9694,44.1718 -67.6189,66.0886 -21.7674,20.7901 -43.8467,41.3525 -67.8699,59.5481 -26.1392,18.7942 -53.6385,35.1356 -83.902,46.5092 -16.89,6.7788 -30.92,13.1034 -49.1534,7.4538 -18.892,-8.3566 -36.5899,-19.1629 -53.46,-31.0544 -12.0665,-8.1063 -22.8436,-18.2298 -34.175,-27.3179 -11.4087,-9.6765 -23.4564,-18.5305 -34.7807,-28.285 -12.1135,-10.2745 -24.6719,-20.009 -35.7983,-31.3917 -24.9186,-22.8725 -50.4096,-45.1036 -75.919,-67.3127 -26.10189,-23.2305 -53.02817,-45.5132 -80.04847,-67.6652 -27.61958,-23.6001 -55.62929,-46.7674 -81.93147,-71.8605 -24.87961,-22.7224 -47.85239,-47.35 -71.44023,-71.3953 -20.81561,-21.3315 -41.6313,-42.663 -62.46552,-63.9762 -17.31626,-17.7125 -34.6469,-35.411 -51.92234,-53.1632 -17.09434,-17.6125 -34.27997,-35.1624 -50.41185,-53.6726 -15.75398,-18.6638 -30.54608,-38.0757 -45.21705,-57.5966 -13.95578,-19.055 -26.79877,-38.9363 -38.32535,-59.5587 -6.87212,-12.0974 -14.39501,-23.7055 -17.80157,-37.3529 -2.4218,-10.0511 -5.11164,-20.1382 -4.52835,-30.5866 0.0862,-9.0133 1.2001,-17.9679 1.55674,-26.91097 2.36204,-9.47347 11.12718,-17.36153 17.54389,-24.18743 13.9715,-13.63357 27.94295,-27.26706 41.9144,-40.90055 18.11044,-17.67243 36.22073,-35.34485 54.32903,-53.01946 18.90639,-18.4534 37.81132,-36.90816 56.71226,-55.36714 20.60462,-20.1223 41.1957,-40.25862 61.84718,-60.33276 21.83182,-21.16322 43.69473,-42.30104 66.14158,-62.81495 24.64001,-22.30077 50.09725,-43.69004 74.25414,-66.51854 30.35216,-28.15732 61.25821,-55.69838 91.90067,-83.53711 35.16801,-33.3271 70.79491,-66.15708 106.49791,-98.90954 30.0278,-28.17269 59.3186,-57.10437 88.7934,-85.85348 40.4865,-39.50748 -15.3855,-96.76407 -55.872,-57.25658 z" /></g><g
       id="g4601"
       transform="matrix(1.5599986,0,0,1.5600018,-1147.3513,-191.76647)"><path
         id="path4515"
         style="fill:#ffffff;fill-opacity:1;stroke-width:1;paint-order:markers stroke fill"
         d="m 2238.128,222.58951 c -5.2795,0.0618 -10.5616,0.88265 -15.6967,2.41226 -6.6654,2.25732 -9.9894,3.05247 -16.4181,6.90449 -7.0603,4.23041 -12.8261,9.83229 -18.2682,15.89567 -11.9053,11.91764 -23.2222,23.84541 -32.7256,37.85609 -13.7438,16.65881 -29.7225,31.20706 -44.3927,47.02762 -5.3358,5.53081 -10.7566,10.82736 -16.3566,15.9923 -0.5504,-2.18784 -1.2466,-4.38027 -2.1585,-6.58151 -1.6157,-3.89984 -3.2842,-6.89312 -5.0803,-9.32708 -2.4267,2.84811 -5.3254,6.18638 -8.6796,10.21747 -1.5012,0.97308 -2.9763,1.98764 -4.5036,2.9192 -7.6141,4.64401 -15.8003,8.31463 -23.4818,12.84314 -5.6273,3.3017 -11.2781,6.58133 -16.7829,10.08207 -10.9241,6.94705 -21.256,11.09146 -30.639,12.96975 2.9783,3.96043 6.7491,7.38918 11.2805,9.99268 1.2491,7.41148 3.9386,14.55028 8.3157,20.75377 6.6737,9.45812 8.1946,9.774 16.4848,16.1618 6.828,4.22687 14.0357,8.30129 21.8297,10.48825 3.0334,0.85119 6.0694,1.94722 9.2165,2.096 1.3283,0.0628 2.6567,0.0682 3.9853,0.0481 5.0434,6.34216 12.2043,11.47319 21.2896,17.73897 18.4754,12.58894 37.3638,25.06695 51.7038,42.51678 8.0705,10.2645 16.0027,20.63217 24.4006,30.63431 5.6497,6.72885 11.9066,14.22659 18.5772,19.96053 3.5141,3.02072 7.4748,5.47949 11.2122,8.21914 7.1017,2.555 13.8136,6.75063 21.3052,7.66517 16.3578,1.99685 29.9831,-5.84662 43.4438,-13.25759 15.5167,-9.7184 30.6701,-19.97742 45.636,-30.52579 9.6275,-6.92088 12.3642,-8.61926 21.2716,-16.01917 9.4257,-7.83053 17.9942,-16.64827 27.0056,-24.9344 9.8257,-9.50404 19.1166,-19.62524 31.3593,-26.15861 5.0731,-2.90319 7.2044,-4.27794 12.454,-6.6921 7.8906,-3.62864 16.2107,-6.1248 24.4455,-8.82117 20.4782,-6.61774 47.2469,-13.02653 55.1073,-36.78948 3.1848,-9.62826 0.056,-20.28267 0.084,-30.42398 -3.7633,-5.68825 -7.1032,-11.68065 -11.2903,-17.0646 -1.5596,-2.00551 -3.8026,-3.37583 -5.8136,-4.92838 -9.4233,-7.27515 -20.1755,-12.49726 -30.7743,-17.78651 -9.8111,-4.76662 -19.483,-9.85997 -29.5398,-14.10301 -5.6324,-2.37635 -5.9184,-1.68473 -11.0975,-4.54546 -2.6201,-1.44722 -5.1035,-3.12847 -7.6554,-4.69274 -9.1288,-5.73725 -18.2877,-11.42533 -27.3327,-17.29455 -5.962,-3.86868 -12.7997,-8.48574 -18.8045,-12.12381 -3.415,-2.06899 -6.9234,-3.98006 -10.3849,-5.97018 -8.8138,-5.05925 -17.8119,-9.99366 -26.1948,-15.76338 -5.3658,-3.69315 -6.1531,-4.84546 -11.3833,-9.37358 -2.0121,-1.74202 -4.0602,-3.44163 -6.0905,-5.16248 -9.0042,-7.37226 -17.7943,-15.09273 -28.8329,-19.42517 -6.4591,-2.53511 -13.2424,-3.71029 -20.0303,-3.63079 z m 68.3669,109.90079 3.8204,0.40928 c -0.9722,0.062 -1.1446,0.0178 -3.8204,-0.40928 z m -222.3782,30.2395 c -0.01,-0.0131 0.04,-0.0118 0.1633,0.009 0.032,0.0305 0.061,0.063 0.092,0.0935 -0.1357,-0.047 -0.2462,-0.0875 -0.2558,-0.10283 z m -31.3335,32.49776 c 0.1696,-0.0225 0.683,0.003 0.5132,0.0233 -0.6547,0.0811 -1.3118,0.17025 -1.9699,0.20671 0.4851,-0.0796 0.9694,-0.16508 1.4567,-0.22996 z m 365.3074,21.00233 c 0.5017,0.37208 0.9397,0.72357 1.1948,0.99581 0.168,0.17926 -0.5167,-0.11639 -0.6692,-0.30903 -0.1789,-0.22605 -0.3477,-0.45993 -0.5256,-0.68678 z" /><g
         id="g4464"
         transform="rotate(-2.2082328,-12290.881,-25370.162)"><path
           style="fill:#000000;fill-opacity:1;stroke-width:1;paint-order:markers stroke fill"
           id="path4444"
           d="m 976.43824,958.24909 c 12.19335,-1.93101 23.87736,-6.07451 35.54136,-9.98677 11.5366,-4.23074 22.6683,-9.47473 33.7908,-14.67761 7.0522,-3.34131 14.1073,-6.67567 21.1222,-10.0938 10.2286,-5.15903 20.2683,-10.67765 30.1571,-16.45856 12.8245,-7.38754 24.4706,-16.53858 36.0914,-25.64098 13.7443,-10.06843 27.1329,-20.59004 40.236,-31.4769 12.2561,-10.1582 24.4764,-20.35932 36.7464,-30.50061 14.0083,-11.23209 27.6466,-22.91519 40.9368,-34.98596 4.5669,-4.33893 9.2717,-8.52572 14.0348,-12.64621 0.4438,-0.38383 1.8693,-1.40637 1.3561,-1.12213 -4.0079,2.21962 -7.9087,4.62736 -11.863,6.94106 -20.5105,2.60426 -8.378,3.00347 -28.6729,-2.41015 -0.1341,-0.0358 -0.024,0.31023 0.073,0.40987 1.0379,1.0709 2.1907,2.02412 3.2765,3.04633 1.4789,1.39229 2.9537,2.78906 4.4177,4.19706 1.5845,1.52387 3.1516,3.06562 4.7274,4.59846 10.4099,10.26208 21.5328,19.74644 32.2442,29.6839 13.3095,12.92505 27.0449,25.3973 40.5777,38.08513 14.796,13.25536 29.1592,26.96339 44.1993,39.94528 13.0988,11.0069 26.8434,21.32147 41.3945,30.34488 3.2647,2.02453 6.5987,3.9352 9.898,5.9028 17.3262,9.35598 35.062,17.96804 52.9233,26.25243 15.1264,7.16613 30.9369,12.70503 46.6272,18.47628 10.8491,4.22677 21.9701,7.54912 33.2177,10.51176 10.302,2.56813 20.5656,5.31688 30.956,7.50769 4.9745,1.0107 10.012,1.61118 15.0628,2.06263 56.3684,4.75463 63.0924,-74.9623 6.724,-79.71692 v 0 c -1.9144,-0.12776 -3.8191,-0.3625 -5.7065,-0.71294 -8.982,-1.72405 -17.7571,-4.46104 -26.6675,-6.50396 -8.8004,-2.31595 -17.5045,-4.85296 -25.9732,-8.23156 -13.6725,-5.02751 -27.4805,-9.78342 -40.6699,-16.00854 -15.4144,-7.09683 -30.6458,-14.62471 -45.6999,-22.45442 -14.0292,-8.24767 -27.5194,-17.40434 -39.8705,-28.0395 -14.2206,-12.22365 -27.7046,-25.24321 -41.7103,-37.70855 -13.6373,-12.77554 -27.4607,-25.35256 -40.8764,-38.36358 -10.2593,-9.51574 -20.8973,-18.61185 -30.8976,-28.40543 -5.7223,-5.55593 -11.3835,-11.30347 -17.53,-16.39776 -2.4682,-2.0456 -4.7424,-4.44953 -7.6133,-5.8759 -6.4636,-3.2114 -13.0369,-6.70893 -20.1522,-7.91916 -6.0063,-1.02161 -12.1498,0.92776 -18.2247,1.39166 -5.2114,2.70803 -10.5323,5.2148 -15.6341,8.12405 -0.4828,0.27536 -4.5385,3.90851 -5.186,4.47482 -4.2529,3.7197 -8.4922,7.45241 -12.5732,11.36288 -12.353,11.23968 -25.0671,22.07556 -38.0973,32.52414 -12.334,10.19778 -24.6221,20.45063 -36.9433,30.66389 -12.4844,10.40558 -25.3159,20.35968 -38.4029,29.99668 -8.8035,6.8975 -17.5259,13.98384 -27.2282,19.61018 -8.1488,4.80028 -16.4581,9.32058 -24.8799,13.62355 -6.5722,3.24673 -13.2313,6.31627 -19.8433,9.48127 -8.379,3.92525 -16.76547,7.86235 -25.35762,11.29956 -7.63657,2.57188 -15.25908,5.48388 -23.21047,6.90816 -55.79885,9.29981 -42.64694,88.21132 13.15193,78.9115 z" /><path
           style="fill:#000000;fill-opacity:1;stroke-width:1;paint-order:markers stroke fill"
           id="path4460"
           d="m 979.0881,899.77823 c 11.93848,3.1431 23.1485,8.43652 34.3617,13.49785 11.0546,5.36545 21.6049,11.69848 32.15,17.98968 6.6819,4.03114 13.3674,8.05566 20.0045,12.1595 9.6602,6.15801 19.0964,12.65486 28.3561,19.39756 12.0197,8.63541 22.6902,18.90735 33.3405,29.12837 12.6662,11.39501 24.9331,23.20521 36.8794,35.35021 11.1765,11.3352 22.3131,22.7095 33.5052,34.0292 12.8123,12.5792 25.2113,25.5701 37.2251,38.9119 4.1091,4.7747 8.3707,9.4119 12.6969,13.9889 0.4031,0.4263 1.719,1.5866 1.2369,1.2523 -3.7653,-2.61 -7.4053,-5.3965 -11.1078,-8.0947 -20.1463,-4.6464 -8.0349,-3.8279 -28.7701,-0.4752 -0.137,0.022 0.01,-0.311 0.1137,-0.4004 1.14,-0.9615 2.3825,-1.7945 3.5653,-2.7028 1.6109,-1.2371 3.2183,-2.479 4.816,-3.7332 1.7292,-1.3574 3.4429,-2.7344 5.1644,-4.1016 11.3858,-9.1674 23.403,-17.4894 35.0563,-26.3036 14.5376,-11.5263 29.4537,-22.5595 44.1897,-33.8274 16.0498,-11.7061 31.7143,-23.9058 47.9795,-35.3153 14.1358,-9.63898 28.8448,-18.52439 44.2268,-26.04432 3.4511,-1.68721 6.9598,-3.25419 10.4397,-4.88129 18.1765,-7.57275 36.686,-14.36429 55.2875,-20.81723 15.7683,-5.61435 32.0543,-9.54111 48.2439,-13.7111 11.218,-3.11839 22.6159,-5.30966 34.1038,-7.13034 10.5075,-1.52292 20.9949,-3.22939 31.5525,-4.36803 5.0507,-0.50715 10.1231,-0.59984 15.1937,-0.54291 56.5611,0.91758 55.2634,80.90702 -1.2977,79.98942 v 0 c -1.9176,-0.065 -3.8362,-0.022 -5.7493,0.1376 -9.1095,0.8153 -18.1147,2.6593 -27.185,3.799 -8.9881,1.4225 -17.9026,3.0746 -26.6673,5.5876 -14.1074,3.6322 -28.3225,6.9805 -42.0693,11.8527 -16.0479,5.5166 -31.957,11.4804 -47.7199,17.7622 -14.785,6.8003 -29.1248,14.5592 -42.4794,23.9032 -15.3739,10.7372 -30.0947,22.3401 -45.2789,33.3392 -14.8488,11.3448 -29.8629,22.4734 -44.5148,34.0746 -11.1612,8.4398 -22.6571,16.4242 -33.5884,25.1664 -6.2503,4.9547 -12.4589,10.106 -19.0849,14.5587 -2.6608,1.788 -5.1644,3.9519 -8.1638,5.0835 -6.7528,2.5476 -13.6435,5.3688 -20.8443,5.8599 -6.0784,0.4147 -11.9957,-2.1405 -17.9935,-3.2107 -4.9138,-3.2166 -9.9568,-6.244 -14.7414,-9.6498 -0.4527,-0.3223 -4.124,-4.3436 -4.7115,-4.972 -3.8587,-4.1271 -7.7027,-8.2658 -11.3713,-12.5656 -11.1646,-12.4208 -22.7289,-24.4761 -34.6465,-36.1778 -11.2501,-11.3824 -22.449,-22.8149 -33.6848,-34.2114 -11.3789,-11.6042 -23.1484,-22.794 -35.2039,-33.6938 -8.068,-7.7449 -16.0364,-15.6696 -25.1261,-22.2399 -7.6268,-5.5926 -15.4413,-10.9227 -23.3896,-16.0479 -6.2138,-3.889 -12.5318,-7.6104 -18.7934,-11.42198 -7.94348,-4.745 -15.89319,-9.50267 -24.09768,-13.78352 -7.34042,-3.32417 -14.63278,-6.98531 -22.40143,-9.19919 C 903.50905,962.1305 924.50193,884.934 979.0881,899.77823 Z" /></g><path
         style="fill:#000000;fill-opacity:1;stroke-width:1;paint-order:markers stroke fill"
         id="path4517"
         d="m 2191.2882,354.14616 c -4.6304,8.47194 -7.1019,17.81972 -8.861,27.24116 -1.1228,7.25355 -1.6637,14.64024 -1.1984,21.9787 0.1239,1.95405 0.3328,3.90181 0.4991,5.85269 1.0226,7.19563 2.3367,14.60727 5.5614,21.20609 1.1195,2.29087 2.5074,4.4405 3.7611,6.66078 6.1031,8.77845 14.6449,16.05692 25.4271,18.54599 5.5255,1.27558 11.3309,1.23034 16.9902,0.86937 3.2942,-0.21011 6.3768,-1.70876 9.5652,-2.56315 2.6208,-1.29448 5.3321,-2.4198 7.8623,-3.88345 6.1162,-3.53814 12.1398,-9.07701 16.3085,-14.80061 1.1874,-1.63033 2.2658,-3.33726 3.3987,-5.00589 4.9224,-8.32712 7.0356,-17.5442 8.0286,-27.04697 0.4454,-4.84786 0.4263,-9.72029 0.4301,-14.58357 0.1221,-5.02687 -0.2836,-9.98585 -1.3734,-14.91753 -0.9512,-4.30456 -1.9121,-6.31917 -3.4668,-10.19765 -2.3207,-4.82973 -4.8829,-9.67258 -8.2063,-13.90861 -1.2666,-1.61444 -2.5663,-3.20271 -3.8494,-4.80407 -3.8328,-4.18902 -8.2167,-7.80359 -13.1344,-10.65152 -1.5474,-0.89617 -3.1831,-1.63052 -4.7747,-2.44578 -51.3392,-23.75474 -84.9334,48.84986 -33.5942,72.60458 v 0 c -3.2695,-1.81523 -6.3514,-3.81363 -8.6874,-6.80921 -0.6134,-0.83638 -1.1805,-1.70874 -1.8402,-2.50915 -0.4432,-0.53785 0.793,1.14636 1.1895,1.71952 0.016,0.004 0.042,0.0262 0.049,0.0111 0.084,-0.1782 -0.132,-0.37108 -0.2083,-0.55256 -0.1562,-0.37184 -0.31,-0.74475 -0.4649,-1.11712 -0.9433,-2.81406 -1.3843,-5.4591 -1.6494,-8.43727 -0.036,-0.40987 -0.01,-1.64579 0.01,-1.2345 0.034,1.06474 -0.028,2.13109 0.01,3.19577 0,2.30989 0.011,4.62127 -0.058,6.93021 0,0.11125 -0.057,0.23347 -0.01,0.33382 0.02,0.0427 0.2848,-0.89614 0.2914,-0.91617 0.8011,-2.43261 1.8229,-4.44508 3.2502,-6.69832 0.6151,-0.83003 1.2133,-1.67275 1.8451,-2.49005 2.632,-3.40453 7.19,-5.24666 10.9585,-6.83874 2.3167,-0.53276 4.5736,-1.54821 6.9503,-1.59829 5.0532,-0.1065 10.2224,-0.11288 15.1208,1.13315 8.2478,2.09799 15.6817,7.57058 20.3796,14.5555 0.4425,0.83883 3.919,6.86408 3.7857,8.65706 -0.019,0.25493 0.01,-0.88596 -0.2,-0.74028 -0.093,0.0645 0.3391,2.28571 -0.091,-0.0789 -0.029,0.0989 -0.08,0.39942 -0.088,0.29663 -0.146,-1.83264 -0.2145,-3.09658 -0.082,-4.69445 0.031,-0.37201 0.063,-0.7439 0.094,-1.11588 0.047,-0.36327 0.095,-0.72657 0.1417,-1.08985 -0.01,-0.11533 -0.042,-0.23119 -0.027,-0.34597 0.072,-0.57335 0.4348,-1.09807 0.4437,-1.67584 0,-0.13396 -0.3239,0.42183 -0.2665,0.30086 0.4143,-0.87143 0.895,-1.70966 1.3425,-2.56448 25.2982,-50.59645 -46.256,-86.37354 -71.5542,-35.77709 z" /></g><path
       style="fill:#000000;fill-opacity:1;stroke-width:1;paint-order:markers stroke fill"
       id="path6349"
       d="m 1938.0673,1911.6567 c 16.1094,10.5083 32.2931,20.9137 48.2725,31.6233 13.7633,9.552 27.9663,18.4172 42.1776,27.2773 16.679,10.3615 34.544,18.4994 52.6433,26.0108 18.8702,6.8149 38.107,12.579 57.1856,18.7903 17.0091,5.1941 34.0689,10.2269 51.1539,15.165 19.6116,4.9719 39.3735,9.4239 59.1173,13.866 19.3598,4.4125 39.0422,6.4933 58.7684,8.3445 25.1532,2.4501 50.3775,3.6916 75.628,4.5475 22.234,0.6584 44.4712,0.6309 66.6978,1.5055 23.882,0.8482 47.7776,1.2563 71.6724,1.528 22.0202,0.1905 44.0418,0.1547 66.0625,0.1552 21.2336,0 42.4675,-0.011 63.7011,-0.014 22.1345,0.2477 44.2679,-0.3944 66.3577,-1.7779 19.0117,-1.6727 37.9556,-4.027 56.655,-7.8624 15.0926,-3.2024 29.2875,-9.1773 43.4258,-15.1596 11.6597,-4.199 21.9996,-11.1139 33.0012,-16.6438 10.5159,-5.0421 20.6129,-10.8775 31.015,-16.143 13.5565,-5.8798 26.5671,-12.8508 39.602,-19.7883 13.5036,-6.4508 25.7014,-15.1245 38.3943,-22.935 9.9819,-7.0439 20.2623,-13.6493 30.0439,-20.9717 1.1621,-0.8712 2.3241,-1.7423 3.4864,-2.6135 56.5714,-42.4226 -3.4234,-122.4266 -59.9948,-80.004 v 0 c -1.298,0.9738 -2.596,1.9475 -3.8944,2.9213 -7.3239,5.7261 -15.4596,10.3358 -22.8406,15.9933 -10.5709,6.7121 -20.8796,13.8723 -32.1924,19.3419 -12.4542,6.6343 -24.878,13.2477 -37.8352,18.8698 -10.7008,5.4352 -21.1217,11.3842 -31.9275,16.6116 -8.5863,4.533 -16.8034,9.7943 -25.8916,13.2942 -8.1796,3.4734 -16.2809,7.2386 -24.9534,9.3635 -13.9875,3.0685 -28.275,4.396 -42.4929,5.9307 -19.9607,1.3188 -39.9714,1.768 -59.9736,1.5729 -21.2278,0 -42.4558,0.011 -63.6836,0.014 -21.6437,0 -43.288,0.035 -64.9309,-0.1488 -22.9674,-0.2598 -45.9356,-0.6494 -68.8909,-1.4577 -22.4075,-0.8746 -44.8228,-0.9144 -67.238,-1.5253 -23.2608,-0.7825 -46.4976,-1.8929 -69.668,-4.1677 -15.5024,-1.4524 -30.9843,-2.8577 -46.2036,-6.3537 -17.7903,-3.9817 -35.577,-8.0592 -53.2829,-12.3705 -16.0086,-4.6146 -31.9813,-9.3608 -47.9311,-14.1755 -16.6599,-5.4238 -33.3985,-10.6145 -50.0169,-16.1496 -13.0153,-5.3193 -25.8747,-11.0596 -37.878,-18.4315 -13.2902,-8.2798 -26.5792,-16.5492 -39.4328,-25.5038 -17.0508,-11.4065 -34.2906,-22.532 -51.4988,-33.695 -60.2214,-37.0593 -112.6311,48.1065 -52.4098,85.1657 z" /><g
       id="g7087"
       transform="matrix(1.5599986,0,0,1.5600018,-1127.4661,626.28973)" /><path
       id="path7113"
       style="fill:#ffffff;fill-opacity:1;stroke-width:1.56;paint-order:markers stroke fill"
       d="m 3413.6244,175.57497 c -8.236,0.096 -16.476,1.377 -24.4868,3.7632 -10.398,3.5214 -15.5834,4.7618 -25.6122,10.771 -11.0141,6.5994 -20.0087,15.3384 -28.4984,24.7972 -18.5722,18.5916 -36.2266,37.1989 -51.0519,59.0556 -21.4403,25.9878 -46.367,48.6831 -69.2525,73.3632 -8.3238,8.6281 -16.7803,16.8907 -25.5163,24.948 -0.8586,-3.413 -1.9447,-6.8332 -3.3672,-10.2672 -2.5205,-6.0837 -5.1234,-10.7532 -7.9253,-14.5502 -3.7856,4.443 -8.3076,9.6507 -13.5402,15.9392 -2.3418,1.5181 -4.643,3.1008 -7.0256,4.554 -11.878,7.2447 -24.6484,12.9708 -36.6315,20.0353 -8.7786,5.1507 -17.5939,10.2669 -26.1813,15.7281 -17.0416,10.8374 -33.1594,17.3027 -47.7968,20.2328 4.6461,6.1783 10.5285,11.5271 17.5975,15.5886 1.9486,11.5619 6.1442,22.6985 12.9725,32.3759 10.411,14.75471 12.7836,15.24751 25.7163,25.21247 10.6516,6.5939 21.8956,12.95 34.0543,16.3616 4.7321,1.3279 9.4682,3.0377 14.3777,3.2698 2.0721,0.098 4.1444,0.1064 6.2171,0.075 7.8677,9.8938 19.0387,17.8982 33.2117,27.6729 28.8216,19.6387 58.2875,39.1045 80.6579,66.3262 12.5899,16.0127 24.9642,32.1863 38.0649,47.7896 8.8135,10.497 18.5742,22.1935 28.9804,31.1385 5.482,4.7123 11.6606,8.548 17.491,12.8218 11.0786,3.9858 21.5492,10.531 33.2361,11.9577 25.5181,3.1151 46.7736,-9.1207 67.7722,-20.6818 24.2061,-15.1608 47.8453,-31.1649 71.1921,-47.6203 15.0189,-10.7966 19.2882,-13.4461 33.1837,-24.99 14.7041,-12.2156 28.0709,-25.9713 42.1287,-38.8977 15.3281,-14.8263 29.8219,-30.6154 48.9205,-40.8075 7.914,-4.5289 11.2388,-6.6735 19.4282,-10.4396 12.3093,-5.6607 25.2887,-9.5547 38.1349,-13.7611 31.946,-10.3237 73.7051,-20.3214 85.9673,-57.39157 4.9683,-15.0201 0.087,-31.641 0.1311,-47.4615 -5.8708,-8.8737 -11.081,-18.2218 -17.6129,-26.6208 -2.4329,-3.1286 -5.932,-5.2663 -9.0692,-7.6883 -14.7003,-11.3492 -31.4737,-19.4957 -48.0078,-27.747 -15.3053,-7.4359 -30.3935,-15.3815 -46.0821,-22.0007 -8.7865,-3.7071 -9.2327,-2.6282 -17.3121,-7.0909 -4.0873,-2.2577 -7.9614,-4.8804 -11.9424,-7.3207 -14.2409,-8.9501 -28.5288,-17.8235 -42.639,-26.9795 -9.3007,-6.0352 -19.9675,-13.2378 -29.335,-18.9132 -5.3274,-3.2276 -10.8005,-6.2089 -16.2004,-9.3135 -13.7495,-7.8924 -27.7865,-15.5901 -40.8638,-24.5909 -8.3707,-5.7613 -9.5989,-7.5589 -17.758,-14.6228 -3.1388,-2.7175 -6.3339,-5.3689 -9.5011,-8.0535 -14.0466,-11.5007 -27.7591,-23.5447 -44.9793,-30.3033 -10.0762,-3.9547 -20.6582,-5.788 -31.2473,-5.664 z m 106.6523,171.4455 5.9598,0.6384 c -1.5166,0.097 -1.7855,0.028 -5.9598,-0.6384 z m -346.9097,47.1736 c -0.016,-0.02 0.062,-0.018 0.2548,0.014 0.05,0.048 0.095,0.098 0.1435,0.1458 -0.2117,-0.073 -0.3841,-0.1365 -0.399,-0.1604 z m -48.8802,50.6966 c 0.2646,-0.035 1.0655,0 0.8006,0.036 -1.0213,0.1266 -2.0464,0.2656 -3.073,0.3225 0.7567,-0.1242 1.5122,-0.2575 2.2724,-0.3587 z m 569.8791,32.76371 c 0.7826,0.5804 1.4659,1.1287 1.8638,1.5534 0.2621,0.2797 -0.806,-0.1815 -1.0439,-0.4821 -0.2791,-0.3526 -0.5424,-0.7174 -0.8199,-1.0713 z" /><g
       id="g7119"
       transform="matrix(1.5588401,-0.06010904,0.06010892,1.5588433,354.1188,-47.42244)"><path
         style="fill:#000000;fill-opacity:1;stroke-width:1;paint-order:markers stroke fill"
         id="path7115"
         d="m 976.43824,958.24909 c 12.19335,-1.93101 23.87736,-6.07451 35.54136,-9.98677 11.5366,-4.23074 22.6683,-9.47473 33.7908,-14.67761 7.0522,-3.34131 14.1073,-6.67567 21.1222,-10.0938 10.2286,-5.15903 20.2683,-10.67765 30.1571,-16.45856 12.8245,-7.38754 24.4706,-16.53858 36.0914,-25.64098 13.7443,-10.06843 27.1329,-20.59004 40.236,-31.4769 12.2561,-10.1582 24.4764,-20.35932 36.7464,-30.50061 14.0083,-11.23209 27.6466,-22.91519 40.9368,-34.98596 4.5669,-4.33893 9.2717,-8.52572 14.0348,-12.64621 0.4438,-0.38383 1.8693,-1.40637 1.3561,-1.12213 -4.0079,2.21962 -7.9087,4.62736 -11.863,6.94106 -20.5105,2.60426 -8.378,3.00347 -28.6729,-2.41015 -0.1341,-0.0358 -0.024,0.31023 0.073,0.40987 1.0379,1.0709 2.1907,2.02412 3.2765,3.04633 1.4789,1.39229 2.9537,2.78906 4.4177,4.19706 1.5845,1.52387 3.1516,3.06562 4.7274,4.59846 10.4099,10.26208 21.5328,19.74644 32.2442,29.6839 13.3095,12.92505 27.0449,25.3973 40.5777,38.08513 14.796,13.25536 29.1592,26.96339 44.1993,39.94528 13.0988,11.0069 26.8434,21.32147 41.3945,30.34488 3.2647,2.02453 6.5987,3.9352 9.898,5.9028 17.3262,9.35598 35.062,17.96804 52.9233,26.25243 15.1264,7.16613 30.9369,12.70503 46.6272,18.47628 10.8491,4.22677 21.9701,7.54912 33.2177,10.51176 10.302,2.56813 20.5656,5.31688 30.956,7.50769 4.9745,1.0107 10.012,1.61118 15.0628,2.06263 56.3684,4.75463 63.0924,-74.9623 6.724,-79.71692 v 0 c -1.9144,-0.12776 -3.8191,-0.3625 -5.7065,-0.71294 -8.982,-1.72405 -17.7571,-4.46104 -26.6675,-6.50396 -8.8004,-2.31595 -17.5045,-4.85296 -25.9732,-8.23156 -13.6725,-5.02751 -27.4805,-9.78342 -40.6699,-16.00854 -15.4144,-7.09683 -30.6458,-14.62471 -45.6999,-22.45442 -14.0292,-8.24767 -27.5194,-17.40434 -39.8705,-28.0395 -14.2206,-12.22365 -27.7046,-25.24321 -41.7103,-37.70855 -13.6373,-12.77554 -27.4607,-25.35256 -40.8764,-38.36358 -10.2593,-9.51574 -20.8973,-18.61185 -30.8976,-28.40543 -5.7223,-5.55593 -11.3835,-11.30347 -17.53,-16.39776 -2.4682,-2.0456 -4.7424,-4.44953 -7.6133,-5.8759 -6.4636,-3.2114 -13.0369,-6.70893 -20.1522,-7.91916 -6.0063,-1.02161 -12.1498,0.92776 -18.2247,1.39166 -5.2114,2.70803 -10.5323,5.2148 -15.6341,8.12405 -0.4828,0.27536 -4.5385,3.90851 -5.186,4.47482 -4.2529,3.7197 -8.4922,7.45241 -12.5732,11.36288 -12.353,11.23968 -25.0671,22.07556 -38.0973,32.52414 -12.334,10.19778 -24.6221,20.45063 -36.9433,30.66389 -12.4844,10.40558 -25.3159,20.35968 -38.4029,29.99668 -8.8035,6.8975 -17.5259,13.98384 -27.2282,19.61018 -8.1488,4.80028 -16.4581,9.32058 -24.8799,13.62355 -6.5722,3.24673 -13.2313,6.31627 -19.8433,9.48127 -8.379,3.92525 -16.76547,7.86235 -25.35762,11.29956 -7.63657,2.57188 -15.25908,5.48388 -23.21047,6.90816 -55.79885,9.29981 -42.64694,88.21132 13.15193,78.9115 z" /><path
         style="fill:#000000;fill-opacity:1;stroke-width:1;paint-order:markers stroke fill"
         id="path7117"
         d="m 979.0881,899.77823 c 11.93848,3.1431 23.1485,8.43652 34.3617,13.49785 11.0546,5.36545 21.6049,11.69848 32.15,17.98968 6.6819,4.03114 13.3674,8.05566 20.0045,12.1595 9.6602,6.15801 19.0964,12.65486 28.3561,19.39756 12.0197,8.63541 22.6902,18.90735 33.3405,29.12837 12.6662,11.39501 24.9331,23.20521 36.8794,35.35021 11.1765,11.3352 22.3131,22.7095 33.5052,34.0292 12.8123,12.5792 25.2113,25.5701 37.2251,38.9119 4.1091,4.7747 8.3707,9.4119 12.6969,13.9889 0.4031,0.4263 1.719,1.5866 1.2369,1.2523 -3.7653,-2.61 -7.4053,-5.3965 -11.1078,-8.0947 -20.1463,-4.6464 -8.0349,-3.8279 -28.7701,-0.4752 -0.137,0.022 0.01,-0.311 0.1137,-0.4004 1.14,-0.9615 2.3825,-1.7945 3.5653,-2.7028 1.6109,-1.2371 3.2183,-2.479 4.816,-3.7332 1.7292,-1.3574 3.4429,-2.7344 5.1644,-4.1016 11.3858,-9.1674 23.403,-17.4894 35.0563,-26.3036 14.5376,-11.5263 29.4537,-22.5595 44.1897,-33.8274 16.0498,-11.7061 31.7143,-23.9058 47.9795,-35.3153 14.1358,-9.63898 28.8448,-18.52439 44.2268,-26.04432 3.4511,-1.68721 6.9598,-3.25419 10.4397,-4.88129 18.1765,-7.57275 36.686,-14.36429 55.2875,-20.81723 15.7683,-5.61435 32.0543,-9.54111 48.2439,-13.7111 11.218,-3.11839 22.6159,-5.30966 34.1038,-7.13034 10.5075,-1.52292 20.9949,-3.22939 31.5525,-4.36803 5.0507,-0.50715 10.1231,-0.59984 15.1937,-0.54291 56.5611,0.91758 55.2634,80.90702 -1.2977,79.98942 v 0 c -1.9176,-0.065 -3.8362,-0.022 -5.7493,0.1376 -9.1095,0.8153 -18.1147,2.6593 -27.185,3.799 -8.9881,1.4225 -17.9026,3.0746 -26.6673,5.5876 -14.1074,3.6322 -28.3225,6.9805 -42.0693,11.8527 -16.0479,5.5166 -31.957,11.4804 -47.7199,17.7622 -14.785,6.8003 -29.1248,14.5592 -42.4794,23.9032 -15.3739,10.7372 -30.0947,22.3401 -45.2789,33.3392 -14.8488,11.3448 -29.8629,22.4734 -44.5148,34.0746 -11.1612,8.4398 -22.6571,16.4242 -33.5884,25.1664 -6.2503,4.9547 -12.4589,10.106 -19.0849,14.5587 -2.6608,1.788 -5.1644,3.9519 -8.1638,5.0835 -6.7528,2.5476 -13.6435,5.3688 -20.8443,5.8599 -6.0784,0.4147 -11.9957,-2.1405 -17.9935,-3.2107 -4.9138,-3.2166 -9.9568,-6.244 -14.7414,-9.6498 -0.4527,-0.3223 -4.124,-4.3436 -4.7115,-4.972 -3.8587,-4.1271 -7.7027,-8.2658 -11.3713,-12.5656 -11.1646,-12.4208 -22.7289,-24.4761 -34.6465,-36.1778 -11.2501,-11.3824 -22.449,-22.8149 -33.6848,-34.2114 -11.3789,-11.6042 -23.1484,-22.794 -35.2039,-33.6938 -8.068,-7.7449 -16.0364,-15.6696 -25.1261,-22.2399 -7.6268,-5.5926 -15.4413,-10.9227 -23.3896,-16.0479 -6.2138,-3.889 -12.5318,-7.6104 -18.7934,-11.42198 -7.94348,-4.745 -15.89319,-9.50267 -24.09768,-13.78352 -7.34042,-3.32417 -14.63278,-6.98531 -22.40143,-9.19919 C 903.50905,962.1305 924.50193,884.934 979.0881,899.77823 Z" /></g><path
       style="fill:#000000;fill-opacity:1;stroke-width:1.56;paint-order:markers stroke fill"
       id="path7121"
       d="m 3369.0537,1168.3288 c -7.2234,13.2163 -11.0789,27.7988 -13.8231,42.4963 -1.7516,11.3155 -2.5954,22.8388 -1.8695,34.2868 0.1933,3.0483 0.5191,6.0868 0.7786,9.1302 1.5952,11.2252 3.6452,22.7874 8.6757,33.0816 1.7465,3.5737 3.9116,6.9271 5.8674,10.3908 9.5208,13.6944 22.846,25.0488 39.6662,28.9318 8.6198,1.9899 17.6762,1.9193 26.5047,1.3562 5.1389,-0.3278 9.9478,-2.6657 14.9217,-3.9985 4.0884,-2.0194 8.3181,-3.7749 12.2652,-6.0582 9.5412,-5.5195 18.938,-14.1602 25.4412,-23.089 1.8523,-2.5433 3.5346,-5.2061 5.302,-7.8092 7.6789,-12.9903 10.9755,-27.369 12.5246,-42.1933 0.6948,-7.5627 0.665,-15.1637 0.6709,-22.7504 0.1905,-7.8419 -0.4424,-15.578 -2.1425,-23.2714 -1.4838,-6.7151 -2.9829,-9.8579 -5.4082,-15.9083 -3.6203,-7.5344 -7.6173,-15.0893 -12.8018,-21.6975 -1.9759,-2.5185 -4.0034,-4.9962 -6.0051,-7.4944 -5.9791,-6.5348 -12.818,-12.1736 -20.4896,-16.6164 -2.4139,-1.398 -4.9656,-2.5436 -7.4485,-3.8154 -80.0891,-37.0574 -132.496,76.2059 -52.4069,113.2633 v 0 c -5.1004,-2.8318 -9.9082,-5.9493 -13.5524,-10.6224 -0.9569,-1.3047 -1.8415,-2.6656 -2.8707,-3.9143 -0.6914,-0.839 1.2371,1.7884 1.8556,2.6825 0.025,0.01 0.066,0.041 0.077,0.017 0.131,-0.278 -0.2059,-0.5789 -0.325,-0.862 -0.2436,-0.5801 -0.4836,-1.1618 -0.7252,-1.7427 -1.4716,-4.3899 -2.1595,-8.5162 -2.5731,-13.1621 -0.056,-0.6394 -0.016,-2.5675 0.016,-1.9259 0.053,1.661 -0.044,3.3245 0.016,4.9854 0,3.6035 0.017,7.2092 -0.09,10.8112 0,0.1735 -0.089,0.3642 -0.016,0.5207 0.031,0.067 0.4442,-1.3979 0.4545,-1.4292 1.2498,-3.7949 2.8438,-6.9343 5.0703,-10.4494 0.9596,-1.2948 1.8928,-2.6095 2.8784,-3.8845 4.1059,-5.311 11.2164,-8.1848 17.0952,-10.6684 3.6141,-0.8311 7.1349,-2.4152 10.8425,-2.4933 7.883,-0.1662 15.9469,-0.1761 23.5884,1.7677 12.8666,3.2728 24.4635,11.8101 31.7922,22.7066 0.6903,1.3086 6.1136,10.708 5.9057,13.505 -0.03,0.3977 0.016,-1.3821 -0.312,-1.1548 -0.1451,0.1006 0.529,3.5657 -0.142,-0.1231 -0.045,0.1543 -0.1248,0.6231 -0.1373,0.4627 -0.2277,-2.8589 -0.3346,-4.8306 -0.1279,-7.3233 0.048,-0.5804 0.098,-1.1605 0.1466,-1.7408 0.073,-0.5667 0.1482,-1.1334 0.2211,-1.7002 -0.016,-0.1799 -0.065,-0.3606 -0.042,-0.5397 0.1123,-0.8944 0.6783,-1.713 0.6921,-2.6143 0,-0.209 -0.5052,0.6581 -0.4157,0.4693 0.6463,-1.3594 1.3962,-2.667 2.0943,-4.0005 39.4652,-78.9306 -72.1593,-134.7429 -111.6244,-55.8124 z" /></g></svg>
