<?xml version="1.0" encoding="UTF-8" standalone="no"?>
<!-- Created with Inkscape (http://www.inkscape.org/) -->

<svg
   width="3840mm"
   height="2160mm"
   viewBox="0 0 3840 2160"
   version="1.1"
   id="svg6221"
   xml:space="preserve"
   inkscape:version="1.2.2 (732a01da63, 2022-12-09)"
   sodipodi:docname="slashes.svg"
   inkscape:export-filename="..\..\enemies\slashes.png"
   inkscape:export-xdpi="96.096664"
   inkscape:export-ydpi="96.096664"
   xmlns:inkscape="http://www.inkscape.org/namespaces/inkscape"
   xmlns:sodipodi="http://sodipodi.sourceforge.net/DTD/sodipodi-0.dtd"
   xmlns="http://www.w3.org/2000/svg"
   xmlns:svg="http://www.w3.org/2000/svg"><sodipodi:namedview
     id="namedview6223"
     pagecolor="#ffffff"
     bordercolor="#000000"
     borderopacity="0.25"
     inkscape:showpageshadow="2"
     inkscape:pageopacity="0.0"
     inkscape:pagecheckerboard="0"
     inkscape:deskcolor="#d1d1d1"
     inkscape:document-units="mm"
     showgrid="false"
     inkscape:zoom="0.064095192"
     inkscape:cx="4805.3526"
     inkscape:cy="6069.0979"
     inkscape:window-width="1920"
     inkscape:window-height="986"
     inkscape:window-x="-11"
     inkscape:window-y="-11"
     inkscape:window-maximized="1"
     inkscape:current-layer="layer1" /><defs
     id="defs6218" /><g
     inkscape:label="Layer 1"
     inkscape:groupmode="layer"
     id="layer1"><g
       id="g6772"><g
         id="g6674"
         transform="translate(-78.43152,-198.14279)"><path
           style="fill:#ffffff;stroke-width:1;paint-order:markers stroke fill"
           id="path6663"
           d="m 1436.8217,546.77 c 2.7394,0.4432 5.4843,0.85336 8.2182,1.32958 11.0427,1.92355 23.1501,4.38042 34.0423,6.05721 17.8092,2.74164 42.3587,5.78419 60.0447,7.4322 13.1088,1.2215 26.2499,2.06682 39.3749,3.1002 61.4898,4.48009 123.1469,5.6125 184.7154,8.44484 41.548,1.91133 54.3298,3.05803 95.9377,5.97123 15.7092,1.29685 31.4324,2.43355 47.1275,3.89051 32.7086,3.03628 63.1371,6.60725 95.7266,10.30936 35.6223,4.04664 71.2416,8.05841 106.8206,12.46867 56.7649,7.38529 112.8125,19.19962 168.4873,32.332 16.7831,4.72716 17.9583,4.67686 33.6625,10.48287 8.2076,3.03443 16.9305,6.36371 24.3259,11.20077 7.7009,5.03695 9.2555,7.71326 15.0504,14.39952 0.9206,2.96876 2.1964,5.84989 2.7617,8.90628 1.9992,10.80947 0.1234,22.67746 -4.5589,32.59018 -4.9851,10.55378 -9.3046,14.27461 -16.9649,23.1702 -15.7601,10.43283 -20.6747,14.66873 -39.0178,22.26365 -19.5196,8.08202 -41.7799,13.92471 -62.2798,18.36624 -12.1747,2.63779 -24.436,4.90294 -36.7485,6.79632 -14.2715,2.19462 -28.6479,3.64189 -42.9718,5.4628 -87.9774,9.88164 -176.4603,14.25821 -264.9047,17.20364 -67.9506,1.77516 -135.9378,2.41453 -203.9079,1.71449 -51.5283,-0.3543 -102.9918,-3.08321 -154.4676,-5.14707 -33.1716,-1.09556 -66.2997,-2.99982 -99.3948,-5.47071 -29.7362,-2.44713 -59.4551,-4.88111 -89.0544,-8.67955 -18.9184,-2.18752 -37.6063,-5.84729 -56.0826,-10.40937 -7.6068,-2.52933 -17.1293,-3.35719 -24.1479,-7.44759 -2.1827,-1.27209 -2.9739,-2.33614 -4.6648,-4.10666 -0.5185,-1.14921 -3.2071,-4.07905 -1.988,-5.63475 0.1777,-0.22667 0.5877,0.007 0.8595,-0.0881 0.6515,-0.22841 1.2461,-0.59552 1.8788,-0.87178 1.3388,-0.58454 2.69,-1.14022 4.035,-1.71031 21.1283,-5.33816 43.2157,-5.22259 64.8708,-5.68407 30.1283,-0.43477 60.2608,-0.3673 90.3914,-0.33457 24.5401,0.0322 49.0802,0.06 73.6203,0.0747 22.6254,-0.0135 45.2431,0.7062 67.8645,1.06696 22.9521,0.34702 45.9075,0.36806 68.8617,0.39931 25.677,0.0214 51.354,0.0116 77.031,0.008 31.292,0.0616 62.5789,-0.68215 93.8586,-1.48053 32.9866,-0.93482 65.9548,-2.45821 98.9348,-3.64061 34.9227,-1.19682 69.8854,-2.42033 104.7131,-5.34686 19.8968,-2.28198 40.0525,-3.90006 59.4921,-9.00882 3.0518,-0.80201 6.0388,-1.83238 9.0583,-2.74855 16.3428,-5.08248 30.0158,-14.5525 43.1356,-25.23238 8.4685,-7.10928 16.4331,-15.0721 22.0624,-24.65308 3.5528,-8.32385 1.2518,-11.94946 -5.6849,-17.38014 -4.7253,-3.6994 -8.8499,-5.51587 -14.2478,-8.37382 -17.2269,-8.04741 -35.1203,-14.86742 -53.5688,-19.55729 -10.9101,-2.77352 -20.0274,-4.28964 -31.0897,-6.35455 -32.7431,-5.21724 -65.74,-8.84261 -98.7715,-11.65834 -30.8161,-2.37741 -61.7372,-2.54272 -92.598,-4.01007 -32.8232,-2.02925 -65.6272,-4.29308 -98.4604,-6.16175 -24.4287,-1.30982 -48.8651,-2.50616 -73.3072,-3.53933 -20.055,-1.14425 -39.9683,-3.75336 -59.7962,-6.88512 -3.8508,-0.64585 -7.7017,-1.29202 -11.5526,-1.93755 -9.1644,-1.53627 -10.9725,-1.73887 -19.7474,-3.56722 -7.8088,-1.62702 -15.5209,-3.65844 -23.2538,-5.60435 -14.2902,-2.74915 -28.0547,-7.44019 -41.5266,-12.84703 -12.95,-5.15963 -25.3106,-11.65055 -38.0057,-17.39124 -6.9586,-3.22596 -14.0727,-6.15358 -20.7104,-10.02001 -3.7881,-2.4593 -7.0536,-5.66208 -10.2382,-8.84502 -1.3403,-1.33059 -2.7963,-2.50643 -4.3011,-3.6407 -5.6854,-4.20436 -11.6312,3.83599 -5.9459,8.04032 v 0 c 1.139,0.81434 2.1842,1.72792 3.1988,2.69425 3.8111,3.76876 7.6903,7.56664 12.2692,10.40144 6.9428,4.01216 14.3245,7.15107 21.6082,10.48183 12.827,5.79729 25.3117,12.36232 38.402,17.56024 13.8903,5.56932 28.0821,10.41064 42.8094,13.26359 7.9059,1.9894 15.7911,4.06043 23.7752,5.72085 8.9141,1.85383 10.7753,2.06706 20.0125,3.61532 3.8824,0.65074 7.7647,1.30196 11.647,1.95294 20.2048,3.18818 40.497,5.84303 60.9333,6.99855 24.3935,1.03071 48.7812,2.2253 73.1613,3.53208 32.8645,1.87044 65.6996,4.13845 98.5542,6.16664 30.7361,1.4582 61.5314,1.6323 92.2234,3.98524 32.702,2.78476 65.3688,6.37627 97.7874,11.52501 10.5528,1.9658 19.7631,3.50422 30.1667,6.13669 17.7922,4.50202 35.0451,11.07334 51.6705,18.79542 10.4112,5.43295 4.2846,1.91185 12.6046,7.29083 0.8996,0.58166 1.8083,1.15001 2.731,1.69439 1.4451,0.85257 1.3804,1.10501 0.5925,2.91581 -4.8572,8.61045 -12.3242,15.50332 -19.7219,21.9043 -12.0136,9.80869 -24.7491,18.76092 -39.7341,23.41814 -2.7849,0.85389 -5.5384,1.81817 -8.3549,2.56172 -18.985,5.01209 -38.6844,6.54767 -58.1172,8.796 -34.6669,2.92296 -69.4711,4.11834 -104.2327,5.31804 -32.9456,1.18116 -65.8794,2.70296 -98.8317,3.63747 -31.195,0.79621 -62.3973,1.53889 -93.6046,1.47725 -25.672,0.003 -51.3441,0.0127 -77.0162,-0.008 -22.9056,-0.0312 -45.8123,-0.052 -68.7158,-0.39807 -22.6726,-0.36147 -45.3415,-1.08309 -68.0179,-1.06823 -24.5386,-0.0148 -49.0771,-0.0425 -73.6156,-0.0747 -30.2054,-0.0328 -60.4127,-0.10035 -90.6158,0.33684 -13.4672,0.28864 -26.9409,0.50578 -40.371,1.65225 -6.2306,0.53186 -14.0604,1.40628 -20.2413,2.72968 -2.7752,0.59423 -5.4811,1.4759 -8.2216,2.21387 -4.0816,1.97467 -7.898,3.12923 -10.6262,7.08726 -4.1634,6.04004 -0.8406,12.36859 2.9521,17.38024 3.025,2.92984 3.7575,4.00402 7.5718,6.12442 7.9445,4.41635 17.3694,5.3689 25.911,8.06217 18.8478,4.64661 37.9085,8.38655 57.2057,10.61924 29.7751,3.81775 59.6694,6.27528 89.5822,8.73305 33.2097,2.47896 66.4524,4.39036 99.7387,5.49042 51.5751,2.06761 103.1377,4.80065 154.7653,5.15456 68.1154,0.6998 136.2479,0.062 204.3438,-1.71947 88.7551,-2.95712 177.549,-7.35243 265.8347,-17.27817 14.51,-1.84999 29.0736,-3.31954 43.53,-5.54998 22.6735,-3.49821 50.0052,-9.12257 72.1065,-15.69434 19.661,-5.84615 35.2028,-11.75523 52.7288,-22.03289 6.6262,-3.88577 12.6656,-8.69524 18.9984,-13.04287 8.8256,-10.43985 13.203,-14.10097 18.8586,-26.54406 5.3412,-11.75131 7.5384,-26.37052 4.4858,-39.03488 -1.0197,-4.2306 -3.1241,-8.12355 -4.6861,-12.18536 -7.0928,-7.94691 -8.5703,-10.62259 -17.8604,-16.62004 -7.8188,-5.04769 -17.0982,-8.6316 -25.7558,-11.8234 -16.1505,-5.95424 -17.4451,-5.93191 -34.632,-10.76389 -56.0265,-13.2135 -112.4291,-25.09599 -169.5528,-32.52311 -35.6145,-4.41404 -71.269,-8.43084 -106.9268,-12.48127 -32.7634,-3.72166 -63.1386,-7.28649 -96.0278,-10.33881 -15.7366,-1.46047 -31.5013,-2.6 -47.2519,-3.90001 -41.805,-2.92594 -54.5129,-4.06804 -96.2597,-5.98855 -61.4324,-2.82615 -122.9533,-3.95555 -184.3074,-8.4211 -13.0186,-1.02333 -26.0531,-1.85997 -39.0557,-3.06994 -17.3805,-1.6174 -41.8943,-4.64571 -59.4207,-7.34293 -10.9756,-1.68907 -23.0694,-4.15089 -34.1765,-6.07983 -2.8512,-0.49514 -5.7141,-0.92006 -8.5712,-1.38009 -7.0164,-0.87707 -8.2568,9.0457 -1.2403,9.92277 z" /><path
           style="fill:#ffffff;stroke-width:20.8481;paint-order:markers stroke fill"
           d="m 5490.9109,2075.959 c -1.3645,9.9552 24.9186,14.8248 32.5757,21.5743 126.5841,62.9863 257.6491,119.2267 397.2898,145.5453 280.2535,64.7942 569.7799,57.7327 855.0179,79.3287 337.8976,22.6054 680.7491,18.6293 1012.144,96.7409 92.8306,27.7905 191.0045,56.4197 266.5972,119.6217 28.011,24.8406 -3.896,60.595 -20.2974,82.0515 -82.8155,96.5973 -199.9609,163.6548 -326.9397,178.8404 -257.7511,36.8001 -518.9761,36.8379 -778.6781,48.522 -678.2246,21.1444 -1356.8878,2.1444 -2035.2408,12.0795 -53.7434,3.2147 -113.0905,0.8508 -160.8093,28.6799 -2.8715,21.0588 26.3121,34.5455 42.5125,42.2217 241.2111,73.3102 495.6148,83.1775 745.491,100.6481 325.9597,16.7567 652.1399,36.0453 978.6784,30.9 356.3008,-2.4389 712.9302,-0.1448 1068.6117,-24.6195 311.5912,-20.773 626.2502,-35.6283 931.1076,-108.1391 126.4239,-34.3898 264.0117,-75.7339 350.4381,-180.8413 41.5098,-53.2956 58.9324,-129.424 35.5635,-193.6118 -51.1753,-85.2821 -157.3577,-105.7905 -244.8029,-134.4413 -314.291,-84.3009 -636.8843,-132.147 -960.0841,-166.4729 -390.8974,-47.3015 -783.3166,-82.9102 -1176.9923,-95.1947 -338.0952,-15.3655 -678.6975,-20.7033 -1012.1828,-83.4334 z"
           id="path6665"
           transform="scale(0.26458333)" /></g><path
         style="fill:#ffffff;stroke-width:1;paint-order:markers stroke fill"
         id="path6741"
         d="m 1368.8932,353.02502 c 0.6279,0.46474 1.2541,0.93181 1.8837,1.39425 1.7295,1.27039 3.075,2.26483 4.893,3.46008 3.3499,2.20245 6.858,4.13629 10.3497,6.10018 8.7482,4.65987 17.7008,8.92033 26.7263,13.01184 5.5791,2.37829 11.126,4.82698 16.6269,7.38153 0.9656,0.43045 1.9274,0.86977 2.897,1.29136 0.9172,0.39885 1.8457,0.77173 2.7633,1.16982 2.9988,1.30096 5.9407,2.69997 8.9902,3.88118 4.5341,1.57816 9.0803,3.13708 13.6661,4.55991 0.9581,0.27574 1.9189,0.5426 2.8745,0.82719 2.2337,0.66527 4.4472,1.39763 6.6816,2.06089 4.7694,1.41581 9.5755,2.65901 14.4,3.87072 7.0844,1.7512 14.2115,3.36571 21.4363,4.4241 3.4185,0.50083 5.6765,0.72173 9.0751,1.09744 6.8962,0.74829 13.803,1.39237 20.6835,2.27756 1.1144,0.17081 2.2323,0.32025 3.3432,0.51247 2.3359,0.40418 5.5408,1.08852 7.8347,1.54252 4.4268,0.87614 8.8657,1.65624 13.3147,2.4098 5.1895,0.88855 10.4125,1.58763 15.6728,1.84274 4.3035,0.13663 8.6105,0.0964 12.9156,0.0872 7.9683,-0.11382 15.9324,0.11094 23.8974,0.30634 4.9105,0.0472 9.8215,0.31763 14.7328,0.3153 1.6667,0 3.905,-0.0941 5.5623,-0.15221 7.8077,-0.31957 15.6235,-0.20984 23.4313,0.0273 4.8107,0.18153 9.6225,0.34004 14.4359,0.4259 1.292,0.023 2.5845,0.0161 3.876,0.0557 1.5764,0.0485 3.1512,0.13915 4.7268,0.20871 9.4179,0.49823 18.833,1.0446 28.2577,1.39964 7.6621,0.2376 15.3297,0.29896 22.989,0.61609 6.0934,0.31662 12.1895,0.57192 18.2898,0.70276 5.1495,0.18404 10.3001,0.49119 15.4335,0.94138 3.8368,0.38579 7.6702,0.78365 11.528,0.83759 4.0972,-0.0198 7.9684,-1.44197 11.5492,-3.34555 0.7464,-0.39679 1.4627,-0.84791 2.1941,-1.27187 2.689,-1.68937 5.0111,-3.86983 6.4365,-6.74738 0.8925,-1.80168 0.8672,-2.22195 1.3173,-4.17886 0.5262,-3.18754 -0.1676,-6.31338 -0.7135,-9.43618 -0.6274,-2.79836 -1.1984,-5.60893 -1.8061,-8.41144 -0.5496,-2.54061 -1.4809,-5.11927 -3.5771,-6.80882 -0.4999,-0.40291 -1.0821,-0.69141 -1.6231,-1.03711 -0.5019,-0.19349 -0.9904,-0.42588 -1.5055,-0.58052 -2.5482,-0.76489 -5.9463,-0.56534 -8.5895,-0.5732 -6.7932,-0.0249 -13.5869,-0.13565 -20.3788,-0.27165 -12.1873,-0.23214 -24.3769,-0.30964 -36.5661,-0.37002 -6.5292,0.0111 -13.0693,-0.0781 -19.5773,-0.6564 -3.1062,-0.27607 -5.3023,-0.59664 -8.3734,-1.00079 -5.6836,-0.83724 -11.2814,-2.14106 -16.9358,-3.14542 -3.7024,-0.60952 -7.4009,-1.27571 -11.1251,-1.739 -4.6012,-0.49776 -9.1734,-1.2151 -13.7713,-1.73894 -2.6562,-0.21387 -5.3162,-0.3778 -7.9754,-0.54846 -2.0047,-0.12864 -4.023,-0.1656 -5.9955,-0.56637 -2.7245,-1.41292 -0.4341,-0.29411 1.935,8.09144 0.078,0.27606 0.096,0.74017 0.3814,0.77144 1.4137,0.15518 2.8365,-0.23492 4.2585,-0.2622 2.1238,-0.0407 4.2489,0.003 6.3723,0.0583 2.8193,0.0756 5.6362,0.22624 8.4543,0.33938 15.9534,0.8682 31.8625,2.35209 47.8084,3.33399 6.7559,0.47 13.53,0.60743 20.2873,1.04603 2.0752,0.13467 4.4459,0.33258 6.5329,0.50046 0.8362,0.0692 1.6732,0.12967 2.5086,0.20767 0.6105,0.057 1.22,0.12417 1.8287,0.19722 0.3998,0.048 0.7995,0.0991 1.1966,0.16587 0.043,0.007 0.1266,0.0979 0.1185,0.0551 -1.7791,-9.41022 -4.3289,-7.2178 -0.6325,-9.65305 -1.3648,0.0459 -2.7295,0.0957 -4.0944,0.1379 -6.96,0.21508 -13.903,0.32726 -20.8668,0.14602 -8.1093,-0.21106 -12.871,-0.51057 -21.0158,-0.93131 -14.2774,-0.69212 -28.5301,-1.79967 -42.8003,-2.61265 -8.489,-0.48363 -11.1139,-0.56801 -19.4835,-0.92745 -2.9209,-0.085 -5.8414,-0.18478 -8.7627,-0.25503 -6.7512,-0.16237 -8.6878,-0.0849 -15.2802,-0.3979 -5.2814,-0.2508 -10.5234,-0.73488 -15.772,-1.3489 -1.0848,-0.14642 -2.1703,-0.288 -3.2545,-0.43926 -1.7635,-0.24609 -3.2441,-0.50237 -5.0177,-0.66974 -3.4071,-0.32153 -6.8396,-0.46715 -10.2524,-0.71814 -11.1547,-0.89804 -22.3369,-1.36736 -33.5017,-2.11558 -15.6834,-1.05333 -31.2518,-3.23191 -46.8587,-5.02028 -12.5985,-1.56991 -25.2258,-2.87221 -37.8679,-4.03093 -7.4785,-0.69178 -14.9726,-1.19771 -22.4191,-2.18895 -5.3231,-0.75046 -10.6027,-1.75855 -15.8725,-2.8103 -5.2364,-1.07937 -10.5244,-1.87237 -15.7827,-2.83379 -3.2076,-0.65752 -6.4584,-1.02058 -9.7129,-1.3425 -1.4112,-0.19235 -2.8405,-0.17528 -4.2566,-0.29051 -0.8841,-0.0719 -1.7615,-0.21108 -2.6421,-0.31858 -2.382,-0.29986 -4.7804,-0.53769 -7.1246,-1.07284 -0.2264,-0.0557 -0.4528,-0.11147 -0.6792,-0.16719 -6.8692,-1.67753 -9.2415,8.03699 -2.3723,9.7145 v 0 c 0.3005,0.0729 0.601,0.14589 0.9015,0.21883 2.662,0.57293 5.3612,0.92652 8.0656,1.23336 2.3714,0.28816 4.7434,0.45937 7.1247,0.63399 2.9818,0.29412 5.9608,0.61834 8.8986,1.22812 5.2052,0.9503 10.439,1.73792 15.6228,2.80321 5.4826,1.09421 10.9761,2.13926 16.5145,2.91682 7.5814,1.00269 15.2075,1.54022 22.8217,2.23409 12.567,1.15141 25.1191,2.44681 37.6425,4.00772 2.8012,0.3207 5.6044,0.62375 8.4035,0.9621 10.334,1.24908 5.4747,0.79169 15.7677,1.94244 5.2715,0.58934 10.1886,1.0622 15.4736,1.52432 2.5602,0.22384 5.1225,0.42267 7.6838,0.63402 11.1434,0.74549 22.3038,1.21674 33.4372,2.11106 3.256,0.23897 6.5335,0.37243 9.7847,0.6727 1.6483,0.15224 3.2428,0.42431 4.8829,0.65252 1.1434,0.15906 2.2882,0.30771 3.4323,0.46159 5.5204,0.64077 11.0326,1.14771 16.587,1.41023 6.7065,0.31697 8.517,0.23632 15.3321,0.39955 2.8751,0.0689 5.7495,0.16671 8.6242,0.25005 8.2651,0.3546 10.9134,0.44016 19.2945,0.91755 14.3043,0.81476 28.5912,1.92519 42.9029,2.61848 8.2967,0.4277 13.1313,0.73181 21.4016,0.94374 7.1204,0.18246 14.2212,0.0724 21.3377,-0.15102 1.459,-0.0458 2.9176,-0.101 4.3764,-0.15151 1.2704,-0.30924 3.5122,0.34513 3.8113,-0.92773 0.704,-2.99641 -0.6373,-6.15074 -1.4506,-9.11934 -0.1005,-0.36674 -0.7398,-0.17918 -1.1146,-0.24321 -2.0115,-0.34366 -4.0602,-0.44002 -6.0881,-0.63092 -2.2162,-0.17807 -4.5493,-0.37317 -6.7615,-0.5162 -6.7436,-0.43598 -13.5035,-0.57735 -20.2458,-1.04355 -16.0179,-0.9853 -31.9985,-2.48253 -48.0247,-3.34496 -5.4312,-0.21466 -10.4508,-0.51301 -15.8613,-0.38526 -1.6271,0.0384 -3.2693,0.0379 -4.8722,0.32038 -1.9057,0.33589 -4.8633,-0.26334 -5.6013,1.52551 -1.1491,2.78511 0.4304,6.05692 1.2804,8.94736 0.1445,0.49133 0.984,0.28416 1.4761,0.42624 0.6452,0.10914 1.2861,0.24794 1.9357,0.32745 1.2301,0.1506 4.0344,0.30321 5.1843,0.37701 2.5005,0.16044 5.0013,0.31871 7.5,0.50585 4.5705,0.51864 9.1145,1.23796 13.6886,1.72919 3.5469,0.42301 7.0636,1.0958 10.59,1.65891 5.8027,1.02904 11.5453,2.37908 17.382,3.21424 3.3977,0.44487 5.5188,0.75718 8.9731,1.06116 6.7251,0.59185 13.4827,0.69241 20.2295,0.68096 12.139,0.0601 24.2785,0.13711 36.4157,0.36817 6.849,0.13671 13.6998,0.24852 20.55,0.27358 1.5164,0.004 2.2866,0 3.7339,0.0254 0.3568,0.006 0.7137,0.0143 1.0704,0.028 0.1511,0.006 0.6296,0.0656 0.6545,0.008 0.018,-0.0422 -0.057,-0.0718 -0.086,-0.10776 -0.2132,-0.22186 -0.3798,-0.33457 -0.4768,-0.62558 -0.012,-0.0361 -0.01,-0.13394 0.021,-0.11206 0.4217,0.29716 0.4504,1.53469 0.6349,1.90879 0.5827,2.6712 1.1138,5.35376 1.7289,8.01809 0.336,1.90251 0.8222,3.80653 0.7548,5.75281 -0.1902,2.15233 -1.2685,3.06245 -3.0107,4.25548 -1.5745,0.94218 -3.1569,1.78599 -4.8672,2.4624 -0.6677,0.26408 -1.5908,0.57861 -2.3194,0.68132 -0.4564,0.0643 -0.9196,0.0647 -1.3794,0.097 -3.606,-0.0279 -7.1863,-0.46995 -10.7738,-0.80055 -5.3514,-0.46251 -10.7187,-0.79372 -16.0869,-0.97676 -6.0345,-0.12848 -12.0647,-0.38457 -18.0924,-0.69662 -7.6712,-0.31348 -15.35,-0.3859 -23.024,-0.61746 -9.4045,-0.35351 -18.7992,-0.90212 -28.1972,-1.39718 -1.6733,-0.0724 -3.3458,-0.16566 -5.0199,-0.2172 -1.2671,-0.039 -2.5353,-0.0318 -3.8028,-0.0544 -4.7847,-0.0851 -9.5676,-0.24342 -14.3496,-0.42365 -8.0261,-0.24281 -16.0604,-0.35304 -24.0864,-0.0257 -1.1405,0.0404 -3.8174,0.14703 -5.0299,0.14764 -4.8896,0.003 -9.7789,-0.26707 -14.6678,-0.3139 -8.0538,-0.19757 -16.1069,-0.42286 -24.1642,-0.30933 -4.1411,0.009 -8.2839,0.0473 -12.4237,-0.0761 -4.8591,-0.22059 -9.68,-0.90678 -14.4735,-1.71344 -4.3443,-0.73541 -8.6787,-1.49614 -13.0013,-2.35157 -2.7503,-0.54427 -5.5421,-1.15094 -8.3067,-1.62629 -1.1895,-0.20455 -2.3863,-0.36382 -3.5795,-0.54573 -6.9401,-0.89095 -13.9055,-1.54741 -20.8616,-2.2988 -3.1976,-0.35208 -5.3779,-0.56547 -8.5863,-1.03127 -6.9402,-1.00761 -13.783,-2.57175 -20.5876,-4.24981 -4.6483,-1.16563 -9.2807,-2.3598 -13.8756,-3.72383 -2.2999,-0.68273 -4.5787,-1.43484 -6.878,-2.11952 -0.8907,-0.26522 -1.7866,-0.51274 -2.6799,-0.7691 -4.3739,-1.35016 -8.7038,-2.84988 -13.0315,-4.33993 -2.0432,-0.77973 -4.0179,-1.67621 -6.0139,-2.57006 -5.8479,-2.61889 0.4558,0.20048 -5.2612,-2.28248 -0.9223,-0.40052 -1.8371,-0.81804 -2.7557,-1.22705 -5.5286,-2.56625 -11.101,-5.03233 -16.7093,-7.41932 -8.7627,-3.97192 -17.4549,-8.10667 -25.9537,-12.62049 -3.2285,-1.8148 -6.484,-3.59183 -9.5844,-5.62316 -1.7652,-1.1566 -2.9362,-2.03203 -4.6192,-3.26491 -0.5435,-0.3982 -1.085,-0.79915 -1.6276,-1.19872 -5.5499,-4.38153 -11.7464,3.46728 -6.1964,7.84884 z" /><path
         style="fill:#ffffff;stroke-width:1;paint-order:markers stroke fill"
         id="path6745"
         d="m 2092.4284,413.13512 c -3.4415,0.12354 -6.8485,-0.27524 -10.2506,-0.77068 -7.0294,-1.0237 -7.2084,-1.20226 -14.8571,-2.81077 -11.7546,-2.59951 -23.4853,-5.35818 -35.3722,-7.30332 -6.7118,-1.09829 -7.4086,-1.08802 -14.095,-1.82557 -13.6945,-1.11752 -27.3698,-2.43666 -41.0474,-3.73899 -1.6729,-0.14938 -3.3447,-0.31244 -5.0187,-0.44815 -6.9662,-0.56473 -2.8516,-0.1 -10.579,-0.88506 -7.5797,-0.77009 -15.1491,-1.65626 -22.7153,-2.54624 -14.2538,-1.68056 -28.5488,-2.97471 -42.8392,-4.29596 -9.9745,-0.97108 -19.9707,-1.70037 -29.9653,-2.42859 -5.623,-0.35528 -11.2437,-0.7739 -16.8519,-1.31775 -6.2352,-0.58841 -12.4225,-1.62883 -18.6121,-2.57472 -7.5492,-1.12249 -15.0676,-2.43961 -22.6219,-3.52753 -4.5704,-0.59478 -9.1269,-1.26904 -13.7315,-1.51762 -3.6792,-0.24942 -7.3388,-0.71467 -11.0156,-0.99539 -3.2188,-0.21243 -6.446,-0.2908 -9.6656,-0.0751 -2.9246,0.29694 -5.2819,1.33249 -7.4173,3.38574 -1.0717,1.03045 -2.2169,2.60323 -3.1252,3.78293 -1.8249,2.75953 -3.4849,5.70003 -4.5357,8.8537 -0.5473,1.64246 -0.5715,2.0869 -0.8581,3.70216 -0.1438,1.81856 -0.061,3.74793 0.7867,5.41435 0.3394,0.66704 0.8138,1.2563 1.2207,1.88444 4.3222,5.59634 12.2366,-0.51612 7.9144,-6.11245 v 0 c 0.045,0.15983 0.1095,0.31546 0.1357,0.47945 0.013,0.0799 -0.072,0.26828 -0.1254,0.20783 -0.057,-0.0637 -0.043,-0.16471 -0.065,-0.24704 0.081,-0.59029 0.1363,-1.15065 0.3192,-1.72477 0.7211,-2.26354 1.9001,-4.37324 3.1482,-6.37924 0.3726,-0.49035 0.7414,-0.98353 1.1177,-1.471 0.2487,-0.32226 0.5194,-0.62775 0.7573,-0.95803 0.068,-0.0941 0.089,-0.21653 0.1566,-0.31067 0.3009,-0.41828 0.8079,-0.46612 1.2794,-0.53258 2.7297,-0.21035 5.4709,-0.0822 8.2011,0.0717 3.7535,0.28196 7.4878,0.77507 11.2451,1.01015 4.3045,0.22003 8.5599,0.89469 12.8337,1.42957 7.5258,1.08124 15.0146,2.39937 22.5353,3.5147 6.371,0.97324 12.74,2.03941 19.1582,2.64281 5.6874,0.55044 11.3872,0.97817 17.0896,1.33795 9.9299,0.72332 19.8614,1.44756 29.7713,2.41252 14.2078,1.31363 28.4203,2.59948 42.5918,4.27001 7.6478,0.89924 15.2987,1.79591 22.9603,2.57199 8.1014,0.82063 3.5925,0.31945 10.6127,0.88815 1.6546,0.13401 3.3068,0.29514 4.9602,0.44273 13.6297,1.29759 27.2568,2.61532 40.9038,3.72424 6.3693,0.69596 7.0178,0.68337 13.4388,1.73146 11.7858,1.92376 23.4133,4.67307 35.0682,7.24448 8.9303,1.86621 17.979,3.93658 27.1593,3.79418 7.0711,0 7.0711,-10.00001 0,-10.00001 z" /><path
         style="fill:#ffffff;stroke-width:1;paint-order:markers stroke fill"
         id="path6747"
         d="m 2132.1637,431.56444 c 9.7577,1.71987 19.5241,3.38881 29.284,5.09592 9.3259,1.69463 18.6542,3.36497 27.9129,5.3997 3.8432,1.01407 7.7827,1.60758 11.65,2.50809 1.4486,0.33729 3.1828,0.86085 4.6029,1.27191 1.8967,0.65857 3.8978,1.02295 5.7416,1.83628 0.196,0.0865 0.5086,0.11377 0.5559,0.32274 0.044,0.19614 -0.4489,-0.0859 -0.5426,-0.26384 -0.6629,-1.25947 -1.1104,-2.62102 -1.6656,-3.93152 0.88,-1.31956 1.9642,-2.52376 2.6401,-3.95867 0.1091,-0.23167 -0.5143,0.0182 -0.7681,-0.0161 -0.7524,-0.10187 -1.4969,-0.25564 -2.2438,-0.39172 -3.7167,-0.6772 -5.697,-1.04457 -9.5441,-1.92545 -2.067,-0.47329 -4.1214,-0.99949 -6.1821,-1.49923 -10.5822,-2.73857 -21.2097,-5.31506 -31.9374,-7.42495 -8.0011,-1.57367 -10.8204,-1.96583 -18.8735,-3.2788 -15.3695,-2.29613 -30.8443,-3.78299 -46.2317,-5.94656 -2.5024,-0.35187 -4.9988,-0.74573 -7.4982,-1.11858 -8.6517,-1.32845 -17.1958,-3.23874 -25.7928,-4.86609 -0.5757,-0.11297 -1.8068,-0.92011 -1.727,-0.33893 0.3933,2.86285 2.3136,5.35488 2.8072,8.20211 0.1104,0.6364 -1.687,1.29905 -1.1096,1.58851 1.4995,0.75168 3.3468,0.23177 5.0183,0.37089 7.7565,0.6455 10.8692,0.99158 19.0013,1.79882 19.4043,1.94601 38.7139,4.68263 57.9681,7.75277 12.5686,1.80591 24.9307,4.73194 37.3309,7.41085 8.3617,1.5876 16.4819,4.15867 24.4274,7.17222 4.5505,1.96437 9.2722,3.49358 13.8602,5.35691 4.1244,1.71926 8.2903,3.33682 12.5207,4.77597 3.487,1.3131 6.9767,2.619 10.463,3.93411 2.9671,1.33615 5.9582,2.62028 8.9061,3.99963 2.0997,0.99557 3.6054,2.79223 5.165,4.45918 2.3764,2.9496 4.6651,5.96852 7.0812,8.88733 0.9203,1.25473 2.1569,2.23941 3.1194,3.45564 0.1434,0.18122 0.234,0.39854 0.3522,0.59714 0.1971,0.64003 1.7189,2.54376 1.6944,2.94849 0,0.0473 -0.088,-0.0344 -0.1323,-0.0516 0,0.2196 0,0.43918 0,0.65879 0.1462,2.99241 0.072,5.90126 -0.7545,8.79332 -0.7628,2.18154 -1.1898,4.45458 -1.8067,6.67676 -0.4406,1.58697 -0.5229,1.77755 -1.0328,3.33171 -1.3085,3.47107 -2.8233,6.86128 -4.2917,10.2671 -1.2561,2.91492 -2.412,5.87563 -3.8223,8.72146 -0.9061,1.57404 -1.6815,3.23012 -2.7342,4.71588 -0.6416,0.90557 -0.7513,0.97185 -1.5161,1.8096 -2.2951,2.54066 -4.8367,4.83706 -7.4403,7.05389 -2.6024,2.24756 -5.6749,3.73055 -8.7414,5.21534 -4.4728,2.23938 -9.0057,4.35086 -13.5771,6.38019 -5.5975,2.29333 -11.1166,4.76771 -16.6095,7.30014 -5.9163,2.72868 -12.0851,4.82545 -18.1788,7.10713 -4.0519,1.49633 -8.2008,2.71328 -12.2627,4.18272 -2.8729,1.03931 -3.7428,1.43785 -6.5111,2.58948 -4.2527,1.77242 -8.361,3.90604 -12.7292,5.3962 -0.7215,0.24614 -1.4569,0.44934 -2.1854,0.674 -4.4113,1.05167 -8.9065,1.719 -13.3788,2.4583 -0.6725,0.10903 -1.346,0.21256 -2.0177,0.32713 -1.6107,0.2748 -2.5434,0.47932 -4.1509,0.70527 -2.3986,0.33719 -4.8179,0.55515 -7.2228,0.84352 -4.5685,0.45836 -8.9828,1.72532 -13.4465,2.72105 -4.2137,0.91851 -8.4969,1.4745 -12.7586,2.12315 -4.2338,0.55965 -8.4745,1.04913 -12.7058,1.63203 -3.6403,0.40699 -7.2844,0.79963 -10.9378,1.07112 -2.4367,0.0994 -4.8655,0.27093 -7.2816,0.60489 -0.4516,0.083 -0.9031,0.16594 -1.3546,0.24892 -6.9498,1.30418 -5.1054,11.13263 1.8444,9.82842 v 0 c 0.3015,-0.0583 0.6031,-0.11671 0.9047,-0.17505 2.1987,-0.31755 4.4142,-0.42661 6.6316,-0.53493 3.8606,-0.28943 7.7121,-0.69858 11.5582,-1.13697 1.4134,-0.19476 2.8238,-0.41161 4.2388,-0.59489 2.8665,-0.37129 5.7533,-0.58552 8.6068,-1.05738 4.4902,-0.68347 9.0023,-1.27381 13.4403,-2.25123 4.1339,-0.92983 8.222,-2.10982 12.4517,-2.55038 2.5388,-0.30498 5.0902,-0.5407 7.6221,-0.89961 1.8104,-0.25661 2.4017,-0.40687 4.1606,-0.70686 0.6819,-0.11628 1.3657,-0.22145 2.0485,-0.33218 4.9268,-0.81481 9.8841,-1.53779 14.7257,-2.77813 0.9011,-0.28376 1.8101,-0.54358 2.7033,-0.85127 4.4829,-1.5441 8.721,-3.68977 13.0801,-5.53476 2.4083,-1.00582 3.4085,-1.45651 5.898,-2.35723 4.1527,-1.50246 8.3957,-2.74285 12.5356,-4.28043 6.3237,-2.36826 12.7229,-4.55109 18.8591,-7.39089 5.4499,-2.5132 10.9271,-4.96491 16.4804,-7.24173 4.6725,-2.07507 9.307,-4.23174 13.8793,-6.52042 3.8797,-1.88087 7.5688,-3.76327 10.868,-6.60413 2.9545,-2.52071 5.8339,-5.13659 8.434,-8.02809 0.4527,-0.51914 0.9253,-1.02161 1.3582,-1.55747 1.7709,-2.19221 3.0289,-4.7252 4.38,-7.18111 1.4758,-3.004 2.7242,-6.10886 4.0368,-9.18578 1.5888,-3.68554 3.234,-7.35282 4.6149,-11.12261 0.5909,-1.81771 0.693,-2.06176 1.2006,-3.90294 0.6074,-2.2029 1.0354,-4.45262 1.7904,-6.61469 0.1637,-0.6323 0.3544,-1.25826 0.4912,-1.89691 0.7288,-3.40296 0.7216,-6.9134 0.5667,-10.3723 -0.2257,-1.96241 -0.1326,-2.28375 -0.8477,-4.12014 -0.5418,-1.3915 -1.5862,-2.51635 -2.2057,-3.86779 -0.5578,-0.87058 -0.6571,-1.07556 -1.3347,-1.91032 -0.9107,-1.12191 -2.0269,-2.0615 -2.9085,-3.20937 -2.5509,-3.07422 -4.9283,-6.28567 -7.4895,-9.35016 -2.4379,-2.5903 -4.922,-5.183 -8.2188,-6.67327 -3.1799,-1.48743 -6.4034,-2.88094 -9.6142,-4.29831 -3.5899,-1.35417 -7.1822,-2.7023 -10.7759,-4.04627 -4.0541,-1.37507 -8.0415,-2.93521 -11.9935,-4.58013 -4.6634,-1.87354 -9.4393,-3.46165 -14.0646,-5.43689 -8.4143,-3.1776 -17.0058,-5.90757 -25.8553,-7.59402 -12.5783,-2.71695 -25.119,-5.67902 -37.8679,-7.5116 -19.4492,-3.10065 -38.9544,-5.86338 -58.555,-7.8286 -7.7895,-0.77285 -11.7448,-1.20306 -19.2607,-1.82118 -1.8125,-0.14906 -3.63,-0.55179 -5.4416,-0.39277 -2.1638,0.18992 -5.5649,-0.59375 -6.3578,1.42843 -3.155,8.04714 0.687,8.24735 4.2225,8.94077 8.7249,1.65143 17.3961,3.59135 26.178,4.93123 2.5516,0.3802 5.1,0.78158 7.6547,1.14064 15.2908,2.14913 30.6674,3.63286 45.9419,5.9037 7.8204,1.27321 10.6671,1.6709 18.431,3.19644 10.6265,2.08798 21.1521,4.64402 31.634,7.35644 5.4479,1.31781 6.8135,1.71106 12.1343,2.76985 1.5671,0.31184 3.1338,0.63566 4.7158,0.85989 0.3486,0.0494 5.8034,0.87945 6.9449,0.11139 1.7786,-1.19679 3.0593,-3.00389 4.5889,-4.50585 -0.5265,-1.5557 -0.8001,-3.22141 -1.5795,-4.66707 -0.3143,-0.58306 -1.0213,-0.85039 -1.5838,-1.20025 -2.4442,-1.52038 -5.4218,-1.90876 -8.0849,-2.86734 -1.9921,-0.57354 -3.3359,-0.98791 -5.3615,-1.4591 -3.8242,-0.88961 -7.72,-1.47476 -11.5195,-2.48034 -9.3994,-2.06298 -18.8675,-3.76595 -28.3352,-5.48299 -15.7512,-2.75433 5.5977,0.96677 -10.7449,-1.84089 -6.5873,-1.1317 -13.1474,-2.42564 -19.7625,-3.39206 -7.0622,-0.35311 -7.5616,9.63443 -0.4994,9.98754 z" /><path
         style="fill:#ffffff;stroke-width:1;paint-order:markers stroke fill"
         id="path6749"
         d="m 2008.185,595.54027 c -3.5319,1.56022 -7.4151,2.06261 -11.2025,2.61004 -6.8698,0.8051 -13.7939,0.94221 -20.7008,1.15411 -6.5575,0.19669 -13.1179,0.24342 -19.6778,0.26943 -4.3497,0.0437 -8.7049,-0.0482 -13.0529,0.11736 -2.0934,0.0797 -4.7792,0.28814 -6.8785,0.43794 -5.6862,0.38238 -11.3714,0.79833 -17.0647,1.06125 -5.2479,0.20476 -10.5006,0.20701 -15.7516,0.21984 -4.0198,0.006 -8.0396,0.004 -12.0595,2.4e-4 -7.071,-0.006 -7.0795,9.99394 -0.01,9.99998 v 0 c 4.0308,0.003 8.0616,0.006 12.0925,-2.4e-4 5.3971,-0.0132 10.7961,-0.0169 16.1899,-0.23056 5.7768,-0.26858 11.5456,-0.68612 17.3151,-1.07598 1.6271,-0.1166 4.7088,-0.35139 6.3498,-0.41418 4.2998,-0.16446 8.6067,-0.0716 12.908,-0.11573 6.649,-0.0265 13.2985,-0.0744 19.945,-0.27405 7.2864,-0.22384 14.5912,-0.37447 21.8356,-1.25389 4.8393,-0.71004 9.768,-1.45169 14.233,-3.56129 6.3246,-3.16228 1.8524,-12.10654 -4.4721,-8.94427 z" /><path
         style="fill:#ffffff;stroke-width:1;paint-order:markers stroke fill"
         id="path6751"
         d="m 1824.9505,604.46895 c -1.6881,0.4367 -2.2317,0.60788 -4.2621,0.91425 -8.6328,1.30265 -17.3681,1.7082 -26.0755,2.14521 -16.7309,0.54081 -33.4725,0.22159 -50.2061,0.005 -9.8749,-0.24196 -19.7452,-0.63434 -29.6203,-0.87056 -5.4633,-0.12671 -10.9282,-0.14782 -16.3928,-0.15557 -6.2815,-0.003 -12.563,0.003 -18.8446,0.004 -6.6356,-0.0122 -13.2714,0.0401 -19.9067,-0.0406 -6.6814,-0.1302 -13.3631,-0.22831 -20.0455,-0.28027 -5.8946,-0.23093 -11.7827,-0.51617 -17.6826,-0.53724 -5.5538,0.0284 -11.1074,0.0787 -16.6612,0.10375 -6.5003,-0.19288 -12.9583,0.59338 -19.391,1.4211 -4.0091,0.51779 -8.0216,1.01783 -12.0414,1.44645 -3.2951,0.4068 -6.5981,0.35145 -9.9035,0.17182 -1.5028,-0.019 -2.3429,-0.0973 -3.848,0.16814 -0.6452,0.11383 -1.2685,0.32888 -1.9027,0.49332 -6.769,2.04449 -3.8777,11.61738 2.8914,9.57289 v 0 c 0.5963,-0.45813 1.6924,-0.19751 2.3205,-0.24887 3.8393,0.20582 7.6788,0.24678 11.5053,-0.21394 4.0914,-0.43847 8.176,-0.9439 12.2566,-1.47182 6.024,-0.77756 12.0696,-1.5344 18.1579,-1.33919 5.5274,-0.0249 11.0546,-0.0745 16.582,-0.10369 5.8855,0.019 11.7584,0.3221 17.639,0.53697 6.6681,0.0518 13.3355,0.15028 20.0026,0.27985 6.6765,0.0799 13.3536,0.0306 20.0305,0.0413 6.2758,-0.003 12.5515,-0.007 18.8273,-0.004 5.3896,0.008 10.7795,0.028 16.168,0.15272 9.9115,0.2368 19.8181,0.63297 29.7295,0.87257 16.9444,0.21969 33.897,0.54179 50.8384,-0.0164 7.3107,-0.36888 14.6009,-0.74306 21.8759,-1.58594 3.7928,-0.43945 5.7146,-0.65183 9.1857,-1.44963 0.7205,-0.1656 1.4245,-0.39589 2.1368,-0.59383 6.6591,-2.37826 3.2957,-11.79568 -3.3634,-9.41742 z" /><path
         style="fill:#ffffff;stroke-width:1;paint-order:markers stroke fill"
         id="path6755"
         d="m 1449.1717,602.13512 c -10.0281,-0.28533 -20.058,-0.63894 -30.0817,-1.07283 -19.2216,-0.97931 -38.4324,-2.19247 -57.6235,-3.6507 -11.202,-0.87932 -22.4171,-1.58033 -33.6436,-2.05094 -2.7517,-0.18082 -5.5151,-0.0755 -8.267,-0.22162 -7.0628,-0.34158 -7.5459,9.64676 -0.483,9.98834 v 0 c 2.7752,0.12539 5.5566,0.0688 8.3315,0.22453 11.1134,0.46527 22.2154,1.16064 33.3045,2.03094 19.2996,1.466 38.6189,2.68671 57.949,3.67011 10.1677,0.43926 20.3413,0.80222 30.5138,1.08217 7.071,0 7.071,-10 0,-10 z" /><path
         style="fill:#ffffff;stroke-width:1;paint-order:markers stroke fill"
         id="path6757"
         d="m 1258.6685,588.63512 c -3.4257,-0.0477 -6.8019,-0.80438 -10.1391,-1.50428 -4.8533,-1.01786 -4.8966,-1.0753 -9.9607,-2.3122 -9.7003,-2.51034 -19.2722,-5.48153 -28.8355,-8.46299 -6.5393,-1.94976 -13.0223,-4.07045 -19.4285,-6.41908 -2.5163,-0.90323 -5.0356,-1.80523 -7.4737,-2.90565 -1.5183,-0.7806 -3.078,-1.49704 -4.5513,-2.36207 0,-0.0138 -0.024,-0.0508 -0.013,-0.0415 0.3183,0.26811 0.6564,0.51716 0.9396,0.82212 0.7101,0.76464 0.719,1.9195 0.5985,2.88843 0.733,-0.83984 1.7671,-1.32842 2.7194,-1.88082 1.8339,-0.72969 3.8515,-0.86902 5.7979,-1.07683 3.1778,-0.29218 6.3737,-0.28755 9.5621,-0.31078 3.452,0.0818 6.8838,-0.25646 10.3034,-0.68479 3.1166,-0.41026 6.2373,-0.7633 9.3686,-1.03836 3.404,-0.23648 6.7999,-0.56181 10.2097,-0.70371 6.7319,-0.13311 13.4657,-0.12615 20.1987,-0.13396 5.7511,0.007 11.4772,-0.58303 17.1965,-1.11575 4.4883,-0.42312 8.9818,-0.73509 13.4825,-0.98401 3.9122,-0.20989 7.8285,-0.33684 11.7454,-0.41788 2.9247,-0.0471 5.85,-0.037 8.7751,-0.0366 4.0885,0.003 8.1771,0.003 12.2656,0.004 8.1118,0.11618 16.1992,0.87792 24.2861,1.46923 8.7383,0.73586 17.4194,1.99443 26.1448,2.86343 6.9137,0.59463 13.8262,1.19153 20.7586,1.51323 7.2087,0.24149 14.4175,0.47988 21.6288,0.62487 6.144,0.14084 12.2835,0.13671 18.4221,-0.15439 6.6909,-0.32623 13.3734,-0.76922 20.0695,-0.97464 6.3991,-0.19952 12.8021,-0.15865 19.2023,-0.28006 0.8084,-0.0217 1.6171,-0.0357 2.4253,-0.0651 0.5261,-0.019 4.5521,-0.21743 4.9751,-0.2236 3.2685,-0.0475 6.5209,0.16206 9.7764,0.41603 7.0503,0.54195 7.8167,-9.42866 0.7664,-9.97058 v 0 c -3.6607,-0.2776 -7.3066,-0.49083 -10.9809,-0.43585 -0.6385,0.01 -4.0061,0.18833 -4.8059,0.21762 -0.7823,0.0286 -1.5652,0.0422 -2.3478,0.0633 -6.439,0.1244 -12.8811,0.0783 -19.319,0.283 -6.7524,0.20899 -13.4915,0.64883 -20.2386,0.98128 -2.5205,0.12137 -3.8496,0.20939 -6.348,0.23815 -3.7982,0.0437 -7.5982,-0.0641 -11.3961,-0.0931 -7.1244,-0.14293 -14.2462,-0.37936 -21.3681,-0.61624 -6.7561,-0.31067 -13.492,-0.89961 -20.23,-1.47474 -8.8123,-0.876 -17.579,-2.15696 -26.4056,-2.88596 -8.329,-0.60894 -16.6585,-1.39116 -25.0135,-1.49585 -4.0888,0 -8.1776,-0.003 -12.2664,-0.004 -2.9945,0 -5.9894,-0.0106 -8.9836,0.0388 -4.0319,0.0838 -8.0631,0.21455 -12.0903,0.431 -4.6258,0.25585 -9.2444,0.57814 -13.8576,1.01185 -5.4148,0.50437 -10.8358,1.07489 -16.2808,1.07267 -6.87,0.008 -13.741,0 -20.6098,0.14288 -3.5607,0.15287 -7.108,0.47892 -10.6623,0.73316 -3.2563,0.28633 -6.5017,0.65283 -9.7428,1.07833 -3.0294,0.38389 -6.0676,0.69091 -9.127,0.60669 -3.5229,0.0259 -7.054,0.0292 -10.564,0.36849 -3.3476,0.36586 -6.7527,0.76038 -9.767,2.38432 -2.4048,1.41221 -4.7465,2.93872 -6.2471,5.3653 -0.6545,1.24089 -1.2367,2.05771 -1.3304,3.5415 -0.1823,2.88904 0.9984,5.08018 3.4156,6.62186 1.7724,0.99938 3.5925,1.91431 5.4219,2.80463 2.6563,1.18489 5.3811,2.20046 8.1228,3.16982 6.5602,2.40456 13.1979,4.5797 19.8941,6.57685 9.7635,3.04382 19.5365,6.07499 29.4417,8.63124 5.0811,1.23814 5.4977,1.38819 10.3767,2.40435 3.9819,0.82931 8.0074,1.67481 12.0932,1.69706 7.0711,0 7.0711,-10.00001 0,-10.00001 z" /><path
         style="fill:#ffffff;stroke-width:1;paint-order:markers stroke fill"
         id="path6759"
         d="m 1497.2902,557.98648 c -6.8686,-0.90358 -13.651,-2.42478 -20.535,-3.21884 -1.9089,-0.22022 -3.8277,-0.34454 -5.7416,-0.51681 -2.542,0.004 -5.0847,-0.0447 -7.626,0.0127 -3.7626,0.0849 -12.2235,0.57726 -15.9112,0.77795 -7.9252,0.43135 -15.8514,0.83714 -23.7783,1.23682 -10.6197,0.39315 -21.1661,1.71239 -31.6898,3.10941 -7.0095,0.9312 -5.6926,10.84411 1.3169,9.91291 v 0 c 10.2535,-1.36319 20.5288,-2.65621 30.8765,-3.03499 7.9405,-0.40039 15.8803,-0.8066 23.8191,-1.23896 3.6969,-0.20135 11.5968,-0.66106 15.4117,-0.76324 2.2318,-0.0598 4.4652,-0.0344 6.6978,-0.0517 1.7313,0.151 3.4674,0.25501 5.194,0.453 7.3595,0.84396 14.5913,2.58995 21.9659,3.32176 7.071,0 7.071,-10 0,-10 z" /></g><g
       id="g6799"><g
         id="g6670"><path
           style="fill:#ffffff;stroke-width:1;paint-order:markers stroke fill"
           id="path6407"
           d="m 2140.7407,1057.4865 c -13.6379,-0.2245 -27.1785,1.3774 -40.5925,3.6755 -13.6262,2.3518 -27.0121,5.8366 -40.1552,10.0969 -7.8032,2.8921 -16.1553,5.9868 -22.5405,11.558 -0.9247,0.8069 -1.6936,1.7765 -2.5405,2.6648 -0.5367,1.0423 -1.3048,1.995 -1.6101,3.1269 -1.7604,6.527 3.0548,10.0889 8.0891,12.6139 6.1938,1.9155 12.7181,2.5796 19.1412,3.3349 7.958,0.4829 15.835,1.4935 23.6498,3.0674 10.4688,2.397 20.9756,4.4379 31.6489,5.6525 8.6557,0.9341 17.368,0.7732 26.0527,1.1278 8.3784,0.2706 16.7256,0.7631 25.0522,1.724 5.2806,0.7245 10.6613,0.4083 15.8945,1.4454 4.876,1.1283 8.8381,4.2234 12.9489,6.9004 3.7574,2.2157 4.6606,6.0021 4.1953,10.1009 -0.7928,3.9288 -2.6323,5.1345 -5.8742,7.0328 -4.5893,2.0565 -9.7414,2.4012 -14.6825,2.8688 -5.3533,0.5066 -8.5337,0.684 -13.8931,1.0446 -11.9479,0.7578 -23.886,1.592 -35.8502,2.0568 -11.6068,0.3563 -23.22,0.3833 -34.8311,0.4075 -11.2921,0.01 -22.5841,0 -33.8762,-0.01 -10.3209,0.2167 -20.6185,-0.1548 -30.9232,-0.6617 -12.2564,-0.9752 -24.4836,-2.3289 -36.7163,-3.5737 -14.7164,-1.2726 -29.2853,-3.7704 -43.9398,-5.5625 -11.1763,-1.4254 -22.3368,-2.9609 -33.5008,-4.4819 -12.1918,-1.5508 -24.1508,-4.2978 -36.0611,-7.2547 -10.0173,-2.7165 -20.2091,-4.8113 -30.1087,-7.9429 -8.4602,-2.6766 -16.7916,-5.7251 -25.1797,-8.6136 -11.1405,-4.3002 -22.18,-8.8596 -33.2148,-13.4231 -15.8025,-6.2616 -31.4889,-12.7954 -47.1196,-19.4734 -11.1428,-4.7145 -22.1331,-9.7757 -33.3661,-14.2745 -10.0692,-4.112 -20.0736,-8.3855 -30.1444,-12.4949 -13.5711,-5.1981 -26.381,-12.0774 -39.5592,-18.1541 -14.0242,-6.317 -28.2636,-12.1086 -42.4942,-17.9407 -13.1558,-5.8031 -26.8186,-10.2766 -40.1882,-15.53354 -10.4153,-4.02788 -20.4987,-8.87497 -30.9115,-12.9069 -4.7142,-1.82536 -8.3834,-3.00257 -13.2137,-4.63524 -13.3586,-4.76527 -26.3371,-10.4908 -39.5403,-15.65817 -11.1422,-4.17383 -22.3934,-8.00989 -33.5156,-12.24185 -12.4699,-5.04206 -24.466,-11.13152 -36.702,-16.69012 -12.2877,-5.53533 -24.1324,-12.00812 -35.9476,-18.47729 -8.4971,-4.54215 -16.215,-10.34277 -24.3868,-15.4169 -10.9809,-6.4031 -22.0289,-12.69436 -33.1972,-18.76517 -9.143,-5.31686 -18.9736,-9.18321 -28.6463,-13.37324 -5.0112,-2.17723 -10.1272,-4.11485 -15.3726,-5.6512 -1.1166,-0.32703 -2.2044,-0.90509 -3.3678,-0.91731 -1.7408,-0.0183 -3.4378,0.55192 -5.1568,0.8279 -1.247,2.41528 -3.2712,4.56854 -3.741,7.24583 -0.3815,2.17342 0.6985,4.37068 1.3315,6.48459 1.7682,5.90563 5.0365,11.86487 8.6487,16.83319 1.0943,1.50522 2.3683,2.87126 3.5525,4.30686 7.6417,7.44731 17.0384,12.82454 26.3642,17.88382 6.0049,2.92817 11.8975,6.07852 17.9195,8.9688 8.0272,3.38791 15.9624,6.91446 23.6856,10.94515 10.5054,5.23843 21.6109,9.0579 32.7308,12.73564 8.3375,3.16762 16.143,7.53025 23.9588,11.7857 6.8613,3.32753 13.6311,6.83414 20.4242,10.29597 6.5473,3.64691 13.5081,6.44467 20.2608,9.66208 6.9235,4.06318 13.9772,7.86569 21.1085,11.55031 7.1629,3.52459 14.2688,7.16559 21.3005,10.94799 12.4802,7.494 25.1253,14.7003 37.8929,21.6908 10.7874,5.7125 21.9356,10.7007 32.8079,16.2464 9.7822,4.6561 19.6739,9.0926 29.537,13.5802 9.1125,4.1551 18.3156,8.1393 27.7798,11.4215 10.5442,3.5473 21.2807,6.5032 31.7314,10.3213 12.1832,4.9044 23.9102,10.8392 35.9263,16.126 9.7551,4.3439 19.6261,8.4159 29.4888,12.5076 9.3767,4.0226 19.0273,7.3387 28.5218,11.0684 9.6456,3.323 19.161,6.9721 28.5939,10.8542 10.4841,4.7733 20.8737,9.7692 31.1985,14.8794 11.7922,5.9131 23.6169,11.7482 35.4994,17.4774 11.7997,5.307 23.9204,9.8113 35.6481,15.2899 10.3598,4.8767 20.8023,9.5721 31.1958,14.3746 9.7251,4.6517 19.4569,9.2635 29.3877,13.4643 11.8325,4.439 24.0214,7.7929 36.199,11.1242 12.4384,3.5213 24.6864,7.6526 37.2542,10.7158 13.3636,2.6973 26.8607,4.7584 40.3368,6.8214 11.8764,1.2921 23.6407,3.357 35.463,5.0367 11.4431,1.6158 22.8916,3.2048 34.3491,4.72 9.5216,1.4884 19.0857,2.7133 28.6644,3.7739 11.071,1.3534 22.1973,2.0242 33.2912,3.155 11.2965,1.0729 22.5358,2.5706 33.8647,3.2763 13.6874,1.0588 27.3785,2.0876 41.0581,3.2514 13.082,1.2927 26.2261,1.4805 39.359,1.6234 13.5149,-0.075 27.0101,0.1256 40.5088,0.7576 9.4533,0.4858 18.9182,0.6391 28.382,0.7369 12.9824,0.9914 25.9108,2.6061 38.8401,4.1255 11.589,1.4271 23.2188,2.4891 34.8845,2.9947 9.7826,0.1074 19.5498,0.5106 29.3239,0.9155 11.6821,0.8449 23.3665,1.5358 35.0732,1.9167 10.1141,0.2855 20.2333,0.3089 30.3507,0.325 7.6228,0.01 15.2456,0 22.8684,-0.01 7.4639,-0.1113 14.8493,-1.1223 22.2377,-2.0773 12.107,-1.2646 24.2092,-2.5681 36.3149,-3.8468 8.2439,-0.8275 16.291,-2.8489 24.184,-5.2991 6.4784,-1.971 12.7675,-4.4686 19.021,-7.048 6.0635,-2.1236 10.7342,-6.2171 15.0228,-10.8575 2.8898,-3.8126 6.077,-7.5277 8.1333,-11.8921 1.2589,-2.6719 1.4986,-3.8695 2.3072,-6.6345 1.0438,-5.1832 1.8277,-10.6539 1.4965,-15.9658 -0.093,-1.4841 -0.3638,-2.9515 -0.5459,-4.4273 -1.9182,-8.2039 -5.5147,-15.8006 -10.1875,-22.7656 -6.9437,-8.8861 -16.2208,-15.6179 -25.1341,-22.396 -9.9829,-7.1584 -20.3717,-13.778 -31.0949,-19.7723 -9.4972,-4.9473 -18.9936,-9.9975 -28.8172,-14.2828 -4.9832,-2.1737 -9.1797,-3.6677 -14.2579,-5.5668 -15.3508,-5.3967 -31.1543,-9.4709 -46.9803,-13.2195 -16.9481,-3.7024 -33.9455,-7.0486 -51.0641,-9.8481 -12.8686,-1.9629 -25.8399,-2.9683 -38.7077,-4.9388 -12.5327,-1.5435 -25.0621,-3.0998 -37.5751,-4.8075 -11.9017,-1.4494 -23.8123,-2.8218 -35.7254,-4.1752 -11.6769,-1.2882 -23.3808,-2.3034 -35.0702,-3.4622 -11.3777,-1.3014 -22.8483,-1.2183 -34.2072,-2.6457 -12.1809,-2.1422 -24.4088,-4.0046 -36.6457,-5.7991 -11.9424,-1.8226 -23.9775,-2.8781 -36.0021,-3.9731 -6.9501,-0.8752 -13.8587,-1.9708 -20.85,-2.4625 -5.638,-0.3287 -11.2872,-0.3414 -16.9326,-0.3519 -5.8188,-0.2787 -11.6181,-0.8415 -17.4338,-1.1702 -2.9973,-0.1492 -5.9979,-0.204 -8.9982,-0.2469 -7.0704,-0.1006 -7.2127,9.8984 -0.1423,9.999 v 0 c 2.8602,0.041 5.7206,0.092 8.5781,0.2321 5.9968,0.3366 11.9756,0.9388 17.9777,1.186 5.4196,0.01 10.8427,0.019 16.2555,0.3277 6.9213,0.4782 13.7544,1.6166 20.6389,2.4456 11.8428,1.0781 23.6964,2.1134 35.4583,3.9084 12.3101,1.8042 24.6085,3.6887 36.8647,5.8288 11.4465,1.4044 22.9875,1.416 34.4533,2.6732 11.6418,1.1517 23.2973,2.1664 34.9267,3.4469 11.8386,1.345 23.6745,2.7094 35.5021,4.1472 12.4593,1.7004 24.9345,3.2546 37.4144,4.7842 12.8348,1.9634 25.7687,2.9892 38.6067,4.9229 16.8872,2.7616 33.6546,6.0613 50.3744,9.7102 15.4212,3.6485 30.8212,7.6138 45.7834,12.8558 4.591,1.7142 9.0423,3.3066 13.5385,5.2655 9.6018,4.1834 18.8813,9.1209 28.1652,13.9497 10.3232,5.7465 20.2982,12.1403 29.9147,19 8.0537,6.1214 16.4688,12.1688 22.9071,20.0443 3.8788,5.655 6.7631,11.8821 8.5593,18.5143 0.8504,5.3747 0.404,10.961 -0.6585,16.2876 -0.4501,1.6267 -0.7769,3.0525 -1.4738,4.599 -1.6526,3.6681 -4.4026,6.7112 -6.7397,9.9363 -3.2525,3.6287 -6.7535,6.7546 -11.4478,8.3523 -5.977,2.4656 -11.9841,4.8621 -18.1774,6.7435 -7.2657,2.2639 -14.6733,4.1412 -22.2649,4.9034 -12.183,1.2871 -24.3628,2.5963 -36.5466,3.8739 -6.966,0.9008 -13.9251,1.8715 -20.9619,1.9948 -7.6154,0 -15.2308,0.015 -22.8461,0.01 -10.0145,-0.016 -20.0305,-0.038 -30.0418,-0.3197 -11.6772,-0.3791 -23.3311,-1.0775 -34.9842,-1.9134 -9.7681,-0.4045 -19.5299,-0.81 -29.3066,-0.9148 -11.42,-0.4906 -22.8039,-1.5412 -34.1487,-2.9357 -13.2816,-1.5601 -26.5623,-3.2395 -39.9038,-4.1933 -9.3423,-0.096 -18.6857,-0.2464 -28.0175,-0.7265 -13.6183,-0.6374 -27.2334,-0.8435 -40.8679,-0.7679 -12.8862,-0.1397 -25.7838,-0.3166 -38.6199,-1.588 -13.7558,-1.1702 -27.5232,-2.205 -41.2869,-3.2683 -11.1973,-0.691 -22.3036,-2.1959 -33.4696,-3.2438 -11.0655,-1.1278 -22.163,-1.7993 -33.2058,-3.146 -9.5085,-1.0507 -19.0014,-2.2717 -28.4531,-3.7483 -11.4264,-1.5103 -22.8435,-3.0955 -34.2555,-4.7071 -11.7866,-1.669 -23.5141,-3.737 -35.3546,-5.0207 -13.1911,-2.0177 -26.4004,-4.0434 -39.4866,-6.6533 -12.4788,-3.0269 -24.6244,-7.175 -36.9785,-10.6446 -11.7507,-3.2143 -23.511,-6.4464 -34.943,-10.689 -9.8316,-4.1557 -19.4603,-8.7311 -29.0888,-13.3321 -10.3827,-4.7945 -20.811,-9.4891 -31.1598,-14.358 -11.6933,-5.4535 -23.7571,-9.9834 -35.5346,-15.236 -11.8519,-5.7141 -23.6457,-11.5344 -35.4073,-17.4324 -10.532,-5.2106 -21.1263,-10.3133 -31.8281,-15.1642 -9.4823,-3.902 -19.0451,-7.5797 -28.7432,-10.9144 -9.4358,-3.7064 -19.0259,-7.0036 -28.346,-10.9973 -9.7978,-4.0648 -19.6043,-8.1085 -29.2948,-12.4248 -12.2157,-5.3708 -24.1284,-11.4234 -36.53,-16.3683 -10.5111,-3.8175 -21.2819,-6.8425 -31.8898,-10.3775 -9.175,-3.1531 -18.069,-7.0689 -26.9026,-11.0715 -9.7284,-4.4257 -19.4834,-8.8045 -29.1364,-13.387 -10.7874,-5.4961 -21.8371,-10.4609 -32.5471,-16.1086 -12.79,-7.0028 -25.4512,-14.2314 -37.96,-21.72728 -7.0813,-3.80534 -14.2338,-7.47559 -21.4457,-11.02447 -7.2315,-3.73618 -14.3645,-7.62238 -21.4093,-11.6994 -6.6773,-3.161 -13.5384,-5.95008 -20.0106,-9.53897 -6.7129,-3.41905 -13.3974,-6.89321 -20.1829,-10.16886 -8.3406,-4.5388 -16.6766,-9.18107 -25.5996,-12.4968 -10.609,-3.50872 -21.2116,-7.13026 -31.2448,-12.10704 -7.8234,-4.08155 -15.8492,-7.68186 -23.9871,-11.09607 -5.8757,-2.81607 -11.6191,-5.89807 -17.481,-8.74506 -8.2296,-4.45072 -16.5116,-9.17549 -23.4535,-15.50287 -4.7644,-5.60972 -7.4409,-10.37465 -10.1886,-17.2127 -0.3855,-0.95933 -0.1248,-2.5073 -1.0777,-2.90844 -1.0092,-0.42484 -2.0486,0.77417 -3.0729,1.16126 -0.1961,-0.22521 -0.8866,-0.69289 -0.5885,-0.67567 1.041,0.0601 2.0187,0.52462 3.0199,0.81608 3.5685,1.03897 7.0663,2.28013 10.5122,3.67057 1.2916,0.5212 2.5709,1.07246 3.8564,1.60872 9.4026,4.06355 18.9575,7.81465 27.8417,12.98149 11.0023,5.97945 21.8834,12.17993 32.7053,18.4794 8.3335,5.15249 16.1737,11.09742 24.8516,15.68791 12.0339,6.58884 24.1014,13.1735 36.6163,18.81153 12.4284,5.63877 24.6058,11.83495 37.2797,16.93087 11.0928,4.22077 22.3121,8.05249 33.4274,12.2078 13.35,5.22441 26.4702,11.02053 39.9844,15.82002 4.3912,1.48233 8.32,2.74965 12.6226,4.41454 10.4587,4.04699 20.5827,8.92274 31.0459,12.96084 13.3273,5.2329 26.9391,9.7022 40.0531,15.4793 14.0983,5.7775 28.2065,11.5114 42.1002,17.7692 13.3147,6.135 26.2546,13.0883 39.9682,18.3317 10.0918,4.1156 20.1156,8.3989 30.2049,12.5194 11.163,4.4672 22.079,9.5085 33.1539,14.1867 15.6663,6.6932 31.3885,13.242 47.2267,19.5184 11.2212,4.6406 22.4455,9.2817 33.7807,13.6374 8.472,2.9171 16.887,5.9953 25.4323,8.6968 10.1047,3.168 20.4773,5.3702 30.7027,8.11 12.2595,3.0431 24.5726,5.8572 37.1206,7.4577 11.2097,1.5268 22.4158,3.0685 33.6378,4.4996 14.7216,1.7966 29.3559,4.313 44.1402,5.5849 12.4058,1.2624 24.806,2.6395 37.2374,3.613 10.4667,0.5149 20.9272,0.8888 31.4102,0.6738 11.3004,0 22.6008,0.017 33.9012,0.01 11.7338,-0.024 23.4696,-0.052 35.1989,-0.4149 12.0587,-0.4696 24.0914,-1.3069 36.1336,-2.0719 10.9191,-0.7365 22.9816,-0.6941 33.0607,-5.3232 6.507,-3.9901 9.3192,-7.2096 10.6924,-14.897 0.058,-1.1831 0.2237,-2.3658 0.1731,-3.5492 -0.2745,-6.4128 -3.4763,-12.1817 -8.8908,-15.6376 -5.2165,-3.3896 -10.3215,-7.1002 -16.5602,-8.3468 -5.4883,-0.9875 -11.0526,-0.9518 -16.5904,-1.5507 -8.5732,-0.9882 -17.1683,-1.5031 -25.7945,-1.7817 -8.4437,-0.3373 -16.9125,-0.1943 -25.3295,-1.0722 -10.3948,-1.1741 -20.6179,-3.1966 -30.814,-5.522 -8.0815,-1.6065 -16.22,-2.7114 -24.4487,-3.1938 -5.3822,-0.6269 -10.792,-1.2888 -16.0816,-2.4677 -0.3989,-0.1517 -0.8165,-0.2613 -1.1967,-0.4552 -1.2298,-0.6273 -0.8607,-0.9726 -1.398,-0.042 -0.1525,0.2641 -0.2374,0.5938 -0.4795,0.7793 -0.087,0.066 -0.1392,-0.1679 -0.2088,-0.2519 4.4486,-5.5221 14.3192,-9.0032 20.7478,-11.4165 12.6868,-4.1165 25.6087,-7.482 38.7632,-9.7535 12.8532,-2.214 25.8296,-3.751 38.8995,-3.5312 7.071,0 7.071,-10 0,-10 z" /><path
           style="fill:#ffffff;stroke-width:1;paint-order:markers stroke fill"
           id="path6413"
           d="m 2145.5253,1058.8565 c -0.03,0 -0.06,0 -0.09,0 -0.1238,0 -0.2476,0 -0.3714,0 -0.056,0 -0.2225,0 -0.1669,0 0.067,0 0.1336,10e-5 0.2004,2e-4 -0.2055,-0.049 -0.4327,-0.067 -0.6445,-0.093 -0.2347,-0.029 -0.3212,-0.03 -0.1983,-0.027 -0.035,-0.01 -0.07,-0.01 -0.1034,-0.019 -0.022,-0.01 0.087,0.017 0.066,0.01 -0.1178,-0.04 -0.2423,-0.057 -0.3646,-0.08 -0.2643,-0.051 -0.3396,-0.061 -0.5765,-0.097 -0.4268,-0.064 -0.8576,-0.093 -1.2863,-0.1345 -0.3527,-0.028 -0.5583,-0.069 -0.9248,-0.1131 -0.4394,-0.047 -0.8813,-0.061 -1.3198,-0.1177 -0.5268,-0.068 -1.0534,-0.1345 -1.5824,-0.1825 -0.2425,-0.01 -0.4875,-0.053 -0.7306,-0.042 -0.079,0 0.1585,0.01 0.2375,0.011 0.1262,0.01 0.2099,0.031 0.1032,0.01 -6.9275,-1.4177 -8.9326,8.3792 -2.0051,9.797 v 0 c 0.4977,0.099 0.9987,0.1767 1.5069,0.189 0.4209,0.036 0.8385,0.099 1.2578,0.1483 0.4491,0.054 0.8992,0.1003 1.3511,0.1214 0.3816,0.043 0.7602,0.1119 1.1439,0.1368 0.2458,0.024 0.4916,0.046 0.7376,0.066 0.037,0.01 0.074,0.017 0.1119,0.017 0.026,-2e-4 -0.05,-0.01 -0.075,-0.017 -0.012,0 0.025,0 0.038,0.01 0.2736,0.061 0.5463,0.127 0.8238,0.1682 0.5465,0.081 1.0947,0.1518 1.6435,0.2153 0.4064,0.021 0.8112,0.04 1.218,0.031 7.0711,0 7.0711,-10 0,-10 z" /><path
           style="fill:#ffffff;stroke-width:29.4837;paint-order:markers stroke fill"
           d="m 4793.4684,3310.4905 c -17.3847,13.0868 13.7967,41.0926 21.2544,53.9054 80.1986,72.7776 185.6813,111.2318 282.5086,157.0405 281.1016,113.6968 539.0552,275.2238 811.9576,405.9335 150.9095,71.805 313.4146,114.6548 463.1474,189.1232 186.027,72.905 371.2501,147.8542 550.0305,237.56 256.0224,119.6572 518.5204,239.7847 802.5367,271.5638 373.8272,54.936 750.9248,90.3448 1128.8556,94.7486 248.5899,22.2711 498.2157,42.8862 748.16,32.2604 135.1719,-10.2704 283.614,-5.2132 402.2738,-80.4675 76.844,-54.4532 53.886,-173.8634 -13.6816,-226.3022 -210.8267,-188.2128 -497.0556,-253.567 -770.1029,-287.021 -278.5872,-40.9242 -559.707,-59.7899 -838.5473,-98.606 -193.4049,-18.4216 -395.7261,-45.9872 -582.5882,24.4287 -22.5477,11.6719 -62.3446,14.5701 -72.9111,39.5941 78.7514,19.9627 162.2762,24.8641 242.8409,38.8035 105.7618,18.0671 216.7294,7.3272 319.9208,37.6971 49.7763,18.761 86.4478,89.4987 40.1167,130.208 -59.8387,46.4922 -144.2139,30.8757 -214.997,40.6347 -276.9226,12.9164 -555.0374,2.3638 -828.6943,-43.7695 -263.9881,-33.023 -510.2578,-138.0212 -752.602,-242.1882 -251.9685,-105.9285 -499.2079,-222.8018 -755.7617,-317.7218 -250.6242,-97.3698 -509.3712,-184.1317 -734.0665,-335.3185 -81.1023,-43.6566 -161.8526,-93.6068 -249.6504,-122.1068 z"
           id="path6661"
           transform="scale(0.26458333)" /></g><path
         style="fill:#ffffff;stroke-width:1;paint-order:markers stroke fill"
         id="path6774"
         d="m 2210.8865,1125.7421 c -0.088,-1.0386 -0.1758,-2.7335 -0.5101,-3.7084 -1.105,-3.2217 -3.0154,-5.5526 -5.8126,-7.4734 -0.9486,-0.6514 -1.9946,-1.1484 -2.9918,-1.7226 -0.9729,-0.4112 -1.9249,-0.876 -2.9188,-1.2338 -2.2722,-0.8179 -4.6731,-1.3703 -7.0097,-1.9557 -3.6473,-0.9139 -7.3014,-1.7964 -10.9601,-2.663 -6.3131,-1.4595 -12.6365,-2.8438 -19.0188,-3.9661 -7.6569,-1.3216 -15.4227,-1.8568 -23.1531,-2.5735 -5.7782,-0.4727 -11.5411,-1.1173 -17.3261,-1.5059 -4.0526,-0.5124 -8.0911,-1.0741 -12.166,-1.3781 -6.7335,-0.3959 -13.4497,-0.9397 -20.1526,-1.6871 -5.4913,-0.5009 -10.9043,-1.5365 -16.3209,-2.5294 -4.3289,-0.6889 -8.5812,-1.7755 -12.8404,-2.7957 -3.1072,-0.6916 -6.2042,-1.4383 -9.357,-1.8937 -0.1951,-0.039 -0.7726,-0.1863 -0.5855,-0.1182 0.6999,0.2547 1.4222,0.2328 1.9409,0.8194 0.8658,0.979 0.44,0.9995 0.9739,1.8843 0.067,-0.031 0.1489,-0.041 0.2007,-0.093 0.2216,-0.2241 0.392,-0.4945 0.6076,-0.7243 1.222,-1.3018 2.6385,-2.361 4.0827,-3.3969 3.1165,-2.0004 6.6019,-3.3219 10.1596,-4.2878 5.9764,-1.3914 12.1019,-1.9218 18.216,-2.2312 9.2601,-0.2534 18.5265,-0.2031 27.7895,-0.1994 5.2205,0.045 10.423,-0.2994 15.6272,-0.6424 3.9596,-0.2165 7.9107,-0.5468 11.8727,-0.7243 5.7186,-0.3969 9.7096,0.1059 7.5962,-9.436 -0.266,-1.2009 -2.2785,-0.9272 -3.4177,-1.3907 -7.4069,-0.9004 -14.8734,-1.2345 -22.3275,-1.4474 -3.3238,-0.1054 -6.6504,-0.057 -9.9721,0.087 -0.6674,0.029 -1.3347,0.063 -2.0012,0.11 -0.4064,0.028 -1.1797,-0.2908 -1.2168,0.1149 -0.3032,3.3221 0.1955,6.6689 0.2933,10.0034 0.8164,0 1.633,0.013 2.4492,-0.01 5.6014,-0.1215 11.1901,-0.3353 16.7958,-0.325 7.9603,0.014 10.7298,0.1532 18.9434,0.3884 14.9593,0.5977 29.914,1.3143 44.8684,2.0251 8.5245,0.6617 17.0213,1.6237 25.534,2.417 3.1951,0.4276 6.4131,0.6948 9.603,1.1635 3.2264,0.4741 6.4324,1.1262 9.6488,1.6647 7.1781,1.1155 14.361,2.154 21.5188,3.4039 9.7033,1.6523 19.4434,3.0748 29.1956,4.403 9.1872,1.2181 18.4155,2.1083 27.659,2.7621 6.3546,0.2097 12.6867,0.6666 19.016,1.2598 6.9051,0.7302 13.8382,1.0072 20.7764,1.1325 9.7369,0.1689 19.4486,0.9617 29.1689,1.5015 4.3758,0.2072 8.7443,0.5368 13.1132,0.8518 7.0527,0.5087 7.772,-9.4654 0.7193,-9.974 v 0 c -4.424,-0.319 -8.8476,-0.6518 -13.2785,-0.8625 -9.8451,-0.5459 -19.6813,-1.349 -29.5436,-1.5152 -6.6868,-0.119 -13.3686,-0.3841 -20.0233,-1.0905 -6.4049,-0.5994 -12.8132,-1.069 -19.2436,-1.2786 -9.0282,-0.637 -18.0414,-1.5074 -27.0146,-2.6955 -9.6284,-1.3108 -19.2447,-2.7152 -28.8248,-4.3453 -7.1812,-1.2536 -14.3871,-2.2988 -21.5888,-3.4159 -3.3514,-0.5603 -6.6906,-1.2307 -10.0527,-1.7238 -3.2956,-0.4834 -6.6203,-0.7601 -9.9216,-1.1984 -8.6633,-0.8067 -17.31,-1.7926 -25.9868,-2.4488 -15.0175,-0.7135 -30.0351,-1.4342 -45.0576,-2.0323 -9.0086,-0.2566 -17.9936,-0.4603 -27.0058,-0.3221 -0.8211,0.013 -7.5566,0.1535 -9.3992,0.2619 -0.1944,0.011 -0.3825,0.073 -0.5737,0.1101 -0.2703,3.2788 -0.8048,6.5465 -0.811,9.8364 0,0.2655 0.5276,-0.064 0.7926,-0.082 0.6009,-0.042 1.2027,-0.074 1.8045,-0.1009 3.1085,-0.138 6.2219,-0.1867 9.3326,-0.085 7.0215,0.1967 14.0522,0.5167 21.0332,1.3262 -0.5935,-0.3764 -1.7658,-0.4266 -1.7804,-1.1291 -0.079,-3.7936 -0.9775,-7.8323 2.1668,-8.2421 0.1151,-0.015 -0.2191,0.083 -0.3343,0.098 -0.6276,0.079 -2.5683,0.1993 -3.1028,0.2353 -4.0318,0.1821 -8.0528,0.513 -12.082,0.7359 -4.9836,0.3294 -9.9649,0.6656 -14.9645,0.6207 -9.4347,0 -18.873,-0.057 -28.3045,0.2125 -6.8533,0.3542 -13.7192,0.9697 -20.4058,2.5898 -1.0221,0.2934 -2.0552,0.5506 -3.0662,0.8801 -3.6066,1.1756 -7.0706,2.8786 -10.2509,4.9317 -3.4157,2.4837 -6.7228,5.2215 -8.518,9.1521 -0.4806,1.8081 -0.9451,2.7579 -0.5214,4.7164 0.682,3.152 3.1154,5.3056 6.274,5.766 2.844,0.3922 5.6264,1.12 8.4311,1.7176 4.4336,1.0618 8.8614,2.1858 13.3668,2.9069 5.647,1.0349 11.292,2.1045 17.0159,2.6317 6.8274,0.7608 13.6681,1.3187 20.5266,1.7217 4.0978,0.2968 8.1519,0.9178 12.2325,1.3827 5.6999,0.3795 11.377,1.0252 17.0704,1.4856 7.4603,0.6915 14.9556,1.2011 22.3464,2.4654 6.1902,1.0857 12.321,2.4345 18.444,3.8477 3.615,0.856 7.2237,1.7331 10.8286,2.6308 1.5692,0.3908 4.0401,0.9685 5.6393,1.5042 0.6564,0.2199 1.2878,0.5086 1.9317,0.7628 2.0905,1.0207 0.9773,0.3594 2.7531,1.6634 0.2256,0.1656 0.4507,0.3325 0.6848,0.4857 0.1098,0.072 0.2903,0.07 0.3457,0.1886 0.1533,0.3292 0.2692,1.3702 0.3245,1.7906 0,7.071 10,7.071 10,0 z" /><path
         style="fill:#ffffff;stroke-width:1;paint-order:markers stroke fill"
         id="path6776"
         d="m 2421.0912,1100.5675 c 0.9604,0.1637 1.9252,0.3029 2.881,0.4913 1.2922,0.2548 7.5727,1.671 8.4886,1.8707 5.097,1.1108 10.2041,2.1739 15.3157,3.2147 6.2631,1.3097 12.5808,2.3566 18.8368,3.7011 3.4868,0.7494 5.3616,1.2392 8.7836,2.085 8.0794,1.7949 15.9478,4.3725 23.8874,6.6796 3.4872,1.061 7.0715,1.7441 10.6008,2.6362 3.7302,0.9428 7.435,2.0182 11.1382,3.0612 5.6114,1.5496 11.0914,3.5178 16.6607,5.2056 4.2529,1.065 8.4786,2.2235 12.6501,3.5726 4.3996,1.6228 8.8023,3.2227 13.2426,4.731 2.8306,0.986 5.5392,2.2798 8.362,3.2866 1.2716,0.4536 2.5604,0.8571 3.8386,1.2916 3.1224,1.0117 6.1365,2.3229 9.294,3.2229 3.6609,1.0992 7.2239,2.5219 10.8101,3.8465 3.6376,1.1015 6.9151,3.0088 10.2153,4.8448 4.032,2.62 8.1179,5.1493 12.2535,7.6021 2.9073,1.6216 5.4839,3.7142 7.9428,5.9404 2.6527,2.5001 5.7478,4.462 8.7164,6.5583 2.4278,1.8892 5.0235,3.5646 7.3514,5.5788 2.7122,2.4804 5.5069,4.9073 7.7786,7.8102 1.6542,2.1114 3.0305,4.4405 4.0031,6.9402 0.8136,2.1839 1.0417,4.5067 1.2166,6.8126 -0.016,2.3192 -0.8104,4.5787 -1.5341,6.7636 -0.7617,2.4003 -1.6539,4.7533 -2.396,7.1602 -0.658,2.3321 -1.4399,4.6379 -2.3281,6.8929 -1.1737,2.026 -2.6792,3.8147 -4.1941,5.5874 -1.2726,1.8889 -3.0975,2.9217 -4.9166,4.19 -1.7194,1.322 -3.729,2.1838 -5.6881,3.0823 -2.5096,1.069 -4.8643,2.4299 -7.2664,3.7125 -2.9904,1.4306 -6.0924,2.6143 -9.2714,3.5487 -3.899,1.0404 -7.8653,1.8031 -11.7935,2.7305 -3.3818,0.9408 -6.8177,1.6439 -10.2673,2.2792 -3.0191,0.6481 -6.0672,1.1353 -9.1229,1.5716 -4.5254,0.6484 -9.0492,1.3089 -13.5766,1.943 -5.0225,0.5508 -10.0118,1.3559 -15.0322,1.9236 -4.6517,0.4477 -9.3117,0.7597 -13.9805,0.9514 -3.5154,0.1354 -7.0336,0.1454 -10.5511,0.1521 -3.8325,0.014 -7.665,-0.047 -11.4964,0.058 -5.0214,0.2118 -10.0458,0.3287 -15.071,0.3919 -6.2221,0.084 -12.4425,0.078 -18.6629,-0.084 -5.3711,-0.129 -10.7358,-0.4534 -16.0933,-0.847 -6.065,-0.6903 -12.1563,-1.0988 -18.2343,-1.6485 -3.8908,-0.3959 -7.8012,-0.5685 -11.6965,-0.9033 -0.6725,-0.058 -6.5238,-0.6781 -7.0266,-0.7311 -7.0158,-0.5665 -14.0092,-1.3305 -21.0091,-2.0594 -6.1899,-0.5774 -12.3856,-1.0799 -18.5806,-1.5965 -6.0715,-0.3597 -12.11,-1.0823 -18.1533,-1.754 -7.9284,-0.621 -15.8127,-1.6326 -23.6898,-2.7091 -8.6929,-1.1507 -17.3867,-2.3082 -26.0975,-3.3161 -10.0028,-0.9788 -20.0609,-1.1371 -30.1031,-1.2782 -5.893,0.04 -11.7792,-0.2071 -17.6682,-0.3692 -5.5443,-0.06 -11.0847,0.2413 -16.5826,0.9467 -3.5344,0.3914 -7.0491,0.8864 -10.5563,1.4724 -4.4394,0.7813 -4.7146,1.3666 -2.6291,9.8073 0.17,0.6877 7.3334,0.864 8.0865,0.8961 5.1459,0.3432 10.2986,0.5435 15.4527,0.7105 0.3269,-0.01 0.8858,0.2959 0.9808,-0.017 0.945,-3.114 2.3947,-6.3497 1.9285,-9.5704 -0.169,-1.1672 -2.2722,-0.653 -3.4361,-0.8436 -1.3142,-0.2151 -2.6521,-0.2455 -3.9779,-0.3702 -6.5948,-0.6203 -2.4832,-0.2664 -9.8128,-0.8468 -10.1618,-0.5701 -20.2973,-1.3997 -30.4106,-2.5352 -5.7384,-0.8289 -11.5208,-1.1052 -17.3037,-1.3841 -0.8625,-0.043 -1.7251,-0.086 -2.5877,-0.1279 -1.7841,-0.088 -2.8028,-0.1827 -4.5985,-0.08 -2.8348,0.1621 -5.6677,0.6666 -8.4852,0.9998 -5.3572,0.6214 -10.7355,1.0027 -16.1243,1.185 -4.2458,0.3141 -8.4557,-0.1977 -12.6678,-0.6508 -4.5112,-0.7554 -9.0757,-1.0093 -13.6181,-1.4966 -6.5048,-0.8968 -13.0263,-1.6332 -19.5752,-2.1103 -5.4261,-0.4587 -10.8447,-1.0475 -16.2555,-1.668 -5.4923,-0.5646 -10.8989,-1.6235 -16.2666,-2.8877 -4.5446,-1.0059 -8.9069,-2.7348 -13.4818,-3.6132 -1.0324,-0.1983 -2.08,-0.3068 -3.1199,-0.4602 -7.0015,-0.9893 -8.4005,8.9124 -1.399,9.9016 v 0 c 0.7525,0.1 1.5111,0.1609 2.2574,0.2995 4.5694,0.8485 8.909,2.6534 13.4552,3.607 5.7475,1.3485 11.5372,2.4799 17.4163,3.088 5.5484,0.6353 11.1046,1.2388 16.6689,1.7067 6.4373,0.4669 12.8455,1.2043 19.2399,2.0802 4.5404,0.4815 9.0995,0.7446 13.6087,1.4956 4.6795,0.5034 9.3625,1.0293 14.0777,0.7024 5.6685,-0.1941 11.3264,-0.5935 16.9617,-1.2487 1.1019,-0.131 2.2049,-0.2524 3.3056,-0.393 0.951,-0.1215 3.1009,-0.463 4.1786,-0.5388 1.4838,-0.1045 2.3868,-0.01 3.9285,0.069 0.8667,0.043 1.7332,0.086 2.5998,0.1284 5.5712,0.2682 11.1419,0.5265 16.6696,1.3333 10.2222,1.1469 20.4666,1.9917 30.7378,2.5665 9.0112,0.7114 1.5391,0.094 9.7064,0.8378 1.0886,0.099 2.1743,0.2687 3.2674,0.2807 0.1192,0 0.229,-0.1279 0.2634,-0.242 0.9215,-3.0533 1.8494,-6.1087 2.5893,-9.211 0.031,-0.1289 -0.2646,0.013 -0.3969,0.019 -5.121,-0.166 -10.2405,-0.3669 -15.3534,-0.7068 -0.8603,-0.036 -1.7209,-0.067 -2.5809,-0.1087 -0.651,-0.031 -1.3115,-0.2284 -1.9521,-0.1087 -0.2089,0.039 0.5216,0.1649 0.5141,0.3773 -0.3316,9.296 -3.5591,9.603 -0.2139,8.991 3.3842,-0.5654 6.7749,-1.0432 10.186,-1.4177 4.9828,-0.6445 10.0046,-0.9112 15.0302,-0.8685 5.9338,0.1631 11.865,0.4108 17.8027,0.372 9.7055,0.1361 19.4265,0.2827 29.0952,1.213 8.6424,0.998 17.2672,2.1503 25.8919,3.2902 7.9599,1.0876 15.9275,2.112 23.9393,2.7401 6.1344,0.6815 12.2647,1.411 18.4273,1.7806 6.1268,0.5102 12.2541,1.0082 18.376,1.5773 6.9955,0.7275 13.9845,1.4927 20.9959,2.058 6.2825,0.6621 12.5735,1.1612 18.8717,1.6489 6.1338,0.5533 12.2801,0.9718 18.4013,1.6622 5.5148,0.405 11.0372,0.7373 16.566,0.8705 6.349,0.1648 12.6981,0.1731 19.0489,0.087 5.0779,-0.064 10.1551,-0.1808 15.2292,-0.3951 3.7427,-0.1104 7.4874,-0.033 11.2313,-0.054 3.6483,-0.01 7.2974,-0.019 10.9435,-0.1606 4.9076,-0.2026 9.8063,-0.5309 14.6955,-1.0066 5.1077,-0.5805 10.1849,-1.3909 15.2944,-1.9568 4.5381,-0.6373 9.0733,-1.2971 13.6097,-1.9477 3.185,-0.4598 6.3649,-0.9593 9.5124,-1.6355 3.6124,-0.6654 7.2116,-1.4004 10.754,-2.3814 4.1133,-0.9715 8.2691,-1.7602 12.3453,-2.8775 3.8189,-1.1456 7.5619,-2.5476 11.1396,-4.3169 2.2208,-1.1906 4.3876,-2.4647 6.7172,-3.44 2.5015,-1.1474 5.0297,-2.3041 7.2393,-3.9694 2.4762,-1.7271 5.0231,-3.3875 6.7992,-5.8965 2.2344,-2.6156 4.4403,-5.3045 5.9058,-8.4447 0.967,-2.491 1.8468,-5.0249 2.5733,-7.5964 0.7152,-2.3412 1.6013,-4.6226 2.3318,-6.9588 1.1361,-3.4468 2.1942,-7.0073 2.0085,-10.6777 -0.2644,-3.3194 -0.6872,-6.6447 -1.9093,-9.7687 -1.3848,-3.372 -3.1678,-6.5703 -5.4493,-9.4259 -2.707,-3.3743 -5.8767,-6.3167 -9.1054,-9.1868 -2.5831,-2.1957 -5.3885,-4.1023 -8.0871,-6.1515 -2.6461,-1.8685 -5.4215,-3.6001 -7.792,-5.8198 -2.9597,-2.6549 -6.0557,-5.1578 -9.5343,-7.1112 -4.215,-2.5 -8.3668,-5.0967 -12.4933,-7.7399 -3.7476,-2.0847 -7.4955,-4.207 -11.6131,-5.4871 -3.8452,-1.4192 -7.6648,-2.9431 -11.5973,-4.1007 -2.9881,-0.7929 -5.7885,-2.1796 -8.7529,-3.0559 -1.1731,-0.3986 -2.3569,-0.7658 -3.5249,-1.1792 -2.93,-1.0368 -5.7308,-2.4052 -8.6773,-3.3995 -4.4876,-1.524 -8.9328,-3.152 -13.3843,-4.7779 -4.2307,-1.3656 -8.51,-2.5642 -12.8269,-3.628 -5.6325,-1.7032 -11.1708,-3.7034 -16.8479,-5.2604 -3.8527,-1.0845 -7.7078,-2.1952 -11.5883,-3.1767 -3.3525,-0.8479 -6.7586,-1.4915 -10.0715,-2.498 -8.07,-2.3432 -16.0678,-4.9607 -24.2794,-6.7849 -3.662,-0.9036 -5.4599,-1.3753 -9.204,-2.1792 -6.2503,-1.342 -12.5614,-2.3907 -18.819,-3.6975 -5.0516,-1.0282 -10.0988,-2.0786 -15.1358,-3.1764 -1.5311,-0.3337 -7.3407,-1.6556 -9.0364,-1.9767 -1.2198,-0.231 -2.4517,-0.3934 -3.6775,-0.5901 -7.0466,-0.5872 -7.8771,9.3782 -0.8305,9.9655 z" /><path
         style="fill:#ffffff;stroke-width:1;paint-order:markers stroke fill"
         id="path6778"
         d="m 2013.6466,1213.6674 c -14.1178,-3.7794 -27.7149,-9.2084 -41.3838,-14.324 -20.0861,-7.4434 -40.5358,-13.8296 -60.8583,-20.5816 -9.4919,-2.9359 -18.7443,-6.5794 -28.172,-9.7006 -4.6745,-1.4893 -1.4827,-1.6147 -1.9837,8.2522 -0.022,0.4326 -0.7118,0.9913 -0.3627,1.2477 1.4411,1.0587 3.2952,1.39 4.9324,2.1092 1.8362,0.8066 3.6581,1.6453 5.4871,2.4679 9.3854,4.5979 19.1766,8.2522 28.8008,12.2973 5.7528,2.5582 11.2993,5.5418 16.9779,8.253 3.9967,1.9083 4.6071,2.1484 8.626,3.9379 5.2875,2.2885 10.653,4.4346 16.2513,5.841 3.3191,0.8337 4.1658,0.9075 7.5289,1.4727 5.5803,0.8562 11.2015,1.0661 16.7747,0.025 1.3833,-0.2584 2.7777,-0.5225 4.1017,-0.9993 1.4406,-0.5189 2.7657,-1.3149 4.1485,-1.9724 1.2255,-1.0288 2.5868,-1.9147 3.6765,-3.0864 3.2459,-3.4902 5.069,-8.066 6.0519,-12.6548 0.6899,-3.2211 0.773,-5.6687 1.0209,-8.9152 0.1764,-5.6123 0.2743,-11.313 -0.7577,-16.8611 -0.1971,-1.0594 -0.4642,-2.1046 -0.6963,-3.1568 -1.6177,-5.4736 -4.3355,-10.6176 -8.1315,-14.9006 -0.6848,-0.7727 -1.4384,-1.4817 -2.1576,-2.2226 -3.4273,-3.2985 -7.5796,-5.8316 -12.2386,-6.9411 -1.0287,-0.2449 -2.0813,-0.3752 -3.1219,-0.5628 -6.0207,-0.8392 -12.0983,-0.7185 -18.1494,-0.3984 -4.5841,0.1572 -9.1374,0.7159 -13.7087,1.0433 -3.0578,0.2217 -6.1235,0.2535 -9.1879,0.2729 -5.9316,-0.1473 -11.6508,-1.8309 -17.3316,-3.3846 -9.691,-2.5871 -19.5082,-4.6554 -29.3719,-6.4594 -3.1031,-0.5353 -6.2196,-0.9856 -9.3303,-1.474 -6.9855,-1.0969 -8.5368,8.782 -1.5513,9.8789 v 0 c 3.0283,0.4755 6.0621,0.9147 9.0836,1.4321 9.5824,1.7506 19.1196,3.7588 28.5347,6.2689 6.5607,1.7901 13.1775,3.6528 20.0306,3.7379 3.2832,-0.021 6.5676,-0.06 9.8438,-0.2986 4.5083,-0.3275 8.9994,-0.8712 13.5202,-1.0315 5.3166,-0.2845 10.6537,-0.4207 15.9496,0.2723 0.6617,0.1005 1.3294,0.1672 1.985,0.3014 3.0264,0.6197 5.702,2.2446 7.9165,4.3567 0.515,0.5134 1.0552,1.0026 1.545,1.5401 2.8074,3.0813 4.8426,6.8091 6.1155,10.7642 0.1871,0.8108 0.4042,1.6153 0.5613,2.4325 0.926,4.818 0.8019,9.7788 0.6759,14.6556 -0.3569,5.0637 -0.6201,10.6359 -3.799,14.8804 -0.4412,0.589 -1.0129,1.0679 -1.5193,1.6018 -0.6789,0.3937 -1.3047,0.8977 -2.0365,1.181 -0.9879,0.3826 -2.0378,0.5888 -3.0762,0.7988 -4.563,0.9228 -9.1527,0.7054 -13.7312,0.011 -2.9289,-0.4802 -3.6068,-0.5321 -6.5026,-1.2463 -5.1225,-1.2633 -10.0154,-3.2572 -14.8506,-5.3387 -3.8704,-1.7217 -4.4515,-1.9496 -8.3055,-3.7884 -5.8487,-2.7905 -11.558,-5.8695 -17.491,-8.4859 -9.5494,-4.0104 -19.2624,-7.6372 -28.5737,-12.1985 -0.8355,-0.3755 -10.0137,-4.5467 -11.0706,-4.8426 -2.2245,-0.6229 -5.2455,-2.8059 -6.8371,-1.1316 -2.116,2.2258 -1.0516,6.1157 -0.8117,9.1775 0.027,0.3483 3.3463,1.3156 3.4078,1.3353 9.4258,3.1093 18.6664,6.7729 28.157,9.6955 20.2045,6.7127 40.5355,13.061 60.5062,20.4573 14.2667,5.3393 28.4606,11.0457 43.245,14.8224 6.9748,1.1624 8.6188,-8.7015 1.6439,-9.864 z" /><path
         style="fill:#ffffff;stroke-width:1;paint-order:markers stroke fill"
         id="path6780"
         d="m 2181.9982,1145.7778 c -0.353,0.09 -0.7096,0.1661 -1.0591,0.2687 -0.8681,0.2548 -3.7947,1.226 -4.4402,1.4013 -3.9711,1.0783 -8.04,1.7681 -12.0844,2.4991 -3.1219,0.5304 -6.2544,0.995 -9.3685,1.5713 -0.6499,0.1203 -2.4641,0.4423 -3.2041,0.7166 -0.5345,0.1982 -1.0351,0.4781 -1.5527,0.7171 0.9286,3.1202 1.1343,6.555 2.7857,9.3605 0.4701,0.7985 1.8517,0.083 2.7783,0.092 1.5709,0.015 9.2321,-0.072 10.1597,-0.081 9.2586,-0.096 3.9393,-0.051 13.024,-0.1147 1.8351,-0.01 3.6702,-0.019 5.5054,-0.027 1.3725,-0.01 2.7451,-0.011 4.1177,-0.015 0.9401,0 1.8802,-0.01 2.8203,-0.01 0.2271,0 0.714,0.2427 0.681,0.018 -1.6404,-11.1467 0.9468,-10.0902 -5.8702,-9.6064 -1.9501,0.1605 -3.9002,0.321 -5.8503,0.4815 -7.0472,0.5804 -6.2264,10.5466 0.8208,9.9662 v 0 c 1.9127,-0.1576 3.8254,-0.3152 5.738,-0.4729 6.6667,-0.4741 4.4892,0.8619 5.4003,-10.3655 0.025,-0.3141 -0.63,-0.02 -0.9451,-0.021 -2.3207,-0.01 -4.6413,0.012 -6.9619,0.022 -1.8421,0.01 -3.6841,0.018 -5.5262,0.027 -6.2848,0.044 -12.5691,0.1203 -18.8538,0.1737 -1.3411,0.011 -2.6823,0.023 -4.0235,0.025 -0.5866,0 -1.7167,-0.6005 -1.7598,-0.016 -0.2255,3.0618 0.7249,6.0972 1.0873,9.1457 -0.3064,0.1129 -0.6258,0.1952 -0.9191,0.3386 -0.1841,0.09 0.3889,-0.1326 0.589,-0.1772 0.5674,-0.1263 1.14,-0.229 1.7115,-0.335 3.1236,-0.5795 6.2669,-1.0397 9.3978,-1.5766 4.4641,-0.8096 8.9281,-1.6077 13.3102,-2.8021 1.8471,-0.5034 2.3538,-0.7721 3.9299,-1.2551 0.2167,-0.066 0.4382,-0.1159 0.6573,-0.1739 6.9141,-1.4816 4.8188,-11.2596 -2.0953,-9.778 z" /><path
         style="fill:#ffffff;stroke-width:1;paint-order:markers stroke fill"
         id="path6782"
         d="m 2130.3028,1156.9121 c -6.021,-0.2421 -12.0381,-0.5719 -18.0572,-0.8563 -5.0707,-0.2399 -10.1482,-0.1889 -15.2223,-0.2834 -5.4699,-0.1915 -10.9369,-0.4905 -16.4008,-0.8132 -5.3778,-0.2661 -10.7273,-0.891 -16.0866,-1.3868 -0.6029,-0.054 -1.2058,-0.1071 -1.8088,-0.1606 -7.0433,-0.625 -7.9273,9.3358 -0.8839,9.9609 v 0 c 0.5905,0.052 1.181,0.1048 1.7716,0.1572 5.4697,0.5059 10.9296,1.1417 16.4184,1.4119 5.5986,0.3303 11.2003,0.6375 16.8054,0.8289 4.9783,0.091 9.9599,0.044 14.9351,0.274 6.1762,0.2917 12.3502,0.6384 18.5291,0.8675 7.071,0 7.071,-10.0001 0,-10.0001 z" /><path
         style="fill:#ffffff;stroke-width:1;paint-order:markers stroke fill"
         id="path6784"
         d="m 1262.3705,876.26226 c 0.7637,5.08299 3.5423,9.42766 6.1746,13.72703 2.308,3.82363 5.3419,7.08927 8.7184,9.98011 3.3832,2.55527 6.9494,4.8853 10.7574,6.75288 4.5227,1.82767 9.1546,3.37834 13.7428,5.03471 3.0965,1.14749 6.25,2.19998 9.2616,3.56621 0.7909,0.3588 2.656,1.38784 3.3184,1.74591 5.3046,2.85138 10.2622,6.28792 15.378,9.45713 3.5817,2.14371 6.9617,4.60388 10.6114,6.63633 1.9221,1.07035 3.1743,1.64949 5.1194,2.59641 3.6128,1.64661 7.0536,3.62918 10.5647,5.47566 1.8066,0.94387 3.5799,1.96085 5.4327,2.81477 0.4878,0.22487 0.9462,0.60648 1.4828,0.63111 1.5369,0.0706 3.4182,0.63063 4.6023,-0.35179 1.6204,-1.34446 1.802,-3.80616 2.703,-5.70926 -0.4202,-1.05156 -0.7408,-2.1486 -1.2607,-3.15465 -0.3503,-0.67784 -2.494,-3.56275 -2.9976,-4.22593 -1.7399,-2.29148 -3.5932,-4.37951 -5.5889,-6.45041 -6.0494,-5.36458 -13.3322,-9.04425 -20.4981,-12.66917 -4.829,-2.23512 -9.4792,-4.82246 -14.2638,-7.1473 -5.2091,-2.46613 -10.3657,-5.04333 -15.5297,-7.60264 -4.7151,-2.35442 -9.4227,-4.72483 -14.1102,-7.13372 -2.2818,-0.98235 -4.2581,-2.40933 -6.2259,-3.8879 -1.8981,-1.19636 -3.6481,-2.60837 -5.4194,-3.98126 -1.1832,-1.06408 -2.3976,-2.09376 -3.5909,-3.14627 -0.6524,-0.57549 -0.7433,-0.3356 -0.594,-0.65058 0.8921,2.07576 1.9553,3.13878 0.1964,5.44343 -0.6667,0.87352 -1.8397,1.20401 -2.7874,1.76025 -0.1252,0.0735 -0.4741,-0.0127 -0.4183,0.1212 0.088,0.2114 0.4037,0.21648 0.6047,0.32621 0.4801,0.26201 0.9591,0.52599 1.4387,0.78896 5.3099,3.20593 10.4644,6.65435 15.5676,10.17741 6.6739,4.70609 14.1413,8.05735 21.4884,11.5462 8.0546,3.99733 16.423,7.26924 24.8995,10.24033 3.2238,1.25891 6.5718,2.19895 9.7366,3.61019 0.826,0.36835 2.5056,1.2251 3.3314,1.64076 3.2736,1.17369 0.661,0.61349 0.6215,0.37483 -0.3573,-2.15535 -1.1449,-4.40976 -0.6036,-6.52637 0.2665,-1.04193 2.261,-0.76557 2.7174,-1.73942 0.2439,-0.52052 -1.0714,-0.41839 -1.5948,-0.65622 -1.238,-0.56269 -2.4586,-1.16311 -3.6878,-1.74467 -11.621,-5.95336 -23.0953,-12.19282 -34.5329,-18.49016 -7.5227,-4.01789 -14.8142,-8.44164 -22.3462,-12.44129 -3.967,-1.97935 -8.1176,-3.54124 -12.2543,-5.11974 -2.8935,-1.06411 -5.8499,-1.93779 -8.7849,-2.87483 -1.6055,-0.43419 -2.9872,-1.38375 -4.4888,-2.07365 -0.8942,-0.3919 -1.8427,-0.64323 -2.72,-1.07455 -0.116,-0.0571 -0.431,-0.28014 -0.3375,-0.19095 0.5857,0.55827 1.7478,0.79928 1.8209,1.60507 0.1949,2.14857 -0.7312,4.25238 -1.0967,6.37857 -1.1709,0.3815 -2.5993,0.31845 -3.5126,1.14451 -0.3827,0.34618 0.8492,0.58679 1.2734,0.88082 2.3427,1.62399 3.5859,2.47449 6.0616,4.28641 2.9099,2.12966 7.7147,5.77863 10.4354,7.83352 6.2138,4.61894 12.3721,9.31159 18.5412,13.98987 1.8224,1.38208 3.6204,2.79728 5.4696,4.14335 4.2466,3.09118 6.1305,4.25127 10.4274,7.06109 7.0953,4.36322 14.3972,8.37057 21.9687,11.84111 6.7093,2.67166 13.8331,4.06085 20.8308,5.75088 4.5145,1.19504 9.0902,2.25658 13.3894,4.11448 2.4834,1.10422 4.8385,2.47158 7.2671,3.69546 4.3669,2.1952 8.6969,4.45982 13.1353,6.50854 3.2179,1.65286 6.4581,3.26605 9.6068,5.04876 3.9822,2.26144 8.101,4.27119 12.2212,6.26641 6.3542,2.90889 12.7056,5.82272 19.1418,8.54655 6.2504,2.49706 12.493,5.01568 18.8404,7.25691 8.1615,2.94759 16.7211,4.43815 25.1594,6.34413 4.5076,1.07555 9.0678,2.03213 13.487,3.44437 3.8724,1.50162 7.5647,3.41746 11.3349,5.15191 6.5533,3.14301 13.1538,6.16847 19.8593,8.97312 13.3159,5.4297 26.3559,11.4972 39.5179,17.2818 7.8188,3.2512 15.5052,6.8223 23.3562,9.9973 1.1807,0.4775 6.4187,2.4798 7.7422,2.9871 6.0907,2.4417 12.3095,4.5421 18.4423,6.873 3.2334,1.2289 6.9559,2.7176 10.1871,3.999 7.6171,2.9994 15.2075,6.0659 22.7798,9.1762 5.956,2.6064 11.8028,5.4523 17.7141,8.1583 6.7956,3.0825 13.6358,6.0719 20.5579,8.8592 7.0614,2.8463 14.1469,5.6307 21.3568,8.0801 6.372,2.2639 12.7753,4.446 19.0756,6.9044 6.5033,2.4852 12.971,5.0623 19.4342,7.6498 1.3974,0.5828 2.8024,1.1479 4.1923,1.7485 1.63,0.7042 3.2359,1.4634 4.8667,2.1658 7.9479,3.4228 15.9809,6.6558 23.9695,9.9819 4.7654,1.9855 9.4851,4.0813 14.2661,6.0297 2.456,1.0008 4.9323,1.9383 7.3732,2.9764 5.6179,2.8628 11.2182,5.7594 16.8452,8.6044 7.2,3.592 14.6062,6.7417 22.0535,9.7784 6.0633,2.5002 12.1097,5.0488 18.2783,7.2806 1.1827,0.5106 2.5052,0.7688 3.6243,1.4332 0.1372,0.081 -0.3412,-0.059 -0.4427,-0.1819 -0.6182,-0.749 -1.1165,-1.5893 -1.6748,-2.384 1.7165,6.8596 11.4174,4.4322 9.701,-2.4274 v 0 c -0.6135,-1.0152 -1.0865,-2.1299 -1.8404,-3.0457 -1.0748,-1.3057 -4.4241,-2.1424 -5.9678,-2.7986 -6.0437,-2.1827 -11.9614,-4.6926 -17.9027,-7.1362 -7.1977,-2.9341 -14.357,-5.9742 -21.3168,-9.4427 -5.8252,-2.945 -11.6117,-5.9652 -17.4495,-8.885 -2.4604,-1.0429 -4.9535,-1.9913 -7.4279,-2.9995 -4.7842,-1.9493 -9.5065,-4.0477 -14.2753,-6.0335 -7.915,-3.2953 -15.8752,-6.4961 -23.7497,-9.8873 -1.7026,-0.7333 -3.38,-1.5238 -5.0819,-2.2585 -1.4337,-0.619 -2.8827,-1.2016 -4.3241,-1.8024 -6.4919,-2.5988 -12.9883,-5.1872 -19.5203,-7.6837 -6.441,-2.506 -12.9791,-4.7502 -19.4935,-7.0567 -7.0373,-2.3836 -13.9453,-5.1166 -20.8378,-7.8878 -6.7792,-2.7234 -13.4723,-5.6598 -20.127,-8.674 -6.0312,-2.761 -11.9946,-5.6693 -18.077,-8.3159 -7.6101,-3.1257 -15.2381,-6.2076 -22.893,-9.2219 -3.3688,-1.3358 -7.0137,-2.794 -10.3911,-4.0773 -6.1006,-2.3181 -12.2864,-4.4078 -18.3451,-6.8363 -0.9774,-0.3747 -6.5602,-2.5102 -7.4584,-2.8733 -7.7977,-3.1522 -15.4305,-6.701 -23.1963,-9.9287 -13.2177,-5.808 -26.3121,-11.9017 -39.6843,-17.35312 -6.5991,-2.75678 -13.0893,-5.74284 -19.5388,-8.83251 -4.1506,-1.90709 -8.208,-4.04188 -12.5076,-5.60414 -4.6944,-1.46325 -9.5007,-2.55558 -14.2887,-3.6608 -8.0588,-1.81965 -16.2383,-3.22231 -24.0375,-6.02086 -6.157,-2.16688 -12.205,-4.62312 -18.269,-7.03559 -6.2813,-2.65618 -12.4767,-5.5042 -18.6797,-8.33707 -3.9313,-1.9036 -7.8639,-3.81664 -11.6635,-5.97435 -3.3908,-1.90939 -6.8656,-3.66289 -10.3361,-5.42189 -4.3352,-1.99591 -8.5563,-4.22047 -12.8226,-6.35778 -2.6203,-1.31985 -5.1598,-2.79871 -7.8516,-3.96666 -4.8258,-2.03015 -9.8885,-3.35431 -14.957,-4.63328 -6.3761,-1.53942 -12.8605,-2.80789 -19.0141,-5.12206 -7.1214,-3.25869 -13.9824,-7.0335 -20.663,-11.12079 -3.9536,-2.58095 -5.9695,-3.82968 -9.8588,-6.66075 -1.8465,-1.34408 -3.6418,-2.75722 -5.4616,-4.13726 -6.1756,-4.68326 -12.3405,-9.38083 -18.5608,-14.00477 -4.7935,-3.62011 -9.5628,-7.27273 -14.4776,-10.72827 -0.6146,-0.43214 -4.9634,-3.50771 -5.7781,-3.64448 -1.9783,-0.3321 -4.0099,0.13129 -6.0148,0.19693 -0.5115,2.23526 -1.6956,4.41839 -1.5345,6.70576 0.1243,1.76562 4.3158,3.17749 5.7848,3.72131 1.8631,0.76341 3.508,2.06116 5.5254,2.46806 2.7584,0.8754 5.5329,1.70289 8.2552,2.68976 3.7523,1.42904 7.5172,2.84181 11.1278,4.6084 7.4882,3.97333 14.7307,8.38121 22.212,12.36875 11.6452,6.41058 23.3243,12.76995 35.1666,18.81028 1.2944,0.58563 6.8476,3.39572 8.811,3.29875 1.8678,-0.0923 4.4039,0.0275 5.3884,-1.56255 3.3376,-5.39086 0.4304,-7.6481 -2.972,-9.45944 -1.2802,-0.64272 -2.715,-1.37993 -4.0149,-1.95276 -3.3347,-1.46936 -6.8395,-2.49449 -10.2369,-3.80066 -8.1428,-2.85292 -16.1835,-5.98979 -23.9178,-9.83659 -6.8627,-3.25777 -13.8564,-6.3558 -20.0965,-10.74241 -5.4256,-3.74472 -10.9044,-7.41576 -16.5723,-10.78698 -1.5858,-0.82002 -5.1589,-2.80482 -7.04,-2.36974 -3.3292,0.77002 -5.4406,1.83735 -5.6167,5.55927 -0.056,1.18305 0.7205,2.25652 1.0808,3.38481 0.3344,0.39452 0.647,0.80862 1.0032,1.18356 1.4576,1.53419 3.3859,2.86772 4.9216,4.34229 1.8102,1.40272 3.5997,2.85102 5.5389,4.07239 2.4188,1.81671 4.888,3.53822 7.6623,4.78742 4.731,2.43004 9.4809,4.82375 14.2395,7.19897 5.1888,2.57159 10.3705,5.16059 15.6044,7.63924 4.7376,2.29592 9.3341,4.86923 14.1168,7.07448 6.1829,3.12592 12.4744,6.26157 17.8338,10.70877 1.6997,1.73704 3.2552,3.50091 4.7281,5.43597 0.4547,0.5974 0.8929,1.20724 1.3409,1.80964 0.2838,0.38153 0.4576,0.88064 0.8547,1.14218 0.1396,0.092 0.1035,-0.31803 0.1553,-0.47704 4.2139,-6.38532 0.6354,-3.62678 6.5038,-4.20547 0.3337,-0.0329 -0.6265,-0.24054 -0.9313,-0.38018 -1.7736,-0.81254 -3.4643,-1.79541 -5.194,-2.69335 -3.6053,-1.89527 -7.1392,-3.92899 -10.8488,-5.61933 -1.5842,-0.76785 -2.8835,-1.37271 -4.4327,-2.22914 -3.5843,-1.98144 -6.8808,-4.42468 -10.4021,-6.51015 -5.2867,-3.27428 -10.4093,-6.82612 -15.8993,-9.75866 -1.5143,-0.81407 -2.6956,-1.4832 -4.2589,-2.19133 -3.1456,-1.42478 -6.4372,-2.52555 -9.6708,-3.72412 -4.2628,-1.53818 -8.5532,-3.00654 -12.7835,-4.63089 -3.0708,-1.45516 -5.8772,-3.40426 -8.6385,-5.37295 -2.5941,-2.17765 -4.9015,-4.67331 -6.6644,-7.58171 -1.1772,-1.9203 -2.3565,-3.83329 -3.4036,-5.82912 -0.2383,-0.45421 -0.5008,-0.89921 -0.6847,-1.37805 -0.2744,-0.71462 -0.3701,-1.48858 -0.6544,-2.20126 -0.6402,-7.04202 -10.5991,-6.13666 -9.9589,0.90538 z" /><path
         style="fill:#ffffff;stroke-width:1;paint-order:markers stroke fill"
         id="path6786"
         d="m 1846.161,1150.4092 c -0.3195,0.023 -0.6383,0.074 -0.9585,0.069 -0.6931,-0.012 -2.1855,-0.3074 -2.7002,-0.4102 -2.7948,-0.5582 -5.5137,-1.3234 -8.2483,-2.1188 -4.3651,-1.2387 -8.5171,-3.0714 -12.5648,-5.0976 -6.7473,-3.4156 -13.264,-7.2548 -20.0447,-10.6049 -6.9547,-3.307 -13.9997,-6.4171 -20.9615,-9.7091 -4.8568,-2.3111 -9.8571,-4.2776 -14.8623,-6.2361 -6.1818,-2.7534 -12.191,-5.87 -18.2737,-8.8302 -6.3952,-3.0425 -13.0558,-5.4929 -19.7135,-7.8919 -5.4701,-1.9411 -10.9605,-3.8155 -16.3725,-5.9146 -1.222,-0.4868 -2.4546,-0.9474 -3.6659,-1.4604 -2.7306,-1.1563 -5.4066,-2.4379 -8.119,-3.6366 -5.383,-2.3789 -10.8153,-4.6418 -16.2398,-6.9235 -10.8665,-4.4621 -21.7302,-8.9207 -32.7267,-13.054 -7.2513,-2.6225 -14.4559,-5.3788 -21.59,-8.3054 -6.7607,-2.8312 -13.8229,-4.8172 -20.7254,-7.2535 -9.1117,-3.2918 -17.9576,-7.2717 -26.7975,-11.2228 -10.3701,-4.6173 -20.8673,-8.9328 -31.2621,-13.4924 -9.5833,-4.1559 -19.0515,-8.5654 -28.4709,-13.0782 -6.9527,-3.0003 -13.6203,-6.583 -20.0711,-10.5352 -4.5104,-2.8507 -8.9991,-5.73351 -13.5402,-8.53587 -5.4746,-3.25064 -11.0741,-6.28465 -16.6942,-9.27457 -2.7084,-1.342 -5.3484,-2.8126 -7.9791,-4.29871 -6.1578,-3.47581 -11.0734,5.23266 -4.9156,8.70847 v 0 c 2.7042,1.52527 5.4158,3.03834 8.1981,4.4187 5.4319,2.88964 10.8443,5.82098 16.1394,8.95628 4.5508,2.808 9.0473,5.6994 13.5689,8.5535 6.744,4.1286 13.71,7.8815 20.9732,11.0258 9.52,4.5607 19.0893,9.017 28.7746,13.2176 10.3739,4.5501 20.8491,8.8579 31.1987,13.4643 9.088,4.0614 18.1839,8.1478 27.5538,11.5245 6.7471,2.3747 13.6433,4.3277 20.2566,7.0749 7.2267,2.9601 14.5198,5.7599 21.8647,8.4133 10.8762,4.0873 21.6196,8.4995 32.3676,12.9111 5.3539,2.2519 10.716,4.484 16.0289,6.8319 0.5586,0.2469 7.8322,3.5152 8.5068,3.8006 1.24,0.5246 2.5017,0.9963 3.7525,1.4944 5.4873,2.1251 11.0495,4.0351 16.5962,5.9982 6.3228,2.2782 12.6527,4.5948 18.7295,7.4768 6.3227,3.0736 12.562,6.3266 19.004,9.15 4.7919,1.8748 9.5817,3.7505 14.2314,5.964 6.9123,3.268 13.9049,6.3605 20.8129,9.6373 6.7745,3.3345 13.2644,7.2 20.0118,10.5886 4.5923,2.275 9.2885,4.3567 14.2348,5.7493 5.1095,1.4787 10.4164,3.1962 15.7974,2.7953 7.0278,-0.7809 5.9235,-10.7197 -1.1043,-9.9389 z" /></g></g></svg>
