<?xml version="1.0" encoding="UTF-8" standalone="no"?>
<!-- Created with Inkscape (http://www.inkscape.org/) -->

<svg
   width="3840mm"
   height="2160mm"
   viewBox="0 0 3840 2160"
   version="1.1"
   id="svg5"
   sodipodi:docname="sword_enemy_swordandslash.svg"
   xml:space="preserve"
   inkscape:version="1.2.2 (732a01da63, 2022-12-09)"
   inkscape:export-filename="..\..\enemies\swordandslash.png"
   inkscape:export-xdpi="96.096664"
   inkscape:export-ydpi="96.096664"
   xmlns:inkscape="http://www.inkscape.org/namespaces/inkscape"
   xmlns:sodipodi="http://sodipodi.sourceforge.net/DTD/sodipodi-0.dtd"
   xmlns="http://www.w3.org/2000/svg"
   xmlns:svg="http://www.w3.org/2000/svg"><sodipodi:namedview
     id="namedview7"
     pagecolor="#ffffff"
     bordercolor="#000000"
     borderopacity="0.25"
     inkscape:showpageshadow="2"
     inkscape:pageopacity="0.0"
     inkscape:pagecheckerboard="0"
     inkscape:deskcolor="#d1d1d1"
     inkscape:document-units="mm"
     showgrid="false"
     inkscape:zoom="0.056568542"
     inkscape:cx="7884.2406"
     inkscape:cy="5586.1436"
     inkscape:window-width="1920"
     inkscape:window-height="986"
     inkscape:window-x="-11"
     inkscape:window-y="-11"
     inkscape:window-maximized="1"
     inkscape:current-layer="layer1" /><defs
     id="defs2"><rect
       x="5132.9903"
       y="3898.4983"
       width="130.66503"
       height="559.71437"
       id="rect2942" /></defs><g
     inkscape:label="Layer 1"
     inkscape:groupmode="layer"
     id="layer1"><text
       xml:space="preserve"
       transform="scale(0.26458333)"
       id="text2940"
       style="font-size:266.667px;font-family:'Arial Rounded MT Bold';-inkscape-font-specification:'Arial Rounded MT Bold, ';white-space:pre;shape-inside:url(#rect2942);display:inline;fill:#b3b3b3;stroke-width:3.77953;paint-order:markers stroke fill" /><g
       id="g3383"
       transform="matrix(1.3333332,0,0,1.3333339,1410.5118,59.200172)"><path
         style="fill:#e6e6e6;fill-opacity:1;stroke-width:1;paint-order:markers stroke fill"
         id="path3356"
         d="m 1177.4182,227.59914 c 8.2878,-4.3375 15.7885,-9.95352 22.8285,-16.07212 6.7583,-5.62002 12.4406,-12.34324 18.139,-18.99041 4.189,-5.16248 9.9849,-12.00552 7.9736,-19.40959 -1.0992,-4.04655 -2.9371,-8.37364 -6.2868,-10.89597 -3.5637,-2.68345 -8.6019,-2.36906 -12.9028,-3.5536 -2.8347,0.77566 -5.7787,1.22725 -8.5041,2.32698 -4.1982,1.69402 -10.252,5.93591 -13.9423,8.57682 -5.1368,3.67599 -10.0742,7.59577 -15.2559,11.21175 -7.8693,5.46269 -25.9829,13.84898 -16.2303,28.04282 3.8401,5.58891 12.6721,4.83208 19.0081,7.24812 2.7174,-1.48295 5.5748,-2.73386 8.152,-4.44885 2.1461,-1.42818 10.4436,-8.83437 12.2632,-10.5087 6.5535,-6.03051 12.9193,-12.28314 19.353,-18.44103 8.1163,-8.0401 16.4861,-15.80258 24.8175,-23.60679 7.2127,-6.38014 13.287,-13.82207 18.0764,-22.15393 2.1212,-3.14002 3.3744,-7.02297 5.8801,-9.91116 0.1181,-0.13616 0.3531,-0.11169 0.4897,-0.22929 0.5646,-0.48609 1.0634,-1.04374 1.5952,-1.5656 5.862,-3.41268 10.8162,-8.05303 15.8969,-12.49358 7.2535,-5.63508 13.7147,-12.1795 20.5898,-18.245036 5.7569,-4.963525 10.3351,-11.040118 15.4015,-16.660664 4.6918,-5.140206 10.0582,-9.526696 15.5093,-13.824857 5.8837,-4.822106 10.9213,-10.471836 15.9034,-16.180123 0.2653,-0.237747 0.5306,-0.475496 0.7959,-0.713245 0.049,0.01122 0.1675,-0.01257 0.1474,0.03364 -0.1865,0.429205 -1.5564,0.936821 -1.0915,0.882899 1.0527,-0.122108 2.0045,-0.689684 3.0173,-1.001549 3.9348,-1.604399 7.8393,-3.032895 11.6595,-4.946906 6.2268,-3.026627 9.5846,-8.056891 13.2661,-13.557911 -0.6181,1.241538 -1.792,2.630601 -3.0976,3.201751 -0.7923,0.346605 -1.7244,0.38308 -2.45,0.853655 -0.1957,0.12692 -0.1318,0.562604 0.059,0.697304 1.1693,0.827098 2.5265,1.349867 3.7898,2.024801 10.3142,5.350824 20.4185,11.227244 29.0605,19.047134 5.8241,6.208609 10.7575,13.159933 15.9649,19.874597 5.2699,7.229028 11.1584,13.920917 17.34,20.371083 6.747,7.041747 13.5747,13.993627 20.7606,20.588087 5.7166,5.06883 11.2631,10.29623 16.4758,15.88071 6.1896,6.25474 12.0098,12.84143 18.4486,18.84438 6.9557,6.33432 14.2937,12.21087 21.7966,17.87733 5.0049,3.54049 9.7317,7.45426 14.6096,11.16534 3.4923,2.39911 6.2176,5.63452 8.7389,8.99619 2.9165,4.25836 5.5078,8.7096 8.068,13.18726 1.975,3.29141 2.0298,7.14815 2.3004,10.87847 0.3154,5.87049 0.2747,11.75207 0.2631,17.62872 0.3453,5.58566 -0.244,11.01442 -1.0915,16.51126 -1.018,6.20847 -2.4086,12.28868 -4.1171,18.33377 -2.3989,6.49039 -3.5671,13.29219 -4.2641,20.14657 -0.587,7.59357 -0.5311,15.21759 -0.5416,22.82825 0.01,9.6702 0.023,19.34038 0.029,29.01056 0.01,14.74623 0.01,29.49244 0.01,44.23867 0,10.71221 2e-4,21.42445 10e-5,32.13666 -0.2232,10.70311 0.582,21.38209 1.0079,32.06994 0.486,13.16966 0.5592,26.34943 0.6238,39.52642 0.043,11.65066 0.034,23.3014 0.031,34.95212 0,10.86464 -0.01,21.7293 -0.01,32.59394 0,8.61457 0,17.22914 0,25.84373 0.283,9.39967 -0.5177,18.76764 -0.9781,28.14646 -0.3794,11.30104 -1.3141,22.57247 -1.836,33.86735 -0.3806,9.25965 -0.457,18.52763 -0.4989,27.79379 -0.2315,6.14611 -1.7396,12.12916 -2.8521,18.15333 -1.5161,7.61143 -1.8268,15.36859 -2.0288,23.10341 -0.2047,7.36376 -0.206,14.70936 0.43,22.05006 0.4175,7.62244 2.3048,15.03596 3.3899,22.572 1.2938,6.24134 2.1174,12.49908 2.4273,18.85876 0.161,4.23799 0.2209,8.47881 0.2696,12.71926 0.012,1.04307 0.016,2.08619 0.03,3.1292 0,0.26424 -0.2435,0.80053 0.021,0.79251 10.0108,-0.30321 19.9987,-1.13448 29.9981,-1.70172 0.5013,-15.2981 -0.7371,-30.51172 -2.2601,-45.7172 -1.0571,-9.59998 -2.4705,-19.16006 -4.0744,-28.683 -0.3635,-2.15871 -0.7063,-4.32247 -1.1587,-6.46432 -0.3206,-1.51757 0.095,-3.594 -1.159,-4.50655 -5.8863,-4.28278 -12.8257,-6.88953 -19.2386,-10.3343 -3.5125,6.70869 -8.1136,12.95185 -10.5374,20.12606 -0.3136,0.92834 2.4355,15.05767 2.5754,15.79787 1.3548,7.16814 2.658,14.33301 3.8768,21.52576 2.8248,15.49334 5.7255,30.97673 8.0126,46.56055 1.7656,11.41339 1.7579,22.9725 2.4134,34.47235 0.282,10.03927 1.6068,19.89143 3.5504,29.72951 1.4671,8.40947 2.6244,16.85584 4.1003,25.26673 1.2563,7.13793 2.556,14.23017 3.1982,21.45409 0.4842,6.33722 0.5153,12.6964 0.5448,19.04835 0.01,7.46581 -0.01,14.93161 -0.014,22.39741 0.3095,8.47534 -0.4058,16.89645 -1.3783,25.30297 -0.8378,8.63934 -2.1394,17.22094 -3.172,25.83739 -0.9768,10.98666 -2.9495,21.86756 -5.0393,32.69056 -1.9171,8.8855 -2.6422,17.932 -3.5513,26.9513 -0.7846,6.6968 -1.3372,13.4143 -1.5948,20.1514 -0.1657,5.8851 -0.1726,11.7733 -0.1747,17.6603 -0.2072,5.6261 0.9965,11.1552 1.5887,16.7132 -0.4889,-3.4401 -0.6282,-2.6801 1.9111,-7.9582 0.4122,-0.8567 1.2725,-1.4131 1.9234,-2.1061 0.1572,-0.1673 0.43,-0.255 0.4999,-0.4737 0.1601,-0.5012 -1.0537,-0.029 -1.5785,0.01 -14.3417,0.3206 -28.6896,0.2248 -43.034,0.1945 -13.6753,-0.039 -27.3506,-0.064 -41.026,-0.076 -15.4195,0.2184 -30.7944,-1.0629 -46.0726,-3.0245 -9.9031,-1.1653 -19.7115,-2.9435 -29.5672,-4.4174 -10.8443,-1.7207 -21.7725,-2.8165 -32.6748,-4.0902 -9.0684,-0.9619 -18.1773,-1.401 -27.2698,-2.0655 -16.7616,-0.9596 -33.5616,-1.053 -50.3462,-1.207 -12.7081,-0.1355 -25.3028,1.2762 -37.6868,4.0318 -7.8182,1.6741 -15.7069,2.9681 -23.679,3.582 -13.2715,0.4084 -26.5391,0.7338 -39.8044,1.3647 -9.9149,1.3101 -19.562,-0.9123 -29.2647,-2.6809 -2.3659,-0.4243 -5.551,-0.9292 -7.959,-1.5709 -0.6059,-0.1615 -1.2047,-0.3613 -1.7763,-0.6189 -0.1222,-0.055 -0.3925,-0.3461 -0.2661,-0.3014 1.8559,0.6558 1.8001,0.8373 3.2246,2.0827 1.8029,3.1978 1.1135,-0.1183 1.0879,-1.4878 -0.034,-1.7981 -0.018,-3.2645 -0.012,-5.0736 0.2991,-5.9923 -0.3645,-11.9543 -0.8894,-17.9131 -0.3875,-4.5739 -0.4896,-9.1641 -0.5454,-13.7517 -0.043,-5.6061 -0.033,-11.2123 -0.03,-16.8185 0,-6.1431 1.286,-12.2138 2.077,-18.2936 0.4073,-5.2067 1.8415,-10.2472 3.1365,-15.2856 1.7508,-8.0891 3.8348,-16.0678 5.0957,-24.26014 1.0195,-6.94365 1.2128,-13.9613 1.2959,-20.96633 0.04,-9.24726 0.01,-18.49472 0,-27.74201 0.2654,-6.94671 -0.6672,-14.00019 0.6616,-20.86322 1.3055,-6.98542 3.6174,-13.72142 5.3176,-20.6145 1.6216,-6.86038 2.0435,-13.89909 2.2409,-20.91942 0.081,-5.91185 0.8352,-11.79001 1.2232,-17.6884 0.4783,-5.75717 1.2412,-11.47863 1.625,-17.25565 0.067,-6.17249 0.649,-12.24735 1.5513,-18.34517 1.1367,-6.87451 1.7971,-13.80464 2.0791,-20.76244 -0.064,-7.42503 0.8443,-14.96965 -0.5153,-22.33493 -0.5023,-2.72077 -1.3476,-5.36689 -2.0214,-8.05035 -2.0475,-7.68794 -5.5896,-14.8894 -7.4782,-22.62145 -0.9143,-3.74332 -1.1217,-5.6574 -1.7095,-9.48113 -1.1043,-8.46341 -1.284,-17.00046 -1.9296,-25.50332 -0.4892,-6.17424 -0.8487,-12.35668 -0.9891,-18.54861 -0.3035,-8.22344 0.01,-16.41486 0.6209,-24.6126 0.4913,-7.09647 0.6683,-14.19649 1.3115,-21.28065 0.8875,-10.58035 1.0546,-21.20178 1.2029,-31.81263 0.093,-7.6082 0.1114,-15.21698 0.111,-22.82563 0,-1.04177 -0.065,-2.0855 0,-3.12531 0.1007,-1.6473 0.5309,-3.25784 0.7778,-4.88961 0.5947,-3.93022 1.1191,-7.86767 1.6654,-11.80499 2.0363,-13.74114 2.9041,-27.61946 3.6467,-41.47995 0.4119,-6.07692 0.191,-12.17496 0.9124,-18.22092 0.7611,-8.24445 1.8452,-16.44899 2.9628,-24.65245 1.5872,-11.28115 2.3095,-22.65291 3.4032,-33.98626 0.9166,-8.11382 1.2488,-16.26814 1.4253,-24.42593 0.1239,-7.83609 0.1,-15.67355 0.095,-23.51035 -0.1789,-5.48696 0.1751,-15.69953 -2.5857,-20.50063 -1.452,-2.525 -3.4579,-4.6881 -5.1869,-7.03215 -5.0004,-1.03592 -9.9623,-3.93623 -15.0012,-3.10772 -9.7185,1.59793 -13.0177,13.13143 -15.7607,20.61901 -7.5258,20.54341 3.4743,-9.36006 -4.6745,12.77165 -5.7701,13.9233 -9.4035,28.45469 -11.681,43.31295 -1.2684,11.40653 -2.0909,22.86593 -2.6666,34.32844 -0.054,18.50499 -0.3767,23.74617 30.2059,14.93261 1.0272,-0.29601 1.876,-15.55972 1.927,-16.27444 0.9765,-21.32015 2.2139,-42.61207 3.9518,-63.88354 1.3996,-18.91379 2.7152,-37.82978 4.4546,-56.71621 0.9478,-9.84809 1.7479,-19.70667 2.0193,-29.59762 -0.1166,-10.12751 0.1523,-20.183 1.2551,-30.24849 1.1139,-9.12061 2.9938,-18.09975 4.9414,-27.06843 2.0554,-7.05625 4.4299,-14.01915 7.0268,-20.89414 2.5418,-6.54298 5.1333,-13.08237 7.2371,-19.78185 2.1764,-6.9371 3.7984,-14.02436 5.4108,-21.10793 1.2449,-5.10932 1.8642,-10.34126 3.0137,-15.46679 4.4928,-20.73196 -24.8266,-27.08583 -29.3195,-6.35387 v 0 c -1.0683,5.03911 -1.8207,10.13388 -2.9461,15.16279 -1.4449,6.34874 -2.8715,12.70773 -4.8264,18.92414 -1.8371,6.14093 -4.3983,12.05663 -6.6457,18.05342 -3.0962,8.24709 -5.9784,16.58829 -8.2676,25.0987 -2.1702,9.99622 -4.228,20.01467 -5.4477,30.18192 -1.1814,10.88019 -1.5678,21.75621 -1.4212,32.70096 -0.2379,9.23989 -1.0356,18.44625 -1.9037,27.64637 -1.7482,18.98927 -3.0783,38.00768 -4.4813,57.02472 -1.746,21.37939 -3.0079,42.77881 -3.9765,64.2077 -0.1686,2.40226 -0.5154,4.79862 -0.5057,7.20675 0,0.21024 0.3265,0.31475 0.536,0.33245 9.2625,0.78187 18.6,0.80404 27.8101,2.06039 0.5846,0.0797 0.2967,2.34005 0.1924,1.7594 -0.1282,-0.7135 -0.2326,-1.43447 -0.2641,-2.15871 -0.061,-1.41282 -0.01,-2.82829 -0.014,-4.24244 0.5204,-10.46202 1.284,-20.91674 2.3659,-31.33481 1.9198,-12.87079 5.1338,-25.40267 10.1715,-37.43926 2.5328,-6.87953 2.3065,-6.2366 4.6985,-12.83697 0.3959,-1.09249 2.5347,-5.4923 1.2151,-4.97009 -11.7552,4.6519 -1.9185,4.67423 -18.7425,-0.58195 -0.9621,-1.65111 -1.999,-3.26086 -2.8862,-4.95335 -0.067,-0.12856 0,-0.56147 0.064,-0.43077 1.2526,2.59038 0.3334,7.9288 0.7081,10.67451 0,7.61672 0.028,15.2341 -0.088,22.85016 -0.1575,7.41069 -0.4469,14.81809 -1.2935,22.18793 -1.056,10.94454 -1.7514,21.92607 -3.2678,32.82183 -1.1396,8.38022 -2.2475,16.76304 -3.0304,25.18418 -0.782,6.69107 -0.7384,13.40937 -1.0761,20.13328 -0.6946,13.01816 -1.4878,26.05593 -3.4053,38.96143 -1.1013,7.94692 -2.6372,15.9099 -2.7257,23.94183 0,7.46895 -0.017,14.93798 -0.108,22.40648 -0.1365,9.84681 -0.2774,19.70394 -1.0835,29.52374 -0.6549,7.24495 -0.8836,14.50173 -1.3511,21.75983 -0.6815,9.16954 -1.013,18.33917 -0.6956,27.53569 0.1589,6.71846 0.5328,13.42763 1.0674,20.12699 0.7089,9.31222 0.8801,18.66768 2.213,27.92542 0.9,5.55297 1.1035,7.58338 2.5093,13.07994 1.9346,7.56399 5.102,14.70213 7.351,22.16563 0.8081,2.59241 1.4949,4.15938 1.6792,6.79884 0.3378,4.83849 -0.2886,9.74524 -0.1625,14.5887 -0.2126,5.88169 -0.8238,11.73366 -1.7803,17.54301 -1.0137,6.89224 -1.7082,13.78141 -1.8077,20.75201 -0.3768,5.7838 -1.1766,11.50282 -1.6262,17.27452 -0.405,6.27671 -1.2227,12.53058 -1.2757,18.82489 -0.1276,4.88937 -0.3246,9.80244 -1.39,14.59542 -1.8695,7.6949 -4.5561,15.18875 -5.8055,23.03108 -0.2786,1.93191 -0.6406,3.8536 -0.8358,5.79572 -0.6609,6.57802 0.069,13.23859 -0.1999,19.82923 0.012,9.11855 0.042,18.23723 0,27.35575 -0.063,5.61845 -0.1695,11.25011 -0.9599,16.82361 -1.0657,7.20256 -3.0133,14.1869 -4.4946,21.30321 -1.5895,6.21828 -3.2711,12.45488 -3.8259,18.87018 -0.9528,7.3552 -2.4417,14.695 -2.3267,22.1392 0,5.7361 -0.013,11.4724 0.032,17.2085 0.068,5.3422 0.1999,10.6869 0.6589,16.0124 0.4459,5.0589 1.0795,10.1071 0.7737,15.1958 -0.019,8.0572 -0.1068,16.1724 4.0416,23.4044 1.1999,1.494 2.2084,3.1643 3.5996,4.4819 6.1797,5.853 14.6295,7.3157 22.6821,8.6814 11.9173,2.1704 23.8999,4.545 36.0679,3.1329 13.5892,-0.6468 27.1819,-0.9291 40.7748,-1.4266 9.3627,-0.7725 18.6446,-2.1977 27.8252,-4.2082 10.1421,-2.2777 20.453,-3.4316 30.8694,-3.3111 16.1473,0.1478 32.3092,0.2349 48.4357,1.1286 8.6611,0.6324 17.3367,1.0575 25.9772,1.943 10.5927,1.2352 21.2108,2.2982 31.7471,3.9671 10.0577,1.4805 20.0606,3.3301 30.1662,4.5002 16.5325,2.1078 33.1685,3.4883 49.8516,3.2669 13.6635,0.013 27.3271,0.038 40.9906,0.076 15.5761,0.033 31.1703,0.2589 46.7343,-0.4157 11.9632,-1.6508 18.9576,-4.5149 23.1616,-17.275 0.5738,-1.7415 0.1587,-3.6636 0.238,-5.4954 -0.5443,-4.3796 -1.4334,-8.7541 -1.3813,-13.1818 0,-5.5177 0.01,-11.0363 0.1539,-16.5524 0.221,-6.1174 0.763,-12.2132 1.4676,-18.2936 0.8015,-8.1167 1.4288,-16.2586 3.1579,-24.2534 2.2148,-11.526 4.3078,-23.1106 5.369,-34.8069 1.0298,-8.6562 2.349,-17.27582 3.1858,-25.95487 1.0986,-9.53759 1.8787,-19.10106 1.5762,-28.71374 0.01,-7.52269 0.025,-15.04543 0.014,-22.56814 -0.034,-7.20577 -0.088,-14.41942 -0.6662,-21.60651 -0.7374,-8.05558 -2.1039,-15.98552 -3.5285,-23.94246 -1.5146,-8.62153 -2.672,-17.28518 -4.2185,-25.89991 -1.6827,-8.49529 -2.8485,-16.96458 -3.0306,-25.64656 -0.7335,-12.37684 -0.7172,-24.82112 -2.6825,-37.10078 -2.3296,-15.7985 -5.2357,-31.5024 -8.1151,-47.20825 -1.2493,-7.36589 -2.5683,-14.70816 -3.9699,-22.04651 -0.4286,-2.24438 -0.8887,-4.4831 -1.2775,-6.73471 -0.3224,-1.8669 0.8834,-6.37018 -0.8557,-5.61882 -4.7629,2.05766 -7.4583,7.2145 -11.1874,10.82175 -5.9759,-3.56897 -11.7084,-7.58124 -17.9277,-10.70695 -0.6204,-0.31181 0.4531,1.31665 0.5958,1.99623 0.4111,1.95691 0.7309,3.93205 1.0635,5.90381 0.6983,4.13848 2.103,13.16852 2.6382,17.12081 0.4423,3.26655 0.8059,6.54326 1.2088,9.81491 1.4273,14.17373 2.6154,28.34574 2.1101,42.60807 9.9961,0.30623 19.9905,0.67443 29.9883,0.91872 0.062,0.003 -0.01,-0.12407 -0.01,-0.18619 -0.012,-1.07707 -0.019,-2.15418 -0.031,-3.23122 -0.054,-4.61974 -0.121,-9.23997 -0.306,-13.85671 -0.3844,-7.28414 -1.2014,-14.49398 -2.6996,-21.64114 -1.0203,-6.98045 -2.7297,-13.84808 -3.1945,-20.89584 -0.5591,-6.2061 -0.4688,-12.41806 -0.324,-18.64598 0.1553,-6.16752 0.3217,-12.36157 1.541,-18.43159 1.432,-7.7732 3.2754,-15.51086 3.3495,-23.46013 0.04,-8.8515 0.1089,-17.70475 0.4674,-26.55022 0.516,-11.26654 1.4615,-22.50903 1.832,-33.78198 0.4796,-9.86612 1.3018,-19.7227 1.0139,-29.61052 0,-8.61319 -10e-5,-17.22639 0,-25.83958 0,-10.86305 0,-21.7261 0.01,-32.58913 0,-11.70283 0.012,-23.40572 -0.031,-35.10851 -0.066,-13.52717 -0.145,-27.05716 -0.6474,-40.57671 -0.4121,-10.28907 -1.1993,-20.56844 -0.984,-30.87198 10e-5,-10.71282 3e-4,-21.42564 -10e-5,-32.13846 0,-14.75275 0,-29.50549 -0.01,-44.25826 -0.01,-9.6497 -0.023,-19.29939 -0.029,-28.94912 0.01,-6.6489 -0.047,-13.3082 0.3988,-19.94575 0.47,-5.10465 1.4405,-10.10126 3.2765,-14.9121 2.041,-7.22482 3.6757,-14.51087 4.8978,-21.92409 1.0743,-6.98113 1.7625,-13.94403 1.4411,-21.01981 0.013,-6.67414 0.051,-13.35462 -0.3539,-20.01975 -0.6656,-8.15343 -1.8619,-16.30409 -6.1698,-23.4433 -3.2213,-5.62773 -6.5095,-11.21466 -10.2708,-16.50519 -4.2148,-5.45591 -8.7834,-10.67609 -14.4498,-14.68585 -4.9073,-3.70441 -9.6275,-7.66127 -14.6575,-11.20149 -6.7209,-5.07415 -13.3043,-10.32165 -19.5384,-15.99143 -5.9694,-5.41246 -11.1098,-11.64472 -16.8691,-17.27559 -5.7463,-6.13955 -11.8192,-11.931119 -18.1164,-17.50567 -6.7163,-6.153089 -13.0705,-12.66776 -19.3792,-19.236917 -5.461,-5.695262 -10.6608,-11.593502 -15.2934,-17.999739 -6.3296,-8.155741 -12.3092,-16.636389 -19.7124,-23.885845 -10.9088,-9.616671 -23.2466,-17.297912 -36.2501,-23.7952018 -6.6367,-2.9336092 -10.0733,-5.2032809 -17.4788,-5.5614288 -7.5871,-0.3669313 -14.4089,3.7132851 -18.7715,9.6287976 -0.4219,0.661036 -0.8438,1.322072 -1.2657,1.983108 -0.024,0.0928 -0.027,0.193785 -0.072,0.278402 -0.1182,0.222394 -0.4692,0.387446 -0.4127,0.632908 0.018,0.07912 1.506,-0.864154 0.1232,0.198276 -2.2096,1.136929 -5.3845,2.274493 -7.1077,3.094903 -6.2559,1.987994 -12.1918,4.514388 -16.5037,9.720555 -3.7536,4.320421 -7.486,8.643993 -11.8835,12.345948 -6.7633,5.360077 -13.3885,10.888088 -19.2047,17.292375 -4.3036,4.791451 -8.1887,9.965809 -12.9985,14.27534 -6.8025,6.051227 -13.2611,12.497617 -20.4435,18.116258 -2.0257,1.773685 -3.9673,3.642382 -6.0058,5.401329 -3.5365,3.051572 -7.9224,5.012692 -11.246,8.353352 -2.3756,2.36622 -3.654,3.52968 -5.8942,6.40567 -2.8522,3.66176 -4.7201,8.03265 -7.1404,11.96452 -3.0576,5.79009 -7.6513,10.57931 -12.4611,14.96306 -10.7646,10.19823 8.1379,-7.64461 -6.7595,6.11782 -6.2136,5.74029 -11.9898,11.95636 -18.2393,17.66108 -6.1743,5.9097 -12.2803,11.91278 -18.5609,17.70961 -1.8148,1.67505 -3.682,3.29248 -5.5296,4.93131 -1.152,1.02184 -2.5615,1.80673 -3.4692,3.05065 -0.2063,0.2828 0.6618,0.2288 0.9926,0.3432 5.096,2.73816 12.6283,3.0771 15.288,8.21447 2.5167,4.86098 -1.299,10.9012 -2.6444,16.20708 -0.1755,0.69224 -2.3895,1.56268 -1.771,1.20574 3.8305,-2.21041 7.4068,-4.88686 11.1001,-7.30779 5.136,-3.60692 10.0755,-7.44008 15.1456,-11.13487 1.5546,-1.13287 3.1494,-2.20936 4.7198,-3.32031 0.808,-0.57169 1.8134,-0.94171 2.4153,-1.72756 0.1757,-0.22948 -0.4591,-0.35133 -0.6886,-0.52698 -7.7956,-3.72584 -9.9472,-2.67387 -11.7653,-12.60583 -0.3606,-1.96999 0.6677,-3.95978 1.242,-5.87841 0.1258,-0.42063 0.9934,-1.43235 0.8248,-1.02696 -0.3254,0.78202 -2.8192,3.69272 -2.973,3.8808 -4.7528,5.55864 -9.4314,11.24692 -15.0987,15.9177 -5.0841,4.48522 -10.5227,8.5815 -16.4954,11.82166 -18.9737,9.48683 -5.5573,36.31965 13.4164,26.83282 z" /><path
         style="fill:#5599ff;fill-opacity:1;stroke-width:1;paint-order:markers stroke fill"
         id="path3232"
         d="m 1350.0699,1161.8159 c 1.5174,-0.1677 3.0316,-0.3666 4.5521,-0.5032 11.4378,-1.0276 22.9272,-1.4694 34.401,-1.8448 16.3612,-0.5352 18.7037,-0.4909 35.6273,-0.7435 29.1033,-0.3975 58.1991,0.5005 87.2926,1.0923 18.0294,0.304 36.0572,0.6854 54.0875,0.9316 8.4201,0.2097 16.8739,0.089 25.2791,0.7047 7.8077,0.7484 15.5326,2.1835 23.2193,3.7136 6.5909,1.3987 13.2562,2.4 19.9103,3.4408 2.3374,0.4623 4.7147,0.738 7.0125,1.3922 1.2339,0.3513 2.4224,0.8461 3.6313,1.2755 4.1284,1.5182 8.2599,3.0274 12.3108,4.7438 2.8913,1.3824 5.8295,2.6968 8.6758,4.1707 -0.052,-0.018 -0.2029,-0.082 -0.1563,-0.053 7.4401,4.6723 16.9282,-6.0858 22.8591,-11.2095 1.7501,-1.5119 -0.022,-4.709 -0.7797,-6.8941 -1.7313,-4.9941 -3.6571,-6.1468 -7.0569,-9.1975 -0.9052,-0.6474 -1.8021,-1.3064 -2.7154,-1.9423 -1.8563,-1.2925 -2.1123,-1.3626 -3.7585,-2.5882 -1.6444,-1.2242 -3.2089,-2.5622 -4.7844,-3.8722 -0.707,-0.558 -1.4163,-1.1132 -2.1211,-1.674 -0.4782,-0.3805 -0.9693,-0.7459 -1.4281,-1.1497 -0.1538,-0.1354 0.4073,0.1654 0.5108,0.3423 1.3298,2.2716 3.9823,4.3237 3.756,6.9462 -1.1122,12.8932 -2.1041,12.6109 -8.5474,16.1167 0.022,0.026 0.097,0.067 0.065,0.079 -1.2266,0.4535 -2.2025,0.2269 -3.6133,0.063 -0.4652,-0.054 -0.9078,-0.3918 -1.3694,-0.3134 -0.1771,0.03 0.03,0.3677 0.1132,0.5267 0.3134,0.5966 0.7106,1.1454 1.0658,1.7181 0.6073,1.0222 1.2684,2.0143 1.8218,3.0667 2.0688,3.9338 3.3923,8.2303 4.6347,12.4773 1.4125,4.8282 1.5685,5.6976 2.7351,10.4862 1.2588,5.6312 2.2846,11.327 2.677,17.0889 0.3117,1.4878 -0.121,-1.0693 -0.2291,-0.8102 -0.1574,0.3772 -0.2185,0.7877 -0.3284,1.1813 -0.377,1.3491 -0.7437,2.7006 -1.1442,4.0428 -1.156,3.4985 -1.5452,7.1515 -1.7356,10.8099 -0.3944,6.9083 -0.4804,13.8296 -0.573,20.7472 0.1426,6.4204 -0.4115,12.8134 -0.777,19.2159 -0.2542,3.7064 -0.5377,7.7273 -2.609,10.9354 -0.2711,0.3271 -1.5149,1.8685 -1.8118,2.0401 -0.1343,0.078 0.084,-0.4064 -0.061,-0.4612 -0.2884,-0.1091 -0.6181,0.03 -0.9206,0.09 -0.7749,0.1533 -1.537,0.3655 -2.3055,0.5482 -1.2345,0.2339 -2.469,0.4678 -3.7034,0.7017 -12.3689,1.8736 -24.8986,1.9854 -37.3648,2.6285 -3.3891,0.1748 -6.7744,0.415 -10.1616,0.6225 -12.3966,0.7587 -24.7112,2.4041 -37.0595,3.6678 -4.8176,0.493 -18.6549,1.7305 -22.9725,2.1216 -11.3286,0.957 -22.6415,2.111 -33.9149,3.5862 -8.6506,1.1321 -9.1093,1.365 -17.6167,2.415 -2.8019,0.3458 -5.6109,0.6314 -8.4164,0.947 -12.0384,1.5171 -24.1723,1.2478 -36.2691,1.5571 -7.7471,0.2893 -15.1857,2.5805 -22.4821,5.0135 -4.1193,1.6949 -8.5083,2.6445 -12.6257,4.3402 -0.9827,0.4047 -1.94,0.8686 -2.91,1.3029 -5.9548,3.0123 -11.0714,7.6235 -13.7255,13.8683 -0.7008,1.6489 -1.0858,3.4148 -1.6287,5.1222 -1.1363,4.4489 -1.5378,9.0359 -2.4531,13.5276 -0.4264,2.0926 -0.9538,4.1634 -1.4231,6.2468 -1.5515,6.4779 -2.7007,13.0854 -2.8248,19.7605 -0.028,1.522 0.038,3.0444 0.057,4.5666 0.3622,8.0073 1.2826,15.9736 1.8073,23.972 0.3256,6.0431 0.3422,12.0836 0.9519,18.1076 0.6997,5.1347 1.3227,10.2754 1.6396,15.4486 0.1025,1.8071 0.1552,3.6163 0.2163,5.4251 0.7164,21.2011 30.6993,20.188 29.9829,-1.0131 v 0 c -0.071,-2.0956 -0.1349,-4.1915 -0.2577,-6.2849 -0.3555,-5.5918 -0.9607,-11.1584 -1.7449,-16.7067 -0.6239,-5.6292 -0.4245,-11.3015 -0.853,-16.9476 -0.4972,-7.5259 -1.3109,-15.0248 -1.7475,-22.5526 -0.052,-1.8527 -0.1451,-3.3549 -0.013,-5.1931 0.2912,-4.0527 1.1074,-8.0474 2.0529,-11.9903 0.2427,-1.0776 1.5286,-6.7677 1.6902,-7.5711 0.7357,-3.6568 1.1415,-7.3694 1.8945,-11.0219 -0.6248,-0.062 -0.056,-0.073 -0.9441,0.7451 -0.28,0.2579 -0.687,0.153 -0.6099,0.079 0.1764,-0.1682 0.4082,-0.2664 0.6123,-0.3996 1.2506,-0.6841 2.6169,-1.0955 3.9697,-1.5345 2.8117,-0.9125 5.6409,-1.777 8.3995,-2.8457 3.168,-1.0627 6.3254,-2.0436 9.5725,-2.8363 0.5551,-0.1355 1.1013,-0.3171 1.6662,-0.4032 0.8373,-0.1277 1.6867,-0.1576 2.53,-0.2364 4.8941,-0.137 9.7868,-0.078 14.6817,-0.2025 8.0668,-0.2053 16.1305,-0.6479 24.1539,-1.5334 3.0133,-0.3414 6.0302,-0.6521 9.0399,-1.024 9.3335,-1.1533 8.0393,-1.1584 17.2919,-2.3732 10.9544,-1.4383 21.9483,-2.5559 32.957,-3.484 5.2024,-0.4714 18.0854,-1.6209 23.5988,-2.185 11.8525,-1.2126 23.6719,-2.7986 35.5698,-3.5387 3.1858,-0.1971 6.3698,-0.4272 9.5575,-0.5914 14.0855,-0.7256 28.254,-0.863 42.199,-3.2241 4.716,-1.0223 8.0964,-1.5246 12.5775,-3.4224 8.0847,-3.424 12.5531,-7.9191 16.9048,-15.3013 0.6827,-1.4284 1.4403,-2.8233 2.048,-4.2852 2.4348,-5.8565 3.3929,-12.2304 3.759,-18.5191 0.3879,-6.8365 0.9568,-13.6657 0.8229,-20.5207 0.087,-6.5764 0.1639,-13.1569 0.5418,-19.7244 0.048,-1.2794 0.06,-2.5143 0.5386,-3.7281 1.4449,-4.9175 3.0174,-9.889 2.8547,-15.0777 -0.5558,-7.4384 -1.7752,-14.8066 -3.4618,-22.0724 -3.1143,-12.6393 -6.4998,-25.4649 -13.9383,-36.3547 -2.769,-3.6903 -4.3308,-6.2918 -8.0745,-9.1482 -6.3257,-4.8266 -12.7836,-6.1614 -20.4066,-4.419 -1.9514,0.7958 -4.6118,0.6852 -5.8543,2.3874 -3.3959,4.6521 -6.5397,9.9469 -7.3155,15.654 -0.721,5.3041 5.8871,10.4818 9.6649,13.4189 3.711,3.0773 7.4703,6.106 11.5706,8.6585 -0.1638,-0.2301 -0.3599,-0.4404 -0.4915,-0.6904 -0.6456,-1.2268 -4.8452,-8.3829 -2.6097,-10.1053 6.5385,-5.0376 29.3359,-7.0699 22.1339,-11.1024 -0.537,-0.3007 -1.0722,-0.6044 -1.6083,-0.9065 -3.4565,-1.7094 -6.9237,-3.4057 -10.4417,-4.985 -4.6245,-1.9487 -9.3268,-3.6969 -14.0421,-5.4128 -2.7071,-0.9434 -3.9009,-1.4074 -6.7505,-2.1847 -3.0206,-0.824 -6.1303,-1.2408 -9.2012,-1.8183 -6.2479,-0.9763 -12.508,-1.9077 -18.6956,-3.2251 -8.9398,-1.7746 -17.9285,-3.4192 -27.0158,-4.219 -8.9584,-0.5859 -17.9484,-0.6208 -26.9219,-0.7721 -17.9635,-0.2452 -35.9245,-0.6258 -53.8871,-0.9283 -29.4467,-0.5986 -58.8956,-1.5036 -88.3521,-1.0951 -17.1234,0.2577 -19.7751,0.2169 -36.3393,0.7626 -12.1964,0.4019 -24.403,0.8922 -36.5589,2.0065 -1.7361,0.1591 -3.465,0.3881 -5.1975,0.5822 -21.0271,2.8036 -17.0622,32.5405 3.9649,29.7368 z" /><path
         style="fill:#5599ff;fill-opacity:1;stroke-width:1;paint-order:markers stroke fill"
         id="path3234"
         d="m 1391.0815,1467.5921 c 3.5805,10.1768 6.9901,20.4339 9.4243,30.9553 0.5474,2.3664 0.9851,4.7568 1.4776,7.1352 1.0814,5.8926 2.0729,11.8085 2.7903,17.7581 0.1398,1.159 0.3184,2.3177 0.3504,3.4846 0,0.1244 -0.2358,0.4034 -0.2472,0.2795 -0.057,-0.6208 0.067,-1.2452 0.1005,-1.8678 2.5501,-4.8206 1.6428,-4.7119 6.4832,-7.5083 0.7066,-0.4082 1.6301,-0.3239 2.3352,-0.7346 0.1913,-0.1113 -0.3927,-0.2113 -0.6053,-0.2729 -0.7713,-0.2234 -1.5563,-0.3968 -2.3383,-0.5795 -1.2732,-0.2975 -2.5513,-0.574 -3.827,-0.861 -6.64,-1.6372 -13.4483,-2.0954 -20.2474,-2.5113 -8.0708,-0.4938 -5.8004,-0.3553 -14.357,-0.7866 -10.999,-0.4927 -22.0033,-0.88 -33.0116,-1.0839 -3.719,0.025 -7.4251,-0.3082 -11.137,-0.4797 -0.6524,-0.02 -1.3053,-0.03 -1.9573,-0.061 -3.2429,-0.1514 1.784,-0.1817 2.1774,0.4794 3.7102,6.2363 7.0061,12.8633 8.8941,19.8699 0.4054,1.5043 -3.2893,2.6417 -2.4709,3.9675 0.7341,1.1893 2.2949,-1.5959 3.4424,-2.3938 9.275,-6.1408 18.8995,-11.7492 28.7778,-16.8606 2.343,-1.2123 10.0928,-5.0617 12.5526,-6.2869 7.4307,-3.664 14.9327,-7.4873 21.2455,-12.9433 4.2123,-3.6406 4.5292,-4.478 8.0197,-8.8869 3.3235,-4.6 5.6454,-9.7681 8.2513,-14.7713 1.798,-3.4519 3.8333,-6.7933 5.7753,-10.1652 2.7374,-4.9854 5.6344,-10.8976 5.0705,-16.7783 -0.1634,-1.7031 -0.6752,-3.3546 -1.0127,-5.0319 -1.3721,-3.8827 -3.9462,-7.0256 -6.4329,-10.223 -13.024,-16.7443 -36.7042,1.6744 -23.6802,18.4188 v 0 c 0.2623,0.3372 3.3719,4.8535 1.5726,1.0479 -0.3745,-2.812 -0.6388,-2.7656 -0.2104,-5.12 0.042,-0.2284 0.1337,-0.4476 0.2412,-0.6534 0.034,-0.066 0.1967,-0.2124 0.1736,-0.1415 -0.3449,1.0573 -1.2753,2.6696 -1.7182,3.5088 -2.2696,3.9407 -4.5937,7.8585 -6.6963,11.8922 -1.7334,3.3253 -3.2376,6.7791 -5.2771,9.9416 -0.3726,0.572 -0.698,1.1779 -1.118,1.7162 -1.127,1.4445 -2.4883,2.6139 -3.9679,3.691 -4.2202,3.0721 -8.9533,5.3411 -13.6124,7.6455 -2.9592,1.4741 -10.5009,5.2179 -13.2497,6.6457 -10.9559,5.6906 -21.6362,11.9223 -31.9068,18.7767 -2.5442,1.7897 -11.0291,7.2868 -10.851,10.0982 1.2046,19.014 4.2116,22.2673 16.6267,22.5872 3.9745,0.1694 7.942,0.5455 11.9244,0.5045 10.6902,0.1966 21.3765,0.5757 32.0578,1.0512 9.5352,0.4789 4.9836,0.2268 14.025,0.768 5.2067,0.3117 10.4236,0.5443 15.5062,1.8372 3.8562,0.8665 9.1815,2.4477 13.024,2.4422 5.8045,-0.01 10.2156,-0.737 14.8714,-4.8298 2.1556,-1.895 3.3074,-4.6916 4.9611,-7.0375 0.4997,-1.9579 1.206,-3.8745 1.499,-5.8738 0.5076,-3.4636 0.1172,-6.5291 -0.2974,-9.9343 -0.8109,-6.6602 -1.9268,-13.2826 -3.1547,-19.8768 -0.5923,-2.8075 -1.1234,-5.6287 -1.7768,-8.4226 -2.8269,-12.0886 -6.7179,-23.9098 -11.0049,-35.5499 -8.5027,-19.4347 -35.9874,-7.4101 -27.4847,12.0245 z" /><path
         style="fill:#5599ff;fill-opacity:1;stroke-width:47.2441;paint-order:markers stroke fill"
         d="m 4711.8408,4299.8047 c -260.6383,6.3337 -522.8329,-4.0577 -782.4707,19.0674 -43.408,19.3039 -10.3829,87.7058 -22.103,123.7302 -0.2812,144.3393 1.3716,289.7781 5.2329,433.3987 276.9413,7.1663 556.5183,-16.0683 831.8604,17.5781 49.2297,3.6415 93.7507,63.2228 51.2695,103.7354 -30.6169,231.6051 -11.7424,467.8398 -21.0325,701.1551 -30.6575,103.8679 105.5245,42.6823 162.9026,58.7922 139.7804,-0.6804 280.6653,1.3303 419.751,-1.0118 -1.8525,-248.5658 -73.768,-494.9645 -54.541,-743.7012 24.3363,-84.6113 138.9293,-67.1427 206.3233,-84.6435 268.2983,-34.5058 541.5911,-25.2377 808.7646,-62.7442 44.9134,-54.2181 12.9917,-139.0091 19.6967,-203.9561 -5.6272,-109.5826 -13.2113,-219.9249 -22.3335,-328.7099 -533.7935,-29.9529 -1068.8215,-32.8232 -1603.3203,-32.6904 z"
         id="path2908"
         transform="scale(0.26458333)" /><path
         style="fill:#ffffff;fill-opacity:1;stroke-width:1;paint-order:markers stroke fill"
         id="path3176"
         d="m 1314.5375,1137.256 c -0.14,1.4269 -0.3128,2.851 -0.4201,4.2808 -0.5508,7.3425 -0.6297,14.7299 -0.8761,22.0848 -0.4413,13.1727 -0.2781,8.8553 -0.9652,22.0744 -1.0621,20.0523 -2.3445,40.0891 -3.8544,60.1123 -1.005,13.5588 -1.7092,27.1395 -2.3909,40.7181 -0.333,8.9508 -0.8077,17.8948 -1.0836,26.8478 -0.2629,9.6162 -0.3092,19.2362 -0.3357,28.8553 -0.1347,12.3127 0.2234,24.6213 0.4945,36.9295 0.2303,9.7499 0.2855,19.5024 0.319,29.2545 0.022,10.036 0.018,20.0721 0.016,30.1082 0,8.6244 0,17.2489 0,25.8733 0,5.7969 0,11.5938 0,17.3907 0.1101,5.1808 -0.054,10.3478 -0.35,15.5185 -0.4164,4.1186 -1.257,8.1752 -1.9143,12.2582 -0.396,2.0497 -0.6435,4.1265 -1.0122,6.1804 -0.042,0.2339 -0.2393,0.9197 -0.1717,0.6919 1.1309,-3.8076 0.1207,-1.619 2.6419,-5.4913 0.9872,-0.7864 1.9743,-1.5728 2.9615,-2.3593 0.4562,-0.2308 0.9681,-0.3748 1.3686,-0.6926 0.081,-0.064 -0.078,-0.2343 -0.1794,-0.251 -1.0221,-0.1684 -2.0638,-0.1812 -3.0941,-0.2882 -5.6809,-0.5901 -3.8258,-0.3676 -9.452,-1.3362 -8.0355,-1.5648 -16.0676,-3.1118 -24.1727,-4.2722 -1.1724,-0.1436 -3.9232,-0.4568 -5.2732,-0.6946 -0.3473,-0.061 -1.359,-0.3702 -1.0286,-0.247 1.4115,0.5259 2.9227,0.7988 4.2773,1.4576 1.0323,0.502 1.8036,1.4212 2.7308,2.098 -0.9925,-8.2124 -0.9613,-16.5008 -1.0375,-24.76 -0.068,-14.4679 -0.016,-28.9361 0.01,-43.4041 0.1,-11.9631 -0.1187,-23.9302 0.128,-35.8917 0.4228,-11.3666 0.2996,-22.7498 0.8227,-34.1115 0.5462,-8.8119 1.1019,-17.6206 1.3757,-26.4458 0.099,-7.1962 0.179,-14.3851 0.6435,-21.5687 0.4371,-7.4993 1.3278,-14.9594 1.9957,-22.4389 0.778,-6.9141 0.5804,-13.2343 -3.6848,-19.225 -3.1641,-4.4442 -5.4172,-4.929 -10.012,-7.2931 -1.7084,-0.4154 -3.3937,-0.9405 -5.1251,-1.2461 -2.4935,-0.44 -6.4786,-0.5698 -9.012,-0.6422 -3.7648,-0.1075 -7.5332,-0.082 -11.299,-0.068 -6.9706,0.065 -13.9413,0.099 -20.9121,0.1191 -8.9927,0.02 -17.9854,0.02 -26.9781,0.022 -8.4129,0 -16.8257,0 -25.2386,0 -11.5612,-0.049 -23.1193,0.8699 -34.6236,1.9643 -5.4461,0.6172 -10.8935,1.1095 -16.3724,1.2507 -8.3523,0.1535 -16.7029,0.1561 -25.052,-0.1196 -6.6977,-0.2986 -13.3988,-0.4485 -20.0951,-0.7768 -5.4042,-0.222 -10.7987,-0.4883 -16.1819,-1.02 -2.8438,-0.3674 -5.7003,-0.6562 -8.5289,-1.1346 -0.7221,-0.1222 -1.4637,-0.1824 -2.1562,-0.4205 -0.2802,-0.096 0.6126,-0.1229 0.8887,-0.015 1.1143,0.4343 2.1373,1.074 3.2059,1.6111 0.3496,0.2706 0.6191,0.7079 1.0488,0.8118 0.1785,0.043 0.048,-0.3668 0.034,-0.5499 -0.1743,-2.3495 -0.239,-0.3857 -0.2307,-2.9307 0,-1.0767 0.2088,-7.1937 0.214,-7.3557 0.488,-10.4748 0.7934,-20.955 0.968,-31.4393 0.1422,-10.4666 0.1439,-20.9345 0.1502,-31.4018 0,-9.2693 0,-18.5386 -0.01,-27.8078 0.2778,-7.2591 -1.0403,-14.4125 -2.4735,-21.4895 -0.133,-0.7178 -0.4266,-2.1949 -0.5072,-2.9871 -0.013,-0.1292 0.079,-0.511 0.081,-0.3811 0.01,0.4236 0.1143,0.8696 -0.023,1.2706 -0.7571,2.2203 -1.7572,4.3503 -2.6359,6.5255 -1.3255,1.1625 -2.6511,2.3251 -3.9767,3.4878 -0.2708,0.2341 -1.1653,0.6414 -0.8125,0.7025 1.1589,0.2007 2.3461,-0.1728 3.5207,-0.2336 1.8062,-0.093 3.6133,-0.1687 5.4209,-0.2288 5.2421,-0.1743 8.4644,-0.1971 13.7874,-0.2775 7.0282,0.019 14.0613,-0.2243 21.0896,-0.1221 5.4148,0.079 10.8363,0.4894 16.239,0.8196 18.236,0.9249 36.4772,1.7735 54.7217,2.5202 20.3797,0.7293 40.7658,1.1858 61.1468,1.8769 22.1663,0.4622 44.2976,1.78 66.4362,2.9044 12.841,0.8153 25.6975,0.8578 38.5554,0.6162 2.5129,0.037 5.0209,-0.1827 7.5326,-0.1981 0.083,0 -0.1629,0.1124 -0.2379,0.076 -3.359,-1.6214 -8.8116,-1.4835 -10.0011,-5.0186 -5.3084,-15.776 -3.4704,-16.7523 2.6336,-21.7188 -0.014,-0.05 0.01,-0.1649 -0.041,-0.1501 -1.8463,0.5507 -3.6264,1.3056 -5.4622,1.8902 -3.5108,1.118 -7.0339,2.1592 -10.5293,3.3286 -7.0034,2.2706 -14.1064,4.2641 -21.2704,5.9642 -7.8976,2.0106 -16.1262,1.4655 -24.1892,1.315 -17.3562,-0.2608 -34.614,-2.1861 -51.9044,-3.516 -17.2096,-1.2055 -34.4279,-2.2083 -51.6691,-2.8159 -13.7866,-0.4303 -27.5808,-0.4941 -41.3729,-0.5239 -10.5914,0.2213 -21.1623,-0.2214 -31.7315,-0.8363 -6.2279,-0.4734 -12.4377,-0.5459 -18.6057,0.5493 -3.2615,0.5791 -4.7732,1.1393 -7.8755,2.0899 -5.2566,1.8515 -10.2116,4.7251 -13.9145,8.958 -0.6565,0.7505 -1.2359,1.5651 -1.8538,2.3477 -0.826,1.7938 -2.1368,3.4364 -2.478,5.3816 -0.7924,4.5169 -0.5979,9.0762 2.0235,12.9017 1.153,1.6825 2.6502,3.1154 4.1557,4.4915 2.0579,1.881 5.6079,3.001 7.9302,3.9784 9.3051,3.1345 18.4614,6.6917 27.7131,9.9786 8.7588,3.2942 18.0603,3.81 27.307,4.1055 11.5732,0.1899 23.1501,0.1819 34.7232,0 17.8588,-0.752 35.5919,-3.1217 53.354,-4.9969 14.3254,-1.2687 28.6592,-2.4466 43.0143,-3.3289 8.8486,-0.5339 17.714,-0.7709 26.5771,-0.631 8.2343,0.4997 16.4857,1.0194 24.598,2.5817 1.4506,0.958 -2.0026,-0.3972 -1.999,-0.338 0.025,0.4157 0.4301,0.7138 0.6642,1.0583 1.0647,1.5674 2.0157,2.8228 3.147,4.3561 0.7464,0.1635 2.4157,4.435 0.6234,0.9199 -0.767,-1.5041 -0.6235,-2.7378 -0.6246,0.6029 3.1045,14.1867 0.2763,10.7768 29.4187,4.9816 1.6126,-0.3207 0.9323,-3.157 1.2721,-4.7656 0.8622,-4.0819 1.0907,-8.3465 1.451,-12.4933 0.2221,-2.1715 0.2731,-4.3548 0.4369,-6.5303 0.044,-0.5801 0.5727,-2.1608 0.1749,-1.7364 -3.8469,4.1049 -5.8243,10.2879 -10.7449,13.0151 -1.4619,0.8103 -7.3907,-0.6268 -10.8214,-1.4479 -0.017,0.1001 -0.065,0.1994 -0.053,0.3003 0.032,0.2558 0.1403,0.4972 0.1843,0.7513 0.5287,3.0529 0.8535,6.1471 1.0272,9.238 -0.537,2.5694 -1.2747,5.1114 -2.5995,7.3877 -1.5974,1.8672 -0.2971,0.083 0.7102,-0.5767 0.6196,-0.4057 1.3014,-0.7071 1.9522,-1.0607 0.043,-0.05 0.1797,-0.1075 0.1286,-0.1485 -0.1178,-0.095 -0.2956,-0.063 -0.4413,-0.1024 -0.2841,-0.077 -0.5717,-0.1453 -0.8475,-0.2481 -0.5755,-0.2146 -1.1316,-0.4785 -1.7034,-0.703 -1.621,-0.6363 -3.2498,-1.2529 -4.8747,-1.8794 -2.2399,-0.8809 -4.4798,-1.7619 -6.7197,-2.6428 -8.1572,-3.2234 -16.368,-6.3186 -24.7431,-8.9323 -1.4978,-0.4674 -2.9868,-0.9686 -4.5058,-1.3616 -1.9468,-0.5036 -3.9234,-0.8843 -5.8851,-1.3265 -13.9193,-2.3202 -28.0852,-2.3653 -42.1576,-2.5347 -12.754,-0.1718 -25.5612,0.3133 -38.2569,-1.2227 -2.906,-0.3515 -5.7874,-0.8823 -8.6812,-1.3235 -2.9705,-0.5349 -5.945,-1.0485 -8.9116,-1.6049 -10.1936,-1.9116 -6.9343,-1.4961 -17.3821,-3.2138 -7.5579,-1.2425 -15.1316,-2.1796 -22.7443,-2.998 -8.6171,-0.8652 -17.2749,-1.1904 -25.931,-1.272 -4.8478,0.01 -9.6972,-0.05 -14.5409,0.162 -6.1756,0.5419 -12.3697,0.5288 -18.5614,0.4058 -4.9009,0.1944 -9.9731,-0.9201 -14.8458,0.021 -1.5586,0.3013 -3.07,0.8096 -4.605,1.2144 -5.3525,3.0832 -9.4171,4.3712 -10.4959,12.5592 -0.5324,4.0402 1.3821,8.089 2.8637,11.8853 0.602,1.5426 2.1009,2.5641 3.2431,3.763 0.3503,0.3677 4.4301,4.0706 5.096,4.6768 3.8673,4.0603 8.2084,7.5288 12.811,10.7063 7.2768,5.2483 16.0072,6.9178 24.6739,8.286 11.8841,1.3515 23.8098,2.333 35.7558,2.9276 16.2953,0.7894 32.6061,0.5266 48.8997,-0.097 16.5513,-1.1109 33.114,-2.0156 49.6758,-2.9471 8.6738,-0.4734 17.3575,-0.7999 26.0227,-1.4267 2.4028,-0.1738 4.8151,-0.2774 7.2015,-0.6067 2.733,-0.3772 5.4251,-1.0068 8.1377,-1.5103 7.8771,-1.9928 15.7176,-4.683 22.5041,-9.2657 3.2601,-2.2015 3.8471,-2.9458 6.5495,-5.5027 1.8043,-1.9451 3.5581,-3.9593 4.9817,-6.2076 0.7231,-1.142 1.3189,-2.3598 2.0342,-3.5067 -0.5721,1.5511 -2.1557,2.5754 -3.4366,3.5024 -0.1036,0.075 -0.2312,0.1221 -0.3151,0.2186 -0.022,0.026 0.129,0.022 0.097,0.032 -0.4751,0.1534 -0.9617,0.2681 -1.4426,0.4022 -0.2206,0.1028 -0.8531,0.1577 -0.6619,0.3083 0.5556,0.4379 1.3322,0.4773 1.9897,0.7382 0.8584,0.3407 3.1839,1.2869 4.0609,1.856 0.061,0.04 -0.1002,0.1997 -0.1559,0.1529 -1.3225,-1.1117 -2.5494,-2.3323 -3.8242,-3.4985 -0.1529,-0.022 -0.4258,-0.2162 -0.4586,-0.065 -0.1374,0.632 0.059,1.2928 0.051,1.9395 -0.01,0.6979 -0.056,1.3949 -0.099,2.0915 -0.1729,2.8067 -0.3325,3.1862 -0.2726,6.4184 0.028,1.5276 0.1667,3.0513 0.2501,4.5769 0.5903,5.7606 2.5335,11.2208 3.9787,16.7885 0.3272,1.2606 1.3202,5.5519 1.6008,6.754 1.1574,4.9294 2.4339,9.8553 2.5257,14.9409 0.1574,4.2739 -0.4657,8.4883 -1.2017,12.6824 -0.1934,0.9476 -0.3665,1.8997 -0.5801,2.843 -0.9163,4.0467 -0.4888,1.6957 -1.649,6.0392 -1.5805,5.9172 -2.9482,11.8827 -4.2535,17.865 -1.6581,9.2119 -3.159,18.5306 -3.5703,27.8993 -0.2399,5.4641 -0.046,9.0086 0.1086,14.4142 0.3573,12.0007 2.7077,23.7839 5.2959,35.4651 1.4151,6.5492 3.1449,13.0398 4.4157,19.6189 0.7902,5.4075 0.8536,10.8892 0.9444,16.3435 -0.083,6.0671 0.3583,12.1677 -0.2217,18.2141 -0.7785,6.072 -2.1488,12.0408 -3.1713,18.072 -0.852,5.2498 -1.6419,10.5103 -2.4094,15.7733 -0.6581,4.4613 -0.7395,8.973 -0.7956,13.4731 0.1229,4.9766 0.4671,9.9438 0.6736,14.9172 0.018,0.5557 0.038,1.1113 0.055,1.667 0.041,1.4118 0.065,2.8239 0.08,4.2363 0.013,1.2795 0.102,1.5907 -0.035,1.015 0.1886,-2.2704 1.226,-6.1497 3.7521,-7.0651 2.1389,-0.775 4.4059,-1.1361 6.6089,-1.7042 0.1643,-0.093 0.656,-0.1829 0.4929,-0.2777 -1.0181,-0.592 -2.1886,-0.8717 -3.2705,-1.3372 -1.0642,-0.4579 -2.1219,-0.932 -3.1668,-1.4326 -1.1445,-0.5483 -2.9224,-1.0695 -3.4723,-2.422 -0.061,-0.1449 -0.1561,-0.2799 -0.1836,-0.4348 -0.044,-0.2485 0.2567,-0.076 0.3144,-0.2441 0.087,-0.2529 0.01,-1.0547 0,-1.1043 -0.3128,-3.2818 0.5767,-6.4047 1.4083,-9.5329 1.3835,-5.0337 2.4795,-10.1333 3.4279,-15.2646 1.1675,-6.248 1.4961,-12.5994 1.7044,-18.9383 0.1462,-8.2138 0.1258,-16.4295 0.1222,-24.6443 -0.05,-6.2589 0.388,-12.507 0.5768,-18.7611 0.1681,-6.0723 0.073,-12.1437 0.5257,-18.2035 0.6418,-8.3666 0.9894,-16.75 1.2114,-25.137 0.055,-5.6047 0.4927,-11.2148 1.2333,-16.7703 0.919,-4.9759 1.1435,-10.0208 1.2871,-15.0667 0.1362,-6.3914 0.1216,-12.7847 0.1217,-19.1771 0.1721,-7.5718 -0.1767,-15.1263 -1.1019,-22.641 -0.7839,-5.554 -2.0393,-11.3273 -5.8035,-15.7317 -1.3653,-1.5974 -3.1031,-2.8343 -4.6547,-4.2514 -1.7032,-0.9573 -3.3485,-2.0259 -5.1097,-2.8718 -2.465,-1.1841 -7.0724,-2.7371 -9.7361,-3.5518 -2.4007,-0.7342 -6.8834,-1.9602 -9.3691,-2.3959 -1.9009,-0.3331 -3.8272,-0.4996 -5.7409,-0.7494 -2.1025,-0.038 -4.206,-0.1873 -6.3076,-0.1129 -5.4861,0.1942 -8.6305,0.8111 -14.0475,1.7462 -6.0257,1.0402 -12.0183,2.2634 -18.0221,3.4205 -9.8688,1.9627 -19.9435,2.2012 -29.9677,2.4285 -10.2879,0.1719 -20.5776,0.1459 -30.8665,0.1286 -9.2513,-0.023 -18.5025,-0.029 -27.7538,-0.034 -9.3405,0 -18.6811,0 -28.0216,0 -8.9269,0.3023 -17.7855,-0.9622 -26.5267,-2.6398 -4.4499,-1.0297 -9.1063,-1.436 -13.3982,-3.0833 2.4493,0.5174 3.5009,2.4681 5.2455,4.1131 0.055,0.052 0.067,-0.2674 0.1021,-0.2009 0.69,1.3249 0.6347,1.5509 0.841,2.8615 0.2787,1.062 -1.4211,3.4247 -0.5586,3.5902 0.2674,0.051 0.5434,0.037 0.8151,0.055 8.6,-0.8955 17.2545,-1.0717 25.8939,-1.1803 7.5936,-0.054 15.1874,-0.018 22.781,0 6.3345,0.018 12.669,0.022 19.0035,0.025 9.8158,0 19.6315,0 29.4473,0 9.6224,-0.2816 19.216,0.457 28.8158,0.9742 10.1719,0.3403 20.3431,-0.2856 30.5072,-0.6274 7.5538,-0.2244 15.1108,-0.3015 22.6674,-0.3404 4.8807,-0.3014 9.69,0.3698 14.5155,0.9784 4.8905,0.6147 9.8029,0.938 14.6489,1.8604 2.7328,0.3325 5.3571,1.2949 8.0738,1.6994 1.169,0.174 2.3655,0.6374 3.5231,0.399 3.6239,-0.7462 7.0639,-2.2042 10.5958,-3.3062 1.8129,-2.1772 3.9183,-4.1409 5.4386,-6.5316 0.8877,-1.396 1.2753,-3.0655 1.6838,-4.6686 0.9723,-3.8152 0.837,-8.1006 -0.2926,-11.8675 -0.3977,-1.3263 -0.9934,-2.5849 -1.4901,-3.8774 -0.7017,-1.1797 -1.3438,-2.3969 -2.1051,-3.539 -2.6768,-4.0158 -7.1413,-8.562 -11.0339,-11.2902 -1.9685,-1.3797 -4.1023,-2.5073 -6.1535,-3.7609 -9.0406,-4.7024 -18.9147,-8.0902 -29.0373,-9.4966 -2.0108,-0.2794 -4.0402,-0.4028 -6.0603,-0.6042 -12.567,-0.2211 -24.7602,3.0941 -37.0375,5.2788 -10.9221,1.876 -21.984,2.3843 -33.0386,2.7188 -14.3361,0.3349 -28.6773,0.3185 -43.0164,0.3229 -12.5152,-0.1445 -25.0254,0.214 -37.5364,0.4762 -9.9247,0.1969 -19.8516,0.264 -29.778,0.3079 -3.9577,0.016 -7.9153,0.018 -11.873,0.015 -1.0144,0 -2.0288,0 -3.0432,0 -21.2132,-0.017 -21.2371,29.9831 -0.024,30 v 0 c 1.0156,0 2.0312,0 3.0468,0 4.0087,0 8.0174,0 12.026,-0.016 10.0918,-0.045 20.184,-0.1135 30.2741,-0.3142 12.3045,-0.2579 24.6083,-0.6148 36.9171,-0.4696 14.6422,0 29.2865,0.011 43.9256,-0.3369 12.5159,-0.3878 25.0379,-1.0216 37.3982,-3.1727 9.6549,-1.7323 19.2217,-4.1283 29.0162,-4.9365 1.2312,0.097 2.4672,0.145 3.6935,0.2914 4.9486,0.5909 10.7649,2.1936 15.3599,4.0972 1.2892,0.5341 2.5163,1.2074 3.7744,1.8111 2.6166,1.2857 3.6161,1.8857 5.6469,3.9629 0.3558,0.364 0.6893,0.7492 1.0359,1.1219 0.1499,0.1611 0.2517,0.5667 0.4535,0.4794 0.1913,-0.083 -0.1151,-0.4006 -0.1726,-0.601 -1.0853,-4.7615 1.54,-7.0346 5.1177,-10.1989 2.8047,-0.6069 5.5895,-1.3145 8.4141,-1.8208 0.2241,-0.04 0.8792,0.2313 0.6544,0.1952 -2.9917,-0.4791 -5.8958,-1.4723 -8.9062,-1.8659 -5.4241,-0.9888 -10.8908,-1.5263 -16.3681,-2.128 -6.1171,-0.7706 -12.2408,-1.5075 -18.4217,-1.2134 -7.8418,0.041 -15.6839,0.1219 -23.5227,0.3569 -9.2906,0.3134 -18.5863,0.8813 -27.8843,0.6538 -10.1366,-0.5455 -20.269,-1.2964 -30.429,-1.0175 -9.812,10e-5 -19.624,0 -29.4359,0 -6.3133,0 -12.6265,-0.01 -18.9398,-0.024 -7.7461,-0.019 -15.4925,-0.056 -23.2385,0 -10.7724,0.1392 -21.6033,0.2867 -32.2686,1.9488 -1.9608,0.5344 -3.9705,0.9138 -5.8824,1.6031 -6.4557,2.3274 -12.1494,7.2391 -15.2676,13.3633 -0.8716,1.7118 -1.2661,3.6272 -1.8991,5.4409 -0.1973,1.8963 -0.6439,3.7831 -0.5918,5.689 0.1797,6.566 2.5448,11.963 7.0127,16.7877 1.9615,2.1182 4.5481,3.0794 7.0595,4.2525 5.7611,1.9471 11.7047,3.1561 17.6843,4.2309 10.5897,1.9925 21.3154,3.481 32.1212,3.1661 9.3353,10e-5 18.6707,10e-5 28.006,0 9.2398,0.01 18.4796,0.011 27.7194,0.034 10.5355,0.018 21.0719,0.044 31.6063,-0.1365 11.6988,-0.2722 23.4437,-0.6574 34.9558,-2.9627 5.7901,-1.116 11.5733,-2.2541 17.376,-3.3032 3.7982,-0.6868 5.2168,-1.0384 8.9249,-1.3214 0.9845,-0.075 1.9738,-0.056 2.9607,-0.085 0.8542,0.069 1.7161,0.074 2.5624,0.2084 1.739,0.2769 5.029,1.1645 6.6811,1.6552 1.8673,0.5546 3.658,1.3674 5.551,1.8272 0.1112,0.027 0.2082,-0.095 0.3122,-0.1424 -0.3261,-0.4748 -0.7006,-0.9199 -0.9784,-1.4246 -0.3236,-0.5879 -1.1248,-2.4255 -0.7513,-1.8679 0.6055,0.9038 0.3877,2.3567 0.7143,3.2746 0.8332,6.2544 0.9718,12.556 0.8627,18.8597 -10e-5,6.1145 0.015,12.2298 -0.1101,18.3433 -0.1095,4.0494 -0.2661,8.0845 -1.0534,12.0724 -0.8253,6.5696 -1.4156,13.1836 -1.4682,19.8084 -0.2083,7.9318 -0.5355,15.8603 -1.1443,23.7728 -0.4537,6.4808 -0.4672,12.9659 -0.5898,19.4598 -0.1947,6.5579 -0.6609,13.1092 -0.5902,19.6728 0,7.8885 0.021,15.7777 -0.1067,23.6654 -0.152,4.838 -0.3456,9.6914 -1.2225,14.4633 -0.8068,4.3871 -1.7392,8.7458 -2.9313,13.0467 -1.7577,6.6929 -2.9345,13.1057 -2.264,20.0683 0.293,2.6497 0.3371,3.871 1.0261,6.5153 1.3881,5.3272 4.1395,10.0664 7.9354,14.0418 1.2465,1.1133 2.4125,2.3239 3.7396,3.3398 3.7553,2.8747 8.0577,4.8235 12.3807,6.6605 1.3964,0.5933 2.7836,1.2175 4.2207,1.7042 2.1415,0.7253 4.3355,1.2852 6.5033,1.9278 3.3992,-0.4341 6.8893,-0.4087 10.1976,-1.3023 1.606,-0.4339 2.9261,-1.6064 4.2584,-2.6026 3.5077,-2.6228 6.18,-6.476 7.5527,-10.6164 0.439,-1.3243 0.5803,-2.7293 0.8705,-4.094 0.2018,-3.5318 0.1179,-7.0629 -0.027,-10.5975 -0.1858,-4.4359 -0.4504,-8.8678 -0.6498,-13.303 0.037,-3.179 0.044,-6.3704 0.4864,-9.5254 0.7288,-5.0432 1.4953,-10.0818 2.3058,-15.1122 1.1465,-6.8981 2.8008,-13.7125 3.4933,-20.6842 0.1161,-1.6618 0.2805,-3.3209 0.3483,-4.9853 0.2183,-5.3569 -0.1253,-10.7382 -0.038,-16.0973 -0.1244,-7.2329 -0.2715,-14.5025 -1.5086,-21.6485 -1.3631,-6.7993 -3.0506,-13.5329 -4.5588,-20.3013 -2.1848,-9.842 -4.2716,-19.7568 -4.5978,-29.8707 -0.098,-3.0739 -0.3147,-8.0222 -0.1884,-11.1485 0.324,-8.0222 1.6005,-16.0052 2.9805,-23.8983 1.1485,-5.3184 2.3504,-10.6301 3.7534,-15.8887 1.4847,-5.5645 1.062,-3.1346 2.2388,-8.4441 0.2706,-1.2206 0.491,-2.4519 0.7365,-3.6779 1.0676,-6.2631 1.8779,-12.5705 1.6163,-18.9425 -0.062,-1.2841 -0.083,-2.5707 -0.1851,-3.8521 -0.4505,-5.6783 -1.8432,-11.2196 -3.1047,-16.7554 -1.4681,-6.2799 -3.1511,-12.4928 -4.8592,-18.71 -0.2685,-2.8721 -0.01,-5.529 0.083,-8.4169 0.1832,-5.692 -0.1915,-11.2071 -2.0415,-16.6639 -2.0517,-2.9268 -3.7656,-6.1222 -6.1551,-8.7804 -1.1205,-1.2466 -2.7546,-1.9184 -4.2098,-2.7503 -1.1439,-0.654 -2.3621,-1.1712 -3.5702,-1.6974 -4.8777,-2.1243 -9.8729,-3.7498 -15.2152,-4.2157 -1.7762,0.1468 -3.5639,0.1909 -5.3286,0.4405 -0.8704,0.1231 -1.7131,0.4038 -2.5496,0.6738 -5.0625,1.6337 -9.5642,4.5599 -12.3894,9.187 -1.2257,2.0472 -1.0632,2.2174 -2.4158,3.8909 -3.2683,3.9442 -9.1834,5.1775 -13.7885,6.6986 -1.6266,0.3508 -3.2322,0.8194 -4.8798,1.0526 -2.1416,0.3032 -4.3079,0.3973 -6.4653,0.5534 -8.6269,0.624 -17.272,0.9468 -25.9074,1.4199 -16.3839,0.9228 -32.7694,1.8063 -49.142,2.9219 -15.4175,0.5952 -30.8511,0.8535 -46.2708,0.1111 -10.9019,-0.5315 -21.7782,-1.4535 -32.631,-2.609 -2.8981,-0.4398 -5.7033,-0.9228 -8.5519,-1.5888 -0.2942,-0.069 -0.6072,-0.067 -0.8894,-0.1746 -0.883,-0.3367 -2.0283,-1.0982 -2.8086,-1.5783 -1.173,-0.8069 -2.5533,-1.5827 -3.643,-2.5129 -2.0929,-1.7864 -3.9503,-3.8485 -6.0011,-5.6798 -0.7618,-0.6932 -1.518,-1.3927 -2.2853,-2.0798 -0.4484,-0.4015 -0.8181,-0.9271 -1.3615,-1.1858 -0.2166,-0.103 0.2305,0.4302 0.2706,0.6666 0.5522,3.2557 2.205,6.5651 1.5033,9.7918 -1.6137,7.4215 -4.1853,7.9748 -8.959,10.3702 -0.7196,0.1143 -1.436,0.2501 -2.1587,0.3429 -0.079,0.01 0.1402,-0.087 0.2195,-0.094 0.4692,-0.038 0.9408,-0.043 1.4114,-0.037 3.11,0.037 6.2174,0.2713 9.3281,0.2863 6.8736,0.1309 13.753,0.1495 20.6095,-0.436 4.2593,-0.2482 8.5364,-0.057 12.8007,-0.1275 7.6825,0.068 15.367,0.3459 23.0159,1.1033 6.9537,0.7394 13.8708,1.5909 20.7744,2.7209 10.1251,1.6574 6.8335,1.2485 17.2461,3.1898 3.2562,0.6071 6.5214,1.1652 9.7821,1.7479 3.5046,0.5131 6.9958,1.129 10.5139,1.5394 13.4432,1.5682 26.9884,1.2054 40.4915,1.3328 12.0589,0.1428 24.1838,0.1627 36.1475,1.8532 1.1958,0.2437 2.405,0.4292 3.5874,0.7312 1.3616,0.3477 2.6944,0.7997 4.0367,1.2159 7.7589,2.4056 15.3509,5.301 22.9058,8.2783 6.8492,2.6896 13.7231,5.8464 21.0241,7.1277 4.3395,0.7615 8.7491,0.4322 13.0035,-0.5831 1.6084,-0.6401 3.2849,-1.1299 4.825,-1.9201 4.6105,-2.3653 7.7632,-6.7752 10.3869,-11.0684 3.7955,-7.3129 6.0955,-15.2192 6.0597,-23.527 -0.8098,-10.9073 -2.1333,-20.143 -9.3243,-28.9116 -4.4174,-4.1999 -9.4724,-10.1719 -17.3121,-7.2231 -13.6146,5.1209 -12.7175,12.3847 -13.389,21.9953 -0.2697,3.1686 -0.271,3.4353 -0.6188,6.5512 -0.082,0.7298 -0.2874,1.4527 -0.2677,2.1868 0,0.155 0.1622,-0.3433 0.3172,-0.3403 9.1005,0.1743 18.4016,-1.0801 27.2925,0.8692 1.77,0.388 0.6823,3.5592 1.0235,5.3388 -0.053,-1.4545 0.1371,-2.9169 0.01,-4.3664 -0.5298,-5.8276 -2.3128,-10.2194 -5.8836,-14.7517 -1.9386,-2.6125 -3.6911,-5.5213 -5.8843,-7.9207 -4.235,-4.6331 -8.3751,-7.3995 -14.5351,-8.8053 -9.7986,-1.7948 -19.7241,-2.627 -29.6702,-3.0892 -9.6246,-0.1321 -19.251,0.09 -28.8595,0.6844 -14.7919,0.911 -29.5625,2.1207 -44.323,3.4382 -16.8749,1.7831 -33.721,4.0251 -50.6814,4.8347 -11.1055,0.1796 -22.2148,0.1788 -33.3206,0.011 -6.1364,-0.1808 -12.3647,-0.2197 -18.1966,-2.3917 -9.2367,-3.275 -18.3725,-6.8361 -27.662,-9.9605 1.0726,1.5082 2.4562,2.5595 3.4862,4.238 2.0437,3.3303 1.9386,7.0642 1.1648,10.8844 -0.2975,1.469 -1.3863,2.6579 -2.0795,3.9868 -1.2309,1.2647 -0.9911,0.1781 0.5672,-0.3238 1.4219,-0.4901 3.6845,-1.3011 5.1461,-1.4581 3.4828,-0.374 7.0274,0.086 10.5063,0.1779 11.1273,0.6467 22.2581,1.1044 33.4083,0.8869 13.4621,0.029 26.9263,0.089 40.3831,0.5054 16.8265,0.5903 33.6301,1.5738 50.4258,2.7462 17.8725,1.3709 35.7118,3.3528 53.6533,3.5992 10.602,0.1902 21.3449,0.5669 31.7051,-2.1303 8.0338,-1.9276 16.0091,-4.1369 23.8615,-6.7074 6.8344,-2.3109 13.8505,-4.1082 20.4878,-6.9795 8.3634,-5.2027 11.7294,-5.8874 6.3768,-24.0394 -2.0888,-7.0837 -15.3974,-5.7345 -20.884,-5.6217 -12.1619,0.2307 -24.3216,0.1992 -36.4676,-0.5829 -22.3068,-1.1328 -44.6065,-2.4576 -66.9411,-2.9258 -20.3111,-0.6887 -40.6271,-1.1455 -60.9369,-1.869 -18.0445,-0.7382 -36.0855,-1.5783 -54.1216,-2.4897 -6.0427,-0.3679 -12.0936,-0.787 -18.1492,-0.8751 -7.1527,-0.104 -14.3104,0.1445 -21.463,0.1255 -7.0322,0.1079 -14.0838,0.1415 -21.1053,0.5953 -3.6913,0.2386 -9.5788,0.6421 -12.8862,2.1814 -2.4717,1.1504 -4.4492,3.1519 -6.6737,4.7278 -1.2794,2.6631 -2.811,5.2191 -3.8382,7.9892 -0.3759,1.0136 -0.2642,2.1476 -0.3211,3.2271 -0.1659,3.1468 0.4505,6.2819 1.0239,9.356 1.0386,5.1208 2.1613,10.278 1.8758,15.5394 0,9.2604 0.01,18.5209 0.01,27.7813 -0.01,10.3073 -0.01,20.6151 -0.146,30.9216 -0.1714,10.3465 -0.479,20.6886 -0.9583,31.0258 -0.2015,6.8888 -0.5216,13.8015 1.48,20.4957 0.5191,1.736 1.0578,3.4853 1.8766,5.1017 1.0403,2.0538 2.4473,3.9003 3.6709,5.8504 2.2536,1.8017 4.29,3.915 6.7607,5.4051 4.9725,2.999 13.1245,2.9379 18.8046,3.9004 5.8667,0.5681 11.7442,0.8947 17.6336,1.1264 6.8575,0.3347 13.7197,0.4945 20.5787,0.7966 8.9481,0.2909 17.8983,0.2973 26.8496,0.1245 6.1601,-0.1745 12.2917,-0.6688 18.4145,-1.376 10.5528,-1.0164 21.1598,-1.8685 31.7652,-1.8278 8.4145,2e-4 16.829,0 25.2435,0 9.0197,0 18.0395,0 27.0592,-0.022 6.9791,-0.02 13.9581,-0.053 20.937,-0.1193 3.3667,-0.013 6.7331,-0.025 10.0993,0.049 1.0045,0.022 2.0086,0.06 3.0128,0.092 0.5159,0.016 1.0499,0.1903 1.5476,0.054 0.179,-0.049 -0.2818,-0.2415 -0.4227,-0.3623 -2.9007,-2.1307 -4.1493,-3.4112 -4.8877,-7.1771 -0.1251,-0.6382 -0.2115,-2.5242 0.092,-1.9489 0.7953,1.5096 -1.3597,3.7166 -0.3001,5.11 -0.6851,7.7309 -1.6126,15.4408 -2.0532,23.1927 -0.4713,7.5107 -0.611,15.0257 -0.6898,22.5497 -0.2656,8.6873 -0.8375,17.3568 -1.3601,26.0317 -0.5046,11.6093 -0.4463,23.2352 -0.8466,34.8492 -0.2366,12.1459 -0.049,24.2963 -0.1339,36.4438 -0.024,14.5779 -0.075,29.1559 -0.01,43.7336 0.061,6.3632 0.058,12.7381 0.454,19.0924 0.2066,3.3163 0.5178,7.2787 1.1744,10.5608 0.3734,1.8667 0.9242,3.6935 1.3863,5.5402 2.1631,4.7204 2.964,7.8805 7.3905,11.2619 5.1015,3.8969 9.7976,4.4794 15.6951,5.1098 7.8705,1.1138 15.6557,2.6796 23.4633,4.1625 5.7949,0.9449 6.5193,1.1829 12.1994,1.6654 5.4766,0.4652 11.559,0.9386 16.7236,-1.4749 1.9874,-0.9288 3.6923,-2.37 5.5385,-3.555 1.2165,-1.5551 2.6546,-2.96 3.6496,-4.6653 2.3756,-4.0717 2.5395,-8.8143 3.3938,-13.3082 0.7907,-5.0767 1.8829,-10.1159 2.2369,-15.2536 0.3272,-5.7399 0.5072,-11.4791 0.3988,-17.2294 0,-5.7961 0,-11.5921 0,-17.3881 0,-8.6233 0,-17.2466 0,-25.8699 0,-10.0725 0.01,-20.145 -0.016,-30.2175 -0.034,-9.938 -0.091,-19.8763 -0.326,-29.8119 -0.2657,-12.0607 -0.6214,-24.1215 -0.4874,-36.1866 0.026,-9.3398 0.069,-18.6807 0.3218,-28.0178 0.2674,-8.7585 0.7379,-17.5081 1.0599,-26.2646 0.668,-13.3277 1.3593,-26.6575 2.3437,-39.9659 1.5268,-20.2575 2.825,-40.5288 3.8991,-60.8156 0.7752,-15.016 1.0994,-30.0465 1.8935,-45.0599 3.4874,-20.9246 -26.1044,-25.8566 -29.5918,-4.932 z" /><path
         style="fill:#000000;stroke-width:1;paint-order:markers stroke fill"
         id="path2115"
         d="m 1233.7124,1324.1614 c 0,33.2653 0,66.5305 0,99.7957 0.1952,29.6488 -0.6541,59.2908 -1.4898,88.9245 -0.8128,12.0074 -4.0595,24.2138 6.6473,33.4713 2.7004,2.3349 6.2995,3.3605 9.4493,5.0407 2.6669,0.6236 5.3023,1.4018 8.0007,1.8708 10.1003,1.7554 20.7582,1.5248 30.9355,1.6293 10.4289,0.1071 22.928,0.092 33.3514,0.1008 26.9145,-0.037 53.8288,-0.1419 80.7432,-0.2077 10.2727,-0.7858 22.5119,2.357 31.956,-3.36 8.5644,-5.1845 8.8651,-8.4385 12.8399,-16.5421 5.3332,-18.9719 1.9301,-38.7657 -0.5856,-57.9187 -3.6967,-25.336 -6.2412,-50.8115 -9.0939,-76.2488 -2.362,-15.8426 -4.1038,-31.743 -5.0367,-47.7314 -0.1574,-6.4435 -0.4652,-12.8734 -0.7795,-19.3091 -0.065,-1.3363 -0.2511,-2.6795 -0.1268,-4.0117 0.099,-1.0586 0.4089,2.1399 0.2041,3.1833 -0.245,1.2486 -1.0108,2.3355 -1.5161,3.5033 1.7152,0.2632 3.4123,0.8728 5.1456,0.7897 5.4612,-0.262 10.8659,-1.2281 16.3015,-1.8186 6.7068,-0.7287 13.4114,-1.4813 20.1255,-2.1391 22.3465,-2.1891 44.7246,-3.9312 67.1206,-5.5101 31.9399,-1.7175 63.8696,-3.6444 95.8148,-5.2668 8.0656,-0.7658 16.2453,-0.2024 24.2984,-1.1349 4.6424,-0.5375 8.1267,-1.3051 12.6537,-2.194 10.1924,-2.3121 21.9219,-2.0975 29.0735,-11.3447 2.7606,-3.5696 3.6925,-8.2352 5.5387,-12.3528 5.9052,-32.4278 2.7809,-65.5609 0.3961,-98.1823 -1.9597,-19.9519 -2.4745,-40.0346 -4.3973,-59.9843 -0.3282,-1.7615 -0.2967,-3.6299 -0.9846,-5.2844 -1.2963,-3.118 -2.6251,-6.3705 -4.899,-8.8669 -9.3833,-10.302 -25.6189,-9.033 -38.0886,-9.3808 -52.3691,-0.6735 -104.7065,-2.6285 -157.0393,-4.6058 -56.9247,-2.139 -113.8922,-2.7326 -170.8507,-3.1564 -38.4283,-0.9564 -76.8163,0.929 -115.2074,2.2807 -36.9472,0.6171 -73.9031,0.1574 -110.8522,-0.077 -19.2537,-0.1128 -38.5073,-0.2463 -57.7612,-0.3003 -10.25,0.4212 -23.206,-2.5345 -31.5298,5.6116 -3.2352,3.1662 -4.6983,7.7389 -7.0476,11.6083 -0.7762,3.79 -1.7838,7.5398 -2.3287,11.3699 -1.069,7.5143 -1.5432,20.9051 -1.7662,28.1621 -0.5271,17.161 -0.5266,34.3366 -0.5974,51.5035 0.2582,26.1061 -1.0396,52.2948 2.0275,78.2759 2.9226,13.6231 10.1217,24.9094 24.5006,28.2114 2.3737,0.5451 4.831,0.623 7.2465,0.9345 28.1932,-0.4943 56.3845,-1.1606 84.5825,-1.5006 26.9866,-0.01 53.9523,-1.1351 80.9198,-1.9997 7.0325,0.1738 14.128,-0.8625 21.1604,-0.5061 1.2839,0.065 2.512,0.5482 3.7675,0.8243 4.6573,1.1941 9.4032,1.9241 14.0587,3.1035 4.796,1.3384 9.7618,1.63 14.6946,2.0516 21.137,1.7964 23.6775,-28.0958 2.5405,-29.8922 v 0 c -3.3093,-0.28 -6.6587,-0.3496 -9.8802,-1.2438 -5.1406,-1.2979 -10.365,-2.1567 -15.5126,-3.433 -4.3764,-0.8358 -5.3746,-1.1633 -10.1431,-1.4067 -7.1938,-0.3671 -14.4532,0.6955 -21.6473,0.5178 -26.7677,0.8585 -53.5335,1.981 -80.3202,1.9865 -27.2836,0.3294 -54.5642,0.8028 -81.8387,1.5931 -0.5436,0.1921 -1.2048,0 -1.7057,0.2876 -0.088,0.05 -0.062,1.2015 -0.3962,1.1272 -1.4432,-0.3211 -2.1734,-4.0656 -2.2446,-4.261 -3.0857,-24.7168 -1.3303,-49.7094 -1.8103,-74.5469 0.1092,-26.633 -0.2689,-53.3862 2.5022,-79.906 -3.7653,1.584 -2.3044,1.2269 -6.9637,1.8772 -0.6249,0.087 1.2267,-0.3328 1.8567,-0.3681 5.247,-0.2939 10.5412,0.2582 15.7907,0.018 19.2186,0.054 38.4369,0.1874 57.6552,0.2999 37.3644,0.2367 74.7358,0.7051 112.0979,0.059 37.9652,-1.3368 75.9266,-3.2169 113.9287,-2.2629 56.6553,0.4212 113.3195,1.0092 169.9411,3.1359 52.4528,1.9818 104.9103,3.9409 157.3995,4.6172 3.4264,0.08 6.8543,0.1104 10.2791,0.2392 1.7441,0.066 3.4795,0.3169 5.2246,0.3438 0.4852,0.01 1.4903,0.2411 1.4356,-0.241 -0.1152,-1.016 -1.3531,-1.5773 -1.7487,-2.5201 -0.4841,-1.1541 -0.5687,-2.4376 -0.8434,-3.6586 -0.1743,-0.7743 0.3613,1.5457 0.5419,2.3185 1.9902,19.6873 2.3052,39.543 4.3329,59.2337 2.1128,28.8525 4.7456,57.9775 0.9639,86.8101 2.5782,1.6931 0.2593,0.6317 4.994,-0.148 0.8677,-0.1429 -1.6604,0.5877 -2.5133,0.8022 -4.7338,1.1904 -9.6228,1.5973 -14.3555,2.7968 -1.345,0.2685 -7.3228,1.4964 -8.943,1.698 -7.8458,0.9762 -15.8497,0.2733 -23.7086,1.0991 -32.1419,1.6333 -64.2685,3.5688 -96.4047,5.3026 -22.7497,1.6074 -45.4804,3.3786 -68.1799,5.6038 -1.2591,0.1234 -36.1462,3.7919 -38.5714,4.2642 -6.1609,1.1998 -12.1053,3.3235 -18.158,4.9852 -2.5483,2.7444 -5.7836,4.9833 -7.645,8.233 -3.7919,6.6197 -2.4979,12.8313 -2.2088,19.7558 0.1969,4.7161 0.1288,9.4413 0.4517,14.1533 0.9744,16.5172 2.7187,32.9533 5.1723,49.3194 2.8773,25.626 5.4392,51.2911 9.163,76.8156 1.8529,14.0667 4.3485,28.4466 2.5645,42.6438 0.5795,2.2063 -0.2573,0.436 2.9661,0.3914 0.4177,-0.01 1.5091,0.5127 1.1005,0.5997 -1.6483,0.3508 -3.3651,0.2062 -5.0499,0.2409 -5.3725,0.1106 -10.7487,-0.1018 -16.121,0.033 -26.882,0.066 -53.7639,0.1698 -80.6459,0.2075 -20.4205,-0.016 -40.994,0.7157 -61.3208,-1.5151 0.6397,1.435 1.7499,3.7941 1.9081,5.1167 0.1099,0.9185 -0.454,3.6641 -0.446,2.7391 0.051,-5.8621 1.6752,-11.7202 1.4386,-17.608 0.8435,-29.9155 1.6968,-59.8393 1.5016,-89.77 0,-33.2653 0,-66.5305 0,-99.7957 0,-21.2132 -29.9999,-21.2132 -29.9999,0 z" /><path
         style="fill:#000000;stroke-width:1;paint-order:markers stroke fill"
         id="path2117"
         d="m 1130.3146,1103.7876 c 1.4569,-18.3428 1.9554,-36.7352 2.3003,-55.126 0.264,-16.3262 0.3309,-32.6545 0.3504,-48.98241 0,-11.54792 -0.01,-23.09582 -0.013,-34.64375 2.3225,-20.64332 3.6368,-41.36514 5.0862,-62.08127 2.8771,-38.42724 2.7573,-76.96526 1.6831,-115.45639 -1.0298,-34.67677 -4.8318,-69.15793 -7.5902,-103.7132 -2.0053,-31.51743 -1.9647,-63.12387 -2.1091,-94.69189 -0.5155,-28.42077 0.1291,-56.80408 1.2804,-85.1967 0.7955,-18.32793 1.2833,-36.66596 1.5432,-55.0087 -0.7065,-13.4969 1.8935,-26.67696 3.489,-40.0231 4.1096,-35.41035 5.8547,-71.04634 7.3653,-106.64645 0.5908,-14.7701 0.9373,-29.54885 0.9917,-44.33047 3.9273,-11.93484 7.3833,-24.02367 11.1382,-36.01898 2.0185,-6.37924 3.9812,-12.78489 6.1324,-19.12138 0.5628,-1.65757 0.9253,-3.41441 1.7871,-4.93806 0.5266,-0.93111 1.5442,-1.48177 2.2822,-2.25623 1.3837,-1.4522 2.7208,-2.94811 4.0812,-4.42216 14.5838,-13.14146 30.9034,-24.16219 45.8398,-36.89505 17.9381,-15.29188 27.1757,-24.53382 44.5418,-41.02196 33.5571,-31.470041 64.4475,-65.624053 98.365,-96.711233 2.7913,-2.621984 8.0117,-7.6337976 11.2621,-10.3586431 0.9734,-0.816038 4.1658,-2.8847725 3.038,-2.3004301 -1.5332,0.7943416 -2.8046,2.0191068 -4.267,2.9371771 -4.5246,2.8404232 -4.0277,-0.230165 3.1523,6.9093821 20.3741,19.805308 39.4556,40.896505 59.6841,60.848313 5.385,5.311376 27.5054,26.111614 33.3703,31.641244 26.4828,24.16289 53.5225,47.6821 80.7804,70.95845 2.9005,2.64929 8.557,7.38748 11.068,10.9883 4.0434,5.79828 3.7076,17.37282 3.9387,23.9265 -2.0001,28.34612 -4.9806,56.59852 -6.6915,84.96987 -1.3906,26.77597 -2.9393,53.5368 -3.8652,80.33486 -0.7302,26.96715 -0.7629,53.94677 -0.8122,80.92183 -0.022,23.3472 0,46.69443 0.01,70.04166 0.03,23.1021 0.939,46.23113 2.513,69.28054 1.6253,20.32759 2.5728,40.65834 4.7535,60.93788 2.3091,18.77854 3.4589,37.65283 4.0851,56.55244 0.4894,14.28641 1.946,28.50094 2.5135,42.79154 0.4977,14.6327 0.673,29.27321 0.7466,43.91326 0.035,13.5939 0.014,27.18784 0.01,40.78174 -0.01,15.06389 -0.01,30.12776 -0.011,45.19165 0,13.33331 0,26.66662 0,39.9999 0,18.15933 10e-5,36.31863 10e-5,54.47797 0,12.09048 0,24.18095 0,36.27145 0,11.0192 0,22.0385 0,33.0578 -0.4654,14.7027 0.8753,29.3484 1.7873,44.004 0.1166,2.1695 0.2331,4.3389 0.3497,6.5083 1.1397,21.1825 31.0963,19.5707 29.9566,-1.6119 v 0 c -0.1215,-2.2544 -0.2429,-4.5088 -0.3644,-6.7632 -0.8766,-14.0345 -2.1938,-28.0569 -1.7292,-42.1372 0,-11.0193 0,-22.0386 0,-33.0578 0,-12.0905 0,-24.181 0,-36.27151 0,-18.15933 -10e-5,-36.31863 -10e-5,-54.47794 0,-13.3322 0,-26.66439 0,-39.99659 0,-15.06053 0,-30.12106 0.011,-45.1816 0.01,-13.64869 0.027,-27.29745 -0.01,-40.94614 -0.076,-14.98968 -0.2569,-29.97981 -0.7701,-44.96181 -0.5733,-14.22332 -1.9859,-28.3731 -2.5062,-42.58887 -0.6552,-19.63944 -1.8519,-39.25332 -4.241,-58.76795 -2.1462,-19.89498 -3.0381,-39.84316 -4.6518,-59.78541 -1.5525,-22.36555 -2.3964,-44.81515 -2.4422,-67.2325 -0.01,-23.32498 -0.031,-46.64996 -0.01,-69.97497 0.049,-26.64822 0.08,-53.30097 0.7944,-79.94152 0.9155,-26.54226 2.4536,-53.04729 3.8289,-79.5677 1.7674,-29.42833 5.1049,-58.71747 6.7141,-88.14938 -1.4161,-26.38078 -4.6542,-38.95532 -25.4943,-56.35192 -26.8848,-22.95523 -53.5522,-46.15181 -79.6812,-69.972129 -4.7839,-4.510305 -28.0259,-26.375019 -32.5311,-30.818376 -20.6189,-20.335911 -40.0429,-41.859222 -60.8665,-61.989716 -7.6821,-6.694744 -13.4415,-13.867347 -24.6608,-14.735779 -12.6411,-0.978495 -20.8199,10.310218 -29.0368,17.58365 -34.0341,31.221748 -65.113,65.430621 -98.7507,97.071339 -16.1176,15.317431 -26.0429,25.195041 -42.6951,39.406081 -13.2261,11.28728 -27.6093,21.12926 -40.8291,32.41064 -2.9444,2.51266 -5.7042,5.23389 -8.5563,7.85084 -5.8826,6.71049 -7.8092,8.19563 -12.2302,16.51811 -0.9831,1.85055 -1.4465,3.93382 -2.1208,5.91784 -2.1781,6.40913 -4.161,12.88968 -6.2027,19.34282 -4.6303,14.80077 -9.7947,29.59142 -12.5071,44.8696 -0.052,14.39416 -0.3913,28.78546 -0.965,43.16845 -1.4765,34.84041 -3.1698,69.71736 -7.1821,104.37301 -1.6998,14.36056 -4.3844,28.61953 -3.6961,43.1432 -0.2554,18.07903 -0.7371,36.15341 -1.5216,54.21786 -1.1693,28.84308 -1.8199,57.678 -1.3047,86.54934 0.1482,32.31914 0.115,64.67787 2.204,96.94341 2.7212,34.04023 6.4694,68.00699 7.5068,102.16589 1.0589,37.51252 1.1803,75.07123 -1.6218,112.52192 -1.4971,21.41749 -3.0093,42.82223 -5.1593,64.18556 0,11.53218 0.016,23.06439 0.013,34.5966 -0.019,16.15275 -0.085,32.30585 -0.3451,48.45685 -0.3299,17.6717 -0.7995,35.3444 -2.1824,52.9712 -1.9206,21.1261 27.9562,23.8422 29.8768,2.7161 z" /><path
         style="fill:#e6e6e6;fill-opacity:1;stroke-width:23.622;paint-order:markers stroke fill"
         d="M 5164.7095,39.733887 C 4922.1037,261.953 4702.6704,510.35181 4439.4653,709.50925 c -52.0701,32.7495 -55.2144,100.78581 -76.6601,152.69775 -19.2243,61.42319 -42.6897,122.15344 -36.7055,187.7346 -2.4327,188.3818 -19.7251,375.9432 -35.5725,563.4632 -23.4251,397.9262 -28.0229,797.8523 7.7666,1195.1795 14.0984,254.9768 12.3275,510.7226 -6.241,765.3973 -10.3503,197.2258 -6.1752,395.5423 -19.194,592.3053 -7.6059,38.473 65.5718,8.3268 91.6065,17.8466 445.2357,1.6104 890.6565,-4.969 1335.7601,7.1927 75.8985,2.7402 153.7367,7.7982 228.51,5.1582 -21.0681,-53.3431 -8.1188,-114.0796 -13.7518,-170.3451 -8.9043,-459.7727 0.057,-919.9314 -19.2072,-1379.4596 -15.9134,-210.7214 -40.3653,-421.1126 -37.643,-632.8246 -2.283,-371.5932 -3.6148,-743.8768 32.455,-1114.1481 0.176,-61.64906 17.4055,-128.7345 -7.6538,-187.34125 C 5735.5691,571.53895 5575.4345,444.27921 5431.095,300.03298 5340.8201,215.09938 5257.7386,120.9627 5164.7095,39.733887 Z"
         id="path3305"
         transform="scale(0.26458333)" /><path
         style="fill:#000000;fill-opacity:1;stroke-width:1;paint-order:markers stroke fill"
         id="path3372"
         d="m 1362.0384,1113.2783 c -0.034,-8.2611 0.1783,-16.5195 -0.3119,-24.7682 -0.7738,-7.8583 -1.4345,-15.7208 -1.7781,-23.6101 0.1023,-6.8277 -0.6524,-13.5694 -1.419,-20.3383 -0.7899,-7.4195 -0.9666,-14.8809 -1.0984,-22.3349 -0.1048,-7.5204 -0.089,-15.0418 -0.085,-22.56277 0.01,-7.16214 0.01,-14.32428 0.013,-21.48644 0,-8.86264 0,-17.72531 0,-26.58798 -0.1246,-10.27314 -0.073,-20.51381 0.6309,-30.76263 0.4256,-12.68648 1.8361,-25.2958 2.9113,-37.93447 1.5416,-10.67883 2.3956,-21.43596 3.011,-32.20247 0.3684,-8.72619 0.2583,-17.43519 1.0874,-26.13154 1.0529,-11.07303 1.3362,-22.19825 1.5677,-33.31274 0.1742,-10.75946 0.1614,-21.52081 0.1627,-32.28133 -0.369,-11.49456 0.3282,-22.94007 1.0185,-34.40449 0.7855,-12.1675 1.0664,-24.35556 1.2248,-36.54451 0.096,-8.35261 0.097,-16.70582 0.094,-25.05882 -0.5548,-8.21656 1.5967,-16.14874 2.676,-24.25039 1.2197,-9.56924 1.3196,-19.21367 2.4817,-28.78404 1.2102,-9.22573 1.4929,-18.53184 1.7127,-27.8229 0.18,-9.27452 0.1508,-18.55147 0.1495,-27.82729 0.7962,-10.51798 1.6831,-20.98471 1.6184,-31.53971 -0.4506,-15.87124 -1.0053,-31.73899 -1.3688,-47.61264 -0.244,-12.77892 -0.2572,-25.561 -0.2771,-38.34185 -0.01,-10.28637 0,-20.57276 0,-30.85913 0,-6.72988 0,-13.45977 0,-20.18966 0,-6.81961 3e-4,-13.63922 3e-4,-20.4588 -10e-5,-8.00627 -10e-5,-16.01251 -10e-5,-24.01874 0,-10.56535 0,-21.13071 0,-31.69608 0.016,-14.64485 -0.2872,-29.27996 0.6366,-43.90147 1.014,-13.63381 1.3348,-27.30444 1.5489,-40.96997 0.5821,-14.54749 1.568,-29.07424 2.0754,-43.62474 0.1273,-10.81384 2.2637,-21.48381 3.6881,-32.18119 1.2711,-12.48809 1.3072,-25.06225 1.4038,-37.60232 0.06,-12.29304 0.036,-24.586301 0.022,-36.879424 -1.0765,-12.241313 -3.3818,-24.340595 -5.3888,-36.456101 -0.4016,-8.14569 -4.345,-19.367211 -2.4518,-27.435982 2.7411,-21.035363 -27.0074,-24.91183 -29.7485,-3.8764674 v 0 c -1.2825,12.1650154 0.6803,24.2017434 2.604,36.2171684 1.7433,10.514837 3.5918,21.018169 4.9851,31.586069 0.014,12.204948 0.038,24.410029 -0.021,36.614897 -0.086,11.29633 -0.1098,22.61986 -1.143,33.87792 -1.5487,11.66408 -3.823,23.29886 -3.9317,35.09583 -0.508,14.74104 -1.5418,29.45648 -2.0898,44.19612 -0.2053,13.19672 -0.5096,26.39868 -1.494,39.56449 -0.9459,15.24707 -0.7142,30.50437 -0.6952,45.77517 0,10.56537 0,21.13076 10e-5,31.69613 0,8.00624 0,16.0125 0,24.01877 0,6.81876 10e-5,13.63752 -2e-4,20.45628 0,6.7269 0,13.4538 0,20.1807 0,10.30579 -0.011,20.6116 0,30.91738 0.02,12.99438 0.034,25.99 0.285,38.98239 0.361,15.7412 0.902,31.47687 1.3622,47.21529 0.15,10.45969 -1.1103,20.81609 -1.6198,31.25393 0,9.03928 0.031,18.07964 -0.1411,27.11773 -0.1945,8.32432 -0.4151,16.66507 -1.5046,24.93092 -1.1383,9.46851 -1.3608,18.9896 -2.4413,28.46446 -1.2176,9.37903 -3.5995,18.64825 -2.9329,28.17889 0,8.21957 0,16.43933 -0.091,24.65848 -0.1513,11.71718 -0.4158,23.43364 -1.1731,35.13016 -0.7262,12.06224 -1.4313,24.11132 -1.0727,36.20394 0,10.55417 0.012,21.10909 -0.1563,31.66226 -0.2148,10.37865 -0.4631,20.7685 -1.4407,31.10902 -0.8531,9.07344 -0.8771,18.14947 -1.1724,27.25341 -0.5942,10.49089 -1.4756,20.96259 -2.952,31.37048 -1.0834,12.80276 -2.5124,25.57648 -2.949,38.42681 -0.7431,10.92986 -0.843,21.85234 -0.7007,32.80654 0,8.85901 0,17.71803 0,26.57705 0,7.16124 -0.01,14.32247 -0.013,21.48371 0,7.70369 -0.019,15.40789 0.09,23.11109 0.1508,8.4067 0.3764,16.8208 1.2853,25.1866 0.6937,6.09 1.4085,12.1167 1.2563,18.2685 0.3587,8.1041 0.993,16.186 1.8134,24.2566 0.5715,7.5828 0.092,15.2067 0.2476,22.8054 0,21.2132 30,21.2132 30,0 z" /></g><g
       id="g3412"
       transform="matrix(1.8000004,0,0,1.7999999,-1749.5037,-273.4787)"
       style="fill:#ffffff"><path
         style="fill:#ffffff;fill-opacity:1;stroke-width:1;paint-order:markers stroke fill"
         id="path3403"
         d="m 1094.0726,1167.7889 c 12.6291,-38.409 29.7991,-75.154 47.092,-111.6384 15.5901,-34.6066 36.0617,-66.49505 56.2933,-98.47627 15.9178,-26.36229 33.9478,-51.31961 52.1418,-76.13808 17.696,-25.37362 38.3002,-48.52821 59.1543,-71.31582 23.8415,-25.61905 49.3357,-49.64232 76.4689,-71.73039 5.1522,-4.02194 10.2804,-8.07466 15.4564,-12.0658 15.7444,-12.14025 31.287,-24.38289 46.2795,-37.45926 52.6249,-45.89912 -23.5731,19.65786 27.1149,-23.83229 20.4589,-15.63235 39.4035,-33.19139 60.0423,-48.56937 19.3875,-13.10635 39.4547,-25.19141 59.8313,-36.68845 16.8549,-10.09613 34.8815,-17.91285 52.9094,-25.60661 21.2809,-8.71276 42.3935,-17.81644 63.585,-26.74276 21.0363,-8.51517 42.5092,-15.86315 63.876,-23.49008 27.5258,-9.61843 55.8211,-16.60626 83.9464,-24.15622 26.9521,-7.20635 53.9481,-14.2843 81.3698,-19.47482 21.5356,-3.71313 43.2179,-6.38852 64.9226,-8.87423 25.7878,-2.03866 51.6459,-3.16391 77.474,-4.66241 26.6072,-1.61012 53.2776,-1.68219 79.9239,-1.85491 20.3707,-0.10496 40.7416,-0.10724 61.1125,-0.0911 15.4337,0.0159 30.8675,0.0196 46.3012,0.0236 16.0462,-0.25222 27.3552,-6.63183 27.5107,-24.84937 0.048,-5.61676 -3.7592,-12.79557 -6.0848,-17.86173 -4.8025,-9.20081 -12.0211,-16.57422 -21.2832,-21.29941 -10.234,-5.22113 -2.7051,-0.38425 -7.7971,-3.77465 -11.476,-8.67712 -23.0196,-17.31124 -35.4392,-24.59424 -12.4028,-6.45618 -24.9772,-12.61827 -38.11,-17.44141 -10.6324,-3.14246 -21.169,-6.55294 -31.7949,-9.71032 -10.733,-2.80016 -20.7764,-7.30908 -31.562,-9.94597 -10.9831,-2.70844 -21.8262,-5.79319 -32.6636,-9.02129 -13.6494,-4.87783 -27.6668,-7.89538 -42.0454,-9.46139 -16.8946,-2.46383 -33.9558,-3.28957 -50.9509,-4.78317 -22.1631,-1.99893 -44.4154,-2.45869 -66.6532,-2.75161 -32.7898,-0.26874 -65.5814,-0.21982 -98.3721,-0.21344 -37.5897,2.32754 -75.1818,5.17496 -112.7235,8.28826 -33.4445,2.771 -66.6369,8.35062 -99.7195,13.91586 -22.8571,2.9391 -45.0299,9.03978 -67.0942,15.46998 -23.2271,8.56549 -45.7234,18.87238 -68.0063,29.61087 -18.4662,9.42668 -37.2131,18.34049 -55.4795,28.14407 -20.8421,11.44252 -41.1615,23.65695 -62.393,34.38062 -19.1229,11.3229 -38.6971,21.85411 -57.981,32.89019 -16.8795,9.48135 -32.128,21.4937 -47.8461,32.71761 -16.5572,11.83579 -32.0637,25.03538 -47.1619,38.65793 -12.343,12.01848 -22.4565,26.10477 -32.9225,39.73825 -10.5432,14.19008 -22.3214,27.37953 -32.9046,41.52725 -11.6795,16.52405 -21.1865,34.51331 -30.5141,52.44224 -8.1929,15.57718 -15.906,31.40398 -23.7042,47.18137 -7.8103,12.31609 -13.4013,25.71364 -19.7488,38.78686 -6.5224,13.66044 -13.6053,27.04021 -19.4615,41.0079 -6.4195,17.59141 -11.6402,35.57463 -17.5972,53.32389 -5.958,17.38947 -8.5075,35.64977 -11.1789,53.76198 -2.8987,20.11969 -3.5786,40.44519 -4.0367,60.7377 -0.2656,15.98536 -0.2365,31.97362 -0.2125,47.96057 0.025,13.47917 0.039,26.95847 0.047,40.43767 0.01,13.4188 0.01,26.8375 0.01,40.2563 0,12.399 -2e-4,24.7979 0,37.1969 0.1437,11.5008 2.5537,22.7108 5.6817,33.7189 3.3068,10.9396 10.0814,18.8925 19.0744,25.6267 6.3608,3.7085 3.107,2.0582 9.753,4.9677 19.5853,8.1495 31.1104,-19.5484 11.5251,-27.6978 v 0 c -2.4896,-0.8912 -1.2598,-0.3712 -3.6854,-1.57 -3.9686,-2.6423 -6.2666,-4.9314 -7.8393,-9.6308 -2.4348,-8.2929 -4.2971,-16.7372 -4.5095,-25.4145 2e-4,-12.3992 0,-24.7983 0,-37.1975 -10e-5,-13.4244 2e-4,-26.8489 -0.01,-40.2733 -0.01,-13.4885 -0.023,-26.9769 -0.047,-40.46525 -0.024,-15.74726 -0.053,-31.49576 0.205,-47.24149 0.4264,-19.05584 1.0212,-38.14561 3.7243,-57.0422 2.4032,-16.35533 4.5981,-32.87282 9.9399,-48.58684 5.7283,-17.07021 10.8133,-34.33964 16.8391,-51.30776 5.5995,-13.47031 12.5374,-26.31059 18.7764,-39.48766 6.299,-13.02462 11.8818,-26.30832 19.6475,-38.5798 7.7018,-15.59634 15.3325,-31.23541 23.4262,-46.63297 8.5703,-16.50227 17.2908,-33.07485 27.9406,-48.33916 10.462,-14.06512 22.246,-27.08365 32.6577,-41.20097 9.3583,-12.19491 18.3904,-24.79961 29.2257,-35.73452 14.2478,-12.866 28.8755,-25.34092 44.5027,-36.51917 14.8978,-10.65323 29.3476,-22.06331 45.3236,-31.09902 18.8104,-10.80225 37.9691,-21.00267 56.5909,-32.14129 21.4621,-10.84884 42.0389,-23.14138 63.0904,-34.74452 17.8369,-9.64748 36.2372,-18.26163 54.2767,-27.53069 20.7971,-10.02271 41.7849,-19.6187 63.3768,-27.8347 20.9441,-6.10521 41.9698,-11.95443 63.6798,-14.68781 32.2533,-5.43365 64.616,-10.88967 97.2215,-13.60247 36.7186,-3.05237 73.489,-5.77697 110.2471,-8.18539 32.6575,-0.006 65.3159,-0.0549 97.9726,0.21087 21.4927,0.28089 43.0002,0.70956 64.4211,2.63906 16.8088,1.47646 33.6819,2.28995 50.3911,4.72869 12.5771,1.31024 24.7525,4.10263 36.6781,8.38597 11.3707,3.37682 22.7533,6.59717 34.2685,9.45065 10.269,2.34617 19.6838,7.16492 29.9665,9.51944 10.0744,2.99234 20.0563,6.24991 30.1538,9.17086 11.5109,4.05043 22.3501,9.75196 33.2557,15.18134 12.5394,7.14351 23.6811,16.41713 35.5146,24.63782 6.319,3.44413 13.3075,5.12452 16.9243,11.89929 0.8054,1.62009 2.2898,5.57516 3.2048,4.85648 1.2659,-0.99444 1.622,-2.88902 2.9107,-3.85371 1.4715,-1.10146 3.339,-1.55874 5.0855,-2.13183 0.2753,-0.0903 -0.2902,0.59933 -0.5752,0.65183 -1.6187,0.29818 -3.283,0.24085 -4.9246,0.36126 -15.4284,-0.004 -30.8567,-0.008 -46.2851,-0.0236 -20.4437,-0.0161 -40.8875,-0.0138 -61.331,0.0917 -27.161,0.17648 -54.3459,0.26038 -81.4669,1.90466 -26.3887,1.53114 -52.8104,2.6593 -79.1534,4.80727 -22.436,2.575 -44.8499,5.34323 -67.1077,9.2067 -28.1464,5.37086 -55.8854,12.53604 -83.5497,19.97403 -28.8999,7.76708 -57.9749,14.95986 -86.2506,24.87573 -21.8916,7.81611 -43.8925,15.34718 -65.4365,24.09672 -21.2341,8.94627 -42.3903,18.06688 -63.7145,26.79771 -19.0453,8.12932 -38.064,16.4383 -55.8841,27.07566 -21.4819,12.13945 -42.664,24.86313 -63.0453,38.78522 -21.1306,15.84878 -40.6888,33.70434 -61.6176,49.83202 -55.1163,47.33348 26.2215,-22.7076 -26.9682,23.70717 -14.6923,12.82091 -29.9209,24.79952 -45.3502,36.70323 -5.3417,4.12118 -10.6336,8.30668 -15.9504,12.46003 -28.2294,23.05335 -54.8451,48.0101 -79.6485,74.73455 -21.57,23.60014 -42.8849,47.5734 -61.2134,73.8278 -18.5926,25.3738 -37.0114,50.8957 -53.2977,77.83401 -20.8806,33.0078 -41.9413,65.96205 -58.05,101.66675 -18.3292,38.6797 -36.6701,77.6569 -49.3998,118.6028 -4.1602,20.8012 25.2572,26.6847 29.4174,5.8835 z" /><path
         style="fill:#ffffff;fill-opacity:1;stroke-width:16.7033;paint-order:markers stroke fill"
         d="m 7008.2897,1208.0201 c -187.143,2.3073 -373.6808,20.5893 -559.9729,37.0844 -163.2369,20.6635 -326.843,43.867 -486.5141,84.3201 -126.3567,35.7393 -242.4973,99.311 -360.8969,154.7515 -168.1506,82.9432 -330.1471,177.5687 -494.0635,268.4464 -110.15,60.4862 -215.7241,128.9544 -313.8252,207.6096 -81.747,60.7587 -155.943,131.6463 -215.1735,214.7898 -76.5271,99.0461 -160.7381,193.6659 -216.7003,306.7076 -88.1296,169.6572 -179.4424,338.1414 -255.729,513.5565 -37.8762,98.0898 -72.6493,198.1973 -94.2504,301.2353 -38.2823,201.1122 -24.8067,406.9276 -27.3099,610.3988 2.4368,126.8212 -3.1564,254.1035 6.1031,380.6398 7.197,25.0025 14.5926,61.0758 43.3137,68.5614 10.6078,-6.0525 4.4846,-24.9587 12.6376,-34.1579 65.3935,-169.6824 140.1449,-336.1715 224.0539,-497.5397 130.4642,-233.9791 279.6104,-457.7362 444.503,-668.7957 154.6478,-191.633 332.5839,-363.8838 527.5852,-514.1716 170.3865,-132.5186 326.4441,-282.8595 501.2845,-409.642 156.8854,-108.2836 325.5926,-199.017 502.6212,-269.8997 225.0055,-93.2567 452.261,-183.539 689.067,-242.3536 209.2049,-58.371 421.5157,-108.8712 638.5483,-126.2909 317.2426,-28.6503 637.2335,-21.6101 954.6958,-27.6139 5.0412,-17.2468 -6.4232,-30.8177 -22.3216,-35.1568 -75.8991,-49.4252 -149.0702,-104.3542 -233.5119,-139.0011 -100.7968,-40.0781 -206.0301,-68.2295 -309.8044,-99.5374 -89.7408,-25.5555 -179.1957,-54.6478 -272.9604,-61.3293 -226.0842,-26.9706 -454.1902,-20.3948 -681.3793,-22.6116 z"
         id="path3405"
         transform="scale(0.26458333)" /><path
         style="fill:#ffffff;fill-opacity:1;stroke-width:1;paint-order:markers stroke fill"
         id="path3407"
         d="m 1214.3617,596.40901 c 5.1437,-9.24568 12.5753,-16.6696 19.7699,-24.29542 6.6731,-6.37807 12.7787,-13.44348 20.0614,-19.16248 2.5897,-2.03366 7.1017,-4.99395 9.8211,-6.8227 10.1877,-6.63263 19.9026,-14.02128 29.2797,-21.75351 7.5899,-6.45438 15.2178,-12.8537 22.6692,-19.46656 5.3725,-5.34263 11.6343,-9.48098 17.9217,-13.62721 10.6342,-6.47845 20.8071,-13.64911 31.1299,-20.60387 8.1138,-5.53641 16.907,-9.91687 25.6128,-14.41537 8.8985,-5.17869 18.1024,-9.66126 27.5064,-13.82493 8.0068,-2.76715 15.1385,-7.40265 22.6863,-11.13152 2.2315,-1.10244 9.1226,-4.0498 11.111,-4.91144 11.7541,-5.10564 23.334,-10.58846 34.9371,-16.02309 9.2749,-4.13218 18.6166,-8.11598 28.0237,-11.9372 12.8749,-6.09052 26.0368,-11.56743 39.221,-16.95032 7.3121,-3.11915 15.13,-4.60621 22.7777,-6.64951 11.1235,-3.18524 22.6841,-4.17412 34.0404,-6.18043 14.089,-2.47171 27.9374,-5.99853 41.8555,-9.26026 14.8222,-3.56568 29.598,-7.33276 44.5808,-10.17558 12.4976,-2.28732 25.0639,-4.28985 37.7058,-5.58347 13.2213,-1.42558 26.4764,-2.51868 39.7476,-3.34992 23.3537,-1.12175 46.7468,-1.04532 70.1217,-1.14255 18.4407,-0.36357 36.9142,0.50935 55.337,-0.463 11.261,-0.64934 22.3696,-2.70052 33.5874,-3.76869 11.0525,-0.65075 22.1216,-1.0758 33.1855,-1.53705 13.9081,-0.6074 27.8294,-0.74551 41.7485,-0.83269 12.8599,-0.0583 25.7198,-0.0561 38.5798,-0.0515 7.1871,0.2545 14.4252,-0.38439 21.5991,0.17703 5.6814,0.36822 10.8817,3.05782 16.0109,5.31511 8.6794,4.01098 17.3225,8.09747 25.8605,12.39959 8.65,4.17643 17.2866,8.40547 25.9252,12.61891 5.7894,3.01464 12.0591,4.91969 18.0296,7.50948 2.3388,1.01447 4.5961,2.20737 6.9051,3.28795 9.1417,4.60346 18.8888,7.92766 28.5999,11.11335 9.178,3.11782 17.4174,8.27823 25.8331,12.9762 8.2006,4.18229 16.3098,8.51323 24.3616,12.9736 4.2807,2.70235 8.3301,5.72352 12.3037,8.84968 0.5523,0.44238 1.0928,0.90003 1.657,1.32715 1.3247,1.00282 2.7304,1.89579 4.0533,2.90097 0.1536,0.11674 0.5889,0.47853 0.4086,0.41 -4.2909,-1.6302 -2.9942,-8.68333 -4.2455,-13.0996 1.9659,-2.93222 3.9318,-5.86444 5.8977,-8.79665 0.6261,-0.35261 1.3631,-0.55695 1.8783,-1.05786 0.1848,-0.17971 -0.5156,-0.0273 -0.7732,-0.0167 -0.7418,0.0308 -1.4814,0.10499 -2.223,0.14108 -3.1523,0.15335 -4.4579,0.13491 -7.936,0.18616 -16.9809,0.24249 -33.8853,-1.97702 -50.7449,-3.7383 -17.5888,-1.68635 -35.2462,-2.59795 -52.9135,-2.52685 -17.8107,0.2835 -35.6175,0.75525 -53.427,1.10069 -11.3058,0.0114 -22.4399,0.19463 -33.7074,1.23005 -13.4529,1.25079 -26.9488,2.04787 -40.4354,2.86131 -14.9311,1.16094 -29.8512,2.4294 -44.7771,3.65479 -15.8098,0.78656 -31.3754,3.33251 -46.754,6.97818 -13.9615,3.83839 -27.2895,9.55439 -41.0005,14.1343 -16.646,4.67673 -33.4062,9.02322 -50.2576,12.91675 -14.9772,2.79297 -29.8547,6.10785 -44.8545,8.78197 -12.1135,1.93831 -24.0472,4.50797 -35.7613,8.152 -15.9927,5.08598 -31.4327,11.73938 -46.7296,18.59989 -13.7494,6.71216 -27.9839,12.32942 -42.1242,18.14441 -15.9515,6.35376 -31.3387,14.00633 -46.7879,21.47932 -12.5031,5.53313 -24.5777,11.87427 -36.6714,18.23358 -13.4806,7.39725 -26.1122,16.19176 -38.8993,24.69809 -8.8919,6.24416 -17.6705,12.64515 -26.4865,18.99515 -9.6788,6.81971 -18.9117,14.23254 -28.3273,21.40233 -4.7691,4.03823 -10.3454,6.90189 -15.5397,10.32137 -3.2522,2.14103 -6.2268,4.30175 -9.396,6.55833 -7.964,5.86409 -16.1203,11.48165 -24.4487,16.81644 -10.6184,6.65118 -21.4811,12.90534 -32.0895,19.57181 -8.1231,5.38017 -16.0067,11.19489 -23.1505,17.82797 -5.5163,5.68682 -10.1682,12.13906 -14.8338,18.52279 -4.4114,6.76317 -9.8634,12.72016 -15.0628,18.86609 -7.4186,8.42581 -15.1141,16.57043 -22.2318,25.2613 -6.7957,8.71567 -13.0557,17.82273 -20.0063,26.4209 -4.9226,6.23062 -9.9355,12.37684 -15.6721,17.87573 -4.0317,3.72387 -7.9374,7.63714 -12.5536,10.64513 -5.1358,3.20689 -10.1066,6.61935 -14.9967,10.1907 -5.8458,5.03655 -10.9295,10.83392 -16.7319,15.91754 -5.2212,4.66622 -9.747,10.04718 -14.153,15.47188 -5.7348,7.29893 -11.052,14.9093 -16.5864,22.35822 -6.3453,7.5384 -13.093,14.79854 -20.763,21.00617 -7.2748,5.62568 -14.4282,11.41727 -21.3427,17.48054 -6.2009,5.11961 -11.1785,11.22876 -15.3658,18.0489 -4.7622,7.86971 -8.8584,16.12831 -13.2869,24.19162 -3.8753,6.14299 -6.1482,13.05631 -9.5859,19.42219 -3.649,6.26277 -7.0177,12.6325 -10.0674,19.20679 -4.2422,8.337 -7.5233,17.06465 -10.2535,25.99791 -2.2718,7.54593 -5.3792,14.80403 -7.9455,22.25303 -2.902,9.3562 -6.6302,18.4062 -10.1133,27.551 -2.6853,6.3643 -4.3978,13.2069 -7.628,19.3305 -3.8064,8.2047 -7.2811,16.5396 -11.3938,24.5986 -3.8087,6.3507 -8.3791,12.1777 -12.1366,18.554 -3.0677,5.2309 -7.0143,9.861 -10.2344,15.0077 -1.3815,1.8944 -2.4847,3.9506 -3.5706,6.0217 -0.8447,1.6111 -1.7012,2.7425 0.4826,-0.333 21.583,-5.4922 9.6023,-6.818 23.0664,1.9261 0.5134,0.3334 -0.5722,-1.0841 -0.9039,-1.5986 -1.7438,-2.704 -3.7554,-5.1567 -5.6986,-7.7108 -2.0199,-3.9029 -3.1295,-8.1976 -4.2577,-12.4238 -1.531,-5.5044 -1.9714,-11.1965 -2.232,-16.8767 -0.01,-6.3537 -0.3477,-12.6662 -1.0273,-18.9817 -0.5604,-5.9696 -0.6451,-11.9684 -0.736,-17.9593 -0.069,-6.0449 -0.061,-12.0903 -0.058,-18.1355 0.2498,-5.0432 0.9732,-9.9527 2.2873,-14.8199 1.9848,-7.648 3.3134,-15.4636 4.5603,-23.26305 1.5274,-9.97455 2.1473,-20.03483 3.9519,-29.97102 1.9998,-8.87365 3.5507,-17.8095 4.9814,-26.79044 1.3941,-8.56591 2.16,-17.22813 2.0702,-25.90508 0.067,-6.17093 -2.8559,-11.71224 -3.9519,-17.64861 -0.1632,-2.92172 -1.2958,-7.39831 -0.3856,-10.11772 2.6317,-14.12179 5.0238,-9.54395 -27.693,-14.20199 -1.5233,-0.21685 -0.8907,2.94553 -1.336,4.41831 -2.4581,9.50536 -4.1148,19.182 -7.0952,28.54586 -3.1421,8.8033 -5.448,17.80379 -6.6993,27.06111 0,1.76654 -0.2344,3.54854 0,5.29966 1.0005,7.51739 4.4003,14.63622 14.3406,15.85505 11.8192,1.44923 16.0947,-7.78709 19.813,-15.59364 4.268,-10.57114 6.9913,-21.72412 9.4624,-32.83323 2.7629,-10.93859 4.2678,-22.10554 5.1028,-33.33859 0.5138,-7.84704 0.503,-15.71397 0.5022,-23.57374 0.1434,-6.41612 -0.4741,-12.8697 0.4933,-19.23674 0.8784,-4.97343 2.6587,-9.6656 4.4734,-14.3524 2.5461,-6.58657 5.377,-12.94112 8.8601,-19.08236 4.125,-8.33382 8.2784,-16.61546 12.9542,-24.65832 3.752,-7.493 7.9711,-14.72877 11.0365,-22.53782 2.0426,-5.49687 4.669,-10.74541 6.9677,-16.14141 4.4446,-8.84557 7.6125,-18.2191 11.8636,-27.15871 4.2129,-10.38762 8.7676,-20.63123 12.9564,-31.0271 3.9352,-11.25069 8.4874,-22.23598 13.045,-33.24257 3.982,-9.71015 9.4603,-18.72427 14.1559,-28.09975 2.8046,-5.93683 7.539,-10.12087 12.0572,-14.69068 5.0311,-5.02319 9.7601,-10.35984 14.9833,-15.18679 4.0031,-3.03961 7.5971,-6.6757 11.9446,-9.23496 3.9699,-2.3817 8.6153,-3.077 12.9034,-4.73379 1.4612,-0.5646 2.8826,-1.22733 4.3239,-1.84098 1.027,-0.48693 2.054,-0.97385 3.081,-1.46079 19.1523,-9.12077 6.2536,-36.20624 -12.8987,-27.08547 v 0 c -0.7732,0.37036 -1.5463,0.7407 -2.3194,1.11104 -6.8532,3.32081 -14.8149,4.1163 -21.1336,8.66023 -5.8003,3.77852 -11.117,8.17748 -16.3833,12.66473 -5.472,5.15075 -10.5845,10.66261 -15.846,16.026 -6.7726,6.86615 -13.3347,13.51674 -17.5566,22.3779 -4.9766,10.02128 -10.8797,19.61142 -15.033,30.02468 -4.5901,11.10602 -9.1959,22.18571 -13.164,33.53451 -3.9362,9.8475 -8.3171,19.51194 -12.2325,29.3702 -4.3932,9.31892 -7.7819,19.02188 -12.3538,28.25033 -2.4425,5.75295 -5.2542,11.34285 -7.4002,17.21549 -2.2627,6.37318 -6.2255,11.99369 -8.9561,18.16753 -4.7052,8.14573 -9.0301,16.47127 -13.1161,24.9414 -4.1744,7.41408 -7.6371,15.08593 -10.7183,23.01206 -2.6684,6.90104 -5.0994,13.89366 -6.235,21.24003 -0.9449,7.70792 -0.8549,15.42161 -0.7529,23.17819 0,7.12909 0.024,14.26488 -0.4224,21.38347 -0.7007,9.79188 -2.0397,19.51524 -4.4737,29.04217 -1.9745,8.97316 -4.1827,17.946 -7.3347,26.58253 -0.3663,0.80293 -0.8769,1.55464 -1.0989,2.40879 -0.046,0.17878 0.3443,-0.13499 0.5215,-0.18746 4.0702,-1.20525 8.1023,-4.61817 12.2197,-3.58536 8.8232,2.21318 11.0193,6.36868 11.3409,12.57202 0,0.085 -0.1531,-0.0746 -0.2297,-0.1119 0.9621,-7.56406 3.0539,-14.84164 5.5892,-22.02944 2.9557,-9.5749 4.9699,-19.3516 7.2623,-29.09856 3.1496,-11.63968 2.1963,-5.23211 -26.6646,-14.93279 -1.0646,-0.35785 -0.7537,2.11778 -1.0578,3.19892 -0.8707,3.09536 -1.1875,6.33666 -1.8265,9.47814 -0.6004,6.61892 -0.4873,13.23758 0.7781,19.79284 0.8871,4.13372 2.1778,8.13946 3.3432,12.17224 0.239,6.90351 -0.7228,13.81326 -1.7029,20.63096 -1.3963,8.79147 -2.9237,17.53122 -4.8847,26.21807 -1.7927,10.13817 -2.6169,20.36611 -4.0498,30.55032 -1.074,6.81788 -2.2323,13.65118 -3.9451,20.33848 -1.9022,7.3613 -3.0512,14.8241 -3.2737,22.4369 0,6.2023 -0.011,12.4049 0.062,18.6069 0.1062,6.912 0.2267,13.8325 0.9054,20.7173 0.6189,5.726 0.8713,11.4373 0.8887,17.2004 0.3872,7.8275 1.1198,15.6551 3.228,23.2361 2.1602,7.9801 4.5616,15.9978 9.3856,22.8383 2.8794,3.7592 9.4475,12.9063 12.7837,13.4435 5.5282,0.8901 10.9297,-2.4399 16.3946,-3.6599 0.8152,-1.0204 1.6868,-1.9984 2.4457,-3.0614 1.6997,-2.3804 2.4661,-5.3125 4.4117,-7.5462 3.2161,-5.4731 7.8038,-10.062 10.6811,-15.7602 3.7462,-6.9262 9.3424,-12.7737 12.8506,-19.8728 4.1417,-8.1406 7.7434,-16.5113 11.5098,-24.8285 3.462,-7.1318 6.0181,-14.6388 8.8196,-22.0488 3.5982,-9.4625 7.4467,-18.8298 10.4583,-28.5057 2.6455,-7.7923 5.9797,-15.3442 8.2694,-23.2566 2.2893,-7.61144 5.1315,-15.00358 8.761,-22.08632 2.8055,-6.04797 5.935,-11.88333 9.2898,-17.65027 3.3652,-6.30523 5.7651,-13.02914 9.4446,-19.16194 4.2223,-7.68914 8.1224,-15.56965 12.6458,-23.08114 2.538,-4.28059 5.6239,-7.94385 9.5378,-11.08567 6.6367,-5.8764 13.6021,-11.37791 20.5848,-16.83518 9.452,-7.87103 18.0622,-16.69777 25.781,-26.28217 5.2824,-7.11867 10.3719,-14.38005 15.8225,-21.37286 3.3192,-4.12406 6.7339,-8.22555 10.6382,-11.81031 5.1089,-4.50379 9.9133,-9.3027 14.6202,-14.22363 4.6661,-3.40939 9.4131,-6.64646 14.317,-9.70859 5.8381,-4.11708 11.2479,-8.74922 16.3529,-13.74876 6.6164,-6.40016 12.5491,-13.40924 18.2184,-20.65861 6.8758,-8.55954 13.1964,-17.52439 19.8616,-26.24265 7.0074,-8.57109 14.6538,-16.54389 21.9215,-24.88826 5.6553,-6.68999 11.553,-13.20435 16.3812,-20.54252 3.6245,-4.96512 7.2293,-9.97976 11.3527,-14.54623 2.1465,-2.22846 0.5348,-0.669 4.0557,-3.49653 4.6364,-3.72332 9.2948,-7.42465 14.3282,-10.61222 10.678,-6.72963 21.6392,-13.00247 32.3248,-19.72141 8.7211,-5.61475 17.2975,-11.4695 25.6452,-17.62635 8.4452,-6.02311 17.433,-11.19413 25.7071,-17.44806 9.199,-7.01193 18.2239,-14.25487 27.681,-20.92357 8.5139,-6.13346 16.9966,-12.30907 25.5697,-18.3602 11.9298,-7.93835 23.7067,-16.1553 36.2457,-23.12323 11.7977,-6.20567 23.5669,-12.40102 35.7746,-17.7809 14.903,-7.21437 29.7398,-14.61286 45.1311,-20.7386 14.4341,-5.93662 28.9618,-11.67858 43.0011,-18.52149 14.2244,-6.39377 28.5834,-12.59938 43.4524,-17.35315 10.4662,-3.34799 21.1968,-5.43896 32.0293,-7.2349 15.494,-2.77582 30.8709,-6.16426 46.337,-9.08569 17.7888,-4.11906 35.4933,-8.68256 53.0441,-13.7048 12.851,-4.33256 25.3921,-9.55723 38.4131,-13.39305 13.8919,-3.3369 27.9606,-5.5679 42.2518,-6.2605 14.7092,-1.2107 29.4135,-2.45141 44.1269,-3.60846 13.8048,-0.83394 27.619,-1.65391 41.3895,-2.93418 1.5487,-0.14412 8.5838,-0.82777 10.442,-0.89847 7.0195,-0.26699 14.0652,0.11549 21.0857,-0.20984 17.6666,-0.34285 35.3307,-0.80809 52.9983,-1.09543 16.5751,-0.10509 33.1409,0.82121 49.6436,2.3649 18.0509,1.88529 36.1495,4.20214 54.3319,3.89694 5.1572,-0.0851 19.7838,0.0988 23.661,-3.31322 3.261,-2.86964 5.4633,-6.75473 8.195,-10.13208 -1.0503,-4.77221 -1.5933,-9.68508 -3.1508,-14.31661 -0.7105,-2.11272 -7.296,-5.92867 -9.3498,-7.81198 -5.2365,-4.11467 -10.6014,-8.07857 -16.3168,-11.51334 -8.0234,-4.43839 -16.0898,-8.77647 -24.269,-12.92209 -10.1021,-5.63891 -20.0632,-11.68424 -31.1298,-15.29477 -8.562,-2.79043 -17.1698,-5.68651 -25.2108,-9.77196 -8.0744,-3.77778 -16.3316,-7.04073 -24.5021,-10.59075 -8.5226,-4.15364 -17.0562,-8.29886 -25.5733,-12.44449 -9.0079,-4.53879 -18.1258,-8.85277 -27.2881,-13.07242 -8.3643,-3.6725 -16.8979,-7.35412 -26.1642,-7.78971 -7.8267,-0.44278 -15.6705,-0.1479 -23.507,-0.23841 -12.9262,-0.005 -25.8525,-0.007 -38.7787,0.0521 -14.2732,0.0898 -28.5486,0.23535 -42.8105,0.85818 -11.6094,0.48453 -23.226,0.91331 -34.8205,1.65005 -10.8123,1.05735 -21.5288,2.93698 -32.3731,3.6762 -17.8963,1.06698 -35.8747,-0.0804 -53.7908,0.41669 -23.9603,0.0998 -47.9394,0.0243 -71.8768,1.20123 -13.6744,0.86059 -27.333,1.98139 -40.9564,3.45038 -13.4877,1.40981 -26.9036,3.48713 -40.2372,5.95516 -15.3879,2.94802 -30.5844,6.74468 -45.807,10.43612 -13.3935,3.13994 -26.7111,6.55918 -40.2703,8.93355 -12.183,2.19171 -24.6021,3.2122 -36.5235,6.73227 -8.8698,2.37011 -17.9179,4.17743 -26.3781,7.86048 -13.1679,5.38144 -26.3326,10.82284 -39.1804,16.93373 -9.8831,4.02537 -19.7079,8.19632 -29.447,12.55964 -11.342,5.3149 -22.6618,10.67536 -34.1515,15.66868 -4.4063,1.91431 -9.0284,3.85847 -13.3369,5.98839 -6.8777,3.4 -13.3374,7.68959 -20.6657,10.1446 -9.9513,4.40735 -19.7124,9.13461 -29.1329,14.60442 -9.7383,5.03359 -19.5427,9.99056 -28.6121,16.19348 -10.2322,6.90555 -20.3199,14.01649 -30.8727,20.43242 -7.478,4.93136 -14.8733,9.96135 -21.321,16.23536 -7.1946,6.38702 -14.5652,12.56165 -21.891,18.79928 -8.5841,7.15047 -17.5749,13.88036 -26.9262,19.99115 -4.5624,3.08891 -8.2592,5.47317 -12.615,8.95705 -8.0413,6.43152 -14.9434,14.14947 -22.3064,21.30798 -8.819,9.34913 -17.6902,18.68379 -23.995,29.99753 -10.5247,18.41823 15.5226,33.30239 26.0473,14.88416 z" /></g></g></svg>
