<?xml version="1.0" encoding="UTF-8" standalone="no"?>
<!-- Created with Inkscape (http://www.inkscape.org/) -->

<svg
   width="3840mm"
   height="2160mm"
   viewBox="0 0 3840 2160"
   version="1.1"
   id="svg5458"
   inkscape:version="1.2.2 (732a01da63, 2022-12-09)"
   sodipodi:docname="amethyst shard.svg"
   xml:space="preserve"
   inkscape:export-filename="..\..\attacks\amethystshard.png"
   inkscape:export-xdpi="96.096664"
   inkscape:export-ydpi="96.096664"
   xmlns:inkscape="http://www.inkscape.org/namespaces/inkscape"
   xmlns:sodipodi="http://sodipodi.sourceforge.net/DTD/sodipodi-0.dtd"
   xmlns="http://www.w3.org/2000/svg"
   xmlns:svg="http://www.w3.org/2000/svg"><sodipodi:namedview
     id="namedview5460"
     pagecolor="#ffffff"
     bordercolor="#000000"
     borderopacity="0.25"
     inkscape:showpageshadow="2"
     inkscape:pageopacity="0.0"
     inkscape:pagecheckerboard="0"
     inkscape:deskcolor="#d1d1d1"
     inkscape:document-units="mm"
     showgrid="false"
     inkscape:zoom="0.08"
     inkscape:cx="7931.25"
     inkscape:cy="4062.5"
     inkscape:window-width="1920"
     inkscape:window-height="986"
     inkscape:window-x="-11"
     inkscape:window-y="-11"
     inkscape:window-maximized="1"
     inkscape:current-layer="layer1" /><defs
     id="defs5455" /><g
     inkscape:label="Layer 1"
     inkscape:groupmode="layer"
     id="layer1"><g
       id="g6901"
       transform="translate(-337.34375,-132.29167)"><path
         style="fill:#80b3ff;fill-opacity:1;stroke-width:40;paint-order:markers stroke fill"
         id="path6757"
         d="m 2139.1828,1169.9968 c 23.0592,-9.3508 47.0291,-15.9983 71.1439,-21.9627 17.3928,-3.7342 34.6762,-8.0731 52.2089,-11.1238 6.8748,-1.4383 13.8367,-2.1525 20.8414,-2.4609 0.4947,0.06 0.9971,0.074 1.484,0.1806 0.458,0.1 0.8833,0.3182 1.3374,0.4348 3.2031,0.8224 6.4194,1.5929 9.6335,2.3714 6.1908,1.4996 9.236,2.1338 15.4236,3.4922 2.268,0.4702 4.5333,0.9537 6.804,1.4108 4.4794,0.9016 6.2579,1.2186 10.5905,1.9815 1.1359,0.2001 2.2735,0.39 3.4096,0.5883 0.6894,0.1204 2.7211,0.6164 2.067,0.3676 -1.071,-0.4073 -2.2208,-0.5655 -3.3312,-0.8483 -19.8666,-19.313 -5.6295,-2.104 -11.5346,-15.1435 -0.2493,-0.5506 -0.1098,1.204 -0.171,1.8054 -0.4265,4.1918 -1.1046,8.1831 -2.0649,12.2868 -3.3819,9.535 -7.8918,18.6428 -12.4236,27.676 -4.4165,8.5153 -9.3098,16.7746 -13.6709,25.3201 -4.561,8.9372 -5.5416,11.3756 -9.7489,20.6241 -6.8365,16.0505 -12.9789,32.4426 -17.3992,49.3319 -3.1437,12.2639 -4.041,24.8728 -4.819,37.4609 -0.7531,14.6779 -1.0192,29.3747 -1.154,44.0695 -0.1275,7.4241 0.5602,14.8245 0.8397,22.239 1.2842,18.2117 7.4689,20.951 35.3634,17.5538 5.2161,-0.6353 8.9932,-22.1418 9.8905,-26.4715 4.4871,-25.6895 10.795,-50.9936 18.0537,-76.0262 5.9776,-19.6679 12.6807,-39.1168 17.445,-59.1294 1.0248,-5.3058 2.6647,-14.3842 0.4854,-19.5151 -1.6897,-3.9782 -2.5502,-9.8176 -6.672,-11.1181 -8.8437,-2.7904 -18.9962,-2.6193 -27.8196,0.235 -4.147,1.3416 -4.6774,7.3561 -7.0161,11.0341 -5.0539,16.3875 -6.7674,33.5117 -9.3818,50.3855 -2.4798,16.0049 -2.6292,15.9107 -5.7477,31.698 -5.6658,25.437 -13.8013,50.2465 -22.0743,74.9333 -2.961,9.7568 -6.6435,19.2887 -9.7079,29.0094 -1.6628,5.2749 -2.2239,7.7652 -3.566,13.0295 -2.8375,12.1598 -5.7814,24.2913 -7.9553,36.5909 -1.5438,9.2119 -1.9007,18.5489 -2.0507,27.8687 -0.065,8.6311 -0.018,17.2627 0,25.894 -0.05,6.969 -0.2779,13.9653 -0.8905,20.9106 -0.5329,2.9758 -1.2026,5.9301 -1.861,8.881 -0.4667,2.0919 0.083,1.6406 -0.7133,2.1861 -2.4399,3.8717 -4.3817,8.0341 -6.9286,11.841 -1.5755,1.6323 -2.3802,4.1394 -4.181,5.5605 -0.061,0.048 0.031,-0.1593 0.081,-0.2191 0.2188,-0.2632 0.4761,-0.4918 0.7142,-0.7377 1.3562,-0.9444 2.1315,-1.6405 3.719,-2.1533 0.9434,-0.3047 1.9807,-0.2927 2.8982,-0.6682 0.2831,-0.1159 -0.602,-0.1109 -0.9058,-0.1471 -0.4689,-0.056 -5.3516,-0.5498 -5.5473,-0.5697 -6.9067,-0.6109 -13.8198,-1.6491 -20.5935,-3.1438 -0.2376,-0.099 -0.9566,-0.3793 -0.7128,-0.2969 3.3419,1.1295 4.0781,1.1945 6.9237,4.1343 0.94,0.9711 1.4973,2.2512 2.2877,3.3474 0.076,0.1053 0.2142,0.3401 0.3027,0.2451 0.1657,-0.1778 0.091,-0.4775 0.1364,-0.7162 0.2393,-7.0599 1.0296,-14.0925 1.5445,-21.1376 0.7409,-6.8625 -0.057,-13.6838 -1.1807,-20.4468 -0.9366,-10.0904 -3.9436,-19.6861 -7.4318,-29.1408 -3.0158,-7.8927 -6.1996,-15.7217 -9.598,-23.4575 -1.1815,-2.8926 -2.8525,-5.5414 -4.2397,-8.3303 -0.1129,-0.2269 -0.6063,-1.0676 -0.2189,-1.2383 -1.0151,-7.8848 -1.0714,-15.8621 -1.1964,-23.8001 -0.1137,-10.1865 -0.1089,-20.3739 -0.099,-30.561 0.01,-6.8358 0.016,-13.6716 0.02,-20.5074 0.2469,-8.5156 -1.4157,-16.892 -2.8403,-25.2393 -1.2598,-7.5831 -1.5337,-15.2774 -1.7221,-22.9472 0.1689,-13.6816 -1.0051,-27.3045 -2.3105,-40.9064 -0.785,-10.1751 -4.1589,-19.8512 -6.5721,-29.6972 -1.2751,-6.2478 -1.5352,-12.6258 -2.3728,-18.9351 -1.2658,-9.3848 -4.8311,-18.2315 -8.4256,-26.9247 -2.659,-6.9815 -5.4772,-13.8994 -8.2175,-20.8479 -2.0209,-3.5289 -2.4358,-7.2748 -3.3314,-11.1569 -1.1715,-4.419 -1.9701,-8.8841 -2.4105,-13.4307 -2.859,-28.1394 -42.6541,-24.0962 -39.7951,4.0433 v 0 c 0.6518,6.2334 1.6778,12.3957 3.2498,18.4672 1.3508,5.7066 2.3345,11.5446 5.0957,16.8011 2.8413,7.1552 5.7061,14.3005 8.4761,21.4849 2.3008,5.4878 4.7631,11.0738 5.7259,16.9728 1.0968,7.6956 1.2292,15.5314 3.1693,23.105 1.9707,7.9496 4.7335,15.7673 5.5912,23.9406 1.2164,12.6667 2.3336,25.3485 2.1402,38.0912 0.2468,9.591 0.6699,19.2039 2.2814,28.6802 1.0461,6.1108 2.4467,12.2438 2.2683,18.4787 0,6.8302 -0.01,13.6604 -0.019,20.4906 -0.01,10.4126 -0.014,20.8256 0.1045,31.2377 0.1725,10.6408 0.2573,21.3665 2.151,31.8705 0.4625,1.7835 0.847,3.5891 1.3874,5.3505 1.2653,4.1243 3.6889,7.7343 5.4964,11.6123 3.0872,7.0099 5.9623,14.1119 8.709,21.2618 1.3524,3.6228 2.8286,7.2463 3.7268,11.019 0.5787,2.4306 0.8621,4.7239 1.2261,7.1949 0.178,1.2084 0.3549,2.4171 0.5324,3.6256 0.6154,3.635 1.2614,7.2327 0.7367,10.9369 -0.6265,8.6532 -1.7124,17.2956 -1.6028,25.9828 0.3121,4.0228 0.3346,7.9787 1.7902,11.8303 4.1101,10.8749 9.863,15.7544 20.9104,18.6399 8.206,1.7053 16.5103,3.1058 24.8646,3.8126 10.366,1.0533 18.3727,2.1571 27.7126,-4.1324 1.0761,-0.8676 2.2018,-1.6769 3.2281,-2.6027 3.9372,-3.5516 6.8008,-8.0607 9.8665,-12.3326 4.028,-6.2872 7.6772,-12.8639 10.8501,-19.6164 0.5639,-1.6577 1.1876,-3.2963 1.6916,-4.9732 0.3365,-1.1196 0.9194,-4.074 1.1958,-5.3451 0.8236,-3.7893 1.7291,-7.5702 2.085,-11.4428 0.6489,-8.088 1.0167,-16.2139 1.0287,-24.3274 -0.019,-8.391 -0.064,-16.7822 -0.01,-25.1731 0.1099,-7.2141 0.3099,-14.4466 1.4542,-21.5859 1.9678,-11.3273 4.7682,-22.4753 7.3317,-33.6778 0.7685,-3.0577 1.6711,-6.8457 2.6229,-9.8625 3.0968,-9.8159 6.8078,-19.4439 9.8046,-29.2946 8.8118,-26.3168 17.45,-52.772 23.392,-79.9101 1.1038,-5.6217 2.2929,-11.2273 3.3115,-16.8651 3.4635,-19.1709 5.3887,-38.5942 9.5291,-57.6448 -1.4101,1.4355 -2.2253,4.1376 -4.2305,4.3063 -23.1522,1.9478 -23.8843,4.0179 -30.3129,-11.2928 -0.2763,-0.6582 -0.059,-1.4366 0.059,-2.1405 0.019,-0.1123 0.1759,0.1446 0.2638,0.2168 -0.2145,1.2594 -0.429,2.5188 -0.6435,3.7782 -4.5325,19.3844 -11.2949,38.1329 -16.9391,57.203 -7.5254,26.0475 -14.135,52.3605 -18.8095,79.0841 -0.4727,2.3168 -0.948,4.6331 -1.4181,6.9505 -0.2037,1.0038 -1.5244,3.4608 -0.6033,3.0129 1.8481,-0.8985 1.9731,-4.8581 4.0198,-4.6741 42.2483,3.7989 27.7852,-2.0342 32.1038,12.55 0.2255,0.7618 -0.1373,-1.5828 -0.2059,-2.3742 -0.2587,-6.7886 -0.8764,-13.5637 -0.8127,-20.3582 0.1275,-14.0023 0.3766,-28.0066 1.0811,-41.9935 0.6064,-10.0346 1.1634,-20.1014 3.6208,-29.8922 3.7281,-14.6807 9.2986,-28.839 15.094,-42.8063 3.5841,-7.912 4.7526,-10.7425 8.6368,-18.3661 4.5032,-8.8387 9.5966,-17.3614 14.1199,-26.189 5.9875,-11.9532 11.991,-24.0347 15.7109,-36.9183 1.3076,-6.0745 2.4272,-12.0237 2.9243,-18.2231 0.3272,-4.0808 0.7518,-10.7228 -1.1467,-14.0144 -2.7132,-4.7043 -7.3267,-8.0179 -10.9901,-12.0269 -1.9112,-0.6339 -3.7986,-1.3444 -5.7336,-1.9017 -1.7756,-0.5114 -3.6407,-0.634 -5.4607,-0.9531 -5.2989,-0.9289 -10.5825,-1.9408 -15.8399,-3.0836 -5.286,-1.158 -8.8916,-1.9175 -14.1475,-3.1902 -7.9271,-1.9196 -15.8617,-4.3838 -24.1138,-4.1762 -8.7103,0.4048 -17.3795,1.2803 -25.9359,3.0208 -18.4352,3.2532 -36.6359,7.7021 -54.9187,11.6963 -26.0765,6.4692 -51.9876,13.7142 -76.9103,23.8661 -26.1086,10.8785 -10.724,47.8016 15.3846,36.9231 z" /><path
         style="fill:#80b3ff;fill-opacity:1;stroke-width:40;paint-order:markers stroke fill"
         id="path6755"
         d="m 2204.2774,774.78188 c -3.9573,3.82741 -6.1322,5.5173 -9.1679,10.586 -7.163,11.96026 -9.4254,25.60699 -11.9376,39.07603 -2.6198,15.43745 -3.7256,31.07732 -6.4102,46.50255 -2.7336,13.96209 -7.5154,27.421 -11.8142,40.95552 -4.7093,14.96631 -7.1814,30.45227 -9.5039,45.92537 -2.5166,17.01432 -6.6081,33.71069 -10.3446,50.47885 -3.1699,13.6996 -6.2516,27.4273 -10.3235,40.8923 -2.45,7.6802 -5.1136,15.2921 -9.5128,22.0859 -3.84,4.5124 -7.2875,9.2666 -10.0958,14.4843 -0.9676,2.2839 -2.4888,5.4507 -2.6177,7.9077 -0.324,6.1804 -0.07,13.7921 5.1965,18.3961 9.3561,8.1794 11.1737,7.0202 20.5099,6.957 23.8267,-3.2919 47.8063,-5.0258 71.7812,-6.802 28.1937,-1.7666 56.2783,-4.8071 84.3021,-8.3003 9.4005,-1.2203 18.8445,-2.0203 28.3187,-2.2947 7.6436,-0.149 15.3584,0.6659 22.759,2.608 -0.02,0.047 -0.012,0.1563 -0.06,0.1405 -19.5272,-6.3916 16.7975,-24.8239 23.1688,-31.4828 0.224,-0.2341 -0.3758,-0.5287 -0.5836,-0.7773 -0.9166,-1.0959 -1.859,-2.17 -2.7885,-3.255 -5.1147,-5.5021 -10.3073,-10.9369 -14.2633,-17.3505 -4.9854,-7.7756 -9.3769,-15.8927 -13.7006,-24.0463 -4.4545,-8.002 -7.1313,-16.7775 -10.1536,-25.3734 -4.5279,-13.92742 -11.2814,-26.99977 -17.5271,-40.2106 -4.1066,-8.75921 -8.7221,-17.29562 -12.4909,-26.21182 -2.0396,-4.82528 -2.4064,-6.11079 -4.1219,-11.00148 -3.8825,-10.84855 -6.9403,-21.95785 -10.3012,-32.97224 -3.1289,-10.68697 -6.2609,-21.37365 -9.3332,-32.07742 -2.1677,-7.868 -4.301,-15.74419 -6.5888,-23.57837 -1.7158,-5.37022 -3.0414,-10.83337 -4.8184,-16.18613 -1.7838,-4.72805 -3.551,-9.59321 -6.1563,-13.95433 -1.4232,-2.38218 -2.7753,-4.20645 -4.3329,-6.37387 -16.5112,-22.96472 -48.9882,0.38571 -32.477,23.35043 v 0 c 0.4397,0.61124 0.8373,1.25511 1.3191,1.83373 0.036,0.0432 0.1254,-0.10679 0.1574,-0.0606 1.6315,2.35273 2.4536,5.27248 3.5509,7.87924 1.6382,4.86037 2.7406,9.86181 4.3625,14.72972 2.2724,7.77269 4.3774,15.59089 6.5359,23.3957 3.1336,10.91719 6.328,21.81699 9.5223,32.71621 3.5327,11.57711 6.7564,23.25148 10.8536,34.64904 2.2683,6.36003 2.6577,7.75221 5.3258,14.00839 3.904,9.15432 8.5742,17.96232 12.8315,26.95173 4.4731,9.45951 2.2032,4.627 6.8063,14.49906 3.3749,7.15311 6.9401,14.25651 9.1485,21.88601 3.686,10.4753 7.1091,21.0978 12.5489,30.8408 4.806,9.0625 9.716,18.0693 15.2505,26.7149 5.1146,7.9568 11.0892,15.2206 17.6985,21.9934 0.7604,0.8839 1.5246,1.7645 2.281,2.6518 0.7853,0.921 1.392,3.5203 2.3439,2.7729 10.4848,-8.2329 20.746,-17.0489 29.0836,-27.4505 0.9,-1.1227 -8.6397,-5.7779 -8.788,-5.8425 -1.5061,-0.6562 -3.1016,-1.0844 -4.6524,-1.6265 -10.9876,-2.6533 -22.2848,-4.111 -33.6065,-3.772 -10.7276,0.3294 -21.425,1.1974 -32.07,2.584 -27.3617,3.4106 -54.7817,6.3877 -82.3102,8.1025 -24.4256,1.81 -48.8573,3.5806 -73.1328,6.9252 6.3716,0.629 7.3838,0.2052 14.3095,6.9451 3.8173,3.7149 5.4646,13.118 2.5301,17.759 1.8405,-4.2291 6.328,-7.2905 8.3956,-11.4832 2.5694,-4.1868 3.2037,-5.0007 5.3922,-9.4791 3.4963,-7.1544 5.9986,-14.7326 8.5015,-22.2737 4.3227,-14.4109 7.7158,-29.0658 11.0654,-43.7292 3.9356,-17.68467 8.2208,-35.29951 10.8592,-53.24498 2.0023,-13.38175 4.0384,-26.79192 8.0701,-39.74899 4.8506,-15.28162 10.1876,-30.49273 13.1134,-46.29499 2.5889,-15.25924 3.9257,-30.67759 6.3145,-45.96654 0.5049,-2.73346 2.1835,-12.0936 2.936,-15.23661 0.4267,-1.78176 1.0147,-3.52092 1.5162,-5.28307 0.2522,-0.88609 0.4268,-1.79697 0.7448,-2.66163 0.4648,-1.26357 0.8173,-1.58972 1.5684,-2.54754 22.0863,-17.66903 -2.9015,-48.90378 -24.9878,-31.23475 z" /><path
         style="fill:#aaccff;fill-opacity:1;stroke-width:40;paint-order:markers stroke fill"
         id="path6753"
         d="m 2385.3725,1142.7524 c 11.2611,-10.8692 21.4359,-22.8025 32.6147,-33.7488 9.8706,-9.5742 20.6179,-18.2313 31.3591,-26.8063 8.8282,-7.0663 16.8861,-15.0003 25.174,-22.6702 3.2975,-2.9934 6.4209,-6.1683 9.9017,-8.9537 -0.2765,0.4048 -0.3012,0.3531 0.4373,-0.047 0.9021,-0.4886 1.8129,-0.961 2.711,-1.4569 0.7806,-0.431 3.1151,-0.9376 2.3174,-1.3361 -9.5952,-4.7935 -19.8089,-8.2334 -29.7134,-12.3501 -0.1875,-1.7943 0.9025,-4.3302 -0.5626,-5.383 -1.1303,-0.8122 -1.0002,2.5979 -1.5115,3.8925 -0.8876,2.2473 -1.7664,4.4983 -2.685,6.7331 -3.5466,8.6285 -7.0257,17.2329 -10.2828,25.9778 -2.7978,8.3585 -5.4228,16.7865 -7.5983,25.3312 -1.5163,5.9556 -2.7933,11.9372 -4.4659,17.8528 -3.6501,10.3488 -6.6659,20.906 -10.2271,31.2823 -3.9411,10.7685 -6.6729,21.8784 -8.699,33.149 -2.6109,12.7057 -4.0592,25.6101 -6.4586,38.3529 -3.8859,19.9113 -9.3821,39.453 -14.778,58.9945 -8.3474,28.8131 -16.143,57.7729 -24.7226,86.5194 -7.2558,22.7667 -13.9648,45.7013 -19.782,68.8785 -3.4459,12.4012 -5.339,25.0935 -6.1873,37.9118 -0.4408,8.5523 -0.3323,17.1204 -0.2985,25.6805 0.223,8.0659 -0.1393,16.1139 -0.8822,24.1429 -1.0208,9.6298 -1.1225,19.3246 -1.2825,28.9981 -0.059,3.3565 0.1807,6.7641 -0.8544,10.0041 -0.099,0.3084 -0.343,0.5519 -0.4724,0.8487 1.0474,-2.7523 1.378,-3.2164 3.6225,-4.9076 1.9499,-0.9038 0.038,-0.5114 -0.8427,-0.6632 -6.6419,-1.1262 -13.3636,-2 -19.8972,-3.6779 -7.3256,-2.101 -14.7008,-3.9975 -22.1201,-5.736 -2.4702,-0.7286 -5.0569,-0.9103 -7.5517,-1.5169 -0.077,-0.019 -0.1651,-0.2458 -0.092,-0.2174 1.5251,0.5904 3.2574,0.8785 4.5113,1.9284 4.7912,4.0113 4.9619,5.4394 6.9403,10.0864 6.9495,-13.3488 15.4593,-25.7694 23.2997,-38.5898 6.2093,-10.3882 11.7077,-20.8739 16.1909,-32.1176 1.4088,-4.6753 4.0406,-9.1797 4.7336,-14.0752 1.0708,-7.5642 1.1886,-15.1733 -5.3613,-21.3105 -4.0719,-3.8152 -10.2097,-4.5063 -15.3145,-6.7595 -7.7479,1.6918 -10.1453,1.0089 -15.7008,5.4451 -6.9149,5.5217 -11.1701,13.627 -16.0003,20.8561 -3.1531,4.3693 -6.1113,8.8718 -9.0963,13.3555 -0.693,1.041 -3.1357,3.8059 -2.095,3.1124 15.4809,-10.3173 -32.267,-12.7659 33.0163,3.5191 0.3159,0.2946 0.7865,1.2845 0.9477,0.8838 0.5816,-1.4462 0.3005,-3.1058 0.5638,-4.6421 0.3347,-1.9526 0.7638,-3.889 1.2283,-5.8149 1.6548,-6.8608 3.8478,-13.5957 5.907,-20.3413 5.2979,-15.3626 7.3775,-31.4613 9.1423,-47.5285 0.2343,-1.9585 0.4659,-3.9173 0.7028,-5.8754 0.5105,-4.2197 0.5574,-5.1502 1.2982,-9.0751 0.7456,-3.9494 1.7513,-7.8548 2.6347,-11.7746 1.1126,-5.0952 1.9502,-10.2639 3.153,-15.3391 0.2701,-1.1395 1.3386,-4.0855 1.6539,-4.9884 3.2266,-9.1996 6.4521,-18.4002 9.7237,-27.5845 0.6756,-1.8732 1.3861,-3.7342 2.0269,-5.6196 1.5723,-4.6269 2.98,-9.3084 4.5342,-13.9413 2.4009,-7.1565 4.8987,-14.2625 7.1777,-21.46 2.9339,-9.3748 5.6553,-18.8154 7.9031,-28.3789 2.1527,-9.7696 2.7179,-19.7792 3.0694,-29.747 0.049,-11.117 1.5498,-22.1592 2.673,-33.2029 0.835,-9.8794 2.0167,-19.7245 3.1116,-29.577 0.653,-8.3276 3.0075,-16.3494 5.1022,-24.392 7.1286,-27.3712 -31.5802,-37.4526 -38.7088,-10.0813 v 0 c -2.5798,9.906 -5.3039,19.8192 -6.1498,30.0652 -1.1031,9.9737 -2.3064,19.9388 -3.1501,29.9395 -1.2123,11.9301 -2.7853,23.8615 -2.8543,35.8702 -0.2471,7.3681 -0.5669,14.7791 -2.0437,22.0224 -1.9906,8.5799 -4.4896,17.0282 -7.0966,25.4389 -2.2245,7.0692 -4.6951,14.0401 -7.051,21.0657 -1.4267,4.2545 -2.7004,8.5595 -4.1446,12.8081 -0.6578,1.9351 -1.3867,3.8452 -2.08,5.7678 -3.3424,9.3834 -6.6365,18.784 -9.9318,28.1836 -2.6444,7.9603 -4.4443,16.1104 -5.9406,24.3622 -2.3173,10.2965 -4.5771,20.595 -5.3745,31.1514 -1.4891,13.5909 -3.0627,27.238 -7.6392,40.216 -3.4234,11.2226 -7.1756,22.4972 -8.7098,34.1781 -0.4063,3.0929 -0.7931,6.2123 -0.7176,9.3308 0.09,3.716 0.8081,7.3902 1.2121,11.0853 10.4513,4.0376 20.2783,10.4208 31.354,12.1129 3.0186,0.4612 4.5767,-4.0599 6.6437,-6.3077 0.9282,-1.0093 1.536,-2.2718 2.2956,-3.4133 2.9447,-4.4253 5.8694,-8.8643 8.9785,-13.1778 4.49,-6.7333 2.2557,-3.3072 6.0479,-9.2424 0.4517,-0.7069 1.408,-1.2821 1.3571,-2.1194 -0.034,-0.5555 -0.9393,0.6001 -1.4339,0.8551 -3.7575,1.9369 -3.4204,1.1351 -9.6228,1.945 -4.1667,-2.2043 -9.2768,-3.1732 -12.5001,-6.6128 -6.1963,-6.6119 -4.2752,-9.4167 -3.4188,-15.4634 0.079,-0.5556 -0.1982,1.1076 -0.3651,1.6434 -0.6026,1.9343 -2.2269,6.1631 -2.8923,7.9333 -3.5376,9.0695 -8.1981,17.5821 -13.1273,25.9692 -10.1731,16.6855 -22.0294,32.6246 -28.3312,51.3275 -0.2777,5.1835 -1.9784,10.4874 -0.833,15.5503 2.3485,10.3805 7.6134,14.3187 15.9997,18.5245 3.4179,1.7142 7.4538,1.7197 11.0795,2.7021 7.2936,1.7046 14.5296,3.6098 21.7384,5.6446 9.4367,2.2419 19.0612,3.9603 28.7222,4.816 6.918,-0.024 13.7044,-0.7458 20.0034,-3.8607 6.8766,-3.8214 11.9406,-8.6586 15.1461,-16.0073 3.0101,-7.942 4.3744,-16.239 4.0637,-24.7499 0.1422,-8.674 0.1964,-17.3698 1.1208,-26.0043 0.8458,-9.2959 1.285,-18.6161 1.049,-27.9535 -0.03,-7.6481 -0.1344,-15.3028 0.2158,-22.9454 0.6502,-10.4129 2.2274,-20.7007 5.0699,-30.7627 5.6592,-22.607 12.2465,-44.9606 19.3121,-67.1662 8.6563,-29.011 16.5313,-58.2344 24.9507,-87.3133 5.6955,-20.6357 11.4707,-41.2781 15.5431,-62.3101 2.377,-12.8644 3.9363,-25.8644 6.5202,-38.6912 1.6167,-9.2669 3.9064,-18.3699 7.166,-27.2063 3.7771,-11.0957 7.0894,-22.3451 10.895,-33.4331 3.7036,-13.3348 6.3213,-26.9712 11.0357,-40.0224 3.1447,-8.4683 6.5374,-16.7788 9.9591,-25.1365 0.5523,-1.3492 5.2096,-12.9164 5.5699,-14.7046 0.8221,-4.0803 0.9262,-8.273 1.3893,-12.4095 -10.0575,-4.9666 -20.1004,-9.9628 -30.1724,-14.9 -0.8257,-0.4048 -1.616,0.8782 -2.4257,1.314 -2.7545,1.4828 -5.4674,3.0644 -7.9468,4.9826 -4.0248,3.3521 -7.8613,6.9034 -11.6689,10.4979 -7.5604,7.0176 -14.921,14.2642 -22.9524,20.7574 -11.8089,9.4449 -23.614,18.9843 -34.4475,29.5471 -10.7924,10.6668 -20.824,22.0699 -31.5844,32.7701 -20.8499,19.1124 6.1791,48.5985 27.029,29.4862 z" /><path
         style="fill:#aaccff;fill-opacity:1;stroke-width:40;paint-order:markers stroke fill"
         id="path6751"
         d="m 2240.429,783.53771 c 5.051,4.78867 9.8632,9.79916 13.5674,15.72625 2.2423,3.58775 3.5026,6.28105 5.4338,10.07544 0.9478,1.89463 1.8922,3.79092 2.8433,5.68388 2.2339,4.44625 2.5861,4.94247 4.4202,9.12231 1.5621,3.56023 2.9539,7.19817 4.4671,10.77968 2.1685,5.56561 3.2891,11.50215 4.7324,17.29438 1.5775,6.10172 2.743,12.28405 3.7881,18.49509 1.5899,11.23603 4.9975,22.11176 8.8967,32.73565 2.4563,6.15702 4.8737,12.32615 7.4663,18.42725 2.9723,7.6409 5.6663,15.3891 8.5443,23.06802 4.2618,10.97798 8.3441,22.02002 12.8215,32.91305 3.4639,8.01886 6.5528,16.17827 9.041,24.55119 3.2173,11.3015 7.2283,22.3542 10.3346,33.6886 2.9046,10.3647 6.2295,20.6023 9.965,30.6952 1.5353,3.9696 3.3241,7.8274 5.0812,11.6999 0.9478,2.0888 1.3865,3.4117 2.6513,5.5275 0.9041,1.5124 1.9585,2.9296 2.9378,4.3944 1.6969,1.6587 3.2243,3.5106 5.0906,4.9762 7.114,5.5865 16.8528,7.7161 25.5918,5.1771 2.7499,-0.799 5.1786,-2.4461 7.7679,-3.6692 2.2862,-1.7991 4.6933,-3.4544 6.8585,-5.3974 8.693,-7.8009 15.6353,-17.3079 22.33,-26.7973 4.495,-6.3714 8.8378,-12.849 13.3118,-19.2352 5.9945,-9.1068 13.1102,-17.1982 21.9846,-23.5288 5.5932,-3.5702 11.2104,-7.1069 16.6974,-10.84 7.6157,-5.4643 10.3445,-9.99644 11.2872,-21.44401 0.5711,-6.93496 -6.5531,-14.91514 -10.7241,-19.85404 -7.5894,-8.31008 -16.8371,-14.91355 -26.1708,-21.11592 -8.3824,-5.01994 -14.6555,-12.46044 -21.3716,-19.38509 -8.6617,-8.7571 -16.5868,-18.18921 -24.7935,-27.36236 -1.2586,-1.42134 -2.5284,-2.83292 -3.776,-4.264 -2.7975,-3.20887 -3.8337,-4.58481 -6.7595,-7.74674 -4.4735,-4.83438 -9.24,-9.39646 -13.9381,-14.00878 -9.3032,-8.18005 -16.4936,-18.24601 -24.1919,-27.84978 -8.3397,-10.54164 -17.4664,-20.40636 -26.9421,-29.92445 -5.5824,-5.7154 -11.5983,-10.97815 -17.4536,-16.40666 -4.1402,-3.57455 -7.7711,-7.53028 -11.0721,-11.86796 -1.4945,-2.32455 -3.3034,-4.43072 -5.0703,-6.54984 -1.5898,-1.90688 -1.2453,-1.05442 -1.6091,-2.05084 -16.3687,-23.06656 -48.9898,0.0822 -32.6211,23.14879 v 0 c 2.4479,3.30954 5.207,6.3459 7.524,9.74712 4.6996,6.1259 9.8579,11.79806 15.6582,16.91015 5.4649,5.06339 11.0821,9.96958 16.2995,15.29311 8.4708,8.50527 16.6465,17.30409 24.0901,26.73612 8.6974,10.82381 16.9154,22.09461 27.3677,31.35966 4.0497,3.97459 8.2029,7.88625 12.0683,12.04457 2.4403,2.6253 4.3223,4.95318 6.7055,7.68591 1.295,1.48484 2.6127,2.94965 3.919,4.42449 8.5708,9.56577 16.8407,19.40867 25.8891,28.5377 4.2685,4.39618 8.3677,9.02218 12.8517,13.20154 4.6838,4.36562 9.8724,8.1698 15.1931,11.71239 3.2613,2.13153 6.3965,4.34253 9.4984,6.70007 1.8849,1.43251 3.8607,2.75722 5.6273,4.33329 0.932,0.83151 1.7627,1.76996 2.6441,2.65491 5.0237,5.79729 0.3182,0.4399 1.2348,-3.62228 1.0695,-4.73924 3.3398,-9.13873 5.4103,-13.53389 0,-0.003 3.1075,-2.48724 0.6733,-0.53951 -5.8261,3.99577 -11.8778,7.64612 -17.745,11.58002 -4.1348,3.06274 -5.3831,3.85056 -9.3507,7.3955 -8.3814,7.48861 -15.4284,16.24931 -21.7973,25.48241 -9.5523,13.6417 -18.3052,28.0436 -30.0798,39.9362 6.527,-1.5733 10.254,-1.1326 14.1164,4.2584 0.1056,0.2768 0.5558,1.0057 0.3168,0.8305 -0.3171,-0.2323 -0.4142,-0.6701 -0.5827,-1.0253 -0.4611,-0.9725 -0.8589,-1.9739 -1.3043,-2.9536 -1.3198,-2.9027 -2.6604,-5.7955 -3.8475,-8.7573 -3.3851,-8.9733 -6.2462,-18.1326 -8.8825,-27.3523 -3.2249,-11.6238 -7.2313,-22.999 -10.5921,-34.58122 -2.9195,-9.60456 -6.3434,-19.02997 -10.3511,-28.23871 -4.3266,-10.50457 -8.2415,-21.16471 -12.364,-31.74977 -3.0865,-8.20962 -5.934,-16.50833 -9.1793,-24.65562 -2.3499,-5.52992 -4.5372,-11.12255 -6.7783,-16.69761 -3.1084,-8.24122 -5.7424,-16.73225 -6.9562,-25.4761 -1.2232,-7.23273 -2.6012,-14.43273 -4.4249,-21.54168 -1.9575,-7.7982 -3.5531,-15.75816 -6.7038,-23.18907 -4.0628,-9.57117 -7.9743,-19.19975 -13.0133,-28.32253 -3.0989,-5.95318 -4.5446,-9.08468 -8.2742,-14.76412 -5.3642,-8.16848 -11.9612,-15.33872 -19.0606,-22.01672 -20.7265,-19.24606 -47.9445,10.06568 -27.218,29.31176 z" /><path
         style="fill:#aaccff;fill-opacity:1;stroke-width:40;paint-order:markers stroke fill"
         id="path6749"
         d="m 1947.4164,1000.6974 c 2.4662,2.2813 4.874,4.6275 7.3987,6.8439 1.0408,0.9137 18.1625,15.2024 18.7481,15.6971 8.3503,7.0559 16.5734,14.1838 24.516,21.6937 9.8316,9.6405 19.0789,19.8452 28.8091,29.5851 8.5857,8.0926 16.4787,16.8952 24.4009,25.6299 6.9571,7.4186 16.3824,21.2559 28.1275,20.3018 6.3717,-0.5176 11.7967,-4.9301 17.6951,-7.3951 2.0585,-3.4484 4.4962,-6.6971 6.1756,-10.3452 1.2397,-2.693 4.1736,-14.5471 4.9607,-17.5907 1.7785,-6.8764 3.6968,-13.7177 5.3619,-20.6225 1.0648,-4.4153 1.9924,-8.8626 2.9886,-13.2939 3.5315,-19.7645 9.1939,-39.0485 13.5238,-58.63481 2.8282,-12.79382 3.027,-14.7565 5.2228,-27.38554 2.6141,-18.39108 6.4495,-36.54975 11.2108,-54.49459 0.6469,-2.38974 1.298,-4.77832 1.9405,-7.1692 1.608,-5.98287 1.781,-7.07644 3.6239,-12.67622 2.0989,-6.37743 4.6221,-12.59953 7.096,-18.8369 0.9935,-2.4556 1.9437,-4.92919 2.9806,-7.36682 2.0253,-4.76131 4.2317,-9.44412 6.2681,-14.20072 3.2285,-7.54115 6.3088,-15.13945 9.3446,-22.75964 3.8087,-8.99218 6.5579,-18.44598 11.1027,-27.115 3.2008,-5.41719 6.2337,-10.88091 8.6595,-16.69246 3.167,-8.95895 4.5528,-21.26475 -5.9377,-27.80144 -6.3927,-3.98332 -14.9599,-2.90263 -22.4727,-2.36286 -2.994,0.21511 -12.4457,7.95724 -14.7326,9.71225 -8.3046,7.39949 -16.9231,14.47969 -24.9445,22.19367 -5.5273,5.31545 -7.5131,7.57949 -12.7254,13.14498 -9.783,10.33685 -17.7477,22.19195 -27.2237,32.78611 -5.56,5.82173 -11.7372,10.9851 -17.7559,16.31481 -6.5136,6.02147 -13.7899,11.08022 -20.8289,16.44116 -8.0034,6.61871 -16.2184,12.97752 -24.0263,19.82668 -11.4897,10.70832 -21.8118,22.57645 -32.1894,34.34088 -9.3652,10.59365 -17.2835,22.31276 -25.8821,33.50456 -4.3966,5.31593 -8.8524,10.58005 -13.3511,15.80846 -6.2349,6.94671 -8.9137,15.84809 -6.5156,25.08564 1.1415,4.39717 3.0697,7.3717 5.2118,11.1151 4.8051,7.2093 6.7902,15.8364 8.2332,24.2694 0.213,1.9505 0.5304,3.8924 0.6389,5.8515 0.2137,3.86 -0.097,10.1329 -0.296,13.8132 -0.3917,7.2613 -1.1112,14.4438 -1.9938,21.6583 -0.8767,8.8031 -2.6375,17.4764 -3.7669,26.2422 -0.997,9.1158 1.9704,17.7787 4.4892,26.3772 2.0343,6.9449 1.651,5.7336 3.4392,12.9657 2.8699,12.3755 4.1021,25.0284 5.3119,37.6481 0.5959,9.9326 1.735,19.816 3.3643,29.6291 1.0763,9.8161 3.0156,19.4883 4.768,29.1969 1.726,10.9821 5.2824,21.5344 7.9657,32.2858 2.8001,10.0959 4.7492,20.3599 6.3032,30.7119 1.0325,7.2146 1.5667,14.499 2.7258,21.696 0.7399,4.5938 1.4683,7.9168 2.3976,12.4593 1.9045,10.7902 5.9706,20.9621 9.2601,31.3538 2.9324,10.7389 7.177,21.0429 9.7351,31.8837 1.9421,9.6024 3.4126,19.2812 4.8712,28.9652 2.8607,14.6576 6.3769,29.1721 9.7667,43.7132 2.7027,10.7498 3.9249,21.7236 5.1121,32.7112 0.8521,8.9971 1.6216,17.9737 3.2134,26.8757 1.8765,10.7199 6.6079,20.5511 10.7186,30.5277 3.2102,8.1193 8.4565,14.0635 16.6284,17.576 4.2135,1.8111 7.4504,1.961 11.8505,2.5416 6.6672,0.8985 13.2631,-0.3191 19.8468,-1.1886 3.4153,-0.4511 5.3525,-0.6097 8.8143,-0.9482 8.2738,-0.613 16.549,-1.2483 24.8361,-1.654 5.1192,-0.1408 10.2396,-0.4273 15.3616,-0.4628 2.3371,-0.016 4.2183,0.2601 6.6108,-0.1073 2.2053,-0.3387 4.3587,-0.9556 6.538,-1.4335 4.4642,-4.8007 10.1346,-8.7136 13.3927,-14.4023 1.7081,-2.9823 0.7985,-6.8469 0.7456,-10.2833 -0.03,-1.9407 -0.6008,-3.8367 -0.9924,-5.7378 -1.1601,-5.6331 -2.8719,-11.1698 -4.3755,-16.717 -2.8871,-9.8213 -5.4261,-19.7186 -7.4948,-29.7433 -2.4167,-13.6176 -4.5007,-27.2834 -7.1736,-40.8567 -3.5238,-16.5733 -7.8837,-32.948 -11.7273,-49.4484 -3.1709,-15.4856 -8.4765,-30.5334 -11.4515,-46.0521 -0.4678,-2.4403 -0.8032,-4.9042 -1.2047,-7.3562 -1.9782,-15.6906 -2.6823,-31.5179 -3.1847,-47.3154 -0.052,-15.3407 -0.9301,-30.6482 -1.6776,-45.9647 -0.2909,-14.6071 -1.5469,-29.1558 -2.8226,-43.7017 -0.8338,-14.038 -3.5854,-27.7794 -7.2206,-41.3282 -2.8116,-10.6919 -6.9579,-20.938 -11.2875,-31.0852 -4.0893,-9.3181 -10.8108,-16.9733 -19.0412,-22.8768 -1.6604,-1.191 -3.4137,-2.247 -5.1205,-3.3706 -6.905,-4.1242 -13.6946,-8.4885 -19.5569,-14.0422 -1.5249,-1.4447 -2.9443,-2.9967 -4.4165,-4.4951 -1.7323,-1.8449 -3.4728,-3.6823 -5.197,-5.5349 -8.4553,-9.0844 -2.9596,-3.3178 -11.5222,-12.3577 -3.9795,-4.2014 -8.0038,-8.2777 -11.6403,-12.7796 -4.2228,-6.1444 -8.9847,-11.8195 -14.236,-17.1001 -20.0455,-19.9544 -48.2653,8.3942 -28.2198,28.3486 v 0 c 4.4387,4.3408 7.9115,9.1664 11.5777,14.1787 9.7379,11.6857 20.7739,22.2236 30.9488,33.5248 2.1937,2.1686 4.3167,4.4109 6.5808,6.5057 7.2956,6.7498 15.545,12.3234 24.0579,17.4033 3.5702,2.1763 7.2627,4.3264 8.9997,8.3068 3.6046,8.4307 7.1237,16.9191 9.4578,25.8085 3.0718,11.2684 5.3428,22.6951 5.9887,34.3888 1.2308,14.0327 2.4556,28.0651 2.7173,42.1579 0.7374,15.0931 1.6067,30.1763 1.6504,45.2937 0.5663,17.5794 1.3651,35.1958 3.7133,52.6401 0.5322,3.1253 0.9874,6.2646 1.5965,9.3757 3.07,15.682 8.2628,30.8741 11.555,46.5085 3.7457,16.0583 7.9642,32.0008 11.4414,48.1201 2.7152,13.6946 4.7331,27.5008 7.2492,41.2301 2.2518,10.8044 4.9326,21.4939 8.0539,32.0819 0.9379,3.4604 1.9144,6.9104 2.8308,10.3766 0.3207,1.213 0.5874,2.4399 0.9146,3.6512 0.093,0.3457 0.2279,1.3549 0.3461,1.0169 4.3964,-12.5705 -6.6951,1.8591 13.4726,-16.4394 1.1405,-0.1429 2.2815,-0.2832 3.4217,-0.4288 0.3055,-0.039 -0.6094,0.1059 -0.9173,0.109 -1.4571,0.014 -2.9139,-0.066 -4.371,-0.056 -1.1068,0.01 -9.804,0.2608 -10.4383,0.2816 -1.9731,0.065 -3.9455,0.1455 -5.9183,0.2183 -8.9354,0.4497 -17.8604,1.11 -26.7802,1.7982 -4.7445,0.4722 -5.966,0.5552 -10.6757,1.176 -2.0143,0.2655 -5.18,1.0588 -7.3105,1.1064 -0.8146,0.018 -1.6279,-0.071 -2.4418,-0.1069 -0.3424,0.01 -1.0367,-0.322 -1.027,0.02 0.011,0.4051 0.7153,0.3855 1.045,0.621 0.8702,0.6218 1.8116,1.1735 2.5498,1.9474 1.9278,2.0212 3.741,6.1541 1.6269,1.8079 -3.0448,-7.3736 -6.7163,-14.5915 -8.3448,-22.4492 -1.4883,-7.9345 -1.9245,-15.9826 -2.7964,-24.0006 -1.3629,-12.5955 -2.8669,-25.166 -5.9248,-37.4924 -3.1494,-13.5097 -6.3843,-26.9979 -9.1683,-40.5893 -1.6336,-10.8458 -3.2908,-21.6873 -5.5496,-32.4257 -0.5515,-2.2363 -1.047,-4.4871 -1.6545,-6.7088 -2.5761,-9.4205 -6.4256,-18.4444 -8.8481,-27.9134 -2.898,-9.0309 -6.4589,-17.8715 -8.1854,-27.2418 -0.5991,-2.9063 -1.4814,-7.0232 -1.972,-9.999 -1.2073,-7.3224 -1.67,-14.7521 -2.7831,-22.0886 -1.769,-11.6404 -3.9564,-23.1972 -7.0794,-34.5592 -2.5212,-9.8436 -5.7023,-19.5356 -7.3794,-29.5824 -0.8646,-4.7703 -1.8539,-9.5215 -2.6571,-14.3025 -0.9416,-5.6049 -0.4532,-3.2213 -1.2916,-9.4485 -0.2213,-1.6437 -0.4854,-3.2814 -0.7281,-4.9221 -1.4998,-8.8911 -2.4462,-17.8569 -2.9999,-26.8572 -1.4039,-14.5871 -2.9158,-29.201 -6.3138,-43.4882 -1.6826,-6.7178 -3.534,-13.3272 -5.5147,-19.9598 -0.3282,-1.0987 -0.5707,-2.2245 -0.9559,-3.3046 -0.082,-0.2289 -0.3376,-0.3632 -0.432,-0.5871 -0.1067,-0.253 -0.1044,-0.5392 -0.1566,-0.8088 1.0862,-8.8384 2.9761,-17.5689 3.7924,-26.4478 2.1195,-17.6359 3.8777,-35.6068 1.2972,-53.2849 -0.4767,-2.5308 -0.8704,-5.0787 -1.4302,-7.5924 -2.309,-10.3673 -5.9244,-20.66723 -11.6035,-29.67484 -0.3687,-0.60775 -0.4134,-1.98332 -1.106,-1.82322 -0.6588,0.15227 0.3078,1.32377 0.346,1.99888 0.066,1.16927 0.2788,2.38471 -0.034,3.51324 -2.2085,7.96134 -4.9157,9.94918 -2.1285,6.33804 4.977,-5.79204 9.9253,-11.60875 14.75,-17.52968 8.0394,-10.47818 15.458,-21.43373 24.1515,-31.40254 9.268,-10.50666 18.4659,-21.1168 28.6274,-30.78192 7.0871,-6.27211 14.6432,-11.98346 21.8884,-18.07141 7.7749,-5.97593 15.8488,-11.57722 23.0516,-18.27128 7.212,-6.3877 14.5935,-12.60607 21.1425,-19.69656 9.1919,-10.40255 17.1918,-21.77397 26.5433,-32.03924 4.1302,-4.43178 6.3056,-6.88364 10.6534,-11.08401 7.2398,-6.99426 15.0692,-13.35542 22.5164,-20.1222 10.3863,-8.55093 -2.1809,1.17454 -13.0852,-8.0273 -4.163,-3.51303 -4.7524,-9.86509 -6.2253,-15.1094 -0.2875,-1.02338 1.4395,-5.64501 0.7472,-3.10017 -0.3507,0.87024 -0.6004,1.78466 -1.0236,2.62202 -1.9089,3.7769 -4.3639,7.28009 -6.2518,11.07117 -4.992,9.8651 -8.6225,20.28928 -12.6687,30.56318 -2.8774,7.22996 -5.798,14.43922 -8.859,21.59392 -2.1722,5.07714 -4.5127,10.08131 -6.6724,15.16377 -1.0731,2.52553 -2.0578,5.08778 -3.0866,7.63167 -2.8624,7.22993 -5.7493,14.44562 -8.1516,21.84609 -2.0706,6.37818 -2.2791,7.57791 -3.9923,13.95296 -0.6616,2.46169 -1.3316,4.92109 -1.9974,7.38164 -5.0401,19.07543 -9.1665,38.3658 -11.9568,57.90909 -1.9656,11.4106 -2.1847,13.44218 -4.7473,25.05321 -4.3538,19.72659 -10.0598,39.14799 -13.6195,59.05179 -0.8857,3.9756 -1.7023,7.9672 -2.6571,11.9267 -2.2902,9.497 -4.9952,18.8987 -7.3561,28.3794 -0.3237,1.2995 -1.946,3.0601 -0.9131,3.9126 0.9359,0.7723 1.8087,-1.6181 2.7131,-2.4271 17.4386,-4.5929 9.2356,-5.6866 22.6727,0.8328 0.3121,0.1514 -0.6161,-0.3364 -0.8663,-0.5766 -0.9209,-0.8841 -1.7683,-1.8419 -2.6319,-2.7819 -2.5672,-2.7942 -5.039,-5.6752 -7.6143,-8.462 -8.3585,-9.2073 -16.692,-18.4796 -25.7319,-27.0275 -10.0172,-10.0169 -19.4941,-20.5569 -29.6686,-30.4196 -15.3174,-14.3915 -31.5553,-27.73642 -47.7245,-41.15466 -18.4071,-21.47501 -48.7774,4.55663 -30.3702,26.03166 z" /><path
         style="fill:#000000;fill-opacity:1;stroke-width:40;paint-order:markers stroke fill"
         id="path6434"
         d="m 2055.1398,1603.5397 c -0.023,0.083 -0.1542,0.2556 -0.069,0.2476 2.4724,-0.2333 4.8847,-0.9028 7.3386,-1.284 5.6093,-0.8713 11.2485,-1.5308 16.8887,-2.1595 12.911,-1.7344 25.8773,-3.0207 38.8885,-3.66 10.753,-0.5359 21.5062,0.4868 32.2324,1.1583 11.6854,0.6337 23.378,1.0729 35.0759,1.401 11.063,0.2832 22.126,0.3704 33.1846,0.7991 9.1454,0.3141 18.2719,0.586 27.3882,1.3796 12.4639,1.1703 24.9279,2.3497 37.4126,3.2802 7.7914,0.6863 15.5818,0.8995 23.3912,0.5246 6.4273,-0.4288 12.8623,-0.6272 19.3017,-0.7333 6.7134,-0.091 13.4275,-0.091 20.1414,-0.094 5.552,0 11.104,0 16.656,0.01 4.6484,-0.1063 9.4752,0.4128 13.9979,-0.9965 2.0508,-0.6391 3.9844,-1.6069 5.9766,-2.4103 1.9857,-1.5443 4.1657,-2.8669 5.9572,-4.6327 6.1929,-6.1042 7.9942,-15.1465 9.7479,-23.2963 1.6025,-8.4842 2.1251,-17.1113 3.1077,-25.6745 0.5231,-4.5593 1.1778,-9.1025 1.7588,-13.6547 1.6701,-14.1774 3.861,-28.2791 6.0128,-42.3882 1.9107,-9.6357 2.6684,-19.4246 3.7522,-29.1684 0.5714,-5.441 2.1106,-10.7273 3.2713,-16.0647 1.7712,-8.439 3.1537,-16.9517 4.4632,-25.4724 1.0488,-6.9538 2.574,-13.8147 3.8471,-20.7273 1.3697,-8.0186 2.2485,-16.1038 4.1998,-24.0089 2.785,-9.19 4.7378,-18.5908 6.4393,-28.0322 1.6619,-10.9695 3.069,-21.977 4.7226,-32.9472 1.0285,-5.8927 2.2607,-11.7551 3.684,-17.5653 1.5061,-5.8951 2.9905,-11.7897 4.1506,-17.7677 1.231,-5.1824 2.0386,-10.4474 2.814,-15.713 0.8272,-5.5866 1.793,-11.136 3.3177,-16.576 1.9066,-5.7432 4.4113,-11.2595 6.5321,-16.9308 2.7629,-7.5514 5.1622,-15.2174 7.5206,-22.9008 1.694,-6.3693 3.6184,-12.6734 5.5084,-18.9866 2.362,-7.6019 4.4859,-15.2746 6.3689,-23.0087 1.1863,-5.4642 3.0954,-10.6853 4.9646,-15.9382 1.807,-5.2322 4.1102,-10.2683 6.1834,-15.3968 2.3787,-6.3235 4.8466,-12.6126 7.2581,-18.9236 1.9764,-5.7555 4.2829,-11.386 6.4442,-17.0724 1.7584,-4.3077 2.7756,-8.8874 4.5824,-13.1755 0.7025,-1.6673 1.5291,-3.2797 2.2738,-4.9286 2.244,-5.1782 4.8315,-10.1923 7.1263,-15.3448 2.1292,-5.1539 4.1687,-10.3435 6.0784,-15.583 1.4123,-4.1438 2.9264,-8.2505 4.4952,-12.3367 0.755,-1.592 1.368,-3.2435 1.994,-4.8886 9.8736,-26.5049 -27.61,-40.46834 -37.4836,-13.9634 v 0 c -0.5346,1.5409 -1.25,3.0076 -1.8552,4.5214 -1.6483,4.2979 -3.2457,8.6152 -4.7328,12.972 -1.6203,4.4473 -3.3476,8.8516 -5.137,13.2333 -2.1325,5.0506 -4.8454,9.852 -6.9396,14.9253 -0.7658,1.6955 -2.7363,6.0326 -3.294,7.405 -1.7242,4.243 -2.8863,8.6793 -4.5015,12.9607 -2.1497,5.6641 -4.4549,11.2691 -6.4177,17.0029 -2.3202,6.0775 -4.7053,12.1299 -6.9831,18.2235 -2.2768,5.6504 -4.8182,11.196 -6.7801,16.9695 -2.329,6.5573 -4.6173,13.1201 -6.1515,19.9211 -1.6965,7.0501 -3.6704,14.0291 -5.8135,20.9562 -1.8636,6.2279 -3.7752,12.4443 -5.4311,18.7314 -2.1206,6.9243 -4.272,13.8338 -6.7535,20.6411 -2.5217,6.7749 -5.622,13.331 -7.6198,20.292 -1.9186,7.0448 -3.3057,14.1944 -4.335,21.4238 -0.675,4.6849 -1.4162,9.3579 -2.5192,13.9648 -1.0066,5.3621 -2.4216,10.6237 -3.749,15.9107 -1.6615,6.9568 -3.1938,13.9503 -4.3566,21.0095 -1.5849,10.6023 -2.9858,21.2322 -4.5403,31.8392 -1.536,8.6651 -3.4035,17.2598 -5.9477,25.6906 -2.0538,8.6394 -3.3186,17.3952 -4.6584,26.1681 -1.3368,7.2992 -2.9499,14.5438 -4.0426,21.8878 -1.1812,7.7119 -2.4277,15.4165 -4.0163,23.0567 -1.4497,6.6982 -3.3247,13.3339 -3.9421,20.1823 -0.9982,9.1912 -1.7225,18.4193 -3.5341,27.5043 -2.1991,14.4304 -4.4355,28.8538 -6.148,43.3533 -1.5354,12.0325 -2.7508,24.095 -4.3234,36.1202 -0.6223,3.0319 -0.3648,1.9401 -1.1226,4.9707 -0.1333,0.5331 -0.9527,1.6775 -0.4091,1.5971 0.6747,-0.1 0.7003,-1.1763 1.1321,-1.7041 1.8983,-2.32 2.462,-2.2898 5.3338,-4.1293 1.1366,-0.3573 2.2528,-0.787 3.4097,-1.0717 0.4838,-0.1191 1.9918,-0.071 1.4938,-0.053 -2.1201,0.075 -4.2478,-0.063 -6.3684,0 -5.5615,0 -11.123,-0.01 -16.6845,-0.01 -6.9305,0 -13.8612,0 -20.7911,0.099 -6.8768,0.1151 -13.7499,0.3238 -20.614,0.7767 -6.16,0.317 -12.298,0.075 -18.4464,-0.4633 -12.3221,-0.9151 -24.6228,-2.0899 -36.9245,-3.2409 -9.7531,-0.8429 -19.5158,-1.1799 -29.299,-1.4993 -11.2004,-0.432 -22.4047,-0.5366 -33.6097,-0.8133 -11.2381,-0.3144 -22.4709,-0.7331 -33.697,-1.3385 -12.2244,-0.7651 -24.478,-1.856 -36.7331,-1.1864 -13.831,0.7045 -27.6218,2.0021 -41.3475,3.8594 -11.9042,1.3436 -23.9915,2.5539 -35.4545,6.1807 -25.9974,11.1417 -10.2406,47.9075 15.7568,36.7658 z" /><path
         style="fill:#000000;fill-opacity:1;stroke-width:40;paint-order:markers stroke fill"
         id="path6438"
         d="m 2064.5893,1570.4192 c -1.5716,-4.2456 -2.4672,-8.7135 -3.1632,-13.1769 -1.1776,-9.8965 -3.5713,-19.5902 -5.5365,-29.348 -1.2137,-6.1403 -2.0716,-12.3396 -2.4083,-18.5892 -0.031,-5.5226 -0.3213,-11.0303 -0.6695,-16.541 -0.3211,-5.3446 -0.4206,-10.6832 -0.9417,-16.0117 -0.8245,-7.4801 -1.4868,-14.9713 -2.5976,-22.4165 -0.9342,-6.5116 -2.2627,-12.948 -3.8423,-19.3303 -1.6489,-6.3484 -3.1267,-12.7405 -4.6788,-19.1137 -0.8909,-5.8622 -2.4174,-11.5835 -3.6871,-17.3653 -1.4955,-5.7988 -1.7846,-11.7976 -2.3045,-17.7357 -0.9052,-9.1946 -0.9138,-18.4384 -1.2691,-27.6616 -0.2462,-13.2263 -2.9314,-26.2179 -5.4859,-39.146 -1.9163,-10.7116 -4.1684,-21.3396 -6.9037,-31.8712 -2.56,-8.4202 -4.3246,-17.043 -6.5747,-25.5413 -2.2434,-8.5196 -4.5671,-17.0049 -7.0366,-25.4612 -2.2023,-7.7849 -3.7643,-15.7286 -5.8488,-23.5429 -1.6079,-5.9077 -2.9416,-11.888 -4.1463,-17.8907 -1.0997,-6.0234 -2.5442,-11.9769 -3.7394,-17.9822 -1.0352,-5.7382 -1.7226,-11.5277 -2.402,-17.3172 -1.0349,-8.6009 -2.5575,-17.1313 -4.2438,-25.6251 -0.996,-6.5751 -2.433,-13.0315 -4.3013,-19.412 -1.5035,-5.5625 -3.3255,-11.035 -4.7918,-16.6077 -1.0629,-5.8531 -2.0829,-11.7217 -3.0708,-17.5908 -0.6444,-6.2364 -1.8383,-12.3931 -2.7988,-18.5837 -1.3581,-7.9096 -2.2845,-15.8643 -3.9428,-23.7216 -1.3226,-6.3546 -2.9096,-12.6505 -4.294,-18.9907 -1.0289,-5.2493 -2.5094,-10.3838 -4.0213,-15.50902 -8.0119,-27.1258 -46.3736,-15.79531 -38.3617,11.33052 v 0 c 1.2499,4.226 2.5037,8.4481 3.3202,12.7861 1.3907,6.2684 2.9344,12.5019 4.2497,18.7874 1.5674,7.0942 2.1933,14.3335 3.5262,21.4716 0.9924,6.3552 2.1842,12.6788 2.8789,19.0779 1.1965,7.0899 2.3491,14.2001 3.8594,21.2279 1.5897,5.9301 3.4618,11.7787 5.0979,17.6958 1.57,5.1904 2.5606,10.4793 3.4169,15.8325 1.4839,7.4646 2.838,14.9586 3.7526,22.5174 0.8116,6.8483 1.6426,13.6959 2.904,20.4789 1.2112,6.028 2.6416,12.0101 3.7543,18.0565 1.3876,6.8303 2.8991,13.6404 4.7291,20.3667 2.203,8.0755 3.6876,16.3364 6.0796,24.3652 2.3907,8.1742 4.6323,16.3774 6.7995,24.6152 2.2977,8.3754 3.9024,16.9396 6.4955,25.2422 2.5473,9.7626 4.5938,19.6229 6.3737,29.5546 2.1534,10.8827 4.5549,21.8092 4.7566,32.9464 0.3908,9.8693 0.4016,19.7609 1.3918,29.5986 0.6771,7.6976 1.2043,15.4444 3.1145,22.9641 0.574,2.5387 1.3447,5.0697 1.8663,7.6171 0.7133,3.4843 1.1572,7.0276 1.9938,10.4889 1.565,6.4246 3.0605,12.8672 4.7168,19.2686 1.2867,5.1859 2.375,10.4126 3.1204,15.7075 1.085,6.9902 1.5783,14.0467 2.4165,21.0679 0.3672,1.649 0.1605,0.4691 0.2423,3.2756 0.1032,3.5397 0.2919,7.0763 0.5079,10.6107 0.3434,5.4298 0.595,10.8503 0.6545,16.2915 0.4802,8.1374 1.5249,16.2223 3.1321,24.2175 1.8658,9.2519 4.1529,18.4398 5.2602,27.8252 1.1672,7.0683 2.6611,14.1222 5.1979,20.8422 9.9313,26.4833 47.3845,12.4384 37.4532,-14.045 z" /><path
         style="fill:#000000;fill-opacity:1;stroke-width:40;paint-order:markers stroke fill"
         id="path6440"
         d="m 1956.3872,1002.7862 c 7.552,-11.60683 15.6131,-22.8803 23.5752,-34.20926 9.1509,-12.32736 17.7319,-25.02722 25.8497,-38.05253 7.3421,-11.4853 16.1337,-21.96272 24.9182,-32.3564 8.8728,-10.37764 17.7684,-20.73304 27.2064,-30.60372 4.6427,-4.4179 8.8141,-9.30555 13.503,-13.67247 2.0687,-1.92664 5.5431,-4.96885 7.6298,-6.81167 9.0874,-8.23265 18.1819,-16.44497 27.6545,-24.2347 7.6436,-6.34754 15.2847,-12.69677 23.0045,-18.95014 6.3636,-5.65172 13.041,-10.91666 19.687,-16.22605 4.4629,-3.79699 9.5649,-6.66766 14.3733,-9.98271 3.9449,-2.69943 7.6153,-5.7699 11.5591,-8.46941 6.8936,-4.86379 13.3222,-10.35606 19.7012,-15.86725 4.5867,-4.12718 9.3356,-8.04908 14.0802,-11.98989 2.7145,-2.39421 5.6286,-4.45222 8.6255,-6.46086 2.5729,-1.83909 5.1074,-3.69514 7.8346,-5.29407 -3.0513,2.01192 -7.1825,2.58159 -10.7544,1.86441 -0.5834,-0.11713 -1.1495,-0.66609 -1.7173,-0.48786 -0.4651,0.14599 0.8863,0.40642 1.3294,0.60962 0.3031,0.0648 0.229,0.56386 0.337,0.68088 3.2393,3.51192 6.9732,6.64578 10.5463,9.79885 6.8782,6.2671 14.928,10.96536 22.3064,16.56963 5.5742,4.53501 10.9373,9.31199 16.4956,13.86808 6.2678,5.06357 12.0011,10.72306 17.8494,16.25209 6.9369,6.58413 13.6521,13.3759 20.1274,20.41231 10.2348,10.53791 21.3038,20.22142 31.7217,30.57745 7.9012,7.54123 15.1123,15.73792 22.4927,23.77458 7.122,7.93097 14.2292,15.8704 21.4667,23.69714 6.6317,7.42762 13.7162,14.41625 20.6091,21.59474 3.6725,5.04309 7.6549,9.82829 11.7655,14.51554 5.5427,6.21432 10.9902,12.51331 16.6145,18.65294 7.2529,7.7737 14.3184,15.71903 21.5538,23.50836 5.8015,6.65158 11.6961,13.23809 17.2511,20.09937 3.8383,4.80533 8.271,9.07701 12.4081,13.61183 3.4792,3.48037 6.5874,7.28037 9.8524,10.95257 2.5982,2.9921 5.0745,6.0798 7.7299,9.0239 0.985,1.2375 2.3277,2.1128 3.4178,3.2434 0.2679,0.2779 -1.0786,-1.0938 -0.8595,-0.776 0.7266,1.0542 1.4871,2.0847 2.2306,3.1271 0.304,0.3952 0.608,0.7903 0.9119,1.1855 17.2447,22.4192 48.9503,-1.9685 31.7056,-24.3877 v 0 c -0.2946,-0.3829 -0.5892,-0.7659 -0.8838,-1.1489 0.1237,0.2347 0.5184,0.9248 0.3713,0.704 -1.9366,-2.90444 -3.6251,-5.38076 -6.108,-7.87564 -1.6565,-1.6645 -1.7521,-1.88701 -1.3042,-1.10549 -2.6656,-2.75473 -4.828,-5.95455 -7.4685,-8.73619 -3.4258,-3.71547 -6.5541,-7.7089 -10.1471,-11.27665 -3.617,-3.91533 -7.4241,-7.65942 -10.8201,-11.77541 -6.1387,-7.52629 -12.5652,-14.8195 -18.9911,-22.10031 -7.195,-7.73281 -14.2021,-15.6387 -21.4137,-23.35678 -5.4388,-5.8775 -10.6242,-11.98695 -15.9773,-17.94356 -4.5107,-5.14353 -8.6339,-10.57564 -12.9899,-15.8496 -6.7205,-6.99567 -13.6308,-13.80038 -20.0904,-21.04433 -7.2065,-7.79311 -14.2821,-15.6995 -21.3738,-23.59641 -7.8007,-8.49339 -15.4399,-17.14058 -23.7841,-25.11653 -10.0087,-9.90975 -20.5331,-19.28391 -30.4618,-29.26971 -7.1056,-7.71687 -14.4736,-15.16843 -22.0816,-22.39235 -6.5339,-6.17321 -12.9644,-12.46569 -19.9677,-18.11708 -5.9862,-4.90646 -11.7241,-10.09994 -17.8022,-14.89448 -6.6252,-4.95313 -13.715,-9.24438 -19.9764,-14.67541 -6.6756,-5.80995 -12.4823,-12.8883 -20.5949,-16.77315 -9.2407,-4.23484 -17.0829,-5.19385 -26.3893,0.24696 -3.1558,1.95427 -6.2727,3.9641 -9.2424,6.19559 -4.1374,2.77323 -8.1299,5.7055 -11.9287,8.93085 -4.9446,4.11666 -9.8953,8.21529 -14.6903,12.50765 -5.2783,4.58298 -10.6047,9.14654 -16.2894,13.22118 -3.9634,2.76238 -7.7523,5.75384 -11.6856,8.55739 -5.4421,3.8934 -11.3913,7.0834 -16.4429,11.52948 -6.7253,5.37401 -13.4932,10.69322 -19.9273,16.41954 -7.7801,6.32579 -15.5138,12.70757 -23.2193,19.12578 -9.8245,8.09625 -19.2995,16.58241 -28.7196,25.14327 -2.8167,2.49079 -6.3512,5.57737 -9.064,8.14303 -5.005,4.73363 -9.5615,9.91198 -14.5173,14.69763 -9.9808,10.47517 -19.4531,21.40384 -28.8341,32.41675 -10.0109,11.87045 -19.9902,23.85761 -28.3029,37.00677 -1.4847,2.38371 -5.8856,9.48597 -7.4803,11.90307 -5.4607,8.27646 -11.4373,16.20018 -17.1466,24.30275 -8.2275,11.70757 -16.5504,23.36218 -24.353,35.35799 -15.4507,23.6912 18.0537,45.5419 33.5044,21.8507 z" /><path
         style="fill:#000000;fill-opacity:1;stroke-width:40;paint-order:markers stroke fill"
         id="path6460"
         d="m 2084.7475,1115.1357 c 0.017,11.8192 1.2063,23.6161 2.4797,35.3558 1.4687,12.8925 3.1288,25.7636 4.8895,38.6193 1.5683,13.5071 4.4943,26.7814 7.1559,40.0981 1.9004,9.3658 2.9653,18.8472 3.9438,28.3412 0.5445,11.1343 1.9997,22.1749 3.1986,33.2486 1.5824,15.2922 2.7786,30.623 4.0387,45.9448 0.9443,12.8624 1.6177,25.7476 3.1272,38.5612 0.5242,4.4501 1.5883,11.9519 2.2264,16.541 0.3517,2.3463 0.6286,4.7052 1.0552,7.039 1.1592,6.341 2.6117,12.1926 4.0434,18.4707 1.8012,7.8983 3.5525,15.8081 5.2994,23.7187 1.4934,7.4721 3.1943,14.9233 4.0486,22.5056 0.4251,3.7728 0.7388,7.5575 1.1501,11.3319 1.4333,12.3823 3.0567,24.7477 5.4265,36.9882 2.1583,9.2073 3.9665,18.4811 5.8551,27.7438 1.4363,7.7595 3.2517,15.4497 5.5965,22.9846 8.5919,26.9478 46.7017,14.7971 38.1099,-12.1507 v 0 c -2.0581,-6.1348 -3.2315,-12.5443 -4.522,-18.8704 -1.8867,-9.1324 -3.6196,-18.2935 -5.7802,-27.3692 -2.195,-11.1344 -3.5774,-22.4073 -4.9225,-33.671 -0.4532,-4.1358 -0.7959,-8.2837 -1.2835,-12.4157 -1.0211,-8.6532 -2.8771,-17.1752 -4.6196,-25.7028 -1.7749,-8.0365 -3.5526,-16.0728 -5.3847,-24.0964 -0.6587,-2.8847 -2.8548,-12.1214 -3.46,-15.4037 -0.4042,-2.1925 -0.6625,-4.4095 -0.9938,-6.6142 -0.5267,-3.7844 -1.6298,-11.5862 -2.0709,-15.2756 -1.4931,-12.4895 -2.0837,-25.0581 -3.0358,-37.5948 -1.2895,-15.6678 -2.5129,-31.3447 -4.1376,-46.9818 -1.1971,-11.0026 -2.6292,-21.9692 -3.1758,-33.0328 -1.1079,-10.7489 -2.3645,-21.4787 -4.5092,-32.0818 -2.5032,-12.5182 -5.2903,-24.9899 -6.7505,-37.69 -1.7152,-12.4954 -3.3235,-25.007 -4.7562,-37.538 -1.1382,-10.2916 -2.1924,-20.6413 -2.2422,-31.0036 0,-28.2842 -40,-28.2842 -40,0 z" /><path
         style="fill:#000000;fill-opacity:1;stroke-width:40;paint-order:markers stroke fill"
         id="path6462"
         d="m 2120.9545,1125.0865 c 2.5138,-9.3549 4.9684,-18.7236 7.3082,-28.1257 3.0286,-11.0849 5.7883,-22.2366 8.9881,-33.2741 3.2938,-10.4732 6.5398,-20.9583 10.1102,-31.3405 4.0922,-11.6331 7.5214,-23.4798 10.9264,-35.32742 2.2004,-8.35647 4.5955,-16.66132 6.6822,-25.04683 2.3605,-9.5848 4.4531,-19.22709 6.5201,-28.8779 2.1578,-8.09654 4.6872,-16.08473 6.8328,-24.18503 1.9626,-7.99299 4.3322,-15.84854 7.098,-23.59724 2.8668,-7.77488 5.4289,-15.64965 7.8394,-23.57506 2.1981,-8.44177 4.5597,-16.83295 6.6874,-25.29263 1.4265,-6.29867 3.5312,-12.38451 5.5812,-18.49414 0.2992,-0.97583 0.5595,-1.96448 0.8977,-2.92751 0.7583,-2.15918 1.8499,-4.28016 2.5852,-6.46864 1.1225,-3.34078 1.7045,-5.55797 2.6467,-8.90643 2.1921,-7.36033 3.7994,-14.86037 5.4261,-22.35716 0.9521,-4.43304 1.6903,-8.90476 2.5678,-13.3532 0.9726,-5.12487 1.984,-10.23572 2.6773,-15.40817 0.4277,-3.95853 1.0611,-7.89424 1.631,-11.8365 0.4289,-2.06703 0.1983,-0.95539 0.6919,-3.33497 5.7183,-27.70021 -33.4557,-35.78704 -39.174,-8.08683 v 0 c -0.7247,3.52428 -0.3504,1.62367 -1.1072,5.70489 -0.5921,4.10567 -1.2245,8.20923 -1.699,12.329 -0.5546,4.33343 -1.4847,8.59719 -2.2641,12.89294 -0.8309,4.21402 -1.5354,8.44933 -2.4227,12.65094 -1.4426,6.70851 -2.872,13.41774 -4.8417,19.99967 -0.5312,1.90262 -0.9832,3.82953 -1.602,5.70553 -1.1915,3.61288 -2.9739,7.02029 -3.9467,10.7066 -2.3593,7.08009 -4.7615,14.14201 -6.4393,21.42739 -1.9693,7.82995 -4.1714,15.59039 -6.166,23.41435 -2.2292,7.33544 -4.5989,14.62326 -7.26,21.81641 -3.1187,8.80877 -5.8537,17.72496 -8.0877,26.80218 -2.2772,8.70749 -5.1323,17.25166 -7.2654,25.99828 -1.9782,9.24062 -3.976,18.47379 -6.2372,27.65086 -1.9398,7.90758 -4.2561,15.71834 -6.2957,23.60089 -3.2158,11.1906 -6.4394,22.38503 -10.3096,33.37153 -3.7816,11.0039 -7.2324,22.1139 -10.7047,33.2191 -3.3339,11.5254 -6.2388,23.162 -9.3826,34.7399 -2.2677,9.1126 -4.6279,18.1985 -7.0827,27.2608 -7.4421,27.2876 31.1485,37.8123 38.5906,10.5247 z" /><path
         style="fill:#000000;fill-opacity:1;stroke-width:40;paint-order:markers stroke fill"
         id="path6474"
         d="m 1935.5511,1024.2506 c 7.7028,6.3182 15.5748,12.4008 23.6381,18.2522 10.4696,7.3041 21.2544,14.1357 31.8845,21.199 6.0882,3.8152 11.7045,8.3105 16.8126,13.352 3.057,3.2378 6.477,6.0913 9.7633,9.0834 3.8343,3.4912 7.5463,7.1174 11.3746,10.6172 6.4953,6.1157 13.4286,11.7339 20.1172,17.6293 1.5716,1.5199 3.4325,2.751 4.914,4.3689 0.8115,0.8862 1.5602,1.917 2.3149,2.8677 3.4102,4.4759 7.9996,7.8022 12.1663,11.5204 2.4017,2.3791 4.5441,5.0097 6.6705,7.6345 3.1976,4.0513 6.7395,7.9898 11.4998,10.2498 1.8156,0.8619 3.775,1.381 5.6626,2.0715 8.4551,2.0787 16.9398,0.1616 25.2905,-1.3719 9.5488,-1.1053 18.9034,-3.2911 28.2651,-5.4029 6.2064,-1.2762 12.2227,-3.3354 18.4219,-4.6309 4.5405,-1.1404 9.1241,-1.9964 13.7597,-2.6404 6.9373,-0.9973 13.9185,-1.5852 20.8755,-2.4204 8.8853,-1.1229 17.803,-1.9642 26.6908,-3.0608 8.7365,-1.2764 17.4694,-2.6086 26.1557,-4.1929 5.8329,-1.305 11.7807,-1.7181 17.7146,-2.2428 5.5905,-0.6096 11.2152,-0.6943 16.8322,-0.7821 6.1591,-0.078 12.3189,-0.074 18.4784,-0.073 6.5721,0 13.1442,0.01 19.7163,0.01 4.4521,0 8.9041,0 13.3562,0 4.5032,0 9.0065,0 13.5097,0 3.4558,0 6.9116,0 10.3673,0 5.9849,-0.044 11.9686,-0.3808 17.9109,-1.0917 6.4991,-0.6043 12.5427,-2.8264 18.2383,-5.9097 6.1867,-3.4325 10.9707,-8.7131 16.183,-13.3834 7.3625,-6.419 14.3968,-13.1741 21.2627,-20.117 1.1989,-1.1887 2.3871,-2.3882 3.5966,-3.5661 4.2037,-4.0942 3.0374,-2.7739 7.3329,-7.1619 3.0186,-3.0836 5.9412,-6.2504 8.9944,-9.3007 5.7686,-5.5254 11.195,-11.3891 16.5282,-17.3307 4.9595,-5.2646 9.9073,-10.5324 15.081,-15.5856 3.7039,-3.1127 7.1117,-6.5566 10.7358,-9.7568 1.1537,-0.5776 2.2485,-1.5289 3.3349,-2.2734 23.2501,-16.107 0.4713,-48.9875 -22.7787,-32.88048 v 0 c -2.441,1.70169 -4.8639,3.42704 -7.1788,5.30037 -4.0499,3.63233 -7.9601,7.41921 -12.0623,10.99481 -5.801,5.666 -11.3578,11.5654 -16.9008,17.4838 -4.8597,5.4154 -9.7985,10.7635 -15.0675,15.7876 -3.0254,3.037 -5.9398,6.17 -8.9317,9.2382 -3.5607,3.6514 -3.338,3.2654 -7.2566,7.0858 -1.3024,1.2698 -2.5824,2.5624 -3.8735,3.8436 -6.3244,6.3996 -12.8036,12.6215 -19.5971,18.5265 -4.9837,4.511 -1.2998,1.1235 -5.1722,4.7902 -0.6058,0.5737 -1.2266,1.1315 -1.8286,1.7091 -0.3689,0.354 -0.6611,0.7881 -1.0571,1.1115 -0.2259,0.1845 -0.4822,0.3282 -0.7233,0.4923 -0.1949,0.1179 -0.423,0.1933 -0.5848,0.3537 -0.057,0.057 0.3124,-0.056 0.2427,-0.014 -0.2196,0.1306 -0.5044,0.1383 -0.7088,0.2916 -0.07,0.053 0.3417,0.017 0.259,0.046 -0.6504,0.2297 -2.7189,0.4867 -3.0881,0.5416 -4.2627,0.6034 -8.5928,0.6723 -12.8905,0.7753 -3.4558,0 -6.9117,0 -10.3675,10e-5 -4.5029,0 -9.0059,0 -13.5088,0 -4.4476,-10e-5 -8.8952,0 -13.3428,0 -6.5746,0 -13.1491,-0.01 -19.7236,-0.01 -6.3729,0 -12.7461,0 -19.1186,0.078 -6.5885,0.1056 -13.1841,0.2379 -19.7425,0.9344 -7.1744,0.6426 -14.3597,1.2204 -21.4183,2.7475 -7.9139,1.4776 -15.8894,2.6257 -23.8476,3.837 -8.828,1.1098 -17.6939,1.9045 -26.5197,3.0399 -7.2376,0.8691 -14.5024,1.472 -21.7176,2.5306 -5.5764,0.801 -11.1133,1.787 -16.583,3.1441 -6.3112,1.385 -12.4907,3.2761 -18.7903,4.7123 -8.8427,1.9947 -17.6698,4.0425 -26.6907,5.0807 -2.5575,0.4701 -5.1109,1.0085 -7.6807,1.4095 -0.5099,0.08 -1.2655,-0.2327 -1.5341,0.208 -0.3211,0.5269 1.6712,0.01 1.7733,0.532 2.2792,1.0783 2.6383,1.0496 4.4657,2.5961 1.7933,1.5176 1.2686,1.4412 -0.046,-0.1549 -0.3804,-0.4619 -0.7563,-0.9275 -1.1344,-1.3913 -3.4873,-4.2976 -7.0587,-8.5583 -11.1379,-12.3134 -1.8922,-1.6823 -2.207,-1.9805 -4.1242,-3.6133 -0.6395,-0.5446 -1.2724,-1.0976 -1.9299,-1.6202 -0.1076,-0.086 -0.2232,-0.2049 -0.3606,-0.2002 -0.071,0 0.065,0.2641 0.017,0.2118 -0.4557,-0.4979 -0.8455,-1.0525 -1.2682,-1.5787 -3.5995,-4.4114 -7.4499,-8.5909 -11.9296,-12.1333 -6.513,-5.7089 -13.2221,-11.1933 -19.5459,-17.1176 -6.7996,-6.2016 -13.5422,-12.4715 -20.2024,-18.8184 -6.9446,-6.7075 -14.3993,-12.8692 -22.5901,-18.017 -10.1776,-6.7577 -20.4916,-13.3099 -30.5382,-20.2644 -7.341,-5.3158 -14.5002,-10.84875 -21.5084,-16.59589 -21.7286,-18.10716 -47.336,12.62169 -25.6074,30.72879 z" /><path
         style="fill:#000000;fill-opacity:1;stroke-width:40;paint-order:markers stroke fill"
         id="path6575"
         d="m 2268.0821,1570.2136 c 1.572,-4.4105 3.382,-8.7308 5.1407,-13.0741 3.4576,-8.3655 6.1902,-16.9962 9.1728,-25.5336 3.7442,-10.9163 6.4656,-22.1347 9.6416,-33.2207 2.8479,-10.3725 5.8255,-20.72 8.4423,-31.1544 1.8908,-8.606 4.4509,-17.0347 6.471,-25.6092 1.8937,-8.9426 3.9203,-17.8553 6.0205,-26.7511 2.3637,-9.7126 5.4598,-19.2155 8.1407,-28.8411 2.7387,-9.15 4.2687,-18.5937 6.6085,-27.836 2.9638,-11.392 5.7363,-22.8423 8.2094,-34.3514 3.0414,-13.5945 5.6033,-27.2953 8.7822,-40.8581 3.3639,-14.4149 6.3157,-28.9185 9.596,-43.352 3.2069,-13.5167 5.8902,-27.1536 7.9919,-40.8846 1.1623,-11.4693 2.6252,-22.88 4.3495,-34.2771 0.2363,-1.6829 0.4638,-3.367 0.7087,-5.0485 0.4203,-2.8851 0.5881,-4.4243 1.2903,-7.1088 0.8564,-3.2739 1.9738,-6.5031 2.9182,-9.7536 1.7879,-5.2975 3.859,-10.4898 5.5579,-15.8166 0.9544,-3.4587 0.5226,-1.8959 1.2948,-4.6883 7.5327,-27.2628 -31.0227,-37.9157 -38.5554,-10.6529 v 0 c -0.6896,2.4975 -0.3967,1.3845 -0.895,3.3348 -1.7277,5.6288 -4.1338,11.0315 -5.8186,16.6789 -2.5784,8.9043 -5.3004,17.7704 -6.0509,27.0721 -1.7225,11.388 -3.239,22.7891 -4.3461,34.2549 -1.9215,12.7775 -4.4874,25.4511 -7.451,38.0267 -3.2617,14.3575 -6.2039,28.7829 -9.5433,43.1231 -3.2112,13.8077 -5.8732,27.7367 -8.943,41.5767 -2.364,11.0913 -5.0699,22.1146 -7.9181,33.0905 -2.1778,8.8989 -3.7816,17.9319 -6.3216,26.746 -2.818,10.1348 -6.096,20.1361 -8.5351,30.3752 -2.1069,8.9259 -4.1481,17.8672 -6.0417,26.8414 -1.9386,8.3902 -4.5317,16.6108 -6.3325,25.0356 -2.4709,9.994 -5.3848,19.8827 -8.084,29.8161 -2.9671,10.3658 -5.5171,20.8517 -8.9614,31.0752 -2.7529,7.9237 -5.2942,15.9265 -8.4808,23.6937 -2.2829,5.6528 -4.643,11.2773 -6.5194,17.0824 -7.7703,27.196 30.6906,38.1848 38.4609,10.9888 z" /><path
         style="fill:#000000;fill-opacity:1;stroke-width:40;paint-order:markers stroke fill"
         id="path6577"
         d="m 2201.2256,751.3661 c 4.0267,8.49508 7.5604,17.19357 11.0177,25.93152 3.2881,8.63033 7.0103,17.08774 10.7932,25.51027 2.6679,5.7045 4.1973,11.84794 6.2237,17.79379 2.9764,8.39581 6.053,16.75625 8.801,25.23093 2.3157,7.98698 5.3667,15.71681 8.4419,23.43235 2.8257,7.4069 6.082,14.63661 9.0881,21.96811 2.252,5.99313 4.7234,11.90903 6.6003,18.03368 2.5714,8.94038 6.2372,17.50293 9.1757,26.31602 2.4046,7.18828 5.1415,14.25913 7.822,21.34748 2.7667,7.30168 5.6149,14.5741 8.6103,21.78529 3.4506,8.9371 7.0979,17.7945 10.7385,26.65626 3.542,8.4375 7.5561,16.6663 11.411,24.9632 4.3059,9.3486 8.4182,18.778 12.2593,28.3268 2.1261,5.1489 3.9889,10.3918 6.164,15.5197 1.6569,3.8333 2.8772,7.8309 4.2887,11.7568 1.4274,3.7496 2.4888,7.6162 3.7662,11.4158 9.1625,26.7591 47.0056,13.8013 37.843,-12.9577 v 0 c -1.4215,-3.9731 -2.4385,-8.0914 -3.9807,-12.0265 -1.6718,-4.619 -3.1094,-9.3267 -5.1003,-13.8254 -2.0816,-4.8934 -3.8203,-9.9164 -5.876,-14.8235 -4.1074,-10.1915 -8.4879,-20.2634 -13.0892,-30.2419 -3.6018,-7.7505 -7.3522,-15.43718 -10.6867,-23.30774 -3.6629,-8.91601 -7.3307,-17.82754 -10.8055,-26.81822 -2.8357,-6.8064 -5.5138,-13.67869 -8.1288,-20.57241 -2.5074,-6.62956 -5.0754,-13.23988 -7.327,-19.96207 -2.8872,-8.51347 -6.34,-16.82657 -8.8962,-25.45382 -2.2805,-7.23781 -5.0565,-14.29707 -7.8044,-21.36862 -2.9694,-7.18143 -6.1292,-14.28414 -8.9154,-21.54192 -2.7564,-6.91476 -5.5173,-13.83028 -7.5621,-20.99953 -2.8313,-8.67461 -5.9349,-17.25391 -9.0065,-25.84527 -2.4611,-7.0907 -4.2654,-14.43434 -7.5747,-21.20876 -3.5411,-7.86059 -7.0109,-15.76126 -10.0793,-23.82039 -3.5454,-8.95958 -7.1385,-17.89744 -11.2887,-26.59885 -10.8785,-26.10858 -47.8016,-10.72396 -36.9231,15.3846 z" /><path
         style="fill:#80b3ff;fill-opacity:1;stroke-width:1889.76;paint-order:markers stroke fill"
         d="m 8724.7315,4255.3711 c -229.1096,13.9417 -458.1921,46.2586 -682.1778,93.335 64.4861,326.7365 73.0905,660.9033 128.4605,988.735 38.1462,185.3037 56.6123,375.0609 102.2768,558.3842 56.1543,-18.6127 163.0716,32.3846 169.6054,-54.7638 139.2965,-425.2436 234.8562,-864.0941 324.9695,-1302.1076 13.5486,-91.2557 34.9159,-187.0803 45.7327,-276.283 -26.7427,-12.5569 -60.2153,-5.1074 -88.8671,-7.2998 z"
         id="path6668"
         transform="scale(0.26458333)" /><path
         style="fill:#80b3ff;fill-opacity:1;stroke-width:1889.76;paint-order:markers stroke fill"
         d="m 8381.3232,3014.0625 c -127.6045,351.8962 -205.0955,719.9338 -318.2323,1076.7566 -2.0417,24.1737 -43.8749,95.3264 8.4179,89.7717 234.9263,-47.3879 473.568,-74.3907 713.1836,-78.4912 53.1956,0.094 -9.4679,-64.1481 -8.0632,-88.3819 -141.3094,-320.7572 -257.0778,-651.757 -380.9261,-979.1718 -4.4668,-5.4987 -6.3651,-19.0774 -14.3799,-20.4834 z"
         id="path6670"
         transform="scale(0.26458333)" /><path
         style="fill:#aaccff;fill-opacity:1;stroke-width:1889.76;paint-order:markers stroke fill"
         d="m 8221.9727,2914.624 c -192.4968,129.1724 -369.3907,286.8094 -523.8803,460.4703 -94.1937,123.1577 -200.0597,245.0266 -263.7418,386.4291 132.0819,111.579 281.7815,203.8497 404.7192,327.5058 64.8972,98.7586 61.651,-34.4723 83.0005,-83.6581 108.442,-344.6773 191.5366,-696.5508 302.2429,-1040.6492 -0.3593,-11.3765 18.3229,-47.0962 -2.3405,-50.0979 z"
         id="path6672"
         transform="scale(0.26458333)" /><path
         style="fill:#aaccff;fill-opacity:1;stroke-width:1889.76;paint-order:markers stroke fill"
         d="m 7453.4668,3977.832 c 58.5238,287.5005 108.9601,576.7228 185.3261,860.3553 43.5609,149.999 48.9323,305.5816 67.6714,459.2021 50.3125,195.6605 51.1955,400.1994 90.3863,596.9954 100.9381,-8.2343 210.1776,-4.9745 306.665,-20.4345 -57.83,-332.1094 -123.2428,-663.3421 -147.4202,-1000.266 -18.671,-166.6209 -41.228,-334.4522 -69.3034,-498.8796 -92.838,-137.4243 -232.9662,-236.2642 -355.5832,-345.7944 -23.9724,-19.1176 -51.3189,-38.9471 -77.742,-51.1783 z"
         id="path6674"
         transform="scale(0.26458333)" /><path
         style="fill:#aaccff;fill-opacity:1;stroke-width:1889.76;paint-order:markers stroke fill"
         d="m 9389.0381,3922.168 c -119.2363,111.7992 -221.238,252.1047 -369.5068,328.5156 -71.7475,22.5883 -55.8851,124.5545 -74.9963,181.2718 -77.5511,454.1665 -189.2178,902.6827 -311.5272,1346.7311 -6.785,39.9175 -40.9973,90.5898 -36.084,125.1221 105.6548,5.4078 212.4176,3.5767 317.627,2.5635 49.4639,-400.7976 118.5966,-799.5284 209.9853,-1192.8223 71.9502,-268.0003 159.2083,-533.2036 267.0655,-788.2812 0.029,-1.4215 -0.8047,-3.4611 -2.5635,-3.1006 z"
         id="path6676"
         transform="scale(0.26458333)" /><path
         style="fill:#aaccff;fill-opacity:1;stroke-width:1889.76;paint-order:markers stroke fill"
         d="m 8522.876,2905.5176 c 40.671,147.9574 107.3279,298.2857 158.3557,446.6133 87.7209,251.5432 200.4247,496.1169 296.9421,742.5957 135.844,-95.223 240.8404,-231.3393 354.9805,-350.1709 -254.1511,-285.0635 -501.4875,-579.6997 -790.918,-830.0049 -5.9472,-3.4349 -12.0718,-9.2544 -19.3603,-9.0332 z"
         id="path6678"
         transform="scale(0.26458333)" /></g></g></svg>
