<?xml version="1.0" encoding="UTF-8" standalone="no"?>
<!-- Created with Inkscape (http://www.inkscape.org/) -->

<svg
   width="3840mm"
   height="2160mm"
   viewBox="0 0 3840 2160"
   version="1.1"
   id="svg5458"
   inkscape:version="1.2.2 (732a01da63, 2022-12-09)"
   sodipodi:docname="bracer sigil.svg"
   xml:space="preserve"
   inkscape:export-filename="..\..\attacks\bracer sigil.png"
   inkscape:export-xdpi="96.096664"
   inkscape:export-ydpi="96.096664"
   xmlns:inkscape="http://www.inkscape.org/namespaces/inkscape"
   xmlns:sodipodi="http://sodipodi.sourceforge.net/DTD/sodipodi-0.dtd"
   xmlns="http://www.w3.org/2000/svg"
   xmlns:svg="http://www.w3.org/2000/svg"><sodipodi:namedview
     id="namedview5460"
     pagecolor="#ffffff"
     bordercolor="#000000"
     borderopacity="0.25"
     inkscape:showpageshadow="2"
     inkscape:pageopacity="0.0"
     inkscape:pagecheckerboard="0"
     inkscape:deskcolor="#d1d1d1"
     inkscape:document-units="mm"
     showgrid="true"
     inkscape:zoom="0.056568542"
     inkscape:cx="9448.7144"
     inkscape:cy="2633.9728"
     inkscape:window-width="1920"
     inkscape:window-height="986"
     inkscape:window-x="-11"
     inkscape:window-y="-11"
     inkscape:window-maximized="1"
     inkscape:current-layer="layer1" /><defs
     id="defs5455" /><g
     inkscape:label="Layer 1"
     inkscape:groupmode="layer"
     id="layer1"><g
       id="g3678"
       transform="translate(-1847.5006,299.34187)"><path
         style="fill:#80e5ff;stroke-width:36;paint-order:markers stroke fill"
         id="path1515"
         d="m 3718.8421,504.61285 c -9.807,0.38273 -19.5688,2.24402 -28.6907,5.94412 -3.0279,1.2282 -5.9218,2.76364 -8.8828,4.14546 -12.9042,6.81707 -25.7548,13.85153 -37.8932,21.97944 -5.5812,3.73727 -14.5054,10.2969 -19.9712,14.26703 -15.5907,11.58436 -30.9594,23.76302 -44.4395,37.81259 -2.644,2.75565 -5.1078,5.6787 -7.6616,8.51806 -14.2089,17.51571 -25.2134,37.31862 -34.6533,57.72355 -5.7707,13.10333 -10.5546,26.64078 -13.6187,40.64258 -1.9422,8.87547 -2.1909,12.01147 -3.4111,20.95174 -2.6789,26.13045 -1.7188,52.45126 0.2023,78.59327 1.7288,15.19654 4.0981,30.37556 9.1866,44.85608 3.4768,9.89411 5.8982,14.49811 10.3087,23.98191 8.5963,17.9773 18.9392,35.0542 31.3184,50.6626 10.1586,11.0322 21.3775,21.3793 33.9845,29.59 2.6314,1.7138 5.3892,3.2251 8.0838,4.8377 20.9718,11.31 44.2492,16.8237 67.3054,22.0544 23.0371,5.3026 46.5131,7.9898 70.0717,9.4206 15.6635,1.0006 31.3436,0.7879 46.9176,-1.1279 18.7525,-2.4841 36.7065,-8.5706 54.3803,-15.0735 11.0577,-4.532 22.0727,-9.2629 32.4956,-15.1441 6.9671,-3.9312 10.3741,-6.2743 17.0673,-10.6003 19.2723,-12.2278 34.9493,-28.7707 50.1428,-45.573 14.5998,-16.9222 27.2961,-35.5076 37.9694,-55.14604 2.3906,-4.39876 4.5401,-8.9244 6.8102,-13.3866 8.2535,-16.20586 14.573,-33.24179 18.5528,-50.99046 2.1619,-9.64161 2.7027,-14.41975 4.121,-23.98812 2.3168,-17.31499 2.7127,-34.80106 2.3896,-52.24267 -0.078,-13.45742 -1.5919,-26.84626 -4.8753,-39.9078 -2.0223,-8.04517 -4.1568,-14.02087 -6.7515,-21.85092 -6.1184,-18.10971 -14.7073,-35.15789 -24.978,-51.23181 -5.8149,-8.68761 -12.6896,-16.5237 -20.7525,-23.18351 -4.1072,-3.39252 -6.6698,-5.0733 -10.9722,-8.09501 -10.1613,-7.46523 -20.9533,-13.94281 -32.1168,-19.77447 -14.4223,-6.66394 -29.1157,-12.72343 -44.4163,-17.03517 -15.835,-3.83249 -32.0037,-5.38043 -48.2242,-6.33308 -13.3944,-0.63173 -26.8039,-0.83147 -40.2115,-0.88087 -8.0539,0.12089 -16.114,-0.14738 -24.1307,-0.94133 -6.8404,-0.6779 -13.6643,-1.44223 -20.4844,-2.29812 -4.2425,-0.54579 -8.5125,-0.79168 -12.7823,-0.99263 -31.7861,-1.46343 -33.8558,43.48895 -2.0696,44.95238 v 0 c 3.0892,0.13801 6.1798,0.29508 9.2493,0.69011 7.2765,0.91294 14.5594,1.72035 21.8567,2.44899 9.3734,0.85616 18.7825,1.30593 28.1973,1.14031 12.5923,0.0453 25.1863,0.22803 37.7669,0.80551 13.0837,0.74966 26.1132,1.88437 38.924,4.80446 12.2978,3.22397 23.891,8.55766 35.544,13.55385 9.4633,4.90628 18.5637,10.4301 27.1502,16.76631 7.686,5.31117 14.5593,10.67708 19.634,18.72953 8.3482,12.83861 15.1328,26.58725 20.1196,41.08742 1.9212,5.74106 3.9582,11.50528 5.5118,17.36431 2.6917,10.15154 3.8045,20.57975 3.8203,31.07036 0.3177,14.964 -0.015,29.97118 -1.9237,44.83465 -1.1395,7.89902 -1.556,11.69916 -3.2592,19.62106 -3.1185,14.50512 -8.2879,28.36423 -15.0467,41.56952 -1.8638,3.71245 -3.6165,7.48274 -5.5913,11.13732 -9.1312,16.89821 -19.932,32.95042 -32.4265,47.54072 -12.5455,13.909 -25.2907,27.8285 -41.2226,37.973 -4.6251,3.0077 -8.8556,5.8621 -13.6421,8.5891 -8.6621,4.935 -17.8341,8.8646 -27.0195,12.698 -14.4865,5.3596 -29.1727,10.5284 -44.5428,12.6598 -12.7511,1.7474 -25.6479,1.5236 -38.4784,0.8419 -21.1303,-1.2578 -42.1877,-3.6353 -62.8498,-8.3937 -18.5395,-4.1766 -37.3304,-8.3464 -54.419,-16.9525 -11.1706,-6.3835 -20.8787,-14.4674 -29.7555,-23.768 -10.3149,-12.6961 -18.4979,-26.9599 -25.6908,-41.61984 -3.5126,-7.43366 -5.3182,-10.8218 -8.143,-18.42701 -4.1344,-11.13101 -5.7189,-22.93492 -7.2269,-34.65162 -1.7265,-23.04635 -2.631,-46.24716 -0.476,-69.30068 0.8925,-6.85272 1.0943,-9.44376 2.5154,-16.20737 2.36,-11.23273 6.213,-22.06032 10.8019,-32.56387 7.4743,-16.40967 16.3034,-32.29223 27.3649,-46.57951 1.8273,-2.07912 3.5732,-4.2327 5.4819,-6.23733 11.9306,-12.53007 25.6238,-23.32468 39.4696,-33.62065 3.7569,-2.73099 13.7153,-10.02585 17.7694,-12.76469 10.6364,-7.18557 21.9532,-13.32033 33.2511,-19.38291 5.5052,-2.86547 11.6387,-5.57486 17.9649,-5.59264 31.8198,0 31.8198,-45.00001 0,-45.00001 z" /><path
         style="fill:#80e5ff;stroke-width:36;paint-order:markers stroke fill"
         id="path1517"
         d="m 3731.3721,527.03004 c -0.543,0.68947 -1.1243,1.35047 -1.6292,2.06842 -2.817,4.00652 -7.8981,11.78292 -10.5518,15.61651 -6.5723,9.4945 -13.6198,18.60331 -20.6999,27.71978 -12.6767,16.33541 -26.9103,31.3307 -41.1966,46.24164 -12.7522,13.72577 -25.7889,27.18076 -38.8908,40.57162 -9.8973,10.41968 -19.7783,20.87459 -29.166,31.76 -5.8637,7.06652 -11.956,13.92459 -18.1225,20.72658 -6.5096,7.00957 -12.8827,14.13946 -18.5964,21.81608 -3.9079,4.98058 -7.1243,10.43762 -10.1873,15.96159 -15.4177,27.8351 23.9471,49.63909 39.3648,21.80397 v 0 c 2.1003,-3.79657 4.2236,-7.5914 6.9743,-10.96923 4.7993,-6.51313 10.3282,-12.42853 15.787,-18.39182 6.4243,-7.08941 12.7741,-14.23861 18.8908,-21.59655 8.7355,-10.18083 18.0139,-19.88949 27.2207,-29.64019 13.2119,-13.504 26.3611,-27.06988 39.2201,-40.91185 15.3625,-16.03762 30.6262,-32.20392 44.2491,-49.77846 5.7528,-7.41452 9.8939,-12.64032 15.4379,-20.23903 5.6925,-7.8024 10.8642,-15.92251 16.3791,-23.84124 1.1927,-1.71262 2.4511,-3.37859 3.6766,-5.06787 16.8645,-26.98314 -21.2954,-50.83309 -38.1599,-23.84995 z" /><path
         style="fill:#80e5ff;stroke-width:36;paint-order:markers stroke fill"
         id="path1519"
         d="m 3573.2966,802.7827 c 14.0488,7.54911 28.7236,13.80455 42.936,21.02851 12.519,6.10401 23.2393,15.01167 34.0411,23.65703 5.9686,4.54234 10.7217,10.32294 15.782,15.78924 4.7607,5.1427 4.4134,4.6954 9.3482,9.594 10.6073,10.9067 21.7796,21.2193 33.1127,31.3608 9.948,9.1155 20.3561,17.6961 30.5692,26.5068 8.3088,7.3264 17.4958,13.5578 26.1057,20.4972 3.3164,2.8548 6.4362,5.9487 9.4036,9.1637 21.7605,23.2159 54.5928,-7.558 32.8323,-30.774 v 0 c -4.4966,-4.7558 -9.1204,-9.4185 -14.185,-13.577 -8.2188,-6.504 -16.8121,-12.5377 -24.7635,-19.3839 -10.0083,-8.6328 -20.2095,-17.0367 -29.9569,-25.969 -10.7777,-9.6415 -21.4024,-19.4439 -31.4793,-29.82438 -9.6124,-9.45451 -17.9692,-20.18066 -28.6526,-28.51839 -13.207,-10.56733 -26.4946,-21.19499 -41.7911,-28.64951 -13.392,-6.78816 -27.1352,-12.82101 -40.4865,-19.68813 -27.4266,-16.13328 -50.2425,22.65376 -22.8159,38.78703 z" /><path
         style="fill:#80e5ff;stroke-width:36;paint-order:markers stroke fill"
         id="path1527"
         d="m 3805.7884,939.92938 c 3.831,-4.2212 8.0919,-8.039 11.8698,-12.3103 1.471,-1.6631 2.8777,-3.3822 4.3166,-5.0734 7.7245,-10.1183 15.5257,-20.1781 23.1682,-30.3587 1.1452,-1.5748 2.2303,-3.1949 3.4355,-4.7244 1.9683,-2.4979 4.2155,-4.7629 6.3296,-7.1388 4.5238,-5.0841 9.0359,-10.1771 13.5907,-15.2335 10.028,-11.3059 20.92,-21.78756 31.5465,-32.51818 6.532,-6.55037 12.571,-13.58185 19.2356,-20.00086 2.5709,-2.47623 5.2218,-4.8682 7.8264,-7.30898 9.2154,-8.20619 18.4316,-16.39086 27.3683,-24.90342 8.4456,-7.87061 16.3941,-16.23765 24.4943,-24.45375 2.2061,-2.13427 4.3005,-4.37693 6.478,-6.5397 22.5303,-22.46961 -9.2465,-54.33234 -31.7769,-31.86274 v 0 c -2.2669,2.26735 -4.473,4.59126 -6.7676,6.83126 -7.7556,7.88629 -15.3809,15.90094 -23.4741,23.44988 -8.8405,8.43062 -17.9978,16.49053 -27.0924,24.64274 -0.6403,0.59999 -8.6489,8.10368 -8.8341,8.28325 -6.7112,6.50803 -12.881,13.54043 -19.4358,20.20179 -11.1229,11.23728 -22.5165,22.22075 -33.0073,34.06528 -4.6341,5.14731 -9.2316,10.32598 -13.8319,15.50343 -2.9816,3.3556 -6.284,7.0287 -9.0566,10.534 -1.0621,1.343 -2.0113,2.7717 -3.0169,4.1576 -7.1447,9.5185 -14.4656,18.9017 -21.6212,28.4123 -4.2249,5.1232 -8.9775,9.7312 -13.5645,14.5254 -22.5,22.5 9.3198,54.3198 31.8198,31.8198 z" /><path
         style="fill:#80e5ff;stroke-width:36;paint-order:markers stroke fill"
         id="path1529"
         d="m 3987.5155,709.1072 c -3.2889,-2.43698 -6.2562,-5.02754 -9.4137,-7.65739 -9.3792,-8.5094 -19.5671,-16.0687 -29.7352,-23.59747 -10.7939,-7.55721 -21.3739,-15.42075 -32.179,-22.96099 -9.6976,-6.88863 -18.9747,-14.34432 -28.3647,-21.64435 -10.9321,-9.00961 -22.0941,-17.73107 -33.2247,-26.49334 -6.4109,-5.00374 -13.0802,-9.695 -19.2306,-15.02761 -1.6164,-1.40147 -6.2415,-5.7997 -7.6376,-7.11694 -7.9342,-7.91063 -16.7917,-14.74848 -25.7807,-21.39317 -4.0797,-2.9829 -8.2043,-5.9016 -11.8226,-9.4418 -2.3597,-3.10312 -5.3011,-5.7069 -8.1242,-8.37223 -23.2159,-21.76055 -53.99,11.07171 -30.774,32.83226 v 0 c 2.6956,2.5162 5.2651,5.11435 7.6631,7.93397 5.0726,4.85515 10.583,9.17358 16.3092,13.23503 7.5525,5.5824 15.0448,11.26068 21.6695,17.95779 3.2489,3.05758 6.5093,6.18914 9.8897,9.10136 6.418,5.529 13.3051,10.47731 20.0044,15.65059 11.2038,8.81883 22.4324,17.60427 33.4429,26.6641 10.0119,7.77995 19.9057,15.72477 30.2637,23.04207 10.4663,7.27081 20.6694,14.92148 31.1273,22.2059 9.4812,7.01192 18.984,14.04732 27.7053,22.00317 3.3368,2.77883 6.6596,5.57653 10.1006,8.21812 24.847,19.87768 52.9584,-15.26141 28.1113,-35.13907 z" /><path
         style="fill:#80e5ff;stroke-width:36;paint-order:markers stroke fill"
         id="path1531"
         d="m 3770.3289,750.5037 c 0.4642,-5.0061 0.074,-10.07138 0.9018,-15.04802 0.4837,-2.90718 -0.1988,-2.57159 1.1959,-2.93175 -1.6843,5.59753 -4.7673,7.34613 -10.1604,9.09732 -0.7849,0.25487 -1.6253,0.31719 -2.4493,0.36117 -0.7246,0.0387 -1.5209,-0.43101 -2.1738,-0.1144 -0.3157,0.15315 0.275,0.64573 0.4125,0.9686 -0.138,-0.14639 2.3573,4.0712 1.4845,3.66098 -0.2756,-0.1296 -0.488,-0.43277 -0.548,-0.73147 -0.3017,-1.50314 -0.6521,-3.04323 -0.5162,-4.57034 0.1599,-1.79643 0.9256,-3.48629 1.3885,-5.22941 0.1782,-0.27996 1.9914,-3.46938 2.9321,-4.18545 4.0667,-3.09543 7.9208,-2.48776 12.6053,-0.75857 2.2948,0.67894 1.5381,0.27951 3.6498,4.61274 1.1077,2.27305 1.426,6.16782 0.078,8.46184 -0.7911,1.34677 -1.8625,2.50789 -2.7937,3.76183 -2.5267,1.43909 -4.7021,3.90277 -7.5803,4.31726 -9.51,1.36955 -18.3621,-0.36384 -23.0823,-9.14617 -1.6566,-3.08201 -0.9964,-4.85078 -1.2421,-9.03794 1.9938,-6.39327 0.7764,-4.52493 5.6795,-10.29486 0.3623,-0.42631 0.8802,-0.69171 1.3001,-1.06142 0.085,-0.0744 0.099,-0.23838 0.2076,-0.26627 1.7586,-0.44951 3.5487,-0.76495 5.3231,-1.14743 -31.8047,-0.98192 -33.1934,43.99662 -1.3887,44.97858 v 0 c 3.2959,-0.3355 6.6339,-0.38381 9.8877,-1.00651 1.8183,-0.34794 3.5426,-1.11059 5.224,-1.88533 6.1076,-2.81433 9.9917,-5.61354 14.1546,-11.55527 1.7855,-2.5484 2.4443,-5.72315 3.6665,-8.5847 0.3519,-8.73488 1.5299,-10.1818 -1.2325,-17.34683 -5.0444,-13.08452 -14.9513,-18.65181 -29.3808,-17.30997 -3.9438,0.36676 -7.1541,3.40173 -10.731,5.10258 -2.0613,2.21735 -4.4072,4.20076 -6.1838,6.65205 -5.2346,7.22209 -7.5972,17.77401 -5.5094,26.49403 0.9637,4.02531 2.6716,7.88681 4.7092,11.48959 1.3971,2.47029 3.6507,4.34619 5.476,6.5193 2.702,2.00527 5.0658,4.57404 8.106,6.0158 3.9905,1.89237 8.3138,3.17897 12.6803,3.8415 8.0245,1.21753 19.0984,-2.73584 25.1647,-7.9775 2.4898,-2.15124 4.4652,-4.83415 6.6978,-7.25124 1.4998,-3.44331 3.6195,-6.67866 4.4994,-10.32993 2.6978,-11.19537 -1.6046,-22.91363 -8.0536,-31.93313 -1.6271,-2.27569 -3.5141,-4.35393 -5.2712,-6.53089 -6.5593,-5.86478 -8.7522,-8.82867 -17.7165,-12.01314 -12.0013,-4.26332 -24.9233,-1.56189 -34.1395,7.26547 -2.7834,2.6661 -4.4871,6.26814 -6.7306,9.40223 -1.0175,2.8132 -2.2443,5.55927 -3.0523,8.4396 -2.4444,8.71416 -1.9305,17.87547 -2.4894,26.80547 0,31.81978 45,31.81978 45,0 z" /></g><circle
       style="fill:none;fill-opacity:1;stroke-width:100;paint-order:markers stroke fill;stroke:#80e5ff;stroke-opacity:1;stroke-dasharray:none"
       id="path2712"
       cx="1920.7812"
       cy="1034.427"
       r="750" /><path
       style="fill:none;fill-opacity:1;stroke:#80e5ff;stroke-width:100;stroke-dasharray:none;stroke-opacity:1;paint-order:markers stroke fill"
       d="m 1217.0833,1131.0937 691.224,-810.28641 730.9114,813.59371 -711.0677,618.4636 z"
       id="path3670" /><path
       style="fill:#80e5ff;fill-opacity:1;stroke:none;stroke-width:100;stroke-dasharray:none;stroke-opacity:1;paint-order:markers stroke fill"
       id="path3784"
       d="m 1284.995,1139.0079 c 50.4591,-1.2681 100.9367,-1.2012 151.3983,-2.3558 38.0051,-0.9395 75.9835,-2.6247 113.9888,-3.5401 18.3815,-0.1195 36.742,-0.9074 55.1098,-1.5123 15.2124,0.012 30.4142,0.8139 45.6153,1.3534 6.6757,0.043 13.3727,0.6502 20.051,0.4795 1.8234,-0.047 3.6885,0.1125 5.4631,-0.3088 3.9882,-0.9468 7.8039,-2.5115 11.7058,-3.7673 4.2673,-4.7774 9.2729,-8.9863 12.802,-14.3322 1.8937,-2.8686 2.3087,-6.4867 3.143,-9.8213 2.0114,-8.0399 2.1297,-17.6008 2.3472,-25.9088 0.1674,-7.9967 -0.1975,-15.9914 0.2195,-23.9808 1.1736,-12.9517 -1.1842,-22.8823 -12.6871,-31.3038 -3.0801,-2.255 -7.0628,-2.8991 -10.5942,-4.3487 -2.4572,-0.3641 -4.9013,-0.8312 -7.3716,-1.0923 -4.9466,-0.5227 -8.7528,-0.3508 -13.7294,-0.5707 -8.9406,-0.3951 -17.8576,-1.3181 -26.7604,-2.1835 -31.1043,-3.4508 -62.293,-5.9113 -93.534,-7.6929 -24.411,-1.3952 -48.8477,-1.6432 -73.2876,-1.2942 -17.2092,0.6528 -34.4188,1.2283 -51.6374,1.5624 -7.8227,0.2339 -15.6759,0.014 -23.4863,0.6236 -3.679,0.2871 -7.2021,0.7707 -10.8523,1.2324 -8.3074,1.2535 -16.7029,1.5031 -25.0775,1.9394 -5.8521,0.2785 -11.7037,0.4958 -17.55,0.8853 -2.2859,0.1523 -7.7586,0.5177 -10.0357,0.9105 -2.2782,0.393 -4.5165,0.9901 -6.7747,1.4851 -10.617,3.4111 -20.1003,9.7699 -27.6268,17.9855 -1.5313,1.6714 -2.8686,3.5107 -4.303,5.2661 -1.0901,1.6105 -2.3435,3.1218 -3.2703,4.8315 -2.219,4.0935 -6.1259,12.5054 -5.3294,17.3497 1.1063,6.7281 3.1438,13.4613 6.5061,19.3931 3.6676,6.4705 12.2835,10.3507 18.4004,13.7625 16.4567,7.2294 34.445,8.1672 52.1383,8.8897 11.9302,0.2484 23.7771,-1.3564 35.635,-2.3771 12.6505,-1.0889 14.5113,-1.1265 27.6288,-1.9533 27,-1.4553 54.0366,-2.1229 81.0717,-2.4399 24.9837,-0.1891 49.9686,-0.1387 74.9528,-0.1256 19.6688,0.076 39.3324,-0.5002 58.9974,-0.8199 9.7441,-0.3268 19.5184,0.1256 29.2358,-0.7717 0.9776,-0.148 1.9552,-0.2961 2.9328,-0.4441 34.8367,-6.0334 26.3041,-55.3 -8.5326,-49.2666 v 0 c 0.1941,-0.012 0.3882,-0.025 0.5823,-0.037 -2.277,0.3001 -4.4987,0.2574 -6.8053,0.2813 -6.0756,0.063 -12.1508,0.1508 -18.226,0.2446 -19.3853,0.3153 -38.7693,0.8845 -58.1583,0.8133 -25.1893,-0.013 -50.3791,-0.064 -75.5677,0.1291 -27.8915,0.3299 -55.7846,1.0203 -83.6392,2.5362 -14.086,0.894 -15.5901,0.9055 -29.1558,2.0733 -7.7677,0.6687 -15.5466,1.6956 -23.3407,2.0633 -1.8704,0.088 -3.7439,0.089 -5.6159,0.1338 -10.5623,-0.4106 -21.305,-0.6586 -31.5467,-3.5371 -0.4213,-0.06 -1.3019,-0.6043 -1.2639,-0.1804 0.092,1.029 1.2602,1.71 1.4912,2.7169 1.1888,5.1837 4.4292,14.0413 -0.5565,18.9495 -0.3783,0.3724 0.5303,-0.9199 0.7954,-1.3798 0.3252,-0.5038 1.2084,-1.9376 1.6612,-2.3951 0.5482,-0.5538 1.1827,-1.015 1.7741,-1.5225 0.5615,-0.425 1.1832,-0.7806 1.6846,-1.2751 0.1151,-0.1136 -0.4299,-0.2638 -0.1923,-0.4454 0.1326,-1.2483 -0.047,-0.3261 3.0393,-0.6094 7.1759,-0.6586 14.3844,-0.8036 21.5764,-1.1887 9.6087,-0.5052 19.2363,-0.8521 28.7693,-2.2702 2.3129,-0.2956 4.6139,-0.7044 6.9382,-0.8905 7.3379,-0.5876 14.7182,-0.3316 22.0673,-0.5759 17.1333,-0.3334 34.2588,-0.8845 51.3821,-1.558 23.2536,-0.3343 46.5034,-0.1115 69.73,1.2185 30.5825,1.7373 61.1115,4.1609 91.5593,7.5412 9.6906,0.934 12.0047,1.2293 21.3886,1.8727 10.533,0.7222 6.2178,0.4123 14.6182,0.6513 1.2127,0.034 2.4237,0.1602 3.6367,0.141 0.1538,0 0.2757,-0.1366 0.4136,-0.2049 -6.2885,-3.5151 -7.8363,-3.4959 -11.9844,-11.3695 -1.2332,-2.3407 -1.3568,-5.1202 -1.8259,-7.7238 -0.1016,-0.5641 0.1529,-2.2874 0.1252,-1.7149 -0.09,1.86 -0.2857,3.7139 -0.3505,5.5755 -0.4097,8.4181 -0.2034,16.8333 -0.2672,25.2583 -0.082,3.6777 -0.068,4.6579 -0.2899,8.2892 -0.079,1.2978 -0.1854,2.5938 -0.2905,3.8897 -0.071,0.8771 -0.4791,1.7827 -0.2383,2.6291 0.094,0.3287 0.5371,-0.4227 0.8057,-0.6341 3.1213,-2.5386 6.2426,-5.0772 9.364,-7.6158 2.2962,-0.4537 4.5936,-0.9016 6.8887,-1.3612 0.3188,-0.064 -0.6347,0.1663 -0.9598,0.1739 -1.3136,0.031 -2.6278,-0.037 -3.9417,-0.059 -3.0271,-0.053 -6.7139,-0.128 -9.718,-0.2155 -1.7916,-0.052 -3.5827,-0.1193 -5.3741,-0.1789 -16.3414,-0.5798 -32.6853,-1.4666 -49.0404,-1.3576 -18.2188,0.6043 -36.4303,1.3829 -54.6629,1.4995 -37.9857,0.9165 -75.9449,2.5917 -113.9302,3.5388 -51.2262,1.1776 -102.4717,1.0273 -153.692,2.4611 -35.2716,2.4325 -31.8314,52.314 3.4401,49.8815 z" /><path
       style="fill:#80e5ff;fill-opacity:1;stroke:none;stroke-width:100;stroke-dasharray:none;stroke-opacity:1;paint-order:markers stroke fill"
       id="path3788"
       d="m 1863.4262,433.29153 c -0.1156,9.44332 0.164,18.8935 0,28.33595 -0.062,3.58486 -0.4666,11.27059 -0.6365,14.75475 -0.8191,15.09181 -1.2848,30.19925 -1.5471,45.31006 -0.1602,10.62984 -0.169,21.26115 -0.1716,31.89197 -0.4276,8.30789 -0.7681,16.61496 -0.939,24.93275 -0.6214,12.07344 -0.8479,24.16079 -1.2987,36.24021 -0.4008,15.40513 -1.7982,30.75181 -2.9651,46.11029 -0.9756,14.59656 -1.6343,29.21415 -2.2369,43.83056 -0.369,15.07633 -0.997,30.14371 -1.4079,45.21896 -0.436,11.35848 -0.5732,22.71286 0.9549,33.9911 1.7056,8.76741 5.4419,17.52393 12.3964,23.46711 5.8082,4.96353 6.6662,4.94088 12.9458,7.97361 8.7389,3.62556 18.1648,4.13954 27.4545,5.00378 8.1336,0.66257 16.654,0.76364 24.4532,-2.04904 2.3378,-0.8431 4.5331,-2.03856 6.7996,-3.05784 2.2009,-1.57843 4.6306,-2.87894 6.6028,-4.73528 11.0896,-10.43813 14.5968,-24.93298 17.9151,-39.17439 3.4848,-17.88988 3.8626,-36.17645 4.2244,-54.34074 0.2741,-19.14241 0.7341,-38.28092 0.9733,-57.42423 0.1959,-19.4922 0.2472,-38.98549 0.2732,-58.47853 0.011,-13.39564 0,-26.79128 0,-40.18695 0,-13.92693 0,-27.85388 0,-41.78083 0,-9.82001 0,-19.64002 0,-29.46003 10e-5,-6.79114 10e-5,-13.58226 10e-5,-20.37337 -0.022,-8.13263 0.095,-16.26502 -0.1539,-24.39445 -0.5172,-7.44014 -1.4978,-14.99058 -3.8708,-22.09919 -1.9218,-5.75728 -2.8477,-7.10065 -5.5594,-12.43719 -5.7173,-10.60604 -13.4392,-18.1955 -22.8832,-25.40963 -12.8869,-9.00012 -25.0299,-12.67656 -40.3773,-2.74802 -4.3291,2.80062 -6.3065,8.15888 -9.4597,12.23831 -1.2332,3.77039 -2.7355,7.46318 -3.6996,11.3112 -1.5527,6.19704 -2.5317,16.3436 -3.0377,22.60113 -1.0399,12.86139 -1.2891,25.76758 -1.5999,38.66065 -0.5256,28.28573 -0.23,56.5772 -0.4946,84.86484 -0.3787,26.28207 -1.6479,52.5463 -2.6525,78.81146 -0.5665,16.60652 -1.4976,33.21542 -0.6451,49.82909 0.5593,10.89932 0.8556,11.66627 2.2071,22.50672 2.6656,17.00345 5.9599,33.89882 8.2291,50.96391 0.6665,6.48809 1.7078,12.93056 2.2545,19.43111 0.01,3.37574 0.8919,6.5691 1.6548,9.83131 10.0207,33.90556 57.9704,19.73421 47.9497,-14.17135 v 0 c 0.4666,2.73505 0.5064,4.04423 0.211,0.0484 -0.6371,-7.27866 -1.7099,-14.50358 -2.5109,-21.76465 -2.2789,-16.96913 -5.4214,-33.79401 -8.1927,-50.68572 -1.1789,-8.90826 -1.3124,-8.67402 -1.8335,-17.91714 -0.8673,-15.38697 0.1904,-30.77802 0.6395,-46.16079 1.0228,-26.74731 2.3133,-53.4937 2.6869,-80.25863 0.2579,-28.04382 -0.022,-56.09116 0.4823,-84.13319 0.2772,-11.69529 0.5216,-23.39033 1.3839,-35.06147 0.2146,-2.90557 0.4815,-5.80765 0.7926,-8.7045 0.2037,-1.89751 0.6527,-3.76983 0.7517,-5.67568 0.017,-0.32576 -0.2737,-0.59214 -0.4106,-0.88821 -7.8983,7.01855 -6.0926,7.06938 -20.3276,8.11044 -1.8886,0.13811 -6.7695,-0.45218 -5.4011,-1.76112 0.3566,-0.34103 2.0257,1.08114 1.3228,0.66413 3.4234,2.49605 6.6553,4.99599 8.7346,8.7935 0.5997,1.01897 1.2974,1.98962 1.7735,3.07192 1.3378,3.04125 1.503,6.5637 1.9102,9.80998 0.2848,7.56965 0.05,15.1492 0.1259,22.72279 0,6.79111 0,13.58223 -10e-5,20.37337 0,9.82069 0,19.64142 0,29.46212 0,13.92949 0,27.85898 0,41.78847 0,13.37025 0.01,26.74049 0,40.11073 -0.026,19.30731 -0.076,38.61483 -0.2693,57.92129 -0.2371,19.02314 -0.6955,38.0415 -0.9675,57.06374 -0.2872,14.7692 -0.4906,29.6372 -2.9883,44.23339 -1.2426,5.67383 -0.9003,4.59666 -2.4824,9.99299 -0.3004,1.0245 -0.7713,2.00544 -0.9551,3.0571 -0.168,0.96161 3.6971,-2.49033 4.4897,-2.34886 0.9066,-0.23805 1.9293,-0.9252 2.7667,-0.50387 0.1542,0.0776 -0.316,0.14692 -0.4851,0.18171 -0.3636,0.0748 -0.7334,0.12465 -1.104,0.14518 -1.7069,0.0946 -2.8116,-0.0665 -4.6158,-0.20116 -4.0021,-0.37214 -8.0568,-0.80069 -12.0447,-1.0268 1.045,1.43349 -0.9487,-1.25867 2.319,2.4289 1.095,1.23574 1.9353,3.25959 2.002,4.93797 0,0.10708 -0.1523,-0.15078 -0.2285,-0.22616 -1.4731,-8.36642 -0.3505,-16.97485 -0.4484,-25.40408 0.4034,-14.84317 1.0262,-29.67852 1.3841,-44.52289 0.5769,-14.03937 1.2109,-28.07964 2.1357,-42.1006 1.2149,-16.00359 2.653,-31.99622 3.0745,-48.04805 0.4536,-12.35707 0.7095,-24.72081 1.3225,-37.07235 0.1739,-8.65333 0.6095,-17.2905 0.9494,-25.93756 0,-10.34671 0.01,-20.69388 0.1641,-31.0397 0.251,-14.59177 0.7032,-29.18018 1.4959,-43.75348 0.7309,-15.16615 0.834,-30.32839 0.6952,-45.51119 0,-35.35534 -50.0001,-35.35534 -50.0001,0 z" /><path
       style="fill:#80e5ff;fill-opacity:1;stroke:none;stroke-width:100;stroke-dasharray:none;stroke-opacity:1;paint-order:markers stroke fill"
       id="path3790"
       d="m 1877.0836,770.32132 c 0.2161,4.97337 1.3024,10.01477 0.888,14.99899 -0.3028,-3.17971 0.8507,-5.65536 2.783,-8.38867 1.0024,-1.418 2.4829,-2.43122 3.6519,-3.71535 0.073,-0.0805 0.1349,-0.31584 0.026,-0.32531 -0.421,-0.0368 -0.8327,0.14557 -1.249,0.21836 -5.2327,1.50416 -10.5346,2.72876 -15.8017,4.0944 -10.3377,2.65237 2.2183,0.0249 25.0927,14.26083 1.0894,0.67802 0.1299,3.2271 1.357,3.60249 0.9923,0.30361 0.185,-2.0673 0.2847,-3.10026 0.1395,-1.4469 0.2886,-2.89287 0.4329,-4.33929 1.1003,-8.69977 2.4605,-17.37366 4.9608,-25.7904 -0.175,5.45632 1.2755,-6.83974 1.7552,-5.10532 0.5905,2.13543 -4.0822,6.06661 -5.3727,7.00019 -4.5007,1.89 -2.4788,1.33503 -10.7224,1.29357 -0.8747,-0.004 -2.3882,-1.2901 -2.5873,-0.43833 -0.2263,0.96774 1.5091,1.29516 2.2261,1.98334 1.9309,1.85325 4.6052,4.74967 6.3724,6.62554 4.6705,4.54745 6.0487,9.94876 7.8917,15.96858 1.4588,4.7258 2.0697,9.64814 2.3775,14.56751 0.3517,14.36735 7.7463,24.7337 21.6998,29.30181 2.9075,0.95189 6.0765,0.71922 9.1147,1.07881 35.355,0.15346 35.572,-49.84607 0.217,-49.99953 v 0 c 1.7142,0.35386 3.5393,0.35902 5.1424,1.06156 6.2074,2.72042 9.2087,5.32358 12.2983,11.45895 0.9532,1.8928 1.1067,4.09228 1.5931,6.15495 0.03,0.12851 -0.039,0.52472 -0.049,0.39306 -0.07,-0.95064 -0.089,-1.90441 -0.1328,-2.85662 -0.628,-8.78287 -1.8742,-17.53635 -4.5039,-25.96759 -4.2097,-13.45948 -9.3584,-25.3742 -19.4289,-35.6304 -7.3657,-7.6861 -18.282,-19.11776 -28.8157,-21.86824 -4.6974,-1.22655 -9.6556,-1.41486 -14.5085,-1.27659 -2.471,0.0704 -4.78,1.26286 -7.1701,1.89429 -2.0984,0.99049 -4.3294,1.73871 -6.2954,2.97153 -10.4804,6.57207 -16.0935,15.87066 -19.162,27.5975 -3.2014,11.38661 -5.3657,23.00097 -6.6676,34.76122 -0.4781,5.04635 -2.427,22.25046 0.5575,25.33976 17.3326,17.94171 20.0796,21.46572 34.9186,17.37063 5.2023,-1.48603 10.5492,-2.48904 15.7297,-4.07524 8.4176,-2.39625 15.9902,-5.02235 22.3942,-11.58407 6.368,-6.52497 8.6151,-14.51163 9.5709,-23.18964 0.097,-7.5397 -0.4269,-15.05347 -1.256,-22.54877 -4.3853,-35.0823 -53.9991,-28.88057 -49.6138,6.20175 z" /><path
       style="fill:#80e5ff;fill-opacity:1;stroke:none;stroke-width:100;stroke-dasharray:none;stroke-opacity:1;paint-order:markers stroke fill"
       id="path4526"
       d="m 1853.7826,1278.138 c 0.7365,22.1307 2.2861,44.2201 3.2422,66.3429 1.1699,30.855 1.316,61.7365 1.4451,92.6097 0.1317,33.7697 -0.6878,67.5345 -1.142,101.2999 -0.2884,22.5027 -0.4183,45.007 -0.4741,67.5113 -0.024,13.1961 -0.017,26.3921 -0.012,39.5882 0.3444,4.4302 -0.3928,8.9577 0,13.3832 0.2347,2.6149 0.6972,5.2044 1.0459,7.8066 6.6896,34.7168 55.7864,25.2562 49.0968,-9.4604 v 0 c -0.048,0.5459 -0.1073,2.1848 -0.1427,1.6379 -0.2882,-4.4432 0.2455,-8.9398 0,-13.3855 0,-13.1487 -0.012,-26.2975 0.012,-39.4463 0.055,-22.3214 0.1838,-44.6428 0.4696,-66.9626 0.458,-34.0593 1.2839,-68.118 1.1462,-102.1818 -0.1323,-31.5247 -0.2871,-63.0577 -1.4915,-94.5636 -0.9711,-22.3805 -2.5278,-44.7273 -3.2817,-67.1156 -2.0761,-35.2943 -51.9898,-32.3582 -49.9137,2.9361 z" /><path
       style="fill:#80e5ff;fill-opacity:1;stroke:none;stroke-width:100;stroke-dasharray:none;stroke-opacity:1;paint-order:markers stroke fill"
       id="path4528"
       d="m 1987.8776,1656.4309 c 0,-1.5286 -0.078,-3.0593 0,-4.5859 0.508,-9.8969 2.0001,-19.8612 2.9774,-29.7079 1.2678,-12.7722 2.4387,-25.5539 3.6656,-38.33 3.8563,-32.0808 6.7829,-64.2514 9.2584,-96.4642 1.2391,-17.918 2.7915,-35.8035 3.4511,-53.7551 0.669,-13.9196 1.5595,-27.8411 2.9484,-41.7089 1.2625,-10.6743 1.9127,-21.4069 3.1078,-32.0874 1.2713,-13.1419 2.2385,-26.3169 3.1739,-39.4881 0.9194,-10.0766 1.8641,-20.1489 2.465,-30.2505 0.3611,-14.5065 -5.0601,-24.5399 -17.1259,-32.6416 -4.6865,-3.1468 -9.6941,-4.393 -14.9295,-6.0435 -13.6546,-4.1101 -27.7178,-1.7205 -41.3762,0.9914 -8.6647,1.544 -17.0139,4.3303 -25.4552,6.7351 -11.7605,3.4302 -19.0307,7.8307 -25.0719,19.7382 -1.93,3.804 -2.6066,8.1233 -3.91,12.185 -7.1337,31.4944 -9.4145,63.777 -11.1591,95.9355 -1.8446,34.847 -0.8901,69.7597 -2.2161,104.6147 -0.447,4.9927 -0.896,9.9852 -1.341,14.9781 -1.4388,16.145 -2.1769,22.0019 -2.6754,38.4746 -0.5047,16.6803 0.1869,33.1871 1.4128,49.8093 1.2286,13.9525 3.5094,27.7811 4.9256,41.7122 0.7317,7.197 1.3069,14.4091 1.973,21.6124 0.8124,8.5311 1.3427,17.1292 2.9915,25.5573 0.3506,1.7921 2.2081,9.9396 3.3468,11.9117 2.1963,3.8041 5.0222,7.2081 7.5334,10.8122 11.1908,0.2089 22.7652,3.5388 33.5726,0.6267 4.8563,-1.3086 6.4491,-7.7741 9.0124,-12.1015 2.986,-5.041 6.8484,-18.7543 8.0392,-23.5882 3.1759,-12.8919 3.89,-19.8069 5.8879,-33.0774 4.3722,-32.9028 5.1724,-66.1094 5.6866,-99.251 0.9084,-28.6882 1.9473,-57.3716 3.298,-86.0422 1.0337,-24.4494 3.0271,-48.7994 5.799,-73.1077 2.1254,-15.6702 4.4989,-31.3075 5.9829,-47.0547 0.9266,-8.6305 2.2334,-17.2078 3.5455,-25.7854 5.3454,-34.9489 -44.0798,-42.5084 -49.4252,-7.5595 v 0 c -1.4609,9.5524 -2.8998,19.1077 -3.9061,28.7218 -1.4044,15.4051 -3.8899,30.6811 -5.8756,46.0175 -2.8927,25.4076 -4.9755,50.8616 -6.0651,76.4151 -1.3754,29.1973 -2.4361,58.4079 -3.3475,87.6235 -0.4749,30.9432 -1.1565,61.9493 -5.1504,92.6801 -1.6839,11.5339 -2.0675,15.8825 -4.5596,26.8723 -0.6734,2.9693 -1.4716,5.9116 -2.354,8.8258 -0.534,1.7633 -3.7055,4.8732 -1.8912,5.1937 11.8096,2.0862 7.0958,-65.9597 35.9268,-1.9052 1.7792,2.9187 3.5551,5.8394 5.3376,8.7561 0.1161,0.1899 -0.2657,-0.3654 -0.3384,-0.5757 -0.2771,-0.8017 -0.5324,-1.6146 -0.7057,-2.4449 -1.5187,-7.278 -1.767,-14.7559 -2.5538,-22.1246 -1.9301,-20.8705 -4.2349,-41.6793 -6.8276,-62.4773 -1.1211,-14.5153 -1.7471,-28.9437 -1.3358,-43.5145 0.4524,-16.0252 1.1479,-20.5917 2.5498,-36.6575 0.5082,-5.8237 0.9976,-11.649 1.4964,-17.4736 1.2611,-34.5805 0.4527,-69.2079 2.1781,-103.7808 1.5346,-28.6193 3.4846,-57.3302 9.4582,-85.4303 0.1493,-4.7355 0.6169,-1.903 -4.1606,1.6507 -1.353,1.0064 -2.937,1.6596 -4.4386,2.4265 -0.143,0.073 -0.6248,0.1391 -0.4745,0.083 1.1911,-0.4451 2.4291,-0.7568 3.6144,-1.2197 7.1624,-2.0644 14.2451,-4.46 21.5982,-5.793 4.1875,-0.8738 5.0725,-1.1328 9.346,-1.7207 1.482,-0.2038 3.0146,-0.1161 4.4593,-0.5043 0.2936,-0.079 -1.0726,-0.4419 -0.7718,-0.4865 0.5045,-0.075 3.8712,0.6047 4.3331,0.692 0.545,0.1122 1.1023,0.4974 1.635,0.3368 0.2611,-0.079 -0.2489,-0.4886 -0.4154,-0.7045 -0.9446,-1.2248 -2.1276,-2.2793 -2.9133,-3.6115 -2.196,-3.724 -1.8137,-5.076 -2.1762,-9.3325 -0.03,-0.3567 0.062,0.7132 0.094,1.0697 -0.5814,9.9069 -1.5586,19.7802 -2.4268,29.6648 -0.8864,12.5211 -1.8073,25.0455 -2.9975,37.5399 -1.1866,10.8742 -1.9155,21.79 -3.1673,32.6578 -1.455,14.9031 -2.4776,29.8527 -3.1577,44.8108 -0.6176,17.2791 -2.1749,34.4904 -3.3371,51.7383 -2.4489,31.8962 -5.3615,63.7482 -9.1763,95.5137 -1.2135,12.6361 -2.3695,25.2778 -3.6234,37.91 -1.153,11.6152 -2.6876,23.2393 -3.2486,34.9077 -0.073,1.5268 0,3.0573 0,4.5859 0,35.3553 50,35.3553 50,0 z" /><path
       style="fill:#80e5ff;fill-opacity:1;stroke:none;stroke-width:100;stroke-dasharray:none;stroke-opacity:1;paint-order:markers stroke fill"
       id="path4530"
       d="m 2014.0355,1293.6727 c -1.6636,-10.8705 -3.086,-21.775 -3.9561,-32.7389 -2.8447,-35.2407 -52.6826,-31.2178 -49.8379,4.023 v 0 c 0.9101,11.1252 2.1628,22.2296 3.9993,33.2427 3.2009,35.2102 52.9956,30.6834 49.7947,-4.5268 z" /><path
       style="fill:#80e5ff;fill-opacity:1;stroke:none;stroke-width:100;stroke-dasharray:none;stroke-opacity:1;paint-order:markers stroke fill"
       id="path4532"
       d="m 2171.8858,1075.0651 c 31.3826,-0.1295 62.7605,0.055 94.1401,0.4687 39.9387,0.029 79.8401,1.6082 119.7446,3.0538 21.1521,0.8483 42.3163,1.2479 63.4835,1.4056 14.7093,0.2152 29.3697,1.4733 44.0467,2.3579 5.5483,0.3206 11.1017,0.5336 16.6554,0.7332 35.3327,1.2654 37.1222,-48.7025 1.7895,-49.9679 v 0 c -5.1486,-0.1837 -10.2969,-0.3801 -15.4406,-0.675 -15.5537,-0.935 -31.0906,-2.262 -46.6799,-2.4468 -20.6875,-0.1529 -41.3719,-0.5435 -62.0446,-1.3743 -40.2882,-1.4593 -80.5736,-3.0462 -120.8961,-3.0822 -31.5992,-0.416 -63.1965,-0.6028 -94.7986,-0.473 -35.3554,0 -35.3554,50 0,50 z" /><path
       style="fill:#80e5ff;fill-opacity:1;stroke:none;stroke-width:100;stroke-dasharray:none;stroke-opacity:1;paint-order:markers stroke fill"
       id="path4534"
       d="m 2132.2035,1167.7934 c 18.1457,1.3501 36.322,2.0493 54.5089,2.533 4.3803,0.08 8.7602,0.1797 13.1408,0.2394 13.709,0.1866 22.1676,0.076 36.1108,0.6691 20.4754,0.8704 40.8949,2.7457 61.3016,4.5592 33.5807,3.6558 67.0904,7.8153 100.7989,10.1165 27.7734,1.5838 55.6047,1.6125 83.4139,1.6862 22.7662,-0.055 45.5241,-0.1138 68.2844,0.4099 9.9669,0.1314 19.9304,0.6083 29.8979,0.7057 6.6659,0.065 12.3602,0.2557 18.9133,-2.2846 4.2137,-1.6334 7.8483,-4.4831 11.7724,-6.7247 2.633,-3.2324 5.8305,-6.0773 7.8988,-9.697 7.3328,-12.8332 4.8115,-27.821 1.8804,-41.4065 -2.4205,-10.8826 -8.0491,-20.1526 -16.912,-26.9798 -5.1798,-3.9901 -8.2363,-4.5928 -14.5483,-7.0743 -14.3854,-4.4392 -29.5253,-5.6979 -43.943,-9.9492 -12.0488,-4.4558 -24.5395,-7.4232 -37.0006,-10.4473 -22.9024,-7.2766 -46.7317,-10.3664 -70.5383,-12.8681 -27.215,-2.5223 -54.5633,-2.7755 -81.863,-3.6378 -19.7394,-0.8743 -39.4404,-2.3836 -59.0871,-4.4571 -21.0894,-2.3416 -42.2172,-4.3131 -63.3419,-6.3107 -10.4048,-0.9417 -20.8709,-1.802 -31.3221,-1.0557 -5.2239,0.3731 -11.4519,1.3058 -16.6834,2.0245 -12.6649,1.2881 -24.9284,4.9054 -35.8789,11.4988 -2.2631,1.3628 -4.3824,2.9514 -6.5736,4.427 -2.0962,1.7648 -8.4346,6.7633 -9.9704,9.3285 -7.9688,13.3101 -11.0327,21.4023 0.2459,37.3557 7.1776,10.1527 22.8155,11.3436 33.4197,13.404 39.6603,4.6037 79.6084,6.375 119.4874,7.9579 44.8591,2.3932 89.7645,3.7756 134.5871,6.8133 37.7071,2.5511 75.1692,7.6468 112.4364,13.815 5.9665,1.0974 10.897,1.76 16.5341,3.4405 0.3502,0.1044 1.2336,0.7764 0.9516,0.5441 -4.0508,-3.3366 -11.9247,-4.6296 -12.2692,-9.8663 -1.9924,-30.2906 -0.2749,-30.0249 12.6893,-35.7817 -2.4181,0.1197 -1.0235,0.051 -4.184,0.2041 -35.2985,2.0024 -32.4667,51.9221 2.8319,49.9197 v 0 c 6.5506,-0.4022 3.171,-0.1131 10.1359,-0.9014 17.8446,-4.8906 22.5038,-3.4468 21.8646,-38.3775 -0.2278,-12.4488 -32.3453,-17.074 -40.3979,-18.5118 -38.8535,-6.4176 -77.9096,-11.7173 -117.22,-14.3708 -45.2873,-3.0547 -90.6549,-4.49 -135.9793,-6.888 -37.7367,-1.494 -75.5212,-3.2162 -113.0792,-7.2884 -2.5109,-0.2989 -6.387,-3.1511 -7.5325,-0.8969 -1.1641,2.2908 4.2456,3.4045 5.0117,5.8572 5.6305,18.0254 4.6827,15.4652 -2.5225,27.1895 -0.4651,0.7568 2.7083,-4.46 1.713,-2.0415 2.4208,-1.9636 4.9966,-3.2838 7.7925,-4.6455 0.5747,-0.2798 1.105,-0.6765 1.7217,-0.8445 2.3679,-0.6449 9.1132,-1.5326 11.0263,-1.8113 0.098,-0.014 10.672,-1.5003 11.7009,-1.5887 8.2594,-0.7097 16.5328,0.1712 24.757,0.8683 20.9447,1.9797 41.8926,3.9329 62.802,6.2566 20.8655,2.2005 41.7903,3.798 62.7545,4.7082 26.0959,0.8242 52.2381,1.0547 78.2578,3.3933 21.6016,2.2311 43.1811,5.0373 63.9345,11.7282 11.8913,2.8835 23.7764,5.7501 35.2773,9.9966 2.7737,0.7557 5.5261,1.5948 8.3212,2.2672 10.9845,2.6424 22.2525,4.0198 33.1788,6.9285 -0.3573,-1.3032 -0.8921,-1.3673 -1.7218,-2.8334 -0.5891,-1.0409 -1.3016,-5.6855 0.3292,0.3593 0.2657,1.132 0.5635,2.257 0.7972,3.3961 0.3135,1.5279 0.074,3.3289 1.0235,4.566 0.9637,1.255 4.481,-10.1052 6.7073,-7.3373 1.818,-0.6203 3.5706,-1.4832 5.454,-1.8609 0.5344,-0.1072 2.1131,0.3913 1.5714,0.452 -2.0093,0.2252 -4.0438,0.072 -6.0656,0.052 -9.9666,-0.099 -19.9291,-0.5736 -29.8952,-0.7056 -23.0992,-0.5302 -46.196,-0.4841 -69.3011,-0.4229 -26.7224,-0.07 -53.4661,-0.084 -80.1557,-1.5714 -33.3662,-2.2567 -66.5236,-6.4834 -99.7683,-10.0357 -21.4513,-1.902 -42.9093,-3.8341 -64.4328,-4.7383 -14.4084,-0.6053 -22.4849,-0.4887 -36.4932,-0.6776 -4.2416,-0.057 -8.4824,-0.1533 -12.7236,-0.23 -17.3491,-0.4578 -34.6887,-1.1139 -51.9985,-2.4033 -35.2512,-2.7116 -39.086,47.1411 -3.8348,49.8527 z" /></g></svg>
