<?xml version="1.0" encoding="UTF-8" standalone="no"?>
<!-- Created with Inkscape (http://www.inkscape.org/) -->

<svg
   width="3840mm"
   height="2160mm"
   viewBox="0 0 3840 2160"
   version="1.1"
   id="svg18505"
   inkscape:version="1.2.2 (732a01da63, 2022-12-09)"
   sodipodi:docname="scythe attack.svg"
   inkscape:export-filename="..\..\attacks\scytheAttack.png"
   inkscape:export-xdpi="96.096664"
   inkscape:export-ydpi="96.096664"
   xmlns:inkscape="http://www.inkscape.org/namespaces/inkscape"
   xmlns:sodipodi="http://sodipodi.sourceforge.net/DTD/sodipodi-0.dtd"
   xmlns="http://www.w3.org/2000/svg"
   xmlns:svg="http://www.w3.org/2000/svg">
  <sodipodi:namedview
     id="namedview18507"
     pagecolor="#ffffff"
     bordercolor="#000000"
     borderopacity="0.25"
     inkscape:showpageshadow="2"
     inkscape:pageopacity="0.0"
     inkscape:pagecheckerboard="0"
     inkscape:deskcolor="#d1d1d1"
     inkscape:document-units="mm"
     showgrid="false"
     inkscape:zoom="0.04"
     inkscape:cx="4362.5"
     inkscape:cy="3725"
     inkscape:window-width="1920"
     inkscape:window-height="986"
     inkscape:window-x="-11"
     inkscape:window-y="-11"
     inkscape:window-maximized="1"
     inkscape:current-layer="layer1" />
  <defs
     id="defs18502" />
  <g
     inkscape:label="Layer 1"
     inkscape:groupmode="layer"
     id="layer1">
    <path
       style="fill:#ececec;fill-opacity:1;stroke-width:40;paint-order:markers stroke fill"
       id="path6090"
       d="m 1681.8375,535.97645 c 10.463,-5.44025 21.6336,-9.40231 32.6256,-13.6308 8.7089,-2.75516 16.8604,-6.60347 24.3803,-11.77187 0.3609,-0.215 0.7009,-0.46995 1.0829,-0.64505 0.8622,-0.39537 1.7962,-0.61119 2.6873,-0.93626 3.5064,-1.27897 7.0799,-2.28536 10.6695,-3.30128 12.2709,-3.2294 24.738,-5.62092 37.1024,-8.45378 12.7442,-2.73656 25.6711,-4.5075 38.5338,-6.58533 11.6488,-1.92854 23.3197,-3.69194 34.913,-5.93955 9.8898,-2.11796 19.883,-3.78806 29.5945,-6.64736 3.3045,-0.77732 6.2876,-2.49264 9.4882,-3.55103 0.8216,-0.27172 1.6862,-0.39454 2.5167,-0.63791 11.6892,-4.14015 16.7344,-5.03274 11.7636,-32.01289 -1.0945,-5.94119 -10.4005,-6.3046 -16.084,-8.35252 -2.1274,-0.76655 -4.5257,-0.0246 -6.7828,0.11289 -2.3245,0.14174 -9.3246,1.15433 -11.541,1.46019 -13.4966,1.76852 -26.8701,4.39057 -40.0585,7.74372 -4.2175,1.19075 -8.4298,2.40474 -12.5872,3.79349 -0.5978,0.1997 -1.9637,0.0254 -1.7831,0.62923 11.8992,39.79791 1.1346,42.79574 17.0658,36.15716 7.7633,-2.88009 15.6624,-5.37265 23.6765,-7.45008 9.6313,-2.19628 19.5042,-2.7155 29.3205,-3.43252 31.9552,-2.33416 -11.6621,0.75771 20.1575,-1.48254 20.039,-1.58462 40.1286,-2.33699 60.2059,-3.24554 20.3178,-0.87556 40.6577,-0.97076 60.9908,-1.07863 16.5094,0.10989 32.9264,-1.7218 49.3915,-2.59678 17.9817,-0.55816 35.9511,-0.88955 53.8888,-2.35053 14.9243,-1.52937 29.9036,-2.34865 44.8886,-2.97352 -0.3776,-2.00456 6.9402,1.66799 6.7025,-0.56136 -1.4286,-13.40136 -0.9113,-27.97556 -7.5063,-39.72899 -2.4148,-4.30363 -9.8696,-0.0269 -14.8044,-0.0326 -14.2764,-0.0164 -40.8404,-0.0156 -54.5601,-0.0172 -33.2869,0.18341 -66.6118,-0.69877 -99.8574,1.45814 -15.1038,0.97989 -21.4541,1.87055 -36.0456,3.53714 -14.2388,1.78625 -28.4046,4.23161 -42.2261,8.13472 -5.2627,1.48616 -10.4755,3.14433 -15.7268,4.67018 -7.9808,2.22888 -15.8914,4.79947 -24.0653,6.26306 -4.6208,0.82738 -7.63,1.02344 -12.3903,1.49762 -7.0598,0.49369 -7.4753,0.56486 -14.4278,0.88913 -2.0609,0.0961 -4.1234,0.33245 -6.1846,0.24464 -1.8001,-0.0767 -3.5801,-0.42511 -5.3547,-0.73623 -6.0098,-1.05368 -8.0175,-1.69619 -13.9429,-3.2226 -6.6763,-1.90304 -13.3898,-3.68572 -20.0114,-5.76741 -0.5965,-0.18754 1.7899,-0.0228 1.7765,0.60237 -0.2624,12.22815 -1.7166,24.4016 -2.5748,36.60241 1.3293,0.0632 2.6572,0.18955 3.988,0.18949 26.5851,0 53.1856,-1.22848 79.679,-3.33102 18.8586,-2.06629 37.7143,-4.28726 56.6905,-4.94289 11.301,-0.39048 25.1665,-0.28446 36.337,-0.2866 34.2115,0.19407 68.4209,0.63656 102.6307,1.01579 10.9076,-0.0657 21.8561,0.64235 32.7478,-0.27427 2.7434,-0.23088 5.4732,-0.60195 8.2098,-0.90294 16.5221,-2.6579 32.9384,-6.11286 49.1374,-10.31709 7.2448,-2.15995 14.2913,-4.79097 21.7849,-5.9359 17.5443,-2.13373 15.5603,0.16142 -3.368,-39.83831 -1.2674,-2.67832 -5.9112,0.42476 -8.8703,0.57862 -9.9091,0.51517 -16.4757,0.65413 -26.5038,0.95557 -23.7719,0.576 -47.5515,0.71659 -71.3293,0.79129 -19.1794,0.0665 -14.7603,-2.80318 -5.2389,39.99674 0.4711,2.1172 4.338,-0.005 6.5069,-0.006 3.29,-0.003 6.5799,-0.003 9.8699,-0.005 43.1468,-0.0251 86.2547,2.52264 129.322,4.90566 33.3088,1.59632 66.5469,4.20736 99.7459,7.2979 15.011,1.5526 30.1044,1.79181 45.1646,2.61416 17.6031,1.04392 35.1829,2.47407 52.7937,3.38466 1.5726,0.17828 3.1523,0.30236 4.7178,0.53483 4.6962,0.69736 6.9761,1.34588 11.761,2.42908 8.685,1.96604 17.3281,4.06281 25.9773,6.18088 11.9291,2.97043 23.812,6.2085 35.5349,9.91555 15.8384,4.75676 30.912,11.68705 45.7087,18.99457 21.765,12.31953 42.1088,26.99798 62.5514,41.36208 16.9101,12.14199 35.069,22.36054 52.3526,33.93141 6.2696,4.30609 11.7734,9.62363 18.0462,13.92478 3.3702,2.31095 6.2005,3.89967 9.6639,5.92833 6.6466,3.50571 13.0368,7.51338 19.1749,11.84585 8.4682,6.07359 16.4843,12.73299 24.2985,19.61917 7.1573,6.43348 14.0756,13.17204 20.6923,20.16453 5.6996,5.93103 11.7184,11.52596 18.1345,16.67071 2.1151,1.83213 4.5038,3.32949 6.6276,5.15075 1.5023,1.2882 2.7919,2.80561 4.1875,4.20875 1.9434,1.95376 6.0434,6.13733 7.8375,7.96512 5.4756,5.87362 11.2649,11.48363 16.2764,17.77355 2.2696,2.84855 3.2692,4.36345 5.3414,7.31369 3.9656,6.0965 7.7092,12.33204 11.6806,18.42569 6.51,9.13799 12.3063,18.76848 18.2327,28.29142 4.6191,8.46251 11.317,15.31226 17.6942,22.40478 2.0971,2.52476 4.6093,4.83817 6.2241,7.73512 0.5972,1.07164 0.9673,2.25494 1.4531,3.38156 1.8232,4.00881 3.1059,8.24328 4.8657,12.27683 1.1078,2.53894 2.3429,5.02039 3.5041,7.5353 4.4897,9.30889 8.8995,18.64284 12.686,28.26335 3.9769,11.99994 8.1791,23.92288 12.2476,35.89184 0.4143,1.27437 0.8186,2.55193 1.2424,3.82307 1.0121,3.03424 1.963,6.1831 3.2063,9.13543 1.007,2.39149 2.3278,4.82748 1.2147,2.74709 37.8179,-58.98359 2.7866,-21.92401 23.477,-26.1915 0.8146,-0.16801 -1.3116,-1.02299 -1.9677,-1.53411 -1.751,-1.3643 -3.4973,-2.73534 -5.2541,-4.09215 -37.5172,-28.9705 21.6651,16.8244 -19.6869,-15.18732 -3.362,-2.69891 -6.7453,-5.37168 -10.0864,-8.09673 -6.6564,-5.42935 -11.0453,-9.06957 -17.2797,-14.78478 -6.5032,-5.96154 -12.6376,-12.29979 -19.0955,-18.31126 -9.3716,-8.39073 -20.8566,-13.26264 -32.1395,-18.40627 -6.4685,-2.94894 -7.3996,-3.45842 -13.7395,-6.56264 -12.2465,-6.40919 -24.6457,-12.51524 -36.997,-18.71679 -12.3923,-5.83999 -24.302,-12.59549 -36.1397,-19.46936 -18.1253,-10.5714 -36.6175,-20.4851 -54.9153,-30.7485 -17.3569,-9.95527 -34.671,-19.95765 -52.5518,-28.94658 -8.5271,-4.09575 -16.8535,-8.68154 -25.6208,-12.26508 -4.7142,-1.92688 -7.2945,-2.72253 -12.0288,-4.32247 -10.0379,-2.70343 -19.9154,-5.89648 -29.7865,-9.14985 -9.2033,-3.53584 -18.5014,-6.79929 -27.8161,-10.02569 -8.9182,-2.84301 -17.8226,-5.81576 -27.0455,-7.52994 -6.0084,-1.1167 -8.9637,-1.3376 -14.9721,-2.00528 -2.4032,-0.18105 -4.8056,-0.37192 -7.2095,-0.54319 -6.9009,-0.49159 -13.7712,-0.99237 -20.6248,-1.98771 -4.2399,-0.61576 -14.101,-2.37164 -18.2072,-3.08916 -13.7914,-2.38549 -27.3782,-5.77424 -41.1025,-8.5008 -1.3834,-0.25207 -2.7669,-0.50414 -4.1504,-0.75621 -1.1558,-0.18669 -2.3148,-0.35533 -3.4676,-0.56004 -0.5002,-0.0888 -0.9982,-0.19294 -1.4899,-0.32033 -0.1813,-0.047 -0.711,-0.21524 -0.5243,-0.20148 0.7578,0.0558 1.5479,0.46701 2.2189,0.74924 1.253,0.29533 1.854,1.73321 2.8683,2.30548 0.2543,0.14351 -0.2763,-0.5148 -0.4256,-0.76573 -0.4034,-0.67768 -0.8357,-1.33768 -1.2536,-2.00655 -5.4361,-8.75144 -14.851,-12.94519 -24.0162,-16.64811 -6.271,-2.4974 -12.6793,-4.60269 -19.3517,-5.71222 -4.5951,-0.76409 -8.648,-1.07461 -13.2798,-1.52131 -11.6407,-1.02507 -23.3261,-1.26203 -35.0045,-1.37546 -11.9375,-0.0686 -23.8753,-0.0418 -35.8129,-0.031 -13.2295,0.28485 -26.4407,-0.55803 -39.6308,-1.48193 -13.7269,-1.30334 -27.4441,-2.63985 -41.2092,-3.46948 -14.4194,-0.78825 -28.8635,-0.83304 -43.2997,-0.88503 -19.4004,0.0556 -38.8041,-0.19582 -58.2023,0.13877 -15.0657,0.34941 -30.1303,1.03206 -45.0934,2.85282 -11.4182,1.79298 -22.8091,3.70919 -34.335,4.65167 -10.6068,1.04745 -21.1583,2.38148 -31.5623,4.71937 -7.7623,2.41387 -15.5357,4.77679 -23.3614,6.97661 -10.3121,3.68038 -21.0349,5.94 -31.6698,8.45413 -14.1787,3.7111 -28.4344,7.08768 -42.7883,10.04871 -9.8091,1.7784 -19.3913,4.56957 -29.1839,6.40977 -7.787,0.68689 -14.8377,4.10954 -22.1715,6.46742 -8.9007,2.51127 -17.7239,5.23984 -26.4328,8.35136 -9.4448,3.23845 -19.0698,5.87786 -28.8425,7.90991 -8.6504,1.79763 -17.2936,3.62117 -25.7835,6.07896 -27.1368,7.97451 -15.8592,46.35177 11.2777,38.37726 v 0 c 7.4679,-2.24909 15.1545,-3.63641 22.7617,-5.31747 11.5302,-2.45927 22.919,-5.50735 34.0596,-9.38596 8.386,-3.00424 16.9068,-5.54903 25.4643,-8.01886 1.5364,-0.51295 3.082,-0.99914 4.6092,-1.53884 4.1775,-1.47638 7.9728,-3.4839 12.5326,-3.62839 9.9933,-1.91849 19.801,-4.63735 29.8013,-6.53225 14.7238,-3.04548 29.3572,-6.47723 43.9005,-10.29504 11.1746,-2.64282 22.4511,-5.02512 33.291,-8.87349 7.1881,-2.02102 14.3786,-4.06146 21.4422,-6.48801 8.5472,-1.9995 17.2622,-2.89824 25.9768,-3.85328 12.057,-1.01949 24.0015,-2.84779 35.9368,-4.81764 13.5532,-1.72077 27.226,-2.16972 40.8742,-2.55495 19.1155,-0.34332 38.2377,-0.0637 57.3554,-0.13282 13.6857,0.0488 27.3791,0.0803 41.0494,0.81359 13.6366,0.81275 27.2202,2.19136 40.8218,3.44435 14.1277,0.98015 28.2788,1.86486 42.4479,1.57874 11.7977,-0.0106 23.5954,-0.037 35.3929,0.0292 10.5453,0.10001 21.0974,0.29289 31.6103,1.19848 3.9202,0.36433 8.0887,0.49639 11.9547,1.3493 3.3239,0.73332 6.4898,2.0915 9.6797,3.23418 5.8211,2.25039 0.5224,0.15611 5.2418,2.12845 0.3088,0.12903 1.0505,0.67405 0.9375,0.35906 -0.2629,-0.73282 -0.9887,-1.20338 -1.4621,-1.82144 -0.1004,-0.13108 0.4156,0.39513 0.3615,0.33864 0.9352,1.30251 -0.6144,-0.87689 1.7419,2.85567 2.5831,4.09157 5.8825,7.65757 9.9892,10.25454 1.251,0.68484 2.4584,1.45642 3.7531,2.05459 5.2685,2.43409 11.0262,3.08417 16.6702,4.09869 14.026,2.7773 27.904,6.2729 42.0055,8.66915 5.9207,1.03285 14.3493,2.54767 20.2527,3.39204 7.4786,1.06966 14.9899,1.65296 22.5205,2.17284 1.9415,0.13401 3.8823,0.27786 5.8234,0.41679 4.1751,0.44122 6.8731,0.65403 10.9888,1.36748 7.611,1.31937 14.9024,3.93549 22.2633,6.19971 9.5048,3.2911 18.9784,6.65327 28.3855,10.21813 9.7969,3.22871 19.5942,6.44194 29.5702,9.0778 2.6983,0.89935 6.0426,1.96697 8.6917,3.03279 8.1438,3.27657 15.8208,7.6278 23.7417,11.38161 17.3438,8.70246 34.0966,18.46437 50.94,28.09049 18.1266,10.16267 36.4411,19.98671 54.3976,30.45296 12.5401,7.27858 25.1621,14.42299 38.2791,20.62597 12.4764,6.25983 24.9925,12.43949 37.3676,18.90032 7.0157,3.42723 7.897,3.91594 15.0231,7.16238 7.2821,3.31771 14.9076,6.11116 21.2158,11.19005 6.7109,6.20821 13.0501,12.78559 19.8022,18.95157 6.7109,6.12849 11.6541,10.24136 18.7532,16.02658 3.5221,2.87031 7.089,5.68534 10.6336,8.528 7.2654,5.62422 12.6074,9.77918 19.8294,15.29741 2.658,2.03078 10.8599,8.58047 14.3849,10.00885 3.7449,1.51741 8.4632,5.66076 11.6856,3.22275 8.8418,-6.69007 13.058,-17.92298 19.5868,-26.88447 -1.9367,-4.81041 -3.9039,-9.72645 -5.3617,-14.85024 -4.2844,-12.60121 -8.6673,-25.1687 -12.9403,-37.77313 -4.1087,-10.28536 -8.7072,-20.34368 -13.5596,-30.29834 -0.8409,-1.81549 -1.7923,-3.57968 -2.5956,-5.41213 -2.0397,-4.65289 -3.4872,-9.55871 -5.6629,-14.15717 -1.9624,-4.21645 -2.3997,-5.47402 -4.9421,-9.54402 -2.6802,-4.29014 -6.1293,-8.04532 -9.4581,-11.82539 -4.818,-5.32255 -10.0264,-10.30299 -13.4278,-16.73985 -6.0767,-9.76209 -12.0306,-19.63134 -18.6899,-29.00833 -4.2498,-6.50899 -8.1952,-13.20946 -12.5236,-19.66701 -3.007,-4.2309 -4.0581,-5.83991 -7.3903,-9.9677 -5.6957,-7.05533 -12.1288,-13.46012 -18.3433,-20.04748 -7.1012,-7.2331 -14.0264,-14.72742 -22.324,-20.62893 -5.0106,-3.91448 -9.5588,-8.3621 -14.0088,-12.89595 -7.4671,-7.83442 -15.2043,-15.44206 -23.276,-22.65045 -8.9267,-7.83574 -18.0697,-15.43224 -27.7476,-22.3317 -7.0678,-4.93276 -14.3478,-9.60758 -21.9715,-13.63843 -1.9934,-1.15906 -4.0606,-2.20107 -5.9728,-3.48996 -6.854,-4.62052 -12.7087,-10.6055 -19.6791,-15.07611 -17.0432,-11.37439 -34.8798,-21.51428 -51.5845,-33.40518 -22.1251,-15.54248 -44.145,-31.44793 -67.8597,-44.50964 -16.6481,-8.19393 -33.6127,-15.92278 -51.4168,-21.28155 -12.5522,-3.91628 -25.2296,-7.46643 -37.9993,-10.60328 -16.481,-4.03588 -32.9795,-8.64143 -49.9152,-10.23996 -17.5702,-0.89884 -35.1075,-2.35468 -52.6704,-3.37809 -14.5505,-0.79267 -29.1323,-1.01984 -43.6359,-2.5014 -33.6973,-3.13613 -67.4348,-5.7839 -101.2433,-7.40897 -43.8102,-2.42379 -87.6618,-4.99909 -131.5531,-4.96673 -3.295,0.003 -6.59,0.003 -9.885,0.005 -2.1887,0.003 -6.078,-2.12754 -6.566,0.006 -9.7842,42.78376 -13.9605,39.99447 5.4603,40.00293 24.1382,-0.076 48.2782,-0.22008 72.4101,-0.80928 9.1466,-0.27712 18.9449,-0.5093 28.0937,-1.03523 3.83,-0.22019 10.5496,2.87488 11.4775,-0.84744 3.2427,-13.00837 0.01,-26.85211 -1.2454,-40.2 -0.2288,-2.44056 -9.0975,5.95236 -7.2939,0.93724 -8.77,1.504 -16.9566,3.85532 -25.3668,6.69599 -14.3749,3.76278 -28.9607,6.7663 -43.6014,9.28434 -1.9319,0.23347 -3.8575,0.527 -5.7957,0.7004 -10.0293,0.89731 -20.1243,0.0904 -30.169,0.21969 -34.3622,-0.38092 -68.724,-0.82593 -103.0879,-1.01825 -12.7839,0.006 -25.7386,-0.10853 -38.5239,0.34716 -19.3013,0.68794 -38.4922,2.86231 -57.6714,5.00906 -16.0388,1.2872 -32.0216,2.1631 -48.1081,2.6261 -5.4824,0.1578 -10.9658,0.28099 -16.4493,0.39309 -4.5577,0.0932 -9.1198,0.0265 -13.6743,0.2227 -3.8498,0.16584 -7.6852,0.57526 -11.5278,0.86286 -2.3036,12.54527 -6.1746,24.90208 -6.9106,37.63584 -0.098,1.68796 3.0401,1.48921 4.6132,2.10873 7.2764,2.86541 15.2068,3.94663 22.5788,6.50843 7.2572,1.80779 12.2117,3.24247 19.7385,4.24109 3.632,0.48188 7.2926,0.77396 10.9541,0.90569 2.2411,0.0807 4.4822,-0.16348 6.7222,-0.26969 7.9396,-0.37639 8.1775,-0.4477 16.4018,-1.04346 7.3534,-0.77872 9.528,-0.86196 16.6925,-2.17985 9.0997,-1.67381 17.9407,-4.44624 26.8275,-6.96055 7.25,-2.10963 14.4438,-4.48207 21.7811,-6.27788 5.9688,-1.46087 10.9648,-2.41152 17.1191,-3.3928 4.139,-0.65995 8.2958,-1.20275 12.4438,-1.80412 13.3094,-1.53458 19.6602,-2.41842 33.392,-3.32187 32.6078,-2.14532 65.2979,-1.20062 97.9466,-1.41269 14.9789,0.003 39.0997,0 54.4804,0.0169 4.7791,0.005 12.6248,4.49066 14.3374,0.0289 4.733,-12.33051 -0.141,-26.44378 0.8568,-39.61368 0.055,-0.72144 2.8831,-0.17312 2.1605,-0.20855 -1.1099,-0.0544 -2.2202,0.10081 -3.3302,0.15121 -15.5256,0.64868 -31.0454,1.49897 -46.5089,3.07412 -17.5524,1.46896 -35.1448,1.6484 -52.7395,2.27235 -15.8235,0.85338 -31.6009,2.59185 -47.4649,2.5401 -20.8653,0.11099 -41.7374,0.21529 -62.5868,1.11898 -20.4116,0.92395 -40.8354,1.69407 -61.2082,3.3035 -26.6053,1.87519 5.572,-0.41428 -20.1387,1.48122 -12.2921,0.90625 -24.6417,1.70715 -36.6629,4.64008 -10.2583,2.70806 -20.4319,5.82803 -30.2733,9.81223 13.7364,-3.39362 -0.017,-0.27149 13.1439,37.83629 0.079,0.22984 0.4535,-0.17611 0.6839,-0.25374 3.3407,-1.12548 6.7306,-2.09348 10.1153,-3.07607 11.7233,-3.01733 23.6356,-5.28992 35.6376,-6.87541 2.7939,-0.38838 5.6295,-0.54112 8.3837,-1.14998 0.096,-0.0212 0.1455,-0.2308 0.065,-0.28652 -3.9103,-2.70483 -11.5899,-3.14333 -11.8839,-7.8889 -1.4143,-22.83094 18.3718,-35.8621 9.3438,-29.88987 -4.1925,1.22867 -8.2551,2.72233 -12.3239,4.2839 -8.3519,2.65771 -17.1634,3.60209 -25.6618,5.67359 -11.1741,2.18043 -22.4329,3.83889 -33.6599,5.71648 -13.719,2.21869 -27.5073,4.10977 -41.0898,7.08433 -13.0447,2.99251 -26.2053,5.49193 -39.1338,8.97591 -9.1796,2.63353 -18.5773,5.29182 -26.5776,10.69874 -4.5684,3.60508 -10.2986,5.01314 -15.6379,7.09062 -12.8778,4.95679 -25.9534,9.63745 -38.1059,16.23259 -24.5577,14.03291 -4.7121,48.76265 19.8455,34.72973 z" />
    <path
       style="fill:#ececec;stroke-width:944.882;paint-order:markers stroke fill"
       d="m 8271.1426,1578.6865 c -292.2963,3.2616 -584.9796,12.5491 -875.1199,50.4113 -206.6099,26.6451 -418.7963,39.8716 -615.9323,112.0643 -99.5162,54.4314 -207.2785,93.48 -315.0625,128.2763 -95.366,20.9337 -180.5338,69.987 -271.7051,102.1925 -97.6366,23.6647 -200.6952,27.3751 -296.4966,59.7534 -17.9899,70.8331 -17.8668,160.2294 -87.1581,204.065 -103.273,65.961 -229.6367,79.3847 -347.9005,100.537 -152.5889,8.3075 -306.4813,-5.663 -458.728,-9.851 -44.5276,151.3313 -54.6125,310.2187 -78.7274,465.564 -14.8756,141.1717 -43.9024,281.8517 -43.3063,424.121 -4.1118,66.6473 16.9052,40.117 37.8177,-3.9548 67.3427,-105.8435 134.4965,-211.781 195.0822,-321.685 33.7996,-57.4864 101.5026,-108.8215 170.8721,-94.5628 45.2878,10.6057 76.856,52.3669 116.394,70.166 18.4291,-74.0872 10.3271,-153.502 17.4317,-229.541 -2.6237,-51.0309 17.7501,-114.5397 75.4272,-123.2788 62.1551,-9.0078 112.429,42.1124 164.6508,67.3825 65.3783,43.2634 141.3881,80.4283 186.7775,146.4359 28.626,40.9144 79.0111,60.1005 111.1718,98.5192 80.7748,76.9912 143.0261,170.6489 219.7974,251.4563 33.7508,38.6014 64.4661,80.602 97.522,119.1773 153.6057,-79.6585 312.4725,-152.3609 466.9921,-227.6856 -36.623,-30.7367 -62.0203,-74.8005 -57.3974,-123.8037 3.2779,-60.7666 -6.0951,-123.983 7.7148,-183.3862 52.3143,-64.6627 140.4655,-85.3414 212.793,-120.3735 164.0355,-79.8546 340.7784,-130.2588 521.5911,-153.298 238.3674,-29.9886 476.4684,-68.1973 717.3594,-68.4308 279.785,-2.2727 560.3082,1.0905 839.1614,24.818 213.4085,29.6468 421.6483,91.444 623.2376,166.5607 249.2551,106.2091 487.4727,236.2338 722.2527,370.9742 246.355,131.3681 483.19,279.385 722.583,422.771 37.748,19.129 76.673,46.5808 115.692,57.9306 -27.859,-111.5461 -77.637,-217.3528 -120.191,-324.1374 -52.046,-135.4231 -132.09,-258.3199 -232.037,-363.2343 -129.829,-141.0932 -263.913,-278.7693 -398.817,-414.6918 -194.08,-130.8217 -389.96,-261.6763 -606.711,-352.5376 -192.011,-86.2664 -387.7955,-175.7142 -600.0659,-195.503 -175.5331,-18.1991 -346.0798,-65.6055 -519.9122,-94.6347 -110.0908,-26.8164 -222.703,-41.0902 -336.1319,-38.7658 -26.9737,-0.1806 -53.9482,-0.012 -80.9214,0.1793 z"
       id="path5581"
       transform="scale(0.26458333)" />
    <path
       style="fill:#333333;stroke-width:40;paint-order:markers stroke fill"
       id="path5632"
       d="m 1785.8336,695.05559 c -0.885,-1.60758 -1.7246,-3.24109 -2.6551,-4.82277 -2.1677,-3.68469 -4.6705,-7.26715 -7.1057,-10.76407 -5.0982,-7.32107 -10.3563,-14.53139 -15.5212,-21.80548 -4.2193,-6.03371 -8.1906,-12.25777 -11.6247,-18.77602 -2.9444,-5.58874 -5.5332,-11.39478 -8.2433,-17.09862 -6.3802,-13.1546 -13.1277,-26.1303 -20.2082,-38.92084 -4.8162,-8.8891 -10.5141,-17.2593 -16.7288,-25.22098 -3.4413,-4.0703 -6.9973,-8.04384 -10.5164,-12.04714 -1.6311,-1.98004 -2.8981,-4.24916 -4.2436,-6.43266 -2.4741,-4.15306 -4.6963,-8.44058 -7.0449,-12.66394 -2.0614,-3.98092 -5.011,-7.40193 -7.2401,-11.27283 -14.5527,-24.25325 -48.852,-3.67269 -34.2993,20.58056 v 0 c 2.1047,3.45315 4.4841,6.70991 6.5947,10.15682 2.6585,4.76327 5.1699,9.60536 7.9931,14.27634 2.5394,4.07908 5.0216,8.23473 8.2477,11.82184 3.0219,3.404 6.0006,6.84861 9.0232,10.25192 4.9408,6.27163 9.4244,12.90762 13.2256,19.93538 6.687,12.05814 13.0376,24.30301 19.0683,36.7027 3.1012,6.52603 6.0942,13.14233 9.4963,19.5194 4.1312,7.74375 8.8608,15.15716 13.8863,22.34666 6.1648,8.68121 12.5755,17.22273 18.4806,26.08498 0.7987,1.19866 1.5011,2.46014 2.3098,3.65212 0.079,0.11694 0.2266,0.16894 0.3399,0.25342 11.1417,25.99735 47.9075,10.24056 36.7658,-15.75679 z" />
    <path
       style="fill:#333333;stroke-width:40;paint-order:markers stroke fill;fill-opacity:1"
       id="path5721"
       d="m 1622.7144,538.84779 c 0.462,1.24404 0.3715,1.02336 1.3313,3.14748 1.4441,3.19561 4.2322,9.06399 5.5732,12.12612 2.0689,4.72443 4.002,9.50725 6.027,14.25067 6.1971,15.14047 14.0937,29.48639 22.7051,43.36844 8.1339,12.24322 18.1314,23.03163 28.0681,33.79938 7.8502,8.76379 16.0657,17.17149 24.3801,25.49253 7.2372,7.67598 14.9753,14.8885 21.9914,22.77147 1.8367,2.10502 3.227,4.38874 4.1916,6.99262 2.2293,4.47645 3.637,8.85232 4.7401,13.69784 1.0325,5.49072 2.1283,10.97312 2.9943,16.49339 0.622,3.65194 0.9734,7.32681 1.3693,11.00622 0.3203,5.26639 1.5588,10.38494 2.9421,15.45584 1.0719,4.0694 2.3718,8.06215 3.9726,11.95261 1.2204,3.39145 0.3538,-0.0243 0.457,2.07735 0.2853,0.95535 -0.2373,7.61936 0.2104,2.44028 -2.2694,0.36409 2.625,-5.65248 2.1373,-5.63412 -0.1475,0.006 -3.0092,1.8475 -3.3258,2.02512 -0.2506,0.033 -0.5079,0.0325 -0.7517,0.099 -2.288,0.62323 -4.5321,1.39907 -6.8128,2.04862 -4.8935,1.39369 -9.8355,2.60824 -14.7571,3.89771 -13.7773,3.77486 -27.1121,8.90362 -40.2314,14.51009 -6.8682,2.66031 -13.3762,6.10905 -20.0563,9.17782 -1.9451,0.89357 -5.5301,2.27406 -7.4555,3.03395 -5.9649,2.3101 -12.0266,4.36427 -17.9377,6.81172 -10.5046,5.14922 -16.5428,12.86089 -15.4704,25.375 0.1987,2.31851 1.3053,4.46722 1.9579,6.70083 2.6764,5.54337 6.9015,10.56995 12.7781,12.91482 2.0756,0.8282 4.2491,1.91664 6.4763,1.73294 4.7662,-0.39309 9.2896,-2.27753 13.9344,-3.41633 2.3023,-2.53253 5.1197,-4.67862 6.9068,-7.59764 2.6803,-4.37795 3.2224,-10.51311 2.4424,-15.45349 -1.0241,-6.48674 -4.5642,-12.10725 -7.7989,-17.644 -1.3808,-2.06201 -2.7189,-4.15317 -4.1422,-6.18604 -2.6067,-3.72301 -7.8032,-10.61008 -10.429,-14.13248 -4.1854,-5.61457 -8.7833,-11.8881 -13.1147,-17.35323 -2.7983,-3.53078 -5.6956,-6.98204 -8.5435,-10.47305 -12.9051,-15.20312 -26.2644,-30.03616 -40.2735,-44.23159 -7.5277,-7.68821 -16.1588,-14.09838 -25.2202,-19.83856 -7.9899,-4.72909 -16.3294,-8.80706 -24.1839,-13.76527 -1.0513,-0.62455 -2.09,-1.27058 -3.1537,-1.87367 -2.5322,-1.43566 -3.5001,-1.81266 -5.7885,-3.22583 -1.7381,-1.07333 -3.3337,-2.33529 -4.9239,-3.61063 -6.2626,-5.11615 -13.1132,-9.47995 -19.8988,-13.86354 -6.117,-3.63741 -12.3505,-7.12814 -19.054,-9.57786 -4.5931,-1.67846 -5.9315,-1.8751 -10.671,-3.05012 -4.1273,-0.89617 -8.3091,-1.51233 -12.5087,-1.94365 -1.7865,-0.18349 -4.6626,-0.43765 -6.4066,-0.35113 -1.6909,0.0839 -3.3686,0.34306 -5.0529,0.51461 -2.3298,0.79955 -4.7351,1.40589 -6.9894,2.39866 -5.2862,2.32802 -11.3777,8.19814 -14.5741,12.96496 -1.2505,1.86486 -2.254,3.88397 -3.3809,5.82596 -5.1743,10.82194 -5.6884,22.78404 -6.1257,34.54858 -0.038,1.7231 -0.067,3.44644 -0.1146,5.16932 -0.072,2.6279 -0.096,4.94276 -0.4404,7.52483 -0.4889,3.66565 -1.5279,7.31234 -2.3288,10.91359 -1.113,4.12131 -1.7269,8.39253 -3.1463,12.42703 -0.6248,1.77609 -0.3179,1.18205 -0.847,2.1077 2.5274,-6.22171 6.8738,-8.17499 12.695,-9.81004 0.7307,-0.20524 1.5755,0.0849 2.2652,-0.23185 0.2617,-0.12015 -0.4596,-0.35394 -0.7194,-0.478 -0.9902,-0.47286 -2.0139,-0.87209 -3.0209,-1.30813 -6.8135,-3.39423 -13.4277,-7.15031 -20.461,-10.0788 -7.1438,-2.59291 -14.6731,-4.50352 -22.309,-2.66652 -2.6564,0.63907 -5.0674,2.0452 -7.601,3.06779 -1.7682,1.2137 -3.6409,2.28764 -5.3044,3.64112 -2.6839,2.18363 -7.3468,6.99447 -9.827,9.64226 -5.1451,5.49262 -10.0967,11.16047 -15.018,16.85226 -9.3278,11.19654 -18.6702,22.38809 -27.4349,34.03458 -5.8482,7.78232 -11.2601,15.876 -16.9892,23.74399 -4.7765,6.0243 -9.9947,11.68985 -14.6176,17.8371 -1.1196,1.48868 -2.1735,3.02556 -3.2603,4.53835 -3.9478,5.6239 -7.2667,11.63664 -10.381,17.74907 -6.7011,13.35706 -2.3972,4.83047 36.03,12.75651 0.6018,0.12414 0.088,-1.22595 0.1485,-1.83745 0.15,-1.51998 0.3217,-3.03776 0.4825,-4.55663 2.4416,-18.67649 7.3324,-36.90837 11.2675,-55.30101 3.4276,-16.6288 6.3479,-33.34684 8.2462,-50.21972 1.315,-15.16909 1.8544,-30.38885 2.8596,-45.58022 0.7046,-13.51094 1.6702,-27.00398 2.7339,-40.49053 0.5994,-5.98572 0.6247,-12.04984 1.5266,-18.00532 0.3104,-2.05012 0.6395,-3.21839 1.124,-5.20544 0.2104,-0.71088 0.3858,-1.43314 0.6314,-2.13267 0.7399,-2.10704 3.8937,-3.24917 -2.2431,3.36785 -3.949,4.2581 -4.4977,1.27765 -3.8881,3.68454 1.8787,0.0995 3.7582,0.1847 5.6361,0.2985 7.8156,0.47366 13.6923,0.96025 21.7126,1.344 12.7801,0.61153 25.5412,0.7578 38.3323,0.71454 14.1561,-0.22146 28.2542,-1.60248 42.3871,-2.3277 8.1152,-0.43622 16.2505,-0.25281 24.3675,-0.61288 5.7048,-0.25308 7.182,-0.46083 12.7751,-0.98949 10.5431,-1.08609 20.841,-3.55156 30.8889,-6.85618 5.7345,-1.88441 11.4692,-3.75954 16.7455,-6.75018 3.6727,-2.08179 4.6521,-3.05133 7.9606,-5.64875 7.3095,-6.15791 12.5092,-13.71777 17.1655,-21.96152 0.7674,-1.58237 1.5678,-3.14915 2.3022,-4.74705 1.6735,-3.64107 1.742,-4.27339 3.3473,-7.58635 1.3103,-2.70396 2.8945,-5.28177 4.4023,-7.8768 2.2647,-3.89263 4.6474,-7.5115 8.3024,-10.20948 4.0416,-2.78783 8.4308,-4.90879 12.9202,-6.85689 5.1936,-2.25758 10.6371,-3.79619 16.0104,-5.54405 5.7302,-1.76408 11.4337,-3.60119 17.1755,-5.32524 3.7976,-1.14591 7.4759,-2.62049 11.1158,-4.18489 25.9791,-11.1842 10.1623,-47.92422 -15.8168,-36.74001 v 0 c -2.2348,0.96419 -4.4735,1.91857 -6.8107,2.6172 -6.0359,1.81547 -12.0338,3.74118 -18.0563,5.60104 -6.5934,2.15276 -13.2592,4.10107 -19.6166,6.91478 -7.8798,3.45321 -15.5366,7.40564 -22.3857,12.67053 -1.2818,1.0927 -2.615,2.12773 -3.8453,3.27811 -5.4677,5.11254 -9.8265,11.26863 -13.5905,17.70388 -2.186,3.77192 -4.3615,7.53432 -6.2503,11.46812 -1.7338,3.61093 -1.575,3.58072 -3.0291,6.90007 -0.3607,0.82328 -0.7465,1.63529 -1.1197,2.45293 -2.0645,3.80296 -4.3254,7.52051 -7.5516,10.46853 -0.661,0.67074 -1.4571,1.51289 -2.3172,1.92799 -3.0855,1.48915 -6.486,2.23761 -9.6685,3.46789 -7.1826,2.42086 -14.5629,4.17206 -22.1102,5.00028 -4.0346,0.39706 -5.923,0.6354 -10.0101,0.81976 -8.4473,0.381 -16.9154,0.17111 -25.3603,0.65172 -13.4974,0.69898 -26.9626,1.98179 -40.4786,2.27492 -11.9483,0.0503 -23.8716,-0.0747 -35.8099,-0.64447 -7.5404,-0.35984 -15.0636,-1.03677 -22.6045,-1.38698 -3.1404,-0.14586 -6.2853,-0.17266 -9.428,-0.25897 -3.366,0.40823 -6.8579,0.22582 -10.0982,1.2247 -3.6071,1.11199 -7.1416,2.73992 -10.1516,5.01769 -6.3944,4.83894 -8.929,12.40806 -10.9009,19.7222 -0.9545,4.22426 -1.2695,5.24 -1.8951,9.65047 -0.9148,6.44887 -1.082,12.98384 -1.6686,19.46405 -1.0769,13.65451 -2.0569,27.31555 -2.7704,40.99475 -0.9654,14.59341 -1.5158,29.21092 -2.7006,43.7883 -1.7167,15.55843 -4.4847,30.95813 -7.6092,46.29285 -4.2232,19.78528 -9.5003,39.39672 -11.9357,59.51794 -0.1946,1.89442 -0.4091,3.7869 -0.5837,5.68325 -0.094,1.02238 -1.1798,2.70044 -0.2228,3.07205 37.8509,14.69538 32.0525,22.23442 39.577,7.17201 2.2124,-4.34996 4.5147,-8.65629 7.3029,-12.67336 5.4408,-7.71437 11.8652,-14.63291 17.6614,-22.07482 5.5981,-7.70856 10.9214,-15.61163 16.6216,-23.24671 8.194,-10.93716 17.0074,-21.38797 25.7225,-31.90939 4.4427,-5.15017 8.9191,-10.27411 13.5573,-15.25087 1.6595,-1.78073 3.6201,-3.32539 4.9669,-5.353 0.048,-0.0722 -0.1035,-0.13904 -0.1552,-0.20854 -1.0084,0.22738 -1.9945,0.60161 -3.0251,0.68214 -4.8015,0.37526 -4.8789,-0.66974 -1.8112,0.1365 0.4071,0.10703 0.8045,0.24837 1.2067,0.37254 6.955,2.63805 13.1051,7.09117 19.9989,9.88777 6.0943,2.51997 12.7473,5.58876 19.5591,5.06454 9.4214,-0.72503 12.2122,-2.90877 18.8757,-9.76466 1.1666,-1.2003 1.6781,-2.89668 2.5172,-4.34504 2.9419,-7.03844 4.7828,-14.39875 6.3777,-21.8487 0.3844,-1.72869 2.0071,-8.97279 2.2533,-10.32733 1.2322,-6.77907 1.5214,-13.63972 1.5581,-20.51595 0.2039,-5.81244 0.2353,-11.72032 1.5716,-17.41029 -0.088,-0.0388 -0.2772,-0.0217 -0.2628,-0.11632 0,-0.0111 0.8833,-1.47788 0.7737,-1.44957 -0.3907,0.10083 -0.7292,0.35666 -1.1184,0.46326 -1.1977,0.32811 -2.4201,0.55838 -3.6301,0.83757 -0.5394,-0.009 -1.08,0.009 -1.6183,-0.0276 -0.165,-0.0114 0.3284,-0.0568 0.4937,-0.0497 0.6274,0.0273 1.2528,0.0928 1.878,0.15277 1.5929,0.15296 3.3218,0.35814 4.8964,0.6073 0.9386,0.14854 1.8715,0.33128 2.8072,0.49691 2.6133,0.57206 5.2116,1.17478 7.6813,2.2369 3.346,1.43899 6.4627,3.34557 9.6445,5.10082 5.7391,3.68998 11.5522,7.34872 16.8347,11.6776 3.1417,2.44718 6.3024,4.77869 9.7124,6.84749 4.6518,2.82218 1.844,1.01301 5.3784,2.98662 0.7445,0.41571 1.4705,0.86352 2.2058,1.29527 7.8732,4.94347 16.1068,9.21774 24.2019,13.77664 6.5021,4.04109 12.6692,8.61605 18.0544,14.08734 13.1417,13.28341 25.6268,27.21107 37.7507,41.42491 2.5899,3.16508 5.2276,6.29166 7.7697,9.49524 4.2047,5.2987 8.7632,11.52268 12.8172,16.95997 2.1959,2.94506 7.011,9.33765 9.3481,12.61264 0.9775,1.36975 1.9059,2.77394 2.8588,4.16092 0.6341,1.04539 1.2728,2.08801 1.9022,3.13621 0.2905,0.48376 0.4794,1.87838 0.8576,1.45955 0.4878,-0.54028 -0.2261,-1.44556 -0.213,-2.1734 0.025,-1.38038 -0.022,-2.79289 0.3261,-4.12901 1.7071,-6.55923 3.0347,-6.30383 8.23,-11.55271 4.2788,-0.90154 8.4726,-2.42673 12.8366,-2.70462 1.7797,-0.11335 3.4806,0.85264 5.117,1.56128 3.2807,1.4206 5.94,4.31638 7.3169,7.56618 0.362,1.56324 1.0538,3.08541 1.086,4.68969 0.047,2.32518 -0.1276,4.71498 -0.8528,6.92467 -1.2225,3.72475 -4.1103,7.74359 -7.9646,9.1126 5.6437,-2.42261 11.5487,-4.1981 17.2319,-6.52394 4.1719,-1.6619 6.1769,-2.40178 10.3194,-4.30199 2.2523,-1.03318 5.4751,-2.75413 7.7698,-3.80072 3.4407,-1.56927 6.9751,-2.92729 10.4077,-4.51511 11.3007,-4.84211 22.7749,-9.29828 34.6366,-12.59181 11.0063,-2.88539 22.2849,-5.30249 32.5658,-10.32256 5.9859,-3.62064 13.0183,-8.24003 16.5548,-14.44551 1.2841,-2.25322 2.1092,-4.73861 3.1639,-7.10793 0.2777,-1.56652 0.6319,-3.12137 0.8331,-4.69953 0.4416,-3.46503 -0.032,-7.01267 -0.1107,-10.48083 -0.4733,-4.90426 -1.3561,-9.77016 -3.4995,-14.2549 -1.1265,-2.14024 -1.4172,-4.66363 -2.2178,-6.92439 -0.8529,-3.03477 -1.6597,-6.00689 -1.741,-9.18453 -0.4881,-4.31303 -0.9152,-8.62775 -1.6252,-12.91315 -1.0356,-6.4679 -2.2689,-12.90413 -3.5498,-19.32739 -1.6196,-6.815 -3.629,-13.50266 -6.703,-19.82282 -2.8503,-6.71764 -6.4809,-12.98318 -11.3788,-18.44503 -7.5458,-8.39097 -15.7039,-16.2048 -23.4968,-24.36286 -7.9407,-7.94554 -15.7914,-15.96755 -23.2788,-24.34563 -8.2307,-8.91868 -16.576,-17.78712 -23.4968,-27.79671 -7.5681,-12.13141 -14.4759,-24.69242 -19.8847,-37.95011 -3.1274,-7.32419 -6.1813,-14.6654 -9.5133,-21.89959 -1.9045,-4.13467 -4.2142,-9.27782 -6.4582,-13.20816 -0.7389,-1.29415 -1.675,-2.4653 -2.5125,-3.69794 -17.6691,-22.08631 -48.9038,2.9015 -31.2348,24.9878 z" />
    <path
       style="fill:#666666;stroke-width:40;paint-order:markers stroke fill"
       id="path5723"
       d="m 1673.9062,897.653 c 9.8324,5.10866 18.0086,12.75945 26.2706,20.02663 10.6369,8.95464 19.3708,19.77287 28.0872,30.52088 10.492,13.48496 21.5503,26.51837 32.5564,39.5836 14.4935,16.68119 31.0857,31.32589 45.6174,47.96349 11.9766,14.0308 25.9702,26.0898 39.0231,39.0597 13.679,13.9564 26.1464,29.0567 37.8119,44.7205 1.3108,1.9168 2.6583,3.809 3.9324,5.7503 4.3164,6.5771 8.3884,13.2588 12.9511,19.6801 6.2853,8.8456 6.6274,9.0432 13.4869,17.7158 10.0064,13.0567 20.9519,25.3455 31.9168,37.594 3.2619,4.0002 7.2019,7.5465 9.6744,12.144 0.4813,0.895 0.7984,1.8691 1.1976,2.8036 0.9193,1.8028 1.767,3.6439 2.7578,5.4084 1.2002,2.1369 2.5406,4.192 3.8109,6.288 7.7723,11.2468 18.6667,19.5577 29.6795,27.3957 6.2473,4.9248 12.9432,9.2741 18.9868,14.4592 0.8539,0.7326 6.6885,6.1645 7.197,6.6363 7.7316,6.3286 16.2282,11.5485 23.6755,18.2288 9.255,7.4114 18.4515,14.8602 27.346,22.704 2.319,2.1113 4.6682,4.1898 6.957,6.3338 18.4937,17.3249 -4.8817,-4.1186 15.1182,14.364 8.1469,7.5289 16.5225,14.8071 24.8067,22.1835 17.0447,15.3795 34.1262,30.7216 51.3568,45.8936 8.4156,7.1716 14.8652,16.1573 21.8706,24.6117 9.1219,10.0954 18.3735,20.0719 27.7188,29.9615 15.5834,16.1512 32.9895,30.3804 50.5677,44.2768 11.6705,8.9991 22.4901,19.0028 33.2069,29.097 7.0215,6.3493 13.7725,12.9651 20.5735,19.5463 11.4696,10.132 24.1981,18.6811 35.7179,28.7458 14.0571,13.4241 30.7794,23.4121 46.7888,34.2453 8.8943,5.8535 17.2944,12.3889 25.8739,18.6773 4.7527,2.9831 8.3731,7.085 11.8344,11.4308 -2.8643,-2.3677 -4.9883,-12.6606 -1.6539,-15.5465 16.4493,-14.2369 28.583,-5.979 14.8459,-15.6239 -1.8736,-1.5278 -3.7725,-3.025 -5.6208,-4.5832 -8.205,-6.9169 -3.4065,-3.3046 -12.1705,-10.2554 -5.0687,-4.0199 -10.3413,-7.6798 -15.7079,-11.2818 -4.6149,-3.0234 -9.4667,-5.797 -14.5964,-7.8621 -1.8153,-0.7308 -3.6007,-1.7113 -5.5458,-1.9259 -4.102,-0.4525 -10.1076,-3.4961 -12.3804,-0.052 -6.4876,9.8329 -6.639,22.6059 -9.9585,33.9088 3.1719,2.9708 6.1832,6.123 9.5158,8.9124 2.9177,2.4421 6.1115,4.5345 9.2017,6.7543 14.1455,10.1611 28.9887,19.1648 44.1109,27.7816 15.6276,9.4234 32.301,17.3616 46.8073,28.5316 12.1914,9.3166 25.3354,17.2754 37.9752,25.953 7.6756,5.8295 15.628,11.2504 23.6568,16.5779 6.9793,4.4955 13.1328,9.9556 18.9434,15.833 8.495,7.7467 16.1384,10.0133 27.9067,6.0466 8.1378,-2.7429 14.5572,-13.2568 19.1467,-19.924 8.76,-13.4944 16.9121,-27.3622 25.3098,-41.0806 3.7735,-7.1442 9.5801,-12.7509 14.6286,-18.9462 4.2473,-5.2612 8.7458,-10.3018 12.6415,-15.8314 0.5712,-0.8539 1.0866,-1.7481 1.714,-2.5616 0.1328,-0.1724 0.3892,-0.2092 0.5421,-0.3639 0.68,-0.6875 1.3414,-1.3967 1.946,-2.1514 3.2673,-4.0787 5.6917,-8.2434 7.9671,-12.9201 3.2893,-7.5724 3.963,-15.7713 4.2207,-23.9146 0.196,-6.899 -0.09,-14.2163 -3.4507,-20.454 -1.3293,-2.4673 -3.0472,-4.7046 -4.571,-7.0569 -9.8152,-10.197 -21.2222,-18.7054 -32.3565,-27.3927 -11.2369,-8.6277 -23.7801,-15.3136 -35.4052,-23.3571 -8.4263,-6.1883 -16.2669,-13.1719 -24.1363,-20.0521 -7.0356,-6.1682 -12.8048,-13.5321 -19.0462,-20.4547 -11.0344,-11.8839 -23.64,-22.0739 -36.3513,-32.0773 -12.0015,-9.489 -24.9339,-17.6703 -37.1955,-26.8009 -16.7519,-12.9366 -33.2832,-26.1528 -49.9113,-39.2476 -8.7055,-6.9824 -17.1958,-14.3077 -24.5006,-22.7773 -2.4349,-2.8231 -8.9436,-11.0668 -10.9362,-13.5694 -13.3894,-16.4638 -24.9473,-34.2728 -35.1898,-52.8302 -4.7048,-8.6232 -8.7754,-17.7786 -14.8959,-25.5472 -1.2857,-1.632 -2.7219,-3.1398 -4.0828,-4.7096 -9.4667,-9.8858 -21.9916,-15.2761 -34.2647,-20.7243 -8.6994,-3.4766 -19.1794,-8.7539 -27.8417,4.2066 -5.3651,8.0272 -2.0553,19.4654 -0.3207,28.9634 0.7845,4.2956 4.9093,7.2286 7.5637,10.6959 6.0235,7.8679 12.8364,15.3266 19.3783,22.7481 3.4018,3.6478 6.756,7.3407 10.2055,10.9435 8.6303,9.0137 17.6439,17.3363 27.5521,24.9312 7.949,6.093 9.7858,7.0722 18.3984,12.7506 19.5277,11.2413 38.5426,23.305 55.6058,38.0661 8.9032,7.0067 15.6997,16.1602 24.3484,23.4349 3.6168,3.0423 7.4478,5.8203 11.1718,8.7304 14.0753,10.3078 29.4562,18.5387 44.5788,27.1417 5.7146,3.251 14.709,7.7699 19.6894,12.4935 -11.3836,-31.0891 -9.8378,-8.7906 9.4649,-34.3018 0.8373,-1.1067 -2.6792,-0.7256 -4.0162,-1.0974 -6.3358,-1.7625 -12.5548,-3.4952 -18.6553,-5.9577 -16.297,-9.7735 -30.6113,-22.4753 -45.2635,-34.4842 -18.4687,-15.7439 -35.492,-33.053 -53.4918,-49.3139 -12.2363,-10.7835 -23.4729,-22.6226 -33.2872,-35.6428 -6.407,-8.2999 -11.9012,-17.2545 -18.1588,-25.6646 -4.1645,-5.597 -7.6227,-9.7021 -12.0353,-15.1002 -8.4558,-10.2123 -17.4457,-20.0121 -27.5752,-28.5952 -5.7507,-4.8727 -7.5793,-6.0149 -13.4951,-10.2549 -4.8399,-4.0361 -11.0649,-6.262 -15.7966,-10.4331 -1.5601,-1.3753 -2.8517,-3.0288 -4.3169,-4.505 -8.697,-9.2659 -18.4863,-17.3796 -27.5677,-26.2498 -4.7046,-4.3546 -8.6627,-9.3775 -13.2561,-13.8385 -3.2057,-3.1134 -6.5423,-6.0899 -9.7508,-9.2004 -6.7206,-6.2872 -12.6025,-13.349 -18.3776,-20.4873 -7.7506,-8.7612 -16.1603,-16.893 -24.7475,-24.8238 -15.1249,-12.4465 -29.6961,-25.6454 -45.8307,-36.7892 -15.2586,-9.2573 -31.0366,-17.6208 -46.501,-26.5418 -8.8246,-5.3912 -16.9506,-11.9604 -24.7308,-18.7628 -3.8091,-3.4515 -7.9299,-6.6285 -11.4909,-10.3492 -1.6946,-1.7707 -3.1058,-3.7924 -4.6502,-5.6955 -5.0896,-7.757 -10.208,-15.4029 -16.1995,-22.5038 -4.378,-4.4707 -8.0127,-9.67131 -12.4501,-14.08265 -0.4273,-0.42482 0.7644,0.93167 1.1465,1.3975 -9.0758,9.41655 -19.0193,18.06785 -27.2274,28.24955 -0.7255,0.9001 1.7922,1.4619 2.6572,2.2288 1.3496,1.1966 2.6672,2.4288 3.9849,3.6603 5.1562,4.8189 10.0991,9.8425 15.1116,14.8091 8.4491,7.7069 16.2205,16.114 24.6941,23.7884 6.7793,6.4956 14.128,12.25 22.4238,16.65 2.6972,0.7558 6.1707,4.3061 8.0916,2.2674 8.4791,-8.9988 16.6474,-19.5219 19.5017,-31.552 1.0922,-4.6031 -6.1147,-7.2416 -9.5174,-10.5284 -3.4456,-3.3281 -7.2807,-6.2287 -10.9808,-9.2714 -11.3649,-9.3457 -15.8325,-12.641 -27.7006,-21.802 -16.8864,-13.5294 -34.758,-25.90951 -50.8229,-40.44898 -7.1027,-6.42821 -9.3601,-9.09515 -15.6429,-15.81422 -5.2272,-5.30484 -9.0363,-11.67104 -13.3323,-17.673 -3.2734,-4.57333 -4.0151,-5.27056 -7.6523,-9.56334 -8.2531,-9.37461 -16.254,-18.94456 -24.7877,-28.06608 -7.0598,-6.34327 -12.8336,-13.79966 -18.7825,-21.1302 -8.4657,-10.40109 -17.8306,-19.96371 -27.6683,-29.05795 -10.3291,-8.90825 -20.7636,-17.68818 -30.9104,-26.80567 -7.5934,-6.69584 -15.737,-12.74181 -23.7972,-18.86167 -10.745,-7.95346 -22.4991,-9.17469 -35.3669,-6.60525 -2.4061,0.48043 -4.7419,1.26283 -7.1128,1.89424 -9.4622,2.66025 -18.0253,7.6931 -27.2662,10.91623 -5.875,2.04917 -10.783,2.99622 -16.8959,4.4165 -12.4846,2.96093 -25.3077,3.99389 -37.825,6.7577 -5.498,1.21396 -9.1766,2.30841 -14.5338,3.79735 -7.4272,2.50793 -15.6199,4.07331 -22.4113,8.21899 -1.8003,1.099 -3.4634,2.40861 -5.1951,3.61294 -5.4132,4.48815 -8.4419,10.59847 -11.2539,16.8583 -11.5588,25.8146 24.9486,42.16119 36.5074,16.34656 v 0 c 0.9977,-2.23787 2.2957,-3.9344 -0.4491,-1.82427 -0.4764,0.21211 -0.9106,0.58197 -1.4293,0.63632 0,1.1e-4 0.726,-0.56105 2.9625,-1.42854 3.9269,-1.52312 7.9537,-2.81154 12.0225,-3.89294 6.1178,-1.71617 12.2263,-3.43551 18.4986,-4.51483 10.7792,-1.85483 21.6901,-3.02516 32.3347,-5.64663 10.1401,-2.44213 13.0511,-2.85866 22.8079,-6.31343 7.7858,-2.75688 15.0544,-6.82673 22.9067,-9.42041 1.738,-0.53637 3.4395,-1.19605 5.1995,-1.65526 0.5052,-0.13182 1.3114,0.2032 1.5439,-0.26427 0.1915,-0.38481 -0.7308,-0.47067 -1.0203,-0.7883 -0.064,-0.0709 -0.046,-0.32226 0.043,-0.28448 0.6333,0.27146 1.1821,0.70848 1.7732,1.06273 7.1862,5.43385 14.4302,10.82442 21.2269,16.73957 10.0224,9.00034 20.2926,17.71018 30.5319,26.46117 8.4632,7.77253 16.4796,15.98155 23.7518,24.89253 6.551,8.02245 12.8992,16.21758 20.601,23.21353 8.1267,8.68273 15.7193,17.81601 23.5922,26.72964 7.9272,9.14474 13.6585,19.98604 22.242,28.63876 7.7869,8.24768 10.0128,10.90946 18.8032,18.82816 16.5939,14.9483 34.9318,27.8031 52.3728,41.7078 13.1455,10.138 13.9545,10.616 26.4364,20.785 2.9845,2.4314 5.7799,5.1015 8.8817,7.3813 0.5807,0.4269 1.5712,1.1906 2.059,0.6601 24.8853,-27.0614 11.1149,-31.4267 25.7895,-25.2665 -5.4106,-2.2541 -9.3756,-7.1961 -13.8507,-10.7777 -8.0713,-7.1177 -15.1752,-15.283 -23.2407,-22.4187 -7.1262,-7.0598 -14.1355,-14.2432 -21.7062,-20.83648 -1.3025,-1.13435 -2.5648,-4.25672 -3.9992,-3.2947 -11.0184,7.38958 -20.0215,17.41208 -30.0323,26.11818 4.268,5.6464 9.2866,10.6893 13.8815,16.0678 5.8852,6.8515 10.3173,14.6557 15.6936,21.8964 6.2985,7.6815 13.1744,14.7379 20.9273,20.9748 9.7602,8.4104 19.8447,16.6016 30.9438,23.1862 14.5833,8.4124 29.4045,16.3943 43.9154,24.9156 14.6565,9.8706 27.4875,22.2059 41.2985,33.1833 7.1779,6.5964 14.1567,13.3887 20.7564,20.5676 6.7975,8.4007 13.7837,16.6577 21.6657,24.0798 3.9802,3.8417 8.3452,7.465 12.1146,11.5215 3.5579,3.8287 6.8562,7.903 10.7708,11.3994 8.9584,8.7273 18.5637,16.7578 27.1646,25.8509 3.204,3.2049 5.5905,5.7266 9.1816,8.6615 4.9886,4.0769 10.9024,6.8254 16.0771,10.6345 12.6115,8.8814 23.7166,19.4723 33.302,31.589 2.9365,3.5839 7.5023,9.0619 10.3284,12.8577 6.5289,8.7688 12.2448,18.12 18.9572,26.7545 11.4036,14.9487 24.2011,28.7352 38.3447,41.1511 18.4809,16.6787 35.9063,34.4965 54.943,50.5627 10.5269,8.6277 20.9091,17.464 31.821,25.6084 3.9208,2.9265 11.7408,8.4235 16.1081,10.963 2.6624,1.5481 5.4661,2.8392 8.1992,4.2588 8.0479,3.0543 16.1499,5.7774 24.5491,7.7399 3.2211,0.7527 6.6266,3.0616 9.7344,1.9286 33.5146,-12.2183 26.5018,-10.1616 18.9431,-36.3885 -1.979,-1.5695 -3.8655,-3.2633 -5.937,-4.7085 -4.7382,-3.3057 -15.2967,-9.3662 -19.7787,-11.9143 -12.7479,-7.2477 -14.9844,-8.0403 -27.5977,-15.9318 -4.0684,-2.5453 -8.0107,-5.2868 -12.016,-7.9303 -2.8548,-2.1768 -5.7848,-4.2584 -8.5644,-6.5303 -6.9706,-5.6973 -12.6164,-12.8411 -19.2771,-18.8924 -2.0093,-1.8255 -4.0464,-3.6201 -6.0696,-5.4302 -7.4414,-6.3658 -8.6135,-7.5871 -16.7813,-13.6119 -13.709,-10.1121 -28.2927,-18.9205 -42.9528,-27.5632 -10.517,-6.8656 -20.8143,-14.05 -29.9533,-22.7263 -2.9946,-2.8429 -5.848,-5.8318 -8.7067,-8.8112 -3.1963,-3.3311 -6.3045,-6.7457 -9.4567,-10.1185 -7.2514,-8.2022 -10.3587,-11.5008 -17.0057,-19.7886 -1.654,-2.0623 -2.9948,-8.2511 -4.7964,-6.3163 -4.356,4.6779 -1.2354,14.1332 -6.2148,18.1412 -9.7292,7.8312 -28.5159,-0.1218 -16.9796,4.3806 7.1772,3.1859 14.736,5.9228 20.8435,11.0134 6.2316,5.8126 9.1585,15.7454 13.631,22.7767 11.3639,20.4852 24.1054,40.1873 38.9026,58.3863 3.4525,4.331 9.0958,11.5185 12.7847,15.7275 8.7775,10.0148 18.8015,18.8231 29.19,27.12 16.9202,13.3237 33.7379,26.7763 50.7956,39.9243 11.9849,8.8948 24.5563,16.9488 36.3274,26.1369 10.9381,8.6007 21.8445,17.2839 31.3984,27.4505 7.3094,8.0748 14.0942,16.6488 22.4084,23.7623 9.0445,7.9009 18.0662,15.9068 27.8271,22.9153 11.0103,7.5082 22.6781,14.0176 33.4317,21.9123 5.3397,4.1654 10.7359,8.283 15.9658,12.5865 2.7757,2.284 5.3811,4.7755 8.2223,6.9775 0.2649,0.2053 0.5976,0.3033 0.8964,0.455 -0.245,-0.9334 -0.5331,-1.7295 -0.187,-2.6455 0.069,-0.1833 0.121,0.3776 0.1302,0.5734 0.022,0.4608 -0.023,3.8013 -0.028,4.2494 -0.07,2.744 -0.2216,5.481 -0.5051,8.2118 -1.8048,4.8153 -6.3492,7.7001 -8.8324,12.163 -3.1479,4.8386 -7.4677,8.843 -10.8945,13.486 -5.9571,7.6234 -13.1195,14.3627 -17.562,23.1165 -8.0615,13.1733 -15.9022,26.4797 -24.2672,39.4656 -1.0671,1.597 -2.1381,3.1914 -3.2013,4.791 -0.4496,0.6765 -2.1407,1.9189 -1.3371,2.0371 4.7714,0.7023 8.3055,-10.9514 14.3983,-1.4213 0.4167,0.093 7.7029,4.8708 4.603,2.8414 -7.7389,-7.8242 -16.0358,-15.0104 -25.2759,-21.0415 -7.8617,-5.2121 -15.6265,-10.5355 -23.1471,-16.2341 -12.14,-8.3138 -24.7336,-15.9811 -36.4698,-24.8687 -16.0722,-12.0061 -33.8279,-21.3906 -51.1704,-31.4032 -10.601,-6.0046 -21.1061,-12.1921 -31.2461,-18.9597 -5.5144,-3.6803 -10.6319,-7.9418 -16.2126,-11.5207 -0.6403,-0.4106 -1.424,-0.535 -2.136,-0.8025 -4.7342,9.2386 -7.4622,19.8209 -14.2027,27.7159 -1.8939,2.2183 -5.7994,-0.6379 -8.7059,-0.8836 -0.4131,-0.035 0.8302,0.1049 1.2183,0.2506 3.1426,1.1804 6.1253,2.8318 8.9094,4.6895 4.3288,2.8952 8.5869,5.8087 12.6796,9.0388 9.2438,7.2957 1.933,1.7829 12.4112,10.4504 2.6041,2.154 5.2906,4.2064 7.9359,6.3096 2.1556,1.473 14.579,10.4062 17.0571,10.1119 9.2673,-1.1006 18.7827,-3.8598 26.4488,-9.1819 3.1852,-2.2113 2.8667,-7.3696 2.9755,-11.2455 0.2217,-7.9063 -2.3583,-10.7808 -5.8765,-16.6296 -5.6807,-6.9229 -11.744,-13.5469 -19.2784,-18.5093 -8.9911,-6.5583 -17.7655,-13.4184 -27.0818,-19.527 -14.6927,-9.928 -30.1091,-18.9908 -42.9866,-31.3277 -11.0433,-9.5231 -22.8837,-18.0101 -34.1274,-27.2894 -6.9339,-6.692 -13.8087,-13.4319 -20.9498,-19.9054 -11.5594,-10.8824 -23.2516,-21.643 -35.8268,-31.3584 -16.0677,-12.6949 -32.0179,-25.6486 -46.299,-40.3696 -8.7675,-9.2751 -17.432,-18.6458 -26.0393,-28.0678 -8.3684,-10.0077 -16.1031,-20.6191 -26.1897,-29.0532 -17.1771,-15.1193 -34.1982,-30.4166 -51.1884,-45.7446 -8.0214,-7.1421 -16.1378,-14.1843 -24.0284,-21.4719 -17.6877,-16.3359 2.6409,2.2532 -15.5758,-14.7868 -2.4476,-2.2896 -4.959,-4.5101 -7.4386,-6.7651 -8.8519,-7.7884 -17.9184,-15.2966 -27.1967,-22.5718 -7.2809,-6.4415 -15.1268,-12.0803 -23.064,-17.6733 -2.5818,-2.3929 -6.629,-6.1911 -9.2518,-8.416 -6.7226,-5.7029 -14.0695,-10.5988 -21.0251,-16.0017 -6.6794,-4.6908 -13.4197,-9.5735 -18.7703,-15.7906 -3.2669,-5.0887 -5.4978,-10.6388 -8.6154,-15.8143 -3.6361,-6.0362 -8.429,-11.192 -13.0412,-16.4665 -10.4359,-11.6523 -20.8642,-23.3349 -30.3761,-35.7663 -5.7852,-7.2722 -11.3777,-14.6022 -16.5588,-22.3221 -8.7034,-12.9678 1.1953,1.3988 -8.2522,-12.8714 -1.5714,-2.3735 -3.2326,-4.6864 -4.8489,-7.0296 -12.8901,-17.2244 -26.5921,-33.8775 -41.7119,-49.2056 -12.4199,-12.2716 -25.6507,-23.7574 -37.0859,-36.9998 -14.4088,-16.40783 -30.5737,-31.08932 -45.1139,-47.37755 -10.8462,-12.87455 -21.7456,-25.71565 -32.0804,-39.00763 -10.1377,-12.50053 -20.4319,-24.95409 -32.7721,-35.3914 -12.2523,-10.72931 -24.6273,-21.87996 -40.0043,-27.90823 -26.8328,-8.94429 -39.4819,29.00305 -12.6491,37.94731 z" />
    <path
       style="fill:#000000;stroke-width:40;paint-order:markers stroke fill"
       id="path5097"
       d="m 1782.5771,464.35113 c 27.9918,-12.0917 57.9699,-17.7255 87.8575,-22.80799 42.6541,-6.39926 85.5872,-10.61058 128.4009,-15.76972 32.4166,-3.88239 65.075,-4.82232 97.6609,-6.32373 24.0184,-1.21385 48.0624,-1.61467 72.1069,-1.81483 17.353,-0.11789 34.7066,-0.10784 52.0599,-0.0967 12.5211,-0.46633 24.9618,0.64143 37.3902,1.98191 15.2691,2.14217 30.2416,6.08878 45.2848,9.43933 16.0392,3.07525 32.1236,5.8824 48.2276,8.59396 16.0718,2.35627 31.6177,7.42693 47.5597,10.36529 3.7025,0.68244 7.4439,1.13445 11.1658,1.70169 25.7296,2.28695 51.1814,6.09743 76.351,11.87286 34.3477,9.18747 66.7333,24.38982 99.005,39.07078 4.1498,1.80988 8.2804,3.66435 12.4493,5.42967 11.3904,4.82325 12.886,5.01476 24.208,10.2924 13.0962,6.10471 25.6234,13.23261 38.1842,20.34778 22.9386,13.39535 45.3774,27.61348 67.522,42.27574 9.2757,6.90533 19.5032,12.51063 28.4374,19.88042 6.1232,5.0511 9.3051,8.46783 15.1691,14.22855 22.5515,22.82856 43.8152,46.87432 66.6303,69.44402 13.5263,13.83646 26.9218,27.8388 39.0903,42.89467 14.8278,16.49249 25.9072,35.44213 35.5174,55.29403 6.1402,14.3034 12.3648,28.57016 18.5158,42.86959 4.8498,11.20849 8.6294,22.81362 13.1998,34.14406 4.4103,12.45346 8.8728,24.9238 12.3111,37.68854 2.7871,12.04944 6.3068,23.93151 9.0942,35.97706 0.8231,4.77359 1.8854,9.50614 3.0171,14.21525 0.2862,1.19094 0.7352,4.7752 0.903,3.56187 0.4469,-3.23376 -2.858,-8.14221 -0.042,-9.79339 9.7441,-5.71326 21.7254,-6.19303 32.5884,-9.28955 -3.9727,-7.81614 -11.5461,-14.79135 -18.4435,-20.70558 -12.2748,-9.97077 -26.6904,-16.7078 -40.5731,-24.09417 -16.1668,-8.42079 -32.2799,-17.01811 -47.5633,-26.97427 -15.5607,-9.18658 -30.456,-19.42767 -45.8031,-28.95899 -17.9406,-9.79501 -35.7587,-19.62415 -52.9236,-30.72752 -14.6007,-9.37702 -30.218,-16.96897 -45.4691,-25.18685 -21.6625,-11.55806 -43.0602,-23.528 -64.1231,-36.14171 -29.9144,-17.97794 -61.2253,-33.46001 -92.7414,-48.39137 -20.8697,-9.99045 -41.6404,-20.35299 -63.2888,-28.59453 -9.3382,-3.55504 -19.2337,-6.72176 -28.7237,-9.86379 -22.5295,-7.75142 -45.7908,-12.89646 -68.7696,-19.02513 -18.3358,-5.01941 -36.9951,-8.74901 -55.8525,-11.10935 -20.3048,-2.4882 -40.7722,-3.20109 -61.2036,-3.79543 -14.397,0.0204 -28.7465,-1.10648 -43.1182,-1.78191 -14.5147,-0.63307 -29.0428,-0.80214 -43.5691,-0.88786 -18.0539,-0.0586 -36.1079,-0.0414 -54.1619,-0.0358 -20.4392,-0.32491 -40.855,0.3383 -61.2762,1.08363 -18.8059,1.05973 -37.6157,2.30521 -56.2742,4.92458 -21.3856,3.3238 -42.8178,6.12868 -64.3117,8.63661 -16.8629,1.65301 -33.6831,3.56695 -50.4303,6.14045 -11.6712,2.17085 -23.3271,4.46371 -34.84,7.36632 -11.0126,2.58286 -21.7828,6.00432 -32.4112,9.85139 -11.7315,4.11983 -23.2426,8.77718 -34.4876,14.08128 -9.5596,4.147 -18.9826,8.64071 -28.6504,12.53527 -7.9974,2.61147 -15.4791,6.51968 -22.9893,10.26184 -2.9247,2.06166 -5.9356,3.61209 -9.0905,5.14697 -25.4317,12.3785 -7.9259,48.34437 17.5059,35.96589 v 0 c 3.2539,-1.58448 6.6602,-3.04718 9.4856,-5.34199 6.5605,-3.30253 13.0938,-6.7201 20.1122,-8.96143 10.3751,-4.22442 20.5354,-8.97036 30.7892,-13.47566 10.0795,-4.83208 20.4818,-8.89031 31.0124,-12.62692 9.3556,-3.43432 18.8664,-6.38807 28.5734,-8.6683 10.2576,-2.6316 20.6747,-4.58256 31.0673,-6.59898 16.2681,-2.50126 32.6095,-4.33271 48.9896,-5.94574 21.8346,-2.54823 43.6072,-5.39946 65.3324,-8.76903 17.2521,-2.51804 34.6862,-3.46157 52.0762,-4.54917 19.9394,-0.72779 39.8722,-1.38628 59.8295,-1.05701 17.9715,-0.006 35.9431,-0.0225 53.9146,0.0351 13.9804,0.0817 27.9624,0.23979 41.9318,0.84471 14.6088,0.68244 29.1965,1.82247 43.8306,1.80893 19.1768,0.55464 38.3906,1.19067 57.4504,3.50938 17.0579,2.08264 33.9159,5.55532 50.4969,10.07168 22.2209,5.88084 44.6885,10.89615 66.4766,18.342 7.8963,2.60932 18.4907,6.01723 26.2654,8.96035 20.9482,7.92986 40.9962,18.04064 61.1873,27.67208 30.348,14.36865 60.5063,29.25451 89.3124,46.55818 21.5903,12.92886 43.5232,25.2019 65.726,37.05209 14.3176,7.68831 28.9602,14.81968 42.6955,23.54786 17.376,11.2335 35.3391,21.32685 53.5578,31.1291 15.1225,9.37104 29.7669,19.49675 45.1064,28.51682 16.2848,10.54566 33.3391,19.82557 50.5621,28.74084 11.3901,6.0574 23.272,11.49871 33.5624,19.35062 1.0306,0.84595 4.3961,3.51679 5.5473,4.74332 3.7915,4.03942 6.2148,9.06817 9.9176,13.17691 11.5229,-2.41292 24.1731,-1.71339 34.5689,-7.23871 3.4663,-1.84229 -2.7684,-24.77709 -3.3256,-28.4067 -2.9726,-12.47137 -6.4656,-24.82149 -9.4289,-37.29749 -3.9037,-14.2717 -8.7789,-28.26753 -13.8189,-42.17202 -4.6863,-11.60713 -8.5217,-23.51606 -13.5486,-34.98069 -6.3941,-14.86469 -12.841,-29.70617 -19.2841,-44.54858 -11.1892,-22.94306 -23.4357,-43.78616 -40.4305,-63.0096 -13.1429,-16.14873 -27.4288,-31.31245 -42.0356,-46.14383 -22.8902,-22.60045 -44.1146,-46.79265 -66.7923,-69.6033 -7.8671,-7.65305 -10.7365,-10.82022 -18.9949,-17.52161 -9.6457,-7.82701 -20.4727,-14.01035 -30.4853,-21.33071 -22.9206,-15.17481 -46.1497,-29.88524 -69.9005,-43.73393 -13.7462,-7.77473 -27.4678,-15.49987 -41.8022,-22.16028 -12.4113,-5.76686 -12.4293,-5.31241 -24.3093,-10.33674 -3.9764,-1.68175 -7.9162,-3.44909 -11.8742,-5.17361 -34.7303,-15.79036 -69.6176,-32.04192 -106.6628,-41.65637 -26.2003,-5.95239 -52.6633,-10.14169 -79.4466,-12.4523 -19.524,-2.70984 -38.3966,-8.91749 -57.8901,-11.93538 -15.4173,-2.5958 -30.8139,-5.28913 -46.1765,-8.19325 -16.4956,-3.67083 -32.9147,-7.99655 -49.691,-10.16492 -13.8419,-1.49085 -27.7096,-2.66554 -41.6508,-2.21223 -17.4732,-0.0111 -34.9465,-0.0212 -52.4194,0.0981 -24.5471,0.20531 -49.0937,0.61894 -73.6143,1.85581 -33.57,1.54691 -67.2124,2.54326 -100.6054,6.56865 -43.4681,5.23854 -87.0601,9.49987 -130.3585,16.05489 -32.2245,5.54046 -64.5609,11.6971 -94.7839,24.64374 -26.5814,9.66597 -12.9117,47.25771 13.6697,37.59177 z" />
    <path
       style="fill:#000000;stroke-width:40;paint-order:markers stroke fill"
       id="path5111"
       d="m 1636.7359,893.55466 c 18.5889,24.47372 38.8521,47.5438 59.4708,70.31103 26.2208,29.58225 54.4169,57.16381 83.5413,83.85081 44.3934,41.1103 87.2284,83.854 129.3873,127.2391 27.7202,30.8762 56.9384,60.2977 86.3219,89.5743 21.3974,21.6424 43.534,42.5612 64.501,64.6301 14.4341,15.1928 28.0949,31.12 41.8433,46.9277 18.5529,22.3841 39.8155,42.135 60.688,62.2746 28.3792,27.3188 55.5457,55.8322 84.1432,82.9323 21.386,20.6551 42.5809,41.4987 63.4725,62.6535 19.3627,20.186 39.2736,39.8139 59.4141,59.2166 16.9857,16.4026 36.1321,30.2335 55.664,43.393 16.2088,10.3924 32.5274,20.6322 48.4049,31.5337 11.7333,7.9755 23.5373,15.8443 35.3978,23.629 7.7598,5.4845 15.8932,10.4089 23.5311,16.0652 7.0614,4.6681 13.3787,10.9731 21.7643,13.3178 3.2104,0.8976 6.5832,1.054 9.8748,1.5811 3.5924,-0.4999 7.2942,-0.4877 10.7772,-1.4996 8.694,-2.5257 14.1287,-6.8151 21.249,-12.2223 10.9444,-8.3112 20.8602,-17.7671 30.7746,-27.2475 16.0615,-15.0679 29.3885,-32.5018 42.7174,-49.9207 7.0162,-9.9265 15.276,-18.863 23.713,-27.5788 7.8867,-8.859 15.953,-13.9909 18.9796,-26.6369 0.9221,-3.8524 0.075,-7.9221 0.113,-11.8832 -3.2136,-14.1186 -9.9573,-27.2104 -16.8643,-39.86 -4.7477,-8.757 -10.4587,-16.9227 -16.0446,-25.1522 -8.4828,-10.4834 -19.9419,-17.952 -30.3503,-26.3596 -8.1933,-7.2292 -17.2766,-13.2956 -25.3163,-20.6936 -8.7333,-8.0536 -17.882,-15.6549 -26.5247,-23.8034 -9.9041,-10.1575 -21.0283,-18.9947 -31.2861,-28.7719 -16.7721,-16.2293 -33.6281,-32.3733 -50.5938,-48.4037 -16.8548,-16.3539 -33.9233,-32.443 -51.1691,-48.3808 -20.2401,-19.3794 -40.2009,-39.0299 -60.5988,-58.249 -28.5778,-27.6345 -57.3804,-55.0343 -86.19,-82.4263 -15.5736,-14.0491 -29.5021,-29.7601 -44.391,-44.5013 -9.8239,-9.7265 -16.2203,-15.487 -26.4923,-25.0075 -38.7874,-36.0296 -79.0558,-70.4107 -118.806,-105.3625 -14.9626,-13.0753 -29.5573,-26.5586 -44.3582,-39.81344 -16.0539,-14.5991 -32.3136,-28.92438 -47.9347,-43.99333 -18.459,-18.55885 -37.3825,-36.63677 -56.1226,-54.91345 -14.0182,-12.74149 -27.9871,-25.53692 -41.7247,-38.58109 -7.3922,-6.60281 -13.8829,-14.07493 -20.7544,-21.18746 -7.5482,-7.37418 -15.4806,-14.28536 -23.8253,-20.7372 -7.5447,-5.71063 -15.9617,-10.06118 -23.9874,-15.03225 -0.5231,-0.3937 -1.0462,-0.78742 -1.5693,-1.18115 -22.9872,-16.47984 -46.2933,16.02907 -23.306,32.5089 v 0 c 1.2721,0.89329 2.5442,1.78658 3.8163,2.67986 6.8598,4.24678 14.0122,8.00579 20.5905,12.67762 6.8466,5.28561 13.359,10.92872 19.5796,16.94495 7.2886,7.46119 14.0968,15.39118 21.9146,22.33488 13.6092,12.91992 27.4254,25.61836 41.3389,38.2098 18.7951,18.32837 37.7742,36.45545 56.2841,55.07016 15.9808,15.40484 32.5914,30.0755 49.0158,44.998 14.8916,13.335 29.5738,26.9023 44.6299,40.0545 39.4902,34.7224 79.4967,68.8761 118.0337,104.6655 9.2889,8.6026 16.2248,14.87 25.1236,23.6773 15.2212,15.0645 29.465,31.1177 45.3832,45.478 28.8542,27.433 57.698,54.8775 86.3221,82.5514 20.494,19.3069 40.5347,39.0612 60.8838,58.515 17.1404,15.8324 34.0938,31.8253 50.8423,48.0754 16.945,16.0106 33.7828,32.1319 50.5314,48.3446 10.3528,9.7888 21.4441,18.7671 31.4503,28.9268 8.8074,8.2322 18.0152,16.025 26.9121,24.1621 8.7016,7.9099 18.2767,14.66 27.1998,22.3103 7.4051,5.9553 14.9843,11.691 22.3573,17.6847 4.8837,7.1886 9.9105,14.3008 14.0785,21.9414 4.3595,7.87 7.8287,16.204 12.0758,24.1047 3.4722,-5.6795 -3.7134,5.9034 4.635,-6.0718 0.6313,-0.9053 -1.4748,1.6428 -2.2423,2.4359 -5.9373,6.1358 -1.0684,0.8003 -7.298,7.4395 -1.0491,1.1178 -2.0622,2.2688 -3.093,3.4032 -9.5012,9.831 -18.7748,19.9319 -26.7296,31.0819 -12.0817,15.7937 -24.046,31.6897 -38.6231,45.3448 -7.9657,7.6504 -10.2915,10.1145 -18.5983,17.2054 -2.7638,2.3592 -5.6404,4.5831 -8.4516,6.8858 -1.5508,1.2703 -3.1268,2.5113 -4.6341,3.8329 -0.4735,0.4151 -1.1909,0.7502 -1.3002,1.3703 -0.067,0.3798 0.6264,0.4502 0.9396,0.6753 0.4782,0.3444 1.7165,1.5561 1.1771,1.319 -4.5244,-1.989 -7.8551,-6.1929 -12.1675,-8.5371 -8.248,-6.0562 -16.9273,-11.4654 -25.3227,-17.3116 -11.6377,-7.6283 -23.2082,-15.3567 -34.7199,-23.1744 -15.9825,-10.9411 -32.3565,-21.297 -48.677,-31.7185 -17.6111,-11.8568 -34.9366,-24.2409 -50.2574,-39.0233 -19.9023,-19.1725 -39.5756,-38.5689 -58.7068,-58.5181 -21.2058,-21.4669 -42.7121,-42.6256 -64.4217,-63.5831 -28.5176,-27.0078 -55.5661,-55.469 -83.8803,-82.681 -20.0365,-19.3276 -40.4908,-38.2343 -58.2795,-59.7386 -14.269,-16.404 -28.4668,-32.9035 -43.4494,-48.6673 -21.083,-22.1824 -43.3273,-43.2224 -64.8433,-64.9755 -29.2319,-29.1247 -58.287,-58.4022 -85.8681,-89.1148 -42.7011,-43.9399 -86.0892,-87.2281 -131.0569,-128.86 -28.2207,-25.83511 -55.524,-52.54725 -80.9124,-81.20734 -19.7948,-21.84773 -39.2766,-43.96455 -57.1164,-67.45711 -16.9705,-22.62743 -48.9705,1.37258 -32,24.00001 z" />
    <path
       style="fill:#000000;stroke-width:40;paint-order:markers stroke fill"
       id="path5377"
       d="m 1617.4524,484.16309 c -6.6178,0.94526 -13.2274,1.97997 -19.822,3.08281 -8.5783,1.66315 -17.1434,3.45716 -25.6228,5.57466 -5.7249,1.66083 -11.4757,3.2052 -17.3804,4.06177 -2.5562,0.31343 -5.0727,0.87686 -7.6177,1.25928 -1.211,0.18198 -3.1182,0.25719 -4.1166,0.63098 -3.033,1.13561 -5.9324,2.6006 -8.8984,3.9009 -2.1576,2.17543 -4.6024,4.09952 -6.4727,6.52633 -5.6507,7.33216 -7.5638,19.57754 -9.1209,28.53227 -1.5651,7.15417 -1.3128,14.7425 -3.7091,21.70944 -0.2908,0.005 0.1803,-0.94328 -0.1005,-0.86683 -0.026,0.007 -3.1184,2.15975 -3.4674,2.36258 -3.5655,1.84197 -7.2332,3.7513 -11.1171,4.83734 -8.8707,2.60861 -17.8901,4.62641 -26.8971,6.69233 -9.4685,1.97878 -19.0716,3.17537 -28.5717,5.00153 -8.5907,2.35191 -17.4544,2.13254 -26.2706,2.01649 -13.9053,-0.58498 -27.809,-1.2025 -41.7127,-1.82437 -10.5233,-0.48433 -20.9912,-1.55618 -31.525,-1.77632 -7.1573,-0.0333 -14.2814,-0.67408 -21.4358,-0.38553 -7.8909,0.4846 -15.1485,3.51489 -21.9532,7.32703 -6.6577,3.62918 -11.3725,9.64451 -14.5102,16.4499 -0.7874,1.7079 -1.4031,3.48993 -2.1046,5.23489 -4.527,11.1076 -6.7969,22.90533 -8.8286,34.66989 -2.7855,19.11146 -5.6001,38.21935 -8.387,57.33105 -1.659,11.31624 -3.2109,22.64742 -4.673,33.99065 -1.3063,10.26332 -2.5808,20.53065 -3.8593,30.79749 -1.2042,9.6396 -2.3984,19.28046 -3.6026,28.92009 -1.059,8.47759 -2.118,16.9552 -3.177,25.43278 -0.82,7.34624 -2.136,14.66594 -2.2171,22.07786 -0.021,1.9429 0.084,3.88512 0.1264,5.82768 0.6301,9.23074 1.5703,18.43462 2.4611,27.64232 1.0258,10.00923 2.781,19.90708 4.6223,29.7918 1.4139,7.3159 3.0561,14.58364 4.2849,21.93451 1.5302,10.45031 3.6872,25.72794 16.6249,28.77463 6.5543,1.54344 13.333,-1.89502 19.9993,-2.8426 2.4851,-2.62127 5.2335,-5.016 7.4553,-7.86386 1.5582,-1.9974 2.6297,-4.33445 3.81,-6.57599 4.3989,-8.35367 7.1572,-17.45947 10.2129,-26.35358 2.4764,-6.9507 4.3425,-14.14949 7.1569,-20.98157 0.6079,-1.47569 3.1127,-6.34858 3.6582,-7.42797 6.1176,-11.48327 13.1879,-22.39337 20.3514,-33.23917 5.985,-9.09715 12.2497,-17.99252 17.7912,-27.37098 4.1646,-7.29249 8.157,-14.68065 11.9324,-22.18161 1.8257,-3.67896 3.7057,-7.33276 5.6699,-10.93855 1.4491,-2.66028 0.6634,-1.72841 1.6028,-2.77538 0.8353,-1.15925 2.2155,-2.03094 3.6245,-2.81664 1.8168,-0.73291 3.3745,-1.97889 5.0686,-2.94718 0.1459,-0.0834 0.2922,-0.22347 0.4596,-0.20773 0.1265,0.0118 -0.195,0.16767 -0.31,0.2218 -0.4563,0.21508 -0.9312,0.38841 -1.3968,0.58259 0.3524,1.26003 -7.5698,0.01 -7.4119,0.46602 0.06,0.17331 0.262,0.25668 0.393,0.38504 3.698,3.52646 7.9985,6.38232 12.1687,9.3187 2.6378,2.20591 5.3177,4.36335 7.9925,6.52711 4.0334,3.18654 8.4738,5.74368 13.0279,8.09406 6.6962,3.1872 13.8213,4.84969 21.2845,3.22482 2.589,-0.56366 4.9324,-1.93757 7.3986,-2.90637 2.4919,-2.09065 5.2967,-3.85689 7.4758,-6.27194 7.5946,-8.41719 9.9907,-22.65989 12.0244,-33.48134 2.9416,-14.07703 2.7808,-28.46116 2.8361,-42.76384 0,-6.27012 0.1284,-12.53965 0.362,-18.80531 0.1091,-2.92556 0.071,-5.98107 0.7583,-8.85088 0.079,-0.24325 0.2661,-0.98375 0.2362,-0.72979 -0.1775,1.51802 -1.1632,3.46674 -1.9402,4.50531 -4.0959,5.47561 -9.7169,7.67755 -16.6463,7.45496 -0.029,0.0598 -0.1418,0.14456 -0.085,0.17956 1.2727,0.78967 2.6759,1.35256 3.9571,2.12835 2.5361,1.53573 4.9754,3.2519 7.4491,4.88366 9.2217,5.98971 18.7714,11.47035 28.2419,17.05809 5.5402,2.79837 9.9086,7.04103 14.4236,11.18801 3.4953,3.0868 1.9538,1.67782 4.6515,4.19698 20.7264,19.24619 47.9446,-10.0654 27.2182,-29.31157 v 0 c -3.2735,-3.02779 -1.6667,-1.58146 -4.8136,-4.34673 -6.5664,-6.02942 -13.2338,-11.95013 -21.1562,-16.17893 -8.8957,-5.24647 -17.8701,-10.38737 -26.5408,-15.99621 -7.4018,-4.88207 -14.8132,-9.90391 -23.3807,-12.5401 -2.257,-0.39148 -4.4985,-1.46298 -6.7709,-1.17442 -4.6286,0.58771 -9.2552,1.78022 -13.4863,3.74666 -2.1819,1.01408 -3.7163,3.10102 -5.245,4.95905 -3.0951,3.76167 -4.5273,8.44637 -5.5167,13.10111 -1.7964,11.36429 -1.5451,22.90758 -1.7154,34.38385 -0.042,11.90268 0.2951,23.88195 -2.1624,35.59996 -0.7864,4.28806 -1.7135,8.47712 -2.7331,12.71094 -0.1229,0.50835 -0.6735,1.16423 -0.3081,1.53834 1.2563,1.28624 3.688,-9.15187 4.6221,-2.78041 1.0718,-0.25409 2.1166,-0.68483 3.2155,-0.76231 1.7257,-0.12167 3.7294,-0.49066 5.1689,0.46907 0.1256,0.0837 -1.019,-0.17395 -0.8037,-0.14009 -2.1103,-0.96982 -4.0086,-2.16744 -5.9157,-3.50199 -3.365,-2.71374 -6.6744,-5.49767 -10.1078,-8.1226 -3.7404,-2.62956 -7.5459,-5.18932 -10.864,-8.36077 -6.3925,-4.7203 -13.0523,-8.23514 -21.2281,-8.50707 -1.9962,-0.0664 -3.9707,0.43544 -5.9561,0.65317 -1.4068,0.43418 -2.8387,0.79432 -4.2204,1.30252 -4.0023,1.47191 -7.3729,4.10844 -11.1408,6.028 -6.13,4.00685 -11.8088,8.66043 -15.8081,14.9024 -3.4868,5.63255 -6.4589,11.55488 -9.4226,17.47706 -3.3463,6.70482 -6.9483,13.27682 -10.6351,19.79995 -5.1747,8.80363 -11.1468,17.08254 -16.7111,25.64117 -8.0336,12.1672 -15.9298,24.43343 -22.7278,37.34875 -2.2956,4.60327 -3.5151,6.84128 -5.484,11.66089 -2.8884,7.07033 -4.8813,14.48628 -7.4058,21.68458 -1.8557,5.40155 -3.531,10.92621 -5.6976,16.21587 -0.5458,1.33232 -1.1894,2.62245 -1.7775,3.93663 -0.2938,0.65643 -1.587,1.99301 -0.8681,1.97517 1.2456,-0.0309 2.0919,-1.35435 3.1378,-2.0315 5.4883,-0.19381 11.2628,-2.34106 16.465,-0.58142 4.102,1.38746 6.3932,5.88542 9.132,9.23957 0.5651,0.6921 0.6514,3.51091 0.5542,2.62268 -0.372,-3.39931 -1.6042,-6.72009 -1.7735,-10.1576 -1.2828,-7.5802 -2.912,-15.08936 -4.4081,-22.62888 -1.6309,-8.73354 -3.2184,-17.47122 -4.1306,-26.31516 -0.8095,-8.34561 -1.6363,-16.68855 -2.2946,-25.04814 -0.3804,-7.28762 0.9449,-14.46843 1.8021,-21.68477 1.0591,-8.47876 2.1183,-16.95755 3.1774,-25.43632 1.2046,-9.64257 2.4091,-19.28514 3.6037,-28.92892 1.2755,-10.21058 2.5391,-20.42264 3.8384,-30.63022 1.4339,-11.12339 2.9559,-22.23496 4.5826,-33.33193 2.7386,-18.78047 5.5154,-37.55554 8.2297,-56.33918 1.5692,-9.21876 3.2081,-18.50592 6.7865,-27.20028 0.1532,-0.50004 0.2954,-1.00361 0.4598,-1.50009 0.1022,-0.30968 0.3733,-0.59269 0.3408,-0.91726 -0.016,-0.15536 -0.2843,0.1339 -0.4098,0.22661 -0.4608,0.34017 -0.8744,0.74294 -1.3453,1.06899 -0.3142,0.21758 -1.3167,0.77407 -1.0024,0.55661 0.4541,-0.31419 0.949,-0.56523 1.4234,-0.84786 0.6979,-0.66555 1.7947,-0.93853 2.6453,-1.3499 0.1268,-0.0613 0.2681,-0.11761 0.3556,-0.22795 0.031,-0.0401 -0.1129,-0.12036 -0.065,-0.13866 0.276,-0.10582 0.5802,-0.11336 0.8704,-0.17007 2.2125,-0.20373 4.3551,-0.009 6.5781,0.0949 3.9877,0.18694 7.9783,0.27775 11.9698,0.33709 10.2036,0.19389 20.3413,1.3525 30.54,1.74444 14.3345,0.64042 28.6684,1.29104 43.006,1.86123 11.5223,0.13375 23.131,0.13562 34.379,-2.74508 9.9366,-1.94883 20.015,-3.06745 29.9004,-5.28268 10.1438,-2.32748 20.2992,-4.62092 30.2715,-7.62355 7.2222,-2.43145 14.2715,-5.44702 20.767,-9.46598 9.4445,-6.43209 15.8364,-12.27839 19.88,-23.32133 2.513,-8.6834 3.6005,-17.58769 4.8485,-26.52342 0.5974,-3.51321 1.2153,-7.01 2.0122,-10.48428 0.1021,-0.44606 0.6828,-1.04068 0.3304,-1.33249 -1.4653,-1.21296 -2.4872,11.62804 -4.4565,3.56454 -11.9814,3.90293 -6.8686,1.99863 -4.8827,1.69766 3.2664,-0.49507 6.5305,-0.9892 9.7898,-1.53353 7.1615,-1.11099 14.215,-2.72828 21.1562,-4.82087 7.4333,-1.89094 14.9668,-3.40077 22.4826,-4.91701 6.4315,-1.0845 12.8789,-2.09227 19.3362,-3.00437 27.9494,-4.33926 21.8128,-43.86571 -6.1366,-39.52644 z" />
    <path
       style="fill:#000000;stroke-width:40;paint-order:markers stroke fill"
       id="path5381"
       d="m 1531.7273,762.60671 c 8.7997,6.61709 17.2758,13.65726 25.1064,21.40235 4.5658,4.77012 8.2062,10.315 11.9559,15.72401 3.7204,5.91343 8.4473,10.98679 13.2275,16.03203 4.0818,4.94477 8.2869,9.79275 12.6855,14.45868 3.6682,4.01045 7.4905,7.87982 11.0591,11.98139 3.3322,3.74745 6.467,7.65665 9.543,11.61466 3.3742,4.78676 6.8126,9.4684 10.7681,13.79696 2.28,2.69891 4.3145,5.59202 6.3121,8.50331 1.417,2.326 2.4589,4.70582 3.7864,7.11023 0.9873,1.65994 1.8897,3.35708 2.8223,5.05092 13.7782,24.70142 48.7113,5.2161 34.9331,-19.48535 v 0 c -1.0666,-1.90021 -2.1208,-3.92784 -3.3582,-5.98217 0.096,0.22942 0.4037,0.90797 0.2873,0.68826 -1.7995,-3.39749 -3.2421,-6.99498 -5.5561,-10.11111 -3.0864,-4.45137 -6.2274,-8.87881 -9.8477,-12.91931 -3.2432,-3.43212 -5.6709,-7.47556 -8.5654,-11.19934 -3.5599,-4.5794 -7.2001,-9.09354 -11.0475,-13.43649 -3.9256,-4.45527 -8.0388,-8.73551 -12.0708,-13.09264 -4.4298,-4.66678 -8.5294,-9.62927 -12.7276,-14.50311 -3.3917,-3.57346 -6.8388,-7.02178 -9.3812,-11.30104 -5.1804,-7.46808 -10.3349,-15.01717 -16.7944,-21.46478 -9.6713,-9.45253 -20.0067,-18.19573 -30.9498,-26.14945 -23.5339,-15.68929 -45.7219,17.5927 -22.188,33.28199 z" />
    <path
       style="fill:#000000;stroke-width:40;paint-order:markers stroke fill"
       id="path5383"
       d="m 1664.9051,889.24018 c 15.3977,-8.76118 31.0431,-17.09963 46.8574,-25.08367 15.5325,-7.69302 31.4976,-14.46064 47.2113,-21.76459 11.0999,-5.79851 22.1815,-11.61934 33.7493,-16.43854 8.7167,-3.81672 17.6582,-7.05747 26.6852,-10.0506 3.554,-0.73678 7.2229,-2.54891 10.7632,-3.17177 -2.6583,0.7075 -5.6763,0.2843 -8.3742,-0.68193 -0.3627,-0.12989 -0.6983,-0.6527 -1.047,-0.48917 -0.3033,0.14224 0.5358,0.40214 0.8038,0.6032 0.6509,0.44514 1.1966,1.02158 1.8239,1.49548 0.9314,0.70355 1.8592,1.41473 2.8325,2.05904 1.1754,0.77806 2.6613,1.16769 3.5991,2.22001 0.084,0.094 -0.2316,-0.0987 -0.3475,-0.14808 -1.3645,-1.04572 -1.3073,-0.90504 -2.6973,-2.72355 -0.3477,-0.45495 -0.5119,-1.04031 -0.8939,-1.46695 -0.1939,-0.21659 0.1925,0.54925 0.3103,0.81502 1.5841,3.5746 1.1078,2.47502 3.5117,6.35455 0.1239,0.18267 0.476,0.7425 0.3717,0.54798 -0.5629,-1.04987 -1.5212,-1.94725 -1.749,-3.11653 -2.5469,-13.07184 -2.4196,-18.70173 13.5829,-26.63301 4.7121,-2.33542 9.6935,-0.003 13.9367,1.87693 -7.4314,-5.9491 -15.1903,-11.46924 -22.6862,-17.33484 -6.2363,-5.20954 -12.6574,-10.20977 -18.4662,-15.90294 -2.1865,-2.53648 -4.91,-4.59862 -7.0896,-7.13462 -0.029,-0.0332 0.1487,0.0135 0.1289,-0.0257 -0.1489,-0.29448 -0.3707,-0.54599 -0.5561,-0.81899 -0.3382,-1.21107 0.666,1.54438 0.6801,0.40582 -0.06,-2.23171 -0.033,-4.46487 -0.022,-6.69708 0.02,-3.55841 0.031,-7.11687 0.038,-10.6753 0.3672,0.71149 -0.7707,2.17726 0.27,1.70831 0.1825,-0.22143 0.365,-0.44284 0.5476,-0.66427 17.0999,-22.5298 -14.762,-46.71276 -31.862,-24.18296 v 0 c -0.638,0.85968 -1.276,1.71934 -1.914,2.57899 -3.9824,6.23724 -6.9917,12.92673 -7.0416,20.4854 -0.01,3.51488 -0.017,7.02976 -0.037,10.54462 -0.019,3.7397 -0.09,7.48877 0.2546,11.21746 0.8048,6.63517 2.612,13.05547 6.5644,18.56674 3.5687,4.89757 7.8266,9.10487 12.1329,13.34913 6.883,6.67247 14.3319,12.69785 21.746,18.76607 7.3846,5.76141 14.9964,11.22268 22.3281,17.05179 5.4957,3.95081 11.5264,9.31267 19.6915,5.94027 16.0254,-6.61893 20.7627,-19.93046 11.9169,-32.79574 0.2975,0.56496 0.6146,1.12006 0.8925,1.69492 0.046,0.0943 0.1155,0.40158 0.074,0.30525 -2.1931,-5.14893 -4.5471,-9.81387 -9.0922,-13.36395 -3.2202,-2.41503 -6.1638,-3.95218 -9.1715,-6.58921 -7.6447,-5.52886 -14.8194,-8.22253 -24.3879,-6.02276 -4.708,1.18742 -9.3036,2.78249 -13.978,4.09252 -9.9979,3.32738 -19.9068,6.91597 -29.569,11.13372 -12.0018,5.07616 -23.6484,10.88824 -35.1294,17.04935 -16.0978,7.49991 -32.4764,14.40225 -48.3752,22.32928 -16.4864,8.33694 -32.8089,17.01868 -48.8595,26.16782 -24.4779,14.17145 -4.4365,48.7885 20.0415,34.61705 z" />
    <path
       style="fill:#000000;stroke-width:40;paint-order:markers stroke fill"
       id="path5385"
       d="m 1614.5489,525.72406 c 9.4043,0.0879 18.4591,-2.51391 27.3568,-5.26627 5.6855,-1.83327 11.3491,-3.79375 16.7102,-6.4526 2.0245,-1.00407 5.6546,-3.0375 7.7084,-4.17335 1.1047,-0.5868 2.2061,-1.17967 3.3139,-1.76038 1.7868,-0.93655 5.6167,-2.94029 7.4571,-3.72666 5.2179,-2.22954 10.7064,-3.72533 16.1564,-5.24796 11.4069,-2.95383 22.8735,-5.74725 33.9638,-9.77556 1.9533,-0.7095 3.8777,-1.49624 5.8166,-2.24438 6.1975,-2.29629 12.0665,-5.64711 18.3309,-7.75999 4.3,-1.30066 8.5319,-2.79119 12.7436,-4.35991 4.3031,-1.54376 8.3669,-3.6907 12.637,-5.30828 0.2678,-0.0865 0.5355,-0.17299 0.8033,-0.25948 26.7261,-9.25795 13.6335,-47.05453 -13.0927,-37.79657 v 0 c -0.7942,0.28133 -1.5883,0.56266 -2.3825,0.84399 -4.0084,1.60549 -7.9203,3.43879 -11.9322,5.03806 -2.0258,0.75526 -4.045,1.56427 -6.1043,2.22703 -1.3575,0.43685 -2.7427,0.78486 -4.0939,1.24179 -0.6765,0.21826 -1.3433,0.46512 -2.015,0.69768 -6.5944,2.40441 -12.928,5.43013 -19.3925,8.15568 -1.4301,0.56208 -2.8479,1.15689 -4.2904,1.68627 -10.4004,3.81643 -21.2058,6.29417 -31.8964,9.12876 -2.6829,0.76838 -5.3846,1.47323 -8.0485,2.30508 -5.0207,1.56786 -9.8224,3.32896 -14.6444,5.43049 -4.358,1.89936 -8.4753,4.3189 -12.6986,6.4865 -2.4035,1.33122 -4.8091,2.84609 -7.3332,3.95351 -3.1205,1.36903 -6.3869,2.39506 -9.6111,3.47969 -5.0364,1.58269 -10.126,3.40069 -15.4623,3.45686 -28.2843,0 -28.2843,40 0,40 z" />
    <path
       style="fill:#333333;stroke-width:472.441;paint-order:markers stroke fill"
       d="m 6182.4708,1973.3277 c -56.7443,14.578 -116.2943,13.3129 -173.0649,28.742 -37.8749,9.1649 -77.1207,15.8913 -114.0201,27.3737 -11.4205,30.0046 -10.1263,63.8457 -18.9751,94.8802 -9.1283,54.9147 -45.3125,103.4477 -95.8621,127.0604 -99.3174,51.8316 -212.7327,64.0346 -321.2468,85.1151 -128.984,0.5949 -257.9932,-0.9183 -386.737,-9.3201 -22.8148,-0.518 -46.0871,-2.601 -68.6097,-1.9714 -32.1591,73.9611 -35.6737,156.118 -49.3074,234.6589 -26.8328,194.9225 -55.2,389.7464 -74.716,585.562 -4.1034,41.7776 -2.5384,84.0016 5.896,125.1709 16.5639,-22.0548 29.2852,-52.0668 45.713,-76.5233 51.5471,-84.3788 109.8557,-164.6755 154.7468,-253.0651 26.6187,-50.6179 57.3186,-104.0347 111.2638,-129.3008 39.1336,-24.033 91.7739,-24.6266 128.3847,4.8518 26.6629,16.6597 50.2276,38.5517 77.2257,54.2632 9.9541,-27.044 6.8605,-58.1258 9.906,-86.7492 4.1048,-63.5261 0.74,-127.9829 9.729,-190.8997 6.4851,-35.8449 31.116,-72.7664 69.8852,-77.8748 48.0928,-12.5137 89.6114,24.2106 129.1733,45.2353 76.4885,48.0224 162.0649,88.211 218.2938,161.5152 7.5222,12.5045 13.5428,26.3695 28.0248,32.3475 70.672,50.5362 134.8375,110.4478 184.701,181.9164 63.72,80.1746 137.5782,151.7955 198.6307,234.2223 7.9923,7.7018 13.586,21.3094 23.7021,25.4335 98.7248,-49.4959 197.6008,-98.6302 298.0252,-144.6536 53.7344,-26.5212 108.312,-51.5833 162.0578,-77.8623 9.1116,-4.8482 1.7958,-12.6342 -4.2786,-15.6738 -26.1462,-27.8496 -49.3915,-63.1871 -45.3308,-103.1677 -0.314,-39.1385 -0.9449,-79.6202 2.6062,-117.9688 -15.9804,-3.2128 -34.8957,-1.3913 -48.2177,-13.6596 -28.5641,-24.9121 -43.0198,-61.5585 -66.7582,-90.6897 -48.3723,-65.1993 -91.8556,-133.9725 -126.1751,-207.6671 -46.105,-88.5651 -85.1988,-183.4748 -155.0488,-256.7793 -38.107,-46.1722 -64.2132,-100.6795 -95.4079,-151.5254 -8.7788,-12.5984 -7.7182,-28.5784 -11.5722,-42.2399 -0.7184,-0.6234 -1.7073,-0.834 -2.6367,-0.7568 z"
       id="path5634"
       transform="scale(0.26458333)" />
    <path
       style="fill:#666666;stroke-width:1336.26;paint-order:markers stroke fill"
       d="m 6862.354,3091.348 c -170.144,66.6336 -334.533,150.0866 -498.0822,232.0021 -28.3952,19.3277 21.9939,50.7667 29.9347,68.6391 250.7468,299.1927 548.4103,553.209 818.5238,833.9889 327.4921,327.9631 650.5374,660.2114 967.9333,997.901 313.4791,314.2442 628.3054,627.3517 948.0575,935.1833 185.9132,125.5033 367.7291,258.794 562.1291,370.7995 33.1006,15.0459 54.3415,-34.4894 80.0662,-47.7559 123.5302,-108.0231 210.9269,-250.1274 327.4176,-364.0786 -40.389,-97.0066 -102.097,-184.5056 -189.3787,-244.6562 C 9542.334,5563.5223 9205.572,5220.321 8856.2045,4891.4304 8582.623,4626.4582 8313.1875,4356.844 8021.7667,4111.1535 c -322.8827,-274.295 -616.845,-580.1193 -931.5814,-863.3423 -64.0167,-56.8292 -138.1091,-100.8623 -206.2694,-152.1474 -6.67,-3.2095 -14.1327,-5.0651 -21.5619,-4.3158 z"
       id="path5705"
       transform="scale(0.26458333)" />
  </g>
</svg>
