<?xml version="1.0" encoding="UTF-8" standalone="no"?>
<!-- Created with Inkscape (http://www.inkscape.org/) -->

<svg
   width="3840mm"
   height="2160mm"
   viewBox="0 0 3840 2160"
   version="1.1"
   id="svg106571"
   sodipodi:docname="bonus_spirit_hearts.svg"
   xml:space="preserve"
   inkscape:version="1.2.2 (732a01da63, 2022-12-09)"
   inkscape:export-filename="more_heart.png"
   inkscape:export-xdpi="96.096664"
   inkscape:export-ydpi="96.096664"
   xmlns:inkscape="http://www.inkscape.org/namespaces/inkscape"
   xmlns:sodipodi="http://sodipodi.sourceforge.net/DTD/sodipodi-0.dtd"
   xmlns="http://www.w3.org/2000/svg"
   xmlns:svg="http://www.w3.org/2000/svg"><sodipodi:namedview
     id="namedview106573"
     pagecolor="#ffffff"
     bordercolor="#000000"
     borderopacity="0.25"
     inkscape:showpageshadow="2"
     inkscape:pageopacity="0.0"
     inkscape:pagecheckerboard="0"
     inkscape:deskcolor="#d1d1d1"
     inkscape:document-units="mm"
     showgrid="false"
     inkscape:zoom="0.028284271"
     inkscape:cx="9811.1066"
     inkscape:cy="3252.6912"
     inkscape:window-width="1920"
     inkscape:window-height="986"
     inkscape:window-x="-11"
     inkscape:window-y="-11"
     inkscape:window-maximized="1"
     inkscape:current-layer="layer1" /><defs
     id="defs106568" /><g
     inkscape:label="Layer 1"
     inkscape:groupmode="layer"
     id="layer1"><path
       id="path111793"
       style="fill:#5e9fff;fill-opacity:1;stroke:#000000;stroke-width:146.632;stroke-dasharray:none;paint-order:markers stroke fill"
       d="m 482.52292,511.81048 -221.97159,143.94358 20.99772,318.51352 590.04808,540.22122 c 16.3406,0.5941 32.6795,1.3288 49.0137,2.1168 l 2.8537,-824.0999 -164.9793,-165.38206 z" /><path
       id="path111795"
       style="fill:#5e9fff;fill-opacity:1;stroke:#000000;stroke-width:146.632;stroke-dasharray:none;paint-order:markers stroke fill"
       d="m 1412.197,493.43475 -275.9624,15.3131 -164.97917,165.382 2.933,846.88225 c 6.809,0.3985 13.6205,0.7945 20.4305,1.1982 L 1613.1708,955.89183 1634.1686,637.3783 Z" /><rect
       style="fill:#5e9fff;fill-opacity:1;stroke:none;stroke-width:96.8844;stroke-dasharray:none;paint-order:markers stroke fill"
       id="rect111953"
       width="137.86751"
       height="845.21899"
       x="867.85712"
       y="662.04749" /><rect
       style="fill:#5e9fff;fill-opacity:1;stroke:none;stroke-width:146.631;stroke-dasharray:none;paint-order:markers stroke fill"
       id="rect111955"
       width="97.839867"
       height="19.48913"
       x="971.81287"
       y="1440.3174"
       transform="matrix(0.99825765,0.05900562,-0.05660985,0.99839638,0,0)" /><ellipse
       style="fill:#000000;fill-opacity:1;stroke:none;stroke-width:146.632;stroke-dasharray:none;paint-order:markers stroke fill"
       id="path111967"
       cx="939.31927"
       cy="656.61163"
       rx="45.005798"
       ry="25.716578" /><path
       id="path547"
       style="fill:#ffd42a;fill-opacity:1;stroke:#000000;stroke-width:146.632;stroke-dasharray:none;paint-order:markers stroke fill"
       d="m 2255.1881,488.4244 -221.9716,143.94358 20.9977,318.51352 590.0481,540.2212 c 16.3406,0.5941 32.6795,1.3288 49.0137,2.1168 l 2.8537,-824.09988 -164.9793,-165.38206 z" /><path
       id="path549"
       style="fill:#ffd42a;fill-opacity:1;stroke:#000000;stroke-width:146.632;stroke-dasharray:none;paint-order:markers stroke fill"
       d="m 3184.8622,470.04867 -275.9624,15.3131 -164.9792,165.382 2.933,846.88223 c 6.809,0.3985 13.6205,0.7945 20.4305,1.1982 l 618.5519,-566.31845 20.9978,-318.51353 z" /><rect
       style="fill:#ffd42a;fill-opacity:1;stroke:none;stroke-width:96.8844;stroke-dasharray:none;paint-order:markers stroke fill"
       id="rect551"
       width="137.86751"
       height="845.21899"
       x="2640.5222"
       y="638.66138" /><rect
       style="fill:#ffd42a;fill-opacity:1;stroke:none;stroke-width:146.631;stroke-dasharray:none;paint-order:markers stroke fill"
       id="rect553"
       width="97.839867"
       height="19.48913"
       x="2740.3167"
       y="1312.3745"
       transform="matrix(0.99825765,0.05900562,-0.05660985,0.99839638,0,0)" /><ellipse
       style="fill:#000000;fill-opacity:1;stroke:none;stroke-width:146.632;stroke-dasharray:none;paint-order:markers stroke fill"
       id="ellipse555"
       cx="2711.9844"
       cy="633.22552"
       rx="45.005798"
       ry="25.716578" /><path
       style="fill:#000000;fill-opacity:0;stroke-width:20;paint-order:markers stroke fill"
       id="path1719"
       d="m 2680.3646,704.77752 c -0.876,18.69051 -1.1369,37.40005 -1.3523,56.10728 -0.3095,38.56225 -0.291,77.12625 -0.3082,115.68946 -0.011,36.46215 0,72.92427 0,109.38639 -0.3945,32.91425 0.1294,65.79455 1.7303,98.66955 0.9965,23.9636 2.7816,47.8832 3.9675,71.8362 0.5384,16.2025 2.7347,32.2609 4.4138,48.3655 1.1551,8.9104 2.3084,17.8166 2.8487,26.7879 0.1482,2.7714 0.2069,5.546 0.2622,8.3204 0.7229,35.3479 50.7122,34.3259 49.9896,-1.022 v 0 c -0.072,-3.4566 -0.1508,-6.9135 -0.3458,-10.366 -0.6046,-9.6795 -1.7235,-19.3047 -3.0252,-28.9144 -1.5905,-15.2017 -3.6976,-30.3549 -4.2048,-45.6494 -1.1906,-23.9398 -2.9623,-47.8468 -3.9656,-71.797 -1.5705,-32.0647 -2.0553,-64.1332 -1.6706,-96.2366 -0.01,-36.45275 -0.011,-72.90551 0,-109.35827 0.019,-38.37924 0,-76.75924 0.3051,-115.13753 0.2164,-18.89953 0.5297,-37.7969 1.3555,-56.68148 0,-35.35534 -49.9999,-35.35534 -49.9999,0 z" /><path
       style="fill:#000000;fill-opacity:1;stroke-width:20;paint-order:markers stroke fill"
       id="path2419"
       d="m 2672.8256,763.91317 c 0,14.85042 0,29.70082 0,44.55125 0,24.25396 0,48.50792 0,72.76187 0,22.27149 0,44.54298 0,66.81444 0,18.41669 0,36.83338 0,55.25007 0,19.884 0,39.768 0,59.652 -0.2353,15.8951 0.1918,31.7718 0.9959,47.6448 0.9556,15.8672 1.7131,31.7425 2.0809,47.6342 -0.2381,13.6036 1.1234,27.1272 2.4138,40.6475 5.0392,52.7931 79.6999,45.6667 74.6606,-7.1263 v 0 c -1.1202,-11.7375 -2.404,-23.4563 -2.0949,-35.2714 -0.3903,-16.5883 -1.1563,-33.1609 -2.159,-49.7236 -0.7583,-14.5944 -1.1205,-29.1898 -0.8975,-43.8052 0,-19.884 0,-39.768 0,-59.652 0,-18.41669 0,-36.83338 0,-55.25007 0,-22.27146 0,-44.54295 0,-66.81444 0,-24.25395 0,-48.50791 0,-72.76187 0,-14.85043 0,-29.70083 0,-44.55125 0,-53.03303 -74.9998,-53.03303 -74.9998,0 z" /><path
       style="fill:#000000;fill-opacity:1;stroke-width:20;paint-order:markers stroke fill"
       id="path2421"
       d="m 2508.3117,948.65885 c 20.6328,-2.54257 41.4527,-0.46326 62.1283,0.49456 37.6921,1.67949 75.419,2.23909 113.1425,2.6113 23.3688,0.2132 46.7386,0.23506 70.1082,0.23212 18.2266,-0.51837 36.4098,-1.93617 54.6219,-2.7736 12.0981,-0.45654 24.207,-0.53136 36.3127,-0.57859 10.8977,0.2281 21.7739,-0.4458 32.648,-1.04997 8.0664,-0.42516 16.1454,-0.50689 24.2211,-0.56912 4.0581,-0.0246 8.1163,-0.0272 12.1745,-0.0312 53.0331,-0.0532 52.9577,-75.05313 -0.075,-74.99998 v 0 c -4.2277,0.004 -8.4558,0.007 -12.6835,0.0335 -9.2684,0.0729 -18.5407,0.18309 -27.798,0.68236 -9.5874,0.53279 -19.1722,1.1797 -28.7816,0.93501 -13.163,0.0521 -26.3295,0.14153 -39.484,0.65815 -17.0609,0.79352 -34.098,2.03896 -51.1654,2.69346 -23.1201,0.003 -46.2405,-0.018 -69.3598,-0.22847 -36.8128,-0.36213 -73.6285,-0.90032 -110.4107,-2.53457 -1.5727,-0.0729 -30.5721,-1.4229 -32.5606,-1.48939 -11.4469,-0.38267 -23.2899,-0.91835 -34.6901,0.82089 -0.5452,0.0832 1.1011,0.0624 1.6517,0.0936 -53.033,0 -53.033,75.00001 0,75.00001 z" /></g></svg>
