<?xml version="1.0" encoding="UTF-8" standalone="no"?>
<!-- Created with Inkscape (http://www.inkscape.org/) -->

<svg
   width="3840mm"
   height="2160mm"
   viewBox="0 0 3840 2160"
   version="1.1"
   id="svg5"
   inkscape:version="1.2.2 (732a01da63, 2022-12-09)"
   sodipodi:docname="press to teleport.svg"
   inkscape:export-filename="..\..\UI\teleportPrompt.png"
   inkscape:export-xdpi="96"
   inkscape:export-ydpi="96"
   xml:space="preserve"
   xmlns:inkscape="http://www.inkscape.org/namespaces/inkscape"
   xmlns:sodipodi="http://sodipodi.sourceforge.net/DTD/sodipodi-0.dtd"
   xmlns="http://www.w3.org/2000/svg"
   xmlns:svg="http://www.w3.org/2000/svg"><sodipodi:namedview
     id="namedview7"
     pagecolor="#ffffff"
     bordercolor="#000000"
     borderopacity="0.25"
     inkscape:showpageshadow="2"
     inkscape:pageopacity="0.0"
     inkscape:pagecheckerboard="0"
     inkscape:deskcolor="#d1d1d1"
     inkscape:document-units="mm"
     showgrid="false"
     inkscape:zoom="0.09064429"
     inkscape:cx="5036.1694"
     inkscape:cy="5924.2562"
     inkscape:window-width="1920"
     inkscape:window-height="986"
     inkscape:window-x="-11"
     inkscape:window-y="-11"
     inkscape:window-maximized="1"
     inkscape:current-layer="layer1" /><defs
     id="defs2"><rect
       x="12002.962"
       y="3574.4116"
       width="11440.323"
       height="375.09257"
       id="rect402" /></defs><g
     inkscape:label="Layer 1"
     inkscape:groupmode="layer"
     id="layer1"><path
       style="fill:#808080;fill-opacity:1;stroke-width:100;stroke-opacity:0.650246;paint-order:markers stroke fill"
       id="path74109"
       d="m 459.31772,1077.4865 c 8.40264,-0.1125 16.79773,0.2769 25.18995,0.6338 10.16383,0.6328 20.33518,0.4852 30.5032,0.1112 9.6356,-0.3795 19.27765,-0.4773 28.91139,-0.9014 6.02007,-0.32 12.04346,-0.6052 18.06996,-0.3678 9.01366,0.4199 18.0273,0.8308 27.04758,1.0775 5.28416,0.2575 10.56548,0.5717 15.85228,0.772 0.60118,0.018 1.20232,0.039 1.80361,0.055 1.10191,0.029 2.25345,0.047 3.3574,0.061 0.46816,0.01 0.93668,0 1.40452,0.014 0.0457,0 0.17436,0.049 0.12872,0.047 -0.35325,-0.016 -0.70472,-0.06 -1.05707,-0.09 -3.85791,-1.3263 -4.8528,-1.1934 -7.90749,-5.0134 -1.04024,-1.3009 -1.37036,-3.0417 -2.19314,-4.49 -0.0763,-0.1342 -0.0972,0.2979 -0.10078,0.4523 -0.0217,0.9268 0.0225,1.854 0.0254,2.7811 0.005,1.4653 0,2.9306 -0.003,4.3959 -0.1175,11.9497 0.13203,23.8984 -0.12999,35.8465 -0.0604,7.5415 -1.72725,14.9029 -3.00091,22.2948 -1.28722,8.1308 -2.58029,16.2398 -4.41354,24.2682 -0.41703,1.5378 -1.61112,5.9854 -2.07658,7.5269 -0.62391,2.0662 -1.24526,4.1217 -2.78035,5.692 -3.92279,2.5807 -8.38792,4.3164 -12.72487,6.0761 -4.95273,1.9258 -9.95619,3.7197 -15.09588,5.0848 -1.05195,0.2793 -2.09865,0.5986 -3.17412,0.7659 -0.74713,0.1163 -1.51128,0.054 -2.26693,0.081 -8.30696,-0.4309 -16.30928,-3.0275 -24.25959,-5.2809 -7.20418,-2.3322 -14.53407,-4.2455 -21.61318,-6.9435 -3.56949,-1.4672 -7.05358,-3.1369 -10.41487,-5.0336 -1.76075,-0.9936 -3.13851,-1.8148 -4.44807,-3.3049 -3.91324,-4.4629 -7.58404,-9.1367 -11.36454,-13.7142 -2.10886,-2.9015 -4.92795,-5.3493 -6.82879,-8.4093 -0.693,-1.1156 -1.19023,-2.3416 -1.79499,-3.5074 -0.49442,-0.9674 -1.04611,-1.9077 -1.48325,-2.9024 -0.63236,-1.4389 -2.82927,-7.7763 -3.08332,-8.5301 -1.79621,-5.3303 -3.30923,-10.7106 -4.74795,-16.1454 -0.86712,-3.6638 -1.80941,-7.328 -2.36802,-11.057 -0.17817,-1.1895 -0.29612,-2.2791 -0.0314,-3.4422 0.49406,-2.0417 1.15134,-4.0714 2.28931,-5.8501 0.12491,-0.136 0.21355,-0.3179 0.37473,-0.4081 0.0565,-0.032 0.0457,0.1413 0.008,0.194 -1.95029,2.7386 0.22688,-0.5935 -2.07409,1.9889 -0.0593,0.066 0.0597,0.2137 0.1484,0.2225 0.98489,0.098 1.97869,0.059 2.96802,0.089 2.02081,0.01 4.04209,-0.02 6.0624,0.024 4.40663,0.097 14.27832,0.5778 18.11133,0.7514 11.37087,0.5148 22.74216,0.9818 34.1103,1.5544 13.68322,0.6792 27.3599,1.5068 41.04981,2.0446 5.91751,0.2068 11.83905,0.212 17.75934,0.2122 1.42152,0.071 2.84721,-0.067 4.26892,-0.01 0.071,0 0.26117,0.1024 0.19029,0.096 -3.39522,-0.2828 -5.32376,-1.5776 -7.75219,-3.7874 0.7094,5.672 1.08397,11.3808 0.90159,17.1036 -0.0727,2.2812 -0.28051,4.5561 -0.42076,6.8341 -0.6857,7.2962 -1.51035,14.6035 -2.99588,21.788 -1.18364,5.7243 -2.92013,11.3317 -4.57279,16.9318 -1.04704,3.1168 -1.62854,5.0222 -2.83451,8.0015 -0.79626,1.9672 -1.28715,3.6168 -3.04387,4.7904 -2.59694,1.56 -5.42018,2.9436 -8.44373,3.441 -0.63053,0.1038 -1.27585,0.074 -1.91378,0.1116 -7.56637,-0.089 -14.5799,-3.0627 -21.52701,-5.7415 -5.1613,-2.2145 -10.0499,-5.0218 -14.30115,-8.7126 -1.61814,-1.4048 -5.22639,-4.9902 -6.62149,-6.3566 -6.93264,-6.9932 -14.1124,-13.7535 -20.83702,-20.9497 -1.90577,-2.2293 -3.50023,-4.8198 -4.43116,-7.6204 -0.28247,-0.8498 -0.81286,-3.4105 -0.95965,-4.0804 -1.13839,-6.4201 -2.20961,-12.8474 -3.39537,-19.2597 -0.0839,1.9055 -0.50641,-4.6844 -0.58065,-3.5031 -0.3969,6.3168 1.36101,4.7177 -3.08753,10.8644 -1.78509,2.4666 -4.12697,2.0359 -1.94376,2.266 9.56347,-0.7825 19.17041,-0.6214 28.75372,-0.4362 13.00536,0.059 25.96454,1.1932 38.92675,2.1201 5.20001,0.526 10.43818,0.6991 15.62777,1.3376 0.9502,0.1169 1.90622,0.2294 2.8343,0.4643 0.10959,0.028 0.27905,0.3078 0.16668,0.2953 -0.54274,-0.06 -1.04984,-0.3011 -1.57477,-0.4516 -7.86135,-6.6238 -0.26694,0.3946 -4.71654,-5.1036 -0.0884,-0.1092 -0.15595,0.2475 -0.1651,0.3877 -0.0551,0.8423 -0.0122,1.6881 -0.0259,2.5321 -0.0512,3.1262 -0.1157,5.3111 -0.19751,8.4894 -0.0707,6.5577 -1.12938,13.1029 -3.59201,19.2033 -0.39595,0.9808 -0.87974,1.9238 -1.31959,2.8857 -2.00694,3.2397 -4.43788,6.2673 -7.08728,9.0097 -1.09585,1.1343 -2.58922,2.3357 -3.78521,3.3429 -3.28224,2.4842 -4.83016,2.1641 -8.79219,2.1769 -3.79737,0.039 -7.54358,-0.5486 -11.24913,-1.3202 -2.92057,-0.6082 -5.81908,-1.2538 -8.62973,-2.2751 -1.19858,-0.4355 -2.34156,-1.011 -3.51234,-1.5165 -3.2503,-1.7362 -3.31383,-1.5888 -6.08145,-3.7042 -1.01171,-0.7733 -2.86305,-2.1953 -3.61878,-3.4354 -0.12417,-0.2037 -0.0395,-0.4757 -0.0716,-0.7122 -0.0488,-0.3606 -0.11398,-0.7188 -0.17098,-1.0783 -0.96009,-5.4936 -1.16903,-11.0861 -1.03587,-16.6511 1.50551,1.3309 -1.00113,3.2185 -1.01989,4.4902 -0.004,0.2987 0.52901,0.3597 0.82736,0.3445 1.29479,-0.066 2.55603,-0.4484 3.84553,-0.5824 1.75038,-0.182 3.51118,-0.2432 5.2668,-0.3648 11.81862,-0.4497 23.66486,-0.2864 35.46443,0.5181 0.97202,0.1143 1.95273,0.1702 2.9161,0.3428 0.28964,0.052 1.09734,0.2281 0.82008,0.3266 -1.09167,0.3881 -4.18177,-1.9734 -4.51136,-2.2484 -2.2706,-1.8946 -1.04217,-2.8461 -2.01483,-1.9884 0.33097,3.9314 0.18347,7.9349 -1.71439,11.4932 -0.25644,0.4809 -0.61823,0.8975 -0.92734,1.3463 -0.36266,0.4046 -0.66913,0.8677 -1.08799,1.2138 -0.38791,0.3206 -2.78882,0.7362 -3.10185,0.8012 -2.44144,0.507 -3.2713,0.57 -5.92719,0.9401 -6.5165,0.2177 -13.13352,-0.9457 -19.09244,-3.6154 -0.3425,-0.2049 -2.03586,-1.1243 -2.39511,-1.6244 -0.0797,-0.111 0.27646,2e-4 0.40825,0.036 0.64259,0.1756 0.93329,0.7268 1.26182,1.2468 1.34403,4.769 -0.0704,6.7068 -2.77262,10.6588 -0.28255,0.4132 -1.22153,0.624 -1.03478,1.0884 0.17491,0.435 0.9276,-0.1371 1.39229,-0.1993 0.8065,-0.1081 1.61409,-0.2078 2.42115,-0.3117 8.32765,-0.7438 16.69502,-0.4963 25.03945,-0.268 5.91806,0.1681 11.83804,0.3879 17.75827,0.2522 6.50968,-0.4822 12.60933,-2.6139 17.20715,-7.4937 3.94452,-4.1864 4.38698,-6.7649 6.41136,-11.9454 0.48485,-2.3256 1.04921,-4.6361 1.45455,-6.9768 0.65669,-3.7924 1.13959,-8.9077 1.51847,-12.7521 0.51202,-5.1951 0.93736,-10.3912 1.3031,-15.5982 0.55732,-8.634 0.62629,-17.2879 0.66974,-25.9364 0.0196,-8.8837 0.005,-17.7673 -0.005,-26.651 -0.008,-6.5167 -0.009,-13.0334 -0.0103,-19.55 0.0493,-6.5403 -0.1052,-13.0835 0.0814,-19.6217 0.46474,-6.10662 0.89302,-12.2137 1.15022,-18.33285 0.13539,-4.9937 0.0913,-9.97808 0.74552,-14.93743 0.77205,-4.54726 1.25357,-9.12336 1.50122,-13.72682 0.17888,-4.456 0.18102,-8.91654 0.1847,-13.3754 -0.1706,-2.50857 0.4671,-6.99561 -0.50276,-9.15527 -1.34588,-2.99696 -3.36666,-5.64253 -5.05,-8.46378 -1.52376,-1.00116 -2.95526,-2.15932 -4.57128,-3.0035 -1.15906,-0.60547 -2.44729,-0.92689 -3.69597,-1.31514 -11.28043,-3.50755 -3.0861,8.5993 -4.4932,28.94193 0.62304,0.068 1.26494,-0.10671 1.8792,0.0161 0.31567,0.0631 0.52948,0.38359 0.83487,0.48545 1.39231,0.4644 2.83104,0.77745 4.23497,1.2055 3.97828,1.21293 5.89735,1.92439 9.81371,3.28893 3.06502,1.16977 6.24549,2.19363 9.0283,3.98031 1.99126,1.27847 3.70467,3.03858 5.436,4.62574 4.05892,4.01886 7.94237,8.35858 10.75258,13.3605 2.54675,5.69497 4.51115,11.62606 6.1286,17.64472 0.83937,4.34605 2.39115,8.90691 1.52945,13.37081 -0.75787,2.6025 -0.98401,5.7134 -2.76439,7.8838 -1.23468,1.042 -2.47859,2.1385 -3.88771,2.9442 -0.27599,0.1578 -2.60075,1.0497 -2.62673,1.0599 -5.27031,1.4945 -10.91142,1.1088 -16.31138,0.6834 -2.56582,-0.2361 -7.96284,-0.5316 -9.81712,-2.8818 -0.12618,-0.1599 -0.13288,-0.3851 -0.19931,-0.5777 -0.0862,-0.2634 -0.15148,-0.5346 -0.25861,-0.7903 -0.23754,-0.5669 -0.55782,-1.0983 -0.77385,-1.6738 -1.46122,-3.8926 -1.99856,-8.1337 -2.65843,-12.2088 -1.47629,-8.43791 -2.70602,-16.91347 -3.65889,-25.42588 -0.52351,-5.03764 -0.21241,-10.06025 0.27265,-15.08027 0.27265,-1.9993 0.47122,-4.33303 1.77379,-5.99765 1.10945,1.15125 -1.05579,1.14247 -1.14078,1.86674 -0.007,0.0575 0.11941,-0.0148 0.1668,-0.048 0.48458,-0.3398 0.95406,-0.70098 1.42068,-1.0651 1.04256,-0.81365 2.06113,-1.65764 3.09396,-2.48367 1.24846,-0.98994 2.39479,-2.11929 3.66402,-3.08534 0.0366,-0.0278 -0.0309,0.0914 -0.0661,0.12097 -0.20492,0.17198 -0.40315,0.36386 -0.6458,0.47652 -1.02131,0.47424 -2.08534,0.85055 -3.12801,1.27582 -0.91045,0.4649 0.58793,0.41799 0.85461,0.78253 0.0567,0.0775 -0.22963,0.0391 -0.25628,0.13129 -0.15012,0.51913 0.4626,0.11199 -0.0664,0.38912 1.90815,2.75833 3.14473,5.85943 4.22926,9.01046 0.22241,0.66776 1.38843,4.10567 1.58353,4.91869 0.0206,0.0856 -0.0862,0.33099 -0.10083,0.24415 -0.66326,-3.94419 -0.56721,-6.64146 3.04543,-10.4222 2.08627,-2.18329 5.35774,-2.78781 8.03659,-4.18171 0.25786,-0.18391 0.99205,-0.32245 0.77356,-0.55174 -0.78563,-0.82439 -1.9781,-1.12979 -2.94672,-1.72863 -1.56641,-0.96845 -3.12973,-1.94349 -4.65706,-2.97243 -3.99084,-2.68859 -5.9853,-4.1439 -9.54556,-7.28215 -1.26825,-1.11792 -2.45843,-2.32143 -3.68763,-3.48216 -1.59602,-1.63949 -3.96846,-4.01008 -5.49492,-5.80832 -1.23208,-1.4515 -1.67116,-1.7848 -1.55051,-3.43352 0.019,-0.23926 0.0506,-0.47789 0.0568,-0.71784 0.0119,-0.46522 -0.0566,-0.93393 -0.003,-1.39616 0.0188,-0.1598 0.14628,0.31277 0.11099,0.46975 -0.34145,1.51807 -0.16132,3.37174 -1.22949,4.5032 -2.88693,3.05798 -6.15612,6.1382 -10.12619,7.52528 -2.64369,0.92366 -5.55464,-0.71755 -8.33194,-1.07635 -0.11136,0.0358 -0.4078,0.0167 -0.33406,0.10737 0.58975,0.7262 1.35215,1.29352 2.01107,1.95763 0.79269,0.79896 1.56715,1.61586 2.34315,2.43104 2.63602,2.76921 5.18263,5.61538 7.74038,8.45651 2.10746,2.37283 4.38669,4.91492 5.34011,8.02759 0.28824,0.94096 0.5759,3.12314 0.69832,3.91969 0.84206,6.04205 0.42548,12.15208 0.063,18.21188 -0.26117,4.36626 -0.55703,8.73038 -0.83031,13.09587 -0.1464,2.07706 -0.29573,4.15391 -0.43916,6.23118 -0.51295,7.42944 -0.25196,4.53514 -0.90461,11.59804 -0.0377,0.4083 -0.90948,9.4679 -0.94763,10.0968 -0.10266,1.6913 -0.10353,3.3872 -0.15529,5.0809 0.42879,4.2619 0.40632,8.2599 2.76792,12.1272 4.16628,6.8225 8.33842,9.8691 16.59255,10.9708 6.58947,0.8795 12.23721,-1.8813 18.13726,-3.9978 2.71381,-1.4342 5.51789,-2.7092 8.14142,-4.3025 8.72535,-5.2991 18.221,-13.3955 23.06359,-22.5597 1.16838,-2.2111 1.88024,-4.6346 2.82036,-6.9519 1.10487,-7.4304 1.97855,-8.1848 -0.38619,-16.02464 -2.32992,-7.72435 -8.96398,-14.51573 -14.43117,-20.19718 -5.82901,-5.40499 -12.19901,-12.57059 -20.95563,-12.61523 -3.34733,-0.0172 -6.5322,1.46611 -9.79829,2.19917 -2.20226,1.70659 -4.5982,3.18894 -6.60678,5.11974 -4.65479,4.47452 -8.40422,13.03419 -9.64335,19.33678 -0.31387,1.59641 -0.40478,3.22866 -0.60716,4.84298 -0.31703,10.44698 3.72417,18.93508 8.8452,27.71648 3.36053,5.1555 7.73843,10.9201 14.33023,12.0235 3.0946,0.518 6.40318,0.5753 9.40705,-0.331 2.97969,-0.899 5.29683,-3.2697 7.94523,-4.9045 1.37927,-1.8527 2.96833,-3.5662 4.13782,-5.5579 4.02949,-6.8626 5.64377,-16.9524 5.5817,-24.83712 -0.0169,-2.13783 -0.2911,-4.26585 -0.43664,-6.39879 -0.82325,-4.47617 -0.85016,-5.91291 -2.53574,-10.11491 -0.56669,-1.41272 -1.34602,-2.73058 -2.01904,-4.09589 -10.10232,-18.65323 -36.48197,-4.36636 -26.37964,14.28687 v 0 c 0.82946,-0.50353 0.79639,3.41871 1.04946,2.54884 0.11584,0.84275 0.30843,1.67849 0.34746,2.52827 0.11109,2.41761 -0.13158,4.34883 -0.46432,6.72763 -0.10882,0.7781 -0.27255,1.5477 -0.39042,2.3244 -0.0507,0.3341 -0.41452,0.8506 -0.11509,1.0071 0.33226,0.1737 0.65182,-0.3707 0.97774,-0.556 1.58832,-0.6653 3.05882,-1.7625 4.76496,-1.9959 4.25942,-0.583 8.5802,0.5638 11.17295,4.0588 0.49827,0.6717 -3.23347,-3.6929 -1.54619,-1.9757 -1.32427,-2.1914 -2.53765,-4.4129 -3.61374,-6.73859 -0.21418,-0.46292 -0.40423,-0.93663 -0.60637,-1.40497 -0.11403,-0.3207 -0.20648,-0.64992 -0.3421,-0.9621 -0.0643,-0.14793 -0.16976,-0.27427 -0.25464,-0.4114 -0.0568,-1.41851 0.10221,-2.22663 0.60135,-3.61712 0.15488,-0.43151 0.34803,-0.84876 0.4994,-1.28148 0.0793,-0.22665 0.43158,-0.70578 0.19174,-0.69435 -0.76068,0.0362 -1.42976,0.52493 -2.14463,0.7874 -6.64692,0.27567 -3.89742,0.95443 -9.54183,-1.66008 -0.12988,-0.0602 0.29289,0.042 0.41193,0.12153 0.54964,0.36716 1.06365,0.78605 1.57456,1.20547 1.97985,1.6253 2.65655,2.33791 4.60298,4.17888 2.62851,2.69671 2.5635,2.5713 4.97756,5.26321 0.48649,0.5425 0.91342,1.1402 1.43518,1.6489 0.18171,0.1771 0.48537,0.5775 0.65473,0.3885 2.05074,-2.2889 -0.51043,-1.3637 0.98193,-1.8157 0.0267,0.3025 0.17973,0.6206 0.0803,0.9076 -0.70374,2.0307 -2.42729,3.9851 -3.83987,5.4404 -3.70814,3.8201 -8.07524,6.9249 -12.78969,9.3736 -1.08334,0.5007 -2.34673,0.7221 -3.25004,1.502 -0.25059,0.2164 0.29983,0.6169 0.56221,0.8188 1.31083,1.0087 2.97757,1.5737 4.1116,2.7777 1.031,1.0946 1.63716,2.5425 2.2093,3.9331 0.18939,0.4604 0.25485,1.0526 0.0233,1.4932 -0.15446,0.2939 -0.20714,-0.6308 -0.3107,-0.9463 0.054,-4.4374 0.58849,-8.8114 0.99327,-13.2294 0.68705,-7.4984 0.43477,-4.7024 0.94859,-12.1495 0.14867,-2.15486 0.30308,-4.30926 0.45461,-6.46386 0.80814,-12.91061 2.26777,-25.95684 0.28937,-38.83065 -1.00116,-4.81367 -1.08159,-6.27692 -2.93275,-10.86403 -2.34013,-5.79871 -6.10817,-10.90372 -10.27372,-15.50739 -6.02088,-6.68726 -11.92699,-13.62662 -19.23227,-18.96155 -3.62415,-0.84008 -7.24812,-3.35954 -10.87249,-2.52028 -10.20895,2.36402 -14.17561,9.12799 -14.36053,18.09667 -0.0629,3.05023 0.35319,5.12096 0.7638,8.21473 1.14745,4.17111 1.19293,5.21709 3.24363,9.09199 3.08902,5.83681 7.93496,10.42903 12.51083,15.07439 1.72122,1.59028 3.38788,3.24173 5.16363,4.77087 4.36909,3.76234 7.79688,6.32102 12.61049,9.48047 3.57767,2.34823 9.86671,6.25168 13.93275,7.69858 2.81543,1.00184 5.80639,1.41681 8.70958,2.12524 4.27762,-1.38827 9.25711,-1.43733 12.83293,-4.16481 3.01717,-2.30137 4.33318,-6.33188 5.61239,-9.90447 1.62796,-4.54654 -1.14792,-12.05187 -2.63916,-16.54331 -2.60086,-7.17714 -5.7888,-14.14748 -10.98,-19.86422 -3.04332,-2.87084 -3.81177,-3.9669 -7.39476,-5.98633 -5.68595,-3.20469 -11.95824,-4.48924 -18.44956,-4.16762 -2.2122,0.57452 -4.47847,0.97108 -6.63664,1.72361 -2.82409,0.98472 -5.78999,3.89659 -8.13314,5.82321 -3.89133,3.11528 -8.13549,5.866 -10.81262,10.21445 -3.14746,5.70881 -5.07725,11.53843 -5.62173,18.07954 -0.67239,7.08437 -0.98317,14.18854 -0.22157,21.28673 1.01688,9.02396 2.30545,18.01204 3.87112,26.95784 2.02661,12.1213 4.24662,22.1168 12.70138,31.6109 1.60314,1.3829 3.09303,2.9092 4.80944,4.1488 6.87586,4.9657 15.33223,6.8087 23.62985,7.4134 10.23292,0.6968 20.70346,0.769 30.39708,-3.0743 1.32961,-0.5976 2.69227,-1.1265 3.98881,-1.7929 6.58394,-3.3837 12.28008,-8.2941 16.41385,-14.4448 0.65455,-1.167 1.36543,-2.3041 1.96368,-3.501 2.56739,-5.1363 3.85895,-10.8304 4.81934,-16.4501 0.12573,-1.4351 0.32067,-2.8657 0.37719,-4.3051 0.26839,-6.83636 -1.23439,-13.59353 -2.79215,-20.19919 -2.37318,-8.58914 -5.14173,-17.12799 -9.27158,-25.05462 -0.70742,-1.16353 -1.37639,-2.35132 -2.12225,-3.49059 -4.03469,-6.16268 -9.01097,-11.69442 -14.29518,-16.79792 -2.73108,-2.45113 -4.35554,-4.03302 -7.36396,-6.20927 -5.27283,-3.81431 -11.28159,-6.34796 -17.38775,-8.49378 -5.86082,-2.03084 -11.78682,-4.25487 -17.86946,-5.54474 -2.27269,-0.48194 -4.57713,-0.81217 -6.8829,-1.09652 -0.40954,-0.0505 -3.34915,0.0367 -3.82211,0.0484 -1.0636,9.85581 -2.43986,19.68286 -3.19077,29.56743 -0.0241,0.3167 0.61812,0.14673 0.92826,0.21518 0.16664,0.0368 0.66112,0.13931 0.50787,0.0643 -2.66578,-1.30464 -0.59873,-0.0262 -4.13967,-2.74601 -5.33927,-10.38138 -3.16127,-3.79801 -3.8336,-9.37466 -0.0415,-0.34452 0.003,0.694 0.003,1.041 0.003,1.37991 0.006,2.75982 0.006,4.13975 -0.003,3.94661 -0.003,7.89451 -0.14409,11.8391 -0.1931,3.88683 -0.67432,7.73472 -1.31123,11.57475 -0.69596,5.7835 -0.89405,11.57698 -0.95003,17.39932 -0.25943,6.26988 -0.75446,12.52252 -1.16565,18.78347 -0.17174,6.8075 -0.0644,13.6176 -0.0921,20.4268 0,6.5255 0.003,13.0511 0.0103,19.5767 0.009,8.8232 0.0238,17.6464 0.005,26.4696 -0.0396,8.0003 -0.0926,16.0057 -0.59703,23.9932 -0.64638,9.2871 -1.46241,18.5688 -2.76149,27.7897 0.0246,0.2472 -0.17491,0.7365 0.0735,0.7417 0.42624,0.01 0.68715,-0.5086 1.05854,-0.718 0.60521,-0.3412 2.29222,-1.4618 3.35569,-1.0962 0.16391,0.056 -0.33134,0.1018 -0.49699,0.1526 -5.37745,0.1782 -10.76119,-0.1563 -16.13763,-0.2518 -10.121,-0.275 -20.2796,-0.5374 -30.36287,0.5972 -5.34837,0.8731 -12.413,1.9279 -16.74497,5.4438 -5.42957,4.4068 -7.46813,7.8851 -8.25336,14.5687 -0.22665,1.9293 0.28358,3.8747 0.42537,5.812 1.22869,3.9504 1.28944,5.0587 3.54668,8.6085 3.5518,5.5855 8.9185,9.3524 14.84014,12.077 1.62819,0.6437 3.22842,1.3633 4.88458,1.9312 7.48458,2.5667 15.66386,3.9671 23.57514,3.9582 2.21128,0 4.41568,-0.2472 6.62352,-0.3708 4.68157,-0.7645 7.61111,-1.0522 12.17647,-2.6111 8.659,-2.9568 14.80566,-7.8451 19.66378,-15.5649 0.92499,-1.8012 1.97546,-3.5432 2.77495,-5.4035 3.70719,-8.6259 4.28776,-18.097 3.0661,-27.3049 -1.14501,-4.949 -1.32699,-7.8683 -4.79441,-12.192 -5.0225,-6.2629 -12.34546,-8.1612 -19.91365,-8.7321 -13.30439,-0.877 -26.66077,-1.103 -39.98267,-0.4796 -8.21105,0.7679 -17.15048,1.3368 -24.43046,5.782 -5.63441,3.4404 -8.50074,7.2504 -10.79122,13.342 -0.75382,2.0048 -0.78589,4.211 -1.17885,6.3165 -0.14785,9.5586 0.23691,19.2333 3.19522,28.4066 2.4915,5.5799 2.52201,6.6427 6.52743,11.4721 1.22372,1.4754 2.64887,2.7781 4.08688,4.0457 4.70157,4.1442 10.13733,7.3929 15.81666,9.9945 2.11662,0.8377 4.19735,1.7724 6.34984,2.5131 9.25976,3.1862 19.53197,4.7167 29.29964,4.8137 4.46101,-0.1922 6.29449,-0.081 10.68978,-1.0368 6.22303,-1.3533 11.81132,-4.3971 16.73751,-8.368 2.96932,-2.5804 3.94198,-3.3055 6.7087,-6.2238 4.76356,-5.0245 8.94601,-10.6605 12.08992,-16.8344 0.73459,-1.7151 1.53689,-3.4027 2.20374,-5.1452 3.44639,-9.0054 5.04328,-18.6089 5.2256,-28.2265 0.19836,-7.7449 1.2885,-19.1114 -2.85554,-25.8959 -1.43793,-2.3541 -3.65297,-4.1345 -5.47947,-6.2017 -1.77482,-0.9772 -3.45881,-2.1415 -5.32444,-2.9317 -3.13595,-1.3283 -6.43655,-1.8094 -9.77461,-2.216 -5.43542,-0.6621 -10.91959,-0.8545 -16.36572,-1.3995 -13.48256,-0.9635 -26.96279,-2.125 -40.48993,-2.191 -11.5238,-0.2199 -23.10606,-0.4444 -34.57588,0.893 -4.77108,1.0311 -9.05939,1.4263 -12.97255,5.0575 -6.60538,6.1294 -7.29501,12.2891 -5.6688,20.3102 1.27492,6.8888 2.37553,13.8032 3.69458,20.6833 0.93996,3.8444 1.2019,5.4378 2.66391,9.1983 2.31098,5.9442 5.83533,11.3857 10.04789,16.1472 7.05075,7.4924 14.48808,14.6113 21.75794,21.8892 2.98211,2.9042 5.94828,5.8986 9.15175,8.5644 6.59394,5.4872 14.06972,9.7481 21.97269,13.045 5.93521,2.272 11.86085,4.5983 18.07549,6.0194 6.01924,1.3764 12.11215,1.8882 18.27501,1.4398 2.01723,-0.3261 4.05645,-0.5372 6.05168,-0.9784 8.01576,-1.7724 15.44701,-5.8539 21.58785,-11.2206 2.82803,-3.0278 3.54516,-3.5151 5.80351,-7.125 3.50991,-5.6103 5.38855,-12.0568 7.50258,-18.264 1.97072,-6.6973 3.95771,-13.392 5.34736,-20.2419 1.68899,-8.3256 2.64176,-16.7872 3.39542,-25.2403 0.15656,-2.899 0.39338,-5.7947 0.46961,-8.6968 0.10224,-3.893 -0.0721,-9.9478 -0.40873,-13.8931 -0.30453,-3.5691 -0.94162,-8.1388 -1.92291,-11.591 -0.5084,-1.7885 -1.27611,-3.493 -1.91418,-5.2394 -1.34207,-2.0576 -2.28717,-4.4377 -4.02619,-6.1728 -6.00729,-5.9939 -11.66532,-6.536 -19.33588,-6.3642 -5.52868,0 -11.05856,0 -16.5848,-0.1892 -13.57905,-0.531 -27.14456,-1.3599 -40.71702,-2.0296 -11.41804,-0.5739 -22.83902,-1.0453 -34.25973,-1.5616 -4.88008,-0.2206 -14.21927,-0.6829 -19.40198,-0.782 -2.39162,-0.046 -4.78409,0 -7.17616,-0.01 -5.28129,0.3155 -8.29305,0.032 -13.10981,1.7757 -5.93958,2.1504 -10.40014,6.288 -13.55569,11.6626 -0.54327,1.0274 -1.12601,2.0349 -1.62978,3.0822 -2.24806,4.6738 -3.63572,9.7498 -4.28152,14.8834 -0.0689,1.2314 -0.1992,2.4608 -0.20677,3.6941 -0.0434,7.0891 1.9585,14.0008 3.51997,20.8484 2.76418,10.3768 5.72981,20.8041 10.11645,30.6345 0.4908,1.0999 1.09746,2.1443 1.64621,3.2165 1.66862,3.1399 2.24319,4.3899 4.29725,7.4738 2.27396,3.4141 5.2356,6.3404 7.74227,9.5727 4.6019,5.5717 8.9926,11.3422 14.02254,16.5387 1.19992,1.0687 2.34239,2.2055 3.59971,3.206 6.21345,4.9441 13.96849,8.1028 21.16201,11.2786 1.56541,0.5844 3.11992,1.1989 4.69622,1.7533 6.35622,2.2353 12.93604,3.802 19.31226,5.9791 11.5692,3.2773 23.27778,6.8152 35.44713,6.266 2.13513,-0.2644 4.28585,-0.4242 6.4054,-0.7933 1.47119,-0.2562 2.90605,-0.6911 4.34803,-1.0793 6.1768,-1.6628 12.2002,-3.8206 18.1533,-6.1493 9.55352,-3.9461 18.83582,-7.841 25.54171,-16.0981 2.1962,-3.1548 2.77008,-3.7036 4.42582,-7.1689 2.60202,-5.4459 3.92287,-11.3525 5.49137,-17.1455 1.9312,-8.5504 3.3786,-17.1728 4.72512,-25.8321 1.515,-8.8586 3.40169,-17.6902 3.4267,-26.7278 0.25601,-12.1622 0.0313,-24.3241 0.13689,-36.4878 0,-1.5315 0.0241,-6.9721 -0.0647,-8.7467 -0.0717,-1.4321 0.0175,-2.9011 -0.34869,-4.2875 -0.65871,-2.4944 -1.29136,-5.0919 -2.69912,-7.2539 -3.21726,-4.9409 -5.53358,-5.193 -10.28441,-7.1442 -0.9933,-0.1705 -1.9799,-0.3861 -2.97992,-0.5113 -2.63496,-0.3301 -5.31276,-0.052 -7.95547,-0.2512 -5.39017,-0.201 -10.77373,-0.5406 -16.16212,-0.782 -8.95374,-0.2432 -17.90044,-0.6609 -26.8478,-1.0714 -6.80866,-0.2051 -13.61033,-0.033 -20.41044,0.3798 -9.56093,0.4234 -19.13088,0.507 -28.6935,0.8926 -9.37517,0.3467 -18.75179,0.4982 -28.12312,-0.1045 -8.81682,-0.3749 -17.63694,-0.7727 -26.46458,-0.6609 -21.21321,0 -21.21321,30 0,30 z" /><path
       style="fill:#50d6ff;stroke-width:100;stroke-opacity:0.650246;paint-order:markers stroke fill;fill-opacity:1"
       id="path73599"
       d="m 438.52967,1035.5156 c 1.54718,0.2316 3.09187,0.4806 4.64156,0.695 3.90342,0.5399 7.81619,1.0102 11.72297,1.5253 5.42126,0.7148 10.83691,1.4091 16.27233,2.0075 8.4219,0.959 16.8969,1.1569 25.36383,1.2553 6.07576,0.072 12.14969,0.07 18.22185,-0.1562 3.74968,-0.1034 7.47946,-0.5604 11.19061,-1.0822 5.95664,-0.8374 11.66167,-2.778 14.82786,-8.8209 1.59869,-3.0512 1.20668,-6.7828 1.81004,-10.1742 -0.77962,-2.2393 -1.3393,-4.5677 -2.33884,-6.7178 -0.65027,-1.3988 -1.6533,-2.6079 -2.57236,-3.8468 -2.96233,-3.993 -6.7238,-7.5218 -10.89755,-10.21947 -1.89698,-1.22608 -3.94695,-2.19747 -5.92042,-3.29623 -2.23766,-0.90257 -4.43119,-1.92344 -6.71301,-2.70772 -6.62665,-2.27761 -14.29142,-3.84148 -21.26401,-4.57316 -5.26566,-0.55253 -7.05315,-0.42281 -12.12987,-0.40611 -4.61876,0.0558 -9.15625,0.93099 -13.72389,1.49034 -1.78218,0.21826 -2.59799,0.27702 -4.37179,0.43569 -3.0684,0.11962 -6.1596,0.48969 -9.23396,0.34227 -0.0301,-0.0138 -0.12308,-0.0453 -0.0903,-0.0412 2.92172,0.36166 4.08649,0.50479 7.11068,2.91322 1.37113,1.09196 2.31534,2.64758 3.27329,4.11549 0.78404,1.20139 0.94105,2.73598 1.18867,4.09748 1.92477,-6.17544 4.52128,-12.1015 7.09838,-18.02415 1.64015,-3.89662 3.29832,-7.7893 5.28166,-11.52659 0.34787,-0.65554 0.68641,-1.31739 1.0749,-1.94969 0.32752,-0.53311 0.71358,-1.02796 1.07037,-1.54194 2.74645,-3.595 6.32224,-6.33685 9.96471,-8.95456 3.5288,-2.44001 7.38235,-4.34515 11.13644,-6.40654 3.27753,-1.6288 6.34312,-3.77047 9.82695,-4.95403 1.03404,-0.21162 2.20551,-0.72409 3.25995,-0.79497 0.20474,-0.0138 -0.38197,0.16796 -0.58618,0.18785 -2.19284,0.21365 -1.95688,0.12134 -3.97195,-0.25426 -0.92422,-0.32692 -1.86174,-0.66453 -2.60141,-1.33223 -0.2731,-0.24654 -0.49361,-0.54726 -0.76422,-0.79703 -0.10846,0.35025 -0.45273,-1.64201 -0.64323,-1.24878 -0.42127,0.86955 -0.46533,1.87589 -0.72734,2.80588 -0.96713,3.4327 -1.23227,4.06029 -2.40303,7.51311 -2.2639,6.88043 -5.21483,13.49266 -8.46822,19.95355 -0.69694,1.22253 -1.43159,2.55836 -2.20565,3.73906 -0.28845,0.43998 -0.51525,1.05132 -1.01809,1.206 -0.0322,0.01 -0.0606,-0.0659 -0.0402,-0.0927 0.16261,-0.2132 0.37002,-0.38817 0.55504,-0.58224 2.29732,-1.63753 2.74862,-1.79864 5.63708,-1.33358 -1.74117,-1.52736 -3.54944,-2.97318 -5.28624,-4.50625 -1.27741,-1.12758 -2.55474,-2.24372 -3.6149,-3.58082 0.224,0.2214 0.49763,0.40193 0.67196,0.66424 1.30173,1.95826 1.79218,3.57349 1.79533,6.12965 0.003,1.30053 -0.38909,2.57643 -0.71379,3.8358 -0.14692,0.56983 -0.88927,1.06836 -0.69376,1.6234 0.1375,0.39042 0.67476,-0.47961 1.01216,-0.71943 5.50169,-4.13165 11.08966,-8.15197 16.86449,-11.89418 1.79818,-1.31988 3.86643,-1.96932 5.96794,-2.59921 -6.46211,-4.71925 -14.44501,-7.86379 -19.38631,-14.1577 -1.65677,-2.11029 1.70987,-5.10545 2.19067,-7.74496 0.0823,-0.45181 -0.65532,0.64455 -0.95988,0.9883 -0.86136,0.97215 -1.71255,1.95386 -2.53651,2.9579 -3.41307,4.15888 -3.60029,4.59568 -6.99521,9.31556 -3.32349,4.86479 -6.69163,9.70727 -9.6927,14.7819 -0.75078,1.26955 -3.44228,5.91849 -3.68218,7.46321 -0.49403,3.18116 -0.30527,6.43136 -0.45791,9.64702 7.05935,3.36622 13.48219,8.70572 21.17799,10.09861 2.74891,0.4975 4.65204,-3.13864 6.68393,-5.05581 1.36202,-1.2851 2.32852,-2.93587 3.40786,-4.46614 2.71888,-3.85487 4.91805,-8.05786 7.15039,-12.20144 2.16935,-4.0023 3.87837,-8.22955 5.93707,-12.28529 9.52074,-18.95669 -17.28804,-32.42104 -26.80878,-13.46436 v 0 c -1.90796,3.82381 -3.59225,7.75388 -5.55545,11.55089 -1.16507,2.17567 -2.17932,4.12763 -3.43636,6.2493 -0.53208,0.89807 -1.12318,1.76022 -1.65801,2.65668 -0.20524,0.34404 -0.94861,1.16419 -0.561,1.06288 1.29699,-0.33901 2.32384,-2.34103 3.57111,-1.84964 6.86811,2.7057 12.86669,7.23984 19.30003,10.85979 -0.27117,2.70978 -0.51043,5.42298 -0.81354,8.12938 -0.007,0.0615 -0.10504,-0.11279 -0.078,-0.16852 0.41505,-0.85666 0.89138,-1.68293 1.37292,-2.50409 2.63157,-4.48757 5.62454,-8.74678 8.54176,-13.0492 2.57085,-3.61849 2.80799,-4.09368 5.39631,-7.27326 2.61535,-3.21278 10.97684,-11.29004 8.50294,-15.30273 -4.27898,-6.94048 -12.91741,-9.95286 -19.37613,-14.9293 -4.76184,1.46878 -9.40366,3.31679 -13.5496,6.135 -6.9205,4.50725 -13.66271,9.29388 -20.16922,14.38179 -3.0362,2.76154 -5.67123,4.73263 -7.61915,8.58867 -2.5015,4.95189 -2.84887,8.59139 -1.74112,13.95822 0.72824,3.52825 2.44552,5.51659 4.37015,8.35094 0.70081,0.77864 1.37671,1.58044 2.10246,2.3359 3.89123,4.05048 8.42928,7.55081 12.82997,11.01694 1.64761,0.9475 3.19759,2.0898 4.94284,2.8424 5.79106,2.4973 12.63292,2.6585 18.52554,0.3921 1.44798,-0.557 2.78831,-1.3612 4.18245,-2.0418 1.00746,-0.7476 2.06425,-1.4329 3.02239,-2.2427 4.29141,-3.6272 7.09425,-8.59671 9.74672,-13.45383 3.87191,-7.72864 7.38526,-15.63637 10.0946,-23.85637 2.32261,-6.95592 4.75585,-13.97457 4.95421,-21.39201 0.0626,-2.34048 -0.59457,-4.45878 -1.14276,-6.68388 -0.82669,-2.29044 -1.08707,-3.30229 -2.31574,-5.46713 -1.85362,-3.26594 -4.35464,-6.26057 -7.46038,-8.41299 -1.29418,-0.89693 -2.72827,-1.57289 -4.09241,-2.35931 -1.51863,-0.48316 -2.9908,-1.14906 -4.55586,-1.44944 -5.63071,-1.08072 -10.78087,0.32353 -16.05315,2.08626 -0.96731,0.38111 -1.94569,0.73525 -2.90195,1.14335 -3.70003,1.57908 -7.13734,3.70242 -10.69914,5.55477 -4.84396,2.6608 -9.79283,5.16532 -14.28982,8.40327 -2.18583,1.5911 -3.40112,2.43006 -5.53982,4.19245 -4.47959,3.69139 -8.54419,7.84633 -11.90578,12.59229 -0.76978,1.20139 -1.57586,2.38027 -2.30931,3.60416 -0.53406,0.89114 -1.00761,1.81737 -1.4909,2.73706 -2.25144,4.28453 -4.19261,8.71871 -6.06176,13.18051 -1.87288,4.30821 -3.76746,8.60856 -5.42478,13.00617 -0.93821,2.48949 -2.25925,6.2176 -2.92973,8.7897 -0.4146,1.59051 -0.69519,3.21297 -1.0428,4.81946 -0.0992,4.20651 -0.74716,7.44781 1.16377,11.36331 1.08484,2.2229 2.35513,4.4553 4.16504,6.1412 3.60442,3.3573 7.67199,4.538 12.29387,4.7759 4.2219,0.067 8.44433,-0.1474 12.6542,-0.4571 2.48338,-0.2285 3.14581,-0.2706 5.66123,-0.5811 2.42835,-0.2997 4.84315,-0.7535 7.27679,-1.0065 0.90304,-0.094 1.81009,-0.1444 2.71512,-0.2165 2.90412,-0.053 4.73853,-0.1594 7.69385,0.1171 4.91146,0.4595 9.88343,1.4156 14.60637,2.844 1.18364,0.358 2.33088,0.8269 3.49631,1.2404 1.57787,0.7292 2.66785,1.1171 4.03307,2.1154 1.92781,1.4099 0.82423,0.8756 2.51328,2.4676 0.0507,0.048 0.22013,0.068 0.2091,0 -0.20254,-1.2627 -0.54049,-2.5 -0.81076,-3.7499 0.679,-2.7005 0.57713,-5.7304 2.03703,-8.1016 0.83036,-1.3486 5.15273,-5.8826 8.36096,-6.121 0.10816,-0.01 -0.2101,0.054 -0.31517,0.08 -0.37841,0.058 -0.75682,0.115 -1.13522,0.1725 -2.67605,0.3903 -5.37044,0.729 -8.07569,0.8026 -5.5838,0.2099 -11.16907,0.2007 -16.75625,0.1372 -7.48906,-0.085 -14.98693,-0.2312 -22.43683,-1.0785 -10.09131,-1.1027 -20.14466,-2.5282 -30.20745,-3.86 -20.8267,-4.031 -26.52736,25.4224 -5.70066,29.4534 z" /><text
       xml:space="preserve"
       style="font-size:342.258px;font-family:'Arial Rounded MT Bold';-inkscape-font-specification:'Arial Rounded MT Bold, ';letter-spacing:-37.0417px;fill:#ffe64e;stroke-width:97.0172;paint-order:markers stroke fill"
       x="706.93353"
       y="1141.7903"
       id="text240"
       transform="scale(0.97017471,1.0307422)"><tspan
         sodipodi:role="line"
         id="tspan238"
         style="fill:#ffffff;stroke-width:97.0172"
         x="706.93353"
         y="1141.7903">PRESS  TO  RIFT  STEP</tspan></text><text
       xml:space="preserve"
       transform="scale(0.26458333)"
       id="text400"
       style="font-size:266.667px;font-family:'Arial Rounded MT Bold';-inkscape-font-specification:'Arial Rounded MT Bold, ';white-space:pre;shape-inside:url(#rect402);display:inline;fill:#ffe64e;stroke-width:75.5906;paint-order:markers stroke fill" /><path
       style="fill:#000000;stroke-width:100;stroke-opacity:0.650246;paint-order:markers stroke fill"
       id="path73589"
       d="m 448.45946,1065.8174 c 0.0204,-8.3767 -0.0658,-16.7538 0.085,-25.1293 0.25495,-9.2976 0.78155,-18.5846 1.0836,-27.8812 0.40863,-8.0978 1.66997,-16.11366 2.83888,-24.12639 0.99732,-5.77416 2.17675,-11.51514 3.56161,-17.20839 1.66502,-6.16286 3.75896,-12.29079 6.68038,-17.97915 1.15544,-1.93567 2.08852,-4.10824 3.66361,-5.76673 0.26191,-0.2758 0.6055,-0.46053 0.90471,-0.69532 3.24461,-2.4552 6.49743,-4.93599 9.90449,-7.17309 3.53457,-2.53225 7.76769,-3.829 11.81704,-5.29413 5.57077,-2.23047 11.47736,-3.27366 17.2993,-4.59224 4.16298,-0.93372 8.31816,-1.91815 12.49585,-2.78403 6.29004,-0.67767 12.63888,-0.64143 18.95819,-0.71318 7.88516,-0.0657 15.77067,-0.0627 23.65605,-0.056 2.18641,0.027 4.40005,-0.031 6.58043,0.19418 0.51387,0.0531 1.17567,0.42349 1.63287,0.60851 3.38426,1.13514 6.33548,3.11515 9.22279,5.15734 2.89997,1.8955 5.39047,4.2409 7.91001,6.59122 3.05179,2.87594 6.33117,5.51855 9.29958,8.48159 2.60741,2.50375 5.1507,5.17853 7.00942,8.29881 1.81308,3.66726 3.24895,7.51584 4.7493,11.31994 2.21734,6.46152 4.30651,12.96204 6.57434,19.40761 1.81877,5.24089 3.56692,10.51142 4.74675,15.93585 1.39846,6.4193 1.79367,12.9997 2.25232,19.5373 0.45675,7.3267 0.58264,14.6681 0.64979,22.0069 0.17846,6.2658 -0.0796,12.5177 -0.57293,18.7615 -0.7443,5.2064 -1.48251,10.413 -2.25888,15.6149 -0.76387,5.6145 -1.29053,11.2574 -1.88251,16.8916 -0.86545,7.6 -1.88261,15.1809 -2.81217,22.7737 -1.00621,7.2027 -1.64095,14.4533 -2.69187,21.6495 -0.6209,3.6054 -0.9474,7.2484 -1.43296,10.8716 -0.27432,2.9382 -0.79679,5.8243 -1.42536,8.7022 -0.0435,0.03 -0.10467,0.043 -0.13068,0.089 -0.38463,0.6787 -0.61582,1.434 -0.95229,2.1378 -0.70302,1.4705 -1.52598,2.9036 -2.27637,4.3513 -1.41507,3.0233 -3.19691,5.8127 -5.32932,8.3716 -2.39413,2.7414 -4.97998,5.3043 -7.70808,7.7108 -3.22995,3.1534 -6.9755,5.6683 -10.69176,8.1988 -2.17664,1.2747 -4.235,2.7526 -6.40019,4.0437 -1.42793,0.8515 -3.06009,1.4114 -4.59509,2.0243 -2.25941,0.6827 -4.48858,1.5516 -6.78651,2.104 -0.89742,0.2158 -1.82801,0.2569 -2.7426,0.3811 -4.64576,0.8005 -9.26295,1.6906 -13.98677,1.7506 -4.09086,-0.087 -8.20153,0.062 -12.2855,-0.2562 -2.11056,-0.1642 -2.95156,-0.3693 -5.05087,-0.744 -6.012,-1.2039 -11.89821,-2.9271 -17.73844,-4.7747 -6.59998,-1.8129 -12.94532,-4.3 -19.25108,-6.9345 -5.73691,-2.5861 -11.7462,-4.6686 -17.26189,-7.7258 -2.18678,-1.1539 -4.04069,-2.6819 -5.83528,-4.3533 0.0379,-0.015 0.13697,-0.013 0.11372,-0.046 -1.12538,-1.6278 -2.56945,-3.012 -3.60387,-4.7128 -1.39959,-2.0096 -2.42149,-4.2777 -3.35452,-6.5355 -1.02518,-2.7564 -2.11357,-5.5165 -2.91885,-8.3479 -1.16221,-4.1892 -2.73304,-8.2413 -4.27228,-12.3012 -1.00479,-2.5419 -1.48514,-5.2181 -1.99308,-7.8896 -0.98171,-5.6152 -2.2192,-11.1803 -3.4094,-16.7541 -0.57766,-3.1 -1.50286,-6.1176 -1.87505,-9.2527 -0.18359,-2.2452 -0.17555,-4.4998 -0.18264,-6.7507 0.11507,-3.2979 -0.17756,-6.6213 0.0787,-9.9131 0.17523,-1.5971 0.16806,-3.215 0.34494,-4.8112 0.14205,-1.2818 0.51699,-2.7226 0.71929,-3.9928 0.59394,-3.3892 0.57211,-6.8482 1.07924,-10.2435 0.34446,-2.17 0.41026,-4.375 0.85595,-6.5289 0.60632,-3.5347 1.04238,-7.098 1.45246,-10.6603 0.0593,-0.5782 0.11856,-1.1563 0.17785,-1.7345 2.14892,-21.1041 -27.69677,-24.1431 -29.84568,-3.0391 v 0 c -0.0457,0.4522 -0.0913,0.9044 -0.13693,1.3566 -0.33218,2.9121 -0.68603,5.825 -1.16488,8.7166 -0.44056,2.5393 -0.75004,5.0904 -1.03769,7.6501 -0.45368,3.254 -0.60471,6.5313 -1.01113,9.7909 -0.61974,3.9425 -1.27225,7.8735 -1.38949,11.8732 -0.1773,3.8766 -0.1116,7.7566 -0.1225,11.6368 0.0124,3.4904 0.0299,6.9884 0.42558,10.4613 0.52448,3.9569 1.44185,7.819 2.295,11.7137 1.14681,5.3559 2.3387,10.7025 3.27705,16.0995 0.83706,4.3811 1.79014,8.7402 3.41204,12.9103 1.29368,3.4097 2.63958,6.803 3.60095,10.3269 1.19808,3.8759 2.54383,7.7161 4.05699,11.4799 1.69309,3.8957 3.4921,7.789 5.91788,11.292 2.45517,3.6371 5.18506,7.0864 8.19608,10.282 3.63878,3.3254 7.52715,6.3191 11.87952,8.6665 6.45274,3.4447 13.25642,6.1607 19.97991,9.0237 7.13091,2.9717 14.31761,5.7713 21.76647,7.8544 7.17863,2.2647 14.42316,4.3539 21.8267,5.7572 1.46907,0.236 2.93172,0.5162 4.40722,0.708 6.19014,0.8046 12.45177,0.6288 18.67725,0.6925 1.32313,-0.045 2.64787,-0.055 3.96933,-0.1352 4.586,-0.2774 9.09246,-1.2143 13.62046,-1.9296 5.63806,-0.8735 11.12359,-2.3245 16.45346,-4.3809 2.53381,-1.0461 3.89819,-1.5506 6.3776,-2.8281 3.54518,-1.8268 6.7896,-4.1655 10.19172,-6.2332 4.77843,-3.2622 9.54895,-6.57 13.74256,-10.5813 3.89451,-3.4901 7.63379,-7.1572 11.00889,-11.159 3.37889,-4.1912 6.38472,-8.6504 8.71101,-13.5211 2.33971,-4.5139 4.76705,-9.023 6.03443,-13.9853 0.80301,-3.6792 1.47246,-7.3768 1.85132,-11.1268 0.46956,-3.5207 0.78817,-7.0592 1.39002,-10.5623 1.05923,-7.4122 1.7694,-14.8684 2.77693,-22.2876 0.95073,-7.7657 1.9903,-15.5195 2.87118,-23.2932 0.54348,-5.1997 1.03349,-10.4064 1.7173,-15.5901 0.87868,-5.8891 1.74636,-11.7801 2.49484,-17.6873 0.55896,-7.1195 0.84942,-14.2504 0.66424,-21.3938 -0.0741,-7.9508 -0.21747,-15.9042 -0.7229,-23.8412 -0.5693,-8.0289 -1.13355,-16.0958 -2.90031,-23.96967 -1.49415,-6.56844 -3.46601,-13.00364 -5.72537,-19.35038 -2.39527,-6.80575 -4.55684,-13.68481 -6.97534,-20.48121 -2.20702,-5.56917 -4.27556,-11.2412 -7.34634,-16.40835 -3.23541,-4.95774 -6.96984,-9.57265 -11.31769,-13.61006 -3.18817,-3.09176 -6.54897,-5.99742 -9.83049,-8.98904 -3.52599,-3.28795 -7.11303,-6.48718 -11.11821,-9.1944 -5.26307,-3.68406 -10.7845,-7.00997 -16.91659,-9.05131 -2.58527,-0.82627 -3.4726,-1.20439 -6.16267,-1.68172 -3.8208,-0.678 -7.71885,-0.6686 -11.58462,-0.68488 -8.00857,-0.007 -16.01727,-0.01 -24.02563,0.0579 -8.27026,0.0956 -16.61136,0.01 -24.79542,1.35485 -4.33234,0.9217 -8.65307,1.90291 -12.97141,2.88817 -7.02752,1.6084 -14.13645,2.95756 -20.8656,5.63994 -6.28507,2.28152 -12.66576,4.5906 -18.16481,8.49034 -4.61092,3.07298 -9.0832,6.38733 -13.38797,9.86922 -2.19392,2.0346 -2.59283,2.27923 -4.54189,4.60304 -2.75375,3.28327 -4.82505,7.0789 -6.84456,10.83389 -3.77756,7.75806 -6.85747,15.87482 -8.96445,24.25179 -1.59343,6.59786 -2.97397,13.24637 -4.09107,19.94244 -1.33117,9.12519 -2.73015,18.25924 -3.13735,27.48494 -0.30549,9.4455 -0.85079,18.8808 -1.09474,28.3278 -0.14602,8.5509 -0.0767,17.1028 -0.0896,25.6547 0,21.2132 30,21.2132 30,0 z" /><path
       style="fill:#000000;stroke-width:100;stroke-opacity:0.650246;paint-order:markers stroke fill"
       id="path73591"
       d="m 525,924.67929 c 0.0894,11.58092 -0.12557,23.15908 -0.32816,34.73762 -0.19508,11.02768 -0.31761,22.05635 -0.37724,33.08554 -0.033,7.97955 -0.0301,15.95925 -0.0291,23.93895 0.1129,6.3478 -0.22738,12.6877 -0.42804,19.03 -0.0298,1.0557 -0.0787,4.0751 -0.22593,5.3625 -0.0183,0.1589 -0.18568,0.6096 -0.16359,0.4512 0.52578,-3.7674 1.64669,-4.5044 4.28853,-7.0556 -0.62889,-1.7146 2.02628,-0.3975 2.28878,-1.2215 0.058,-0.1822 -0.38233,-0.011 -0.57354,-0.01 -0.47593,0 -0.95173,0.021 -1.42767,0.026 -2.51745,0.027 -1.69045,0.026 -4.30178,-0.076 -6.93515,-0.2676 -13.85332,-0.8629 -20.73005,-1.7928 -6.77185,-0.9904 -13.56659,-1.821 -20.38921,-2.3642 -3.76783,-0.2736 -7.54698,-0.2974 -11.32277,-0.3024 -2.58831,0 -5.17662,0.015 -7.76494,0.019 -2.81609,0 -5.63221,0 -8.4483,0.01 -21.21321,0 -21.20895,30.003 0.004,30 v 0 c 2.83184,0 5.6637,0 8.49556,-0.01 2.55889,0 5.11778,-0.014 7.67665,-0.019 3.00006,0 6.00305,0.01 8.99782,0.2092 6.28742,0.4915 12.54506,1.2883 18.78536,2.1941 7.86196,1.0367 15.7635,1.7535 23.69092,2.0393 5.28754,0.1581 11.03715,0.48 16.14832,-1.1694 1.49566,-0.4827 2.89639,-1.2209 4.34459,-1.8314 1.62152,-1.2767 3.4522,-2.3253 4.86455,-3.8302 5.05886,-5.3901 5.71196,-12.7027 5.74749,-19.6818 0.21008,-6.6592 0.55734,-13.3164 0.44302,-19.9813 0,-7.9243 -0.004,-15.8487 0.0286,-23.77298 0.0588,-10.90824 0.18021,-21.81595 0.37306,-32.72269 0.20566,-11.75342 0.42151,-23.50659 0.33277,-35.26245 0,-21.2132 -29.99999,-21.2132 -29.99999,0 z" /><path
       style="fill:#000000;stroke-width:100;stroke-opacity:0.650246;paint-order:markers stroke fill"
       id="path73593"
       d="m 551.0018,1062.1622 c 4.33223,-0.034 8.65401,-0.3845 12.98331,-0.5386 3.90806,-0.1209 7.81783,-0.1695 11.72755,-0.1901 4.52864,-0.011 9.05727,-0.01 13.58591,0 5.90788,-0.2551 11.81489,-0.4777 17.7274,-0.5978 4.43089,-0.083 8.86237,-0.1202 13.29396,-0.1319 1.75379,0 3.50761,0 5.2614,0 21.21318,0.012 21.23067,-29.9876 0.0175,-30 v 0 c -1.78623,0 -3.57243,0 -5.35866,0 -4.60891,0.012 -9.21771,0.052 -13.82591,0.1381 -5.70481,0.1168 -11.40708,0.2911 -17.10549,0.5915 -4.58521,0 -9.17041,-0.01 -13.75561,0 -4.21685,0.023 -8.43375,0.076 -12.64875,0.2091 -3.96925,0.1446 -7.9329,0.4445 -11.9026,0.5191 -21.21318,0 -21.21318,30 0,30 z" /><path
       style="fill:#000000;stroke-width:100;stroke-opacity:0.650246;paint-order:markers stroke fill"
       id="path73595"
       d="m 555.19531,1030.1219 c -6.61271,0.422 -13.24605,0.4334 -19.86973,0.4994 -8.76173,0.1929 -17.51965,-0.1009 -26.27665,-0.3474 -3.24048,-0.1245 -6.48562,-0.1099 -9.7224,-0.3133 -21.17826,-1.2172 -22.89969,28.7334 -1.72146,29.9506 v 0 c 3.53105,0.1913 7.06488,0.2534 10.59976,0.3509 9.13839,0.2572 18.278,0.5534 27.42126,0.3577 7.4295,-0.075 14.87128,-0.088 22.28527,-0.6211 21.12611,-1.9206 18.41003,-31.7974 -2.71605,-29.8768 z" /><path
       style="fill:#000000;stroke-width:100;stroke-opacity:0.650246;paint-order:markers stroke fill"
       id="path73597"
       d="m 540.87066,980.11675 c 0.31861,0.35581 0.54594,1.3127 0.95581,1.06746 0.41135,-0.24612 -0.33203,-0.90022 -0.4662,-1.36041 -0.21256,-0.72911 -0.40825,-1.46378 -0.57327,-2.20509 -0.76716,-3.44644 -1.22806,-6.94762 -1.70153,-10.44271 -0.14703,-1.80893 -0.30544,-2.88745 -0.2336,-4.61436 0.0124,-0.29787 0.0499,-0.59679 0.12258,-0.8859 0.01,-0.0385 0.11684,-0.0826 0.1111,-0.0433 -0.26295,1.80104 -0.30912,1.61388 -1.0313,3.22627 -0.37063,0.50663 -0.72035,1.02921 -1.11186,1.51985 -1.28495,1.61028 -3.48691,2.56339 -5.4371,3.01432 -2.08606,0.48233 -2.93445,-0.2444 -1.88757,0.50125 0.18738,0.10803 1.22097,0.65207 1.35115,0.91565 0.0508,0.10284 -0.33872,-0.0832 -0.34269,0.0314 -0.007,0.21021 0.23572,0.35079 0.32271,0.54232 0.18238,0.4015 0.29073,0.83341 0.46387,1.23899 0.78404,3.57082 1.08252,7.21796 1.32548,10.858 0.0495,2.24102 0.0299,4.50924 -0.23304,6.73975 -0.0732,0.62106 -0.46771,2.44277 -0.46535,1.81743 0.003,-0.41537 0.15444,-0.81624 0.23164,-1.22436 0.17153,-1.28643 1.41491,-1.95646 2.44687,-2.5232 2.72928,-1.00518 5.95564,-0.22775 8.1833,1.55064 0.18153,0.17121 0.29538,0.50049 0.54454,0.51364 0.16298,0.009 -0.022,-0.32607 -0.0469,-0.48736 -0.0534,-0.34568 -0.13644,-0.68641 -0.18788,-1.03238 -0.26842,-1.80555 -0.36388,-3.63051 -0.47702,-5.45013 -0.13888,-3.89345 -0.33967,-7.85238 0.37595,-11.70421 0.0619,-0.18341 0.11679,-0.36936 0.18574,-0.55023 0.53776,-1.41063 -0.10502,0.33451 0.34282,-0.42135 0.52464,-0.88556 0.60714,-1.31418 0.49866,-0.82431 -0.20619,0.30401 -0.45641,0.5824 -0.6186,0.91197 -0.0813,0.16523 0.49686,-0.54372 0.37119,-0.40913 -0.88167,0.9443 -2.10603,2.22801 -3.39545,2.57477 -2.20107,0.5919 -4.47358,0.87614 -6.71037,1.31424 -1.76633,-0.0292 -3.29162,-0.68771 -4.79859,-1.52498 16.47458,13.36368 35.37368,-9.93489 18.89911,-23.29857 v 0 c -1.06468,-0.76505 -2.05785,-1.64103 -3.19407,-2.29511 -3.46062,-1.99218 -4.17894,-1.86915 -7.96126,-2.73642 -2.81811,0.38073 -5.68278,0.50551 -8.45426,1.1422 -0.99266,0.22805 -1.84248,0.87943 -2.70484,1.42137 -2.61157,1.64126 -4.64007,3.91057 -6.46168,6.36008 -2.66869,4.22505 -4.85592,8.72231 -5.64065,13.71629 -0.88059,6.06862 -1.08132,12.19401 -0.66741,18.31671 0.54483,7.83307 1.59729,15.60686 6.00559,22.33506 2.22523,2.6769 3.15767,4.2076 6.05234,6.1535 5.62391,3.7805 11.41879,4.8335 17.97601,3.305 1.15834,-0.3799 2.35056,-0.6688 3.47498,-1.1397 5.61346,-2.3507 9.87364,-6.659 12.84346,-11.8999 0.65643,-1.5772 1.42036,-3.1139 1.96932,-4.73171 0.37566,-1.10706 0.58298,-2.26623 0.79539,-3.41585 0.88678,-4.79985 0.90839,-9.72626 0.74814,-14.58565 -0.55902,-7.80196 -1.33504,-15.71715 -4.76862,-22.86752 -0.63563,-1.14043 -1.20417,-2.32095 -1.9069,-3.42132 -4.14047,-6.48322 -10.07211,-11.28284 -17.3486,-13.8262 -4.18803,-1.18015 -5.92754,-1.98433 -10.67744,-1.68098 -6.18276,0.39486 -11.19122,3.85622 -14.85194,8.58568 -2.09201,3.63767 -2.4249,3.67527 -3.51602,7.93141 -1.26257,4.92477 -0.66799,10.15267 -0.23312,15.12964 1.07256,7.75343 2.14847,16.60655 5.77627,23.63923 0.79206,1.53543 1.78964,2.95579 2.68447,4.4337 13.58034,16.29647 36.62698,-2.9091 23.04663,-19.20552 z" /></g></svg>
