<?xml version="1.0" encoding="UTF-8" standalone="no"?>
<!-- Created with Inkscape (http://www.inkscape.org/) -->

<svg
   width="3840mm"
   height="2160mm"
   viewBox="0 0 3840 2160"
   version="1.1"
   id="svg4785"
   sodipodi:docname="item_pedestal.svg"
   xml:space="preserve"
   inkscape:version="1.2.2 (732a01da63, 2022-12-09)"
   inkscape:export-filename="item_pedestal_v3.png"
   inkscape:export-xdpi="96.096664"
   inkscape:export-ydpi="96.096664"
   xmlns:inkscape="http://www.inkscape.org/namespaces/inkscape"
   xmlns:sodipodi="http://sodipodi.sourceforge.net/DTD/sodipodi-0.dtd"
   xmlns="http://www.w3.org/2000/svg"
   xmlns:svg="http://www.w3.org/2000/svg"><sodipodi:namedview
     id="namedview4787"
     pagecolor="#ffffff"
     bordercolor="#000000"
     borderopacity="0.25"
     inkscape:showpageshadow="2"
     inkscape:pageopacity="0.0"
     inkscape:pagecheckerboard="0"
     inkscape:deskcolor="#d1d1d1"
     inkscape:document-units="mm"
     showgrid="false"
     inkscape:zoom="0.08"
     inkscape:cx="10656.25"
     inkscape:cy="4900"
     inkscape:window-width="1920"
     inkscape:window-height="986"
     inkscape:window-x="-11"
     inkscape:window-y="-11"
     inkscape:window-maximized="1"
     inkscape:current-layer="layer2" /><defs
     id="defs4782" /><g
     inkscape:groupmode="layer"
     id="layer2"
     inkscape:label="Layer 2"><path
       style="fill:#a0a0a0;fill-opacity:1;stroke:none;stroke-width:668.132;paint-order:markers stroke fill"
       d="m 9118.0349,3474.2145 c -11.8681,23.34 -8.4155,57.7669 -27.2121,81.0995 -105.9743,195.1549 -273.4903,354.5149 -474.2352,449.8168 -227.7538,112.1466 -470.1338,195.6686 -717.0862,253.4958 -239.6574,50.084 -484.1891,74.8964 -729.0982,65.3919 -242.0012,-2.1036 -488.8513,0.1041 -721.282,-77.0102 -189.2378,-53.6715 -332.4648,-197.9722 -478.5747,-321.5989 -74.4591,-67.6265 -142.353,-148.8701 -178.4684,-242.1875 -64.6833,82.4525 -101.8633,186.0129 -153.8683,277.3702 -100.6119,204.5346 -217.4279,400.5879 -356.2546,581.5477 -110.0347,162.9626 -231.8254,320.7637 -317.1023,498.5337 -6.7622,29.0047 44.7011,27.49 59.8205,42.7911 247.2518,106.0896 492.0675,221.998 750.3358,299.0742 309.0154,59.7962 624.602,74.8437 936.2011,116.8703 266.2254,22.7969 533.5168,30.3055 799.7311,53.7747 392.7261,27.3887 789.0082,-4.0368 1174.2216,-83.3946 177.0221,-45.579 338.008,-137.5213 501.6604,-216.4962 152.5861,-94.8285 330.3416,-144.8778 470.264,-260.4719 52.9126,-41.0562 104.1921,-85.0219 154.1746,-129.0624 -89.9588,-226.973 -210.0158,-440.737 -313.4852,-661.6524 -128.6442,-229.3004 -255.5248,-460.1823 -358.4216,-702.4111 -5.9402,-8.3689 -10.0742,-23.0557 -21.3203,-25.4807 z"
       id="path9242"
       transform="scale(0.26458333)" /><path
       style="fill:#a0a0a0;fill-opacity:1;stroke:none;stroke-width:20;paint-order:markers stroke fill"
       id="path9729"
       d="m 1518.0633,946.86495 c -5.9287,8.01997 -8.5795,17.71721 -12.1059,26.89812 -4.2767,10.6045 -8.5715,21.1822 -13.5492,31.47943 -6.8164,13.4785 -12.5681,27.453 -19.0724,41.0806 -4.2,8.3713 -7.9187,16.9985 -12.6896,25.0685 -5.2553,8.9123 -10.9084,17.5755 -16.3654,26.3638 -6.012,10.0146 -11.9987,20.0349 -18.7098,29.6011 -5.7339,8.06 -11.6708,15.9759 -18.0347,23.5505 -5.5693,6.4429 -11.057,12.9502 -16.6453,19.3774 -6.7179,7.7489 -12.9125,15.9124 -19.0691,24.1059 -6.6656,8.2653 -13.0122,16.7455 -18.9929,25.5173 -4.8759,7.3935 -8.9645,15.2591 -13.4924,22.8623 -4.5795,6.9675 -9.4409,13.7541 -14.3904,20.4631 -4.8362,6.7837 -9.6286,13.5741 -14.0457,20.6423 -3.3573,5.1085 -5.5267,10.7906 -7.4532,16.5514 -1.6787,6.1228 -3.235,12.2757 -4.8403,18.4183 -1.3524,5.3943 -2.73,10.7879 -2.5266,16.4102 0.065,1.7927 0.4177,3.5633 0.6266,5.3449 0.6917,2.0967 1.1657,4.2782 2.0753,6.29 3.0648,6.779 8.9074,11.9059 15.6551,14.8166 1.656,0.7143 3.4081,1.1813 5.1121,1.772 7.4635,1.9836 14.8107,4.4036 22.1769,6.7245 12.9879,3.9469 25.2395,9.8905 37.4846,15.665 11.0535,5.8052 22.519,10.7326 33.867,15.9131 13.9207,6.5154 27.1374,14.4363 40.5934,21.8486 8.6123,4.6974 17.4778,9.014 26.7254,12.3248 2.8269,1.0121 11.9771,3.8788 15.036,4.8463 13.6226,4.1834 27.3353,8.0298 41.1089,11.6774 12.4421,2.7592 24.8994,5.4054 37.2984,8.3679 15.203,4.0312 30.635,6.9053 46.2358,8.8204 18.5081,1.6546 37.0196,3.3063 55.5494,4.7022 18.5995,1.3086 37.2579,1.3104 55.8933,1.4055 17.5127,-0.06 35.0186,0.4966 52.5253,0.8727 13.2332,0.2451 26.4087,1.3681 39.6049,2.2748 18.1523,1.2495 36.3574,1.141 54.5374,1.6047 13.6769,0.4861 27.3563,0.8291 41.0408,0.9897 16.1132,0.2472 32.171,1.8434 48.1694,3.6803 15.4934,1.7414 31.0413,3.0088 46.6068,3.8891 12.0655,0.3441 24.1193,0.9598 36.1796,1.4398 15.87,0.5963 31.7106,1.7902 47.5681,2.6508 16.9053,0.5991 33.839,1.5351 50.756,0.9875 12.1326,-0.5991 24.1501,-2.7082 36.0737,-4.9463 8.4689,-1.754 16.9442,-3.4509 25.4383,-5.0798 8.9438,-1.6649 17.8953,-3.2846 26.8293,-5.0026 12.0645,-2.2146 24.1968,-3.9981 36.2442,-6.3065 11.8355,-2.1167 23.5899,-4.6733 35.3412,-7.211 18.0186,-3.6219 35.547,-9.1759 53.1937,-14.2284 13.7315,-4.4436 28.1532,-6.822 41.5852,-12.2018 7.6428,-3.0612 9.5496,-4.4327 16.3864,-8.3328 6.052,-3.7522 11.7711,-7.9947 17.5944,-12.0823 4.4198,-2.8416 9.1206,-5.2553 13.7085,-7.8235 9.7265,-5.5867 18.4321,-12.687 27.4717,-19.2772 11.0806,-7.7008 22.0246,-15.5721 32.5891,-23.9679 10.2735,-8.2978 20.1484,-17.0311 29.7082,-26.1376 5.7743,-5.5216 11.2297,-11.3511 17.2894,-16.5606 5.453,-4.308 9.7356,-9.8026 14.479,-14.826 2.6546,-2.3429 4.9939,-5.0119 7.6293,-7.3703 -0.4286,0.7392 -0.071,0.084 1.4878,-1.1422 0.2871,-0.2259 -1.1625,0.8724 -0.836,0.7086 1.2614,-0.6325 2.7117,-1.8498 3.8725,-2.658 7.4534,-5.1865 10.9786,-13.337 13.2584,-21.7883 1.7867,-7.893 1.799,-15.909 -0.9649,-23.6078 -0.7665,-2.1351 -1.8452,-4.145 -2.7678,-6.2175 -5.9728,-12.422 -13.4805,-23.9286 -21.2938,-35.2467 -7.2888,-10.1012 -14.3598,-20.3429 -20.6023,-31.1275 -4.7269,-8.838 -9.133,-17.8318 -13.3294,-26.932 -0.6464,-1.689 -1.3204,-3.3677 -1.9392,-5.067 -3.373,-9.2627 -0.7969,-2.6458 -4.3575,-13.1649 -3.207,-9.4743 -6.8064,-18.8188 -10.2278,-28.2167 -2.4449,-6.6135 -4.9301,-13.2485 -6.6525,-20.0983 -1.5068,-5.9924 -2.4443,-12.173 -3.599,-18.2382 -2.3289,-9.8292 -3.2006,-19.9923 -5.8485,-29.7482 -0.6227,-2.2943 -1.4064,-4.5417 -2.1097,-6.8126 -4.394,-11.567 -9.4289,-22.8783 -14.747,-34.04634 -2.8657,-5.96887 -4.7012,-12.35607 -7.4383,-18.38172 -0.8289,-1.8247 -1.7545,-3.60386 -2.6317,-5.40578 -4.786,-9.35228 -10.1846,-18.35433 -15.7613,-27.24943 -3.7687,-5.30278 -7.3,-10.80509 -11.6337,-15.67998 -2.7761,-3.12277 -3.2994,-3.42654 -6.4029,-6.18715 -3.4557,-2.66904 -6.9341,-5.27653 -9.9934,-8.39896 -0.3568,-0.94295 -0.1095,-0.38613 -1.44,-1.95665 -4.6715,-5.5142 -9.4816,-9.67094 -17.9115,-10.11811 -4.8431,-0.25691 -9.3481,2.58844 -14.0221,3.88268 -1.7174,1.34744 -3.5077,2.60673 -5.1521,4.04233 -2.1398,1.86817 -5.3744,5.46973 -7.2447,7.60442 -3.5191,4.01664 -5.2133,6.05586 -8.384,10.77864 -1.8123,2.69952 -3.4512,5.51159 -5.1767,8.26739 -9.9066,16.75169 -20.2184,33.25865 -30.431,49.82429 -10.2314,16.25627 -19.1094,33.29117 -27.8123,50.39577 -3.1024,5.5183 -7.7069,9.6068 -13.0513,12.8807 -2.5506,1.2456 -5.0041,2.7876 -7.7658,3.5473 -3.1367,0.8628 -6.5974,1.0215 -9.8077,1.3353 -8.9966,0.9119 -18.0278,1.4386 -27.064,1.7377 -10.6248,0.4588 -21.0521,2.7504 -31.5535,4.2796 -6.5084,1.0929 -13.0519,1.9998 -19.5295,3.2733 -1.3517,0.2658 -2.7275,0.455 -4.0384,0.8783 -2.0315,0.656 -6.4429,0.2705 -5.9579,2.3495 3.0194,12.9432 10.0756,24.5979 15.1134,36.8968 2.2895,-0.5772 4.6048,-1.0605 6.8686,-1.7317 17.0184,-5.0455 33.5497,-11.7808 49.925,-18.58 15.7374,-6.4039 30.4711,-14.5263 44.9689,-23.3279 4.8978,-2.8996 9.4457,-6.3183 14.0582,-9.6359 0.7389,-0.5315 1.5264,-0.9978 2.2319,-1.5728 1.2535,-1.0217 3.911,-1.6171 3.637,-3.2109 -1.9958,-11.6069 -6.6768,-22.5884 -10.0152,-33.8826 -3.4837,-0.1074 -6.985,-0.6883 -10.451,-0.3223 -5.7011,0.6021 -16.3986,4.6397 -21.4134,6.512 -13.8401,5.167 -27.4929,10.868 -41.2508,16.2494 -28.4033,11.1695 -57.8407,19.2947 -87.4029,26.7181 -18.5964,4.8277 -37.5227,8.1599 -56.2038,12.6096 -11.972,2.9366 -23.8002,6.3676 -35.4736,10.3182 -4.4938,1.3694 -8.8774,3.0357 -13.1569,4.9709 -3.346,1.5132 -1.7706,1.107 -3.9208,1.544 -8.2923,2.8057 -17.0987,3.1217 -25.7399,3.9214 -12.0376,1.0349 -23.9365,3.1351 -35.8645,4.9884 -9.3123,0.9016 -18.4604,3.1547 -27.7688,4.0084 -18.3409,0.9064 -36.7256,0.7636 -55.0858,0.8177 -17.9371,-0.014 -35.8321,1.0104 -53.73,2.0479 -18.9411,0.809 -37.887,1.4433 -56.829,2.2517 -20.5087,0.6573 -41.0324,1.4441 -61.5552,1.2945 -18.2954,-1.1876 -36.1188,-5.8479 -53.8978,-10.0339 -8.0773,-2.2013 -16.5422,-3.5982 -24.2531,-7.0137 -2.6274,-1.1638 -5.0208,-2.7971 -7.519,-4.2172 -7.9257,-4.5853 -15.6279,-9.5386 -23.3643,-14.4316 -6.0825,-3.8471 -12.1518,-7.5924 -17.9672,-11.8329 -8.7693,-6.9907 -16.5562,-15.0599 -23.0869,-24.1647 -5.3244,-8.033 -11.537,-15.4109 -17.077,-23.2859 -3.4797,-5.874 -8.1531,-11.2451 -10.6727,-17.6511 -0.6422,-1.79348 0.2591,0.1784 0.2017,0.2772 -4.596,7.9254 -8.3914,16.5195 -14.495,23.352 -1.5388,1.7226 -7.598,-1.6009 -6.9034,0.6021 1.0949,3.4726 5.9681,4.1761 9.0309,6.1451 6.9832,4.4893 14.0683,8.8178 21.1025,13.2267 36.3363,23.119 75.4536,41.5409 116.6293,54.2312 24.2723,7.4807 37.5058,9.7738 62.2127,15.0912 33.2989,6.0542 66.9291,11.1436 100.7913,12.5713 15.5434,0.6554 26.6,0.33 41.9802,0.146 14.2332,-0.3072 28.4569,-0.9251 42.6752,-1.6285 2.9618,-0.1465 5.9197,-0.3868 8.8842,-0.4612 4.9412,-0.1241 6.3376,0.1 10.9926,0.4796 1.3107,0.1971 2.6391,0.2997 3.9321,0.5911 0.7881,0.1777 1.5218,0.543 2.2842,0.8103 1.3645,0.4786 2.7313,0.9504 4.0963,1.4275 4.9621,1.7343 9.878,3.5708 14.8041,5.4041 8.1702,2.9186 16.5147,5.2945 24.9525,7.2936 10.6977,2.1399 21.6479,2.3849 32.5186,2.6708 3.9214,0.2116 7.8602,-0.021 11.7817,0.1393 3.7563,0.1532 7.5613,0.6918 11.3047,0.9957 14.6257,0.9554 29.2757,1.155 43.9252,0.9062 19.8418,-0.1827 39.6504,-1.2213 59.361,-3.4931 12.2827,-1.1572 24.3739,-3.8947 36.6608,-4.9943 2.5306,-0.2265 5.0696,-0.3468 7.6043,-0.5202 18.888,-0.9533 37.8058,-1.048 56.7135,-1.1346 2.5057,0.3642 5.0704,0.4403 7.5169,1.0926 4.1837,1.1154 8.2289,2.7027 12.2954,4.1896 13.369,4.8884 21.9985,8.6232 35.444,14.1305 25.8978,10.6078 16.0664,6.619 42.2984,17.057 18.7248,7.3605 37.8181,13.707 56.7948,20.3692 7.6656,2.6912 16.4624,5.694 23.9885,9.0195 2.7133,1.199 5.3189,2.6283 7.9785,3.9424 6.1972,3.7048 12.3465,7.5488 17.9962,12.0637 1.739,1.3897 4.6737,3.6087 5.7082,5.7876 -0.2141,-0.1934 -0.4281,-0.3867 -0.6422,-0.58 12.9968,25.1214 48.5238,6.741 35.5269,-18.3803 v 0 c -1.0298,-1.7701 -2.0596,-3.5402 -3.0895,-5.3103 -1.2474,-1.5424 -2.4092,-3.1582 -3.7423,-4.6272 -9.5441,-10.5171 -22.209,-17.726 -34.2487,-24.918 -3.5416,-1.7048 -7.0243,-3.5376 -10.6247,-5.1142 -8.1197,-3.5555 -17.4381,-6.7588 -25.7451,-9.6752 -18.4124,-6.4643 -36.941,-12.613 -55.1133,-19.7435 -26.5978,-10.5813 -15.4753,-6.0803 -41.9044,-16.8978 -18.5795,-7.6046 -38.3574,-16.6369 -58.0149,-21.011 -4.1269,-0.9184 -8.4044,-0.9295 -12.6065,-1.3942 -19.7923,0.091 -39.5957,0.1942 -59.3655,1.2349 -3.1328,0.2294 -6.2707,0.3986 -9.3985,0.6883 -12.2807,1.1374 -24.3758,3.7625 -36.6467,4.9927 -18.4027,2.1571 -36.9069,3.0412 -55.4337,3.2318 -13.3466,0.2331 -26.6913,0.057 -40.0181,-0.7825 -8.4143,-0.6749 -16.8073,-1.437 -25.2617,-1.251 -8.1335,-0.2103 -16.3156,-0.343 -24.3675,-1.6134 -6.8272,-1.6064 -13.5761,-3.5229 -20.1952,-5.8526 -11.7659,-4.3788 -23.5551,-9.4136 -36.1613,-10.6392 -2.4812,-0.1667 -4.9582,-0.4175 -7.4437,-0.5002 -7.6809,-0.2556 -9.533,0.039 -17.2419,0.4213 -13.7496,0.681 -27.5044,1.2821 -41.2683,1.5863 -13.6373,0.1747 -25.1419,0.4944 -38.8339,-0.061 -31.935,-1.2957 -63.6489,-6.1183 -95.0585,-11.7708 -22.5396,-4.8113 -35.4908,-7.0716 -57.5639,-13.7969 -38.3126,-11.6732 -74.6701,-28.774 -108.4196,-50.3072 -6.9553,-4.3591 -13.8897,-8.7518 -20.866,-13.07728 -5.1581,-3.19812 -9.8983,-7.24752 -15.5368,-9.49309 -4.8516,-1.93223 -11.0149,-5.65372 -15.4087,-2.83133 -19.4625,12.50166 -19.9559,18.4803 -15.0497,31.6431 3.9499,8.8057 9.3115,16.829 14.7054,24.809 5.6762,7.982 11.8985,15.5521 17.3644,23.6867 9.1292,12.4614 19.784,23.6713 32.0608,33.1048 14.4954,10.3599 29.9005,19.4121 45.1071,28.6764 5.1375,2.8682 7.8845,4.5717 13.3736,6.9148 9.2257,3.9381 19.1901,5.8696 28.8437,8.3895 20.6883,4.8708 41.4684,10.1653 62.7999,11.0976 21.1803,0.1276 42.3604,-0.6234 63.5259,-1.33 19.1451,-0.8174 38.2945,-1.451 57.4382,-2.2823 17.1666,-0.9952 34.3283,-1.9987 51.533,-1.9811 19.6919,-0.058 39.4191,0.1436 59.0817,-1.0296 9.9775,-1.0983 19.8263,-3.0992 29.7992,-4.271 11.112,-1.7282 22.1929,-3.712 33.4063,-4.6839 11.6957,-1.0824 23.5277,-1.8933 34.7079,-5.8055 1.7763,-0.6387 3.5705,-1.2299 5.3291,-1.916 3.972,-1.5496 7.6886,-3.7692 11.9226,-4.6574 10.5083,-3.5598 21.1553,-6.6485 31.9324,-9.2984 18.8312,-4.5054 37.9298,-7.8063 56.6689,-12.7236 31.1957,-7.8502 62.2515,-16.4615 92.2236,-28.2601 13.4241,-5.2522 26.765,-10.7306 40.2337,-15.8674 2.789,-1.0637 5.5997,-2.0699 8.4049,-3.0906 1.1871,-0.4319 4.0356,-0.092 3.5718,-1.267 -0.5561,-1.4088 -2.9631,-0.6294 -4.4446,-0.9442 -2.4309,-11.0402 -5.361,-21.9824 -7.2928,-33.1209 -0.096,-0.556 1.8404,-1.3073 1.3781,-0.9836 -4.6568,3.2609 -9.127,6.7927 -14.0146,9.7155 -6.4818,3.9553 -13.0197,7.9071 -19.7489,11.4325 -6.4369,3.3723 -13.1909,6.0844 -19.7807,9.1302 -15.9253,6.6292 -31.9928,13.0873 -48.5753,17.889 3.6952,12.5424 8.9066,24.7346 11.0854,37.6271 0.2625,1.5528 -3.0579,0.8358 -4.466,1.5409 -0.7767,0.3889 1.6889,-0.4085 2.541,-0.577 6.0308,-1.1922 12.1256,-2.0274 18.1849,-3.0529 11.7828,-1.7343 3.0714,-0.3948 13.5424,-2.1348 2.6219,-0.4357 5.2225,-1.0143 7.8606,-1.338 0.1432,-0.017 5.2174,-0.3736 5.6912,-0.4069 10.0165,-0.3381 20.0273,-0.9228 29.9992,-1.9442 5.17,-0.5867 8.17,-0.7736 13.2285,-1.9464 7.8728,-1.8251 15.1689,-5.0758 22.0487,-9.285 1.6652,-1.1265 3.3748,-2.1899 4.9954,-3.3795 8.9995,-6.6061 16.3904,-14.9737 21.7306,-24.7845 8.2082,-16.1327 16.5505,-32.2166 26.211,-47.5436 10.1951,-16.53733 20.4918,-33.01478 30.3786,-49.73941 1.9769,-3.2331 4.0464,-6.87819 6.3896,-9.93264 0.7595,-0.98994 4.0935,-4.80391 5.1912,-6.01951 0.5027,-0.55661 1.2006,-0.97319 1.5363,-1.64383 0.1359,-0.2716 -0.5745,0.1974 -0.8617,0.29609 -3.3136,0.49324 -6.6423,2.0656 -9.9409,1.47974 -3.6946,-0.65625 -6.7369,-3.30862 -10.0692,-5.03394 -0.082,-0.0424 -0.1998,-0.30326 -0.1278,-0.24558 1.9357,1.54937 2.7304,4.3956 4.8531,5.72762 3.8283,3.81926 7.8924,7.36999 12.2865,10.53123 4.4443,3.24414 6.785,8.62301 10.2168,12.77745 4.8643,7.75869 9.5996,15.59062 13.7978,23.73659 3.8221,7.52469 6.1637,15.65129 9.8132,23.25869 4.5411,9.5243 8.8024,19.1759 12.7398,28.9666 3.4482,10.3657 4.3764,21.2843 6.7817,31.9159 1.3852,7.2748 2.5966,14.6239 4.4478,21.8002 1.9954,7.7354 4.7363,15.2596 7.5116,22.7399 3.2351,8.8845 6.6701,17.7146 9.7007,26.6717 3.1932,9.4374 1.9339,6.814 5.2088,15.5693 0.9134,2.4421 1.9183,4.8489 2.8775,7.2734 4.7232,10.2421 9.6946,20.3645 15.0703,30.2818 6.8012,11.6624 14.3435,22.839 22.2748,33.7628 6.5995,9.5455 13.021,19.1867 18.0708,29.6686 0.9564,1.5814 0.7032,1.9487 1.0102,0.8976 0.056,-0.1917 -0.019,-0.506 0.1688,-0.5749 0.1529,-0.056 0.09,0.3183 0.086,0.4812 -0.01,0.3818 -0.1794,1.7994 -0.236,2.2885 -0.02,1.1205 0.042,-0.5043 -0.1833,1.0885 -0.1435,1.0145 2.0761,-2.7424 2.8383,-2.5045 -2.8585,2.0142 -5.8176,3.8944 -8.4452,6.2171 -3.3881,3.0855 -6.5194,6.4338 -9.8682,9.5626 -1.0991,1.164 -3.6359,3.8411 -4.5009,4.8097 -2.2363,2.5044 -4.188,5.2531 -7.0101,7.1798 -6.5544,5.6612 -12.5759,11.8572 -18.7713,17.9041 -8.6903,8.2879 -17.6639,16.2345 -27.0066,23.7843 -10.1278,8.0586 -20.6577,15.5607 -31.2722,22.9645 -7.7431,5.6554 -15.1956,11.7448 -23.4323,16.6859 -5.7842,3.2383 -11.7111,6.2764 -17.1912,10.0158 -4.877,3.4453 -9.708,6.9578 -14.7051,10.229 -3.6702,2.2142 -5.4686,3.4625 -9.5721,5.1791 -6.4424,2.6949 -9.5473,3.188 -16.6317,5.1343 -3.3346,0.9161 -19.6548,5.4925 -22.6464,6.3305 -16.7981,4.8107 -33.4748,10.1313 -50.6261,13.5843 -11.45,2.4729 -22.9018,4.9706 -34.4351,7.0263 -12.0516,2.3159 -24.197,4.062 -36.2615,6.3099 -8.9281,1.7175 -17.8741,3.3342 -26.8118,4.9992 -8.4487,1.622 -16.8809,3.303 -25.3034,5.0542 -9.9537,1.8814 -19.9864,3.6921 -30.1087,4.2811 -15.7068,0.6438 -31.4529,-0.5418 -47.1521,-0.9546 -16.05,-0.8698 -32.0826,-2.0795 -48.1456,-2.6779 -11.8403,-0.4701 -23.6742,-1.0826 -35.5199,-1.4081 -14.797,-0.829 -29.5765,-2.0428 -44.3047,-3.6927 -17.3548,-1.9822 -34.7733,-3.6896 -52.2522,-3.9372 -13.5028,-0.1574 -27.0004,-0.5018 -40.4958,-0.9796 -17.6051,-0.4429 -35.234,-0.3441 -52.8132,-1.5238 -13.8211,-0.9461 -27.6236,-2.1028 -41.4829,-2.3594 -17.7252,-0.3806 -35.4497,-0.9414 -53.181,-0.8814 -17.7024,-0.09 -35.4274,-0.073 -53.097,-1.2934 -17.9226,-1.3454 -35.8249,-2.965 -53.73,-4.5234 -14.1038,-1.6882 -28.0278,-4.3784 -41.7651,-8.0181 -12.0812,-2.8828 -24.2088,-5.5174 -36.3482,-8.1287 -13.1629,-3.4858 -26.2688,-7.1546 -39.2885,-11.1488 -4.2306,-1.3376 -8.4988,-2.5628 -12.6887,-4.0229 -7.5756,-2.64 -14.8005,-6.2189 -21.8348,-10.0465 -14.3391,-7.8971 -28.427,-16.3262 -43.2939,-23.2057 -11.1976,-5.1019 -22.5002,-9.9741 -33.4044,-15.6985 -13.887,-6.548 -27.8194,-13.1756 -42.5487,-17.6444 -7.3848,-2.3172 -14.7526,-4.7419 -22.2271,-6.7403 -0.1087,0.023 -0.3954,-0.017 -0.3262,0.07 0.5514,0.6925 1.4337,1.0652 2.0054,1.7411 1.6935,2.0024 2.7039,4.2181 2.9776,6.8467 -0.04,0.658 -0.1525,3.1755 -0.316,1.8802 -0.2544,-2.0156 1.3287,-4.8504 1.4766,-6.905 1.38,-5.3073 2.8071,-10.5999 4.104,-15.9286 0.9048,-2.7732 1.7342,-5.5068 3.4087,-7.9417 3.8759,-6.2075 8.0836,-12.1675 12.3343,-18.1217 5.7123,-7.7745 11.3721,-15.6051 16.5627,-23.7401 4.0929,-6.899 7.8533,-13.9939 12.1569,-20.7662 5.6347,-8.2665 11.6499,-16.2262 17.9227,-24.0224 5.5845,-7.4344 11.1822,-14.8548 17.2752,-21.8876 5.7485,-6.6124 11.3921,-13.3082 17.122,-19.9359 7.1021,-8.4984 13.7921,-17.3265 20.1892,-26.3673 7.0591,-10.1819 13.5529,-20.7176 19.8746,-31.3707 5.656,-9.11 11.5151,-18.0911 16.9506,-27.3368 5.2302,-9.0734 9.6523,-18.5579 14.2253,-27.9744 6.4761,-13.5853 12.2325,-27.5009 19.0065,-40.9432 5.4347,-11.3171 10.2197,-22.90034 14.8758,-34.5573 1.5434,-4.05445 2.8642,-8.20891 4.4443,-12.24584 0.3731,-0.9533 0.8196,-1.8763 1.2251,-2.81631 0.1762,-0.40849 0.6817,-0.81473 0.52,-1.2292 -0.1233,-0.31591 -0.4791,0.48019 -0.7186,0.72028 18.1071,-21.72859 -12.6218,-47.33597 -30.7289,-25.60738 z" /><path
       style="fill:#b3b3b3;fill-opacity:1;stroke:none;stroke-width:20;paint-order:markers stroke fill"
       id="path9780"
       d="m 1746.8509,713.15373 c -13.3978,0.10586 -26.1361,5.45311 -38.5866,9.87147 -13.2453,4.69768 -25.785,10.99471 -38.1862,17.53851 -5.9259,3.3646 -11.9274,6.70973 -17.498,10.65496 -2.9409,2.0828 -5.3008,4.01825 -8.0864,6.23803 -7.5056,5.16379 -15.3278,9.83467 -22.8908,14.91303 -7.368,4.98612 -14.8376,9.85914 -21.7295,15.50741 -5.6064,4.59473 -6.9324,6.07764 -12.0124,11.00577 -9.0206,9.24456 -16.652,19.90338 -21.1132,32.11068 -0.8723,2.38675 -1.5164,4.85081 -2.2745,7.27622 -3.0406,11.74795 -3.489,23.90577 -3.6838,35.97249 0.014,10.09023 -0.6595,20.16119 -0.6477,30.25084 0.4871,10.14368 2.4475,20.14808 4.4606,30.08067 1.6111,7.54737 2.7162,15.18457 4.2271,22.7507 1.1878,6.53528 2.9615,12.94907 4.0261,19.50519 1.0594,8.03685 3.9857,15.51072 7.6585,22.67042 3.1075,6.20698 6.7683,12.11308 10.5703,17.91268 3.5565,4.7021 6.9747,9.73 11.4448,13.6473 1.3852,1.2139 2.8818,2.2945 4.3227,3.4417 7.744,5.7007 15.8724,10.8386 24.1091,15.7887 4.8412,2.7252 9.6037,5.5956 14.7567,7.7081 2.0751,0.8507 5.0888,1.8496 7.2388,2.5853 6.7378,2.7302 13.6218,4.9732 20.6321,6.8812 2.6012,0.708 5.2346,1.2998 7.8182,2.0695 2.842,0.8468 5.6344,1.8519 8.4516,2.7778 15.8484,5.8839 30.9314,13.5102 46.2135,20.6721 6.645,3.1688 13.3179,6.2718 19.711,9.9285 4.9242,2.971 10.1832,5.2641 15.4708,7.4933 3.5643,1.6091 7.1164,3.2979 10.9124,4.3072 2.5296,0.6726 5.5962,1.166 8.1988,1.626 9.4454,1.2887 18.8605,2.7878 28.3183,3.9852 6.2307,0.8645 12.5089,1.0865 18.7894,1.1662 13.4426,0.3761 26.885,0.7462 40.3312,0.9646 11.8056,0.1458 23.6122,0.1868 35.4185,0.2041 8.888,0.053 17.6368,-1.5487 26.3759,-2.9559 8.007,-1.1728 16.0188,-2.2896 24.0706,-3.1049 7.9528,-0.9661 15.9368,-1.6222 23.9171,-2.3087 12.4361,-1.1832 24.9069,-1.9434 37.3729,-2.7397 24.605,-1.663 49.1509,-4.0433 73.6395,-6.9378 11.1886,-1.13 22.285,-2.9111 33.3018,-5.1398 9.0925,-2.256 18.1153,-4.8127 27.1871,-7.1697 6.2584,-1.8117 12.5962,-3.5618 18.6212,-6.079 3.1165,-1.302 5.8016,-2.6657 8.8114,-4.1401 6.4998,-3.4268 12.9061,-7.019 19.4962,-10.2731 4.8783,-2.1014 9.7677,-4.1618 14.5664,-6.4438 5.5602,-2.7515 11.4099,-4.8123 17.1481,-7.1653 4.8502,-1.9739 9.6245,-4.1367 14.292,-6.5067 3.8354,-2.0477 7.8149,-3.7968 11.7176,-5.7046 4.5141,-2.0402 8.456,-5.0385 12.4695,-7.8862 2.8329,-2.2455 6.0032,-3.7334 9.1129,-5.5318 4.5816,-2.6824 8.9837,-5.6555 13.4838,-8.4709 7.0028,-4.2271 13.1295,-9.6654 19.0805,-15.229 8.6516,-8.1848 16.2832,-17.38666 23.677,-26.70076 8.5635,-10.53912 16.6331,-21.43484 23.6517,-33.06296 3.0945,-5.53371 6.0016,-11.21566 8.0985,-17.21499 1.8362,-5.25348 3.0858,-10.69038 4.3264,-16.10502 2.449,-10.08537 3.6584,-20.41523 4.9322,-30.69937 1.0389,-8.45312 1.6639,-16.95122 1.5667,-25.46776 -0.1827,-10.25864 -3.5694,-18.82053 -8.0203,-27.86189 -3.0215,-6.05232 -7.2435,-11.34476 -11.1244,-16.84282 -4.61,-6.52659 -11.0161,-11.16087 -17.5679,-15.5343 -10.9109,-6.96256 -22.5817,-12.48047 -34.5112,-17.43395 -2.8619,-0.93252 -5.6921,-1.96824 -8.5855,-2.79752 -5.284,-1.51442 -13.3267,-3.22289 -18.6592,-4.31742 -12.5801,-2.58204 -25.2319,-4.73294 -37.8897,-6.89136 -26.1969,-3.85966 -52.3671,-7.91483 -78.5828,-11.64823 -13.0711,-1.35853 -25.934,-3.89964 -38.7147,-6.88499 -8.4789,-1.86674 -16.925,-3.86559 -25.064,-6.90782 -8.0183,-2.50989 -15.4266,-6.51452 -23.2871,-9.42954 -5.436,-2.01588 -8.1425,-2.72925 -13.6105,-4.35789 -18.5229,-5.00939 -37.2126,-9.40269 -56.0622,-12.99102 -3.5145,-0.53496 -7.0174,-1.15189 -10.5433,-1.60483 -10.1655,-1.30588 -14.2403,-1.42285 -24.7681,-2.08092 -14.408,-0.90064 -28.8233,-1.59872 -43.2418,-2.3051 -24.948,-1.35263 -49.9215,-1.9797 -74.9013,-2.28008 -22.9296,-0.10197 -45.863,-0.35864 -68.7915,-0.0313 -12.735,0.27437 -25.4649,0.71924 -38.2014,0.92276 -3.9272,0.26159 -7.9127,0.1787 -11.8187,0.75292 -1.143,0.16804 -3.3972,-0.51678 -3.4065,0.63847 -0.3282,40.80587 -9.6388,38.66751 7.8965,39.69173 46.4617,2.30691 92.8852,5.41057 139.3168,8.27199 40.5204,2.57397 81.1154,3.55849 121.6281,6.24488 21.7143,1.50368 43.0977,5.78467 64.6979,8.22725 3.9065,0.44174 7.8271,0.74866 11.7406,1.12302 26.3519,1.85634 52.7908,1.96278 79.1964,2.12413 12.5155,0.13991 25.1616,-0.0643 37.5889,1.72508 9.6135,1.38427 13.1587,2.55376 22.9348,4.9847 10.5076,2.64932 20.7491,6.08338 30.8318,10.01556 26.3909,10.17458 40.7799,-27.14776 14.389,-37.32233 v 0 c -11.7127,-4.47472 -23.5108,-8.52956 -35.7044,-11.54473 -12.8242,-3.10181 -15.816,-4.18745 -28.4855,-5.93611 -13.6688,-1.88661 -27.5487,-1.7985 -41.3107,-1.92143 -25.2323,-0.15349 -50.4949,-0.24905 -75.68,-1.94773 -3.4117,-0.31737 -6.8303,-0.56848 -10.2352,-0.95205 -22.4739,-2.53169 -44.7212,-7.01135 -67.3226,-8.48807 -40.5738,-2.67928 -81.2267,-3.70306 -121.8087,-6.25645 -46.7308,-2.8798 -93.4533,-6.0054 -140.2149,-8.3172 -14.0364,0.79518 0.8732,-0.37404 -0.091,39.16524 -0.015,0.61939 -1.2368,0.12102 -1.8403,0.26117 -0.4566,0.10599 0.93,-0.1197 1.397,-0.15825 1.0053,-0.083 2.012,-0.15015 3.0191,-0.20629 1.3069,-0.0728 2.6151,-0.12041 3.9226,-0.18063 12.7158,-0.20466 25.4252,-0.63926 38.1392,-0.92181 22.5753,-0.33211 45.156,-0.0567 67.7324,0.0326 24.4872,0.29302 48.968,0.90659 73.4238,2.23504 14.2296,0.69704 28.4536,1.40433 42.6738,2.27322 9.0124,0.55068 12.678,0.63026 21.3269,1.71326 3.0287,0.3792 6.0377,0.90117 9.0565,1.35175 17.5449,3.31354 34.9247,7.44516 52.1744,12.05013 3.6195,1.06003 6.5986,1.86947 10.1439,3.15754 8.2288,2.98969 15.944,7.27403 24.3439,9.83342 9.6989,3.50097 19.6305,6.17287 29.7235,8.29887 13.9216,3.24676 27.9381,6.01493 42.1684,7.53256 25.8542,3.67943 51.6616,7.68868 77.4995,11.47881 12.1128,2.06375 24.2175,4.12398 36.2588,6.57844 3.4644,0.70618 11.1577,2.32469 14.9283,3.33047 1.8056,0.48165 3.5774,1.08228 5.3662,1.62343 9.5354,3.93491 18.866,8.26532 27.6244,13.75802 2.4563,1.63526 5.1373,3.12203 7.1032,5.35577 2.7243,3.84339 5.7046,7.52983 8.0111,11.64889 1.7761,3.43392 3.6378,6.75976 3.7942,10.70079 0.2236,6.62085 -0.5996,13.23824 -1.2715,19.81266 -1.1049,8.9576 -2.1061,17.96767 -4.2418,26.75136 -1.7209,7.67585 -3.5459,14.86744 -7.7548,21.65823 -6.0065,10.20427 -13.3174,19.5186 -20.6868,28.76526 -6.1311,7.78616 -12.4908,15.46596 -19.6566,22.32869 -4.055,3.8117 -8.1624,7.6399 -12.9595,10.51531 -4.134,2.59128 -8.188,5.31141 -12.3815,7.80502 -4.1267,2.43138 -8.3858,4.62338 -12.2117,7.53318 -2.2947,1.6425 -4.4825,3.4958 -7.0777,4.6477 -4.1036,2.1542 -8.4638,3.8364 -12.5129,6.112 -1.5179,0.9484 -0.1003,0.103 -3.3052,1.5735 -2.5142,1.1536 -5.0074,2.3645 -7.5976,3.3471 -6.3872,2.6509 -12.9,5.0028 -19.1183,8.0401 -4.9671,2.3751 -10.0825,4.3972 -15.0844,6.6952 -6.5547,3.245 -12.9664,6.7533 -19.4013,10.2263 -1.815,0.8945 -3.592,1.8715 -5.4487,2.6759 -4.6369,2.0088 -9.5809,3.2869 -14.4074,4.7313 -8.3685,2.1743 -16.7063,4.4821 -25.0621,6.6791 -9.9465,2.0133 -19.9631,3.6225 -30.0684,4.6222 -23.7761,2.8164 -47.6092,5.1218 -71.4986,6.7427 -12.7568,0.8208 -25.5194,1.5959 -38.2465,2.8053 -8.1863,0.706 -16.3772,1.3778 -24.5357,2.3668 -8.8232,0.9026 -17.607,2.1069 -26.3799,3.4082 -6.6192,1.0665 -13.2276,2.4129 -19.9566,2.4469 -11.6099,-0.017 -23.2199,-0.057 -34.8291,-0.1989 -13.499,-0.2181 -26.994,-0.5996 -40.4897,-0.9668 -4.7708,-0.056 -9.5404,-0.1761 -14.2729,-0.8548 -8.8123,-1.1069 -17.5789,-2.5379 -26.3849,-3.6931 -1.0495,-0.1842 -2.0941,-0.399 -3.1486,-0.5525 -0.5891,-0.086 -0.2153,0.1922 -0.8219,-0.01 -2.2573,-0.7482 -4.3341,-1.9799 -6.5445,-2.8381 -3.8228,-1.6107 -7.6557,-3.1721 -11.1869,-5.3781 -7.3341,-4.1746 -14.9415,-7.8071 -22.5697,-11.4101 -16.7806,-7.8481 -33.343,-16.2215 -50.8161,-22.489 -3.5258,-1.1346 -7.0278,-2.3458 -10.5774,-3.4038 -4.039,-1.2038 -8.1911,-2.0068 -12.2239,-3.2313 -4.5923,-1.3943 -9.0193,-3.3129 -13.5408,-4.9069 -1.7976,-0.6112 -3.8797,-1.1201 -5.6177,-1.9429 -2.991,-1.416 -5.766,-3.2573 -8.6985,-4.7832 -7.07,-4.2446 -14.0571,-8.6322 -20.7157,-13.5065 -2.1196,-0.6579 -4.7141,-5.33183 -6.3215,-7.03628 -3.0579,-4.64839 -6.0171,-9.37641 -8.4938,-14.36539 -1.8175,-3.44467 -3.3716,-6.90891 -3.7194,-10.86062 -1.1893,-6.98148 -2.9067,-13.84845 -4.2643,-20.79845 -1.5425,-7.59142 -2.5878,-15.27399 -4.2461,-22.84439 -1.5076,-7.3547 -2.9436,-14.7562 -3.6559,-22.23489 -0.064,-9.83575 0.7298,-19.65558 0.6432,-29.4934 0.124,-8.43917 0.2867,-16.95045 2.0438,-25.23918 2.2463,-8.69305 6.6481,-15.74853 12.9874,-22.12935 3.063,-3.02252 5.047,-5.11271 8.3858,-7.86451 6.2486,-5.15 13.0484,-9.54494 19.7404,-14.07781 8.4446,-5.70365 17.307,-10.77466 25.5102,-16.83568 0.039,-0.0315 4.7842,-3.83937 5.1897,-4.13036 4.477,-3.21275 9.3371,-5.90087 14.104,-8.64404 10.6974,-5.64512 21.4719,-11.16044 32.899,-15.2196 6.1051,-2.16773 12.191,-4.27818 18.369,-6.22361 1.4627,-0.46058 2.8737,-1.19475 4.3999,-1.34342 0.8085,-0.0788 1.6247,0 2.437,0 28.2843,0 28.2843,-40 0,-40 z" /><path
       style="fill:#cccccc;fill-opacity:1;stroke:none;stroke-width:20;paint-order:markers stroke fill"
       id="path10644"
       d="m 1849.8895,713.15373 c -14.8019,0.20047 -29.5684,1.95614 -44.2587,3.67503 -20.5434,2.50685 -41.0911,5.02386 -61.4773,8.61949 -7.9925,1.63619 -16.0741,3.1351 -23.8585,5.63465 -4.3268,1.38935 -6.8352,2.45044 -10.9857,4.08752 -8.2121,3.16791 -16.1707,6.93867 -23.8532,11.22683 -6.2793,3.95848 -12.4169,8.14006 -18.549,12.3222 -7.8883,5.07616 -14.5906,11.62272 -21.4012,18.00177 -6.5235,6.0025 -12.4953,12.57586 -18.475,19.11197 -7.0324,7.27363 -12.759,15.64653 -18.7944,23.73108 -7.5893,10.04073 -13.7388,21.00252 -19.2491,32.2851 -3.5947,7.24315 -7.7896,14.16132 -11.5241,21.32758 -3.5136,7.28472 -6.3098,14.87199 -9.2916,22.38005 -2.618,6.58336 -5.0278,13.23729 -6.9675,20.05221 -2.5122,8.66109 -3.1348,17.67171 -3.5438,26.631 -0.086,6.37128 -0.6023,12.77276 0.027,19.13459 0.5535,5.59885 0.981,6.60606 2.2656,12.08969 3.4081,11.83195 9.6657,22.59086 15.9963,33.06761 6.2128,9.8767 14.1762,18.4313 22.3446,26.694 8.1999,8.131 17.5066,14.9627 26.9389,21.5681 13.1425,9.5394 26.2337,19.1521 39.9516,27.8533 14.2972,9.0345 29.9396,15.6853 45.6816,21.7438 13.3667,4.9555 27.1908,8.3347 41.1982,10.8562 13.7615,2.4065 27.7115,3.1097 41.6477,3.5594 14.6642,0.6024 29.3323,1.0683 44.0065,1.3286 10.9144,0.1691 21.8303,0.1846 32.7457,0.192 10.8673,0 21.7346,-0.01 32.602,-0.01 12.7822,0.1721 25.5552,-0.3422 38.3289,-0.7164 10.0244,-0.2484 20.0458,-0.3615 30.0644,-0.7924 11.4875,-0.5074 22.9857,-0.666 34.4827,-0.7647 12.2522,-0.1927 24.4687,-1.1822 36.6211,-2.7036 10.4035,-1.1284 20.7244,-2.8947 31.0137,-4.7768 6.6727,-1.2536 13.426,-1.9318 20.0079,-3.6522 0.1141,-0.03 9.3535,-2.7675 10.1524,-3.0042 7.7905,-2.5381 15.5738,-5.0913 23.3179,-7.7671 7.3313,-2.2875 14.6609,-4.581 21.9631,-6.9601 6.0824,-2.4815 12.4543,-4.1219 18.6555,-6.2516 0.5011,-0.1721 9.9103,-3.6395 11.0268,-4.0506 9.843,-3.7048 19.1726,-8.5656 28.7031,-12.9762 10.2828,-5.0553 20.448,-10.3306 30.8279,-15.1917 14.1824,-6.734 27.7986,-14.6646 41.1585,-22.8985 13.1622,-7.5438 24.9111,-17.116 36.1014,-27.283 10.4819,-9.87487 20.5311,-20.14211 29.9359,-31.04506 4.5483,-5.54947 8.8415,-11.2963 13.3828,-16.85313 5.0343,-5.46436 8.6236,-11.13444 11.6469,-17.91973 3.5242,-9.1377 4.0023,-18.96975 4.3988,-28.64376 0.4528,-6.04343 0.8653,-12.08797 1.1041,-18.14391 0.1714,-5.18152 0.1872,-10.36627 0.1973,-15.55004 0,-4.67908 0,-9.35815 -0.01,-14.03723 -0.1082,-7.79399 -1.6187,-15.41375 -3.8882,-22.83804 -2.515,-7.20093 -5.6529,-14.13335 -9.3974,-20.77122 -4.2052,-6.79299 -9.731,-12.72146 -16.3237,-17.26295 -1.6205,-1.11633 -3.3284,-2.10029 -4.9925,-3.15042 -7.8194,-4.10663 -15.6042,-8.37197 -23.8394,-11.61042 -2.1407,-0.84185 -4.3245,-1.57004 -6.4867,-2.35506 -19.3791,-6.63469 -39.2645,-11.65561 -59.1057,-16.68864 -24.8124,-5.72426 -49.4757,-12.05656 -74.3079,-17.6978 -15.2423,-3.27837 -30.3268,-7.30279 -45.6648,-10.13444 -5.4023,-0.99735 -12.1734,-2.0243 -17.6507,-2.88287 -14.8145,-2.30836 -29.4168,-5.82745 -44.2666,-7.92941 -3.5747,-0.50601 -7.1649,-0.89693 -10.7474,-1.3454 -25.9375,-2.5046 -51.943,-4.20809 -77.8971,-6.51359 -24.3553,-2.22803 -48.7645,-3.62286 -73.2048,-4.42005 -19.357,-0.55864 -38.7225,-0.7165 -58.0865,-0.78026 -6.2156,-0.0146 -12.4313,-0.006 -18.647,0.004 -28.2842,0.043 -28.2235,40.04294 0.061,39.99997 v 0 c 6.1516,-0.009 12.3032,-0.0182 18.4548,-0.004 18.9747,0.0621 37.9509,0.21479 56.9188,0.75936 23.6945,0.76692 47.3578,2.12537 70.9697,4.28474 25.4914,2.25801 51.0293,3.96618 76.5092,6.36601 3.1127,0.38168 6.2323,0.71024 9.338,1.14511 14.9,2.08632 29.5375,5.69852 44.4096,7.95208 4.367,0.68313 11.7186,1.80517 16.0299,2.5948 14.9905,2.74555 29.7184,6.73608 44.6172,9.91123 24.5075,5.56176 48.8435,11.82669 73.3331,17.46362 18.6104,4.71717 37.2663,9.40816 55.4598,15.57676 8.0199,2.80852 15.6075,6.51602 23.0934,10.5256 2.8638,1.48966 5.4699,3.46289 7.3401,6.1133 2.4452,4.09842 4.2175,8.52329 5.9598,12.95622 1.2111,3.46462 1.8025,7.09121 2.0122,10.75135 0,4.64664 0.01,9.29328 0.01,13.93991 -0.01,4.69027 -0.02,9.38139 -0.1671,14.06983 -0.2323,6.04245 -0.6959,12.06929 -1.1024,18.10184 -0.1883,4.84492 -0.3666,9.71606 -1.2028,14.50155 -0.1588,0.43725 -0.1594,0.93432 -0.3841,1.3417 -1.4355,2.6031 -3.6841,4.7013 -5.4806,7.0294 -4.308,5.28478 -8.4334,10.70851 -12.6923,16.02996 -8.3459,9.69241 -17.2805,18.79495 -26.5724,27.58787 -9.3363,8.53011 -19.1293,16.57151 -30.1809,22.8197 -12.045,7.45322 -24.34,14.61452 -37.1265,20.71762 -10.3149,4.843 -20.4475,10.0374 -30.6482,15.108 -8.5541,3.9609 -16.9259,8.3228 -25.7219,11.7396 -3.0924,1.1388 -6.1486,2.3782 -9.2655,3.4482 -6.3147,2.1678 -12.8043,3.8386 -18.9984,6.3617 -7.5209,2.4564 -15.0806,4.7908 -22.6224,7.1815 -7.1818,2.4816 -14.4011,4.8436 -21.618,7.2219 -3.6143,1.0712 -7.2934,2.4645 -11.0022,3.203 -4.9683,0.9894 -10.0489,1.3798 -15.0027,2.4602 -9.5485,1.7522 -19.1271,3.3958 -28.7837,4.4329 -10.6153,1.3341 -21.2842,2.2131 -31.988,2.3942 -11.9559,0.1035 -23.9131,0.2722 -35.8593,0.8002 -9.8351,0.4243 -19.6736,0.518 -29.5144,0.7726 -12.3868,0.363 -24.7726,0.8719 -37.1677,0.6992 -10.8549,0 -21.7098,0.01 -32.5647,0.01 -10.6886,-0.01 -21.3776,-0.022 -32.0652,-0.1858 -14.485,-0.2555 -28.9637,-0.7218 -43.4388,-1.3145 -12.0159,-0.3782 -24.048,-0.9155 -35.919,-2.9618 -11.5241,-2.0176 -22.8752,-4.8115 -33.8824,-8.8231 -13.2914,-5.0729 -26.5331,-10.6242 -38.6173,-18.199 -13.2327,-8.344 -25.7609,-17.7214 -38.4518,-26.8566 -7.4761,-5.1883 -14.8583,-10.5504 -21.4013,-16.9071 -5.9692,-6.01521 -11.8956,-12.15209 -16.5538,-19.2724 -2.3841,-3.92355 -4.6481,-7.86701 -6.797,-11.92567 -0.3174,-0.59946 -2.9856,-5.62353 -3.4432,-6.72933 -0.4479,-1.08257 -0.764,-2.21506 -1.146,-3.32258 -0.5852,-2.07688 -0.8809,-2.84081 -1.1674,-4.97454 -0.6594,-4.91141 0.1,-9.91703 0.014,-14.84548 0.2512,-5.90613 0.4784,-11.88522 2.0996,-17.6085 1.496,-5.48976 3.5862,-10.78185 5.6289,-16.08637 2.4946,-6.28735 4.8378,-12.63444 7.6564,-18.78814 3.803,-7.47702 8.3338,-14.57696 11.9424,-22.16169 4.3897,-9.042 9.2587,-17.84268 15.345,-25.87696 5.2379,-7.02088 10.1458,-14.34262 16.2515,-20.65642 5.2866,-5.77993 10.5414,-11.61759 16.3118,-16.92254 5.3064,-4.97456 10.4234,-10.20149 16.5887,-14.14386 5.1835,-3.53557 10.3997,-7.02124 15.619,-10.50374 6.0835,-3.46271 12.466,-6.36339 18.9849,-8.90596 1.1175,-0.44577 5.8103,-2.34653 7.1956,-2.80051 6.4783,-2.12296 13.232,-3.32991 19.8881,-4.72032 19.6145,-3.49459 39.4043,-5.83203 59.1702,-8.27969 13.1387,-1.55424 26.35,-3.14221 39.5862,-3.40119 28.2843,0 28.2843,-40 0,-40 z" /><path
       style="fill:#000000;fill-opacity:1;stroke:none;stroke-width:20;paint-order:markers stroke fill"
       id="path9076"
       d="m 1286.8125,1370.5869 c 0.047,0.1033 0.037,0.2647 0.1415,0.3098 1.2521,0.5411 2.5714,0.9126 3.8409,1.4115 2.1632,0.85 4.3167,1.7251 6.4556,2.6345 7.6143,3.2376 15.1307,6.7163 22.658,10.1496 15.186,6.814 30.4804,13.3814 45.7964,19.8973 12.8169,5.8287 25.8161,11.2434 38.7426,16.8222 7.9487,3.5026 15.6375,7.581 23.6811,10.8726 5.3905,2.2059 7.4181,2.8019 12.9393,4.68 12.5015,4.5427 25.0829,8.8732 37.5236,13.5802 10.1778,4.1575 20.5198,7.9063 30.9724,11.3111 10.0266,3.0541 20.4822,4.2851 30.7955,6.001 9.3893,2.0719 18.9741,2.8361 28.4971,3.9962 11.0004,1.159 21.882,3.1619 32.8207,4.7654 16.1739,1.9577 32.4168,3.4127 48.646,4.8665 12.6367,1.089 25.2032,2.8127 37.8601,3.6459 12.1569,1.5428 24.3908,2.4699 36.5339,4.1052 9.6262,1.4022 19.2725,2.6426 28.9004,4.0329 10.9623,1.3606 21.9548,2.5336 32.9601,3.4996 8.3893,0.3517 16.7285,1.0475 25.0874,1.819 9.6222,1.0185 19.2975,1.0717 28.9557,1.4146 10.4114,0.274 20.8025,0.8698 31.1972,1.4852 11.2678,0.6204 22.5599,0.5387 33.8076,1.5035 13.4064,1.4437 26.8291,2.6995 40.277,3.6839 15.8576,1.0506 31.7014,2.2275 47.5519,3.3832 19.7818,1.3669 39.6215,1.3813 59.4401,1.5213 13.3369,0.083 26.674,0.085 40.011,0.073 11.2164,0.034 22.4081,-0.8566 33.6041,-1.4207 14.5872,-0.9505 29.1714,-1.9638 43.7461,-3.0956 13.8302,-0.6543 27.4417,-3.3217 41.1263,-5.2576 16.9069,-1.9872 33.8734,-3.4142 50.7527,-5.6352 14.0445,-2.6539 28.0505,-5.5624 41.9779,-8.7784 10.671,-2.3699 21.3012,-4.9712 31.545,-8.8278 3.6814,-1.3859 9.8479,-4.0251 13.5422,-5.5828 11.0488,-5.1089 22.1426,-10.1201 33.196,-15.2185 11.7428,-5.6054 23.7444,-10.6507 35.686,-15.8145 11.6145,-5.1188 22.6918,-11.3258 33.6681,-17.6707 4.2733,-2.2829 8.2825,-5.0091 12.4192,-7.5158 3.4952,-2.1181 7.2185,-3.9145 10.8313,-5.8162 8.4434,-3.928 16.4367,-8.7079 24.8613,-12.6649 9.4033,-3.5873 18.6026,-7.64 27.8183,-11.6772 9.3624,-4.4097 18.3515,-9.5477 26.8184,-15.4889 6.6448,-4.7985 13.4232,-9.4425 20.2643,-13.9611 7.8428,-5.4152 14.6927,-12.0501 21.758,-18.3969 5.6731,-4.3625 11.2384,-8.8538 16.5548,-13.6459 2.6,-2.4525 5.1985,-4.864 7.8854,-7.2138 1.7219,-1.2182 3.1864,-2.8359 5.0197,-3.9 0.153,-0.089 -0.2525,0.2477 -0.3788,0.3715 0.3508,-0.1639 0.7016,-0.3278 1.0524,-0.4917 25.3769,-12.4908 7.7122,-48.379 -17.6646,-35.8882 v 0 c -0.9242,0.4637 -1.8484,0.9273 -2.7726,1.391 -4.16,2.4896 -8.0663,5.273 -11.6953,8.5012 -2.8149,2.5135 -5.5923,5.0441 -8.3433,7.6235 -5.2302,4.817 -10.9658,9.0178 -16.4417,13.5436 -5.5967,5.0598 -11.0253,10.3318 -17.1271,14.8004 -7.1654,4.79 -14.3215,9.6177 -21.2998,14.6736 -6.1442,4.4775 -12.8987,8.036 -19.681,11.4435 -9.5662,4.1912 -19.1377,8.3263 -28.858,12.1505 -8.9291,4.2396 -17.4651,9.2076 -26.4029,13.4345 -8.3935,4.419 -16.5627,9.161 -24.6544,14.1074 -9.6254,5.5784 -19.3325,11.0489 -29.5078,15.5762 -12.2377,5.2919 -24.5334,10.4699 -36.5697,16.2094 -10.6517,4.9175 -21.3537,9.7262 -31.9868,14.6845 -5.5447,2.3415 -11.0906,4.9046 -16.8301,6.7482 -7.1175,2.2864 -14.4667,3.8166 -21.7283,5.5466 -12.6771,2.9434 -25.4391,5.5181 -38.1954,8.0923 -17.0002,2.2566 -34.1011,3.6105 -51.1232,5.6859 -12.8511,1.8224 -25.6272,4.3628 -38.6134,4.9824 -14.2153,1.1039 -28.4398,2.0911 -42.6668,3.0264 -10.5356,0.5333 -21.0679,1.3808 -31.6219,1.3698 -13.2311,0.012 -26.4623,0.01 -39.6933,-0.072 -18.9433,-0.1334 -37.9074,-0.1292 -56.8166,-1.4166 -15.8478,-1.153 -31.6891,-2.3296 -47.5436,-3.3827 -13.3264,-0.9713 -26.6245,-2.2429 -39.9113,-3.6554 -11.5598,-0.9203 -23.1448,-1.0407 -34.7251,-1.5684 -10.7143,-0.6334 -21.4257,-1.242 -32.1568,-1.5304 -8.9012,-0.3091 -17.8188,-0.3408 -26.6873,-1.2704 -8.4179,-0.7747 -16.8236,-1.4949 -25.2713,-1.8355 -10.2607,-0.895 -20.5079,-1.9973 -30.7307,-3.2413 -9.7817,-1.4123 -19.5819,-2.6739 -29.362,-4.0968 -13.0434,-1.7061 -26.161,-2.8296 -39.2255,-4.3696 -12.3238,-0.7666 -24.5494,-2.5837 -36.8574,-3.5689 -15.4852,-1.3849 -30.9817,-2.7823 -46.4188,-4.6041 -11.2655,-1.6464 -22.4714,-3.7119 -33.8011,-4.8966 -8.9402,-1.0787 -17.9366,-1.7811 -26.7473,-3.7446 -3.4227,-0.5691 -6.8391,-1.1758 -10.2637,-1.7334 -4.9446,-0.8051 -9.9671,-1.2642 -14.7493,-2.857 -9.8618,-3.1843 -19.5883,-6.7805 -29.1872,-10.6848 -12.8852,-4.8571 -25.8969,-9.3751 -38.8479,-14.0538 -3.6298,-1.2164 -6.246,-2.0262 -9.7643,-3.4543 -8.0969,-3.2863 -15.7907,-7.4746 -23.8125,-10.9295 -12.9902,-5.606 -26.0517,-11.0501 -38.9332,-16.9039 -15.0017,-6.3821 -29.9828,-12.8123 -44.8581,-19.4838 -8.0537,-3.6725 -16.0939,-7.4081 -24.2557,-10.8367 -3.9838,-1.6735 -10.5908,-4.3598 -14.9402,-5.6011 -2.1419,-0.6112 -4.3449,-0.9834 -6.5173,-1.4751 -28.144,-2.8143 -32.1241,36.9871 -3.9802,39.8015 z" /><path
       style="fill:#000000;fill-opacity:1;stroke:none;stroke-width:20;paint-order:markers stroke fill"
       id="path9082"
       d="m 1532.645,867.77919 c -7.0986,12.36768 -13.1887,25.26093 -18.8485,38.33744 -7.7855,19.38268 -15.5964,38.75211 -24.4651,57.66882 -9.6792,19.44907 -19.4888,38.83765 -29.4142,58.16325 -10.6395,20.5335 -21.3284,41.0415 -32.3448,61.3762 -9.8329,18.57 -21.2806,36.185 -33.0085,53.593 -9.1952,13.0314 -19.0544,25.5694 -28.3062,38.5619 -7.2154,9.993 -14.2559,20.1079 -21.4207,30.137 -8.2383,11.8874 -16.4351,23.8068 -24.4502,35.8464 -5.2901,7.6788 -10.4042,15.4675 -15.42,23.3285 -5.0184,8.3463 -9.797,16.8311 -14.5857,25.3099 -3.8812,7.0308 -8.0589,13.8958 -11.8501,20.9752 -3.1282,6.133 -6.0676,12.355 -8.9878,18.5881 -1.2916,2.5574 -2.4182,5.1877 -3.5179,7.8311 -10.7368,26.1672 26.2691,41.3514 37.006,15.1842 v 0 c 0.8216,-2.06 1.7485,-4.0722 2.7393,-6.0573 2.6326,-5.6284 5.2865,-11.2437 8.0904,-16.7901 3.5627,-6.805 7.7027,-13.2996 11.3493,-20.0608 4.4357,-7.8543 8.8682,-15.7098 13.477,-23.4645 4.8787,-7.6463 9.8497,-15.2233 15.0025,-22.6878 7.7622,-11.6755 15.7218,-23.2202 23.6954,-34.7518 7.1784,-10.0493 14.2341,-20.1833 21.4631,-30.1965 9.4411,-13.2772 19.5663,-26.045 28.8904,-39.4054 12.4446,-18.475 24.5581,-37.1915 35.0056,-56.8902 11.1528,-20.5943 21.9828,-41.3592 32.7552,-62.1541 10.148,-19.7625 20.1877,-39.5846 30.0621,-59.48419 9.0102,-19.29154 17.072,-38.98823 24.9573,-58.76306 4.8006,-11.14583 10.0016,-22.09265 15.8726,-32.72025 15.1851,-23.86235 -18.5613,-45.33739 -33.7465,-21.47501 z" /><path
       style="fill:#000000;fill-opacity:1;stroke:none;stroke-width:20;paint-order:markers stroke fill"
       id="path9102"
       d="m 2635.668,1277.814 c -3.0581,-8.5708 -6.2195,-17.11 -9.4508,-25.6187 -0.7287,-1.7877 -1.3966,-3.6014 -2.1862,-5.3631 -1.4791,-3.3002 -5.1989,-10.7596 -6.836,-14.1109 -2.8502,-5.8351 -5.7015,-11.6666 -8.6051,-17.4755 -3.7829,-7.9222 -7.7934,-15.7341 -11.9008,-23.4926 -3.0012,-5.7728 -5.4851,-11.7917 -8.3219,-17.6449 -3.2791,-6.5089 -6.416,-13.0835 -9.4952,-19.6885 -3.5942,-6.7247 -7.1202,-13.4823 -10.5178,-20.3084 -3.2429,-6.4675 -5.9474,-13.1915 -8.7168,-19.8715 -3.2614,-8.5112 -7.5798,-16.5345 -12.1429,-24.4038 -4.1132,-7.4549 -8.1669,-14.9262 -12.5233,-22.245 -4.6055,-7.5875 -8.2961,-15.6469 -12.7223,-23.3346 -5.5113,-8.7631 -10.7949,-17.6642 -15.8195,-26.7149 -4.415,-8.5483 -8.6129,-17.1887 -13.1514,-25.67431 -4.3803,-8.3198 -8.6481,-16.68907 -12.619,-25.21104 -3.0016,-6.2866 -6.1432,-12.50928 -8.9954,-18.86608 -2.1708,-5.20092 -4.4172,-10.36995 -6.3513,-15.665 -2.4167,-6.27751 -5.2118,-12.39764 -7.7352,-18.63294 -2.7591,-7.04921 -6.0241,-13.88483 -9.2088,-20.74818 -2.5009,-5.3422 -5.1888,-10.59254 -7.7022,-15.92852 -2.6036,-5.60935 -5.398,-11.128 -8.0733,-16.7055 -2.5536,-4.81026 -5.0711,-9.64089 -7.6992,-14.40963 -1.9059,-3.96195 -3.8698,-7.88519 -6.0299,-11.72014 -4.1076,-7.69927 -9.5952,-14.41622 -15.2765,-20.97853 -4.3048,-5.22652 -9.8501,-9.09214 -15.5333,-12.65597 -1.8239,-0.98136 -3.5822,-2.06608 -5.3774,-3.09634 -24.564,-14.02178 -44.3938,20.71696 -19.8298,34.73873 v 0 c 1.3628,0.77068 2.6757,1.63034 4.0807,2.32334 3.0222,1.85153 4.2382,2.37995 6.4188,4.8719 3.9624,4.57674 7.9406,9.11257 10.7327,14.54582 2.1715,3.77639 3.9192,7.75226 5.9608,11.59771 2.3827,3.89417 4.1557,8.1688 6.4926,12.09305 2.6381,5.49095 5.3977,10.92176 7.9516,16.44975 2.4863,5.27207 5.1317,10.46544 7.6137,15.73962 2.9156,6.2535 5.8893,12.49013 8.4116,18.9154 2.3677,5.82809 4.9392,11.56864 7.2635,17.41268 2.2845,6.17675 4.8482,12.24039 7.4282,18.29874 2.9419,6.49777 6.1003,12.89503 9.2023,19.31731 4.282,9.18615 8.8787,18.21273 13.6033,27.17963 4.639,8.6727 8.8857,17.5277 13.4574,26.2357 5.1512,9.2645 10.5244,18.404 16.1888,27.3651 4.5641,7.7763 8.1377,16.0824 12.9514,23.7244 4.2892,7.1981 8.2357,14.5702 12.3132,21.888 3.689,6.3184 7.1888,12.7533 9.7717,19.6174 3.1225,7.5263 6.1929,15.0907 9.857,22.374 3.2456,6.5184 6.5538,13.0074 10.072,19.3833 3.1852,6.8323 6.4303,13.6334 9.8196,20.3676 3.0833,6.2095 5.598,12.6954 8.9087,18.7966 3.9668,7.4744 7.8179,15.0108 11.4651,22.6463 2.8646,5.7297 5.6759,11.4824 8.4875,17.2383 1.8916,3.8724 3.9259,7.6769 5.7076,11.6011 0.6607,1.4554 1.2137,2.9575 1.8205,4.4362 2.7509,7.2304 5.2878,14.5414 8.1915,21.7134 7.2879,27.3293 45.9372,17.0227 38.6495,-10.3065 z" /><path
       style="fill:#b3b3b3;fill-opacity:1;stroke:none;stroke-width:668.132;paint-order:markers stroke fill"
       d="m 7032.3289,2781.2119 c -192.0955,5.9758 -389.329,-4.7212 -576.3542,46.4556 -166.8193,59.4781 -291.838,195.084 -407.6934,323.2557 -116.7552,147.8607 -159.5976,361.2448 -84.8127,537.3396 109.063,137.229 251.3339,245.3434 392.3877,347.9639 142.1963,89.264 315.8961,105.3037 478.9281,125.7078 250.5038,18.7802 503.3856,15.6129 753.3407,-8.9478 319.1496,-36.7595 629.9742,-133.1156 921.4803,-266.4717 177.2646,-84.4792 339.5732,-214.4758 436.5038,-387.2859 36.8712,-101.1886 57.0146,-227.2495 -2.8484,-323.636 -86.9211,-103.6111 -218.8216,-155.5593 -339.6675,-208.4792 -230.6203,-82.0357 -472.8414,-132.2149 -716.0036,-158.4706 -284.4198,-21.042 -570.1268,-26.7385 -855.2608,-27.4314 z"
       id="path9244"
       transform="scale(0.26458333)" /><path
       style="fill:#000000;fill-opacity:1;stroke:none;stroke-width:20;paint-order:markers stroke fill"
       id="path9048"
       d="m 1992.1754,696.78345 c -24.8246,-0.20566 -49.6099,-1.92 -74.4306,-2.45742 -9.3679,-0.20283 -18.7386,-0.24307 -28.1079,-0.3646 -35.9705,-0.0137 -71.9623,0.89525 -107.8727,3.03366 -13.723,0.81717 -23.2056,1.67968 -36.6223,2.80072 -19.5561,1.8365 -39.2683,5.01135 -57.709,12.03722 -2.848,1.08509 -5.6139,2.37445 -8.4208,3.56169 -12.1448,5.53035 -23.3278,12.81864 -34.3317,20.29989 -14.4472,10.27928 -27.9707,21.76854 -40.8347,33.95052 -12.6764,12.0306 -24.6692,24.76103 -35.6533,38.35349 -8.1184,10.03075 -15.0249,20.92632 -20.8922,32.4003 -4.9713,10.57105 -8.6334,21.70366 -12.2929,32.78084 -4.1361,12.11442 -6.2205,24.74521 -7.6768,37.41954 -1.8419,17.79379 0.6552,35.45607 4.0802,52.88055 1.6045,6.7954 3.2828,13.58429 5.4885,20.21459 0.5789,1.74025 1.0459,3.53505 1.863,5.177 4.1871,8.41438 6.2033,10.69811 11.4594,18.13116 16.9156,21.9078 38.1732,39.7478 59.387,57.2926 15.2561,12.2821 30.6357,24.4246 46.397,36.0543 8.6615,6.7099 18.6839,11.2146 28.6993,15.4755 9.8325,4.4411 20.2232,7.3369 30.566,10.2914 13.2917,3.8348 26.8144,6.7538 40.4089,9.2727 15.0424,3.0134 30.3129,4.5677 45.565,6.045 15.8189,1.54 31.6772,2.4517 47.5584,2.9892 17.442,0.4649 34.8918,0.4529 52.3386,0.472 18.5468,0.024 37.0857,0.2061 55.616,-0.6512 11.2127,-0.799 22.4569,-1.2959 33.6505,-2.3569 10.3214,-0.9783 20.6066,-2.4195 30.8881,-3.7383 20.4058,-3.3398 40.805,-6.7213 61.2301,-9.9464 8.1518,-1.2577 16.3529,-2.5148 24.3491,-4.5863 2.3859,-0.6181 8.1852,-2.3683 10.5876,-3.084 11.7428,-3.981 23.5148,-7.8447 35.3465,-11.5542 12.6432,-4.2175 25.3432,-8.205 38.1473,-11.9044 12.4768,-3.7672 24.6849,-8.3708 36.8392,-13.0588 14.4708,-5.7751 28.3879,-12.7757 42.3418,-19.6736 14.0247,-7.2824 28.0866,-14.5801 41.4025,-23.1194 2.9007,-1.8601 5.7264,-3.8346 8.5897,-5.752 8.7811,-6.0563 17.5327,-12.2188 25.4394,-19.4056 4.4248,-4.0219 6.5094,-6.3255 10.8108,-10.7573 8.3848,-9.05094 16.893,-17.99582 24.7626,-27.5079 4.7252,-5.71148 6.6741,-8.42328 11.0506,-14.22638 8.1482,-11.43061 14.3274,-24.15408 18.1433,-37.66678 2.2787,-8.06881 2.8472,-12.62112 4.2437,-20.77206 1.4128,-11.39595 3.1277,-22.93382 2.3573,-34.45521 -0.19,-2.84123 -0.5933,-5.66417 -0.8899,-8.49624 -2.1132,-11.98055 -4.4272,-24.24624 -9.6065,-35.36006 -0.969,-2.07931 -2.1421,-4.05728 -3.2132,-6.08592 -5.9557,-10.09618 -14.6935,-18.05278 -23.4337,-25.69252 -9.3511,-7.53025 -19.6283,-13.80609 -30.0303,-19.75549 -15.0477,-8.62655 -30.4824,-16.61363 -46.4401,-23.41932 -15.3267,-5.91416 -30.7568,-11.59764 -46.4336,-16.51606 -23.7092,-7.00718 -47.9041,-12.21232 -71.9826,-17.7699 -16.9315,-3.8514 -34.074,-6.63276 -51.1527,-9.71859 -16.5538,-3.16976 -33.3329,-4.85833 -50.1155,-6.23589 -13.9702,-1.14292 -27.9936,-1.22229 -41.9961,-1.67621 -10.3017,-0.37423 -20.6067,-0.63204 -30.9141,-0.7737 -6.0625,-0.0723 -12.1256,-0.0674 -18.1884,-0.066 -28.2843,0.007 -28.2746,40.00685 0.01,40 v 0 c 5.8769,-0.003 11.754,-0.007 17.6305,0.0622 10.0583,0.1375 20.1141,0.391 30.1667,0.75644 13.3463,0.43243 26.7129,0.50146 40.0298,1.564 15.4964,1.26355 30.9925,2.79543 46.2754,5.73358 16.4461,2.96309 32.9514,5.64377 49.2589,9.32944 23.0903,5.32945 46.2935,10.31283 69.0457,16.97321 14.4382,4.49281 28.6121,9.79546 42.7456,15.16121 14.5546,6.13267 28.5463,13.54661 42.265,21.35364 8.1243,4.60288 16.1183,9.49651 23.5548,15.16055 5.2238,4.52895 10.6242,9.13622 14.6496,14.79367 4.8757,8.01048 6.2758,17.61549 8.1266,26.6591 0.5272,4.20106 0.8414,5.5476 0.8447,9.62266 0.01,7.44265 -1.165,14.86043 -2.0118,22.2305 -1.2112,7.41686 -2.3138,15.01214 -4.9295,22.10536 -2.4613,6.67448 -5.9386,13.05269 -9.9648,18.89519 -3.507,4.66714 -5.7121,7.70813 -9.4614,12.24931 -7.3508,8.90341 -15.3147,17.25983 -23.1462,25.73343 -3.4039,3.53324 -5.0111,5.31958 -8.4323,8.4923 -6.5799,6.10206 -14.0455,11.14407 -21.3767,16.28014 -14.5142,9.7917 -29.7663,18.3553 -45.4094,26.2147 -12.8756,6.365 -25.7019,12.8544 -39.0384,18.2221 -11.058,4.2856 -22.1783,8.4629 -33.5208,11.9404 -13.0924,3.7836 -26.0835,7.8511 -39.011,12.1646 -11.6504,3.6536 -23.2544,7.4242 -34.8029,11.3879 -2.7734,0.8269 -5.5239,1.7353 -8.3205,2.4802 -7.0233,1.8706 -14.2666,2.8855 -21.4314,4.0136 -20.0425,3.1655 -40.064,6.4578 -60.0801,9.7819 -9.6175,1.2338 -19.2426,2.6152 -28.8971,3.5334 -10.7898,1.0261 -21.6288,1.5031 -32.4369,2.2811 -17.8858,0.862 -35.7851,0.5893 -53.6875,0.6068 -17.0121,-0.018 -34.0272,0 -51.0349,-0.4493 -15.0438,-0.5047 -30.065,-1.3665 -45.0498,-2.8256 -14.1095,-1.3664 -28.2427,-2.7616 -42.1562,-5.566 -12.3439,-2.2715 -24.6195,-4.9233 -36.6868,-8.3996 -8.7696,-2.505 -17.6136,-4.8639 -25.9423,-8.658 -7.1472,-3.0159 -14.4197,-6.0409 -20.5827,-10.8502 -15.1788,-11.1649 -29.94,-22.8917 -44.6366,-34.6797 -18.5488,-15.3296 -37.2493,-30.7754 -52.3124,-49.69594 -1.4585,-2.02001 -2.8819,-4.06596 -4.3757,-6.06007 -0.6536,-0.87249 -1.5308,-1.58594 -2.0641,-2.53672 -0.5888,-1.04957 -0.8706,-2.24469 -1.2573,-3.38433 -1.7875,-5.26833 -3.1004,-10.67811 -4.4365,-16.07323 -2.6733,-13.41019 -4.8773,-26.98221 -3.5638,-40.70424 1.0481,-9.92606 2.7045,-19.81266 5.9058,-29.29662 3.0326,-9.19965 6.0519,-18.44871 10.018,-27.29474 4.4666,-9.03507 10.0655,-17.45128 16.3378,-25.33594 9.8195,-12.24952 20.6932,-23.60134 32.0454,-34.43782 11.2593,-10.73288 23.163,-20.78046 35.7884,-29.8817 8.8874,-6.05205 17.8691,-12.02394 27.6217,-16.61988 1.9104,-0.83976 3.7894,-1.75517 5.7313,-2.51929 15.2549,-6.00239 31.7304,-8.39311 47.9417,-9.96984 12.6946,-1.06323 22.3654,-1.93995 35.2885,-2.71158 35.0733,-2.09418 70.2262,-2.98948 105.3584,-2.98688 9.1125,0.11578 18.2264,0.15086 27.3376,0.34729 25.2486,0.54438 50.4607,2.30489 75.7145,2.47803 28.2842,0 28.2842,-40 0,-40 z" /></g><g
     inkscape:label="Layer 1"
     inkscape:groupmode="layer"
     id="layer1"
     style="display:none"><path
       style="fill:#999999;stroke-width:20;paint-order:markers stroke fill"
       id="path5198"
       d="m 1595.5546,549.40104 c 51.0339,0.67389 101.9876,-2.87446 152.9216,-5.55096 38.5576,-1.86766 77.1352,-3.38312 115.7305,-4.18478 17.6487,-0.32157 35.3012,-0.25897 52.952,-0.24307 33.0784,0.0373 66.1568,0.0427 99.2353,0.0502 35.802,-1.0432 71.4931,1.40883 107.0307,5.55543 29.5763,2.52473 57.9053,11.61539 86.4067,19.2935 37.1208,11.0767 74.633,20.51179 112.5632,28.32494 23.9553,6.00631 48.6374,8.10313 72.8013,12.88812 24.9859,5.88941 49.9435,11.91067 74.9692,17.63207 18.3019,4.29181 36.2766,9.83517 54.2775,15.21574 7.1099,2.78407 13.6893,6.34489 20.0699,10.51157 13.5537,10.02036 26.5631,20.92762 39.1409,32.17564 13.5075,11.78825 26.2232,24.26578 37.8604,37.89685 12.067,15.58859 26.4534,29.07263 40.0268,43.28861 2.396,4.17886 7.0847,7.01786 8.6637,11.65889 0.3839,1.12808 0.3588,4.08517 0.5387,5.23561 1.2555,7.16661 4.6305,13.66019 -0.5469,19.68759 -5.9637,11.53271 -14.8912,16.92095 -24.8396,24.75243 -13.7207,10.29917 -27.1091,21.43194 -42.5085,29.22497 -3.3986,1.7199 -17.8635,7.41048 -20.4482,8.44648 -40.6133,12.53763 -81.08,25.49253 -121.5186,38.58996 -34.5109,11.02497 -68.7243,23.1843 -103.7456,32.55547 -23.1232,6.18744 -30.0005,7.11967 -53.3865,11.69072 -8.8787,1.48257 -17.7322,3.12483 -26.6361,4.44772 -18.1207,2.69227 -36.3339,4.72837 -54.4705,7.3115 -30.1538,4.29461 -60.1856,9.24944 -90.2374,14.1959 -50.5851,8.34451 -101.4936,14.50081 -151.9818,23.44698 -40.427,7.69008 -81.5155,10.70968 -122.4173,14.68028 -57.5904,7.4121 -115.1969,14.5277 -173.0527,19.5164 -32.7098,2.7768 -65.5243,3.6144 -98.3348,3.8945 -13.7087,-0.3363 -27.474,0.5991 -41.1778,0.04 -14.4679,-0.5902 -28.9453,-3.2151 -43.2293,-5.3609 -30.221,-3.6376 -57.673,-13.0853 -85.9977,-23.566 -5.2515,-2.0191 -10.4946,-4.06001 -15.7544,-6.05727 -17.9137,-6.80217 -15.7686,-5.55098 -32.1427,-12.83623 -14.5126,-6.45697 -28.738,-13.54918 -43.1809,-20.16186 -22.1258,-10.78079 -44.1754,-21.75719 -65.9714,-33.20124 -12.2194,-6.07491 -21.7949,-15.42973 -31.7038,-24.52018 -8.6803,-9.32312 -13.7377,-21.37526 -18.5451,-33.0364 -6.6572,-14.68165 -10.0947,-30.39531 -13.4308,-46.0673 -1.864,-9.9251 -4.4625,-19.92648 -3.8155,-30.09616 0.2093,0.82714 -0.2251,2.50454 0.6278,2.48142 0.9749,-0.0265 0.9323,-1.71501 1.4556,-2.53791 0.8159,-1.28297 1.7465,-2.49074 2.5595,-3.7755 6.0623,-9.57895 12.2744,-18.74816 18.979,-27.90576 17.0943,-23.36673 35.8461,-45.46531 54.5824,-67.51855 11.3947,-12.64216 22.3318,-25.80827 34.4064,-37.82494 10.368,-10.31835 21.9837,-19.46698 33.3608,-28.62177 21.3325,-16.95606 43.5694,-32.90113 66.2135,-48.07046 14.1871,-10.32404 30.6162,-15.73802 46.9646,-21.48752 20.8824,-8.41193 42.9284,-11.98692 65.202,-14.00974 17.9816,-1.35218 36.0188,-1.53064 54.0417,-1.54673 45.6448,0.0757 23.8291,6.20419 13.6521,-99.86528 -0.2692,-2.80602 -5.6199,0.4482 -8.4299,0.67228 -13.096,7.87863 -27.6647,13.71237 -39.2881,23.63589 -7.0549,6.02318 -37.3782,54.1306 -40.7293,59.2951 -8.2074,12.64907 -16.2276,25.42165 -24.6221,37.94734 -19.7486,29.46746 -32.0875,46.05724 -52.7746,74.73418 -20.0235,25.64381 -38.4838,52.89587 -61.1127,76.42831 -4.6189,4.8033 -9.7241,9.11585 -14.6904,13.55902 -15.5857,13.94394 -17.974,15.56279 -34.2933,28.83138 -39.9977,31.92764 -80.5779,63.11786 -120.5143,95.12358 -25.8849,20.0301 -48.14,44.12314 -70.5306,67.85502 -10.3485,12.19599 -24.5133,19.14398 -38.5277,26.14543 -22.4107,10.71952 -37.5455,28.14222 -50.8169,48.51194 -10.6386,18.02491 -16.0837,38.22911 -22.0702,58.09271 -9.75554,28.3746 -19.22326,56.8499 -28.911,85.2492 -10.9346,30.6452 -19.77356,62.0432 -31.32169,92.4625 -9.23129,21.7474 -17.69626,43.8271 -26.98033,65.5514 -7.73512,19.3289 -17.26801,37.8292 -26.96107,56.228 -8.52877,15.7565 -17.77474,31.1009 -26.62343,46.6754 -10.81646,17.7984 -19.28842,36.8479 -29.05305,55.2029 -7.42948,13.3558 -13.28587,27.3888 -17.67388,42.0098 -5.44594,23.0405 -0.69344,48.0503 17.46438,64.625 12.46912,11.3819 19.55774,12.8452 33.98666,18.4276 33.25024,10.3427 68.05697,13.8825 102.57554,17.1238 45.25297,4.7443 90.62407,8.1588 135.94387,12.1728 19.9965,2.3895 40.2879,3.7203 59.8564,8.7742 10.3276,2.6672 23.0136,6.8289 33.0161,9.9782 28.8815,10.8038 58.5489,19.6838 86.5828,32.6019 16.2812,7.9077 33.0729,14.7879 49.2511,22.9054 1.7564,0.8576 3.4931,1.7571 5.2694,2.5729 1.2182,0.5595 -2.8362,-0.6982 -3.5946,-1.8037 -7.6064,-11.0877 -22.5377,-20.9457 -21.19,-34.324 9.9417,-17.13 19.8834,-34.2601 29.825,-51.3902 1.8058,-0.6342 4.3115,-0.3406 5.4172,-1.9027 0.7929,-1.1202 -2.7445,0.044 -4.1168,0.066 -35.0775,0.6625 -70.1695,0.3936 -105.2521,0.3657 -20.9494,-0.1483 -41.9865,0.4589 -62.8695,-1.6935 -16.9061,-1.7425 -33.6679,-5.1263 -50.2763,-8.6256 -25.7948,-4.2295 -49.6791,-14.9168 -73.0304,-26.2081 -13.0701,-6.4011 -7.4476,-3.7659 -20.7539,-9.8059 -2.3333,-1.0592 -8.9402,-4.8447 -7.0066,-3.163 3.7852,3.2921 13.2253,3.1132 12.6838,8.1006 -13.6642,125.8508 -29.5601,53.6313 -21.7397,87.7459 60.858,15.3606 119.4793,38.2049 180.0628,54.6162 50.0357,13.5541 67.0447,16.1926 117.3493,26.4202 62.3316,11.3103 125.4084,19.3174 188.7386,21.9018 23.1703,0.9455 33.4434,0.6608 55.7641,0.5389 25.5811,-0.3926 51.1067,-2.1769 76.6697,-3.0641 23.889,-0.6646 47.788,-0.2617 71.6732,-1.0125 35.6647,-1.3606 71.2984,-1.7834 106.8946,-4.5386 31.0314,-2.6731 62.1404,-3.9826 93.2733,-4.5444 45.0648,-0.528 90.1342,-0.4512 135.2014,-0.4511 41.1513,0.031 82.2909,0.412 123.4241,-0.9241 26.5459,-1.099 53.1022,-1.7697 79.6676,-2.1195 20.2885,-1.0618 40.5704,-2.3379 60.8149,-4.0642 12.6564,-2.0472 25.7236,-1.0492 38.3803,-2.9333 6.4843,-0.9652 12.892,-2.3889 19.338,-3.5833 31.3497,-8.3755 62.4864,-17.6692 93.3857,-27.594 19.3946,-5.298 39.6157,-6.9448 59.4893,-9.7529 25.8582,-2.8394 51.8331,-4.2828 77.7098,-6.9917 19.2166,-1.7384 38.4767,-3.0469 57.4988,-6.4587 12.6497,-2.2689 19.6093,-4.1407 31.9598,-7.1296 27.5667,-6.0258 54.0049,-15.329 79.8949,-26.3984 26.225,-8.9448 51.8626,-19.4908 77.8952,-28.9363 26.1432,-8.7792 51.4802,-19.922 76.122,-32.2704 19.2068,-10.8335 36.1222,-25.3074 53.2082,-39.1609 11.2829,-11.0714 23.3476,-21.195 33.6717,-33.1855 13.0415,-15.4926 20.7449,-34.1639 28.0611,-52.7996 5.3346,-15.0195 9.6481,-30.3568 14.2976,-45.5908 -8.9122,24.7023 -37.6243,29.3933 -63.9768,21.7969 -23.1754,-6.6806 -23.0918,-38.1745 -22.5742,-20.0374 1.7414,12.708 0.7829,25.6949 2.3291,38.4062 0.3863,3.1747 -1.687,9.6082 1.5084,9.4749 33.1771,-1.3832 65.7854,-9.1012 98.6782,-13.6519 0.391,-19.56 0.1026,-39.0917 -0.9634,-58.6233 -1.7481,-14.0827 -2.3582,-28.4124 -5.0868,-42.3679 -2.6356,-13.4792 -4.2617,-17.929 -8.0661,-30.8211 -8.7239,-30.0261 -25.2532,-56.5441 -41.6735,-82.8308 -17.9626,-28.5929 -34.5921,-57.9676 -52.2512,-86.75 -14.1068,-24.3199 -32.8367,-45.4768 -47.9473,-69.1066 -6.7283,-10.522 -7.4155,-12.3517 -12.9508,-22.9267 -12.4307,-23.6122 -23.0349,-48.089 -33.4698,-72.62791 -7.3959,-16.04563 -12.9135,-32.84598 -16.564,-50.11624 -3.52,-17.99621 -5.202,-36.98057 -13.0342,-53.82911 -2.2185,-4.77205 -5.0683,-9.22416 -7.6025,-13.83628 -10.1415,-13.99428 -22.2327,-23.22626 -38.8263,-28.62497 -5.008,-1.62936 -10.2542,-3.16051 -15.517,-2.97268 -29.8797,1.06638 -31.7024,4.28392 -56.9132,14.99182 -7.8819,4.33409 -15.8279,8.55382 -23.6458,13.00229 -26.8711,15.28974 -19.322,12.20266 -46.4077,26.35004 -24.2046,12.6425 -49.1855,23.69214 -73.9581,35.15209 -8.4571,4.21957 -16.8944,8.47889 -25.3712,12.65875 -18.6894,9.21557 -34.4895,17.01337 -53.621,25.25633 -26.4661,11.40312 -53.6368,21.2018 -80.6541,31.18946 -54.0442,20.44841 -110.0652,34.41171 -165.944,48.70221 -41.3626,10.7848 -82.5493,22.3132 -124.3556,31.3027 -19.746,4.246 -47.3333,9.4187 -67.1211,13.2125 -59.1489,10.3881 -119.0377,15.7836 -178.922,19.6653 -52.4231,2.7074 -104.9527,2.2801 -157.4289,2.3282 -66.6533,0.5733 -133.2954,2.4138 -199.9533,2.1593 -32.8481,-0.3134 -65.9775,-1.5126 -98.5188,-6.4265 -17.6742,-2.669 -22.7236,-4.4731 -40.4605,-9.0284 -39.2494,-11.8271 -77.8158,-25.7354 -116.9731,-37.8506 -26.3417,-8.7057 -53.501,-16.4698 -77.9031,-29.9221 -9.4459,-5.739 -10.6618,-6.2091 -19.3159,-12.4482 -25.7803,-18.5862 -16.7347,-32.61668 -54.6454,80.6417 -2.158,6.447 12.3137,5.7667 18.4705,8.65 29.5403,11.1786 53.2763,20.9938 84.5935,28.7309 25.3035,6.2513 50.9212,11.2149 76.5728,15.8342 28.6993,5.1682 57.4506,10.2863 86.4317,13.5198 77.4438,8.6406 146.6013,9.4559 224.632,12.1676 187.2757,1.759 374.4142,9.8215 561.3787,20.336 50.2605,2.893 100.5234,5.8168 150.8639,6.7631 38.0404,-1.8689 74.4735,-13.5072 110.492,-24.9528 22.0508,-6.2891 44.3708,-11.1265 66.1514,-18.3407 27.3287,-11.2172 68.4906,-22.9825 69.0866,-61.6604 0.2544,-16.5066 -13.2003,-30.2636 -19.8004,-45.3954 -53.8367,-45.84343 -118.6689,30.2932 -64.8323,76.1365 v 0 c -4.9411,-13.7191 -15.9401,-26.6184 -14.8233,-41.1573 0.9865,-12.8416 13.3123,-22.0643 20.5009,-32.7508 0.3698,-0.5498 2.4762,-0.9004 1.9072,-0.5609 -3.9099,2.3334 -11.7434,5.514 -15.4251,7.0734 -2.7878,1.1808 -5.5887,2.3304 -8.383,3.4956 -21.2115,7.2252 -43.2911,11.1114 -64.6676,17.8563 -25.7072,8.1695 -51.5121,16.6383 -78.3431,20.2738 -49.0897,-0.9064 -98.1008,-3.8295 -147.1129,-6.6227 -187.6887,-10.5527 -375.552,-18.6655 -563.5529,-20.4345 -69.1574,-2.3569 -143.5747,-3.4523 -212.6782,-11.0348 -27.4553,-3.0126 -54.6753,-7.9349 -81.8808,-12.7026 -22.4346,-3.9316 -44.8656,-8.0397 -67.005,-13.3893 -25.4532,-6.1502 -47.489,-14.847 -71.7098,-23.7529 -46.0536,-21.54886 -21.811,-17.10719 -79.1776,70.6352 -1.577,2.412 4.2547,3.8947 6.5093,5.6896 12.304,9.795 25.6459,18.2354 39.3217,25.9616 5.7617,2.9414 11.4155,6.1045 17.2852,8.8241 24.934,11.5525 51.4782,19.5112 77.5168,28.0727 40.8678,12.6297 81.0528,27.3548 122.1383,39.2972 9.2505,2.2865 18.4332,4.8669 27.7514,6.8595 44.3221,9.4778 90.1101,10.834 135.2435,11.6114 66.8093,0.2286 133.6025,-1.5335 200.4068,-2.1586 54.6101,-0.051 109.2761,0.3726 163.8273,-2.5391 64.025,-4.1777 128.0483,-10.013 191.2688,-21.2446 22.009,-4.2232 48.7178,-9.2192 70.5887,-13.9415 42.6275,-9.2041 84.6542,-20.8634 126.8277,-31.9016 59.2335,-15.1489 118.57,-30.1259 175.8566,-51.7937 29.3013,-10.8427 58.7039,-21.5557 87.3929,-33.9651 20.0719,-8.6821 37.3403,-17.1638 56.9107,-26.8267 7.5683,-3.7369 15.0924,-7.5627 22.6387,-11.344 26.8403,-12.41658 53.8396,-24.47317 80.0397,-38.22113 23.9651,-12.5753 24.9264,-13.84128 47.0836,-26.72411 5.3838,-3.1301 10.8186,-6.17109 16.2277,-9.2566 3.057,-1.62243 8.3624,-1.50217 9.1713,-4.8673 0.6067,-2.52402 -5.0298,-1.30826 -7.483,-2.15699 -6.972,-2.41197 -12.8061,-7.83122 -16.3695,-14.13333 -0.3664,-1.17086 -1.1332,-2.28616 -1.0996,-3.51256 0.024,-0.84944 0.8496,1.48252 1.1332,2.28354 0.6514,1.8396 1.1973,3.71833 1.6629,5.61346 2.5511,10.37941 3.7172,21.0281 5.8915,31.48263 5.235,23.24913 12.224,46.06939 22.2075,67.76569 11.5748,27.1929 23.4003,54.2903 37.2036,80.4459 8.0833,15.028 9.0202,17.4703 18.4976,32.1246 14.4076,22.2774 31.7981,42.4561 45.4533,65.2448 17.8086,29.0137 34.5432,58.6471 52.687,87.4533 11.7099,18.7174 24.2747,37.2171 30.6861,58.5587 1.1917,3.8753 4.0756,12.8546 4.9996,17.2126 2.2807,10.7565 2.4889,21.8721 4.087,32.7299 0.9223,16.6435 1.1599,33.2776 0.8633,49.9483 154.6823,-10.5529 89.5443,-38.9937 99.5672,1.1152 0.3686,1.4741 -0.209,-3.0315 -0.2894,-4.5487 -0.7133,-13.4153 -1.2124,-26.8488 -2.6422,-40.2157 -3.1326,-20.5642 -4.0772,-43.955 -28.8681,-55.2137 -35.6555,-16.1928 -53.0069,-3.4191 -70.938,18.4832 -3.6359,4.4412 -6.4235,12.8875 -8.4913,18.3925 -3.9031,12.7953 -7.5726,25.6558 -11.7837,38.3566 -3.2885,8.453 -6.1304,17.2966 -11.3922,24.7729 -0.5582,0.7103 -1.2184,1.351 -1.6745,2.1307 -0.062,0.1065 0.4056,0.1121 0.3146,0.1951 -6.3558,5.7867 -13.3414,10.9729 -18.8532,17.6504 -11.5781,9.401 -23.1325,19.0063 -35.3073,27.5661 -21.0439,10.7713 -42.9474,20.0364 -65.3418,27.5959 -27.7172,10.1858 -55.1741,21.0896 -83.0119,30.9675 -20.7727,8.9579 -41.9354,16.4297 -64.1318,21.1355 -7.0594,1.7354 -16.2259,4.1065 -23.4471,5.4426 -17.4572,3.23 -35.1654,4.1307 -52.8013,5.8515 -27.055,2.8652 -54.239,4.1591 -81.2499,7.4283 -25.4877,3.6104 -51.3858,5.8925 -76.0706,13.5601 -27.4981,8.8373 -55.2271,16.9843 -83.01,24.865 -2.2741,0.6053 -4.5019,1.4241 -6.8223,1.8159 -12.865,2.1721 -26.3139,0.7547 -39.198,2.9997 -17.8536,1.5294 -35.7374,2.6012 -53.6206,3.7099 -27.2117,0.3605 -54.4146,1.04 -81.6065,2.1638 -40.046,1.3116 -80.1002,0.8707 -120.1642,0.871 -45.6779,-10e-5 -91.3582,-0.079 -137.0337,0.4679 -33.114,0.6152 -66.2042,1.9948 -99.2113,4.8299 -10.0869,0.7921 -22.7586,1.883 -32.8209,2.2727 -23.1899,0.898 -46.4322,0.5635 -69.6059,2.0182 -23.942,0.84 -47.9115,0.2012 -71.8578,1.0187 -24.608,0.8627 -49.1812,2.5246 -73.8033,3.0052 -19.8613,0.1398 -29.0549,0.4052 -49.6668,-0.3908 -58.5027,-2.2591 -116.7711,-9.7305 -174.3605,-20.0609 -45.4767,-9.1772 -63.6284,-12.0869 -108.7277,-24.2708 -62.9007,-16.993 -123.6858,-41.014 -187.0202,-56.4136 -13.1382,-1.6297 -30.6657,-14.8251 -39.4147,-4.8891 -55.67749,63.2311 -50.61027,74.0367 -14.19249,97.8434 7.14516,4.6709 18.73329,6.7725 25.57299,11.9495 30.7012,14.6949 62.2397,28.1523 95.9941,33.9875 21.2665,4.3794 42.5884,8.4204 64.2317,10.5161 22.9972,2.2267 46.1362,1.8183 69.2022,1.8993 36.8886,0.029 73.7916,0.3752 110.6716,-0.5084 4.5982,-0.3053 24.9044,-1.0992 27.5609,-4.0506 14.2877,-15.8742 32.1511,-32.303 35.3852,-53.4138 3.4976,-22.8314 -19.3614,-37.351 -35.7262,-45.3271 -17.1574,-8.3571 -34.6515,-16.0104 -51.906,-24.1644 -31.8955,-14.452 -65.2645,-25.1894 -98.1829,-37.0472 -14.7858,-4.6184 -26.8879,-8.6561 -41.9488,-12.3316 -23.624,-5.7652 -47.9041,-7.9805 -72.0169,-10.6103 -45.1742,-4.0004 -90.3993,-7.4024 -135.5065,-12.1331 -26.25719,-2.4138 -52.72272,-4.9222 -78.26774,-11.7514 -1.03489,-0.2133 -3.69647,-1.5154 -3.10468,-0.64 1.80208,2.6656 5.05876,4.0535 7.09602,6.544 7.34891,8.9839 10.99262,21.7965 7.05713,33.0124 2.05322,-8.1907 6.16434,-15.6048 10.02112,-23.058 9.21874,-17.5269 17.4117,-35.5979 27.62586,-52.5968 9.34053,-16.5081 19.17255,-32.7352 28.14198,-49.4549 10.9419,-20.8335 21.67841,-41.7967 30.48161,-63.6458 9.7702,-23.0683 18.8987,-46.4131 28.5695,-69.5224 11.7172,-31.451 21.2987,-63.6508 32.3527,-95.3405 10.0753,-29.5421 19.9672,-59.1462 30.0175,-88.696 3.343,-11.1086 6.2187,-22.6244 10.71,-33.2818 3.8214,-6.4961 -1.0509,1.6077 4.2388,-6.4418 0.3115,-0.4741 0.703,-0.9453 0.7944,-1.5052 0.032,-0.1954 -0.6134,-0.17 -0.4948,-0.3285 1.192,-1.5937 5.6955,-3.8968 6.6621,-4.4675 24.436,-12.2601 48.1034,-26.2418 66.4898,-46.93745 19.2125,-20.36541 38.1197,-41.26241 60.3361,-58.45085 40.1449,-32.18381 80.9651,-63.5127 121.1538,-95.64053 21.0664,-17.21053 42.3767,-34.42573 61.1724,-54.18116 24.6258,-25.88318 45.0473,-55.49913 66.8544,-83.66212 22.5507,-31.28918 33.9338,-46.53362 55.5499,-78.7895 4.0431,-6.03333 37.4423,-57.8035 43.7651,-67.58094 3.0535,-4.72191 13.8962,-11.10213 9.1748,-14.1565 -6.3575,-4.11287 -14.6238,3.93409 -21.9357,5.90113 -31.4836,-12.24145 1.4928,0.72459 1.7935,-100.15786 0,-0.63185 -1.2633,-0.0329 -1.8951,-0.0417 -5.1577,-0.0722 -10.3164,-0.0569 -15.4744,-0.0803 -21.1343,0.0236 -42.2858,0.29207 -63.3637,1.99157 -30.3433,2.9564 -60.4373,8.08636 -88.9833,19.23825 -24.337,8.57404 -48.4295,17.79013 -69.6293,32.8762 -24.9701,16.89089 -49.6468,34.36771 -73.1779,53.21363 -29.8991,24.22221 -56.7085,49.68021 -81.1557,79.50899 -20.3352,23.95294 -40.6588,47.97517 -59.1886,73.37068 -19.8693,27.38352 -39.3406,54.56973 -42.7857,89.30983 0.025,17.63901 1.9117,35.03446 5.9995,52.22944 4.6695,21.92555 10.0443,43.74875 19.1898,64.31994 10.6776,24.74934 23.0481,49.01261 43.0305,67.68272 4.9865,4.56406 9.7996,9.3232 14.9377,13.71571 11.6294,9.94162 24.5674,18.20422 37.8992,25.64822 23.4071,12.2544 47.0496,24.0796 70.8299,35.583 15.267,6.965 30.2751,14.4902 45.6376,21.2451 18.9173,8.318 16.809,7.0962 35.3942,14.1513 5.6671,2.1513 11.318,4.3453 16.9769,6.5179 34.4392,12.6945 69.2811,24.095 105.888,28.6637 13.3901,1.9844 24.65,3.8363 38.1407,5.0996 20.6017,1.9293 41.2221,1.3802 61.882,1.3113 35.3941,-0.3101 70.7913,-1.2558 106.0751,-4.2617 58.206,-5.0357 116.1813,-12.0555 174.1102,-19.6135 43.5372,-4.2271 87.254,-7.5554 130.2817,-15.7603 50.0442,-8.957 100.5629,-14.817 150.6968,-23.2268 29.2079,-4.8081 58.3938,-9.6348 87.7005,-13.8117 19.0842,-2.7199 38.247,-4.882 57.3101,-7.746 9.8464,-1.4793 19.637,-3.3082 29.4555,-4.9623 28.2547,-5.6235 34.1687,-6.3201 62.121,-13.8269 35.9275,-9.6486 71.0559,-22.0535 106.4613,-33.39265 42.7213,-13.83882 85.5767,-27.20792 128.2872,-41.05505 12.7491,-5.21512 20.9228,-8.22597 33.3465,-14.79246 19.3341,-10.219 36.631,-23.78538 53.9342,-37.01436 7.5171,-5.93264 17.4252,-13.49698 24.2351,-20.03155 13.7662,-13.21009 23.7921,-29.72623 31.8412,-46.86408 1.9439,-5.55403 4.3077,-10.97849 5.8317,-16.66211 5.5856,-20.8298 3.7984,-42.26531 -1.2374,-62.94972 -2.6101,-9.97826 -3.3547,-14.41794 -7.6634,-24.0507 -6.467,-14.4579 -16.1158,-26.71916 -26.5285,-38.49733 -12.3803,-12.88383 -25.4748,-25.11168 -36.413,-39.30827 -14.6264,-16.91817 -30.3445,-32.70501 -47.2117,-47.40579 -16.5376,-14.6535 -33.5135,-29.03038 -51.6481,-41.65354 -14.3155,-9.08008 -29.3167,-16.77014 -45.4466,-22.14634 -20.0925,-5.97633 -40.1486,-12.15893 -60.5875,-16.87552 -26.1905,-5.97787 -52.2879,-12.35533 -78.4713,-18.36643 -23.7631,-4.4346 -47.8544,-7.00135 -71.4105,-12.61213 -35.9734,-7.3973 -71.5187,-16.42977 -106.7212,-26.93852 -33.2771,-8.95644 -66.4282,-19.12131 -100.9482,-22.07416 -39.3378,-4.49377 -78.8446,-7.30155 -118.4676,-6.21419 -33.056,-0.007 -66.112,-0.013 -99.168,-0.0502 -18.3755,-0.0164 -36.7528,-0.0773 -55.1261,0.26474 -39.6502,0.82929 -79.2827,2.37382 -118.894,4.30086 -49.1864,2.58471 -98.3911,6.07271 -147.674,5.41316 -70.7107,0 -70.7107,100.00001 0,100.00001 z" /><path
       style="fill:#999999;stroke-width:668.132;paint-order:markers stroke fill"
       d="m 6689.7722,1763.2267 c -395.6945,7.9959 -797.8487,38.8957 -1175.3713,165.4109 -462.0935,160.2236 -883.1538,471.2128 -1127.6976,899.7205 -57.5054,124.9863 -87.7764,264.515 -86.9382,402.0806 10.0564,155.3927 126.6821,277.5566 234.2464,378.8442 195.7207,177.1488 462.1404,239.3773 712.89,294.3401 276.798,45.9322 553.2791,98.5153 832.8141,124.6341 505.7391,40.3828 1014.1486,22.2851 1520.1989,-2.993 486.13,-26.81 978.8605,-86.1521 1432.6385,-272.402 282.8567,-113.6963 571.6476,-217.48 839.5449,-364.2132 152.2631,-95.3467 319.8521,-183.5671 419.8531,-339.083 55.529,-67.3999 89.303,-162.7978 46.81,-245.739 -54.253,-117.9892 -165.534,-196.8762 -256.931,-284.7762 -194.9908,-163.0756 -394.2762,-328.9367 -625.9341,-437.4361 -210.701,-97.3099 -446.2149,-96.5565 -673.1341,-108.8819 -255.9108,-13.911 -515.4344,8.2429 -766.9627,-52.262 -248.3356,-44.7649 -492.2285,-119.4796 -746.2897,-125.5727 -193.2755,-11.6395 -385.7325,-35.8527 -579.7372,-31.6713 z"
       id="path5143"
       transform="scale(0.26458333)" /><path
       style="fill:#999999;stroke-width:668.132;paint-order:markers stroke fill"
       d="m 10536.029,3357.9804 c -141.907,175.3612 -346.34,283.0455 -536.6786,397.1057 -300.3451,151.8503 -615.8482,271.6088 -930.0154,391.4323 -238.2577,95.0935 -489.5236,147.757 -741.7951,189.5987 -345.4055,57.4513 -696.5701,69.9543 -1045.7957,87.0746 -454.7132,11.4674 -911.1655,14.7276 -1364.5587,-25.1981 -299.9625,-49.5943 -603.1725,-84.4348 -899.4722,-153.4194 -254.4497,-68.7289 -517.5007,-151.2003 -715.9801,-332.9755 -76.7259,-60.8165 -138.5456,-138.379 -206.3489,-207.3673 -21.7586,9.3112 -14.5805,52.4273 -25.9225,72.9177 -52.9798,229.5166 -123.722,455.8034 -235.4446,664.1237 -102.0385,199.8451 -153.188,420.5239 -256.5924,619.8603 -87.1143,195.7251 -199.1893,379.4888 -337.5141,543.2264 -33.578,47.7495 -84.8961,84.9184 -111.7055,136.1702 57.3455,64.4445 143.9757,96.5282 217.9583,138.916 174.3149,89.6411 365.2924,138.7491 548.4964,206.3778 328.753,106.1835 677.1356,119.293 1015.6581,177.5268 532.6116,67.7503 1070.9596,48.8465 1606.358,70.9953 557.6322,22.1506 1115.8703,13.5365 1673.8158,15.7462 301.6757,4.0843 602.886,-19.1937 900.7911,-66.3763 466.1352,-69.1731 930.7441,-154.6246 1387.1001,-272.7103 184.128,-57.4035 379.797,-77.4133 557.953,-153.0089 124.379,-60.8634 243.602,-142.0737 315.697,-263.4754 54.663,-90.201 132.262,-170.6449 164.175,-272.5756 -0.112,-155.9962 -104.158,-285.653 -178.846,-414.7147 -183.83,-317.2484 -336.032,-651.5998 -474.026,-990.8411 -76.458,-164.8438 -156.375,-328.0865 -225.315,-496.1748 -19.014,-37.6715 -40.698,-76.0487 -63.978,-109.8639 -12.671,15.8765 -25.343,31.753 -38.014,47.6296 z"
       id="path5145"
       transform="scale(0.26458333)" /><path
       style="fill:#000000;stroke-width:400;paint-order:markers stroke fill"
       id="path4991"
       d="m 1008.0226,886.97743 c -19.83612,42.572 -29.12412,89.0839 -40.65812,134.37777 -1.92,7.002 -3.766,14.028 -5.77,21.006 -4.9221,17.1539 -6.0901,21.6199 -12.7601,37.5359 -7.212,17.208 -16.148,33.642 -24.574,50.2679 -18.6721,33.884 -30.0621,70.8159 -42.9862,107.0578 -11.366,32.27 -27.074,62.7219 -42.0941,93.3819 -11.48,25.9439 -28.0181,47.5179 -44.8601,70.0439 -11.522,16.3979 -24.9541,31.1219 -38.8061,45.5199 -12.604,13.888 -26.6761,29.222 -32.4461,47.5839 -2,6.354 -2.832,13.014 -4.248,19.522 1.08,8.566 1.32,17.282 3.256,25.6999 1.2,5.288 3.636,10.252 6.074,15.1 10.7701,21.414 28.4081,36.974 46.4501,52.0739 26.7681,21.166 57.2602,36.596 88.0623,50.8959 24.2621,11.578 50.1741,19.07 75.7542,27.102 24.2521,9.268 48.5981,18.208 73.34222,26.078 27.3421,7.8039 55.0521,14.5159 83.0242,19.6359 25.3241,4.724 50.9641,7.38 76.4642,10.898 13.0581,2.124 26.3141,2.612 39.4321,4.16 11.3281,1.34 22.6841,4.09 33.9021,6.05 28.7661,4.908 57.6482,8.8 86.7422,11.04 24.4021,2.35 48.8522,4.094 73.2742,6.216 30.6441,2.73 61.4242,3.19 92.1663,3.584 29.9361,0.3 59.8722,0.28 89.8082,0.26 26.9581,1.08 53.8862,2.596 80.8562,3.33 30.8061,0 61.5522,1.0199 92.3143,2.5859 27.7881,1.44 55.6101,1.92 83.4302,2.184 30.0561,0.2 60.1122,0.2 90.1663,0.2 36.1481,0 72.2962,0 108.4443,0 30.702,0 61.4021,0 92.1042,0 28.2821,0 56.5662,0 84.8482,0 26.1281,0.88 52.0862,-0.78 78.0722,-3.282 34.6301,-2.6059 68.9862,-7.4379 103.3503,-12.3139 37.9541,-5.028 75.9122,-9.952 113.6823,-16.224 43.5821,-8.832 87.5403,-15.938 130.9224,-25.724 29.2461,-7.6299 59.1061,-12.4859 88.7022,-18.5099 34.2041,-7.35 67.5562,-18.05 101.3323,-27.092 29.3141,-6.094 58.4541,-12.9 87.5682,-19.862 31.0021,-8.7779 59.1142,-25.5939 86.3203,-42.4779 20.708,-12.83 38.6901,-29.0559 55.3101,-46.7179 12.67,-15.76 23.9121,-32.6899 35.0921,-49.5419 8.558,-12.274 16.65,-24.858 24.9001,-37.34 11.33,-14.2779 17.844,-30.6159 21.704,-48.2579 4.47,-23.7839 1.2,-47.3759 -3.4,-70.8259 -5.632,-24.6399 -16.172,-47.4119 -28.0361,-69.5618 -7.638,-13.998 -17.09,-26.844 -25.48,-40.382 -7.7461,-11.918 -14.1141,-24.5939 -20.2481,-37.3939 -6.78,-13.294 -15.592,-25.354 -22.042,-38.822 -8.9361,-21.1999 -19.9481,-41.4219 -29.5741,-62.2978 -8.634,-18.158 -17.1821,-36.364 -24.9201,-54.924 -7.174,-20.5879 -15.47,-40.7159 -23.9041,-60.81387 -10.002,-22.1319 -20.342,-44.0339 -32.192,-65.2338 -7.5321,-13.334 -12.5681,-27.808 -18.0261,-42.064 -8.222,-25.5539 -22.3461,-48.6079 -36.6001,-71.1559 -6.964,-11.8179 -11.184,-24.8999 -16.078,-37.6459 -4.902,-13.194 -10.8961,-25.956 -17.1941,-38.5299 -31.8941,-63.1099 -121.1443,-18.004 -89.2502,45.1039 v 0 c 4.88,9.51 9.354,19.26 13.09,29.2759 7.252,18.882 14.0181,38.052 24.9141,55.244 10.734,16.9699 21.896,34.0699 27.7281,53.4639 7.176,18.7419 14.188,37.5979 24.128,55.1039 10.022,17.9259 18.7181,36.44787 27.2681,55.12587 8.42,20.0699 16.596,40.1879 23.8621,60.7119 8.26,19.6999 17.224,39.0919 26.434,58.3639 10.0201,21.5579 21.2241,42.5519 30.5881,64.4219 6.548,13.12 14.0241,25.6399 21.6981,38.1159 7.722,15.936 15.736,31.738 25.33,46.6459 7.2941,11.76 15.3301,23.01 22.3361,34.936 7.184,13.388 14.08,26.8339 18.048,41.6079 2.1721,10.988 5.0061,21.486 3.2961,32.77 4.064,-3.152 -6.9841,12.8299 -6.9461,11.9419 -8.206,12.45 -16.288,24.978 -24.816,37.214 -8.0621,12.208 -16.6001,24.0899 -24.6321,36.3159 -10.664,11.41 -21.9221,22.106 -35.3401,30.316 -11.848,7.4539 -23.8861,14.3979 -36.2861,20.9019 -4.424,2.32 -8.674,5.024 -13.306,6.896 -2.294,0.92 -4.712,1.5 -7.068,2.262 -29.9761,7.19 -60.0202,14.03 -90.1603,20.518 -31.8201,8.534 -63.2622,18.5399 -95.4282,25.6999 -30.3081,6.192 -60.8942,11.148 -90.8463,18.972 -41.4781,9.476 -83.5982,15.994 -125.2563,24.61 -36.9601,6.1999 -74.1342,10.8619 -111.2723,15.8519 -32.9001,4.668 -65.7802,9.342 -98.9403,11.786 -22.79,2.21 -45.5101,3.726 -68.4342,2.816 -28.282,0 -56.5661,0 -84.8482,0 -30.7061,0 -61.4122,0 -92.1162,0 -36.1501,0 -72.3002,0 -108.4503,0 -29.7481,0 -59.4962,0 -89.2423,-0.2 -26.43,-0.24 -52.8621,-0.68 -79.2622,-2.058 -31.5501,-1.6 -63.0902,-2.596 -94.6862,-2.678 -27.8801,-0.74 -55.7122,-2.456 -83.5843,-3.368 -29.504,0 -59.0081,0 -88.5102,-0.26 -28.2781,-0.36 -56.5922,-0.72 -84.7802,-3.216 -24.7861,-2.154 -49.6002,-3.932 -74.3682,-6.306 -25.8781,-1.92 -51.5422,-5.526 -77.1302,-9.8399 -25.5681,-4.442 -51.0542,-8.712 -76.9542,-10.772 -24.1321,-3.28 -48.3822,-5.844 -72.3482,-10.248 -23.7741,-4.146 -47.2262,-10.222 -70.5002,-16.542 -24.8541,-7.832 -49.13422,-17.206 -73.59622,-26.1579 -21.4461,-6.726 -43.2681,-12.804 -63.6422,-22.418 -23.1241,-10.698 -46.2341,-21.876 -66.5922,-37.3979 -15.748,-12.556 0.28,0.54 -14.536,-12.566 -1.94,-1.72 -4.928,-3.448 -4.94,-3.336 -0.44,3.9 -0.32,7.838 -0.5,11.758 -0.96,2.556 -1.76,5.176 -2.876,7.668 0,0.2 -0.6,0.2 -0.54,0 2.676,-6.538 8.114,-11.94 12.844,-16.924 16.714,-17.38 32.7981,-35.286 46.8241,-54.9639 20.3781,-27.258 40.4901,-54.7379 54.5742,-85.9299 16.688,-34.0739 33.9581,-67.9899 46.5141,-103.8798 11.436,-32.262 21.336,-65.2119 37.96412,-95.3518 10.032,-19.798 20.498,-39.4 28.8661,-59.9879 7.884,-19.4 10.056,-26.816 15.706,-46.568 2.166,-7.57 4.16,-15.1879 6.238,-22.7819 5.842,-22.95 11.4241,-45.956 17.6821,-68.79787 1.82,-6.634 3.562,-13.292 5.59,-19.864 1.58,-5.132 3.954,-10.022 5.242,-15.236 0.2,-0.52 -1.04,0.2 -1.56,0.32 39.2221,-58.8339 -43.9821,-114.3038 -83.2062,-55.4699 z" /><path
       style="fill:#000000;stroke-width:400;paint-order:markers stroke fill"
       id="path4987"
       d="m 1670.0184,370.58833 c -35.4361,2.014 -70.6582,6.104 -105.7843,11.082 -35.3561,5.812 -70.5642,12.604 -104.9543,22.7999 -16.5581,4.91 -33.9241,11.11 -50.2721,16.768 -44.0442,14.856 -85.1843,36.2139 -124.5484,60.6779 -37.5441,24.06 -72.3862,52.1479 -105.4283,82.0259 -12.26,12.1699 -25.478,23.5619 -36.7461,36.7119 -11.268,13.152 -21.61,27.402 -32.21,41.1059 -14.7581,20.592 -30.4401,40.854 -41.4702,63.8099 -2.486,5.176 -4.564,10.536 -6.848,15.804 -10.686,27.456 -16.704,56.4939 -21.644,85.4579 -5.3161,27.1019 -4.254,54.3319 0.2,81.4158 6.992,34.992 23.38,61.8299 44.1881,90.2239 12.424,15.726 25.3601,31.24587 40.0801,44.91187 13.41,12.446 28.2061,23.258 42.8461,34.1739 27.9261,20.632 60.6222,32.734 92.7623,45.024 34.712,12.136 70.1061,22.0559 106.2042,29.0299 29.7581,5.312 59.5202,10.53 89.5703,13.898 26.0881,4.53 52.1281,9.29 78.3442,13.024 29.5421,5.176 59.4602,6.86 89.2882,9.372 39.9181,3.738 80.0742,3.804 120.1344,4.304 37.8061,0.2 75.6242,0.94 113.4223,0 29.986,-1.3 59.9701,-2.56 89.9782,-3.204 23.2141,0.28 46.3281,-1.86 69.4882,-3.046 26.0581,-2.268 52.1421,-4.116 78.2102,-6.23 29.5841,-1.32 58.9042,-4.24 88.0382,-9.514 30.9021,-5.254 61.8062,-10.422 92.5383,-16.628 44.4961,-8.208 87.1402,-23.4399 129.6063,-38.6459 51.3362,-19.35 102.2623,-39.8099 152.7944,-61.1679 28.3801,-12.354 57.2022,-23.878 84.5043,-38.55387 12.03,-6.466 21.682,-12.538 33.3421,-19.618 15.936,-9.566 31.4,-19.872 46.9001,-30.116 3.198,-2.114 18.826,-12.2059 21.922,-14.6159 4.9561,-3.858 9.5581,-8.148 14.3341,-12.222 17.908,-16.432 33.4041,-35.23 47.3561,-55.0739 10.174,-12.808 17.7001,-27.258 24.2181,-42.18 8.792,-20.1419 10.858,-41.7059 10.958,-63.4059 -1.76,-27.5819 -10.952,-53.2279 -23.3221,-77.6398 -12.852,-21.244 -29.466,-39.74 -47.7821,-56.3619 -10.426,-9.086 -19.544,-19.61 -29.8101,-28.852 -9.672,-8.706 -14.696,-12.318 -24.962,-20.3039 -28.3601,-21.772 -56.2982,-44.078 -85.0183,-65.3819 -23.824,-16.48 -48.1921,-31.802 -74.1302,-44.724 -23.714,-11.6799 -48.5761,-20.2819 -74.0962,-26.9539 -24.892,-6.31 -50.1781,-10.118 -75.7242,-12.422 -22.264,-1.02 -44.4841,-1.98 -66.7141,-3.57 -19.2621,-1.26 -38.5581,-1.88 -57.8582,-2.178 -16.48,-0.2 -32.9621,-0.2 -49.4421,-0.2 -13.2241,0.58 -26.2441,0 -39.3521,-1.54 -14.8481,-0.6 -29.3261,-3.692 -43.9362,-6.122 -20.162,-4.432 -40.3261,-8.738 -60.6921,-12.132 -20.2401,-4.7399 -40.3581,-9.9939 -60.6282,-14.6239 -17.83,-4.666 -36.2301,-5.064 -54.4241,-6.98 -15.7681,-2.208 -31.6461,-3.098 -47.5442,-3.638 -17.598,-0.88 -35.2621,-1.86 -52.7941,-3.692 -17.364,-2.288 -34.8221,-3.626 -52.3101,-4.47 -13.7361,-0.54 -27.4841,-0.56 -41.2301,-0.56 -13.2961,0 -26.5941,0 -39.8902,0 -13.058,0 -26.116,0 -39.1741,0 -10.87,0 -21.738,0 -32.606,0 -7.5381,0 -3.7721,0 -11.3001,0 -70.7122,0 -70.7122,99.9998 0,99.9998 v 0 c 7.53,0 3.76,0 11.2981,0 10.872,0 21.742,0 32.614,0 13.0821,0 26.1621,0 39.2441,0 13.2421,0 26.4861,0 39.7281,0 12.1821,0 24.3681,0 36.5441,0.46 15.7601,0.74 31.4801,2.016 47.1262,4.088 19.748,1.92 39.5881,3.222 59.4021,4.134 13.7821,0.46 27.5281,1.26 41.1921,3.22 14.0721,1.3 28.2641,1.6 42.0682,4.99 22.186,4.946 44.0801,11.128 66.3381,15.742 20.3661,3.35 40.4521,7.982 60.6642,12.128 16.332,2.704 32.5781,6.0279 49.1541,6.8459 16.8161,1.88 33.6181,2.752 50.5502,2.162 15.946,0 31.8941,0 47.8401,0.2 17.444,0.28 34.8861,0.82 52.3001,1.94 21.6541,1.54 43.3002,2.64 64.9922,3.434 20.0541,1.74 39.8681,4.65 59.4082,9.598 18.92,4.882 37.3301,11.142 54.9121,19.802 20.6941,10.134 39.8481,22.5419 58.9242,35.4299 28.1641,20.856 55.5001,42.778 83.3142,64.0879 5.358,4.134 10.986,7.954 16.016,12.482 11.4761,10.326 21.6501,22.106 33.3681,32.1879 9.5401,8.264 17.5741,17.85 25.5321,27.618 5.576,10.49 9.858,21.218 12.216,32.9319 0.46,7.78 0,15.656 -2.906,22.97 -3.61,8.856 -8.3,17.024 -14.396,24.444 -9.238,13.5899 -19.9581,26.2079 -31.8461,37.5519 -7.228,7.512 -16.46,12.494 -25.1181,18.22 -14.346,9.486 -28.648,19.0419 -43.4041,27.8899 -7.462,4.55 -18.948,11.698 -26.8241,15.978 -25.138,13.656 -51.8741,24.02 -78.0122,35.5279 -48.7861,20.666 -98.0002,40.36 -147.5504,59.12187 -37.9341,13.592 -75.9482,27.484 -115.7143,34.774 -30.1101,6.106 -60.4101,11.08 -90.6862,16.272 -25.8441,4.7779 -51.8902,6.9479 -78.1422,8.2099 -25.0961,2.036 -50.2102,3.778 -75.2862,6.036 -22.1601,1.16 -44.2681,3.232 -66.4822,2.938 -30.2321,0.66 -60.4402,1.9 -90.6482,3.22 -36.4381,1.08 -72.9082,0.2 -109.3563,0 -37.6981,-0.46 -75.4982,-0.44 -113.0663,-3.966 -27.9221,-2.31 -55.9282,-3.846 -83.5783,-8.728 -27.218,-3.8299 -54.1881,-9.1199 -81.3362,-13.4019 -27.4781,-3.012 -54.6581,-7.976 -81.8742,-12.74 -30.3581,-5.684 -60.0002,-14.328 -89.2482,-24.216 -23.5421,-8.984 -47.9262,-17.22387 -68.7162,-31.81187 -10.6301,-7.906 -21.8461,-15.562 -31.6701,-24.486 -11.32,-10.284 -21.1801,-22.1139 -30.7061,-34.0259 -11.04,-14.558 -21.5341,-29.4 -25.8981,-47.4599 -3.016,-15.994 -3.39,-31.848 -0.2,-47.904 3.58,-21.4859 7.87,-43.0819 15.3261,-63.5879 8.036,-21.0479 22.108,-38.8079 35.1401,-56.9579 6.454,-8.3459 13.062,-16.5739 19.472,-24.9539 2.18,-2.85 4.044,-5.946 6.358,-8.688 9.5041,-11.264 20.8601,-20.874 31.2221,-31.296 28.5161,-25.9959 58.7902,-50.2579 91.1923,-71.2578 32.9061,-20.668 67.4021,-38.536 104.3202,-51.008 11.8421,-4.1099 31.7141,-11.1479 43.7682,-14.7599 30.398,-9.104 61.5241,-15.088 92.7882,-20.292 34.1221,-4.864 68.3422,-8.64 102.7583,-10.7 70.2782,-7.808 59.2341,-107.1958 -11.044,-99.3878 z" /></g></svg>
