<?xml version="1.0" encoding="UTF-8" standalone="no"?>
<!-- Created with Inkscape (http://www.inkscape.org/) -->

<svg
   width="3840mm"
   height="2160mm"
   viewBox="0 0 3840 2160"
   version="1.1"
   id="svg5"
   inkscape:version="1.2.2 (732a01da63, 2022-12-09)"
   sodipodi:docname="routeToNextFloor.svg"
   xml:space="preserve"
   inkscape:export-filename="routeToNextFloor.png"
   inkscape:export-xdpi="96.096664"
   inkscape:export-ydpi="96.096664"
   xmlns:inkscape="http://www.inkscape.org/namespaces/inkscape"
   xmlns:sodipodi="http://sodipodi.sourceforge.net/DTD/sodipodi-0.dtd"
   xmlns:xlink="http://www.w3.org/1999/xlink"
   xmlns="http://www.w3.org/2000/svg"
   xmlns:svg="http://www.w3.org/2000/svg"><sodipodi:namedview
     id="namedview7"
     pagecolor="#ffffff"
     bordercolor="#000000"
     borderopacity="0.25"
     inkscape:showpageshadow="2"
     inkscape:pageopacity="0.0"
     inkscape:pagecheckerboard="0"
     inkscape:deskcolor="#d1d1d1"
     inkscape:document-units="mm"
     showgrid="false"
     inkscape:zoom="0.04"
     inkscape:cx="6862.5"
     inkscape:cy="5825"
     inkscape:window-width="1920"
     inkscape:window-height="986"
     inkscape:window-x="-11"
     inkscape:window-y="-11"
     inkscape:window-maximized="1"
     inkscape:current-layer="layer1" /><defs
     id="defs2"><linearGradient
       inkscape:collect="always"
       id="linearGradient3302"><stop
         style="stop-color:#ffb380;stop-opacity:1;"
         offset="0"
         id="stop3298" /><stop
         style="stop-color:#ffb380;stop-opacity:0;"
         offset="1"
         id="stop3300" /></linearGradient><linearGradient
       inkscape:collect="always"
       xlink:href="#linearGradient3302"
       id="linearGradient3304"
       x1="1870.8867"
       y1="795.12683"
       x2="1917.6588"
       y2="1576.222"
       gradientUnits="userSpaceOnUse" /></defs><g
     inkscape:label="Layer 1"
     inkscape:groupmode="layer"
     id="layer1"><rect
       style="fill:#000000;stroke:#000000;stroke-width:206.746;paint-order:markers stroke fill"
       id="rect234"
       width="1293.2539"
       height="1293.254"
       x="1270.6613"
       y="601.92938"
       ry="0" /><g
       id="g15005"><rect
         style="fill:none;stroke:#808080;stroke-width:53.9886;stroke-dasharray:none;paint-order:markers stroke fill"
         id="rect500"
         width="1396.2386"
         height="1396.5929"
         x="1219.3459"
         y="548.19598"
         ry="0" /><rect
         style="fill:#4d4d4d;stroke:none;stroke-width:71.9901;stroke-dasharray:none;paint-order:markers stroke fill"
         id="rect2560"
         width="53.955654"
         height="87.901512"
         x="2588.4951"
         y="610.68225"
         ry="0" /><rect
         style="fill:#4d4d4d;stroke:none;stroke-width:71.9901;stroke-dasharray:none;paint-order:markers stroke fill"
         id="rect2722"
         width="53.955654"
         height="87.901512"
         x="2588.4951"
         y="790.24921"
         ry="0" /><rect
         style="fill:#4d4d4d;stroke:none;stroke-width:71.9901;stroke-dasharray:none;paint-order:markers stroke fill"
         id="rect2726"
         width="53.955654"
         height="87.901512"
         x="2588.4951"
         y="990.45593"
         ry="0" /><rect
         style="fill:#4d4d4d;stroke:none;stroke-width:71.9901;stroke-dasharray:none;paint-order:markers stroke fill"
         id="rect2728"
         width="53.955654"
         height="87.901512"
         x="2588.4951"
         y="1188.3054"
         ry="0" /><rect
         style="fill:#4d4d4d;stroke:none;stroke-width:71.9901;stroke-dasharray:none;paint-order:markers stroke fill"
         id="rect2730"
         width="53.955654"
         height="87.901512"
         x="2588.4951"
         y="1390.0336"
         ry="0" /><rect
         style="fill:#4d4d4d;stroke:none;stroke-width:71.9901;stroke-dasharray:none;paint-order:markers stroke fill"
         id="rect2732"
         width="53.955654"
         height="87.901512"
         x="2588.4951"
         y="1569.6006"
         ry="0" /><rect
         style="fill:#4d4d4d;stroke:none;stroke-width:71.9901;stroke-dasharray:none;paint-order:markers stroke fill"
         id="rect2734"
         width="53.955654"
         height="87.901512"
         x="2588.4951"
         y="1769.8073"
         ry="0" /><rect
         style="fill:#4d4d4d;stroke:none;stroke-width:71.9901;stroke-dasharray:none;paint-order:markers stroke fill"
         id="rect3464"
         width="53.955654"
         height="87.901512"
         x="1192.6727"
         y="610.68201"
         ry="0" /><rect
         style="fill:#4d4d4d;stroke:none;stroke-width:71.9901;stroke-dasharray:none;paint-order:markers stroke fill"
         id="rect3466"
         width="53.955654"
         height="87.901512"
         x="1192.6727"
         y="790.24896"
         ry="0" /><rect
         style="fill:#4d4d4d;stroke:none;stroke-width:71.9901;stroke-dasharray:none;paint-order:markers stroke fill"
         id="rect3468"
         width="53.955654"
         height="87.901512"
         x="1192.6727"
         y="990.45569"
         ry="0" /><rect
         style="fill:#4d4d4d;stroke:none;stroke-width:71.9901;stroke-dasharray:none;paint-order:markers stroke fill"
         id="rect3470"
         width="53.955654"
         height="87.901512"
         x="1192.6727"
         y="1188.3052"
         ry="0" /><rect
         style="fill:#4d4d4d;stroke:none;stroke-width:71.9901;stroke-dasharray:none;paint-order:markers stroke fill"
         id="rect3472"
         width="53.955654"
         height="87.901512"
         x="1192.6727"
         y="1390.0333"
         ry="0" /><rect
         style="fill:#4d4d4d;stroke:none;stroke-width:71.9901;stroke-dasharray:none;paint-order:markers stroke fill"
         id="rect3474"
         width="53.955654"
         height="87.901512"
         x="1192.6727"
         y="1569.6003"
         ry="0" /><rect
         style="fill:#4d4d4d;stroke:none;stroke-width:71.9901;stroke-dasharray:none;paint-order:markers stroke fill"
         id="rect3476"
         width="53.955654"
         height="87.901512"
         x="1192.6727"
         y="1769.807"
         ry="0" /><rect
         style="fill:#4d4d4d;stroke:none;stroke-width:71.9901;stroke-dasharray:none;paint-order:markers stroke fill"
         id="rect4204"
         width="53.955654"
         height="87.901512"
         x="520.84357"
         y="-1372.7346"
         ry="0"
         transform="rotate(90)" /><rect
         style="fill:#4d4d4d;stroke:none;stroke-width:71.9901;stroke-dasharray:none;paint-order:markers stroke fill"
         id="rect4206"
         width="53.955654"
         height="87.901512"
         x="520.84399"
         y="-1576.3292"
         ry="0"
         transform="rotate(90)" /><rect
         style="fill:#4d4d4d;stroke:none;stroke-width:71.9901;stroke-dasharray:none;paint-order:markers stroke fill"
         id="rect4204-8"
         width="53.955654"
         height="87.901512"
         x="520.68408"
         y="-1763.194"
         ry="0"
         transform="rotate(90)" /><rect
         style="fill:#4d4d4d;stroke:none;stroke-width:71.9901;stroke-dasharray:none;paint-order:markers stroke fill"
         id="rect4206-1"
         width="53.955654"
         height="87.901512"
         x="520.68451"
         y="-1966.7886"
         ry="0"
         transform="rotate(90)" /><rect
         style="fill:#4d4d4d;stroke:none;stroke-width:71.9901;stroke-dasharray:none;paint-order:markers stroke fill"
         id="rect4961"
         width="53.955654"
         height="87.901512"
         x="520.84448"
         y="-2153.5454"
         ry="0"
         transform="rotate(90)" /><rect
         style="fill:#4d4d4d;stroke:none;stroke-width:71.9901;stroke-dasharray:none;paint-order:markers stroke fill"
         id="rect4963"
         width="53.955654"
         height="87.901512"
         x="520.84491"
         y="-2357.1401"
         ry="0"
         transform="rotate(90)" /><rect
         style="fill:#4d4d4d;stroke:none;stroke-width:71.9901;stroke-dasharray:none;paint-order:markers stroke fill"
         id="rect4965"
         width="53.955654"
         height="87.901512"
         x="520.685"
         y="-2544.0049"
         ry="0"
         transform="rotate(90)" /><rect
         style="fill:#4d4d4d;stroke:none;stroke-width:71.9901;stroke-dasharray:none;paint-order:markers stroke fill"
         id="rect4969"
         width="53.955654"
         height="87.901512"
         x="1917.8928"
         y="-1372.7345"
         ry="0"
         transform="rotate(90)" /><rect
         style="fill:#4d4d4d;stroke:none;stroke-width:71.9901;stroke-dasharray:none;paint-order:markers stroke fill"
         id="rect4971"
         width="53.955654"
         height="87.901512"
         x="1917.8933"
         y="-1576.3291"
         ry="0"
         transform="rotate(90)" /><rect
         style="fill:#4d4d4d;stroke:none;stroke-width:71.9901;stroke-dasharray:none;paint-order:markers stroke fill"
         id="rect4973"
         width="53.955654"
         height="87.901512"
         x="1917.7334"
         y="-1763.1938"
         ry="0"
         transform="rotate(90)" /><rect
         style="fill:#4d4d4d;stroke:none;stroke-width:71.9901;stroke-dasharray:none;paint-order:markers stroke fill"
         id="rect4975"
         width="53.955654"
         height="87.901512"
         x="1917.7338"
         y="-1966.7885"
         ry="0"
         transform="rotate(90)" /></g><rect
       style="fill:#4d4d4d;stroke:none;stroke-width:71.9901;stroke-dasharray:none;paint-order:markers stroke fill"
       id="rect4977"
       width="53.955654"
       height="87.901512"
       x="1917.8938"
       y="-2153.5452"
       ry="0"
       transform="rotate(90)" /><rect
       style="fill:#4d4d4d;stroke:none;stroke-width:71.9901;stroke-dasharray:none;paint-order:markers stroke fill"
       id="rect4979"
       width="53.955654"
       height="87.901512"
       x="1917.8942"
       y="-2357.1399"
       ry="0"
       transform="rotate(90)" /><rect
       style="fill:#4d4d4d;stroke:none;stroke-width:71.9901;stroke-dasharray:none;paint-order:markers stroke fill"
       id="rect4981"
       width="53.955654"
       height="87.901512"
       x="1917.7343"
       y="-2544.0046"
       ry="0"
       transform="rotate(90)" /><rect
       style="fill:#666666;stroke:#000000;stroke-width:20;stroke-dasharray:none;paint-order:markers stroke fill"
       id="rect7163"
       width="153.97296"
       height="159.81081"
       x="1159.589"
       y="1842.1864"
       ry="39.731758" /><rect
       style="fill:#666666;stroke:#000000;stroke-width:20;stroke-dasharray:none;paint-order:markers stroke fill"
       id="rect7165"
       width="153.97296"
       height="159.81081"
       x="2529.9729"
       y="1842.186"
       ry="39.731758" /><path
       style="fill:url(#linearGradient3304);fill-opacity:1;stroke:none;stroke-width:210.432;paint-order:markers stroke fill"
       d="m 1277.2824,603.96182 v 216.6276 l 340.502,681.30218 126.3152,-3.3073 3.6614,-114.1016 h 333.1793 l -1.8306,107.487 173.9122,-4.9609 324.0261,-676.34125 -3.6612,-213.32031 -276.4291,3.30729 3.6613,152.13542 -765.2141,4.96093 -1.8307,-162.05729 z"
       id="path2189" /><rect
       style="fill:#000000;fill-opacity:1;stroke:none;stroke-width:210.432;paint-order:markers stroke fill"
       id="rect2191"
       width="671.82953"
       height="104.06807"
       x="1590.5426"
       y="919.97882" /><rect
       style="fill:#000000;fill-opacity:1;stroke:none;stroke-width:169.064;paint-order:markers stroke fill"
       id="rect2245"
       width="433.64719"
       height="104.06807"
       x="1703.7377"
       y="1144.3192" /><rect
       style="fill:#666666;stroke:#000000;stroke-width:20;stroke-dasharray:none;paint-order:markers stroke fill"
       id="rect5709"
       width="153.97296"
       height="159.81081"
       x="1159.5891"
       y="484.56201"
       ry="39.731758" /><rect
       style="fill:#666666;stroke:#000000;stroke-width:20;stroke-dasharray:none;paint-order:markers stroke fill"
       id="rect2666"
       width="153.97296"
       height="159.81081"
       x="2529.9729"
       y="484.56201"
       ry="39.731758" /><rect
       style="fill:#000000;fill-opacity:1;stroke:none;stroke-width:225.331;paint-order:markers stroke fill"
       id="rect3306"
       width="770.32886"
       height="104.06807"
       x="1534.3187"
       y="749.75067" /><path
       style="fill:#000000;fill-opacity:1;stroke:none;stroke-width:200;paint-order:markers stroke fill"
       id="path3487"
       d="m 1540.2625,847.01805 c -5.6988,-9.41512 -10.8886,-19.12355 -15.861,-28.93769 -3.8609,-7.61169 -7.8957,-15.16176 -12.6025,-22.29263 -3.0771,-4.66198 -5.1504,-7.29549 -8.4984,-11.77123 -9.1371,-12.00854 -18.5706,-23.78623 -27.7373,-35.77177 -7.9651,-11.14338 -16.6636,-21.72364 -25.0228,-32.56717 -2.9286,-3.93218 -6.215,-7.63643 -8.8805,-11.76464 -0.5989,-0.92763 -2.8604,-5.22658 -2.8743,-5.25251 -6.7117,-12.7775 -13.4338,-25.54968 -20.946,-37.87926 -5.2548,-8.5322 -11.4002,-16.45518 -17.2003,-24.61196 -2.6655,-3.77394 -4.7624,-7.912 -7.3962,-11.70676 -3.4566,-4.68937 -1.7808,-2.34463 -5.0316,-7.03114 -4.1813,-5.7309 -7.0189,-12.22867 -10.4356,-18.39415 -0.5355,-0.88699 -1.0838,-1.76644 -1.6065,-2.661 -0.3798,-0.64984 -0.7682,-1.2963 -1.1006,-1.97154 -0.1668,-0.33893 -0.5396,-1.41115 -0.3932,-1.06291 0.2086,0.4962 0.6329,0.97142 0.58,1.50709 -0.1554,1.57361 -2.308,3.48332 -1.1825,4.59407 1.2723,1.25561 3.56,-0.32729 5.3401,-0.49093 22.2916,-1.15391 44.5333,-3.0438 66.8112,-4.40743 17.5092,-1.01637 35.0477,-1.46527 52.5557,-2.48952 7.2264,-0.25543 14.432,-1.16242 21.6611,-1.35636 2.2535,-0.0605 5.0107,0.0864 7.2592,0.17547 2.3057,0.34729 7.1211,-0.008 9.2495,1.17118 0.1,0.0554 -0.226,0.12631 -0.3323,0.0844 -0.472,-0.18637 -0.8869,-0.49376 -1.3304,-0.74067 -0.067,0.41503 -0.1728,0.82563 -0.202,1.24505 -0.1155,1.65605 -0.1007,3.31994 -0.2316,4.97488 -0.5549,7.02011 -0.9794,8.85775 -1.9297,16.09373 -1.4573,11.09604 -1.2184,9.51426 -2.451,20.93214 -1.8661,23.41959 -0.4075,46.907 0.5367,70.33093 0.7525,16.34009 0.8818,32.69763 1.2532,49.04788 0.6848,12.28651 3.6938,24.20263 6.6675,36.07927 1.595,5.83859 2.0921,11.83606 2.3217,17.85519 0.1288,4.30552 0.1195,8.61325 0.097,12.92008 0.2136,2.20173 -0.1214,4.17449 -0.8117,6.22912 -0.4722,1.48846 -1.0592,3.05757 -2.1422,4.21936 -1.8936,2.03888 -3.6006,4.1887 -5.1681,6.49637 -1.4302,2.26406 -2.5579,4.66749 -3.4108,7.20037 -2.8343,8.74453 9.5323,12.75286 12.3666,4.00836 v 0 c 0.4051,-1.38957 1.1034,-2.6416 1.7987,-3.9052 0.4959,-0.73038 0.9878,-1.71823 1.5757,-2.38271 1.0144,-1.14659 2.2331,-2.12603 3.0854,-3.41796 1.8451,-2.47386 3.3952,-5.13869 4.2365,-8.1343 1.0938,-3.33962 1.6883,-6.7156 1.4697,-10.24424 0.024,-4.49795 0.032,-8.99687 -0.1062,-13.49333 -0.2724,-6.91314 -0.8903,-13.80207 -2.7014,-20.50936 -2.7408,-10.94076 -5.567,-21.90507 -6.2813,-33.21675 -0.3743,-16.42618 -0.5032,-32.85976 -1.2605,-49.27573 -0.9184,-22.78486 -2.3548,-45.63002 -0.601,-68.41339 1.226,-11.37925 0.9535,-9.47478 2.4073,-20.57408 0.7637,-5.8315 1.7255,-11.66582 2.0449,-17.54944 0.1346,-2.47854 0.2998,-4.97663 0.052,-7.44638 -0.1912,-1.90339 -0.9064,-3.71703 -1.3596,-5.57551 -1.0382,-1.27572 -1.8816,-2.73852 -3.1145,-3.82715 -3.2941,-2.90859 -11.1109,-2.83797 -15.2258,-3.17241 -3.1452,-0.11861 -5.3355,-0.24955 -8.5114,-0.16346 -7.2327,0.19603 -14.442,1.09858 -21.672,1.357 -17.5186,1.031 -35.0691,1.46508 -52.5889,2.4915 -22.5302,1.38033 -45.0252,3.2703 -67.5672,4.47593 -7.8585,1.09098 -10.4626,-0.0863 -15.5765,7.91488 -1.6308,2.55156 2.8466,9.23795 4.146,11.42701 2.4724,4.35933 0.1472,0.13068 2.7872,5.41856 2.433,4.87333 5.3176,9.50198 8.316,14.04347 0.8829,1.26897 1.7658,2.53794 2.6487,3.80693 0.7105,0.94944 1.4535,1.8754 2.1314,2.84832 2.7538,3.95219 4.9093,8.2912 7.7303,12.20013 5.6249,7.90638 11.5816,15.58782 16.6954,23.84634 7.4011,12.12114 13.9799,24.70396 20.5942,37.26547 1.199,2.22473 2.3364,4.48218 3.7125,6.60586 2.7689,4.27291 6.1525,8.12593 9.1974,12.1935 8.3505,10.82943 17.0369,21.39768 24.9923,32.52756 9.1409,11.94954 18.543,23.6955 27.6571,35.66575 2.9224,3.89848 5.1856,6.79419 7.865,10.84445 4.5057,6.81072 8.3584,14.02803 12.0459,21.30391 5.0722,10.00681 10.3613,19.90857 16.1698,29.51102 4.5607,7.98121 15.8479,1.5314 11.2872,-6.44983 z" /><path
       style="fill:#000000;fill-opacity:1;stroke:none;stroke-width:2362.2;paint-order:markers stroke fill"
       d="m 5767.157,2252.9236 c -184.8894,6.0029 -370.3599,10.3843 -554.8584,18.4814 19.7308,46.4519 53.016,86.3039 79.3328,129.3603 50.3317,68.3243 94.793,140.6765 133.6172,216.1303 45.7407,84.4883 111.9815,155.2778 168.5027,232.3927 64.9824,83.7077 132.6802,166.6723 178.2112,263.0841 7.2945,8.5785 20.3007,50.7467 24.4023,36.3888 0.845,-108.5366 3.6155,-217.2583 -5.0654,-325.5352 -4.9318,-145.5198 -10.7449,-291.372 -5.2581,-436.8979 1.9748,-44.6159 15.5142,-90.1017 9.2407,-134.2041 -9.375,0.2665 -18.75,0.5331 -28.125,0.7996 z"
       id="path3489"
       transform="scale(0.26458333)" /><path
       style="fill:#000000;fill-opacity:1;stroke:none;stroke-width:200;paint-order:markers stroke fill"
       id="path3491"
       d="m 2307.6535,843.85014 c 3.8668,-6.74145 7.9002,-13.37368 12.1937,-19.851 5.8588,-9.53238 13.1465,-18.05374 20.4675,-26.47495 5.3216,-5.97842 10.6723,-11.92607 16.036,-17.86726 6.8423,-7.44617 13.0577,-15.43447 19.2794,-23.39768 6.0529,-7.55505 12.1529,-15.08356 17.8447,-22.9166 6.1728,-7.89165 12.4586,-15.73482 19.182,-23.16728 1.2624,-1.32255 2.5242,-2.64573 3.7873,-3.96762 4.2217,-4.41825 4.2672,-4.32969 8.3172,-9.10688 3.6104,-4.25849 7.0465,-8.6048 10.8186,-12.72394 5.2172,-5.19052 10.2568,-10.55833 15.4932,-15.72641 6.3638,-6.21411 12.1926,-12.95146 17.9003,-19.76517 5.1348,-6.00154 10.727,-11.57142 15.961,-17.4948 5.317,-5.65923 10.5406,-11.40458 15.4622,-17.41229 3.8884,-5.3667 6.9933,-11.24534 10.101,-17.0843 1.7412,-3.81352 6.3887,-8.70035 5.4682,-13.20546 -0.3776,-1.84759 -1.6526,-3.39021 -2.4789,-5.08529 -1.4004,-0.81865 -2.7072,-1.8243 -4.2014,-2.45594 -1.8497,-0.78193 -5.9912,-1.14512 -7.8344,-1.23436 -6.8252,-0.33049 -13.6806,0.39968 -20.4808,0.86177 -17.1197,1.69759 -34.2974,2.46192 -51.4749,3.25959 -15.7303,0.84783 -31.4481,1.76855 -47.197,2.20292 -15.4876,0.33668 -30.9794,0.40468 -46.4701,0.43706 -12.8019,0.0106 -25.6038,-0.003 -38.4057,-0.007 -4.1757,0.0651 -8.3526,-0.0595 -12.5283,-0.004 -3.5618,0.0473 -6.8392,-0.10655 -10.1625,1.6347 -5.4978,2.88065 -5.5641,4.83526 -8.464,10.05004 -0.6177,2.14508 -1.361,4.25791 -1.853,6.43528 -2.6845,11.87889 -2.4247,25.75128 -2.5831,37.9023 -0.2016,18.65746 0.2653,37.31691 -0.2241,55.96969 -0.5751,16.89714 -1.2614,33.82428 -0.4065,50.72126 0.9705,8.23198 2.3592,17.29338 5.563,25.00665 0.6928,1.66788 1.5587,3.2585 2.338,4.88775 4.7262,7.68974 10.2254,14.82227 14.7991,22.60952 2.825,6.19982 5.8995,12.26859 9.0041,18.33499 2.2668,4.66164 4.4114,9.37889 6.8789,13.93923 1.7173,2.40045 2.1078,5.43718 3.5514,7.95681 0.4146,0.72379 0.9483,1.37258 1.4225,2.05888 5.5867,7.29994 15.9104,-0.60081 10.3237,-7.90075 v 0 c -0.3704,0.29951 -0.5969,-1.14009 -1.0141,-2.2588 -0.5314,-1.42512 -1.1094,-2.67094 -1.7921,-4.03119 -0.3423,-0.6821 -0.7106,-1.35088 -1.0658,-2.02634 -2.4303,-4.46108 -4.484,-9.10772 -6.7324,-13.6612 -3.2211,-6.29187 -6.3579,-12.60867 -9.3693,-19 -4.4077,-7.49104 -9.5413,-14.45974 -14.3176,-21.71168 -0.5985,-1.2006 -1.2622,-2.37085 -1.7953,-3.60185 -1.3769,-3.17926 -1.522,-4.27442 -2.3564,-7.64746 -1.1095,-4.48538 -2.128,-8.99446 -2.4548,-13.62046 -0.862,-16.5612 -0.1163,-33.15637 0.4192,-49.71799 0.4807,-18.70956 0.04,-37.4247 0.2274,-56.13884 0.1668,-12.97696 -0.064,-26.21756 3.1573,-38.88084 0.2114,-0.76017 0.4492,-1.51347 0.6344,-2.28047 0.083,-0.34274 -0.082,-0.79541 0.1681,-1.04431 1.435,-1.43007 4.7249,-0.96676 6.0998,-0.98491 4.1754,-0.0552 8.3521,0.0688 12.5274,0.004 12.8126,0.005 25.6253,0.0172 38.4379,0.007 15.6013,-0.0326 31.2037,-0.10152 46.8019,-0.44198 15.8303,-0.4381 31.6297,-1.35665 47.4411,-2.21197 17.2704,-0.80222 34.5414,-1.57022 51.7539,-3.27554 6.1424,-0.41804 12.323,-1.06596 18.4885,-0.87932 0.9474,0.0287 1.8915,0.12623 2.8363,0.20286 0.4087,0.0331 1.0203,0.48252 1.2237,0.12641 0.2072,-0.36282 -0.4689,-0.69172 -0.7033,-1.03761 -1.1618,-4.92752 -0.9579,-1.40256 -0.081,-4.66566 0.1171,-0.4363 -0.3423,0.83751 -0.551,1.23819 -1.2543,2.40869 -2.8979,4.59402 -4.0464,7.06242 -2.7021,5.0899 -5.4143,10.20133 -8.6838,14.95454 -4.8094,5.8874 -9.9506,11.48628 -15.1428,17.03657 -5.3096,6.01028 -10.9939,11.65223 -16.1871,17.7577 -5.443,6.50708 -11.0059,12.93929 -17.0783,18.87151 -5.3765,5.33776 -10.5978,10.83196 -15.9474,16.19941 -7.7646,8.52754 -14.6207,17.8558 -22.9744,25.855 -7.0137,7.79156 -13.6233,15.96379 -20.0522,24.24131 -5.59,7.71649 -11.6227,15.10363 -17.5669,22.54774 -6.0317,7.72078 -12.0498,15.47262 -18.6851,22.69045 -5.4173,6.00242 -10.8219,12.01068 -16.1977,18.04975 -7.6899,8.84885 -15.3195,17.82087 -21.4929,27.82289 -4.3347,6.54526 -8.4343,13.23168 -12.3242,20.05187 -4.9352,7.75528 6.0324,14.73465 10.9676,6.97939 z" /><path
       style="fill:#000000;fill-opacity:1;stroke:none;stroke-width:9448.82;paint-order:markers stroke fill"
       d="m 8682.7149,2268.7744 c 14.065,266.511 7.4173,536.63 40.4785,800.8301 202.3918,-209.9615 371.9377,-452.2466 577.4282,-660.9837 33.2298,-43.1318 90.8721,-87.0991 110.0962,-132.4245 -241.9782,-14.2107 -486.3454,-7.1963 -728.0029,-7.4219 z"
       id="path3493"
       transform="scale(0.26458333)" /><path
       style="fill:#000000;fill-opacity:1;stroke:none;stroke-width:200;paint-order:markers stroke fill"
       id="path4951"
       d="m 2415.9381,696.39253 c 5.9243,-4.95324 11.3185,-10.49022 16.6588,-16.05531 5.0981,-5.14432 9.3971,-10.92213 13.4825,-16.87439 2.7273,-3.80923 5.7896,-7.35287 8.4461,-11.21161 2.2817,-3.12542 4.6873,-6.15479 6.9966,-9.25891 1.9044,-2.90843 3.9115,-5.7304 6.104,-8.42803 2.4599,-3.12214 4.9738,-6.2134 7.7863,-9.02658 3.0825,-3.07502 6.1008,-6.18466 8.6589,-9.71503 1.9468,-3.01106 4.2658,-5.74423 6.4191,-8.60425 0.9636,-1.02594 1.8015,-2.18791 3.1097,-2.78357 5.745,-3.30184 3.4215,-6.57974 -0.4571,-12.43153 -0.4146,-0.62555 -5.1875,-0.67839 -6.1077,-0.70323 -7.1993,0.39743 -14.2866,1.79522 -21.4209,2.76121 -6.2463,0.68017 -12.4636,1.59584 -18.7012,2.34236 -6.118,0.58986 -12.2625,0.64164 -18.3994,0.43593 -5.4411,-0.18082 -10.8547,-0.78563 -16.2882,-1.10927 -6.1067,-0.0999 -12.1699,-0.85397 -18.2361,-1.50159 -8.5666,-1.0999 -17.1925,-1.57892 -25.8186,-1.88444 -7.4022,-0.22855 -14.8085,-0.23595 -22.2134,-0.24294 -7.6363,0.003 -15.2726,0.01 -22.9089,0.0138 -6.7197,0.0865 -13.4466,-0.15118 -20.1629,0.10887 -3.9175,0.12327 -7.8884,1.13785 -10.7359,4.00916 -0.5567,0.56147 -1.031,1.19914 -1.5465,1.79871 -2.9759,4.9239 -2.6134,10.75516 -2.6897,16.30228 -0.052,12.04553 -0.014,24.09129 0,36.13687 0.1964,11.26056 -0.3038,22.5407 0.2264,33.79301 0.3802,6.81683 1.1919,13.5972 2.4441,20.30563 1.1403,4.03251 1.8142,8.08535 2.0791,12.25793 0.2266,4.72745 0.2477,9.46163 0.2555,14.19355 0.1077,3.61897 -0.2909,7.21974 -0.5038,10.82767 -0.2934,5.38203 -0.3044,10.77368 -0.3342,16.162 -0.02,4.71837 -0.018,9.43681 -0.016,14.15521 0.094,4.92236 1.5284,9.70163 3.0293,14.35359 1.1381,2.97302 2.0029,5.97006 2.4455,9.11934 0.375,1.80507 0.6437,3.62569 0.8556,5.45587 1.0732,9.12952 13.9843,7.61182 12.9112,-1.51771 v 0 c -0.2313,-1.94408 -0.4901,-3.88538 -0.901,-5.80133 -0.5724,-3.8704 -1.5468,-7.61188 -2.9463,-11.26927 -1.0961,-3.35258 -2.2185,-6.80693 -2.3943,-10.34639 0,-4.69257 0,-9.38517 0.015,-14.07769 0.028,-5.15813 0.035,-10.31954 0.312,-15.47185 0.2258,-3.86848 0.642,-7.73065 0.5261,-11.61119 -0.01,-5.00856 -0.033,-10.01964 -0.2834,-15.02304 -0.3154,-4.68019 -0.9816,-9.2741 -2.2724,-13.79474 -1.1468,-6.12878 -1.8868,-12.32334 -2.2383,-18.55195 -0.5619,-11.04178 0.031,-22.12067 -0.211,-33.17118 -0.012,-11.98314 -0.05,-23.96644 0,-35.94949 0.033,-2.51839 0.047,-5.03571 0.2163,-7.54965 0.048,-0.71853 0.1311,-1.22317 0.09,-1.23815 -0.1238,-0.0446 -0.2089,0.16016 -0.3133,0.24025 -0.6058,0.22018 0.169,-0.0246 0.087,-0.23659 -0.05,-0.13058 -0.3784,0.17922 -0.4176,0.0448 -0.138,-0.47328 2.9118,-0.42002 2.8402,-0.55644 6.5404,-0.28234 13.0968,0.0177 19.6411,-0.0981 7.6299,-0.004 15.2598,-0.0116 22.8897,-0.0138 7.2562,0.007 14.5138,0.0127 21.7674,0.23488 8.3183,0.2922 16.6365,0.75305 24.8969,1.81906 6.2687,0.66913 12.5365,1.43809 18.8466,1.55223 5.5465,0.32729 11.0721,0.95721 16.6276,1.12493 6.7976,0.22241 13.6055,0.15634 20.3797,-0.52155 6.3027,-0.75948 12.5864,-1.6742 18.8976,-2.36749 6.4502,-0.8758 12.8585,-2.05811 19.3436,-2.64753 0.4691,0.0109 0.9382,0.0193 1.4072,0.033 0.2872,0.008 0.7494,0.29811 0.8611,0.0335 0.1046,-0.2476 -0.6384,-0.0725 -0.7394,-0.32165 -4.1973,-10.35878 -4.7655,-6.37392 -0.4974,-11.23093 0.1373,-0.15624 -0.3602,0.20804 -0.5403,0.31205 -2.776,1.63846 -5.1219,3.7374 -7.1024,6.29256 -2.2021,2.94492 -4.5932,5.74894 -6.5934,8.84203 -2.1062,3.00191 -4.7841,5.50201 -7.3228,8.13186 -3.0946,3.14431 -5.9454,6.51317 -8.6542,9.99506 -2.2956,2.84348 -4.4571,5.78144 -6.4358,8.85571 -2.4047,3.24101 -4.9255,6.39323 -7.2877,9.66679 -2.6311,3.86831 -5.7771,7.34983 -8.4385,11.20058 -3.6852,5.36972 -7.5291,10.60114 -12.145,15.23079 -5.0467,5.26127 -10.1359,10.50563 -15.7383,15.18502 -6.9794,5.98234 1.4809,15.85267 8.4603,9.87034 z" /><path
       style="fill:#000000;fill-opacity:1;stroke:none;stroke-width:200;paint-order:markers stroke fill"
       id="path4953"
       d="m 2310.9038,816.953 c 4.0598,-4.79769 7.565,-9.99406 10.5344,-15.52557 1.9189,-3.21141 3.5202,-6.59402 5.3168,-9.87229 1.6644,-2.93449 4.0854,-5.27571 6.3432,-7.73777 2.5564,-3.14441 4.9904,-6.38008 7.5226,-9.54585 2.4516,-2.60024 4.6243,-5.43758 7.0551,-8.05569 2.3408,-2.38802 4.5336,-4.88584 7.0389,-7.10154 2.8843,-2.50026 5.8041,-4.97377 9.0319,-7.02117 4.4722,-2.73624 8.8162,-5.66878 13.1127,-8.67217 1.7999,-1.65592 4.0356,-2.79477 5.8916,-4.37266 0.4672,-0.39712 1.6888,-0.76444 1.3351,-1.26529 -2.5065,-3.54955 -5.9552,-6.32947 -8.9329,-9.49421 -5.555,4.45519 -9.9802,10.12698 -14.8571,15.28588 -4.2573,4.57581 -8.9149,8.76247 -13.4478,13.06253 -5.04,4.47776 -9.8566,9.16271 -14.5017,14.04821 -4.4735,4.46702 -8.3024,9.49008 -11.6538,14.83437 -2.1374,3.25403 -4.0903,6.62099 -6.1531,9.92161 -0.8748,1.55901 -1.7079,3.13211 -2.4989,4.73469 -4.0308,8.26151 7.6527,13.96199 11.6835,5.70048 v 0 c 0.5766,-1.20309 1.2286,-2.35995 1.8396,-3.54544 2.0621,-3.29957 4.0149,-6.66473 6.1508,-9.91804 2.8763,-4.61378 6.1862,-8.93326 10.0546,-12.77149 4.4898,-4.72517 9.1532,-9.24484 14.0271,-13.57397 4.7041,-4.4645 9.5352,-8.81306 13.9507,-13.56667 4.0553,-4.29737 7.931,-8.76208 12.0233,-13.02232 -2.423,-3.49271 -5.0568,-6.84824 -7.2691,-10.47813 -0.1316,-0.21598 0.814,-0.59966 0.6007,-0.46371 -1.9918,1.26947 -3.786,2.84345 -5.6926,4.23063 -4.1607,2.91079 -8.369,5.74942 -12.7028,8.39695 -3.7619,2.44906 -7.2602,5.25383 -10.6218,8.22762 -2.8161,2.50716 -5.3325,5.28156 -7.9488,7.99269 -2.6368,2.8553 -5.0286,5.91608 -7.6687,8.76863 -2.3499,2.94034 -4.6418,5.91902 -6.9568,8.88482 -2.9588,3.23686 -6.0466,6.38622 -8.1615,10.27991 -1.8124,3.32068 -3.4461,6.73571 -5.3803,9.98974 -2.446,4.61989 -5.3893,8.92299 -8.7277,12.94868 -6.1494,6.83263 3.5134,15.52919 9.6628,8.69654 z" /><path
       style="fill:#000000;fill-opacity:1;stroke:none;stroke-width:200;paint-order:markers stroke fill"
       id="path4955"
       d="m 1540.3231,830.61478 c 0.5243,-4.68849 1.7406,-9.25888 2.7605,-13.85519 1.3324,-5.29585 2.1883,-10.68822 2.6632,-16.12387 0.2971,-4.34689 0.3164,-8.70627 0.324,-13.06134 -0.01,-3.38318 0.033,-6.76511 -0.1279,-10.14484 -0.2796,-4.17087 -0.4972,-8.34491 -0.6361,-12.52276 -0.1311,-2.07057 -0.3735,-4.15374 -1.0094,-6.13918 -0.4551,-1.42115 -1.191,-2.66851 -1.6993,-4.05606 -0.8046,-6.50859 -0.3134,-5.83695 -13.5074,-1.19843 -0.8788,0.30898 -0.1039,1.86039 -0.1363,2.79138 -0.034,0.97298 -0.041,1.94667 -0.062,2.91999 0.096,4.95054 -0.4438,9.87603 -1.0557,14.77976 4.216,-0.58372 8.5747,-0.51686 12.648,-1.7512 0.6554,-0.19859 -0.071,-1.36784 -0.097,-2.05216 -0.1365,-3.63524 -0.1823,-7.22548 0.1411,-10.85053 0.8981,-5.03722 2.2581,-9.97937 3.4663,-14.94872 1.6251,-6.60673 1.7554,-13.43988 1.9427,-20.20427 0.1298,-5.89471 0.1353,-11.79097 0.1287,-17.68674 -0.1411,-4.43386 0.2045,-8.85412 0.4671,-13.27602 0.3809,-4.225 0.025,-8.45201 -0.1797,-12.67431 -0.2149,-6.14146 -0.2601,-12.28701 -0.2947,-18.43159 0.091,-6.44062 -0.4544,-12.85576 -1.399,-19.22013 -0.6483,-4.54345 -1.8154,-8.9881 -2.4035,-13.54015 -0.4012,-3.71364 -1.1808,-7.36958 -1.6072,-11.08401 -0.413,-3.79486 -0.2914,-7.58666 -0.038,-11.38333 0.209,-2.69835 0.3638,-5.39951 0.4346,-8.10492 0.029,-2.66433 0.1885,-5.80943 -1.5783,-8.04792 -0.7665,-0.97102 -1.7926,-1.70526 -2.6889,-2.55788 -4.4951,-2.25764 -9.4613,-1.97821 -14.3169,-1.41626 -6.383,0.93088 -12.5875,2.78154 -18.8987,4.09313 -5.5036,1.00213 -11.0159,1.93955 -16.5531,2.73804 -5.6975,0.8451 -11.4514,0.93747 -17.1915,0.63336 -6.0994,-0.3978 -12.1864,-0.92954 -18.2648,-1.56893 -7.8334,-0.76671 -15.6099,-1.97765 -23.4344,-2.824 -7.1988,-0.81439 -14.4469,-0.93689 -21.6831,-1.0233 -4.7125,-0.0443 -9.4252,-0.037 -14.1377,-0.0249 -2.6509,0.008 -5.3018,0.0119 -7.9526,0.0138 -2.1991,0.0618 -4.4598,-0.13628 -6.638,0.26721 -0.7286,0.13496 -1.6685,-0.0109 -2.1541,0.54874 -1.8002,2.07476 -2.9194,4.65392 -4.3791,6.98085 3.7457,5.67195 1.6825,4.43812 5.0984,6.18717 0.8861,0.45368 1.7411,0.84574 2.4178,1.59285 1.3347,1.70116 2.4067,3.58161 3.5776,5.39424 1.5737,3.0778 3.4112,5.99938 5.3398,8.8668 1.8343,2.75182 3.9479,5.32863 5.1384,8.43949 1.391,4.00728 2.8502,7.98238 4.3736,11.94099 1.6721,4.12782 3.4415,8.23307 5.4673,12.20113 3.1982,5.06487 7.3577,9.44044 11.4537,13.78318 3.149,4.03968 6.5806,7.81526 10.18,11.45844 2.6961,2.81207 5.515,5.52215 7.8865,8.62251 1.2076,1.79358 1.5333,3.95007 2.1257,5.99003 0.8444,3.4126 2.4313,6.55937 3.9491,9.70875 1.1545,2.97712 2.9093,5.68788 3.8154,8.75726 1.188,3.58455 2.6848,7.05427 4.5482,10.33682 2.3454,3.50745 5.2271,6.66697 8.2195,9.63613 2.1238,2.0937 3.9118,4.48802 5.7498,6.82747 2.8506,3.2481 5.6826,6.50697 8.3476,9.91451 2.8208,3.41617 4.876,7.34867 7.3565,10.9986 3.2668,3.80561 6.4362,7.68303 9.5751,11.59717 2.2398,3.4944 4.5797,6.54208 7.516,9.4825 4.8833,4.71451 9.3907,9.80964 13.6218,15.11276 3.6958,4.68302 6.4679,9.99731 9.2481,15.25106 2.5182,4.27361 4.6574,8.7393 6.902,13.15241 1.5542,2.52987 2.6835,5.27707 4.0079,7.93092 1.0944,2.43281 2.352,4.78731 3.4942,7.19656 2.7698,5.11394 4.6542,6.07541 13.1681,1.13469 1.6487,-0.95671 1.2,-3.62479 1.6206,-5.48389 0.9098,-4.02045 1.5777,-10.57166 2.0492,-14.47321 1.636,-16.0932 2.2651,-32.26683 2.628,-48.43195 0.068,-7.37775 0.4964,-14.76523 -0.5012,-22.10202 -0.5633,-4.142 -0.9954,-5.5562 -1.9425,-9.58607 -1.9077,-7.41934 -4.253,-14.7162 -6.3428,-22.08485 -2.1818,-7.1147 -3.6807,-14.39344 -4.6781,-21.76039 -0.4029,-2.80456 0.1278,-5.52482 0.5754,-8.27479 0.6029,-2.37027 1.1298,-4.75745 1.5511,-7.16661 0.2038,-1.58737 0.4288,-3.16113 0.7367,-4.73096 1.7601,-9.02232 -10.9994,-11.51141 -12.7595,-2.48909 v 0 c -0.3223,1.65991 -0.5893,3.32404 -0.7868,5.00342 -0.4191,2.45603 -1.0302,4.86752 -1.5732,7.29798 -0.6518,4.01722 -1.2164,8.03545 -0.6249,12.11352 1.0904,7.97156 2.6997,15.85397 5.0532,23.55644 2.0415,7.18775 4.3178,14.30933 6.2011,21.54105 0.9691,4.0249 1.894,8.05961 2.1538,12.20875 0.3371,5.3834 -0.1405,10.79741 -0.059,16.18239 -0.3522,15.74472 -0.9602,31.49759 -2.5386,47.1736 -2.6832,22.50797 0.6865,-4.87556 -1.7867,13.00485 -0.083,0.59812 -0.7116,1.68844 -0.1196,1.80753 10.0027,2.01229 11.0089,2.02485 9.7066,-0.0427 -1.1868,-2.47213 -2.4567,-4.90405 -3.5939,-7.40061 -1.3462,-2.69578 -2.5039,-5.49108 -4.0757,-8.06479 -1.613,-3.09462 0.568,1.14271 -1.5717,-3.27366 -1.6553,-3.41638 -3.6489,-6.66057 -5.4058,-10.02366 -3.1657,-5.97093 -6.3569,-11.98303 -10.5854,-17.28793 -4.5659,-5.69201 -9.3939,-11.18677 -14.6514,-16.25399 -2.5738,-2.46517 -4.4612,-5.4429 -6.4971,-8.35448 -2.9371,-3.6594 -5.8516,-7.33446 -8.9966,-10.81818 -2.6747,-3.84373 -4.7829,-8.07707 -7.8415,-11.65971 -2.6736,-3.40736 -5.4803,-6.69925 -8.3588,-9.92889 -2.1805,-2.77497 -4.327,-5.59234 -6.8573,-8.06513 -2.1923,-2.12617 -4.2357,-4.45111 -6.0821,-6.8775 -1.4585,-2.43406 -2.4662,-5.11014 -3.4148,-7.77571 -1.2001,-3.62476 -2.9577,-6.97352 -4.4948,-10.46157 -1.2121,-2.5032 -2.523,-4.98417 -3.1782,-7.70517 -1.0656,-3.60704 -1.9262,-7.28676 -4.3312,-10.30811 -2.7284,-3.48499 -5.8158,-6.64877 -8.9189,-9.79953 -1.7818,-1.79615 -3.5805,-3.59916 -5.2454,-5.50643 -1.3331,-1.52723 -1.5909,-2.04087 -2.9451,-3.68131 -0.5751,-0.69659 -1.1829,-1.36544 -1.7744,-2.04817 -3.2725,-3.4649 -6.5475,-6.96354 -9.355,-10.821 -1.8483,-3.52759 -3.3578,-7.23919 -4.8885,-10.91176 -1.5554,-4.03736 -3.0218,-8.09983 -4.4676,-12.17803 -1.6408,-3.90002 -3.9133,-7.38566 -6.3996,-10.80217 -1.8946,-2.79713 -3.6196,-5.67989 -5.2042,-8.66164 -1.8017,-2.77389 -3.4244,-5.70434 -5.8298,-8.02397 -1.3753,-1.17171 -2.6917,-2.16866 -4.2802,-3.03612 -2.835,-1.54826 -1.2279,-0.1719 1.0711,4.0254 -1.4768,2.08759 -2.8128,4.28228 -4.4304,6.26277 -0.1577,0.19309 -0.9922,0.0995 -0.7443,0.0729 1.7933,-0.19286 3.585,-0.25908 5.389,-0.20611 2.6586,-0.003 5.3173,-0.006 7.9759,-0.014 4.65,-0.0119 9.3,-0.0193 13.9499,0.0241 6.8216,0.0805 13.6554,0.18254 20.4421,0.94912 7.8372,0.84441 15.625,2.06774 23.4717,2.82794 6.3107,0.66207 12.6303,1.2156 18.963,1.62333 6.5825,0.32255 13.1796,0.2278 19.7115,-0.75039 5.8029,-0.8409 11.5815,-1.81806 17.3482,-2.8783 5.9668,-1.2493 11.8417,-2.96084 17.861,-3.92009 1.6892,-0.23889 3.2335,-0.36044 4.9368,-0.27517 0.2826,0.014 0.5637,0.0516 0.8464,0.0642 0.098,0.005 0.3472,0.0702 0.2952,-0.0135 -0.1258,-0.20196 -0.3804,-0.28583 -0.5707,-0.42876 -0.8053,-1.01441 -2.0105,-2.54283 -1.5735,-2.90161 0.081,-0.0662 0.06,0.20228 0.064,0.30663 0.01,0.17563 -0.024,1.83472 -0.028,2.03493 -0.065,2.52969 -0.216,5.05484 -0.4103,7.57788 -0.3039,4.58309 -0.4066,9.16768 0.096,13.74516 0.4427,3.78045 1.2125,7.50456 1.6317,11.28194 0.6178,4.62732 1.7185,9.15958 2.4359,13.77064 0.8715,5.74839 1.3392,11.54771 1.2556,17.36658 0.036,6.33085 0.083,12.6628 0.3099,18.99029 0.1831,3.75552 0.533,7.51358 0.1872,11.27162 -0.2781,4.68304 -0.6295,9.36564 -0.4899,14.06109 0.01,5.77197 0,11.54438 -0.1238,17.31529 -0.1593,5.84917 -0.2058,11.77012 -1.5798,17.49017 -1.3656,5.61769 -2.9408,11.20328 -3.7884,16.92961 -0.3409,4.24108 -0.3736,8.45137 -0.1646,12.70259 0.052,1.05272 -0.7863,2.80807 0.2089,3.1551 4.1555,1.44889 8.7454,0.99441 13.118,1.49162 0.6637,-5.34739 1.2386,-10.71949 1.1524,-16.11673 0.017,-0.87159 0.028,-1.74334 0.052,-2.61477 0.018,-0.65738 0.7093,-1.80147 0.074,-1.97149 -12.7159,-3.40349 -13.3936,-5.39885 -12.4971,0.14801 0.4063,2.5141 0.2997,1.8311 1.0096,4.48614 0.8006,1.93435 1.8346,3.61643 1.7857,5.79922 0.1421,4.25328 0.3594,8.50305 0.6457,12.74919 0.1743,3.15089 0.078,6.30832 0.1111,9.46308 -0.01,3.99209 -0.02,7.98793 -0.2765,11.9734 -0.4071,4.86434 -1.2106,9.68241 -2.4022,14.41863 -1.1308,5.09818 -2.4618,10.17082 -3.0044,15.37708 -0.9147,9.14675 12.0208,10.4403 12.9354,1.29355 z" /></g></svg>
